<?xml version="1.0" encoding="UTF-8" standalone="no"?>
<!DOCTYPE svg PUBLIC "-//W3C//DTD SVG 1.1//EN"
 "http://www.w3.org/Graphics/SVG/1.1/DTD/svg11.dtd">
<!-- Generated by graphviz version 2.43.0 (0)
 -->
<!-- Title: userver/logging/logger.hpp Pages: 1 -->
<svg width="537pt" height="137pt"
 viewBox="0.00 0.00 536.98 137.00" xmlns="http://www.w3.org/2000/svg" xmlns:xlink="http://www.w3.org/1999/xlink">
<g id="graph0" class="graph" transform="scale(1 1) rotate(0) translate(4 133)">
<title>userver/logging/logger.hpp</title>
<!-- Node1 -->
<g id="Node000001" class="node">
<title>Node1</title>
<g id="a_Node000001"><a xlink:title="Logger definitions and helpers.">
<polygon fill="#999999" stroke="#666666" points="313.98,-129 167.98,-129 167.98,-110 313.98,-110 313.98,-129"/>
<text text-anchor="middle" x="240.98" y="-117" font-family="Helvetica,sans-Serif" font-size="10.00">userver/logging/logger.hpp</text>
</a>
</g>
</g>
<!-- Node2 -->
<g id="Node000002" class="node">
<title>Node2</title>
<g id="a_Node000002"><a xlink:title=" ">
<polygon fill="#e0e0e0" stroke="#999999" points="62.98,-19 4.98,-19 4.98,0 62.98,0 62.98,-19"/>
<text text-anchor="middle" x="33.98" y="-7" font-family="Helvetica,sans-Serif" font-size="10.00">memory</text>
</a>
</g>
</g>
<!-- Node1&#45;&gt;Node2 -->
<g id="edge1_Node000001_Node000002" class="edge">
<title>Node1&#45;&gt;Node2</title>
<g id="a_edge1_Node000001_Node000002"><a xlink:title=" ">
<path fill="none" stroke="#63b8ff" d="M167.89,-114.68C106.44,-109.76 25.43,-98.68 4.98,-74 -6.68,-59.94 5.44,-40.42 17.38,-26.75"/>
<polygon fill="#63b8ff" stroke="#63b8ff" points="20.28,-28.78 24.58,-19.09 15.18,-23.98 20.28,-28.78"/>
</a>
</g>
</g>
<!-- Node3 -->
<g id="Node000003" class="node">
<title>Node3</title>
<g id="a_Node000003"><a xlink:title=" ">
<polygon fill="#e0e0e0" stroke="#999999" points="371.98,-19 327.98,-19 327.98,0 371.98,0 371.98,-19"/>
<text text-anchor="middle" x="349.98" y="-7" font-family="Helvetica,sans-Serif" font-size="10.00">string</text>
</a>
</g>
</g>
<!-- Node1&#45;&gt;Node3 -->
<g id="edge2_Node000001_Node000003" class="edge">
<title>Node1&#45;&gt;Node3</title>
<g id="a_edge2_Node000001_Node000003"><a xlink:title=" ">
<path fill="none" stroke="#63b8ff" d="M266.83,-109.99C284.93,-102.88 308.54,-91.12 323.98,-74 335.43,-61.29 342.22,-42.86 345.97,-29.12"/>
<polygon fill="#63b8ff" stroke="#63b8ff" points="349.39,-29.86 348.35,-19.31 342.59,-28.2 349.39,-29.86"/>
</a>
</g>
</g>
<!-- Node4 -->
<g id="Node000004" class="node">
<title>Node4</title>
<g id="a_Node000004"><a xlink:href="../../d4/d0a/format_8hpp.html" target="_top" xlink:title="Log formats.">
<polygon fill="white" stroke="#666666" points="315.48,-74 166.48,-74 166.48,-55 315.48,-55 315.48,-74"/>
<text text-anchor="middle" x="240.98" y="-62" font-family="Helvetica,sans-Serif" font-size="10.00">userver/logging/format.hpp</text>
</a>
</g>
</g>
<!-- Node1&#45;&gt;Node4 -->
<g id="edge3_Node000001_Node000004" class="edge">
<title>Node1&#45;&gt;Node4</title>
<g id="a_edge3_Node000001_Node000004"><a xlink:title=" ">
<path fill="none" stroke="#63b8ff" d="M240.98,-109.75C240.98,-102.8 240.98,-92.85 240.98,-84.13"/>
<polygon fill="#63b8ff" stroke="#63b8ff" points="244.48,-84.09 240.98,-74.09 237.48,-84.09 244.48,-84.09"/>
</a>
</g>
</g>
<!-- Node6 -->
<g id="Node000006" class="node">
<title>Node6</title>
<g id="a_Node000006"><a xlink:href="../../db/dfb/universal_2include_2userver_2logging_2fwd_8hpp.html" target="_top" xlink:title="Forward declarations for logging types.">
<polygon fill="white" stroke="#666666" points="147.98,-74 13.98,-74 13.98,-55 147.98,-55 147.98,-74"/>
<text text-anchor="middle" x="80.98" y="-62" font-family="Helvetica,sans-Serif" font-size="10.00">userver/logging/fwd.hpp</text>
</a>
</g>
</g>
<!-- Node1&#45;&gt;Node6 -->
<g id="edge5_Node000001_Node000006" class="edge">
<title>Node1&#45;&gt;Node6</title>
<g id="a_edge5_Node000001_Node000006"><a xlink:title=" ">
<path fill="none" stroke="#63b8ff" d="M215.27,-109.98C188.52,-101.13 146.45,-87.19 116.53,-77.28"/>
<polygon fill="#63b8ff" stroke="#63b8ff" points="117.48,-73.9 106.88,-74.08 115.28,-80.55 117.48,-73.9"/>
</a>
</g>
</g>
<!-- Node7 -->
<g id="Node000007" class="node">
<title>Node7</title>
<g id="a_Node000007"><a xlink:href="../../d5/d37/level_8hpp.html" target="_top" xlink:title="Log levels.">
<polygon fill="white" stroke="#666666" points="510.98,-74 370.98,-74 370.98,-55 510.98,-55 510.98,-74"/>
<text text-anchor="middle" x="440.98" y="-62" font-family="Helvetica,sans-Serif" font-size="10.00">userver/logging/level.hpp</text>
</a>
</g>
</g>
<!-- Node1&#45;&gt;Node7 -->
<g id="edge7_Node000001_Node000007" class="edge">
<title>Node1&#45;&gt;Node7</title>
<g id="a_edge7_Node000001_Node000007"><a xlink:title=" ">
<path fill="none" stroke="#63b8ff" d="M273.11,-109.98C307.12,-100.97 360.97,-86.7 398.48,-76.76"/>
<polygon fill="#63b8ff" stroke="#63b8ff" points="399.82,-80.03 408.59,-74.08 398.03,-73.26 399.82,-80.03"/>
</a>
</g>
</g>
<!-- Node5 -->
<g id="Node000005" class="node">
<title>Node5</title>
<g id="a_Node000005"><a xlink:title=" ">
<polygon fill="#e0e0e0" stroke="#999999" points="277.48,-19 204.48,-19 204.48,0 277.48,0 277.48,-19"/>
<text text-anchor="middle" x="240.98" y="-7" font-family="Helvetica,sans-Serif" font-size="10.00">string_view</text>
</a>
</g>
</g>
<!-- Node4&#45;&gt;Node5 -->
<g id="edge4_Node000004_Node000005" class="edge">
<title>Node4&#45;&gt;Node5</title>
<g id="a_edge4_Node000004_Node000005"><a xlink:title=" ">
<path fill="none" stroke="#63b8ff" d="M240.98,-54.75C240.98,-47.8 240.98,-37.85 240.98,-29.13"/>
<polygon fill="#63b8ff" stroke="#63b8ff" points="244.48,-29.09 240.98,-19.09 237.48,-29.09 244.48,-29.09"/>
</a>
</g>
</g>
<!-- Node6&#45;&gt;Node2 -->
<g id="edge6_Node000006_Node000002" class="edge">
<title>Node6&#45;&gt;Node2</title>
<g id="a_edge6_Node000006_Node000002"><a xlink:title=" ">
<path fill="none" stroke="#63b8ff" d="M73.21,-54.75C66.51,-47.18 56.63,-36.05 48.47,-26.84"/>
<polygon fill="#63b8ff" stroke="#63b8ff" points="50.85,-24.25 41.59,-19.09 45.61,-28.89 50.85,-24.25"/>
</a>
</g>
</g>
<!-- Node7&#45;&gt;Node3 -->
<g id="edge10_Node000007_Node000003" class="edge">
<title>Node7&#45;&gt;Node3</title>
<g id="a_edge10_Node000007_Node000003"><a xlink:title=" ">
<path fill="none" stroke="#63b8ff" d="M426.36,-54.98C412.11,-46.69 390.22,-33.94 373.52,-24.22"/>
<polygon fill="#63b8ff" stroke="#63b8ff" points="375.27,-21.18 364.86,-19.17 371.74,-27.23 375.27,-21.18"/>
</a>
</g>
</g>
<!-- Node8 -->
<g id="Node000008" class="node">
<title>Node8</title>
<g id="a_Node000008"><a xlink:title=" ">
<polygon fill="#e0e0e0" stroke="#999999" points="528.98,-19 478.98,-19 478.98,0 528.98,0 528.98,-19"/>
<text text-anchor="middle" x="503.98" y="-7" font-family="Helvetica,sans-Serif" font-size="10.00">cstdint</text>
</a>
</g>
</g>
<!-- Node7&#45;&gt;Node8 -->
<g id="edge8_Node000007_Node000008" class="edge">
<title>Node7&#45;&gt;Node8</title>
<g id="a_edge8_Node000007_Node000008"><a xlink:title=" ">
<path fill="none" stroke="#63b8ff" d="M451.1,-54.98C460.41,-47.15 474.44,-35.34 485.71,-25.86"/>
<polygon fill="#63b8ff" stroke="#63b8ff" points="488.27,-28.29 493.67,-19.17 483.76,-22.93 488.27,-28.29"/>
</a>
</g>
</g>
<!-- Node9 -->
<g id="Node000009" class="node">
<title>Node9</title>
<g id="a_Node000009"><a xlink:title=" ">
<polygon fill="#e0e0e0" stroke="#999999" points="460.98,-19 404.98,-19 404.98,0 460.98,0 460.98,-19"/>
<text text-anchor="middle" x="432.98" y="-7" font-family="Helvetica,sans-Serif" font-size="10.00">optional</text>
</a>
</g>
</g>
<!-- Node7&#45;&gt;Node9 -->
<g id="edge9_Node000007_Node000009" class="edge">
<title>Node7&#45;&gt;Node9</title>
<g id="a_edge9_Node000007_Node000009"><a xlink:title=" ">
<path fill="none" stroke="#63b8ff" d="M439.65,-54.75C438.61,-47.8 437.1,-37.85 435.79,-29.13"/>
<polygon fill="#63b8ff" stroke="#63b8ff" points="439.23,-28.45 434.27,-19.09 432.3,-29.5 439.23,-28.45"/>
</a>
</g>
</g>
</g>
</svg>
