<?xml version="1.0" encoding="UTF-8" standalone="no"?>
<!DOCTYPE svg PUBLIC "-//W3C//DTD SVG 1.1//EN"
 "http://www.w3.org/Graphics/SVG/1.1/DTD/svg11.dtd">
<!-- Generated by graphviz version 2.43.0 (0)
 -->
<!-- Title: userver/utils/scope_guard.hpp Pages: 1 -->
<svg width="2137pt" height="412pt"
 viewBox="0.00 0.00 2136.50 412.00" xmlns="http://www.w3.org/2000/svg" xmlns:xlink="http://www.w3.org/1999/xlink">
<g id="graph0" class="graph" transform="scale(1 1) rotate(0) translate(4 408)">
<title>userver/utils/scope_guard.hpp</title>
<!-- Node1 -->
<g id="Node000001" class="node">
<title>Node1</title>
<g id="a_Node000001"><a xlink:title="a helper class to perform actions on scope exit">
<polygon fill="#999999" stroke="#666666" points="1153.5,-404 1044.5,-404 1044.5,-374 1153.5,-374 1153.5,-404"/>
<text text-anchor="start" x="1052.5" y="-392" font-family="Helvetica,sans-Serif" font-size="10.00">userver/utils/scope</text>
<text text-anchor="middle" x="1099" y="-381" font-family="Helvetica,sans-Serif" font-size="10.00">_guard.hpp</text>
</a>
</g>
</g>
<!-- Node2 -->
<g id="Node000002" class="node">
<title>Node2</title>
<g id="a_Node000002"><a xlink:title=" ">
<polygon fill="#e0e0e0" stroke="#999999" points="500.5,-211.5 435.5,-211.5 435.5,-192.5 500.5,-192.5 500.5,-211.5"/>
<text text-anchor="middle" x="468" y="-199.5" font-family="Helvetica,sans-Serif" font-size="10.00">exception</text>
</a>
</g>
</g>
<!-- Node1&#45;&gt;Node2 -->
<g id="edge1_Node000001_Node000002" class="edge">
<title>Node1&#45;&gt;Node2</title>
<g id="a_edge1_Node000001_Node000002"><a xlink:title=" ">
<path fill="none" stroke="#63b8ff" d="M1044.35,-383.97C916.18,-373.63 600.57,-342.65 515,-283 493.57,-268.06 480.43,-239.95 473.68,-221.34"/>
<polygon fill="#63b8ff" stroke="#63b8ff" points="476.93,-220.02 470.42,-211.66 470.29,-222.25 476.93,-220.02"/>
</a>
</g>
</g>
<!-- Node3 -->
<g id="Node000003" class="node">
<title>Node3</title>
<g id="a_Node000003"><a xlink:title=" ">
<polygon fill="#e0e0e0" stroke="#999999" points="1239.5,-338 1174.5,-338 1174.5,-319 1239.5,-319 1239.5,-338"/>
<text text-anchor="middle" x="1207" y="-326" font-family="Helvetica,sans-Serif" font-size="10.00">functional</text>
</a>
</g>
</g>
<!-- Node1&#45;&gt;Node3 -->
<g id="edge2_Node000001_Node000003" class="edge">
<title>Node1&#45;&gt;Node3</title>
<g id="a_edge2_Node000001_Node000003"><a xlink:title=" ">
<path fill="none" stroke="#63b8ff" d="M1124.87,-373.99C1142.24,-364.58 1165.01,-352.24 1182.17,-342.95"/>
<polygon fill="#63b8ff" stroke="#63b8ff" points="1183.92,-345.98 1191.05,-338.14 1180.59,-339.82 1183.92,-345.98"/>
</a>
</g>
</g>
<!-- Node4 -->
<g id="Node000004" class="node">
<title>Node4</title>
<g id="a_Node000004"><a xlink:href="../../dd/de6/universal_2include_2userver_2logging_2log_8hpp.html" target="_top" xlink:title="Logging helpers.">
<polygon fill="white" stroke="#666666" points="1117.5,-338 986.5,-338 986.5,-319 1117.5,-319 1117.5,-338"/>
<text text-anchor="middle" x="1052" y="-326" font-family="Helvetica,sans-Serif" font-size="10.00">userver/logging/log.hpp</text>
</a>
</g>
</g>
<!-- Node1&#45;&gt;Node4 -->
<g id="edge3_Node000001_Node000004" class="edge">
<title>Node1&#45;&gt;Node4</title>
<g id="a_edge3_Node000001_Node000004"><a xlink:title=" ">
<path fill="none" stroke="#63b8ff" d="M1087.62,-373.84C1080.94,-365.52 1072.45,-354.96 1065.44,-346.23"/>
<polygon fill="#63b8ff" stroke="#63b8ff" points="1068.03,-343.87 1059.04,-338.27 1062.58,-348.25 1068.03,-343.87"/>
</a>
</g>
</g>
<!-- Node36 -->
<g id="Node000036" class="node">
<title>Node36</title>
<g id="a_Node000036"><a xlink:href="../../d2/d54/assert_8hpp.html" target="_top" xlink:title="Assertion macros UASSERT, UASSERT_MSG, UINVARIANT.">
<polygon fill="white" stroke="#666666" points="2128.5,-277.5 1997.5,-277.5 1997.5,-258.5 2128.5,-258.5 2128.5,-277.5"/>
<text text-anchor="middle" x="2063" y="-265.5" font-family="Helvetica,sans-Serif" font-size="10.00">userver/utils/assert.hpp</text>
</a>
</g>
</g>
<!-- Node1&#45;&gt;Node36 -->
<g id="edge60_Node000001_Node000036" class="edge">
<title>Node1&#45;&gt;Node36</title>
<g id="a_edge60_Node000001_Node000036"><a xlink:title=" ">
<path fill="none" stroke="#63b8ff" d="M1107.65,-373.81C1118.65,-357.25 1139.34,-330.64 1165,-319 1247.85,-281.42 1892.56,-292.86 1983,-283 1991.86,-282.03 2001.22,-280.69 2010.3,-279.22"/>
<polygon fill="#63b8ff" stroke="#63b8ff" points="2011.11,-282.63 2020.38,-277.51 2009.94,-275.73 2011.11,-282.63"/>
</a>
</g>
</g>
<!-- Node5 -->
<g id="Node000005" class="node">
<title>Node5</title>
<g id="a_Node000005"><a xlink:title=" ">
<polygon fill="#e0e0e0" stroke="#999999" points="1941,-211.5 1891,-211.5 1891,-192.5 1941,-192.5 1941,-211.5"/>
<text text-anchor="middle" x="1916" y="-199.5" font-family="Helvetica,sans-Serif" font-size="10.00">chrono</text>
</a>
</g>
</g>
<!-- Node4&#45;&gt;Node5 -->
<g id="edge4_Node000004_Node000005" class="edge">
<title>Node4&#45;&gt;Node5</title>
<g id="a_edge4_Node000004_Node000005"><a xlink:title=" ">
<path fill="none" stroke="#63b8ff" d="M1117.57,-320.53C1286.3,-302.31 1732.38,-252.22 1877,-217 1879.66,-216.35 1882.39,-215.59 1885.11,-214.75"/>
<polygon fill="#63b8ff" stroke="#63b8ff" points="1886.41,-218.01 1894.79,-211.53 1884.2,-211.37 1886.41,-218.01"/>
</a>
</g>
</g>
<!-- Node6 -->
<g id="Node000006" class="node">
<title>Node6</title>
<g id="a_Node000006"><a xlink:href="../../d2/d84/select_8hpp.html" target="_top" xlink:title="Utilities for selection of platform specific values.">
<polygon fill="white" stroke="#666666" points="152,-145.5 0,-145.5 0,-126.5 152,-126.5 152,-145.5"/>
<text text-anchor="middle" x="76" y="-133.5" font-family="Helvetica,sans-Serif" font-size="10.00">userver/compiler/select.hpp</text>
</a>
</g>
</g>
<!-- Node4&#45;&gt;Node6 -->
<g id="edge5_Node000004_Node000006" class="edge">
<title>Node4&#45;&gt;Node6</title>
<g id="a_edge5_Node000004_Node000006"><a xlink:title=" ">
<path fill="none" stroke="#63b8ff" d="M1000.57,-318.97C951.64,-310.63 876.06,-297.16 811,-283 693.24,-257.38 656.47,-269.5 548,-217 528.32,-207.47 529.31,-195.1 509,-187 364.56,-129.41 315.12,-171.64 161,-151 152.38,-149.85 143.3,-148.49 134.4,-147.09"/>
<polygon fill="#63b8ff" stroke="#63b8ff" points="134.9,-143.63 124.47,-145.5 133.79,-150.54 134.9,-143.63"/>
</a>
</g>
</g>
<!-- Node8 -->
<g id="Node000008" class="node">
<title>Node8</title>
<g id="a_Node000008"><a xlink:href="../../db/dfb/universal_2include_2userver_2logging_2fwd_8hpp.html" target="_top" xlink:title="Forward declarations for logging types.">
<polygon fill="white" stroke="#666666" points="790,-145.5 656,-145.5 656,-126.5 790,-126.5 790,-145.5"/>
<text text-anchor="middle" x="723" y="-133.5" font-family="Helvetica,sans-Serif" font-size="10.00">userver/logging/fwd.hpp</text>
</a>
</g>
</g>
<!-- Node4&#45;&gt;Node8 -->
<g id="edge7_Node000004_Node000008" class="edge">
<title>Node4&#45;&gt;Node8</title>
<g id="a_edge7_Node000004_Node000008"><a xlink:title=" ">
<path fill="none" stroke="#63b8ff" d="M995.28,-318.96C931.27,-306.66 827.43,-278.29 761,-217 743.03,-200.42 732.72,-173.58 727.49,-155.61"/>
<polygon fill="#63b8ff" stroke="#63b8ff" points="730.82,-154.51 724.87,-145.75 724.06,-156.31 730.82,-154.51"/>
</a>
</g>
</g>
<!-- Node10 -->
<g id="Node000010" class="node">
<title>Node10</title>
<g id="a_Node000010"><a xlink:href="../../d5/d37/level_8hpp.html" target="_top" xlink:title="Log levels.">
<polygon fill="white" stroke="#666666" points="986,-211.5 846,-211.5 846,-192.5 986,-192.5 986,-211.5"/>
<text text-anchor="middle" x="916" y="-199.5" font-family="Helvetica,sans-Serif" font-size="10.00">userver/logging/level.hpp</text>
</a>
</g>
</g>
<!-- Node4&#45;&gt;Node10 -->
<g id="edge9_Node000004_Node000010" class="edge">
<title>Node4&#45;&gt;Node10</title>
<g id="a_edge9_Node000004_Node000010"><a xlink:title=" ">
<path fill="none" stroke="#63b8ff" d="M1042.65,-318.94C1020.04,-298.24 962.11,-245.21 933.1,-218.65"/>
<polygon fill="#63b8ff" stroke="#63b8ff" points="935.15,-215.79 925.41,-211.62 930.43,-220.95 935.15,-215.79"/>
</a>
</g>
</g>
<!-- Node14 -->
<g id="Node000014" class="node">
<title>Node14</title>
<g id="a_Node000014"><a xlink:href="../../d4/dc3/log__filepath_8hpp.html" target="_top" xlink:title="Short source path calculator.">
<polygon fill="white" stroke="#666666" points="1979,-151 1869,-151 1869,-121 1979,-121 1979,-151"/>
<text text-anchor="start" x="1877" y="-139" font-family="Helvetica,sans-Serif" font-size="10.00">userver/logging/log</text>
<text text-anchor="middle" x="1924" y="-128" font-family="Helvetica,sans-Serif" font-size="10.00">_filepath.hpp</text>
</a>
</g>
</g>
<!-- Node4&#45;&gt;Node14 -->
<g id="edge13_Node000004_Node000014" class="edge">
<title>Node4&#45;&gt;Node14</title>
<g id="a_edge13_Node000004_Node000014"><a xlink:title=" ">
<path fill="none" stroke="#63b8ff" d="M1117.56,-320.74C1123.79,-320.14 1130.02,-319.55 1136,-319 1317.55,-302.39 1832.83,-356.66 1950,-217 1963.67,-200.71 1953.37,-177.07 1941.96,-159.71"/>
<polygon fill="#63b8ff" stroke="#63b8ff" points="1944.63,-157.43 1936,-151.27 1938.91,-161.46 1944.63,-157.43"/>
</a>
</g>
</g>
<!-- Node16 -->
<g id="Node000016" class="node">
<title>Node16</title>
<g id="a_Node000016"><a xlink:href="../../db/d94/log__helper_8hpp.html" target="_top" xlink:title=" ">
<polygon fill="white" stroke="#666666" points="1153,-283 1043,-283 1043,-253 1153,-253 1153,-283"/>
<text text-anchor="start" x="1051" y="-271" font-family="Helvetica,sans-Serif" font-size="10.00">userver/logging/log</text>
<text text-anchor="middle" x="1098" y="-260" font-family="Helvetica,sans-Serif" font-size="10.00">_helper.hpp</text>
</a>
</g>
</g>
<!-- Node4&#45;&gt;Node16 -->
<g id="edge15_Node000004_Node000016" class="edge">
<title>Node4&#45;&gt;Node16</title>
<g id="a_edge15_Node000004_Node000016"><a xlink:title=" ">
<path fill="none" stroke="#63b8ff" d="M1058.79,-318.87C1064.51,-311.59 1072.95,-300.85 1080.54,-291.2"/>
<polygon fill="#63b8ff" stroke="#63b8ff" points="1083.47,-293.14 1086.9,-283.11 1077.97,-288.81 1083.47,-293.14"/>
</a>
</g>
</g>
<!-- Node7 -->
<g id="Node000007" class="node">
<title>Node7</title>
<g id="a_Node000007"><a xlink:title=" ">
<polygon fill="#e0e0e0" stroke="#999999" points="143.5,-79.5 90.5,-79.5 90.5,-60.5 143.5,-60.5 143.5,-79.5"/>
<text text-anchor="middle" x="117" y="-67.5" font-family="Helvetica,sans-Serif" font-size="10.00">cstddef</text>
</a>
</g>
</g>
<!-- Node6&#45;&gt;Node7 -->
<g id="edge6_Node000006_Node000007" class="edge">
<title>Node6&#45;&gt;Node7</title>
<g id="a_edge6_Node000006_Node000007"><a xlink:title=" ">
<path fill="none" stroke="#63b8ff" d="M81.53,-126.37C87.73,-116.69 97.95,-100.74 105.83,-88.44"/>
<polygon fill="#63b8ff" stroke="#63b8ff" points="108.85,-90.21 111.3,-79.91 102.95,-86.44 108.85,-90.21"/>
</a>
</g>
</g>
<!-- Node9 -->
<g id="Node000009" class="node">
<title>Node9</title>
<g id="a_Node000009"><a xlink:title=" ">
<polygon fill="#e0e0e0" stroke="#999999" points="799,-79.5 741,-79.5 741,-60.5 799,-60.5 799,-79.5"/>
<text text-anchor="middle" x="770" y="-67.5" font-family="Helvetica,sans-Serif" font-size="10.00">memory</text>
</a>
</g>
</g>
<!-- Node8&#45;&gt;Node9 -->
<g id="edge8_Node000008_Node000009" class="edge">
<title>Node8&#45;&gt;Node9</title>
<g id="a_edge8_Node000008_Node000009"><a xlink:title=" ">
<path fill="none" stroke="#63b8ff" d="M729.34,-126.37C736.52,-116.59 748.39,-100.42 757.46,-88.08"/>
<polygon fill="#63b8ff" stroke="#63b8ff" points="760.36,-90.04 763.46,-79.91 754.72,-85.89 760.36,-90.04"/>
</a>
</g>
</g>
<!-- Node11 -->
<g id="Node000011" class="node">
<title>Node11</title>
<g id="a_Node000011"><a xlink:title=" ">
<polygon fill="#e0e0e0" stroke="#999999" points="1164,-145.5 1114,-145.5 1114,-126.5 1164,-126.5 1164,-145.5"/>
<text text-anchor="middle" x="1139" y="-133.5" font-family="Helvetica,sans-Serif" font-size="10.00">cstdint</text>
</a>
</g>
</g>
<!-- Node10&#45;&gt;Node11 -->
<g id="edge10_Node000010_Node000011" class="edge">
<title>Node10&#45;&gt;Node11</title>
<g id="a_edge10_Node000010_Node000011"><a xlink:title=" ">
<path fill="none" stroke="#63b8ff" d="M953.49,-192.44C991.72,-183.38 1052.55,-168.06 1104,-151 1105.67,-150.45 1107.37,-149.86 1109.08,-149.24"/>
<polygon fill="#63b8ff" stroke="#63b8ff" points="1110.68,-152.38 1118.79,-145.56 1108.2,-145.83 1110.68,-152.38"/>
</a>
</g>
</g>
<!-- Node12 -->
<g id="Node000012" class="node">
<title>Node12</title>
<g id="a_Node000012"><a xlink:title=" ">
<polygon fill="#e0e0e0" stroke="#999999" points="964,-145.5 908,-145.5 908,-126.5 964,-126.5 964,-145.5"/>
<text text-anchor="middle" x="936" y="-133.5" font-family="Helvetica,sans-Serif" font-size="10.00">optional</text>
</a>
</g>
</g>
<!-- Node10&#45;&gt;Node12 -->
<g id="edge11_Node000010_Node000012" class="edge">
<title>Node10&#45;&gt;Node12</title>
<g id="a_edge11_Node000010_Node000012"><a xlink:title=" ">
<path fill="none" stroke="#63b8ff" d="M918.7,-192.37C921.63,-182.97 926.42,-167.67 930.21,-155.53"/>
<polygon fill="#63b8ff" stroke="#63b8ff" points="933.57,-156.49 933.22,-145.91 926.89,-154.41 933.57,-156.49"/>
</a>
</g>
</g>
<!-- Node13 -->
<g id="Node000013" class="node">
<title>Node13</title>
<g id="a_Node000013"><a xlink:title=" ">
<polygon fill="#e0e0e0" stroke="#999999" points="890,-145.5 846,-145.5 846,-126.5 890,-126.5 890,-145.5"/>
<text text-anchor="middle" x="868" y="-133.5" font-family="Helvetica,sans-Serif" font-size="10.00">string</text>
</a>
</g>
</g>
<!-- Node10&#45;&gt;Node13 -->
<g id="edge12_Node000010_Node000013" class="edge">
<title>Node10&#45;&gt;Node13</title>
<g id="a_edge12_Node000010_Node000013"><a xlink:title=" ">
<path fill="none" stroke="#63b8ff" d="M909.53,-192.37C902.2,-182.59 890.07,-166.42 880.81,-154.08"/>
<polygon fill="#63b8ff" stroke="#63b8ff" points="883.48,-151.81 874.68,-145.91 877.88,-156.01 883.48,-151.81"/>
</a>
</g>
</g>
<!-- Node15 -->
<g id="Node000015" class="node">
<title>Node15</title>
<g id="a_Node000015"><a xlink:title=" ">
<polygon fill="#e0e0e0" stroke="#999999" points="1918.5,-79.5 1845.5,-79.5 1845.5,-60.5 1918.5,-60.5 1918.5,-79.5"/>
<text text-anchor="middle" x="1882" y="-67.5" font-family="Helvetica,sans-Serif" font-size="10.00">string_view</text>
</a>
</g>
</g>
<!-- Node14&#45;&gt;Node15 -->
<g id="edge14_Node000014_Node000015" class="edge">
<title>Node14&#45;&gt;Node15</title>
<g id="a_edge14_Node000014_Node000015"><a xlink:title=" ">
<path fill="none" stroke="#63b8ff" d="M1914.68,-120.8C1908.39,-111.21 1900.05,-98.5 1893.37,-88.32"/>
<polygon fill="#63b8ff" stroke="#63b8ff" points="1896.22,-86.28 1887.8,-79.84 1890.36,-90.13 1896.22,-86.28"/>
</a>
</g>
</g>
<!-- Node16&#45;&gt;Node2 -->
<g id="edge17_Node000016_Node000002" class="edge">
<title>Node16&#45;&gt;Node2</title>
<g id="a_edge17_Node000016_Node000002"><a xlink:title=" ">
<path fill="none" stroke="#63b8ff" d="M1042.8,-263.5C943.51,-256.86 728.35,-240.94 548,-217 535.77,-215.38 522.55,-213.23 510.46,-211.1"/>
<polygon fill="#63b8ff" stroke="#63b8ff" points="511.06,-207.65 500.6,-209.33 509.83,-214.54 511.06,-207.65"/>
</a>
</g>
</g>
<!-- Node16&#45;&gt;Node5 -->
<g id="edge16_Node000016_Node000005" class="edge">
<title>Node16&#45;&gt;Node5</title>
<g id="a_edge16_Node000016_Node000005"><a xlink:title=" ">
<path fill="none" stroke="#63b8ff" d="M1153.11,-265.47C1306.86,-260.88 1738.33,-245.74 1877,-217 1880,-216.38 1883.09,-215.57 1886.14,-214.67"/>
<polygon fill="#63b8ff" stroke="#63b8ff" points="1887.27,-217.98 1895.67,-211.51 1885.07,-211.33 1887.27,-217.98"/>
</a>
</g>
</g>
<!-- Node16&#45;&gt;Node8 -->
<g id="edge33_Node000016_Node000008" class="edge">
<title>Node16&#45;&gt;Node8</title>
<g id="a_edge33_Node000016_Node000008"><a xlink:title=" ">
<path fill="none" stroke="#63b8ff" d="M1042.89,-267.35C981.39,-265.6 880.48,-256.22 804,-217 774.68,-201.96 749.19,-172.58 734.99,-153.92"/>
<polygon fill="#63b8ff" stroke="#63b8ff" points="737.7,-151.7 728.95,-145.73 732.06,-155.85 737.7,-151.7"/>
</a>
</g>
</g>
<!-- Node16&#45;&gt;Node9 -->
<g id="edge20_Node000016_Node000009" class="edge">
<title>Node16&#45;&gt;Node9</title>
<g id="a_edge20_Node000016_Node000009"><a xlink:title=" ">
<path fill="none" stroke="#63b8ff" d="M1042.89,-262.64C975.81,-256.3 867.69,-242.41 837,-217 801.66,-187.73 819.01,-162.29 799,-121 793.61,-109.87 786.69,-97.88 780.96,-88.42"/>
<polygon fill="#63b8ff" stroke="#63b8ff" points="783.77,-86.31 775.54,-79.64 777.81,-89.98 783.77,-86.31"/>
</a>
</g>
</g>
<!-- Node16&#45;&gt;Node10 -->
<g id="edge34_Node000016_Node000010" class="edge">
<title>Node16&#45;&gt;Node10</title>
<g id="a_edge34_Node000016_Node000010"><a xlink:title=" ">
<path fill="none" stroke="#63b8ff" d="M1058.06,-252.95C1025.72,-241.58 980.66,-225.74 950.02,-214.96"/>
<polygon fill="#63b8ff" stroke="#63b8ff" points="950.82,-211.53 940.22,-211.52 948.49,-218.14 950.82,-211.53"/>
</a>
</g>
</g>
<!-- Node16&#45;&gt;Node12 -->
<g id="edge21_Node000016_Node000012" class="edge">
<title>Node16&#45;&gt;Node12</title>
<g id="a_edge21_Node000016_Node000012"><a xlink:title=" ">
<path fill="none" stroke="#63b8ff" d="M1080.35,-252.84C1049.62,-228.18 986.54,-177.56 954.93,-152.19"/>
<polygon fill="#63b8ff" stroke="#63b8ff" points="956.89,-149.28 946.9,-145.75 952.51,-154.74 956.89,-149.28"/>
</a>
</g>
</g>
<!-- Node16&#45;&gt;Node15 -->
<g id="edge22_Node000016_Node000015" class="edge">
<title>Node16&#45;&gt;Node15</title>
<g id="a_edge22_Node000016_Node000015"><a xlink:title=" ">
<path fill="none" stroke="#63b8ff" d="M1153.13,-264.57C1314.93,-257.26 1778.81,-234.84 1806,-217 1817.85,-209.23 1856.96,-125.85 1873.98,-88.69"/>
<polygon fill="#63b8ff" stroke="#63b8ff" points="1877.19,-90.09 1878.15,-79.54 1870.82,-87.19 1877.19,-90.09"/>
</a>
</g>
</g>
<!-- Node17 -->
<g id="Node000017" class="node">
<title>Node17</title>
<g id="a_Node000017"><a xlink:title=" ">
<polygon fill="#e0e0e0" stroke="#999999" points="1030,-145.5 982,-145.5 982,-126.5 1030,-126.5 1030,-145.5"/>
<text text-anchor="middle" x="1006" y="-133.5" font-family="Helvetica,sans-Serif" font-size="10.00">iosfwd</text>
</a>
</g>
</g>
<!-- Node16&#45;&gt;Node17 -->
<g id="edge18_Node000016_Node000017" class="edge">
<title>Node16&#45;&gt;Node17</title>
<g id="a_edge18_Node000016_Node000017"><a xlink:title=" ">
<path fill="none" stroke="#63b8ff" d="M1087.98,-252.84C1070.97,-228.81 1036.53,-180.13 1018.17,-154.19"/>
<polygon fill="#63b8ff" stroke="#63b8ff" points="1020.82,-151.89 1012.19,-145.75 1015.11,-155.93 1020.82,-151.89"/>
</a>
</g>
</g>
<!-- Node18 -->
<g id="Node000018" class="node">
<title>Node18</title>
<g id="a_Node000018"><a xlink:title=" ">
<polygon fill="#e0e0e0" stroke="#999999" points="1273.5,-145.5 1220.5,-145.5 1220.5,-126.5 1273.5,-126.5 1273.5,-145.5"/>
<text text-anchor="middle" x="1247" y="-133.5" font-family="Helvetica,sans-Serif" font-size="10.00">iterator</text>
</a>
</g>
</g>
<!-- Node16&#45;&gt;Node18 -->
<g id="edge19_Node000016_Node000018" class="edge">
<title>Node16&#45;&gt;Node18</title>
<g id="a_edge19_Node000016_Node000018"><a xlink:title=" ">
<path fill="none" stroke="#63b8ff" d="M1153.24,-262C1210.73,-255.51 1295.14,-241.96 1315,-217 1333.89,-193.27 1299.5,-166.59 1273.11,-150.82"/>
<polygon fill="#63b8ff" stroke="#63b8ff" points="1274.62,-147.66 1264.21,-145.72 1271.14,-153.73 1274.62,-147.66"/>
</a>
</g>
</g>
<!-- Node19 -->
<g id="Node000019" class="node">
<title>Node19</title>
<g id="a_Node000019"><a xlink:title=" ">
<polygon fill="#e0e0e0" stroke="#999999" points="1306.5,-211.5 1225.5,-211.5 1225.5,-192.5 1306.5,-192.5 1306.5,-211.5"/>
<text text-anchor="middle" x="1266" y="-199.5" font-family="Helvetica,sans-Serif" font-size="10.00">system_error</text>
</a>
</g>
</g>
<!-- Node16&#45;&gt;Node19 -->
<g id="edge23_Node000016_Node000019" class="edge">
<title>Node16&#45;&gt;Node19</title>
<g id="a_edge23_Node000016_Node000019"><a xlink:title=" ">
<path fill="none" stroke="#63b8ff" d="M1134.87,-252.95C1164.59,-241.63 1205.95,-225.88 1234.23,-215.1"/>
<polygon fill="#63b8ff" stroke="#63b8ff" points="1235.54,-218.35 1243.64,-211.52 1233.05,-211.81 1235.54,-218.35"/>
</a>
</g>
</g>
<!-- Node20 -->
<g id="Node000020" class="node">
<title>Node20</title>
<g id="a_Node000020"><a xlink:title=" ">
<polygon fill="#e0e0e0" stroke="#999999" points="1381.5,-19 1312.5,-19 1312.5,0 1381.5,0 1381.5,-19"/>
<text text-anchor="middle" x="1347" y="-7" font-family="Helvetica,sans-Serif" font-size="10.00">type_traits</text>
</a>
</g>
</g>
<!-- Node16&#45;&gt;Node20 -->
<g id="edge24_Node000016_Node000020" class="edge">
<title>Node16&#45;&gt;Node20</title>
<g id="a_edge24_Node000016_Node000020"><a xlink:title=" ">
<path fill="none" stroke="#63b8ff" d="M1153.27,-264.63C1312.5,-257.62 1764.92,-236.24 1829,-217 1854.92,-209.22 1857.3,-198.07 1882,-187 1927.4,-166.66 1959.02,-191.44 1988,-151 2020.56,-105.56 1935.83,-58.83 1928,-55 1880.26,-31.66 1519.57,-16.66 1391.74,-12.03"/>
<polygon fill="#63b8ff" stroke="#63b8ff" points="1391.65,-8.52 1381.53,-11.66 1391.39,-15.52 1391.65,-8.52"/>
</a>
</g>
</g>
<!-- Node21 -->
<g id="Node000021" class="node">
<title>Node21</title>
<g id="a_Node000021"><a xlink:href="../../da/d00/universal_2include_2userver_2formats_2common_2meta_8hpp.html" target="_top" xlink:title="Metaprogramming helpers for converters detection.">
<polygon fill="white" stroke="#666666" points="1503,-217 1363,-217 1363,-187 1503,-187 1503,-217"/>
<text text-anchor="start" x="1371" y="-205" font-family="Helvetica,sans-Serif" font-size="10.00">userver/formats/common</text>
<text text-anchor="middle" x="1433" y="-194" font-family="Helvetica,sans-Serif" font-size="10.00">/meta.hpp</text>
</a>
</g>
</g>
<!-- Node16&#45;&gt;Node21 -->
<g id="edge25_Node000016_Node000021" class="edge">
<title>Node16&#45;&gt;Node21</title>
<g id="a_edge25_Node000016_Node000021"><a xlink:title=" ">
<path fill="none" stroke="#63b8ff" d="M1153.32,-256.43C1207.63,-246.06 1291.05,-230.12 1352.67,-218.35"/>
<polygon fill="#63b8ff" stroke="#63b8ff" points="1353.58,-221.74 1362.74,-216.42 1352.27,-214.86 1353.58,-221.74"/>
</a>
</g>
</g>
<!-- Node26 -->
<g id="Node000026" class="node">
<title>Node26</title>
<g id="a_Node000026"><a xlink:href="../../d6/def/log__extra_8hpp.html" target="_top" xlink:title="Extra tskv fields storage.">
<polygon fill="white" stroke="#666666" points="667,-217 557,-217 557,-187 667,-187 667,-217"/>
<text text-anchor="start" x="565" y="-205" font-family="Helvetica,sans-Serif" font-size="10.00">userver/logging/log</text>
<text text-anchor="middle" x="612" y="-194" font-family="Helvetica,sans-Serif" font-size="10.00">_extra.hpp</text>
</a>
</g>
</g>
<!-- Node16&#45;&gt;Node26 -->
<g id="edge35_Node000016_Node000026" class="edge">
<title>Node16&#45;&gt;Node26</title>
<g id="a_edge35_Node000016_Node000026"><a xlink:title=" ">
<path fill="none" stroke="#63b8ff" d="M1042.72,-259.72C952.47,-247.84 773.87,-224.32 677.43,-211.62"/>
<polygon fill="#63b8ff" stroke="#63b8ff" points="677.6,-208.11 667.23,-210.27 676.68,-215.05 677.6,-208.11"/>
</a>
</g>
</g>
<!-- Node33 -->
<g id="Node000033" class="node">
<title>Node33</title>
<g id="a_Node000033"><a xlink:href="../../df/dd4/source__location_8hpp_source.html" target="_top" xlink:title=" ">
<polygon fill="white" stroke="#666666" points="1796.5,-217 1679.5,-217 1679.5,-187 1796.5,-187 1796.5,-217"/>
<text text-anchor="start" x="1687.5" y="-205" font-family="Helvetica,sans-Serif" font-size="10.00">userver/utils/impl</text>
<text text-anchor="middle" x="1738" y="-194" font-family="Helvetica,sans-Serif" font-size="10.00">/source_location.hpp</text>
</a>
</g>
</g>
<!-- Node16&#45;&gt;Node33 -->
<g id="edge48_Node000016_Node000033" class="edge">
<title>Node16&#45;&gt;Node33</title>
<g id="a_edge48_Node000016_Node000033"><a xlink:title=" ">
<path fill="none" stroke="#63b8ff" d="M1153.12,-261.49C1269.73,-249.83 1541.16,-222.68 1669.03,-209.9"/>
<polygon fill="#63b8ff" stroke="#63b8ff" points="1669.49,-213.37 1679.09,-208.89 1668.8,-206.4 1669.49,-213.37"/>
</a>
</g>
</g>
<!-- Node34 -->
<g id="Node000034" class="node">
<title>Node34</title>
<g id="a_Node000034"><a xlink:href="../../d0/d03/universal_2include_2userver_2utils_2meta_8hpp.html" target="_top" xlink:title="Metaprogramming, template variables and concepts.">
<polygon fill="white" stroke="#666666" points="1207.5,-211.5 1080.5,-211.5 1080.5,-192.5 1207.5,-192.5 1207.5,-211.5"/>
<text text-anchor="middle" x="1144" y="-199.5" font-family="Helvetica,sans-Serif" font-size="10.00">userver/utils/meta.hpp</text>
</a>
</g>
</g>
<!-- Node16&#45;&gt;Node34 -->
<g id="edge53_Node000016_Node000034" class="edge">
<title>Node16&#45;&gt;Node34</title>
<g id="a_edge53_Node000016_Node000034"><a xlink:title=" ">
<path fill="none" stroke="#63b8ff" d="M1108.21,-252.8C1115.17,-243.11 1124.42,-230.24 1131.77,-220.01"/>
<polygon fill="#63b8ff" stroke="#63b8ff" points="1134.65,-222.01 1137.64,-211.84 1128.96,-217.92 1134.65,-222.01"/>
</a>
</g>
</g>
<!-- Node21&#45;&gt;Node20 -->
<g id="edge26_Node000021_Node000020" class="edge">
<title>Node21&#45;&gt;Node20</title>
<g id="a_edge26_Node000021_Node000020"><a xlink:title=" ">
<path fill="none" stroke="#63b8ff" d="M1433.79,-186.93C1434.67,-159.41 1433.3,-97.46 1407,-55 1399,-42.08 1385.76,-31.67 1373.75,-24.17"/>
<polygon fill="#63b8ff" stroke="#63b8ff" points="1375.31,-21.03 1364.91,-19.02 1371.78,-27.08 1375.31,-21.03"/>
</a>
</g>
</g>
<!-- Node22 -->
<g id="Node000022" class="node">
<title>Node22</title>
<g id="a_Node000022"><a xlink:href="../../d2/dc8/universal_2include_2userver_2formats_2parse_2to_8hpp.html" target="_top" xlink:title="Helper for parsers.">
<polygon fill="white" stroke="#666666" points="1736.5,-151 1611.5,-151 1611.5,-121 1736.5,-121 1736.5,-151"/>
<text text-anchor="start" x="1619.5" y="-139" font-family="Helvetica,sans-Serif" font-size="10.00">userver/formats/parse</text>
<text text-anchor="middle" x="1674" y="-128" font-family="Helvetica,sans-Serif" font-size="10.00">/to.hpp</text>
</a>
</g>
</g>
<!-- Node21&#45;&gt;Node22 -->
<g id="edge27_Node000021_Node000022" class="edge">
<title>Node21&#45;&gt;Node22</title>
<g id="a_edge27_Node000021_Node000022"><a xlink:title=" ">
<path fill="none" stroke="#63b8ff" d="M1485.89,-186.95C1522.93,-177.12 1572.58,-163.93 1611.57,-153.58"/>
<polygon fill="#63b8ff" stroke="#63b8ff" points="1612.47,-156.96 1621.23,-151.01 1610.67,-150.2 1612.47,-156.96"/>
</a>
</g>
</g>
<!-- Node23 -->
<g id="Node000023" class="node">
<title>Node23</title>
<g id="a_Node000023"><a xlink:href="../../d6/d8e/universal_2include_2userver_2formats_2serialize_2to_8hpp.html" target="_top" xlink:title="Helper for serializers.">
<polygon fill="white" stroke="#666666" points="1593.5,-151 1454.5,-151 1454.5,-121 1593.5,-121 1593.5,-151"/>
<text text-anchor="start" x="1462.5" y="-139" font-family="Helvetica,sans-Serif" font-size="10.00">userver/formats/serialize</text>
<text text-anchor="middle" x="1524" y="-128" font-family="Helvetica,sans-Serif" font-size="10.00">/to.hpp</text>
</a>
</g>
</g>
<!-- Node21&#45;&gt;Node23 -->
<g id="edge28_Node000021_Node000023" class="edge">
<title>Node21&#45;&gt;Node23</title>
<g id="a_edge28_Node000021_Node000023"><a xlink:title=" ">
<path fill="none" stroke="#63b8ff" d="M1453.2,-186.8C1465.68,-178.01 1481.9,-166.61 1495.66,-156.93"/>
<polygon fill="#63b8ff" stroke="#63b8ff" points="1497.69,-159.78 1503.86,-151.16 1493.67,-154.05 1497.69,-159.78"/>
</a>
</g>
</g>
<!-- Node24 -->
<g id="Node000024" class="node">
<title>Node24</title>
<g id="a_Node000024"><a xlink:href="../../d3/da0/meta__light_8hpp.html" target="_top" xlink:title="Lightweight concepts.">
<polygon fill="white" stroke="#666666" points="1398,-151 1292,-151 1292,-121 1398,-121 1398,-151"/>
<text text-anchor="start" x="1300" y="-139" font-family="Helvetica,sans-Serif" font-size="10.00">userver/utils/meta</text>
<text text-anchor="middle" x="1345" y="-128" font-family="Helvetica,sans-Serif" font-size="10.00">_light.hpp</text>
</a>
</g>
</g>
<!-- Node21&#45;&gt;Node24 -->
<g id="edge29_Node000021_Node000024" class="edge">
<title>Node21&#45;&gt;Node24</title>
<g id="a_edge29_Node000021_Node000024"><a xlink:title=" ">
<path fill="none" stroke="#63b8ff" d="M1413.47,-186.8C1401.51,-178.1 1386.01,-166.82 1372.78,-157.2"/>
<polygon fill="#63b8ff" stroke="#63b8ff" points="1374.62,-154.22 1364.48,-151.16 1370.5,-159.88 1374.62,-154.22"/>
</a>
</g>
</g>
<!-- Node24&#45;&gt;Node20 -->
<g id="edge30_Node000024_Node000020" class="edge">
<title>Node24&#45;&gt;Node20</title>
<g id="a_edge30_Node000024_Node000020"><a xlink:title=" ">
<path fill="none" stroke="#63b8ff" d="M1320.42,-120.99C1307.91,-112.38 1293.92,-100.11 1287,-85 1281.45,-72.88 1281.01,-66.91 1287,-55 1293.69,-41.71 1306.44,-31.39 1318.47,-24.05"/>
<polygon fill="#63b8ff" stroke="#63b8ff" points="1320.42,-26.97 1327.42,-19.02 1316.99,-20.87 1320.42,-26.97"/>
</a>
</g>
</g>
<!-- Node25 -->
<g id="Node000025" class="node">
<title>Node25</title>
<g id="a_Node000025"><a xlink:href="../../d9/dce/void__t_8hpp.html" target="_top" xlink:title="std::void_t implementation with workarounds for compiler bugs">
<polygon fill="white" stroke="#666666" points="1397.5,-85 1296.5,-85 1296.5,-55 1397.5,-55 1397.5,-85"/>
<text text-anchor="start" x="1304.5" y="-73" font-family="Helvetica,sans-Serif" font-size="10.00">userver/utils/void</text>
<text text-anchor="middle" x="1347" y="-62" font-family="Helvetica,sans-Serif" font-size="10.00">_t.hpp</text>
</a>
</g>
</g>
<!-- Node24&#45;&gt;Node25 -->
<g id="edge31_Node000024_Node000025" class="edge">
<title>Node24&#45;&gt;Node25</title>
<g id="a_edge31_Node000024_Node000025"><a xlink:title=" ">
<path fill="none" stroke="#63b8ff" d="M1345.44,-120.8C1345.68,-113.34 1345.97,-103.99 1346.24,-95.41"/>
<polygon fill="#63b8ff" stroke="#63b8ff" points="1349.74,-95.27 1346.56,-85.16 1342.75,-95.05 1349.74,-95.27"/>
</a>
</g>
</g>
<!-- Node25&#45;&gt;Node20 -->
<g id="edge32_Node000025_Node000020" class="edge">
<title>Node25&#45;&gt;Node20</title>
<g id="a_edge32_Node000025_Node000020"><a xlink:title=" ">
<path fill="none" stroke="#63b8ff" d="M1347,-54.84C1347,-47.21 1347,-37.7 1347,-29.45"/>
<polygon fill="#63b8ff" stroke="#63b8ff" points="1350.5,-29.27 1347,-19.27 1343.5,-29.27 1350.5,-29.27"/>
</a>
</g>
</g>
<!-- Node26&#45;&gt;Node6 -->
<g id="edge41_Node000026_Node000006" class="edge">
<title>Node26&#45;&gt;Node6</title>
<g id="a_edge41_Node000026_Node000006"><a xlink:title=" ">
<path fill="none" stroke="#63b8ff" d="M556.73,-189.25C552.1,-188.43 547.47,-187.66 543,-187 374.31,-162.01 330.12,-172.87 161,-151 152.27,-149.87 143.06,-148.52 134.06,-147.11"/>
<polygon fill="#63b8ff" stroke="#63b8ff" points="134.44,-143.63 124.01,-145.5 133.33,-150.54 134.44,-143.63"/>
</a>
</g>
</g>
<!-- Node26&#45;&gt;Node8 -->
<g id="edge42_Node000026_Node000008" class="edge">
<title>Node26&#45;&gt;Node8</title>
<g id="a_edge42_Node000026_Node000008"><a xlink:title=" ">
<path fill="none" stroke="#63b8ff" d="M636.36,-186.95C655.14,-176.13 680.95,-161.24 699.51,-150.54"/>
<polygon fill="#63b8ff" stroke="#63b8ff" points="701.31,-153.54 708.23,-145.52 697.82,-147.48 701.31,-153.54"/>
</a>
</g>
</g>
<!-- Node26&#45;&gt;Node13 -->
<g id="edge37_Node000026_Node000013" class="edge">
<title>Node26&#45;&gt;Node13</title>
<g id="a_edge37_Node000026_Node000013"><a xlink:title=" ">
<path fill="none" stroke="#63b8ff" d="M667.23,-187.19C718.83,-174.29 794.06,-155.49 836.25,-144.94"/>
<polygon fill="#63b8ff" stroke="#63b8ff" points="837.13,-148.32 845.98,-142.5 835.43,-141.53 837.13,-148.32"/>
</a>
</g>
</g>
<!-- Node27 -->
<g id="Node000027" class="node">
<title>Node27</title>
<g id="a_Node000027"><a xlink:title=" ">
<polygon fill="#e0e0e0" stroke="#999999" points="568.5,-145.5 485.5,-145.5 485.5,-126.5 568.5,-126.5 568.5,-145.5"/>
<text text-anchor="middle" x="527" y="-133.5" font-family="Helvetica,sans-Serif" font-size="10.00">initializer_list</text>
</a>
</g>
</g>
<!-- Node26&#45;&gt;Node27 -->
<g id="edge36_Node000026_Node000027" class="edge">
<title>Node26&#45;&gt;Node27</title>
<g id="a_edge36_Node000026_Node000027"><a xlink:title=" ">
<path fill="none" stroke="#63b8ff" d="M593.14,-186.8C579.36,-176.43 560.74,-162.4 546.76,-151.88"/>
<polygon fill="#63b8ff" stroke="#63b8ff" points="548.84,-149.06 538.75,-145.84 544.63,-154.66 548.84,-149.06"/>
</a>
</g>
</g>
<!-- Node28 -->
<g id="Node000028" class="node">
<title>Node28</title>
<g id="a_Node000028"><a xlink:title=" ">
<polygon fill="#e0e0e0" stroke="#999999" points="410.5,-79.5 365.5,-79.5 365.5,-60.5 410.5,-60.5 410.5,-79.5"/>
<text text-anchor="middle" x="388" y="-67.5" font-family="Helvetica,sans-Serif" font-size="10.00">utility</text>
</a>
</g>
</g>
<!-- Node26&#45;&gt;Node28 -->
<g id="edge38_Node000026_Node000028" class="edge">
<title>Node26&#45;&gt;Node28</title>
<g id="a_edge38_Node000026_Node000028"><a xlink:title=" ">
<path fill="none" stroke="#63b8ff" d="M559.49,-186.91C533.31,-178.62 501.81,-166.65 476,-151 460.42,-141.56 424.51,-107.12 403.7,-86.64"/>
<polygon fill="#63b8ff" stroke="#63b8ff" points="406.1,-84.09 396.53,-79.55 401.18,-89.07 406.1,-84.09"/>
</a>
</g>
</g>
<!-- Node29 -->
<g id="Node000029" class="node">
<title>Node29</title>
<g id="a_Node000029"><a xlink:title=" ">
<polygon fill="#e0e0e0" stroke="#999999" points="637.5,-145.5 586.5,-145.5 586.5,-126.5 637.5,-126.5 637.5,-145.5"/>
<text text-anchor="middle" x="612" y="-133.5" font-family="Helvetica,sans-Serif" font-size="10.00">variant</text>
</a>
</g>
</g>
<!-- Node26&#45;&gt;Node29 -->
<g id="edge39_Node000026_Node000029" class="edge">
<title>Node26&#45;&gt;Node29</title>
<g id="a_edge39_Node000026_Node000029"><a xlink:title=" ">
<path fill="none" stroke="#63b8ff" d="M612,-186.8C612,-177.7 612,-165.79 612,-155.9"/>
<polygon fill="#63b8ff" stroke="#63b8ff" points="615.5,-155.84 612,-145.84 608.5,-155.84 615.5,-155.84"/>
</a>
</g>
</g>
<!-- Node30 -->
<g id="Node000030" class="node">
<title>Node30</title>
<g id="a_Node000030"><a xlink:title=" ">
<polygon fill="#e0e0e0" stroke="#999999" points="428.5,-151 287.5,-151 287.5,-121 428.5,-121 428.5,-151"/>
<text text-anchor="start" x="295.5" y="-139" font-family="Helvetica,sans-Serif" font-size="10.00">boost/container/container</text>
<text text-anchor="middle" x="358" y="-128" font-family="Helvetica,sans-Serif" font-size="10.00">_fwd.hpp</text>
</a>
</g>
</g>
<!-- Node26&#45;&gt;Node30 -->
<g id="edge40_Node000026_Node000030" class="edge">
<title>Node26&#45;&gt;Node30</title>
<g id="a_edge40_Node000026_Node000030"><a xlink:title=" ">
<path fill="none" stroke="#63b8ff" d="M556.89,-187.11C517.71,-177.24 464.94,-163.94 423.59,-153.53"/>
<polygon fill="#63b8ff" stroke="#63b8ff" points="424.44,-150.13 413.88,-151.08 422.73,-156.92 424.44,-150.13"/>
</a>
</g>
</g>
<!-- Node31 -->
<g id="Node000031" class="node">
<title>Node31</title>
<g id="a_Node000031"><a xlink:href="../../d5/d02/fast__pimpl_8hpp.html" target="_top" xlink:title="Implements pimpl idiom without dynamic memory allocation.">
<polygon fill="white" stroke="#666666" points="269.5,-151 170.5,-151 170.5,-121 269.5,-121 269.5,-151"/>
<text text-anchor="start" x="178.5" y="-139" font-family="Helvetica,sans-Serif" font-size="10.00">userver/utils/fast</text>
<text text-anchor="middle" x="220" y="-128" font-family="Helvetica,sans-Serif" font-size="10.00">_pimpl.hpp</text>
</a>
</g>
</g>
<!-- Node26&#45;&gt;Node31 -->
<g id="edge43_Node000026_Node000031" class="edge">
<title>Node26&#45;&gt;Node31</title>
<g id="a_edge43_Node000026_Node000031"><a xlink:title=" ">
<path fill="none" stroke="#63b8ff" d="M556.7,-189.45C552.07,-188.58 547.46,-187.75 543,-187 429.01,-167.71 396.57,-172.68 279.67,-151.2"/>
<polygon fill="#63b8ff" stroke="#63b8ff" points="280.07,-147.72 269.6,-149.32 278.79,-154.6 280.07,-147.72"/>
</a>
</g>
</g>
<!-- Node31&#45;&gt;Node7 -->
<g id="edge44_Node000031_Node000007" class="edge">
<title>Node31&#45;&gt;Node7</title>
<g id="a_edge44_Node000031_Node000007"><a xlink:title=" ">
<path fill="none" stroke="#63b8ff" d="M197.4,-120.95C180.21,-110.27 156.67,-95.65 139.51,-84.98"/>
<polygon fill="#63b8ff" stroke="#63b8ff" points="141.05,-81.82 130.71,-79.52 137.35,-87.77 141.05,-81.82"/>
</a>
</g>
</g>
<!-- Node31&#45;&gt;Node20 -->
<g id="edge46_Node000031_Node000020" class="edge">
<title>Node31&#45;&gt;Node20</title>
<g id="a_edge46_Node000031_Node000020"><a xlink:title=" ">
<path fill="none" stroke="#63b8ff" d="M237.58,-120.79C262.3,-101.75 309.52,-68.79 356,-55 447.32,-27.92 1120.82,-14.41 1302.15,-11.24"/>
<polygon fill="#63b8ff" stroke="#63b8ff" points="1302.45,-14.74 1312.39,-11.06 1302.33,-7.74 1302.45,-14.74"/>
</a>
</g>
</g>
<!-- Node31&#45;&gt;Node28 -->
<g id="edge47_Node000031_Node000028" class="edge">
<title>Node31&#45;&gt;Node28</title>
<g id="a_edge47_Node000031_Node000028"><a xlink:title=" ">
<path fill="none" stroke="#63b8ff" d="M256.87,-120.95C286.59,-109.63 327.95,-93.88 356.23,-83.1"/>
<polygon fill="#63b8ff" stroke="#63b8ff" points="357.54,-86.35 365.64,-79.52 355.05,-79.81 357.54,-86.35"/>
</a>
</g>
</g>
<!-- Node32 -->
<g id="Node000032" class="node">
<title>Node32</title>
<g id="a_Node000032"><a xlink:title=" ">
<polygon fill="#e0e0e0" stroke="#999999" points="238.5,-79.5 201.5,-79.5 201.5,-60.5 238.5,-60.5 238.5,-79.5"/>
<text text-anchor="middle" x="220" y="-67.5" font-family="Helvetica,sans-Serif" font-size="10.00">new</text>
</a>
</g>
</g>
<!-- Node31&#45;&gt;Node32 -->
<g id="edge45_Node000031_Node000032" class="edge">
<title>Node31&#45;&gt;Node32</title>
<g id="a_edge45_Node000031_Node000032"><a xlink:title=" ">
<path fill="none" stroke="#63b8ff" d="M220,-120.8C220,-111.7 220,-99.79 220,-89.9"/>
<polygon fill="#63b8ff" stroke="#63b8ff" points="223.5,-89.84 220,-79.84 216.5,-89.84 223.5,-89.84"/>
</a>
</g>
</g>
<!-- Node33&#45;&gt;Node11 -->
<g id="edge49_Node000033_Node000011" class="edge">
<title>Node33&#45;&gt;Node11</title>
<g id="a_edge49_Node000033_Node000011"><a xlink:title=" ">
<path fill="none" stroke="#63b8ff" d="M1679.29,-197.31C1581.72,-190.75 1380.19,-175.42 1211,-151 1198.91,-149.26 1185.78,-146.85 1174.07,-144.53"/>
<polygon fill="#63b8ff" stroke="#63b8ff" points="1174.72,-141.09 1164.22,-142.53 1173.32,-147.95 1174.72,-141.09"/>
</a>
</g>
</g>
<!-- Node33&#45;&gt;Node14 -->
<g id="edge52_Node000033_Node000014" class="edge">
<title>Node33&#45;&gt;Node14</title>
<g id="a_edge52_Node000033_Node000014"><a xlink:title=" ">
<path fill="none" stroke="#63b8ff" d="M1778.82,-186.95C1806.68,-177.37 1843.78,-164.6 1873.5,-154.37"/>
<polygon fill="#63b8ff" stroke="#63b8ff" points="1874.96,-157.58 1883.28,-151.01 1872.68,-150.96 1874.96,-157.58"/>
</a>
</g>
</g>
<!-- Node33&#45;&gt;Node15 -->
<g id="edge50_Node000033_Node000015" class="edge">
<title>Node33&#45;&gt;Node15</title>
<g id="a_edge50_Node000033_Node000015"><a xlink:title=" ">
<path fill="none" stroke="#63b8ff" d="M1753.68,-186.84C1780.89,-162.28 1836.6,-111.99 1864.81,-86.52"/>
<polygon fill="#63b8ff" stroke="#63b8ff" points="1867.23,-89.05 1872.31,-79.75 1862.54,-83.85 1867.23,-89.05"/>
</a>
</g>
</g>
<!-- Node33&#45;&gt;Node20 -->
<g id="edge51_Node000033_Node000020" class="edge">
<title>Node33&#45;&gt;Node20</title>
<g id="a_edge51_Node000033_Node000020"><a xlink:title=" ">
<path fill="none" stroke="#63b8ff" d="M1744.71,-186.98C1751.93,-169.65 1760.54,-140.11 1746,-121 1702.8,-64.21 1486.58,-29.04 1391.73,-16.12"/>
<polygon fill="#63b8ff" stroke="#63b8ff" points="1391.96,-12.62 1381.59,-14.76 1391.03,-19.55 1391.96,-12.62"/>
</a>
</g>
</g>
<!-- Node34&#45;&gt;Node12 -->
<g id="edge56_Node000034_Node000012" class="edge">
<title>Node34&#45;&gt;Node12</title>
<g id="a_edge56_Node000034_Node000012"><a xlink:title=" ">
<path fill="none" stroke="#63b8ff" d="M1111.94,-192.42C1077.41,-183 1020.95,-167.06 973,-151 971.14,-150.38 969.24,-149.72 967.33,-149.05"/>
<polygon fill="#63b8ff" stroke="#63b8ff" points="968.41,-145.71 957.81,-145.57 966.01,-152.29 968.41,-145.71"/>
</a>
</g>
</g>
<!-- Node34&#45;&gt;Node17 -->
<g id="edge54_Node000034_Node000017" class="edge">
<title>Node34&#45;&gt;Node17</title>
<g id="a_edge54_Node000034_Node000017"><a xlink:title=" ">
<path fill="none" stroke="#63b8ff" d="M1125.39,-192.37C1101.93,-181.49 1061.39,-162.69 1034.14,-150.05"/>
<polygon fill="#63b8ff" stroke="#63b8ff" points="1035.3,-146.73 1024.76,-145.7 1032.36,-153.08 1035.3,-146.73"/>
</a>
</g>
</g>
<!-- Node34&#45;&gt;Node18 -->
<g id="edge55_Node000034_Node000018" class="edge">
<title>Node34&#45;&gt;Node18</title>
<g id="a_edge55_Node000034_Node000018"><a xlink:title=" ">
<path fill="none" stroke="#63b8ff" d="M1157.89,-192.37C1174.94,-181.78 1204.07,-163.67 1224.37,-151.06"/>
<polygon fill="#63b8ff" stroke="#63b8ff" points="1226.35,-153.95 1233,-145.7 1222.66,-148 1226.35,-153.95"/>
</a>
</g>
</g>
<!-- Node34&#45;&gt;Node20 -->
<g id="edge57_Node000034_Node000020" class="edge">
<title>Node34&#45;&gt;Node20</title>
<g id="a_edge57_Node000034_Node000020"><a xlink:title=" ">
<path fill="none" stroke="#63b8ff" d="M1150.55,-192.26C1168.86,-168.21 1222.94,-99.87 1279,-55 1293.05,-43.75 1309.98,-32.67 1323.44,-24.37"/>
<polygon fill="#63b8ff" stroke="#63b8ff" points="1325.38,-27.29 1332.12,-19.11 1321.75,-21.3 1325.38,-27.29"/>
</a>
</g>
</g>
<!-- Node34&#45;&gt;Node24 -->
<g id="edge59_Node000034_Node000024" class="edge">
<title>Node34&#45;&gt;Node24</title>
<g id="a_edge59_Node000034_Node000024"><a xlink:title=" ">
<path fill="none" stroke="#63b8ff" d="M1171.11,-192.37C1201.73,-182.62 1252.34,-166.5 1291.09,-154.16"/>
<polygon fill="#63b8ff" stroke="#63b8ff" points="1292.2,-157.48 1300.67,-151.12 1290.08,-150.81 1292.2,-157.48"/>
</a>
</g>
</g>
<!-- Node35 -->
<g id="Node000035" class="node">
<title>Node35</title>
<g id="a_Node000035"><a xlink:title=" ">
<polygon fill="#e0e0e0" stroke="#999999" points="1095.5,-145.5 1048.5,-145.5 1048.5,-126.5 1095.5,-126.5 1095.5,-145.5"/>
<text text-anchor="middle" x="1072" y="-133.5" font-family="Helvetica,sans-Serif" font-size="10.00">vector</text>
</a>
</g>
</g>
<!-- Node34&#45;&gt;Node35 -->
<g id="edge58_Node000034_Node000035" class="edge">
<title>Node34&#45;&gt;Node35</title>
<g id="a_edge58_Node000034_Node000035"><a xlink:title=" ">
<path fill="none" stroke="#63b8ff" d="M1134.29,-192.37C1122.87,-182.21 1103.68,-165.16 1089.61,-152.65"/>
<polygon fill="#63b8ff" stroke="#63b8ff" points="1091.82,-149.93 1082.02,-145.91 1087.17,-155.16 1091.82,-149.93"/>
</a>
</g>
</g>
<!-- Node36&#45;&gt;Node15 -->
<g id="edge61_Node000036_Node000015" class="edge">
<title>Node36&#45;&gt;Node15</title>
<g id="a_edge61_Node000036_Node000015"><a xlink:title=" ">
<path fill="none" stroke="#63b8ff" d="M2060.67,-258.23C2053.71,-233.51 2030.82,-162.4 1988,-121 1969.73,-103.34 1944.06,-91.01 1922.56,-83.02"/>
<polygon fill="#63b8ff" stroke="#63b8ff" points="1923.61,-79.67 1913.02,-79.64 1921.28,-86.27 1923.61,-79.67"/>
</a>
</g>
</g>
</g>
</svg>
