<?xml version="1.0" encoding="UTF-8" standalone="no"?>
<!DOCTYPE svg PUBLIC "-//W3C//DTD SVG 1.1//EN"
 "http://www.w3.org/Graphics/SVG/1.1/DTD/svg11.dtd">
<!-- Generated by graphviz version 2.43.0 (0)
 -->
<!-- Title: userver/logging/log_helper.hpp Pages: 1 -->
<svg width="2116pt" height="291pt"
 viewBox="0.00 0.00 2116.00 291.00" xmlns="http://www.w3.org/2000/svg" xmlns:xlink="http://www.w3.org/1999/xlink">
<g id="graph0" class="graph" transform="scale(1 1) rotate(0) translate(4 287)">
<title>userver/logging/log_helper.hpp</title>
<!-- Node1 -->
<g id="Node000001" class="node">
<title>Node1</title>
<g id="a_Node000001"><a xlink:title=" ">
<polygon fill="#999999" stroke="#666666" points="624,-283 514,-283 514,-253 624,-253 624,-283"/>
<text text-anchor="start" x="522" y="-271" font-family="Helvetica,sans-Serif" font-size="10.00">userver/logging/log</text>
<text text-anchor="middle" x="569" y="-260" font-family="Helvetica,sans-Serif" font-size="10.00">_helper.hpp</text>
</a>
</g>
</g>
<!-- Node2 -->
<g id="Node000002" class="node">
<title>Node2</title>
<g id="a_Node000002"><a xlink:title=" ">
<polygon fill="#e0e0e0" stroke="#999999" points="50,-211.5 0,-211.5 0,-192.5 50,-192.5 50,-211.5"/>
<text text-anchor="middle" x="25" y="-199.5" font-family="Helvetica,sans-Serif" font-size="10.00">chrono</text>
</a>
</g>
</g>
<!-- Node1&#45;&gt;Node2 -->
<g id="edge1_Node000001_Node000002" class="edge">
<title>Node1&#45;&gt;Node2</title>
<g id="a_edge1_Node000001_Node000002"><a xlink:title=" ">
<path fill="none" stroke="#63b8ff" d="M513.76,-266.84C419.21,-265.4 220.86,-257.33 59,-217 56.84,-216.46 54.63,-215.81 52.43,-215.08"/>
<polygon fill="#63b8ff" stroke="#63b8ff" points="53.61,-211.79 43.02,-211.57 51.16,-218.34 53.61,-211.79"/>
</a>
</g>
</g>
<!-- Node3 -->
<g id="Node000003" class="node">
<title>Node3</title>
<g id="a_Node000003"><a xlink:title=" ">
<polygon fill="#e0e0e0" stroke="#999999" points="133.5,-211.5 68.5,-211.5 68.5,-192.5 133.5,-192.5 133.5,-211.5"/>
<text text-anchor="middle" x="101" y="-199.5" font-family="Helvetica,sans-Serif" font-size="10.00">exception</text>
</a>
</g>
</g>
<!-- Node1&#45;&gt;Node3 -->
<g id="edge2_Node000001_Node000003" class="edge">
<title>Node1&#45;&gt;Node3</title>
<g id="a_edge2_Node000001_Node000003"><a xlink:title=" ">
<path fill="none" stroke="#63b8ff" d="M513.68,-263.46C432.74,-257.61 277.56,-243.78 148,-217 144.28,-216.23 140.43,-215.3 136.6,-214.3"/>
<polygon fill="#63b8ff" stroke="#63b8ff" points="137.23,-210.84 126.66,-211.51 135.34,-217.58 137.23,-210.84"/>
</a>
</g>
</g>
<!-- Node4 -->
<g id="Node000004" class="node">
<title>Node4</title>
<g id="a_Node000004"><a xlink:title=" ">
<polygon fill="#e0e0e0" stroke="#999999" points="141,-145.5 93,-145.5 93,-126.5 141,-126.5 141,-145.5"/>
<text text-anchor="middle" x="117" y="-133.5" font-family="Helvetica,sans-Serif" font-size="10.00">iosfwd</text>
</a>
</g>
</g>
<!-- Node1&#45;&gt;Node4 -->
<g id="edge3_Node000001_Node000004" class="edge">
<title>Node1&#45;&gt;Node4</title>
<g id="a_edge3_Node000001_Node000004"><a xlink:title=" ">
<path fill="none" stroke="#63b8ff" d="M513.9,-264.1C423.63,-258.63 248.79,-244.73 194,-217 165.31,-202.48 141.31,-172.91 128.08,-154.08"/>
<polygon fill="#63b8ff" stroke="#63b8ff" points="130.82,-151.89 122.32,-145.57 125.03,-155.81 130.82,-151.89"/>
</a>
</g>
</g>
<!-- Node5 -->
<g id="Node000005" class="node">
<title>Node5</title>
<g id="a_Node000005"><a xlink:title=" ">
<polygon fill="#e0e0e0" stroke="#999999" points="212.5,-145.5 159.5,-145.5 159.5,-126.5 212.5,-126.5 212.5,-145.5"/>
<text text-anchor="middle" x="186" y="-133.5" font-family="Helvetica,sans-Serif" font-size="10.00">iterator</text>
</a>
</g>
</g>
<!-- Node1&#45;&gt;Node5 -->
<g id="edge4_Node000001_Node000005" class="edge">
<title>Node1&#45;&gt;Node5</title>
<g id="a_edge4_Node000001_Node000005"><a xlink:title=" ">
<path fill="none" stroke="#63b8ff" d="M513.86,-265.65C427.09,-262.47 263.89,-251.89 219,-217 199.85,-202.12 191.73,-174.2 188.34,-155.6"/>
<polygon fill="#63b8ff" stroke="#63b8ff" points="191.8,-155.01 186.82,-145.66 184.88,-156.07 191.8,-155.01"/>
</a>
</g>
</g>
<!-- Node6 -->
<g id="Node000006" class="node">
<title>Node6</title>
<g id="a_Node000006"><a xlink:title=" ">
<polygon fill="#e0e0e0" stroke="#999999" points="1377,-79.5 1319,-79.5 1319,-60.5 1377,-60.5 1377,-79.5"/>
<text text-anchor="middle" x="1348" y="-67.5" font-family="Helvetica,sans-Serif" font-size="10.00">memory</text>
</a>
</g>
</g>
<!-- Node1&#45;&gt;Node6 -->
<g id="edge5_Node000001_Node000006" class="edge">
<title>Node1&#45;&gt;Node6</title>
<g id="a_edge5_Node000001_Node000006"><a xlink:title=" ">
<path fill="none" stroke="#63b8ff" d="M624.36,-266.95C720.65,-265.7 924.58,-257.94 1091,-217 1166.5,-198.43 1186.45,-191.2 1253,-151 1283.57,-132.53 1314.35,-104.47 1332.27,-86.97"/>
<polygon fill="#63b8ff" stroke="#63b8ff" points="1334.92,-89.26 1339.55,-79.74 1329.99,-84.3 1334.92,-89.26"/>
</a>
</g>
</g>
<!-- Node7 -->
<g id="Node000007" class="node">
<title>Node7</title>
<g id="a_Node000007"><a xlink:title=" ">
<polygon fill="#e0e0e0" stroke="#999999" points="428,-145.5 372,-145.5 372,-126.5 428,-126.5 428,-145.5"/>
<text text-anchor="middle" x="400" y="-133.5" font-family="Helvetica,sans-Serif" font-size="10.00">optional</text>
</a>
</g>
</g>
<!-- Node1&#45;&gt;Node7 -->
<g id="edge6_Node000001_Node000007" class="edge">
<title>Node1&#45;&gt;Node7</title>
<g id="a_edge6_Node000001_Node000007"><a xlink:title=" ">
<path fill="none" stroke="#63b8ff" d="M550.59,-252.84C518.39,-228.07 452.16,-177.12 419.33,-151.87"/>
<polygon fill="#63b8ff" stroke="#63b8ff" points="421.43,-149.07 411.37,-145.75 417.16,-154.62 421.43,-149.07"/>
</a>
</g>
</g>
<!-- Node8 -->
<g id="Node000008" class="node">
<title>Node8</title>
<g id="a_Node000008"><a xlink:title=" ">
<polygon fill="#e0e0e0" stroke="#999999" points="767.5,-79.5 694.5,-79.5 694.5,-60.5 767.5,-60.5 767.5,-79.5"/>
<text text-anchor="middle" x="731" y="-67.5" font-family="Helvetica,sans-Serif" font-size="10.00">string_view</text>
</a>
</g>
</g>
<!-- Node1&#45;&gt;Node8 -->
<g id="edge7_Node000001_Node000008" class="edge">
<title>Node1&#45;&gt;Node8</title>
<g id="a_edge7_Node000001_Node000008"><a xlink:title=" ">
<path fill="none" stroke="#63b8ff" d="M567.72,-252.62C566,-224.02 566.27,-159.41 599,-121 620.4,-95.89 655.79,-83.36 684.55,-77.13"/>
<polygon fill="#63b8ff" stroke="#63b8ff" points="685.28,-80.55 694.41,-75.17 683.92,-73.68 685.28,-80.55"/>
</a>
</g>
</g>
<!-- Node9 -->
<g id="Node000009" class="node">
<title>Node9</title>
<g id="a_Node000009"><a xlink:title=" ">
<polygon fill="#e0e0e0" stroke="#999999" points="1674.5,-211.5 1593.5,-211.5 1593.5,-192.5 1674.5,-192.5 1674.5,-211.5"/>
<text text-anchor="middle" x="1634" y="-199.5" font-family="Helvetica,sans-Serif" font-size="10.00">system_error</text>
</a>
</g>
</g>
<!-- Node1&#45;&gt;Node9 -->
<g id="edge8_Node000001_Node000009" class="edge">
<title>Node1&#45;&gt;Node9</title>
<g id="a_edge8_Node000001_Node000009"><a xlink:title=" ">
<path fill="none" stroke="#63b8ff" d="M624.04,-265.91C807.43,-262.03 1396.69,-247.44 1584,-217 1588.53,-216.26 1593.23,-215.27 1597.86,-214.14"/>
<polygon fill="#63b8ff" stroke="#63b8ff" points="1599,-217.46 1607.78,-211.53 1597.22,-210.69 1599,-217.46"/>
</a>
</g>
</g>
<!-- Node10 -->
<g id="Node000010" class="node">
<title>Node10</title>
<g id="a_Node000010"><a xlink:title=" ">
<polygon fill="#e0e0e0" stroke="#999999" points="612.5,-19 543.5,-19 543.5,0 612.5,0 612.5,-19"/>
<text text-anchor="middle" x="578" y="-7" font-family="Helvetica,sans-Serif" font-size="10.00">type_traits</text>
</a>
</g>
</g>
<!-- Node1&#45;&gt;Node10 -->
<g id="edge9_Node000001_Node000010" class="edge">
<title>Node1&#45;&gt;Node10</title>
<g id="a_edge9_Node000001_Node000010"><a xlink:title=" ">
<path fill="none" stroke="#63b8ff" d="M513.83,-253.67C439.78,-232.92 322.01,-188.16 363,-121 400,-60.38 482.03,-31.62 533.39,-19.09"/>
<polygon fill="#63b8ff" stroke="#63b8ff" points="534.28,-22.47 543.23,-16.79 532.69,-15.66 534.28,-22.47"/>
</a>
</g>
</g>
<!-- Node11 -->
<g id="Node000011" class="node">
<title>Node11</title>
<g id="a_Node000011"><a xlink:href="../../da/d00/universal_2include_2userver_2formats_2common_2meta_8hpp.html" target="_top" xlink:title="Metaprogramming helpers for converters detection.">
<polygon fill="white" stroke="#666666" points="1082,-217 942,-217 942,-187 1082,-187 1082,-217"/>
<text text-anchor="start" x="950" y="-205" font-family="Helvetica,sans-Serif" font-size="10.00">userver/formats/common</text>
<text text-anchor="middle" x="1012" y="-194" font-family="Helvetica,sans-Serif" font-size="10.00">/meta.hpp</text>
</a>
</g>
</g>
<!-- Node1&#45;&gt;Node11 -->
<g id="edge10_Node000001_Node000011" class="edge">
<title>Node1&#45;&gt;Node11</title>
<g id="a_edge10_Node000001_Node000011"><a xlink:title=" ">
<path fill="none" stroke="#63b8ff" d="M624.21,-259.02C701.6,-247.84 842.8,-227.44 931.78,-214.59"/>
<polygon fill="#63b8ff" stroke="#63b8ff" points="932.43,-218.03 941.83,-213.14 931.43,-211.1 932.43,-218.03"/>
</a>
</g>
</g>
<!-- Node16 -->
<g id="Node000016" class="node">
<title>Node16</title>
<g id="a_Node000016"><a xlink:href="../../db/dfb/universal_2include_2userver_2logging_2fwd_8hpp.html" target="_top" xlink:title="Forward declarations for logging types.">
<polygon fill="white" stroke="#666666" points="1453,-145.5 1319,-145.5 1319,-126.5 1453,-126.5 1453,-145.5"/>
<text text-anchor="middle" x="1386" y="-133.5" font-family="Helvetica,sans-Serif" font-size="10.00">userver/logging/fwd.hpp</text>
</a>
</g>
</g>
<!-- Node1&#45;&gt;Node16 -->
<g id="edge18_Node000001_Node000016" class="edge">
<title>Node1&#45;&gt;Node16</title>
<g id="a_edge18_Node000001_Node000016"><a xlink:title=" ">
<path fill="none" stroke="#63b8ff" d="M624.09,-265.46C784.45,-260.69 1243.48,-244.73 1305,-217 1335.35,-203.32 1360.83,-173.01 1374.71,-153.87"/>
<polygon fill="#63b8ff" stroke="#63b8ff" points="1377.7,-155.7 1380.56,-145.5 1371.96,-151.69 1377.7,-155.7"/>
</a>
</g>
</g>
<!-- Node17 -->
<g id="Node000017" class="node">
<title>Node17</title>
<g id="a_Node000017"><a xlink:href="../../d5/d37/level_8hpp.html" target="_top" xlink:title="Log levels.">
<polygon fill="white" stroke="#666666" points="737,-211.5 597,-211.5 597,-192.5 737,-192.5 737,-211.5"/>
<text text-anchor="middle" x="667" y="-199.5" font-family="Helvetica,sans-Serif" font-size="10.00">userver/logging/level.hpp</text>
</a>
</g>
</g>
<!-- Node1&#45;&gt;Node17 -->
<g id="edge20_Node000001_Node000017" class="edge">
<title>Node1&#45;&gt;Node17</title>
<g id="a_edge20_Node000001_Node000017"><a xlink:title=" ">
<path fill="none" stroke="#63b8ff" d="M590.75,-252.8C606.87,-242.27 628.76,-227.97 644.95,-217.4"/>
<polygon fill="#63b8ff" stroke="#63b8ff" points="647.28,-220.06 653.74,-211.66 643.46,-214.2 647.28,-220.06"/>
</a>
</g>
</g>
<!-- Node20 -->
<g id="Node000020" class="node">
<title>Node20</title>
<g id="a_Node000020"><a xlink:href="../../d6/def/log__extra_8hpp.html" target="_top" xlink:title="Extra tskv fields storage.">
<polygon fill="white" stroke="#666666" points="1575,-217 1465,-217 1465,-187 1575,-187 1575,-217"/>
<text text-anchor="start" x="1473" y="-205" font-family="Helvetica,sans-Serif" font-size="10.00">userver/logging/log</text>
<text text-anchor="middle" x="1520" y="-194" font-family="Helvetica,sans-Serif" font-size="10.00">_extra.hpp</text>
</a>
</g>
</g>
<!-- Node1&#45;&gt;Node20 -->
<g id="edge24_Node000001_Node000020" class="edge">
<title>Node1&#45;&gt;Node20</title>
<g id="a_edge24_Node000001_Node000020"><a xlink:title=" ">
<path fill="none" stroke="#63b8ff" d="M624.05,-264.18C754.2,-257.39 1091.06,-239.03 1372,-217 1399.14,-214.87 1429.05,-212.12 1454.83,-209.62"/>
<polygon fill="#63b8ff" stroke="#63b8ff" points="1455.25,-213.1 1464.86,-208.64 1454.57,-206.13 1455.25,-213.1"/>
</a>
</g>
</g>
<!-- Node29 -->
<g id="Node000029" class="node">
<title>Node29</title>
<g id="a_Node000029"><a xlink:href="../../df/dd4/source__location_8hpp_source.html" target="_top" xlink:title=" ">
<polygon fill="white" stroke="#666666" points="872.5,-217 755.5,-217 755.5,-187 872.5,-187 872.5,-217"/>
<text text-anchor="start" x="763.5" y="-205" font-family="Helvetica,sans-Serif" font-size="10.00">userver/utils/impl</text>
<text text-anchor="middle" x="814" y="-194" font-family="Helvetica,sans-Serif" font-size="10.00">/source_location.hpp</text>
</a>
</g>
</g>
<!-- Node1&#45;&gt;Node29 -->
<g id="edge38_Node000001_Node000029" class="edge">
<title>Node1&#45;&gt;Node29</title>
<g id="a_edge38_Node000001_Node000029"><a xlink:title=" ">
<path fill="none" stroke="#63b8ff" d="M622.77,-252.95C660.42,-243.12 710.89,-229.93 750.53,-219.58"/>
<polygon fill="#63b8ff" stroke="#63b8ff" points="751.57,-222.93 760.36,-217.01 749.8,-216.15 751.57,-222.93"/>
</a>
</g>
</g>
<!-- Node31 -->
<g id="Node000031" class="node">
<title>Node31</title>
<g id="a_Node000031"><a xlink:href="../../d0/d03/universal_2include_2userver_2utils_2meta_8hpp.html" target="_top" xlink:title="Metaprogramming, template variables and concepts.">
<polygon fill="white" stroke="#666666" points="355.5,-211.5 228.5,-211.5 228.5,-192.5 355.5,-192.5 355.5,-211.5"/>
<text text-anchor="middle" x="292" y="-199.5" font-family="Helvetica,sans-Serif" font-size="10.00">userver/utils/meta.hpp</text>
</a>
</g>
</g>
<!-- Node1&#45;&gt;Node31 -->
<g id="edge44_Node000001_Node000031" class="edge">
<title>Node1&#45;&gt;Node31</title>
<g id="a_edge44_Node000001_Node000031"><a xlink:title=" ">
<path fill="none" stroke="#63b8ff" d="M513.94,-254.28C462.68,-242.44 387.11,-224.97 338.72,-213.79"/>
<polygon fill="#63b8ff" stroke="#63b8ff" points="339.36,-210.35 328.83,-211.51 337.78,-217.17 339.36,-210.35"/>
</a>
</g>
</g>
<!-- Node11&#45;&gt;Node10 -->
<g id="edge11_Node000011_Node000010" class="edge">
<title>Node11&#45;&gt;Node10</title>
<g id="a_edge11_Node000011_Node000010"><a xlink:title=" ">
<path fill="none" stroke="#63b8ff" d="M1082.01,-198.24C1162.97,-192.53 1279.63,-174.96 1234,-121 1155.04,-27.62 757.83,-13.12 622.92,-10.89"/>
<polygon fill="#63b8ff" stroke="#63b8ff" points="622.6,-7.39 612.55,-10.74 622.49,-14.39 622.6,-7.39"/>
</a>
</g>
</g>
<!-- Node12 -->
<g id="Node000012" class="node">
<title>Node12</title>
<g id="a_Node000012"><a xlink:href="../../d2/dc8/universal_2include_2userver_2formats_2parse_2to_8hpp.html" target="_top" xlink:title="Helper for parsers.">
<polygon fill="white" stroke="#666666" points="1224.5,-151 1099.5,-151 1099.5,-121 1224.5,-121 1224.5,-151"/>
<text text-anchor="start" x="1107.5" y="-139" font-family="Helvetica,sans-Serif" font-size="10.00">userver/formats/parse</text>
<text text-anchor="middle" x="1162" y="-128" font-family="Helvetica,sans-Serif" font-size="10.00">/to.hpp</text>
</a>
</g>
</g>
<!-- Node11&#45;&gt;Node12 -->
<g id="edge12_Node000011_Node000012" class="edge">
<title>Node11&#45;&gt;Node12</title>
<g id="a_edge12_Node000011_Node000012"><a xlink:title=" ">
<path fill="none" stroke="#63b8ff" d="M1044.92,-186.95C1066.9,-177.58 1096.01,-165.16 1119.71,-155.05"/>
<polygon fill="#63b8ff" stroke="#63b8ff" points="1121.33,-158.16 1129.16,-151.01 1118.59,-151.72 1121.33,-158.16"/>
</a>
</g>
</g>
<!-- Node13 -->
<g id="Node000013" class="node">
<title>Node13</title>
<g id="a_Node000013"><a xlink:href="../../d6/d8e/universal_2include_2userver_2formats_2serialize_2to_8hpp.html" target="_top" xlink:title="Helper for serializers.">
<polygon fill="white" stroke="#666666" points="1081.5,-151 942.5,-151 942.5,-121 1081.5,-121 1081.5,-151"/>
<text text-anchor="start" x="950.5" y="-139" font-family="Helvetica,sans-Serif" font-size="10.00">userver/formats/serialize</text>
<text text-anchor="middle" x="1012" y="-128" font-family="Helvetica,sans-Serif" font-size="10.00">/to.hpp</text>
</a>
</g>
</g>
<!-- Node11&#45;&gt;Node13 -->
<g id="edge13_Node000011_Node000013" class="edge">
<title>Node11&#45;&gt;Node13</title>
<g id="a_edge13_Node000011_Node000013"><a xlink:title=" ">
<path fill="none" stroke="#63b8ff" d="M1012,-186.8C1012,-179.34 1012,-169.99 1012,-161.41"/>
<polygon fill="#63b8ff" stroke="#63b8ff" points="1015.5,-161.16 1012,-151.16 1008.5,-161.16 1015.5,-161.16"/>
</a>
</g>
</g>
<!-- Node14 -->
<g id="Node000014" class="node">
<title>Node14</title>
<g id="a_Node000014"><a xlink:href="../../d3/da0/meta__light_8hpp.html" target="_top" xlink:title="Lightweight concepts.">
<polygon fill="white" stroke="#666666" points="552,-151 446,-151 446,-121 552,-121 552,-151"/>
<text text-anchor="start" x="454" y="-139" font-family="Helvetica,sans-Serif" font-size="10.00">userver/utils/meta</text>
<text text-anchor="middle" x="499" y="-128" font-family="Helvetica,sans-Serif" font-size="10.00">_light.hpp</text>
</a>
</g>
</g>
<!-- Node11&#45;&gt;Node14 -->
<g id="edge14_Node000011_Node000014" class="edge">
<title>Node11&#45;&gt;Node14</title>
<g id="a_edge14_Node000011_Node000014"><a xlink:title=" ">
<path fill="none" stroke="#63b8ff" d="M941.8,-192.9C859.58,-183.33 719.32,-166.7 599,-151 587.12,-149.45 574.45,-147.73 562.26,-146.04"/>
<polygon fill="#63b8ff" stroke="#63b8ff" points="562.56,-142.55 552.17,-144.63 561.59,-149.48 562.56,-142.55"/>
</a>
</g>
</g>
<!-- Node14&#45;&gt;Node10 -->
<g id="edge15_Node000014_Node000010" class="edge">
<title>Node14&#45;&gt;Node10</title>
<g id="a_edge15_Node000014_Node000010"><a xlink:title=" ">
<path fill="none" stroke="#63b8ff" d="M499.47,-120.84C500.65,-103.89 504.64,-75.26 518,-55 526.42,-42.23 539.82,-31.78 551.82,-24.23"/>
<polygon fill="#63b8ff" stroke="#63b8ff" points="553.79,-27.13 560.62,-19.02 550.23,-21.1 553.79,-27.13"/>
</a>
</g>
</g>
<!-- Node15 -->
<g id="Node000015" class="node">
<title>Node15</title>
<g id="a_Node000015"><a xlink:href="../../d9/dce/void__t_8hpp.html" target="_top" xlink:title="std::void_t implementation with workarounds for compiler bugs">
<polygon fill="white" stroke="#666666" points="628.5,-85 527.5,-85 527.5,-55 628.5,-55 628.5,-85"/>
<text text-anchor="start" x="535.5" y="-73" font-family="Helvetica,sans-Serif" font-size="10.00">userver/utils/void</text>
<text text-anchor="middle" x="578" y="-62" font-family="Helvetica,sans-Serif" font-size="10.00">_t.hpp</text>
</a>
</g>
</g>
<!-- Node14&#45;&gt;Node15 -->
<g id="edge16_Node000014_Node000015" class="edge">
<title>Node14&#45;&gt;Node15</title>
<g id="a_edge16_Node000014_Node000015"><a xlink:title=" ">
<path fill="none" stroke="#63b8ff" d="M516.53,-120.8C527.17,-112.18 540.92,-101.04 552.72,-91.48"/>
<polygon fill="#63b8ff" stroke="#63b8ff" points="554.95,-94.18 560.52,-85.16 550.54,-88.74 554.95,-94.18"/>
</a>
</g>
</g>
<!-- Node15&#45;&gt;Node10 -->
<g id="edge17_Node000015_Node000010" class="edge">
<title>Node15&#45;&gt;Node10</title>
<g id="a_edge17_Node000015_Node000010"><a xlink:title=" ">
<path fill="none" stroke="#63b8ff" d="M578,-54.84C578,-47.21 578,-37.7 578,-29.45"/>
<polygon fill="#63b8ff" stroke="#63b8ff" points="581.5,-29.27 578,-19.27 574.5,-29.27 581.5,-29.27"/>
</a>
</g>
</g>
<!-- Node16&#45;&gt;Node6 -->
<g id="edge19_Node000016_Node000006" class="edge">
<title>Node16&#45;&gt;Node6</title>
<g id="a_edge19_Node000016_Node000006"><a xlink:title=" ">
<path fill="none" stroke="#63b8ff" d="M1380.88,-126.37C1375.18,-116.78 1365.84,-101.05 1358.57,-88.8"/>
<polygon fill="#63b8ff" stroke="#63b8ff" points="1361.4,-86.72 1353.29,-79.91 1355.38,-90.29 1361.4,-86.72"/>
</a>
</g>
</g>
<!-- Node17&#45;&gt;Node7 -->
<g id="edge22_Node000017_Node000007" class="edge">
<title>Node17&#45;&gt;Node7</title>
<g id="a_edge22_Node000017_Node000007"><a xlink:title=" ">
<path fill="none" stroke="#63b8ff" d="M617.56,-192.44C570.62,-183.8 498.32,-169.16 437,-151 434.86,-150.37 432.67,-149.67 430.47,-148.93"/>
<polygon fill="#63b8ff" stroke="#63b8ff" points="431.54,-145.6 420.95,-145.54 429.19,-152.19 431.54,-145.6"/>
</a>
</g>
</g>
<!-- Node18 -->
<g id="Node000018" class="node">
<title>Node18</title>
<g id="a_Node000018"><a xlink:title=" ">
<polygon fill="#e0e0e0" stroke="#999999" points="658,-145.5 608,-145.5 608,-126.5 658,-126.5 658,-145.5"/>
<text text-anchor="middle" x="633" y="-133.5" font-family="Helvetica,sans-Serif" font-size="10.00">cstdint</text>
</a>
</g>
</g>
<!-- Node17&#45;&gt;Node18 -->
<g id="edge21_Node000017_Node000018" class="edge">
<title>Node17&#45;&gt;Node18</title>
<g id="a_edge21_Node000017_Node000018"><a xlink:title=" ">
<path fill="none" stroke="#63b8ff" d="M662.41,-192.37C657.32,-182.78 648.96,-167.05 642.46,-154.8"/>
<polygon fill="#63b8ff" stroke="#63b8ff" points="645.51,-153.09 637.73,-145.91 639.33,-156.38 645.51,-153.09"/>
</a>
</g>
</g>
<!-- Node19 -->
<g id="Node000019" class="node">
<title>Node19</title>
<g id="a_Node000019"><a xlink:title=" ">
<polygon fill="#e0e0e0" stroke="#999999" points="924,-145.5 880,-145.5 880,-126.5 924,-126.5 924,-145.5"/>
<text text-anchor="middle" x="902" y="-133.5" font-family="Helvetica,sans-Serif" font-size="10.00">string</text>
</a>
</g>
</g>
<!-- Node17&#45;&gt;Node19 -->
<g id="edge23_Node000017_Node000019" class="edge">
<title>Node17&#45;&gt;Node19</title>
<g id="a_edge23_Node000017_Node000019"><a xlink:title=" ">
<path fill="none" stroke="#63b8ff" d="M698.69,-192.37C743.56,-180.15 825.12,-157.94 870.1,-145.69"/>
<polygon fill="#63b8ff" stroke="#63b8ff" points="871.18,-149.02 879.91,-143.02 869.34,-142.27 871.18,-149.02"/>
</a>
</g>
</g>
<!-- Node20&#45;&gt;Node16 -->
<g id="edge32_Node000020_Node000016" class="edge">
<title>Node20&#45;&gt;Node16</title>
<g id="a_edge32_Node000020_Node000016"><a xlink:title=" ">
<path fill="none" stroke="#63b8ff" d="M1490.59,-186.95C1467.51,-175.93 1435.62,-160.7 1413.14,-149.96"/>
<polygon fill="#63b8ff" stroke="#63b8ff" points="1414.37,-146.67 1403.83,-145.52 1411.35,-152.99 1414.37,-146.67"/>
</a>
</g>
</g>
<!-- Node20&#45;&gt;Node19 -->
<g id="edge26_Node000020_Node000019" class="edge">
<title>Node20&#45;&gt;Node19</title>
<g id="a_edge26_Node000020_Node000019"><a xlink:title=" ">
<path fill="none" stroke="#63b8ff" d="M1464.6,-198.67C1338.37,-192.99 1032.6,-176.92 933,-151 931.31,-150.56 929.6,-150.04 927.89,-149.45"/>
<polygon fill="#63b8ff" stroke="#63b8ff" points="928.94,-146.1 918.35,-145.63 926.33,-152.6 928.94,-146.1"/>
</a>
</g>
</g>
<!-- Node21 -->
<g id="Node000021" class="node">
<title>Node21</title>
<g id="a_Node000021"><a xlink:title=" ">
<polygon fill="#e0e0e0" stroke="#999999" points="1709.5,-145.5 1626.5,-145.5 1626.5,-126.5 1709.5,-126.5 1709.5,-145.5"/>
<text text-anchor="middle" x="1668" y="-133.5" font-family="Helvetica,sans-Serif" font-size="10.00">initializer_list</text>
</a>
</g>
</g>
<!-- Node20&#45;&gt;Node21 -->
<g id="edge25_Node000020_Node000021" class="edge">
<title>Node20&#45;&gt;Node21</title>
<g id="a_edge25_Node000020_Node000021"><a xlink:title=" ">
<path fill="none" stroke="#63b8ff" d="M1552.48,-186.95C1578.32,-175.78 1614.15,-160.29 1639.03,-149.53"/>
<polygon fill="#63b8ff" stroke="#63b8ff" points="1640.51,-152.7 1648.3,-145.52 1637.74,-146.27 1640.51,-152.7"/>
</a>
</g>
</g>
<!-- Node22 -->
<g id="Node000022" class="node">
<title>Node22</title>
<g id="a_Node000022"><a xlink:title=" ">
<polygon fill="#e0e0e0" stroke="#999999" points="1503.5,-79.5 1458.5,-79.5 1458.5,-60.5 1503.5,-60.5 1503.5,-79.5"/>
<text text-anchor="middle" x="1481" y="-67.5" font-family="Helvetica,sans-Serif" font-size="10.00">utility</text>
</a>
</g>
</g>
<!-- Node20&#45;&gt;Node22 -->
<g id="edge27_Node000020_Node000022" class="edge">
<title>Node20&#45;&gt;Node22</title>
<g id="a_edge27_Node000020_Node000022"><a xlink:title=" ">
<path fill="none" stroke="#63b8ff" d="M1514.06,-186.72C1510.06,-176.8 1504.84,-163.23 1501,-151 1494.52,-130.36 1488.72,-106.21 1485.06,-89.88"/>
<polygon fill="#63b8ff" stroke="#63b8ff" points="1488.45,-88.99 1482.88,-79.97 1481.61,-90.49 1488.45,-88.99"/>
</a>
</g>
</g>
<!-- Node23 -->
<g id="Node000023" class="node">
<title>Node23</title>
<g id="a_Node000023"><a xlink:title=" ">
<polygon fill="#e0e0e0" stroke="#999999" points="1778.5,-145.5 1727.5,-145.5 1727.5,-126.5 1778.5,-126.5 1778.5,-145.5"/>
<text text-anchor="middle" x="1753" y="-133.5" font-family="Helvetica,sans-Serif" font-size="10.00">variant</text>
</a>
</g>
</g>
<!-- Node20&#45;&gt;Node23 -->
<g id="edge28_Node000020_Node000023" class="edge">
<title>Node20&#45;&gt;Node23</title>
<g id="a_edge28_Node000020_Node000023"><a xlink:title=" ">
<path fill="none" stroke="#63b8ff" d="M1575.29,-188.05C1624.49,-176.36 1692.61,-159.7 1719,-151 1720.63,-150.46 1722.28,-149.89 1723.95,-149.28"/>
<polygon fill="#63b8ff" stroke="#63b8ff" points="1725.34,-152.5 1733.4,-145.63 1722.82,-145.97 1725.34,-152.5"/>
</a>
</g>
</g>
<!-- Node24 -->
<g id="Node000024" class="node">
<title>Node24</title>
<g id="a_Node000024"><a xlink:title=" ">
<polygon fill="#e0e0e0" stroke="#999999" points="1937.5,-151 1796.5,-151 1796.5,-121 1937.5,-121 1937.5,-151"/>
<text text-anchor="start" x="1804.5" y="-139" font-family="Helvetica,sans-Serif" font-size="10.00">boost/container/container</text>
<text text-anchor="middle" x="1867" y="-128" font-family="Helvetica,sans-Serif" font-size="10.00">_fwd.hpp</text>
</a>
</g>
</g>
<!-- Node20&#45;&gt;Node24 -->
<g id="edge29_Node000020_Node000024" class="edge">
<title>Node20&#45;&gt;Node24</title>
<g id="a_edge29_Node000020_Node000024"><a xlink:title=" ">
<path fill="none" stroke="#63b8ff" d="M1575.29,-188.95C1578.57,-188.28 1581.83,-187.62 1585,-187 1586.26,-186.75 1703.44,-165.98 1786.33,-151.29"/>
<polygon fill="#63b8ff" stroke="#63b8ff" points="1787.03,-154.73 1796.26,-149.53 1785.81,-147.83 1787.03,-154.73"/>
</a>
</g>
</g>
<!-- Node25 -->
<g id="Node000025" class="node">
<title>Node25</title>
<g id="a_Node000025"><a xlink:href="../../d2/d84/select_8hpp.html" target="_top" xlink:title="Utilities for selection of platform specific values.">
<polygon fill="white" stroke="#666666" points="2108,-145.5 1956,-145.5 1956,-126.5 2108,-126.5 2108,-145.5"/>
<text text-anchor="middle" x="2032" y="-133.5" font-family="Helvetica,sans-Serif" font-size="10.00">userver/compiler/select.hpp</text>
</a>
</g>
</g>
<!-- Node20&#45;&gt;Node25 -->
<g id="edge30_Node000020_Node000025" class="edge">
<title>Node20&#45;&gt;Node25</title>
<g id="a_edge30_Node000020_Node000025"><a xlink:title=" ">
<path fill="none" stroke="#63b8ff" d="M1575.24,-188.66C1578.53,-188.06 1581.81,-187.5 1585,-187 1744.73,-161.94 1786.71,-172.15 1947,-151 1955.62,-149.86 1964.71,-148.52 1973.6,-147.12"/>
<polygon fill="#63b8ff" stroke="#63b8ff" points="1974.21,-150.57 1983.53,-145.53 1973.11,-143.66 1974.21,-150.57"/>
</a>
</g>
</g>
<!-- Node27 -->
<g id="Node000027" class="node">
<title>Node27</title>
<g id="a_Node000027"><a xlink:href="../../d5/d02/fast__pimpl_8hpp.html" target="_top" xlink:title="Implements pimpl idiom without dynamic memory allocation.">
<polygon fill="white" stroke="#666666" points="1608.5,-151 1509.5,-151 1509.5,-121 1608.5,-121 1608.5,-151"/>
<text text-anchor="start" x="1517.5" y="-139" font-family="Helvetica,sans-Serif" font-size="10.00">userver/utils/fast</text>
<text text-anchor="middle" x="1559" y="-128" font-family="Helvetica,sans-Serif" font-size="10.00">_pimpl.hpp</text>
</a>
</g>
</g>
<!-- Node20&#45;&gt;Node27 -->
<g id="edge33_Node000020_Node000027" class="edge">
<title>Node20&#45;&gt;Node27</title>
<g id="a_edge33_Node000020_Node000027"><a xlink:title=" ">
<path fill="none" stroke="#63b8ff" d="M1528.66,-186.8C1533.5,-178.84 1539.66,-168.74 1545.16,-159.71"/>
<polygon fill="#63b8ff" stroke="#63b8ff" points="1548.15,-161.52 1550.37,-151.16 1542.18,-157.88 1548.15,-161.52"/>
</a>
</g>
</g>
<!-- Node26 -->
<g id="Node000026" class="node">
<title>Node26</title>
<g id="a_Node000026"><a xlink:title=" ">
<polygon fill="#e0e0e0" stroke="#999999" points="1863.5,-79.5 1810.5,-79.5 1810.5,-60.5 1863.5,-60.5 1863.5,-79.5"/>
<text text-anchor="middle" x="1837" y="-67.5" font-family="Helvetica,sans-Serif" font-size="10.00">cstddef</text>
</a>
</g>
</g>
<!-- Node25&#45;&gt;Node26 -->
<g id="edge31_Node000025_Node000026" class="edge">
<title>Node25&#45;&gt;Node26</title>
<g id="a_edge31_Node000025_Node000026"><a xlink:title=" ">
<path fill="none" stroke="#63b8ff" d="M2005.7,-126.37C1971.44,-115.12 1911.39,-95.42 1872.95,-82.8"/>
<polygon fill="#63b8ff" stroke="#63b8ff" points="1873.79,-79.39 1863.19,-79.6 1871.6,-86.04 1873.79,-79.39"/>
</a>
</g>
</g>
<!-- Node27&#45;&gt;Node10 -->
<g id="edge36_Node000027_Node000010" class="edge">
<title>Node27&#45;&gt;Node10</title>
<g id="a_edge36_Node000027_Node000010"><a xlink:title=" ">
<path fill="none" stroke="#63b8ff" d="M1555.38,-120.75C1549.78,-102 1537.06,-69.7 1513,-55 1436.59,-8.34 798.87,-9.04 622.85,-10.13"/>
<polygon fill="#63b8ff" stroke="#63b8ff" points="622.62,-6.64 612.65,-10.2 622.67,-13.64 622.62,-6.64"/>
</a>
</g>
</g>
<!-- Node27&#45;&gt;Node22 -->
<g id="edge37_Node000027_Node000022" class="edge">
<title>Node27&#45;&gt;Node22</title>
<g id="a_edge37_Node000027_Node000022"><a xlink:title=" ">
<path fill="none" stroke="#63b8ff" d="M1541.69,-120.8C1529.29,-110.62 1512.6,-96.93 1499.87,-86.48"/>
<polygon fill="#63b8ff" stroke="#63b8ff" points="1501.73,-83.48 1491.78,-79.84 1497.29,-88.89 1501.73,-83.48"/>
</a>
</g>
</g>
<!-- Node27&#45;&gt;Node26 -->
<g id="edge34_Node000027_Node000026" class="edge">
<title>Node27&#45;&gt;Node26</title>
<g id="a_edge34_Node000027_Node000026"><a xlink:title=" ">
<path fill="none" stroke="#63b8ff" d="M1608.57,-123.21C1611.76,-122.46 1614.92,-121.72 1618,-121 1682.18,-106.06 1757.03,-89.06 1800.52,-79.23"/>
<polygon fill="#63b8ff" stroke="#63b8ff" points="1801.37,-82.63 1810.35,-77.01 1799.83,-75.8 1801.37,-82.63"/>
</a>
</g>
</g>
<!-- Node28 -->
<g id="Node000028" class="node">
<title>Node28</title>
<g id="a_Node000028"><a xlink:title=" ">
<polygon fill="#e0e0e0" stroke="#999999" points="1597.5,-79.5 1560.5,-79.5 1560.5,-60.5 1597.5,-60.5 1597.5,-79.5"/>
<text text-anchor="middle" x="1579" y="-67.5" font-family="Helvetica,sans-Serif" font-size="10.00">new</text>
</a>
</g>
</g>
<!-- Node27&#45;&gt;Node28 -->
<g id="edge35_Node000027_Node000028" class="edge">
<title>Node27&#45;&gt;Node28</title>
<g id="a_edge35_Node000027_Node000028"><a xlink:title=" ">
<path fill="none" stroke="#63b8ff" d="M1563.44,-120.8C1566.31,-111.6 1570.08,-99.53 1573.19,-89.58"/>
<polygon fill="#63b8ff" stroke="#63b8ff" points="1576.59,-90.43 1576.24,-79.84 1569.91,-88.35 1576.59,-90.43"/>
</a>
</g>
</g>
<!-- Node29&#45;&gt;Node8 -->
<g id="edge40_Node000029_Node000008" class="edge">
<title>Node29&#45;&gt;Node8</title>
<g id="a_edge40_Node000029_Node000008"><a xlink:title=" ">
<path fill="none" stroke="#63b8ff" d="M813.44,-186.9C812.18,-170 808.1,-141.43 795,-121 785.41,-106.05 769.77,-93.71 756.35,-85.03"/>
<polygon fill="#63b8ff" stroke="#63b8ff" points="757.87,-81.86 747.51,-79.62 754.21,-87.83 757.87,-81.86"/>
</a>
</g>
</g>
<!-- Node29&#45;&gt;Node10 -->
<g id="edge41_Node000029_Node000010" class="edge">
<title>Node29&#45;&gt;Node10</title>
<g id="a_edge41_Node000029_Node000010"><a xlink:title=" ">
<path fill="none" stroke="#63b8ff" d="M814.71,-187C815.18,-176.97 815.76,-163.16 816,-151 816.27,-137.67 819.59,-133.84 816,-121 806.77,-87.96 803.85,-75.03 776,-55 730.81,-22.5 666,-13.17 622.98,-10.78"/>
<polygon fill="#63b8ff" stroke="#63b8ff" points="622.96,-7.28 612.81,-10.33 622.65,-14.27 622.96,-7.28"/>
</a>
</g>
</g>
<!-- Node29&#45;&gt;Node18 -->
<g id="edge39_Node000029_Node000018" class="edge">
<title>Node29&#45;&gt;Node18</title>
<g id="a_edge39_Node000029_Node000018"><a xlink:title=" ">
<path fill="none" stroke="#63b8ff" d="M770.33,-186.94C740.95,-177.29 701.45,-163.94 667,-151 665.58,-150.47 664.13,-149.91 662.67,-149.34"/>
<polygon fill="#63b8ff" stroke="#63b8ff" points="663.64,-145.96 653.05,-145.5 661.04,-152.46 663.64,-145.96"/>
</a>
</g>
</g>
<!-- Node30 -->
<g id="Node000030" class="node">
<title>Node30</title>
<g id="a_Node000030"><a xlink:href="../../d4/dc3/log__filepath_8hpp.html" target="_top" xlink:title="Short source path calculator.">
<polygon fill="white" stroke="#666666" points="786,-151 676,-151 676,-121 786,-121 786,-151"/>
<text text-anchor="start" x="684" y="-139" font-family="Helvetica,sans-Serif" font-size="10.00">userver/logging/log</text>
<text text-anchor="middle" x="731" y="-128" font-family="Helvetica,sans-Serif" font-size="10.00">_filepath.hpp</text>
</a>
</g>
</g>
<!-- Node29&#45;&gt;Node30 -->
<g id="edge42_Node000029_Node000030" class="edge">
<title>Node29&#45;&gt;Node30</title>
<g id="a_edge42_Node000029_Node000030"><a xlink:title=" ">
<path fill="none" stroke="#63b8ff" d="M795.58,-186.8C784.4,-178.18 769.95,-167.04 757.56,-157.48"/>
<polygon fill="#63b8ff" stroke="#63b8ff" points="759.43,-154.5 749.37,-151.16 755.15,-160.04 759.43,-154.5"/>
</a>
</g>
</g>
<!-- Node30&#45;&gt;Node8 -->
<g id="edge43_Node000030_Node000008" class="edge">
<title>Node30&#45;&gt;Node8</title>
<g id="a_edge43_Node000030_Node000008"><a xlink:title=" ">
<path fill="none" stroke="#63b8ff" d="M731,-120.8C731,-111.7 731,-99.79 731,-89.9"/>
<polygon fill="#63b8ff" stroke="#63b8ff" points="734.5,-89.84 731,-79.84 727.5,-89.84 734.5,-89.84"/>
</a>
</g>
</g>
<!-- Node31&#45;&gt;Node4 -->
<g id="edge45_Node000031_Node000004" class="edge">
<title>Node31&#45;&gt;Node4</title>
<g id="a_edge45_Node000031_Node000004"><a xlink:title=" ">
<path fill="none" stroke="#63b8ff" d="M266.17,-192.45C237.58,-182.85 190.21,-166.59 150,-151 148.79,-150.53 147.56,-150.05 146.32,-149.55"/>
<polygon fill="#63b8ff" stroke="#63b8ff" points="147.39,-146.21 136.81,-145.64 144.73,-152.68 147.39,-146.21"/>
</a>
</g>
</g>
<!-- Node31&#45;&gt;Node5 -->
<g id="edge46_Node000031_Node000005" class="edge">
<title>Node31&#45;&gt;Node5</title>
<g id="a_edge46_Node000031_Node000005"><a xlink:title=" ">
<path fill="none" stroke="#63b8ff" d="M277.7,-192.37C260.08,-181.73 229.91,-163.51 209.01,-150.89"/>
<polygon fill="#63b8ff" stroke="#63b8ff" points="210.78,-147.87 200.41,-145.7 207.16,-153.86 210.78,-147.87"/>
</a>
</g>
</g>
<!-- Node31&#45;&gt;Node7 -->
<g id="edge47_Node000031_Node000007" class="edge">
<title>Node31&#45;&gt;Node7</title>
<g id="a_edge47_Node000031_Node000007"><a xlink:title=" ">
<path fill="none" stroke="#63b8ff" d="M306.57,-192.37C324.52,-181.73 355.27,-163.51 376.56,-150.89"/>
<polygon fill="#63b8ff" stroke="#63b8ff" points="378.5,-153.81 385.32,-145.7 374.93,-147.79 378.5,-153.81"/>
</a>
</g>
</g>
<!-- Node31&#45;&gt;Node10 -->
<g id="edge48_Node000031_Node000010" class="edge">
<title>Node31&#45;&gt;Node10</title>
<g id="a_edge48_Node000031_Node000010"><a xlink:title=" ">
<path fill="none" stroke="#63b8ff" d="M291.33,-192.17C289.92,-166.67 289.64,-92.37 330,-55 358.89,-28.26 469.74,-17.12 533.02,-12.87"/>
<polygon fill="#63b8ff" stroke="#63b8ff" points="533.37,-16.35 543.13,-12.22 532.93,-9.37 533.37,-16.35"/>
</a>
</g>
</g>
<!-- Node31&#45;&gt;Node14 -->
<g id="edge50_Node000031_Node000014" class="edge">
<title>Node31&#45;&gt;Node14</title>
<g id="a_edge50_Node000031_Node000014"><a xlink:title=" ">
<path fill="none" stroke="#63b8ff" d="M319.92,-192.37C351.52,-182.6 403.8,-166.43 443.74,-154.09"/>
<polygon fill="#63b8ff" stroke="#63b8ff" points="444.82,-157.41 453.34,-151.12 442.76,-150.73 444.82,-157.41"/>
</a>
</g>
</g>
<!-- Node32 -->
<g id="Node000032" class="node">
<title>Node32</title>
<g id="a_Node000032"><a xlink:title=" ">
<polygon fill="#e0e0e0" stroke="#999999" points="277.5,-145.5 230.5,-145.5 230.5,-126.5 277.5,-126.5 277.5,-145.5"/>
<text text-anchor="middle" x="254" y="-133.5" font-family="Helvetica,sans-Serif" font-size="10.00">vector</text>
</a>
</g>
</g>
<!-- Node31&#45;&gt;Node32 -->
<g id="edge49_Node000031_Node000032" class="edge">
<title>Node31&#45;&gt;Node32</title>
<g id="a_edge49_Node000031_Node000032"><a xlink:title=" ">
<path fill="none" stroke="#63b8ff" d="M286.88,-192.37C281.18,-182.78 271.84,-167.05 264.57,-154.8"/>
<polygon fill="#63b8ff" stroke="#63b8ff" points="267.4,-152.72 259.29,-145.91 261.38,-156.29 267.4,-152.72"/>
</a>
</g>
</g>
</g>
</svg>
