<?xml version="1.0" encoding="UTF-8" standalone="no"?>
<!DOCTYPE svg PUBLIC "-//W3C//DTD SVG 1.1//EN"
 "http://www.w3.org/Graphics/SVG/1.1/DTD/svg11.dtd">
<!-- Generated by graphviz version 2.43.0 (0)
 -->
<!-- Title: userver/ydb/dist_lock/settings.hpp Pages: 1 -->
<svg width="197pt" height="170pt"
 viewBox="0.00 0.00 196.50 170.00" xmlns="http://www.w3.org/2000/svg" xmlns:xlink="http://www.w3.org/1999/xlink">
<g id="graph0" class="graph" transform="scale(1 1) rotate(0) translate(4 166)">
<title>userver/ydb/dist_lock/settings.hpp</title>
<!-- Node1 -->
<g id="Node000001" class="node">
<title>Node1</title>
<g id="a_Node000001"><a xlink:title="A set of tweak&#45;able settings for ydb::DistLockWorker.">
<polygon fill="#999999" stroke="#666666" points="135.5,-162 14.5,-162 14.5,-132 135.5,-132 135.5,-162"/>
<text text-anchor="start" x="22.5" y="-150" font-family="Helvetica,sans-Serif" font-size="10.00">userver/ydb/dist_lock</text>
<text text-anchor="middle" x="75" y="-139" font-family="Helvetica,sans-Serif" font-size="10.00">/settings.hpp</text>
</a>
</g>
</g>
<!-- Node2 -->
<g id="Node000002" class="node">
<title>Node2</title>
<g id="a_Node000002"><a xlink:title=" ">
<polygon fill="#e0e0e0" stroke="#999999" points="50,-90.5 0,-90.5 0,-71.5 50,-71.5 50,-90.5"/>
<text text-anchor="middle" x="25" y="-78.5" font-family="Helvetica,sans-Serif" font-size="10.00">chrono</text>
</a>
</g>
</g>
<!-- Node1&#45;&gt;Node2 -->
<g id="edge1_Node000001_Node000002" class="edge">
<title>Node1&#45;&gt;Node2</title>
<g id="a_edge1_Node000001_Node000002"><a xlink:title=" ">
<path fill="none" stroke="#63b8ff" d="M63.9,-131.8C56.34,-122.11 46.28,-109.24 38.29,-99.01"/>
<polygon fill="#63b8ff" stroke="#63b8ff" points="40.82,-96.57 31.91,-90.84 35.31,-100.88 40.82,-96.57"/>
</a>
</g>
</g>
<!-- Node3 -->
<g id="Node000003" class="node">
<title>Node3</title>
<g id="a_Node000003"><a xlink:href="../../dd/dd7/universal_2include_2userver_2yaml__config_2fwd_8hpp.html" target="_top" xlink:title="Forward declarations of YamlConfig type and formats::parse::To.">
<polygon fill="white" stroke="#666666" points="184,-96 68,-96 68,-66 184,-66 184,-96"/>
<text text-anchor="start" x="76" y="-84" font-family="Helvetica,sans-Serif" font-size="10.00">userver/yaml_config</text>
<text text-anchor="middle" x="126" y="-73" font-family="Helvetica,sans-Serif" font-size="10.00">/fwd.hpp</text>
</a>
</g>
</g>
<!-- Node1&#45;&gt;Node3 -->
<g id="edge2_Node000001_Node000003" class="edge">
<title>Node1&#45;&gt;Node3</title>
<g id="a_edge2_Node000001_Node000003"><a xlink:title=" ">
<path fill="none" stroke="#63b8ff" d="M86.32,-131.8C92.79,-123.68 101.05,-113.31 108.35,-104.15"/>
<polygon fill="#63b8ff" stroke="#63b8ff" points="111.22,-106.17 114.71,-96.16 105.74,-101.8 111.22,-106.17"/>
</a>
</g>
</g>
<!-- Node4 -->
<g id="Node000004" class="node">
<title>Node4</title>
<g id="a_Node000004"><a xlink:href="../../d2/dc8/universal_2include_2userver_2formats_2parse_2to_8hpp.html" target="_top" xlink:title="Helper for parsers.">
<polygon fill="white" stroke="#666666" points="188.5,-30 63.5,-30 63.5,0 188.5,0 188.5,-30"/>
<text text-anchor="start" x="71.5" y="-18" font-family="Helvetica,sans-Serif" font-size="10.00">userver/formats/parse</text>
<text text-anchor="middle" x="126" y="-7" font-family="Helvetica,sans-Serif" font-size="10.00">/to.hpp</text>
</a>
</g>
</g>
<!-- Node3&#45;&gt;Node4 -->
<g id="edge3_Node000003_Node000004" class="edge">
<title>Node3&#45;&gt;Node4</title>
<g id="a_edge3_Node000003_Node000004"><a xlink:title=" ">
<path fill="none" stroke="#63b8ff" d="M126,-65.8C126,-58.34 126,-48.99 126,-40.41"/>
<polygon fill="#63b8ff" stroke="#63b8ff" points="129.5,-40.16 126,-30.16 122.5,-40.16 129.5,-40.16"/>
</a>
</g>
</g>
</g>
</svg>
