<?xml version="1.0" encoding="UTF-8" standalone="no"?>
<!DOCTYPE svg PUBLIC "-//W3C//DTD SVG 1.1//EN"
 "http://www.w3.org/Graphics/SVG/1.1/DTD/svg11.dtd">
<!-- Generated by graphviz version 2.43.0 (0)
 -->
<!-- Title: userver/yaml_config/schema.hpp Pages: 1 -->
<svg width="986pt" height="324pt"
 viewBox="0.00 0.00 985.50 324.00" xmlns="http://www.w3.org/2000/svg" xmlns:xlink="http://www.w3.org/1999/xlink">
<g id="graph0" class="graph" transform="scale(1 1) rotate(0) translate(4 320)">
<title>userver/yaml_config/schema.hpp</title>
<!-- Node1 -->
<g id="Node000001" class="node">
<title>Node1</title>
<g id="a_Node000001"><a xlink:title="JSON Schema&#45;like type definition.">
<polygon fill="#999999" stroke="#666666" points="551.5,-316 435.5,-316 435.5,-286 551.5,-286 551.5,-316"/>
<text text-anchor="start" x="443.5" y="-304" font-family="Helvetica,sans-Serif" font-size="10.00">userver/yaml_config</text>
<text text-anchor="middle" x="493.5" y="-293" font-family="Helvetica,sans-Serif" font-size="10.00">/schema.hpp</text>
</a>
</g>
</g>
<!-- Node2 -->
<g id="Node000002" class="node">
<title>Node2</title>
<g id="a_Node000002"><a xlink:href="../../df/d56/caching__component__base_8hpp.html" target="_top" xlink:title="Base class for caching components.">
<polygon fill="white" stroke="#666666" points="265.5,-244.5 139.5,-244.5 139.5,-214.5 265.5,-214.5 265.5,-244.5"/>
<text text-anchor="start" x="147.5" y="-232.5" font-family="Helvetica,sans-Serif" font-size="10.00">userver/cache/caching</text>
<text text-anchor="middle" x="202.5" y="-221.5" font-family="Helvetica,sans-Serif" font-size="10.00">_component_base.hpp</text>
</a>
</g>
</g>
<!-- Node1&#45;&gt;Node2 -->
<g id="edge1_Node000001_Node000002" class="edge">
<title>Node1&#45;&gt;Node2</title>
<g id="a_edge1_Node000001_Node000002"><a xlink:title=" ">
<path fill="none" stroke="#63b8ff" d="M425.39,-285.19C382.08,-275.59 324.88,-262.57 274.5,-250 267.71,-248.31 260.59,-246.46 253.57,-244.6"/>
<polygon fill="#63b8ff" stroke="#63b8ff" points="424.73,-288.63 435.25,-287.37 426.24,-281.79 424.73,-288.63"/>
</a>
</g>
</g>
<!-- Node6 -->
<g id="Node000006" class="node">
<title>Node6</title>
<g id="a_Node000006"><a xlink:href="../../d9/daf/lru__cache__component__base_8hpp.html" target="_top" xlink:title="Base class for LRU&#45;cache components.">
<polygon fill="white" stroke="#666666" points="417.5,-244.5 283.5,-244.5 283.5,-214.5 417.5,-214.5 417.5,-244.5"/>
<text text-anchor="start" x="291.5" y="-232.5" font-family="Helvetica,sans-Serif" font-size="10.00">userver/cache/lru_cache</text>
<text text-anchor="middle" x="350.5" y="-221.5" font-family="Helvetica,sans-Serif" font-size="10.00">_component_base.hpp</text>
</a>
</g>
</g>
<!-- Node1&#45;&gt;Node6 -->
<g id="edge5_Node000001_Node000006" class="edge">
<title>Node1&#45;&gt;Node6</title>
<g id="a_edge5_Node000001_Node000006"><a xlink:title=" ">
<path fill="none" stroke="#63b8ff" d="M455.43,-281.5C431.57,-269.9 401.29,-255.18 379.4,-244.54"/>
<polygon fill="#63b8ff" stroke="#63b8ff" points="454.04,-284.71 464.56,-285.94 457.1,-278.42 454.04,-284.71"/>
</a>
</g>
</g>
<!-- Node7 -->
<g id="Node000007" class="node">
<title>Node7</title>
<g id="a_Node000007"><a xlink:href="../../df/d88/static__config__validator_8hpp_source.html" target="_top" xlink:title=" ">
<polygon fill="white" stroke="#666666" points="613.5,-173 463.5,-173 463.5,-143 613.5,-143 613.5,-173"/>
<text text-anchor="start" x="471.5" y="-161" font-family="Helvetica,sans-Serif" font-size="10.00">userver/components</text>
<text text-anchor="middle" x="538.5" y="-150" font-family="Helvetica,sans-Serif" font-size="10.00">/static_config_validator.hpp</text>
</a>
</g>
</g>
<!-- Node1&#45;&gt;Node7 -->
<g id="edge6_Node000001_Node000007" class="edge">
<title>Node1&#45;&gt;Node7</title>
<g id="a_edge6_Node000001_Node000007"><a xlink:title=" ">
<path fill="none" stroke="#63b8ff" d="M532.11,-280.32C543.36,-272.52 554.28,-262.41 560.5,-250 573.18,-224.72 558.46,-191.76 547.73,-173.25"/>
<polygon fill="#63b8ff" stroke="#63b8ff" points="530.05,-277.49 523.53,-285.84 533.83,-283.38 530.05,-277.49"/>
</a>
</g>
</g>
<!-- Node15 -->
<g id="Node000015" class="node">
<title>Node15</title>
<g id="a_Node000015"><a xlink:href="../../d5/d4d/http__handler__flatbuf__base_8hpp.html" target="_top" xlink:title="Convenient base for handlers that accept requests with body in Flatbuffer format and respond with bod...">
<polygon fill="white" stroke="#666666" points="739.5,-250 607.5,-250 607.5,-209 739.5,-209 739.5,-250"/>
<text text-anchor="start" x="615.5" y="-238" font-family="Helvetica,sans-Serif" font-size="10.00">userver/server/handlers</text>
<text text-anchor="start" x="615.5" y="-227" font-family="Helvetica,sans-Serif" font-size="10.00">/http_handler_flatbuf</text>
<text text-anchor="middle" x="673.5" y="-216" font-family="Helvetica,sans-Serif" font-size="10.00">_base.hpp</text>
</a>
</g>
</g>
<!-- Node1&#45;&gt;Node15 -->
<g id="edge14_Node000001_Node000015" class="edge">
<title>Node1&#45;&gt;Node15</title>
<g id="a_edge14_Node000001_Node000015"><a xlink:title=" ">
<path fill="none" stroke="#63b8ff" d="M539.36,-282.29C564.84,-272.46 596.59,-260.2 622.81,-250.07"/>
<polygon fill="#63b8ff" stroke="#63b8ff" points="537.99,-279.07 529.93,-285.94 540.52,-285.6 537.99,-279.07"/>
</a>
</g>
</g>
<!-- Node16 -->
<g id="Node000016" class="node">
<title>Node16</title>
<g id="a_Node000016"><a xlink:href="../../de/db2/http__middleware__base_8hpp.html" target="_top" xlink:title="Base classes for implementing custom middlewares.">
<polygon fill="white" stroke="#666666" points="911,-244.5 758,-244.5 758,-214.5 911,-214.5 911,-244.5"/>
<text text-anchor="start" x="766" y="-232.5" font-family="Helvetica,sans-Serif" font-size="10.00">userver/server/middlewares</text>
<text text-anchor="middle" x="834.5" y="-221.5" font-family="Helvetica,sans-Serif" font-size="10.00">/http_middleware_base.hpp</text>
</a>
</g>
</g>
<!-- Node1&#45;&gt;Node16 -->
<g id="edge15_Node000001_Node000016" class="edge">
<title>Node1&#45;&gt;Node16</title>
<g id="a_edge15_Node000001_Node000016"><a xlink:title=" ">
<path fill="none" stroke="#63b8ff" d="M561.58,-287.21C613.01,-277.42 685.29,-263.36 748.5,-250 756.59,-248.29 765.09,-246.43 773.47,-244.57"/>
<polygon fill="#63b8ff" stroke="#63b8ff" points="560.75,-283.81 551.58,-289.11 562.06,-290.69 560.75,-283.81"/>
</a>
</g>
</g>
<!-- Node18 -->
<g id="Node000018" class="node">
<title>Node18</title>
<g id="a_Node000018"><a xlink:href="../../d2/d80/validate__static__config_8hpp_source.html" target="_top" xlink:title=" ">
<polygon fill="white" stroke="#666666" points="551.5,-250 435.5,-250 435.5,-209 551.5,-209 551.5,-250"/>
<text text-anchor="start" x="443.5" y="-238" font-family="Helvetica,sans-Serif" font-size="10.00">userver/yaml_config</text>
<text text-anchor="start" x="443.5" y="-227" font-family="Helvetica,sans-Serif" font-size="10.00">/impl/validate_static</text>
<text text-anchor="middle" x="493.5" y="-216" font-family="Helvetica,sans-Serif" font-size="10.00">_config.hpp</text>
</a>
</g>
</g>
<!-- Node1&#45;&gt;Node18 -->
<g id="edge17_Node000001_Node000018" class="edge">
<title>Node1&#45;&gt;Node18</title>
<g id="a_edge17_Node000001_Node000018"><a xlink:title=" ">
<path fill="none" stroke="#63b8ff" d="M493.5,-275.91C493.5,-267.47 493.5,-258.1 493.5,-250.07"/>
<polygon fill="#63b8ff" stroke="#63b8ff" points="490,-275.94 493.5,-285.94 497,-275.94 490,-275.94"/>
</a>
</g>
</g>
<!-- Node19 -->
<g id="Node000019" class="node">
<title>Node19</title>
<g id="a_Node000019"><a xlink:href="../../dc/d5f/merge__schemas_8hpp.html" target="_top" xlink:title="Merge parent and child components schemas of static configs.">
<polygon fill="white" stroke="#666666" points="121,-244.5 0,-244.5 0,-214.5 121,-214.5 121,-244.5"/>
<text text-anchor="start" x="8" y="-232.5" font-family="Helvetica,sans-Serif" font-size="10.00">userver/yaml_config</text>
<text text-anchor="middle" x="60.5" y="-221.5" font-family="Helvetica,sans-Serif" font-size="10.00">/merge_schemas.hpp</text>
</a>
</g>
</g>
<!-- Node1&#45;&gt;Node19 -->
<g id="edge19_Node000001_Node000019" class="edge">
<title>Node1&#45;&gt;Node19</title>
<g id="a_edge19_Node000001_Node000019"><a xlink:title=" ">
<path fill="none" stroke="#63b8ff" d="M425.22,-293.37C351.9,-285.61 232.24,-271.08 130.5,-250 123.09,-248.46 115.31,-246.58 107.73,-244.59"/>
<polygon fill="#63b8ff" stroke="#63b8ff" points="424.94,-296.86 435.25,-294.42 425.67,-289.9 424.94,-296.86"/>
</a>
</g>
</g>
<!-- Node3 -->
<g id="Node000003" class="node">
<title>Node3</title>
<g id="a_Node000003"><a xlink:href="../../dd/d6c/base__mongo__cache_8hpp.html" target="_top" xlink:title="Base class for all caches polling mongo collection">
<polygon fill="white" stroke="#666666" points="249,-173 138,-173 138,-143 249,-143 249,-173"/>
<text text-anchor="start" x="146" y="-161" font-family="Helvetica,sans-Serif" font-size="10.00">userver/cache/base</text>
<text text-anchor="middle" x="193.5" y="-150" font-family="Helvetica,sans-Serif" font-size="10.00">_mongo_cache.hpp</text>
</a>
</g>
</g>
<!-- Node2&#45;&gt;Node3 -->
<g id="edge2_Node000002_Node000003" class="edge">
<title>Node2&#45;&gt;Node3</title>
<g id="a_edge2_Node000002_Node000003"><a xlink:title=" ">
<path fill="none" stroke="#63b8ff" d="M199.36,-204.25C198.01,-193.81 196.48,-181.99 195.32,-173.04"/>
<polygon fill="#63b8ff" stroke="#63b8ff" points="195.92,-204.97 200.68,-214.44 202.87,-204.07 195.92,-204.97"/>
</a>
</g>
</g>
<!-- Node4 -->
<g id="Node000004" class="node">
<title>Node4</title>
<g id="a_Node000004"><a xlink:href="../../dc/df7/base__postgres__cache_8hpp.html" target="_top" xlink:title="Caching component for PostgreSQL. See Caching Component for PostgreSQL.">
<polygon fill="white" stroke="#666666" points="120,-173 1,-173 1,-143 120,-143 120,-173"/>
<text text-anchor="start" x="9" y="-161" font-family="Helvetica,sans-Serif" font-size="10.00">userver/cache/base</text>
<text text-anchor="middle" x="60.5" y="-150" font-family="Helvetica,sans-Serif" font-size="10.00">_postgres_cache.hpp</text>
</a>
</g>
</g>
<!-- Node2&#45;&gt;Node4 -->
<g id="edge3_Node000002_Node000004" class="edge">
<title>Node2&#45;&gt;Node4</title>
<g id="a_edge3_Node000002_Node000004"><a xlink:title=" ">
<path fill="none" stroke="#63b8ff" d="M164.7,-210C141,-198.4 110.93,-183.68 89.19,-173.04"/>
<polygon fill="#63b8ff" stroke="#63b8ff" points="163.24,-213.18 173.76,-214.44 166.32,-206.9 163.24,-213.18"/>
</a>
</g>
</g>
<!-- Node5 -->
<g id="Node000005" class="node">
<title>Node5</title>
<g id="a_Node000005"><a xlink:href="../../db/df3/core_2include_2userver_2dynamic__config_2updater_2component_8hpp.html" target="_top" xlink:title="Component that does a periodic update of runtime configs.">
<polygon fill="white" stroke="#666666" points="403.5,-173 267.5,-173 267.5,-143 403.5,-143 403.5,-173"/>
<text text-anchor="start" x="275.5" y="-161" font-family="Helvetica,sans-Serif" font-size="10.00">userver/dynamic_config</text>
<text text-anchor="middle" x="335.5" y="-150" font-family="Helvetica,sans-Serif" font-size="10.00">/updater/component.hpp</text>
</a>
</g>
</g>
<!-- Node2&#45;&gt;Node5 -->
<g id="edge4_Node000002_Node000005" class="edge">
<title>Node2&#45;&gt;Node5</title>
<g id="a_edge4_Node000002_Node000005"><a xlink:title=" ">
<path fill="none" stroke="#63b8ff" d="M238.5,-209.69C260.6,-198.14 288.45,-183.59 308.63,-173.04"/>
<polygon fill="#63b8ff" stroke="#63b8ff" points="236.66,-206.7 229.41,-214.44 239.9,-212.91 236.66,-206.7"/>
</a>
</g>
</g>
<!-- Node8 -->
<g id="Node000008" class="node">
<title>Node8</title>
<g id="a_Node000008"><a xlink:href="../../d9/d32/component__list_8hpp.html" target="_top" xlink:title="A list to keep a unique list of components to start with components::Run(), utils::DaemonMain() or co...">
<polygon fill="white" stroke="#666666" points="596.5,-107 480.5,-107 480.5,-77 596.5,-77 596.5,-107"/>
<text text-anchor="start" x="488.5" y="-95" font-family="Helvetica,sans-Serif" font-size="10.00">userver/components</text>
<text text-anchor="middle" x="538.5" y="-84" font-family="Helvetica,sans-Serif" font-size="10.00">/component_list.hpp</text>
</a>
</g>
</g>
<!-- Node7&#45;&gt;Node8 -->
<g id="edge7_Node000007_Node000008" class="edge">
<title>Node7&#45;&gt;Node8</title>
<g id="a_edge7_Node000007_Node000008"><a xlink:title=" ">
<path fill="none" stroke="#63b8ff" d="M538.5,-132.54C538.5,-123.96 538.5,-114.61 538.5,-107.16"/>
<polygon fill="#63b8ff" stroke="#63b8ff" points="535,-132.8 538.5,-142.8 542,-132.8 535,-132.8"/>
</a>
</g>
</g>
<!-- Node9 -->
<g id="Node000009" class="node">
<title>Node9</title>
<g id="a_Node000009"><a xlink:href="../../d1/d1c/common__component__list_8hpp.html" target="_top" xlink:title="Returns the most common list of components with runtime config updates and HTTP client.">
<polygon fill="white" stroke="#666666" points="175.5,-35.5 11.5,-35.5 11.5,-5.5 175.5,-5.5 175.5,-35.5"/>
<text text-anchor="start" x="19.5" y="-23.5" font-family="Helvetica,sans-Serif" font-size="10.00">userver/components</text>
<text text-anchor="middle" x="93.5" y="-12.5" font-family="Helvetica,sans-Serif" font-size="10.00">/common_component_list.hpp</text>
</a>
</g>
</g>
<!-- Node8&#45;&gt;Node9 -->
<g id="edge8_Node000008_Node000009" class="edge">
<title>Node8&#45;&gt;Node9</title>
<g id="a_edge8_Node000008_Node000009"><a xlink:title=" ">
<path fill="none" stroke="#63b8ff" d="M470.14,-82.8C398.67,-73.89 283.38,-58.55 184.5,-41 175.27,-39.36 165.56,-37.47 156.04,-35.51"/>
<polygon fill="#63b8ff" stroke="#63b8ff" points="470,-86.31 480.35,-84.07 470.86,-79.36 470,-86.31"/>
</a>
</g>
</g>
<!-- Node10 -->
<g id="Node000010" class="node">
<title>Node10</title>
<g id="a_Node000010"><a xlink:href="../../dc/dec/common__server__component__list_8hpp.html" target="_top" xlink:title="Returns the most common list of components to start a fully functional server.">
<polygon fill="white" stroke="#666666" points="351.5,-41 193.5,-41 193.5,0 351.5,0 351.5,-41"/>
<text text-anchor="start" x="201.5" y="-29" font-family="Helvetica,sans-Serif" font-size="10.00">userver/components</text>
<text text-anchor="start" x="201.5" y="-18" font-family="Helvetica,sans-Serif" font-size="10.00">/common_server_component</text>
<text text-anchor="middle" x="272.5" y="-7" font-family="Helvetica,sans-Serif" font-size="10.00">_list.hpp</text>
</a>
</g>
</g>
<!-- Node8&#45;&gt;Node10 -->
<g id="edge9_Node000008_Node000010" class="edge">
<title>Node8&#45;&gt;Node10</title>
<g id="a_edge9_Node000008_Node000010"><a xlink:title=" ">
<path fill="none" stroke="#63b8ff" d="M474.66,-74.32C436.3,-64.3 387.31,-51.5 347.16,-41.01"/>
<polygon fill="#63b8ff" stroke="#63b8ff" points="474.11,-77.79 484.67,-76.94 475.88,-71.02 474.11,-77.79"/>
</a>
</g>
</g>
<!-- Node11 -->
<g id="Node000011" class="node">
<title>Node11</title>
<g id="a_Node000011"><a xlink:href="../../d9/d9e/minimal__component__list_8hpp.html" target="_top" xlink:title="Returns a list of components to do basic logging, component initialization and configuration.">
<polygon fill="white" stroke="#666666" points="531,-35.5 370,-35.5 370,-5.5 531,-5.5 531,-35.5"/>
<text text-anchor="start" x="378" y="-23.5" font-family="Helvetica,sans-Serif" font-size="10.00">userver/components</text>
<text text-anchor="middle" x="450.5" y="-12.5" font-family="Helvetica,sans-Serif" font-size="10.00">/minimal_component_list.hpp</text>
</a>
</g>
</g>
<!-- Node8&#45;&gt;Node11 -->
<g id="edge10_Node000008_Node000011" class="edge">
<title>Node8&#45;&gt;Node11</title>
<g id="a_edge10_Node000008_Node000011"><a xlink:title=" ">
<path fill="none" stroke="#63b8ff" d="M512.7,-70.63C498.42,-59.35 481.04,-45.62 468.28,-35.54"/>
<polygon fill="#63b8ff" stroke="#63b8ff" points="510.67,-73.48 520.69,-76.94 515.01,-67.99 510.67,-73.48"/>
</a>
</g>
</g>
<!-- Node12 -->
<g id="Node000012" class="node">
<title>Node12</title>
<g id="a_Node000012"><a xlink:href="../../db/dbf/minimal__server__component__list_8hpp.html" target="_top" xlink:title="Returns a list of components to start a basic HTTP server.">
<polygon fill="white" stroke="#666666" points="705.5,-41 549.5,-41 549.5,0 705.5,0 705.5,-41"/>
<text text-anchor="start" x="557.5" y="-29" font-family="Helvetica,sans-Serif" font-size="10.00">userver/components</text>
<text text-anchor="start" x="557.5" y="-18" font-family="Helvetica,sans-Serif" font-size="10.00">/minimal_server_component</text>
<text text-anchor="middle" x="627.5" y="-7" font-family="Helvetica,sans-Serif" font-size="10.00">_list.hpp</text>
</a>
</g>
</g>
<!-- Node8&#45;&gt;Node12 -->
<g id="edge11_Node000008_Node000012" class="edge">
<title>Node8&#45;&gt;Node12</title>
<g id="a_edge11_Node000008_Node000012"><a xlink:title=" ">
<path fill="none" stroke="#63b8ff" d="M564.4,-70.77C576.38,-61.42 590.56,-50.35 602.43,-41.07"/>
<polygon fill="#63b8ff" stroke="#63b8ff" points="562.24,-68.02 556.51,-76.94 566.55,-73.54 562.24,-68.02"/>
</a>
</g>
</g>
<!-- Node13 -->
<g id="Node000013" class="node">
<title>Node13</title>
<g id="a_Node000013"><a xlink:href="../../da/d51/run_8hpp.html" target="_top" xlink:title="Functions to start a service or tool with the specified config and components::ComponentList.">
<polygon fill="white" stroke="#666666" points="839.5,-35.5 723.5,-35.5 723.5,-5.5 839.5,-5.5 839.5,-35.5"/>
<text text-anchor="start" x="731.5" y="-23.5" font-family="Helvetica,sans-Serif" font-size="10.00">userver/components</text>
<text text-anchor="middle" x="781.5" y="-12.5" font-family="Helvetica,sans-Serif" font-size="10.00">/run.hpp</text>
</a>
</g>
</g>
<!-- Node8&#45;&gt;Node13 -->
<g id="edge12_Node000008_Node000013" class="edge">
<title>Node8&#45;&gt;Node13</title>
<g id="a_edge12_Node000008_Node000013"><a xlink:title=" ">
<path fill="none" stroke="#63b8ff" d="M598.02,-74.19C632.13,-64.53 675.74,-52.15 714.5,-41 720.55,-39.26 726.91,-37.42 733.2,-35.6"/>
<polygon fill="#63b8ff" stroke="#63b8ff" points="596.88,-70.88 588.21,-76.97 598.79,-77.61 596.88,-70.88"/>
</a>
</g>
</g>
<!-- Node14 -->
<g id="Node000014" class="node">
<title>Node14</title>
<g id="a_Node000014"><a xlink:href="../../d7/de0/daemon__run_8hpp.html" target="_top" xlink:title="Functions to start a daemon with specified components list.">
<polygon fill="white" stroke="#666666" points="977.5,-35.5 857.5,-35.5 857.5,-5.5 977.5,-5.5 977.5,-35.5"/>
<text text-anchor="start" x="865.5" y="-23.5" font-family="Helvetica,sans-Serif" font-size="10.00">userver/utils/daemon</text>
<text text-anchor="middle" x="917.5" y="-12.5" font-family="Helvetica,sans-Serif" font-size="10.00">_run.hpp</text>
</a>
</g>
</g>
<!-- Node8&#45;&gt;Node14 -->
<g id="edge13_Node000008_Node000014" class="edge">
<title>Node8&#45;&gt;Node14</title>
<g id="a_edge13_Node000008_Node000014"><a xlink:title=" ">
<path fill="none" stroke="#63b8ff" d="M606.81,-82.29C669.91,-73.71 766.06,-59.23 848.5,-41 855.67,-39.41 863.2,-37.52 870.55,-35.55"/>
<polygon fill="#63b8ff" stroke="#63b8ff" points="606.03,-78.87 596.58,-83.67 606.96,-85.8 606.03,-78.87"/>
</a>
</g>
</g>
<!-- Node17 -->
<g id="Node000017" class="node">
<title>Node17</title>
<g id="a_Node000017"><a xlink:href="../../df/dd5/middlewares_8hpp_source.html" target="_top" xlink:title=" ">
<polygon fill="white" stroke="#666666" points="927.5,-167.5 741.5,-167.5 741.5,-148.5 927.5,-148.5 927.5,-167.5"/>
<text text-anchor="middle" x="834.5" y="-155.5" font-family="Helvetica,sans-Serif" font-size="10.00">userver/testsuite/middlewares.hpp</text>
</a>
</g>
</g>
<!-- Node16&#45;&gt;Node17 -->
<g id="edge16_Node000016_Node000017" class="edge">
<title>Node16&#45;&gt;Node17</title>
<g id="a_edge16_Node000016_Node000017"><a xlink:title=" ">
<path fill="none" stroke="#63b8ff" d="M834.5,-204.06C834.5,-191.45 834.5,-176.85 834.5,-167.77"/>
<polygon fill="#63b8ff" stroke="#63b8ff" points="831,-204.44 834.5,-214.44 838,-204.44 831,-204.44"/>
</a>
</g>
</g>
<!-- Node18&#45;&gt;Node7 -->
<g id="edge18_Node000018_Node000007" class="edge">
<title>Node18&#45;&gt;Node7</title>
<g id="a_edge18_Node000018_Node000007"><a xlink:title=" ">
<path fill="none" stroke="#63b8ff" d="M511.88,-200.11C517.92,-190.78 524.37,-180.82 529.41,-173.04"/>
<polygon fill="#63b8ff" stroke="#63b8ff" points="508.77,-198.47 506.27,-208.77 514.65,-202.28 508.77,-198.47"/>
</a>
</g>
</g>
<!-- Node19&#45;&gt;Node3 -->
<g id="edge20_Node000019_Node000003" class="edge">
<title>Node19&#45;&gt;Node3</title>
<g id="a_edge20_Node000019_Node000003"><a xlink:title=" ">
<path fill="none" stroke="#63b8ff" d="M96.5,-209.69C118.6,-198.14 146.45,-183.59 166.63,-173.04"/>
<polygon fill="#63b8ff" stroke="#63b8ff" points="94.66,-206.7 87.41,-214.44 97.9,-212.91 94.66,-206.7"/>
</a>
</g>
</g>
<!-- Node19&#45;&gt;Node4 -->
<g id="edge21_Node000019_Node000004" class="edge">
<title>Node19&#45;&gt;Node4</title>
<g id="a_edge21_Node000019_Node000004"><a xlink:title=" ">
<path fill="none" stroke="#63b8ff" d="M60.5,-204.25C60.5,-193.81 60.5,-181.99 60.5,-173.04"/>
<polygon fill="#63b8ff" stroke="#63b8ff" points="57,-204.44 60.5,-214.44 64,-204.44 57,-204.44"/>
</a>
</g>
</g>
</g>
</svg>
