<?xml version="1.0" encoding="UTF-8" standalone="no"?>
<!DOCTYPE svg PUBLIC "-//W3C//DTD SVG 1.1//EN"
 "http://www.w3.org/Graphics/SVG/1.1/DTD/svg11.dtd">
<!-- Generated by graphviz version 2.43.0 (0)
 -->
<!-- Title: userver/logging/level_serialization.hpp Pages: 1 -->
<svg width="495pt" height="170pt"
 viewBox="0.00 0.00 494.50 170.00" xmlns="http://www.w3.org/2000/svg" xmlns:xlink="http://www.w3.org/1999/xlink">
<g id="graph0" class="graph" transform="scale(1 1) rotate(0) translate(4 166)">
<title>userver/logging/level_serialization.hpp</title>
<!-- Node1 -->
<g id="Node000001" class="node">
<title>Node1</title>
<g id="a_Node000001"><a xlink:title="Serialization of log levels.">
<polygon fill="#999999" stroke="#666666" points="287,-162 168,-162 168,-132 287,-132 287,-162"/>
<text text-anchor="start" x="176" y="-150" font-family="Helvetica,sans-Serif" font-size="10.00">userver/logging/level</text>
<text text-anchor="middle" x="227.5" y="-139" font-family="Helvetica,sans-Serif" font-size="10.00">_serialization.hpp</text>
</a>
</g>
</g>
<!-- Node2 -->
<g id="Node000002" class="node">
<title>Node2</title>
<g id="a_Node000002"><a xlink:href="../../dc/d7d/json__fwd_8hpp.html" target="_top" xlink:title="Forward declarations of formats::json types, formats::parse::To and formats::serialize::To.">
<polygon fill="white" stroke="#666666" points="151.5,-96 33.5,-96 33.5,-66 151.5,-66 151.5,-96"/>
<text text-anchor="start" x="41.5" y="-84" font-family="Helvetica,sans-Serif" font-size="10.00">userver/formats/json</text>
<text text-anchor="middle" x="92.5" y="-73" font-family="Helvetica,sans-Serif" font-size="10.00">_fwd.hpp</text>
</a>
</g>
</g>
<!-- Node1&#45;&gt;Node2 -->
<g id="edge1_Node000001_Node000002" class="edge">
<title>Node1&#45;&gt;Node2</title>
<g id="a_edge1_Node000001_Node000002"><a xlink:title=" ">
<path fill="none" stroke="#63b8ff" d="M197.87,-131.95C178.27,-122.66 152.36,-110.38 131.13,-100.32"/>
<polygon fill="#63b8ff" stroke="#63b8ff" points="132.59,-97.13 122.06,-96.01 129.59,-103.46 132.59,-97.13"/>
</a>
</g>
</g>
<!-- Node5 -->
<g id="Node000005" class="node">
<title>Node5</title>
<g id="a_Node000005"><a xlink:href="../../d5/d37/level_8hpp.html" target="_top" xlink:title="Log levels.">
<polygon fill="white" stroke="#666666" points="458.5,-90.5 318.5,-90.5 318.5,-71.5 458.5,-71.5 458.5,-90.5"/>
<text text-anchor="middle" x="388.5" y="-78.5" font-family="Helvetica,sans-Serif" font-size="10.00">userver/logging/level.hpp</text>
</a>
</g>
</g>
<!-- Node1&#45;&gt;Node5 -->
<g id="edge4_Node000001_Node000005" class="edge">
<title>Node1&#45;&gt;Node5</title>
<g id="a_edge4_Node000001_Node000005"><a xlink:title=" ">
<path fill="none" stroke="#63b8ff" d="M262.83,-131.95C291.19,-120.68 330.61,-105.01 357.7,-94.25"/>
<polygon fill="#63b8ff" stroke="#63b8ff" points="359.07,-97.46 367.07,-90.52 356.49,-90.96 359.07,-97.46"/>
</a>
</g>
</g>
<!-- Node9 -->
<g id="Node000009" class="node">
<title>Node9</title>
<g id="a_Node000009"><a xlink:href="../../dd/dd7/universal_2include_2userver_2yaml__config_2fwd_8hpp.html" target="_top" xlink:title="Forward declarations of YamlConfig type and formats::parse::To.">
<polygon fill="white" stroke="#666666" points="285.5,-96 169.5,-96 169.5,-66 285.5,-66 285.5,-96"/>
<text text-anchor="start" x="177.5" y="-84" font-family="Helvetica,sans-Serif" font-size="10.00">userver/yaml_config</text>
<text text-anchor="middle" x="227.5" y="-73" font-family="Helvetica,sans-Serif" font-size="10.00">/fwd.hpp</text>
</a>
</g>
</g>
<!-- Node1&#45;&gt;Node9 -->
<g id="edge8_Node000001_Node000009" class="edge">
<title>Node1&#45;&gt;Node9</title>
<g id="a_edge8_Node000001_Node000009"><a xlink:title=" ">
<path fill="none" stroke="#63b8ff" d="M227.5,-131.8C227.5,-124.34 227.5,-114.99 227.5,-106.41"/>
<polygon fill="#63b8ff" stroke="#63b8ff" points="231,-106.16 227.5,-96.16 224,-106.16 231,-106.16"/>
</a>
</g>
</g>
<!-- Node3 -->
<g id="Node000003" class="node">
<title>Node3</title>
<g id="a_Node000003"><a xlink:href="../../d2/dc8/universal_2include_2userver_2formats_2parse_2to_8hpp.html" target="_top" xlink:title="Helper for parsers.">
<polygon fill="white" stroke="#666666" points="282,-30 157,-30 157,0 282,0 282,-30"/>
<text text-anchor="start" x="165" y="-18" font-family="Helvetica,sans-Serif" font-size="10.00">userver/formats/parse</text>
<text text-anchor="middle" x="219.5" y="-7" font-family="Helvetica,sans-Serif" font-size="10.00">/to.hpp</text>
</a>
</g>
</g>
<!-- Node2&#45;&gt;Node3 -->
<g id="edge2_Node000002_Node000003" class="edge">
<title>Node2&#45;&gt;Node3</title>
<g id="a_edge2_Node000002_Node000003"><a xlink:title=" ">
<path fill="none" stroke="#63b8ff" d="M120.37,-65.95C138.65,-56.74 162.75,-44.6 182.62,-34.59"/>
<polygon fill="#63b8ff" stroke="#63b8ff" points="184.34,-37.64 191.69,-30.01 181.19,-31.39 184.34,-37.64"/>
</a>
</g>
</g>
<!-- Node4 -->
<g id="Node000004" class="node">
<title>Node4</title>
<g id="a_Node000004"><a xlink:href="../../d6/d8e/universal_2include_2userver_2formats_2serialize_2to_8hpp.html" target="_top" xlink:title="Helper for serializers.">
<polygon fill="white" stroke="#666666" points="139,-30 0,-30 0,0 139,0 139,-30"/>
<text text-anchor="start" x="8" y="-18" font-family="Helvetica,sans-Serif" font-size="10.00">userver/formats/serialize</text>
<text text-anchor="middle" x="69.5" y="-7" font-family="Helvetica,sans-Serif" font-size="10.00">/to.hpp</text>
</a>
</g>
</g>
<!-- Node2&#45;&gt;Node4 -->
<g id="edge3_Node000002_Node000004" class="edge">
<title>Node2&#45;&gt;Node4</title>
<g id="a_edge3_Node000002_Node000004"><a xlink:title=" ">
<path fill="none" stroke="#63b8ff" d="M87.4,-65.8C84.66,-58.17 81.21,-48.57 78.07,-39.84"/>
<polygon fill="#63b8ff" stroke="#63b8ff" points="81.27,-38.39 74.59,-30.16 74.68,-40.76 81.27,-38.39"/>
</a>
</g>
</g>
<!-- Node6 -->
<g id="Node000006" class="node">
<title>Node6</title>
<g id="a_Node000006"><a xlink:title=" ">
<polygon fill="#e0e0e0" stroke="#999999" points="350.5,-24.5 300.5,-24.5 300.5,-5.5 350.5,-5.5 350.5,-24.5"/>
<text text-anchor="middle" x="325.5" y="-12.5" font-family="Helvetica,sans-Serif" font-size="10.00">cstdint</text>
</a>
</g>
</g>
<!-- Node5&#45;&gt;Node6 -->
<g id="edge5_Node000005_Node000006" class="edge">
<title>Node5&#45;&gt;Node6</title>
<g id="a_edge5_Node000005_Node000006"><a xlink:title=" ">
<path fill="none" stroke="#63b8ff" d="M380,-71.37C370.2,-61.4 353.84,-44.79 341.61,-32.36"/>
<polygon fill="#63b8ff" stroke="#63b8ff" points="343.78,-29.58 334.27,-24.91 338.79,-34.49 343.78,-29.58"/>
</a>
</g>
</g>
<!-- Node7 -->
<g id="Node000007" class="node">
<title>Node7</title>
<g id="a_Node000007"><a xlink:title=" ">
<polygon fill="#e0e0e0" stroke="#999999" points="424.5,-24.5 368.5,-24.5 368.5,-5.5 424.5,-5.5 424.5,-24.5"/>
<text text-anchor="middle" x="396.5" y="-12.5" font-family="Helvetica,sans-Serif" font-size="10.00">optional</text>
</a>
</g>
</g>
<!-- Node5&#45;&gt;Node7 -->
<g id="edge6_Node000005_Node000007" class="edge">
<title>Node5&#45;&gt;Node7</title>
<g id="a_edge6_Node000005_Node000007"><a xlink:title=" ">
<path fill="none" stroke="#63b8ff" d="M389.58,-71.37C390.74,-62.07 392.63,-46.98 394.14,-34.9"/>
<polygon fill="#63b8ff" stroke="#63b8ff" points="397.62,-35.26 395.39,-24.91 390.67,-34.39 397.62,-35.26"/>
</a>
</g>
</g>
<!-- Node8 -->
<g id="Node000008" class="node">
<title>Node8</title>
<g id="a_Node000008"><a xlink:title=" ">
<polygon fill="#e0e0e0" stroke="#999999" points="486.5,-24.5 442.5,-24.5 442.5,-5.5 486.5,-5.5 486.5,-24.5"/>
<text text-anchor="middle" x="464.5" y="-12.5" font-family="Helvetica,sans-Serif" font-size="10.00">string</text>
</a>
</g>
</g>
<!-- Node5&#45;&gt;Node8 -->
<g id="edge7_Node000005_Node000008" class="edge">
<title>Node5&#45;&gt;Node8</title>
<g id="a_edge7_Node000005_Node000008"><a xlink:title=" ">
<path fill="none" stroke="#63b8ff" d="M398.75,-71.37C410.81,-61.21 431.06,-44.16 445.91,-31.65"/>
<polygon fill="#63b8ff" stroke="#63b8ff" points="448.53,-34.02 453.93,-24.91 444.02,-28.67 448.53,-34.02"/>
</a>
</g>
</g>
<!-- Node9&#45;&gt;Node3 -->
<g id="edge9_Node000009_Node000003" class="edge">
<title>Node9&#45;&gt;Node3</title>
<g id="a_edge9_Node000009_Node000003"><a xlink:title=" ">
<path fill="none" stroke="#63b8ff" d="M225.72,-65.8C224.78,-58.26 223.6,-48.78 222.52,-40.13"/>
<polygon fill="#63b8ff" stroke="#63b8ff" points="225.98,-39.65 221.27,-30.16 219.04,-40.52 225.98,-39.65"/>
</a>
</g>
</g>
</g>
</svg>
