<?xml version="1.0" encoding="UTF-8" standalone="no"?>
<!DOCTYPE svg PUBLIC "-//W3C//DTD SVG 1.1//EN"
 "http://www.w3.org/Graphics/SVG/1.1/DTD/svg11.dtd">
<!-- Generated by graphviz version 2.43.0 (0)
 -->
<!-- Title: testsuite::ExceptionsHandlingMiddleware Pages: 1 -->
<svg width="264pt" height="182pt"
 viewBox="0.00 0.00 263.50 182.00" xmlns="http://www.w3.org/2000/svg" xmlns:xlink="http://www.w3.org/1999/xlink">
<g id="graph0" class="graph" transform="scale(1 1) rotate(0) translate(4 178)">
<title>testsuite::ExceptionsHandlingMiddleware</title>
<!-- Node1 -->
<g id="Node000001" class="node">
<title>Node1</title>
<g id="a_Node000001"><a xlink:title=" ">
<polygon fill="#999999" stroke="#666666" points="162,-30 0,-30 0,0 162,0 162,-30"/>
<text text-anchor="start" x="8" y="-18" font-family="Helvetica,sans-Serif" font-size="10.00">testsuite::ExceptionsHandling</text>
<text text-anchor="middle" x="81" y="-7" font-family="Helvetica,sans-Serif" font-size="10.00">Middleware</text>
</a>
</g>
</g>
<!-- Node2 -->
<g id="Node000002" class="node">
<title>Node2</title>
<g id="a_Node000002"><a xlink:href="../../d0/daa/classserver_1_1middlewares_1_1HttpMiddlewareBase.html" target="_top" xlink:title="Base class for a http middleware.">
<polygon fill="white" stroke="#666666" points="127.5,-107 2.5,-107 2.5,-77 127.5,-77 127.5,-107"/>
<text text-anchor="start" x="10.5" y="-95" font-family="Helvetica,sans-Serif" font-size="10.00">server::middlewares</text>
<text text-anchor="middle" x="65" y="-84" font-family="Helvetica,sans-Serif" font-size="10.00">::HttpMiddlewareBase</text>
</a>
</g>
</g>
<!-- Node2&#45;&gt;Node1 -->
<g id="edge1_Node000001_Node000002" class="edge">
<title>Node2&#45;&gt;Node1</title>
<g id="a_edge1_Node000001_Node000002"><a xlink:title=" ">
<path fill="none" stroke="#63b8ff" d="M70.14,-66.91C72.74,-54.74 75.8,-40.4 78,-30.04"/>
<polygon fill="#63b8ff" stroke="#63b8ff" points="66.67,-66.38 68.01,-76.89 73.52,-67.84 66.67,-66.38"/>
</a>
</g>
</g>
<!-- Node3 -->
<g id="Node000003" class="node">
<title>Node3</title>
<g id="a_Node000003"><a xlink:title=" ">
<polygon fill="white" stroke="#666666" points="240,-101.5 146,-101.5 146,-82.5 240,-82.5 240,-101.5"/>
<text text-anchor="middle" x="193" y="-89.5" font-family="Helvetica,sans-Serif" font-size="10.00">std::string_view</text>
</a>
</g>
</g>
<!-- Node3&#45;&gt;Node1 -->
<g id="edge2_Node000001_Node000003" class="edge">
<title>Node3&#45;&gt;Node1</title>
<g id="a_edge2_Node000001_Node000003"><a xlink:title=" ">
<path fill="none" stroke="#9a32cd" stroke-dasharray="5,2" d="M171.72,-76.75C151.74,-63.37 122,-43.45 102.07,-30.11"/>
<polygon fill="#9a32cd" stroke="#9a32cd" points="169.9,-79.74 180.15,-82.4 173.79,-73.92 169.9,-79.74"/>
</a>
</g>
<text text-anchor="middle" x="162.5" y="-51" font-family="Helvetica,sans-Serif" font-size="10.00" fill="grey"> kName</text>
</g>
<!-- Node4 -->
<g id="Node000004" class="node">
<title>Node4</title>
<g id="a_Node000004"><a xlink:title=" ">
<polygon fill="white" stroke="#666666" points="255.5,-174 130.5,-174 130.5,-144 255.5,-144 255.5,-174"/>
<text text-anchor="start" x="138.5" y="-162" font-family="Helvetica,sans-Serif" font-size="10.00">std::basic_string_view</text>
<text text-anchor="middle" x="193" y="-151" font-family="Helvetica,sans-Serif" font-size="10.00">&lt; Char &gt;</text>
</a>
</g>
</g>
<!-- Node4&#45;&gt;Node3 -->
<g id="edge3_Node000003_Node000004" class="edge">
<title>Node4&#45;&gt;Node3</title>
<g id="a_edge3_Node000003_Node000004"><a xlink:title=" ">
<path fill="none" stroke="#63b8ff" d="M193,-133.75C193,-122.52 193,-109.88 193,-101.69"/>
<polygon fill="#63b8ff" stroke="#63b8ff" points="189.5,-133.9 193,-143.9 196.5,-133.9 189.5,-133.9"/>
</a>
</g>
</g>
</g>
</svg>
