<?xml version="1.0" encoding="UTF-8" standalone="no"?>
<!DOCTYPE svg PUBLIC "-//W3C//DTD SVG 1.1//EN"
 "http://www.w3.org/Graphics/SVG/1.1/DTD/svg11.dtd">
<!-- Generated by graphviz version 2.43.0 (0)
 -->
<!-- Title: ydb::CustomMemberName Pages: 1 -->
<svg width="156pt" height="171pt"
 viewBox="0.00 0.00 156.00 171.00" xmlns="http://www.w3.org/2000/svg" xmlns:xlink="http://www.w3.org/1999/xlink">
<g id="graph0" class="graph" transform="scale(1 1) rotate(0) translate(4 167)">
<title>ydb::CustomMemberName</title>
<!-- Node1 -->
<g id="Node000001" class="node">
<title>Node1</title>
<g id="a_Node000001"><a xlink:title=" ">
<polygon fill="#999999" stroke="#666666" points="148,-19 0,-19 0,0 148,0 148,-19"/>
<text text-anchor="middle" x="74" y="-7" font-family="Helvetica,sans-Serif" font-size="10.00">ydb::CustomMemberName</text>
</a>
</g>
</g>
<!-- Node2 -->
<g id="Node000002" class="node">
<title>Node2</title>
<g id="a_Node000002"><a xlink:title=" ">
<polygon fill="white" stroke="#666666" points="121,-96 27,-96 27,-77 121,-77 121,-96"/>
<text text-anchor="middle" x="74" y="-84" font-family="Helvetica,sans-Serif" font-size="10.00">std::string_view</text>
</a>
</g>
</g>
<!-- Node2&#45;&gt;Node1 -->
<g id="edge1_Node000001_Node000002" class="edge">
<title>Node2&#45;&gt;Node1</title>
<g id="a_edge1_Node000001_Node000002"><a xlink:title=" ">
<path fill="none" stroke="#9a32cd" stroke-dasharray="5,2" d="M74,-66.52C74,-51.24 74,-30.48 74,-19"/>
<polygon fill="#9a32cd" stroke="#9a32cd" points="70.5,-66.9 74,-76.9 77.5,-66.9 70.5,-66.9"/>
</a>
</g>
<text text-anchor="middle" x="101" y="-51" font-family="Helvetica,sans-Serif" font-size="10.00" fill="grey"> cpp_name</text>
<text text-anchor="middle" x="101" y="-40" font-family="Helvetica,sans-Serif" font-size="10.00" fill="grey">ydb_name</text>
</g>
<!-- Node3 -->
<g id="Node000003" class="node">
<title>Node3</title>
<g id="a_Node000003"><a xlink:title=" ">
<polygon fill="white" stroke="#666666" points="136.5,-163 11.5,-163 11.5,-133 136.5,-133 136.5,-163"/>
<text text-anchor="start" x="19.5" y="-151" font-family="Helvetica,sans-Serif" font-size="10.00">std::basic_string_view</text>
<text text-anchor="middle" x="74" y="-140" font-family="Helvetica,sans-Serif" font-size="10.00">&lt; Char &gt;</text>
</a>
</g>
</g>
<!-- Node3&#45;&gt;Node2 -->
<g id="edge2_Node000002_Node000003" class="edge">
<title>Node3&#45;&gt;Node2</title>
<g id="a_edge2_Node000002_Node000003"><a xlink:title=" ">
<path fill="none" stroke="#63b8ff" d="M74,-122.79C74,-113.36 74,-103.15 74,-96.16"/>
<polygon fill="#63b8ff" stroke="#63b8ff" points="70.5,-122.9 74,-132.9 77.5,-122.9 70.5,-122.9"/>
</a>
</g>
</g>
</g>
</svg>
