<?xml version="1.0" encoding="UTF-8" standalone="no"?>
<!DOCTYPE svg PUBLIC "-//W3C//DTD SVG 1.1//EN"
 "http://www.w3.org/Graphics/SVG/1.1/DTD/svg11.dtd">
<!-- Generated by graphviz version 2.43.0 (0)
 -->
<!-- Title: userver/storages/query.hpp Pages: 1 -->
<svg width="725pt" height="357pt"
 viewBox="0.00 0.00 725.00 357.00" xmlns="http://www.w3.org/2000/svg" xmlns:xlink="http://www.w3.org/1999/xlink">
<g id="graph0" class="graph" transform="scale(1 1) rotate(0) translate(4 353)">
<title>userver/storages/query.hpp</title>
<!-- Node1 -->
<g id="Node000001" class="node">
<title>Node1</title>
<g id="a_Node000001"><a xlink:title="Holds a query, its name and logging mode.">
<polygon fill="#999999" stroke="#666666" points="505,-349 356,-349 356,-330 505,-330 505,-349"/>
<text text-anchor="middle" x="430.5" y="-337" font-family="Helvetica,sans-Serif" font-size="10.00">userver/storages/query.hpp</text>
</a>
</g>
</g>
<!-- Node2 -->
<g id="Node000002" class="node">
<title>Node2</title>
<g id="a_Node000002"><a xlink:href="../../d3/d42/postgresql_2include_2userver_2storages_2postgres_2query_8hpp_source.html" target="_top" xlink:title=" ">
<polygon fill="white" stroke="#666666" points="426,-294 283,-294 283,-264 426,-264 426,-294"/>
<text text-anchor="start" x="291" y="-282" font-family="Helvetica,sans-Serif" font-size="10.00">userver/storages/postgres</text>
<text text-anchor="middle" x="354.5" y="-271" font-family="Helvetica,sans-Serif" font-size="10.00">/query.hpp</text>
</a>
</g>
</g>
<!-- Node1&#45;&gt;Node2 -->
<g id="edge1_Node000001_Node000002" class="edge">
<title>Node1&#45;&gt;Node2</title>
<g id="a_edge1_Node000001_Node000002"><a xlink:title=" ">
<path fill="none" stroke="#63b8ff" d="M411.36,-323.77C399.55,-314.68 384.49,-303.09 372.84,-294.11"/>
<polygon fill="#63b8ff" stroke="#63b8ff" points="409.23,-326.54 419.29,-329.87 413.5,-320.99 409.23,-326.54"/>
</a>
</g>
</g>
<!-- Node10 -->
<g id="Node000010" class="node">
<title>Node10</title>
<g id="a_Node000010"><a xlink:href="../../d8/dd6/ydb_2include_2userver_2ydb_2query_8hpp_source.html" target="_top" xlink:title=" ">
<polygon fill="white" stroke="#666666" points="614,-288.5 489,-288.5 489,-269.5 614,-269.5 614,-288.5"/>
<text text-anchor="middle" x="551.5" y="-276.5" font-family="Helvetica,sans-Serif" font-size="10.00">userver/ydb/query.hpp</text>
</a>
</g>
</g>
<!-- Node1&#45;&gt;Node10 -->
<g id="edge14_Node000001_Node000010" class="edge">
<title>Node1&#45;&gt;Node10</title>
<g id="a_edge14_Node000001_Node000010"><a xlink:title=" ">
<path fill="none" stroke="#63b8ff" d="M457.11,-325.63C480.45,-314.35 513.71,-298.27 533.88,-288.52"/>
<polygon fill="#63b8ff" stroke="#63b8ff" points="455.57,-322.49 448.09,-329.99 458.62,-328.79 455.57,-322.49"/>
</a>
</g>
</g>
<!-- Node3 -->
<g id="Node000003" class="node">
<title>Node3</title>
<g id="a_Node000003"><a xlink:href="../../de/dd3/postgresql_2include_2userver_2storages_2postgres_2cluster_8hpp.html" target="_top" xlink:title="Interface for executing queries on a cluster of PostgreSQL servers.">
<polygon fill="white" stroke="#666666" points="384,-96 241,-96 241,-66 384,-66 384,-96"/>
<text text-anchor="start" x="249" y="-84" font-family="Helvetica,sans-Serif" font-size="10.00">userver/storages/postgres</text>
<text text-anchor="middle" x="312.5" y="-73" font-family="Helvetica,sans-Serif" font-size="10.00">/cluster.hpp</text>
</a>
</g>
</g>
<!-- Node2&#45;&gt;Node3 -->
<g id="edge2_Node000002_Node000003" class="edge">
<title>Node2&#45;&gt;Node3</title>
<g id="a_edge2_Node000002_Node000003"><a xlink:title=" ">
<path fill="none" stroke="#63b8ff" d="M355.38,-253.89C355.53,-237.91 354.89,-216.55 351.5,-198 344.58,-160.17 327.95,-117.85 318.8,-96.29"/>
<polygon fill="#63b8ff" stroke="#63b8ff" points="351.88,-253.93 355.18,-263.99 358.88,-254.07 351.88,-253.93"/>
</a>
</g>
</g>
<!-- Node6 -->
<g id="Node000006" class="node">
<title>Node6</title>
<g id="a_Node000006"><a xlink:href="../../d4/dd3/non__transaction_8hpp_source.html" target="_top" xlink:title=" ">
<polygon fill="white" stroke="#666666" points="508,-162 359,-162 359,-132 508,-132 508,-162"/>
<text text-anchor="start" x="367" y="-150" font-family="Helvetica,sans-Serif" font-size="10.00">userver/storages/postgres</text>
<text text-anchor="middle" x="433.5" y="-139" font-family="Helvetica,sans-Serif" font-size="10.00">/detail/non_transaction.hpp</text>
</a>
</g>
</g>
<!-- Node2&#45;&gt;Node6 -->
<g id="edge5_Node000002_Node000006" class="edge">
<title>Node2&#45;&gt;Node6</title>
<g id="a_edge5_Node000002_Node000006"><a xlink:title=" ">
<path fill="none" stroke="#63b8ff" d="M368.87,-254.98C374.13,-246.51 380.11,-236.84 385.5,-228 399.5,-205.05 415.53,-178.22 425.06,-162.2"/>
<polygon fill="#63b8ff" stroke="#63b8ff" points="365.82,-253.25 363.51,-263.59 371.76,-256.95 365.82,-253.25"/>
</a>
</g>
</g>
<!-- Node7 -->
<g id="Node000007" class="node">
<title>Node7</title>
<g id="a_Node000007"><a xlink:href="../../d2/de3/portal_8hpp_source.html" target="_top" xlink:title=" ">
<polygon fill="white" stroke="#666666" points="143,-228 0,-228 0,-198 143,-198 143,-228"/>
<text text-anchor="start" x="8" y="-216" font-family="Helvetica,sans-Serif" font-size="10.00">userver/storages/postgres</text>
<text text-anchor="middle" x="71.5" y="-205" font-family="Helvetica,sans-Serif" font-size="10.00">/portal.hpp</text>
</a>
</g>
</g>
<!-- Node2&#45;&gt;Node7 -->
<g id="edge7_Node000002_Node000007" class="edge">
<title>Node2&#45;&gt;Node7</title>
<g id="a_edge7_Node000002_Node000007"><a xlink:title=" ">
<path fill="none" stroke="#63b8ff" d="M282.48,-261.71C236.46,-251.31 177.39,-237.95 133.46,-228.01"/>
<polygon fill="#63b8ff" stroke="#63b8ff" points="281.87,-265.16 292.39,-263.95 283.41,-258.34 281.87,-265.16"/>
</a>
</g>
</g>
<!-- Node8 -->
<g id="Node000008" class="node">
<title>Node8</title>
<g id="a_Node000008"><a xlink:href="../../da/deb/postgresql_2include_2userver_2storages_2postgres_2transaction_8hpp.html" target="_top" xlink:title="Transactions.">
<polygon fill="white" stroke="#666666" points="243,-162 100,-162 100,-132 243,-132 243,-162"/>
<text text-anchor="start" x="108" y="-150" font-family="Helvetica,sans-Serif" font-size="10.00">userver/storages/postgres</text>
<text text-anchor="middle" x="171.5" y="-139" font-family="Helvetica,sans-Serif" font-size="10.00">/transaction.hpp</text>
</a>
</g>
</g>
<!-- Node2&#45;&gt;Node8 -->
<g id="edge13_Node000002_Node000008" class="edge">
<title>Node2&#45;&gt;Node8</title>
<g id="a_edge13_Node000002_Node000008"><a xlink:title=" ">
<path fill="none" stroke="#63b8ff" d="M272.69,-270.05C243.13,-263.21 211.83,-250.71 190.5,-228 173.59,-210 170.86,-179.79 170.87,-162.1"/>
<polygon fill="#63b8ff" stroke="#63b8ff" points="272.12,-273.51 282.63,-272.16 273.57,-266.66 272.12,-273.51"/>
</a>
</g>
</g>
<!-- Node9 -->
<g id="Node000009" class="node">
<title>Node9</title>
<g id="a_Node000009"><a xlink:href="../../d8/d63/query__queue_8hpp.html" target="_top" xlink:title="An utility to execute multiple queries in a single network round&#45;trip.">
<polygon fill="white" stroke="#666666" points="343,-228 200,-228 200,-198 343,-198 343,-228"/>
<text text-anchor="start" x="208" y="-216" font-family="Helvetica,sans-Serif" font-size="10.00">userver/storages/postgres</text>
<text text-anchor="middle" x="271.5" y="-205" font-family="Helvetica,sans-Serif" font-size="10.00">/query_queue.hpp</text>
</a>
</g>
</g>
<!-- Node2&#45;&gt;Node9 -->
<g id="edge11_Node000002_Node000009" class="edge">
<title>Node2&#45;&gt;Node9</title>
<g id="a_edge11_Node000002_Node000009"><a xlink:title=" ">
<path fill="none" stroke="#63b8ff" d="M327.89,-257.48C315.48,-247.91 301.03,-236.77 289.87,-228.16"/>
<polygon fill="#63b8ff" stroke="#63b8ff" points="326.02,-260.46 336.08,-263.8 330.3,-254.92 326.02,-260.46"/>
</a>
</g>
</g>
<!-- Node4 -->
<g id="Node000004" class="node">
<title>Node4</title>
<g id="a_Node000004"><a xlink:href="../../dc/df7/base__postgres__cache_8hpp.html" target="_top" xlink:title="Caching component for PostgreSQL. See Caching Component for PostgreSQL.">
<polygon fill="white" stroke="#666666" points="380,-30 261,-30 261,0 380,0 380,-30"/>
<text text-anchor="start" x="269" y="-18" font-family="Helvetica,sans-Serif" font-size="10.00">userver/cache/base</text>
<text text-anchor="middle" x="320.5" y="-7" font-family="Helvetica,sans-Serif" font-size="10.00">_postgres_cache.hpp</text>
</a>
</g>
</g>
<!-- Node3&#45;&gt;Node4 -->
<g id="edge3_Node000003_Node000004" class="edge">
<title>Node3&#45;&gt;Node4</title>
<g id="a_edge3_Node000003_Node000004"><a xlink:title=" ">
<path fill="none" stroke="#63b8ff" d="M315.52,-55.83C316.6,-47.17 317.79,-37.7 318.73,-30.16"/>
<polygon fill="#63b8ff" stroke="#63b8ff" points="312.04,-55.44 314.28,-65.8 318.99,-56.31 312.04,-55.44"/>
</a>
</g>
</g>
<!-- Node5 -->
<g id="Node000005" class="node">
<title>Node5</title>
<g id="a_Node000005"><a xlink:href="../../df/d02/postgres_8hpp.html" target="_top" xlink:title=" ">
<polygon fill="white" stroke="#666666" points="243,-30 100,-30 100,0 243,0 243,-30"/>
<text text-anchor="start" x="108" y="-18" font-family="Helvetica,sans-Serif" font-size="10.00">userver/storages/postgres</text>
<text text-anchor="middle" x="171.5" y="-7" font-family="Helvetica,sans-Serif" font-size="10.00">/postgres.hpp</text>
</a>
</g>
</g>
<!-- Node3&#45;&gt;Node5 -->
<g id="edge4_Node000003_Node000005" class="edge">
<title>Node3&#45;&gt;Node5</title>
<g id="a_edge4_Node000003_Node000005"><a xlink:title=" ">
<path fill="none" stroke="#63b8ff" d="M272.37,-61.78C250.14,-51.69 222.93,-39.34 202.37,-30.01"/>
<polygon fill="#63b8ff" stroke="#63b8ff" points="271,-65.01 281.56,-65.95 273.9,-58.63 271,-65.01"/>
</a>
</g>
</g>
<!-- Node6&#45;&gt;Node3 -->
<g id="edge6_Node000006_Node000003" class="edge">
<title>Node6&#45;&gt;Node3</title>
<g id="a_edge6_Node000006_Node000003"><a xlink:title=" ">
<path fill="none" stroke="#63b8ff" d="M398.03,-127.24C379.15,-117.25 356.32,-105.18 338.99,-96.01"/>
<polygon fill="#63b8ff" stroke="#63b8ff" points="396.47,-130.37 406.95,-131.95 399.74,-124.19 396.47,-130.37"/>
</a>
</g>
</g>
<!-- Node7&#45;&gt;Node8 -->
<g id="edge8_Node000007_Node000008" class="edge">
<title>Node7&#45;&gt;Node8</title>
<g id="a_edge8_Node000007_Node000008"><a xlink:title=" ">
<path fill="none" stroke="#63b8ff" d="M102.28,-192.3C117.5,-182.56 135.53,-171.02 149.37,-162.16"/>
<polygon fill="#63b8ff" stroke="#63b8ff" points="100.23,-189.46 93.69,-197.8 104,-195.35 100.23,-189.46"/>
</a>
</g>
</g>
<!-- Node8&#45;&gt;Node3 -->
<g id="edge9_Node000008_Node000003" class="edge">
<title>Node8&#45;&gt;Node3</title>
<g id="a_edge9_Node000008_Node000003"><a xlink:title=" ">
<path fill="none" stroke="#63b8ff" d="M211.63,-127.78C233.86,-117.69 261.07,-105.34 281.63,-96.01"/>
<polygon fill="#63b8ff" stroke="#63b8ff" points="210.1,-124.63 202.44,-131.95 213,-131.01 210.1,-124.63"/>
</a>
</g>
</g>
<!-- Node8&#45;&gt;Node5 -->
<g id="edge10_Node000008_Node000005" class="edge">
<title>Node8&#45;&gt;Node5</title>
<g id="a_edge10_Node000008_Node000005"><a xlink:title=" ">
<path fill="none" stroke="#63b8ff" d="M171.5,-121.68C171.5,-94.7 171.5,-52.11 171.5,-30.14"/>
<polygon fill="#63b8ff" stroke="#63b8ff" points="168,-121.84 171.5,-131.84 175,-121.84 168,-121.84"/>
</a>
</g>
</g>
<!-- Node9&#45;&gt;Node3 -->
<g id="edge12_Node000009_Node000003" class="edge">
<title>Node9&#45;&gt;Node3</title>
<g id="a_edge12_Node000009_Node000003"><a xlink:title=" ">
<path fill="none" stroke="#63b8ff" d="M279.06,-188.04C287.56,-161.08 301.08,-118.21 308.04,-96.14"/>
<polygon fill="#63b8ff" stroke="#63b8ff" points="275.64,-187.25 275.97,-197.84 282.31,-189.36 275.64,-187.25"/>
</a>
</g>
</g>
<!-- Node11 -->
<g id="Node000011" class="node">
<title>Node11</title>
<g id="a_Node000011"><a xlink:href="../../d1/d9a/stats__scope_8hpp_source.html" target="_top" xlink:title=" ">
<polygon fill="white" stroke="#666666" points="689.5,-228 563.5,-228 563.5,-198 689.5,-198 689.5,-228"/>
<text text-anchor="start" x="571.5" y="-216" font-family="Helvetica,sans-Serif" font-size="10.00">userver/ydb/impl/stats</text>
<text text-anchor="middle" x="626.5" y="-205" font-family="Helvetica,sans-Serif" font-size="10.00">_scope.hpp</text>
</a>
</g>
</g>
<!-- Node10&#45;&gt;Node11 -->
<g id="edge15_Node000010_Node000011" class="edge">
<title>Node10&#45;&gt;Node11</title>
<g id="a_edge15_Node000010_Node000011"><a xlink:title=" ">
<path fill="none" stroke="#63b8ff" d="M569.41,-262.71C581.72,-252.21 597.95,-238.36 609.96,-228.12"/>
<polygon fill="#63b8ff" stroke="#63b8ff" points="566.95,-260.22 561.61,-269.37 571.49,-265.54 566.95,-260.22"/>
</a>
</g>
</g>
<!-- Node12 -->
<g id="Node000012" class="node">
<title>Node12</title>
<g id="a_Node000012"><a xlink:href="../../da/d14/ydb_2include_2userver_2ydb_2transaction_8hpp_source.html" target="_top" xlink:title=" ">
<polygon fill="white" stroke="#666666" points="717,-156.5 564,-156.5 564,-137.5 717,-137.5 717,-156.5"/>
<text text-anchor="middle" x="640.5" y="-144.5" font-family="Helvetica,sans-Serif" font-size="10.00">userver/ydb/transaction.hpp</text>
</a>
</g>
</g>
<!-- Node10&#45;&gt;Node12 -->
<g id="edge19_Node000010_Node000012" class="edge">
<title>Node10&#45;&gt;Node12</title>
<g id="a_edge19_Node000010_Node000012"><a xlink:title=" ">
<path fill="none" stroke="#63b8ff" d="M623.88,-271.21C651.89,-264.63 681.3,-252.02 698.5,-228 717.18,-201.92 677.62,-171.25 654.94,-156.62"/>
<polygon fill="#63b8ff" stroke="#63b8ff" points="623.11,-267.8 614.05,-273.29 624.56,-274.64 623.11,-267.8"/>
</a>
</g>
</g>
<!-- Node13 -->
<g id="Node000013" class="node">
<title>Node13</title>
<g id="a_Node000013"><a xlink:href="../../de/d2d/table_8hpp_source.html" target="_top" xlink:title=" ">
<polygon fill="white" stroke="#666666" points="649,-90.5 526,-90.5 526,-71.5 649,-71.5 649,-90.5"/>
<text text-anchor="middle" x="587.5" y="-78.5" font-family="Helvetica,sans-Serif" font-size="10.00">userver/ydb/table.hpp</text>
</a>
</g>
</g>
<!-- Node10&#45;&gt;Node13 -->
<g id="edge18_Node000010_Node000013" class="edge">
<title>Node10&#45;&gt;Node13</title>
<g id="a_edge18_Node000010_Node000013"><a xlink:title=" ">
<path fill="none" stroke="#63b8ff" d="M548.86,-259.07C545.6,-230.72 542.01,-175.88 555.5,-132 560.41,-116.04 571.92,-100.26 579.71,-90.82"/>
<polygon fill="#63b8ff" stroke="#63b8ff" points="545.41,-259.7 550.14,-269.18 552.35,-258.82 545.41,-259.7"/>
</a>
</g>
</g>
<!-- Node11&#45;&gt;Node12 -->
<g id="edge16_Node000011_Node000012" class="edge">
<title>Node11&#45;&gt;Node12</title>
<g id="a_edge16_Node000011_Node000012"><a xlink:title=" ">
<path fill="none" stroke="#63b8ff" d="M631.76,-187.94C634.14,-177.06 636.81,-164.86 638.57,-156.84"/>
<polygon fill="#63b8ff" stroke="#63b8ff" points="628.32,-187.28 629.61,-197.8 635.16,-188.78 628.32,-187.28"/>
</a>
</g>
</g>
<!-- Node12&#45;&gt;Node13 -->
<g id="edge17_Node000012_Node000013" class="edge">
<title>Node12&#45;&gt;Node13</title>
<g id="a_edge17_Node000012_Node000013"><a xlink:title=" ">
<path fill="none" stroke="#63b8ff" d="M626.94,-129.62C616.74,-117.31 603.15,-100.89 594.87,-90.91"/>
<polygon fill="#63b8ff" stroke="#63b8ff" points="624.28,-131.9 633.35,-137.37 629.67,-127.43 624.28,-131.9"/>
</a>
</g>
</g>
</g>
</svg>
