<?xml version="1.0" encoding="UTF-8" standalone="no"?>
<!DOCTYPE svg PUBLIC "-//W3C//DTD SVG 1.1//EN"
 "http://www.w3.org/Graphics/SVG/1.1/DTD/svg11.dtd">
<!-- Generated by graphviz version 2.43.0 (0)
 -->
<!-- Title: clients::http::ClientSettings Pages: 1 -->
<svg width="469pt" height="171pt"
 viewBox="0.00 0.00 469.00 171.00" xmlns="http://www.w3.org/2000/svg" xmlns:xlink="http://www.w3.org/1999/xlink">
<g id="graph0" class="graph" transform="scale(1 1) rotate(0) translate(4 167)">
<title>clients::http::ClientSettings</title>
<!-- Node1 -->
<g id="Node000001" class="node">
<title>Node1</title>
<g id="a_Node000001"><a xlink:title=" ">
<polygon fill="#999999" stroke="#666666" points="268.5,-19 119.5,-19 119.5,0 268.5,0 268.5,-19"/>
<text text-anchor="middle" x="194" y="-7" font-family="Helvetica,sans-Serif" font-size="10.00">clients::http::ClientSettings</text>
</a>
</g>
</g>
<!-- Node2 -->
<g id="Node000002" class="node">
<title>Node2</title>
<g id="a_Node000002"><a xlink:title=" ">
<polygon fill="white" stroke="#666666" points="84.5,-90.5 19.5,-90.5 19.5,-71.5 84.5,-71.5 84.5,-90.5"/>
<text text-anchor="middle" x="52" y="-78.5" font-family="Helvetica,sans-Serif" font-size="10.00">std::string</text>
</a>
</g>
</g>
<!-- Node2&#45;&gt;Node1 -->
<g id="edge1_Node000001_Node000002" class="edge">
<title>Node2&#45;&gt;Node1</title>
<g id="a_edge1_Node000001_Node000002"><a xlink:title=" ">
<path fill="none" stroke="#9a32cd" stroke-dasharray="5,2" d="M62.77,-63.04C69.32,-54.04 78.45,-43.53 89,-37 102.43,-28.7 118.36,-22.99 133.69,-19.07"/>
<polygon fill="#9a32cd" stroke="#9a32cd" points="59.86,-61.1 57.12,-71.33 65.64,-65.04 59.86,-61.1"/>
</a>
</g>
<text text-anchor="middle" x="139.5" y="-40" font-family="Helvetica,sans-Serif" font-size="10.00" fill="grey"> thread_name_prefix</text>
</g>
<!-- Node3 -->
<g id="Node000003" class="node">
<title>Node3</title>
<g id="a_Node000003"><a xlink:title=" ">
<polygon fill="white" stroke="#666666" points="104,-163 0,-163 0,-133 104,-133 104,-163"/>
<text text-anchor="start" x="8" y="-151" font-family="Helvetica,sans-Serif" font-size="10.00">std::basic_string&lt;</text>
<text text-anchor="middle" x="52" y="-140" font-family="Helvetica,sans-Serif" font-size="10.00"> Char &gt;</text>
</a>
</g>
</g>
<!-- Node3&#45;&gt;Node2 -->
<g id="edge2_Node000002_Node000003" class="edge">
<title>Node3&#45;&gt;Node2</title>
<g id="a_edge2_Node000002_Node000003"><a xlink:title=" ">
<path fill="none" stroke="#63b8ff" d="M52,-122.75C52,-111.52 52,-98.88 52,-90.69"/>
<polygon fill="#63b8ff" stroke="#63b8ff" points="48.5,-122.9 52,-132.9 55.5,-122.9 48.5,-122.9"/>
</a>
</g>
</g>
<!-- Node4 -->
<g id="Node000004" class="node">
<title>Node4</title>
<g id="a_Node000004"><a xlink:href="../../dc/d68/structclients_1_1http_1_1DeadlinePropagationConfig.html" target="_top" xlink:title=" ">
<polygon fill="white" stroke="#bfbfbf" points="285,-96 103,-96 103,-66 285,-66 285,-96"/>
<text text-anchor="start" x="111" y="-84" font-family="Helvetica,sans-Serif" font-size="10.00">clients::http::DeadlinePropagation</text>
<text text-anchor="middle" x="194" y="-73" font-family="Helvetica,sans-Serif" font-size="10.00">Config</text>
</a>
</g>
</g>
<!-- Node4&#45;&gt;Node1 -->
<g id="edge3_Node000001_Node000004" class="edge">
<title>Node4&#45;&gt;Node1</title>
<g id="a_edge3_Node000001_Node000004"><a xlink:title=" ">
<path fill="none" stroke="#9a32cd" stroke-dasharray="5,2" d="M194,-55.56C194,-42.95 194,-28.35 194,-19.27"/>
<polygon fill="#9a32cd" stroke="#9a32cd" points="190.5,-55.94 194,-65.94 197.5,-55.94 190.5,-55.94"/>
</a>
</g>
<text text-anchor="middle" x="248.5" y="-40" font-family="Helvetica,sans-Serif" font-size="10.00" fill="grey"> deadline_propagation</text>
</g>
<!-- Node5 -->
<g id="Node000005" class="node">
<title>Node5</title>
<g id="a_Node000005"><a xlink:href="../../db/d3d/classtracing_1_1TracingManagerBase.html" target="_top" xlink:title="Base class for propagating trace context information in headers.">
<polygon fill="white" stroke="#666666" points="461,-90.5 303,-90.5 303,-71.5 461,-71.5 461,-90.5"/>
<text text-anchor="middle" x="382" y="-78.5" font-family="Helvetica,sans-Serif" font-size="10.00">tracing::TracingManagerBase</text>
</a>
</g>
</g>
<!-- Node5&#45;&gt;Node1 -->
<g id="edge4_Node000001_Node000005" class="edge">
<title>Node5&#45;&gt;Node1</title>
<g id="a_edge4_Node000001_Node000005"><a xlink:title=" ">
<path fill="none" stroke="#9a32cd" stroke-dasharray="5,2" d="M360.85,-65.65C346.26,-56.32 326.13,-44.54 307,-37 287.03,-29.13 264.12,-23.22 244.17,-19.01"/>
<polygon fill="#9a32cd" stroke="#9a32cd" points="359.28,-68.81 369.56,-71.35 363.11,-62.95 359.28,-68.81"/>
</a>
</g>
<text text-anchor="middle" x="373" y="-40" font-family="Helvetica,sans-Serif" font-size="10.00" fill="grey"> tracing_manager</text>
</g>
</g>
</svg>
