<?xml version="1.0" encoding="UTF-8" standalone="no"?>
<!DOCTYPE svg PUBLIC "-//W3C//DTD SVG 1.1//EN"
 "http://www.w3.org/Graphics/SVG/1.1/DTD/svg11.dtd">
<!-- Generated by graphviz version 2.43.0 (0)
 -->
<!-- Title: userver/utils/statistics/fmt.hpp Pages: 1 -->
<svg width="804pt" height="225pt"
 viewBox="0.00 0.00 803.50 225.00" xmlns="http://www.w3.org/2000/svg" xmlns:xlink="http://www.w3.org/1999/xlink">
<g id="graph0" class="graph" transform="scale(1 1) rotate(0) translate(4 221)">
<title>userver/utils/statistics/fmt.hpp</title>
<!-- Node1 -->
<g id="Node000001" class="node">
<title>Node1</title>
<g id="a_Node000001"><a xlink:title="fmt formatters for various statistics types">
<polygon fill="#999999" stroke="#666666" points="480.5,-217 355.5,-217 355.5,-187 480.5,-187 480.5,-217"/>
<text text-anchor="start" x="363.5" y="-205" font-family="Helvetica,sans-Serif" font-size="10.00">userver/utils/statistics</text>
<text text-anchor="middle" x="418" y="-194" font-family="Helvetica,sans-Serif" font-size="10.00">/fmt.hpp</text>
</a>
</g>
</g>
<!-- Node2 -->
<g id="Node000002" class="node">
<title>Node2</title>
<g id="a_Node000002"><a xlink:title=" ">
<polygon fill="#e0e0e0" stroke="#999999" points="106.5,-79.5 55.5,-79.5 55.5,-60.5 106.5,-60.5 106.5,-79.5"/>
<text text-anchor="middle" x="81" y="-67.5" font-family="Helvetica,sans-Serif" font-size="10.00">variant</text>
</a>
</g>
</g>
<!-- Node1&#45;&gt;Node2 -->
<g id="edge1_Node000001_Node000002" class="edge">
<title>Node1&#45;&gt;Node2</title>
<g id="a_edge1_Node000001_Node000002"><a xlink:title=" ">
<path fill="none" stroke="#63b8ff" d="M355.35,-193.83C311.12,-187.03 251.35,-174.26 203,-151 183.61,-141.67 182.73,-133.2 165,-121 145.65,-107.69 122.68,-94.16 105.65,-84.54"/>
<polygon fill="#63b8ff" stroke="#63b8ff" points="107.3,-81.45 96.86,-79.62 103.88,-87.56 107.3,-81.45"/>
</a>
</g>
</g>
<!-- Node3 -->
<g id="Node000003" class="node">
<title>Node3</title>
<g id="a_Node000003"><a xlink:title=" ">
<polygon fill="#e0e0e0" stroke="#999999" points="616.5,-145.5 537.5,-145.5 537.5,-126.5 616.5,-126.5 616.5,-145.5"/>
<text text-anchor="middle" x="577" y="-133.5" font-family="Helvetica,sans-Serif" font-size="10.00">fmt/format.h</text>
</a>
</g>
</g>
<!-- Node1&#45;&gt;Node3 -->
<g id="edge2_Node000001_Node000003" class="edge">
<title>Node1&#45;&gt;Node3</title>
<g id="a_edge2_Node000001_Node000003"><a xlink:title=" ">
<path fill="none" stroke="#63b8ff" d="M452.89,-186.95C480.78,-175.73 519.49,-160.15 546.23,-149.39"/>
<polygon fill="#63b8ff" stroke="#63b8ff" points="547.87,-152.5 555.84,-145.52 545.26,-146 547.87,-152.5"/>
</a>
</g>
</g>
<!-- Node4 -->
<g id="Node000004" class="node">
<title>Node4</title>
<g id="a_Node000004"><a xlink:href="../../d3/d6c/fmt__compat_8hpp_source.html" target="_top" xlink:title=" ">
<polygon fill="white" stroke="#666666" points="795.5,-145.5 634.5,-145.5 634.5,-126.5 795.5,-126.5 795.5,-145.5"/>
<text text-anchor="middle" x="715" y="-133.5" font-family="Helvetica,sans-Serif" font-size="10.00">userver/utils/fmt_compat.hpp</text>
</a>
</g>
</g>
<!-- Node1&#45;&gt;Node4 -->
<g id="edge3_Node000001_Node000004" class="edge">
<title>Node1&#45;&gt;Node4</title>
<g id="a_edge3_Node000001_Node000004"><a xlink:title=" ">
<path fill="none" stroke="#63b8ff" d="M480.62,-187.51C535.55,-175.67 614.37,-158.68 665.13,-147.75"/>
<polygon fill="#63b8ff" stroke="#63b8ff" points="666.16,-151.1 675.2,-145.58 664.69,-144.26 666.16,-151.1"/>
</a>
</g>
</g>
<!-- Node6 -->
<g id="Node000006" class="node">
<title>Node6</title>
<g id="a_Node000006"><a xlink:href="../../da/df1/overloaded_8hpp.html" target="_top" xlink:title="Utility to define std::variant visitors in a simple way.">
<polygon fill="white" stroke="#666666" points="156,-145.5 0,-145.5 0,-126.5 156,-126.5 156,-145.5"/>
<text text-anchor="middle" x="78" y="-133.5" font-family="Helvetica,sans-Serif" font-size="10.00">userver/utils/overloaded.hpp</text>
</a>
</g>
</g>
<!-- Node1&#45;&gt;Node6 -->
<g id="edge5_Node000001_Node000006" class="edge">
<title>Node1&#45;&gt;Node6</title>
<g id="a_edge5_Node000001_Node000006"><a xlink:title=" ">
<path fill="none" stroke="#63b8ff" d="M355.24,-189.19C291.67,-177.22 194.27,-158.89 133.45,-147.44"/>
<polygon fill="#63b8ff" stroke="#63b8ff" points="133.75,-143.93 123.28,-145.52 132.46,-150.81 133.75,-143.93"/>
</a>
</g>
</g>
<!-- Node7 -->
<g id="Node000007" class="node">
<title>Node7</title>
<g id="a_Node000007"><a xlink:href="../../d1/d0e/labels_8hpp.html" target="_top" xlink:title="Owning and non owning labels representations.">
<polygon fill="white" stroke="#666666" points="337.5,-151 212.5,-151 212.5,-121 337.5,-121 337.5,-151"/>
<text text-anchor="start" x="220.5" y="-139" font-family="Helvetica,sans-Serif" font-size="10.00">userver/utils/statistics</text>
<text text-anchor="middle" x="275" y="-128" font-family="Helvetica,sans-Serif" font-size="10.00">/labels.hpp</text>
</a>
</g>
</g>
<!-- Node1&#45;&gt;Node7 -->
<g id="edge7_Node000001_Node000007" class="edge">
<title>Node1&#45;&gt;Node7</title>
<g id="a_edge7_Node000001_Node000007"><a xlink:title=" ">
<path fill="none" stroke="#63b8ff" d="M386.62,-186.95C365.76,-177.62 338.16,-165.27 315.62,-155.18"/>
<polygon fill="#63b8ff" stroke="#63b8ff" points="316.87,-151.9 306.31,-151.01 314.01,-158.29 316.87,-151.9"/>
</a>
</g>
</g>
<!-- Node11 -->
<g id="Node000011" class="node">
<title>Node11</title>
<g id="a_Node000011"><a xlink:href="../../da/d8a/metric__value_8hpp.html" target="_top" xlink:title="The value of a metric.">
<polygon fill="white" stroke="#666666" points="480.5,-151 355.5,-151 355.5,-121 480.5,-121 480.5,-151"/>
<text text-anchor="start" x="363.5" y="-139" font-family="Helvetica,sans-Serif" font-size="10.00">userver/utils/statistics</text>
<text text-anchor="middle" x="418" y="-128" font-family="Helvetica,sans-Serif" font-size="10.00">/metric_value.hpp</text>
</a>
</g>
</g>
<!-- Node1&#45;&gt;Node11 -->
<g id="edge11_Node000001_Node000011" class="edge">
<title>Node1&#45;&gt;Node11</title>
<g id="a_edge11_Node000001_Node000011"><a xlink:title=" ">
<path fill="none" stroke="#63b8ff" d="M418,-186.8C418,-179.34 418,-169.99 418,-161.41"/>
<polygon fill="#63b8ff" stroke="#63b8ff" points="421.5,-161.16 418,-151.16 414.5,-161.16 421.5,-161.16"/>
</a>
</g>
</g>
<!-- Node15 -->
<g id="Node000015" class="node">
<title>Node15</title>
<g id="a_Node000015"><a xlink:href="../../d6/dab/rate_8hpp.html" target="_top" xlink:title=" ">
<polygon fill="white" stroke="#666666" points="662.5,-85 537.5,-85 537.5,-55 662.5,-55 662.5,-85"/>
<text text-anchor="start" x="545.5" y="-73" font-family="Helvetica,sans-Serif" font-size="10.00">userver/utils/statistics</text>
<text text-anchor="middle" x="600" y="-62" font-family="Helvetica,sans-Serif" font-size="10.00">/rate.hpp</text>
</a>
</g>
</g>
<!-- Node1&#45;&gt;Node15 -->
<g id="edge21_Node000001_Node000015" class="edge">
<title>Node1&#45;&gt;Node15</title>
<g id="a_edge21_Node000001_Node000015"><a xlink:title=" ">
<path fill="none" stroke="#63b8ff" d="M438.31,-186.94C452.57,-177 472.05,-163.32 489,-151 506.98,-137.93 511.02,-134.07 529,-121 542.77,-110.99 558.21,-100.08 571.17,-91.01"/>
<polygon fill="#63b8ff" stroke="#63b8ff" points="573.49,-93.66 579.69,-85.06 569.48,-87.92 573.49,-93.66"/>
</a>
</g>
</g>
<!-- Node5 -->
<g id="Node000005" class="node">
<title>Node5</title>
<g id="a_Node000005"><a xlink:title=" ">
<polygon fill="#e0e0e0" stroke="#999999" points="748.5,-79.5 681.5,-79.5 681.5,-60.5 748.5,-60.5 748.5,-79.5"/>
<text text-anchor="middle" x="715" y="-67.5" font-family="Helvetica,sans-Serif" font-size="10.00">fmt/core.h</text>
</a>
</g>
</g>
<!-- Node4&#45;&gt;Node5 -->
<g id="edge4_Node000004_Node000005" class="edge">
<title>Node4&#45;&gt;Node5</title>
<g id="a_edge4_Node000004_Node000005"><a xlink:title=" ">
<path fill="none" stroke="#63b8ff" d="M715,-126.37C715,-117.16 715,-102.29 715,-90.27"/>
<polygon fill="#63b8ff" stroke="#63b8ff" points="718.5,-89.91 715,-79.91 711.5,-89.91 718.5,-89.91"/>
</a>
</g>
</g>
<!-- Node6&#45;&gt;Node2 -->
<g id="edge6_Node000006_Node000002" class="edge">
<title>Node6&#45;&gt;Node2</title>
<g id="a_edge6_Node000006_Node000002"><a xlink:title=" ">
<path fill="none" stroke="#63b8ff" d="M78.4,-126.37C78.84,-117.07 79.55,-101.98 80.11,-89.9"/>
<polygon fill="#63b8ff" stroke="#63b8ff" points="83.61,-90.06 80.58,-79.91 76.62,-89.73 83.61,-90.06"/>
</a>
</g>
</g>
<!-- Node8 -->
<g id="Node000008" class="node">
<title>Node8</title>
<g id="a_Node000008"><a xlink:title=" ">
<polygon fill="#e0e0e0" stroke="#999999" points="169,-79.5 125,-79.5 125,-60.5 169,-60.5 169,-79.5"/>
<text text-anchor="middle" x="147" y="-67.5" font-family="Helvetica,sans-Serif" font-size="10.00">string</text>
</a>
</g>
</g>
<!-- Node7&#45;&gt;Node8 -->
<g id="edge8_Node000007_Node000008" class="edge">
<title>Node7&#45;&gt;Node8</title>
<g id="a_edge8_Node000007_Node000008"><a xlink:title=" ">
<path fill="none" stroke="#63b8ff" d="M246.91,-120.95C224.96,-109.98 194.67,-94.83 173.21,-84.11"/>
<polygon fill="#63b8ff" stroke="#63b8ff" points="174.54,-80.86 164.03,-79.52 171.41,-87.12 174.54,-80.86"/>
</a>
</g>
</g>
<!-- Node9 -->
<g id="Node000009" class="node">
<title>Node9</title>
<g id="a_Node000009"><a xlink:title=" ">
<polygon fill="#e0e0e0" stroke="#999999" points="260.5,-79.5 187.5,-79.5 187.5,-60.5 260.5,-60.5 260.5,-79.5"/>
<text text-anchor="middle" x="224" y="-67.5" font-family="Helvetica,sans-Serif" font-size="10.00">string_view</text>
</a>
</g>
</g>
<!-- Node7&#45;&gt;Node9 -->
<g id="edge9_Node000007_Node000009" class="edge">
<title>Node7&#45;&gt;Node9</title>
<g id="a_edge9_Node000007_Node000009"><a xlink:title=" ">
<path fill="none" stroke="#63b8ff" d="M263.68,-120.8C255.89,-111.01 245.5,-97.98 237.31,-87.7"/>
<polygon fill="#63b8ff" stroke="#63b8ff" points="240.02,-85.48 231.05,-79.84 234.54,-89.85 240.02,-85.48"/>
</a>
</g>
</g>
<!-- Node10 -->
<g id="Node000010" class="node">
<title>Node10</title>
<g id="a_Node000010"><a xlink:title=" ">
<polygon fill="#e0e0e0" stroke="#999999" points="361.5,-19 292.5,-19 292.5,0 361.5,0 361.5,-19"/>
<text text-anchor="middle" x="327" y="-7" font-family="Helvetica,sans-Serif" font-size="10.00">type_traits</text>
</a>
</g>
</g>
<!-- Node7&#45;&gt;Node10 -->
<g id="edge10_Node000007_Node000010" class="edge">
<title>Node7&#45;&gt;Node10</title>
<g id="a_edge10_Node000007_Node000010"><a xlink:title=" ">
<path fill="none" stroke="#63b8ff" d="M280.97,-120.72C290.49,-97.92 309.11,-53.33 319.52,-28.42"/>
<polygon fill="#63b8ff" stroke="#63b8ff" points="322.8,-29.65 323.42,-19.07 316.34,-26.95 322.8,-29.65"/>
</a>
</g>
</g>
<!-- Node11&#45;&gt;Node2 -->
<g id="edge14_Node000011_Node000002" class="edge">
<title>Node11&#45;&gt;Node2</title>
<g id="a_edge14_Node000011_Node000002"><a xlink:title=" ">
<path fill="none" stroke="#63b8ff" d="M355.2,-122.65C352.09,-122.08 349.01,-121.53 346,-121 244.09,-103.12 215.78,-112.39 116,-85 114.06,-84.47 112.08,-83.86 110.1,-83.21"/>
<polygon fill="#63b8ff" stroke="#63b8ff" points="110.95,-79.79 100.36,-79.64 108.54,-86.36 110.95,-79.79"/>
</a>
</g>
</g>
<!-- Node11&#45;&gt;Node10 -->
<g id="edge13_Node000011_Node000010" class="edge">
<title>Node11&#45;&gt;Node10</title>
<g id="a_edge13_Node000011_Node000010"><a xlink:title=" ">
<path fill="none" stroke="#63b8ff" d="M388.53,-120.99C373.71,-112.52 356.67,-100.38 346,-85 334.49,-68.41 329.94,-45.41 328.16,-29.37"/>
<polygon fill="#63b8ff" stroke="#63b8ff" points="331.62,-28.78 327.28,-19.11 324.64,-29.37 331.62,-28.78"/>
</a>
</g>
</g>
<!-- Node12 -->
<g id="Node000012" class="node">
<title>Node12</title>
<g id="a_Node000012"><a xlink:title=" ">
<polygon fill="#e0e0e0" stroke="#999999" points="534,-19 484,-19 484,0 534,0 534,-19"/>
<text text-anchor="middle" x="509" y="-7" font-family="Helvetica,sans-Serif" font-size="10.00">cstdint</text>
</a>
</g>
</g>
<!-- Node11&#45;&gt;Node12 -->
<g id="edge12_Node000011_Node000012" class="edge">
<title>Node11&#45;&gt;Node12</title>
<g id="a_edge12_Node000011_Node000012"><a xlink:title=" ">
<path fill="none" stroke="#63b8ff" d="M446.98,-120.85C461.58,-112.34 478.38,-100.2 489,-85 500.6,-68.39 505.48,-45.4 507.52,-29.36"/>
<polygon fill="#63b8ff" stroke="#63b8ff" points="511.04,-29.41 508.57,-19.11 504.07,-28.7 511.04,-29.41"/>
</a>
</g>
</g>
<!-- Node13 -->
<g id="Node000013" class="node">
<title>Node13</title>
<g id="a_Node000013"><a xlink:href="../../d5/de6/histogram__view_8hpp.html" target="_top" xlink:title="The non&#45;owning reader API for &quot;histogram&quot; metrics.">
<polygon fill="white" stroke="#666666" points="480.5,-85 355.5,-85 355.5,-55 480.5,-55 480.5,-85"/>
<text text-anchor="start" x="363.5" y="-73" font-family="Helvetica,sans-Serif" font-size="10.00">userver/utils/statistics</text>
<text text-anchor="middle" x="418" y="-62" font-family="Helvetica,sans-Serif" font-size="10.00">/histogram_view.hpp</text>
</a>
</g>
</g>
<!-- Node11&#45;&gt;Node13 -->
<g id="edge15_Node000011_Node000013" class="edge">
<title>Node11&#45;&gt;Node13</title>
<g id="a_edge15_Node000011_Node000013"><a xlink:title=" ">
<path fill="none" stroke="#63b8ff" d="M418,-120.8C418,-113.34 418,-103.99 418,-95.41"/>
<polygon fill="#63b8ff" stroke="#63b8ff" points="421.5,-95.16 418,-85.16 414.5,-95.16 421.5,-95.16"/>
</a>
</g>
</g>
<!-- Node11&#45;&gt;Node15 -->
<g id="edge19_Node000011_Node000015" class="edge">
<title>Node11&#45;&gt;Node15</title>
<g id="a_edge19_Node000011_Node000015"><a xlink:title=" ">
<path fill="none" stroke="#63b8ff" d="M457.94,-120.95C485.2,-111.37 521.51,-98.6 550.59,-88.37"/>
<polygon fill="#63b8ff" stroke="#63b8ff" points="551.88,-91.63 560.15,-85.01 549.56,-85.03 551.88,-91.63"/>
</a>
</g>
</g>
<!-- Node13&#45;&gt;Node10 -->
<g id="edge18_Node000013_Node000010" class="edge">
<title>Node13&#45;&gt;Node10</title>
<g id="a_edge18_Node000013_Node000010"><a xlink:title=" ">
<path fill="none" stroke="#63b8ff" d="M395.97,-54.84C381.73,-45.68 363.27,-33.82 349.03,-24.66"/>
<polygon fill="#63b8ff" stroke="#63b8ff" points="350.67,-21.56 340.37,-19.09 346.89,-27.45 350.67,-21.56"/>
</a>
</g>
</g>
<!-- Node13&#45;&gt;Node12 -->
<g id="edge17_Node000013_Node000012" class="edge">
<title>Node13&#45;&gt;Node12</title>
<g id="a_edge17_Node000013_Node000012"><a xlink:title=" ">
<path fill="none" stroke="#63b8ff" d="M440.03,-54.84C454.27,-45.68 472.73,-33.82 486.97,-24.66"/>
<polygon fill="#63b8ff" stroke="#63b8ff" points="489.11,-27.45 495.63,-19.09 485.33,-21.56 489.11,-27.45"/>
</a>
</g>
</g>
<!-- Node14 -->
<g id="Node000014" class="node">
<title>Node14</title>
<g id="a_Node000014"><a xlink:title=" ">
<polygon fill="#e0e0e0" stroke="#999999" points="444.5,-19 391.5,-19 391.5,0 444.5,0 444.5,-19"/>
<text text-anchor="middle" x="418" y="-7" font-family="Helvetica,sans-Serif" font-size="10.00">cstddef</text>
</a>
</g>
</g>
<!-- Node13&#45;&gt;Node14 -->
<g id="edge16_Node000013_Node000014" class="edge">
<title>Node13&#45;&gt;Node14</title>
<g id="a_edge16_Node000013_Node000014"><a xlink:title=" ">
<path fill="none" stroke="#63b8ff" d="M418,-54.84C418,-47.21 418,-37.7 418,-29.45"/>
<polygon fill="#63b8ff" stroke="#63b8ff" points="421.5,-29.27 418,-19.27 414.5,-29.27 421.5,-29.27"/>
</a>
</g>
</g>
<!-- Node15&#45;&gt;Node12 -->
<g id="edge20_Node000015_Node000012" class="edge">
<title>Node15&#45;&gt;Node12</title>
<g id="a_edge20_Node000015_Node000012"><a xlink:title=" ">
<path fill="none" stroke="#63b8ff" d="M577.97,-54.84C563.73,-45.68 545.27,-33.82 531.03,-24.66"/>
<polygon fill="#63b8ff" stroke="#63b8ff" points="532.67,-21.56 522.37,-19.09 528.89,-27.45 532.67,-21.56"/>
</a>
</g>
</g>
</g>
</svg>
