<?xml version="1.0" encoding="UTF-8" standalone="no"?>
<!DOCTYPE svg PUBLIC "-//W3C//DTD SVG 1.1//EN"
 "http://www.w3.org/Graphics/SVG/1.1/DTD/svg11.dtd">
<!-- Generated by graphviz version 2.43.0 (0)
 -->
<!-- Title: ydb::StructMemberNames&lt; N &gt; Pages: 1 -->
<svg width="182pt" height="237pt"
 viewBox="0.00 0.00 182.00 237.00" xmlns="http://www.w3.org/2000/svg" xmlns:xlink="http://www.w3.org/1999/xlink">
<g id="graph0" class="graph" transform="scale(1 1) rotate(0) translate(4 233)">
<title>ydb::StructMemberNames&lt; N &gt;</title>
<!-- Node1 -->
<g id="Node000001" class="node">
<title>Node1</title>
<g id="a_Node000001"><a xlink:title="Specifies C++ to YDB struct member names mapping. It&#39;s enough to only specify the names that are diff...">
<polygon fill="#999999" stroke="#666666" points="174,-19 0,-19 0,0 174,0 174,-19"/>
<text text-anchor="middle" x="87" y="-7" font-family="Helvetica,sans-Serif" font-size="10.00">ydb::StructMemberNames&lt; N &gt;</text>
</a>
</g>
</g>
<!-- Node2 -->
<g id="Node000002" class="node">
<title>Node2</title>
<g id="a_Node000002"><a xlink:href="../../db/ddf/structydb_1_1CustomMemberName.html" target="_top" xlink:title=" ">
<polygon fill="white" stroke="#666666" points="161,-85 13,-85 13,-66 161,-66 161,-85"/>
<text text-anchor="middle" x="87" y="-73" font-family="Helvetica,sans-Serif" font-size="10.00">ydb::CustomMemberName</text>
</a>
</g>
</g>
<!-- Node2&#45;&gt;Node1 -->
<g id="edge1_Node000001_Node000002" class="edge">
<title>Node2&#45;&gt;Node1</title>
<g id="a_edge1_Node000001_Node000002"><a xlink:title=" ">
<path fill="none" stroke="#9a32cd" stroke-dasharray="5,2" d="M87,-55.58C87,-43.63 87,-28.72 87,-19.41"/>
<polygon fill="#9a32cd" stroke="#9a32cd" points="83.5,-55.87 87,-65.87 90.5,-55.87 83.5,-55.87"/>
</a>
</g>
<text text-anchor="middle" x="126" y="-40" font-family="Helvetica,sans-Serif" font-size="10.00" fill="grey"> custom_names</text>
</g>
<!-- Node3 -->
<g id="Node000003" class="node">
<title>Node3</title>
<g id="a_Node000003"><a xlink:title=" ">
<polygon fill="white" stroke="#666666" points="134,-162 40,-162 40,-143 134,-143 134,-162"/>
<text text-anchor="middle" x="87" y="-150" font-family="Helvetica,sans-Serif" font-size="10.00">std::string_view</text>
</a>
</g>
</g>
<!-- Node3&#45;&gt;Node2 -->
<g id="edge2_Node000002_Node000003" class="edge">
<title>Node3&#45;&gt;Node2</title>
<g id="a_edge2_Node000002_Node000003"><a xlink:title=" ">
<path fill="none" stroke="#9a32cd" stroke-dasharray="5,2" d="M87,-132.52C87,-117.24 87,-96.48 87,-85"/>
<polygon fill="#9a32cd" stroke="#9a32cd" points="83.5,-132.9 87,-142.9 90.5,-132.9 83.5,-132.9"/>
</a>
</g>
<text text-anchor="middle" x="114" y="-117" font-family="Helvetica,sans-Serif" font-size="10.00" fill="grey"> cpp_name</text>
<text text-anchor="middle" x="114" y="-106" font-family="Helvetica,sans-Serif" font-size="10.00" fill="grey">ydb_name</text>
</g>
<!-- Node4 -->
<g id="Node000004" class="node">
<title>Node4</title>
<g id="a_Node000004"><a xlink:title=" ">
<polygon fill="white" stroke="#666666" points="149.5,-229 24.5,-229 24.5,-199 149.5,-199 149.5,-229"/>
<text text-anchor="start" x="32.5" y="-217" font-family="Helvetica,sans-Serif" font-size="10.00">std::basic_string_view</text>
<text text-anchor="middle" x="87" y="-206" font-family="Helvetica,sans-Serif" font-size="10.00">&lt; Char &gt;</text>
</a>
</g>
</g>
<!-- Node4&#45;&gt;Node3 -->
<g id="edge3_Node000003_Node000004" class="edge">
<title>Node4&#45;&gt;Node3</title>
<g id="a_edge3_Node000003_Node000004"><a xlink:title=" ">
<path fill="none" stroke="#63b8ff" d="M87,-188.79C87,-179.36 87,-169.15 87,-162.16"/>
<polygon fill="#63b8ff" stroke="#63b8ff" points="83.5,-188.9 87,-198.9 90.5,-188.9 83.5,-188.9"/>
</a>
</g>
</g>
</g>
</svg>
