<?xml version="1.0" encoding="UTF-8" standalone="no"?>
<!DOCTYPE svg PUBLIC "-//W3C//DTD SVG 1.1//EN"
 "http://www.w3.org/Graphics/SVG/1.1/DTD/svg11.dtd">
<!-- Generated by graphviz version 2.43.0 (0)
 -->
<!-- Title: userver/storages/redis/command_control.hpp Pages: 1 -->
<svg width="1347pt" height="511pt"
 viewBox="0.00 0.00 1347.19 511.00" xmlns="http://www.w3.org/2000/svg" xmlns:xlink="http://www.w3.org/1999/xlink">
<g id="graph0" class="graph" transform="scale(1 1) rotate(0) translate(4 507)">
<title>userver/storages/redis/command_control.hpp</title>
<!-- Node1 -->
<g id="Node000001" class="node">
<title>Node1</title>
<g id="a_Node000001"><a xlink:title="Redis command execution options.">
<polygon fill="#999999" stroke="#666666" points="358,-503 230,-503 230,-473 358,-473 358,-503"/>
<text text-anchor="start" x="238" y="-491" font-family="Helvetica,sans-Serif" font-size="10.00">userver/storages/redis</text>
<text text-anchor="middle" x="294" y="-480" font-family="Helvetica,sans-Serif" font-size="10.00">/command_control.hpp</text>
</a>
</g>
</g>
<!-- Node2 -->
<g id="Node000002" class="node">
<title>Node2</title>
<g id="a_Node000002"><a xlink:href="../../df/d70/redis_2include_2userver_2storages_2redis_2hedged__request_8hpp.html" target="_top" xlink:title="Classes and functions for performing hedged requests.">
<polygon fill="white" stroke="#666666" points="296.5,-30 171.5,-30 171.5,0 296.5,0 296.5,-30"/>
<text text-anchor="start" x="179.5" y="-18" font-family="Helvetica,sans-Serif" font-size="10.00">userver/storages/redis</text>
<text text-anchor="middle" x="234" y="-7" font-family="Helvetica,sans-Serif" font-size="10.00">/hedged_request.hpp</text>
</a>
</g>
</g>
<!-- Node1&#45;&gt;Node2 -->
<g id="edge1_Node000001_Node000002" class="edge">
<title>Node1&#45;&gt;Node2</title>
<g id="a_edge1_Node000001_Node000002"><a xlink:title=" ">
<path fill="none" stroke="#63b8ff" d="M219.72,-485.19C132.63,-478.66 0,-452.96 0,-357 0,-357 0,-357 0,-146 0,-67.46 101.98,-35.96 171.29,-23.62"/>
<polygon fill="#63b8ff" stroke="#63b8ff" points="219.63,-488.7 229.84,-485.88 220.1,-481.71 219.63,-488.7"/>
</a>
</g>
</g>
<!-- Node3 -->
<g id="Node000003" class="node">
<title>Node3</title>
<g id="a_Node000003"><a xlink:href="../../da/d8f/redis_2include_2userver_2storages_2redis_2impl_2base_8hpp_source.html" target="_top" xlink:title=" ">
<polygon fill="white" stroke="#666666" points="732.5,-437 607.5,-437 607.5,-407 732.5,-407 732.5,-437"/>
<text text-anchor="start" x="615.5" y="-425" font-family="Helvetica,sans-Serif" font-size="10.00">userver/storages/redis</text>
<text text-anchor="middle" x="670" y="-414" font-family="Helvetica,sans-Serif" font-size="10.00">/impl/base.hpp</text>
</a>
</g>
</g>
<!-- Node1&#45;&gt;Node3 -->
<g id="edge2_Node000001_Node000003" class="edge">
<title>Node1&#45;&gt;Node3</title>
<g id="a_edge2_Node000001_Node000003"><a xlink:title=" ">
<path fill="none" stroke="#63b8ff" d="M368.26,-474.36C438.11,-462.47 541.51,-444.87 607.31,-433.67"/>
<polygon fill="#63b8ff" stroke="#63b8ff" points="367.48,-470.94 358.21,-476.07 368.66,-477.84 367.48,-470.94"/>
</a>
</g>
</g>
<!-- Node4 -->
<g id="Node000004" class="node">
<title>Node4</title>
<g id="a_Node000004"><a xlink:href="../../dd/dc2/redis_2include_2userver_2storages_2redis_2client_8hpp.html" target="_top" xlink:title="Redis client.">
<polygon fill="white" stroke="#666666" points="558.5,-96 433.5,-96 433.5,-66 558.5,-66 558.5,-96"/>
<text text-anchor="start" x="441.5" y="-84" font-family="Helvetica,sans-Serif" font-size="10.00">userver/storages/redis</text>
<text text-anchor="middle" x="496" y="-73" font-family="Helvetica,sans-Serif" font-size="10.00">/client.hpp</text>
</a>
</g>
</g>
<!-- Node3&#45;&gt;Node4 -->
<g id="edge3_Node000003_Node000004" class="edge">
<title>Node3&#45;&gt;Node4</title>
<g id="a_edge3_Node000003_Node000004"><a xlink:title=" ">
<path fill="none" stroke="#63b8ff" d="M742.75,-420.14C902.88,-417.58 1275.07,-407.7 1318,-371 1345.78,-347.25 1337,-327.54 1337,-291 1337,-291 1337,-291 1337,-217.5 1337,-138.66 753.43,-97.14 558.52,-85.48"/>
<polygon fill="#63b8ff" stroke="#63b8ff" points="742.46,-416.64 732.52,-420.3 742.57,-423.64 742.46,-416.64"/>
</a>
</g>
</g>
<!-- Node5 -->
<g id="Node000005" class="node">
<title>Node5</title>
<g id="a_Node000005"><a xlink:href="../../d6/ddc/command__options_8hpp_source.html" target="_top" xlink:title=" ">
<polygon fill="white" stroke="#666666" points="694.5,-305 563.5,-305 563.5,-275 694.5,-275 694.5,-305"/>
<text text-anchor="start" x="571.5" y="-293" font-family="Helvetica,sans-Serif" font-size="10.00">userver/storages/redis</text>
<text text-anchor="middle" x="629" y="-282" font-family="Helvetica,sans-Serif" font-size="10.00">/command_options.hpp</text>
</a>
</g>
</g>
<!-- Node3&#45;&gt;Node5 -->
<g id="edge5_Node000003_Node000005" class="edge">
<title>Node3&#45;&gt;Node5</title>
<g id="a_edge5_Node000003_Node000005"><a xlink:title=" ">
<path fill="none" stroke="#63b8ff" d="M628.89,-401.62C617.06,-393.87 605.59,-383.71 599,-371 587.52,-348.88 604.03,-321.34 616.73,-305.02"/>
<polygon fill="#63b8ff" stroke="#63b8ff" points="627.13,-404.65 637.49,-406.84 630.76,-398.66 627.13,-404.65"/>
</a>
</g>
</g>
<!-- Node7 -->
<g id="Node000007" class="node">
<title>Node7</title>
<g id="a_Node000007"><a xlink:href="../../d8/dc6/redis_2include_2userver_2storages_2redis_2component_8hpp.html" target="_top" xlink:title="Redis client component.">
<polygon fill="white" stroke="#666666" points="732.5,-371 607.5,-371 607.5,-341 732.5,-341 732.5,-371"/>
<text text-anchor="start" x="615.5" y="-359" font-family="Helvetica,sans-Serif" font-size="10.00">userver/storages/redis</text>
<text text-anchor="middle" x="670" y="-348" font-family="Helvetica,sans-Serif" font-size="10.00">/component.hpp</text>
</a>
</g>
</g>
<!-- Node3&#45;&gt;Node7 -->
<g id="edge9_Node000003_Node000007" class="edge">
<title>Node3&#45;&gt;Node7</title>
<g id="a_edge9_Node000003_Node000007"><a xlink:title=" ">
<path fill="none" stroke="#63b8ff" d="M670,-396.54C670,-387.96 670,-378.61 670,-371.16"/>
<polygon fill="#63b8ff" stroke="#63b8ff" points="666.5,-396.8 670,-406.8 673.5,-396.8 666.5,-396.8"/>
</a>
</g>
</g>
<!-- Node8 -->
<g id="Node000008" class="node">
<title>Node8</title>
<g id="a_Node000008"><a xlink:href="../../da/d8c/impl_2command__options_8hpp_source.html" target="_top" xlink:title=" ">
<polygon fill="white" stroke="#666666" points="550.5,-371 395.5,-371 395.5,-341 550.5,-341 550.5,-371"/>
<text text-anchor="start" x="403.5" y="-359" font-family="Helvetica,sans-Serif" font-size="10.00">userver/storages/redis</text>
<text text-anchor="middle" x="473" y="-348" font-family="Helvetica,sans-Serif" font-size="10.00">/impl/command_options.hpp</text>
</a>
</g>
</g>
<!-- Node3&#45;&gt;Node8 -->
<g id="edge10_Node000003_Node000008" class="edge">
<title>Node3&#45;&gt;Node8</title>
<g id="a_edge10_Node000003_Node000008"><a xlink:title=" ">
<path fill="none" stroke="#63b8ff" d="M617.23,-403.86C585.6,-393.58 545.88,-380.68 516.13,-371.01"/>
<polygon fill="#63b8ff" stroke="#63b8ff" points="616.18,-407.19 626.77,-406.95 618.34,-400.54 616.18,-407.19"/>
</a>
</g>
</g>
<!-- Node9 -->
<g id="Node000009" class="node">
<title>Node9</title>
<g id="a_Node000009"><a xlink:href="../../d5/dcb/impl_2reply_8hpp_source.html" target="_top" xlink:title=" ">
<polygon fill="white" stroke="#666666" points="195.5,-305 70.5,-305 70.5,-275 195.5,-275 195.5,-305"/>
<text text-anchor="start" x="78.5" y="-293" font-family="Helvetica,sans-Serif" font-size="10.00">userver/storages/redis</text>
<text text-anchor="middle" x="133" y="-282" font-family="Helvetica,sans-Serif" font-size="10.00">/impl/reply.hpp</text>
</a>
</g>
</g>
<!-- Node3&#45;&gt;Node9 -->
<g id="edge12_Node000003_Node000009" class="edge">
<title>Node3&#45;&gt;Node9</title>
<g id="a_edge12_Node000003_Node000009"><a xlink:title=" ">
<path fill="none" stroke="#63b8ff" d="M597.02,-416.87C492.71,-410.21 306.64,-395.34 244,-371 205.03,-355.86 167.18,-323.72 147.33,-305.12"/>
<polygon fill="#63b8ff" stroke="#63b8ff" points="596.97,-420.37 607.17,-417.51 597.41,-413.39 596.97,-420.37"/>
</a>
</g>
</g>
<!-- Node13 -->
<g id="Node000013" class="node">
<title>Node13</title>
<g id="a_Node000013"><a xlink:href="../../d0/d43/redis_2include_2userver_2storages_2redis_2impl_2request_8hpp_source.html" target="_top" xlink:title=" ">
<polygon fill="white" stroke="#666666" points="875.5,-371 750.5,-371 750.5,-341 875.5,-341 875.5,-371"/>
<text text-anchor="start" x="758.5" y="-359" font-family="Helvetica,sans-Serif" font-size="10.00">userver/storages/redis</text>
<text text-anchor="middle" x="813" y="-348" font-family="Helvetica,sans-Serif" font-size="10.00">/impl/request.hpp</text>
</a>
</g>
</g>
<!-- Node3&#45;&gt;Node13 -->
<g id="edge18_Node000003_Node000013" class="edge">
<title>Node3&#45;&gt;Node13</title>
<g id="a_edge18_Node000003_Node000013"><a xlink:title=" ">
<path fill="none" stroke="#63b8ff" d="M710.7,-402.78C733.25,-392.69 760.84,-380.34 781.69,-371.01"/>
<polygon fill="#63b8ff" stroke="#63b8ff" points="709.08,-399.68 701.38,-406.95 711.94,-406.06 709.08,-399.68"/>
</a>
</g>
</g>
<!-- Node14 -->
<g id="Node000014" class="node">
<title>Node14</title>
<g id="a_Node000014"><a xlink:href="../../df/d12/secdist__redis_8hpp_source.html" target="_top" xlink:title=" ">
<polygon fill="white" stroke="#666666" points="1022.5,-371 893.5,-371 893.5,-341 1022.5,-341 1022.5,-371"/>
<text text-anchor="start" x="901.5" y="-359" font-family="Helvetica,sans-Serif" font-size="10.00">userver/storages/redis</text>
<text text-anchor="middle" x="958" y="-348" font-family="Helvetica,sans-Serif" font-size="10.00">/impl/secdist_redis.hpp</text>
</a>
</g>
</g>
<!-- Node3&#45;&gt;Node14 -->
<g id="edge19_Node000003_Node000014" class="edge">
<title>Node3&#45;&gt;Node14</title>
<g id="a_edge19_Node000003_Node000014"><a xlink:title=" ">
<path fill="none" stroke="#63b8ff" d="M742.63,-404.86C789.51,-394.44 849.9,-381.02 894.79,-371.05"/>
<polygon fill="#63b8ff" stroke="#63b8ff" points="741.85,-401.45 732.85,-407.03 743.37,-408.28 741.85,-401.45"/>
</a>
</g>
</g>
<!-- Node15 -->
<g id="Node000015" class="node">
<title>Node15</title>
<g id="a_Node000015"><a xlink:href="../../d0/d5e/redis__config_8hpp_source.html" target="_top" xlink:title=" ">
<polygon fill="white" stroke="#666666" points="1165.5,-371 1040.5,-371 1040.5,-341 1165.5,-341 1165.5,-371"/>
<text text-anchor="start" x="1048.5" y="-359" font-family="Helvetica,sans-Serif" font-size="10.00">userver/storages/redis</text>
<text text-anchor="middle" x="1103" y="-348" font-family="Helvetica,sans-Serif" font-size="10.00">/redis_config.hpp</text>
</a>
</g>
</g>
<!-- Node3&#45;&gt;Node15 -->
<g id="edge20_Node000003_Node000015" class="edge">
<title>Node3&#45;&gt;Node15</title>
<g id="a_edge20_Node000003_Node000015"><a xlink:title=" ">
<path fill="none" stroke="#63b8ff" d="M742.66,-412.21C815.89,-403.06 932.05,-387.74 1032,-371 1034.73,-370.54 1037.51,-370.06 1040.32,-369.56"/>
<polygon fill="#63b8ff" stroke="#63b8ff" points="742.11,-408.75 732.62,-413.46 742.98,-415.7 742.11,-408.75"/>
</a>
</g>
</g>
<!-- Node16 -->
<g id="Node000016" class="node">
<title>Node16</title>
<g id="a_Node000016"><a xlink:href="../../d9/dd6/reply__types_8hpp_source.html" target="_top" xlink:title=" ">
<polygon fill="white" stroke="#666666" points="377.5,-371 252.5,-371 252.5,-341 377.5,-341 377.5,-371"/>
<text text-anchor="start" x="260.5" y="-359" font-family="Helvetica,sans-Serif" font-size="10.00">userver/storages/redis</text>
<text text-anchor="middle" x="315" y="-348" font-family="Helvetica,sans-Serif" font-size="10.00">/reply_types.hpp</text>
</a>
</g>
</g>
<!-- Node3&#45;&gt;Node16 -->
<g id="edge21_Node000003_Node000016" class="edge">
<title>Node3&#45;&gt;Node16</title>
<g id="a_edge21_Node000003_Node000016"><a xlink:title=" ">
<path fill="none" stroke="#63b8ff" d="M597.25,-408.5C540.05,-398.59 458.38,-384.24 387,-371 384,-370.44 380.92,-369.87 377.82,-369.28"/>
<polygon fill="#63b8ff" stroke="#63b8ff" points="596.83,-411.98 607.28,-410.24 598.02,-405.08 596.83,-411.98"/>
</a>
</g>
</g>
<!-- Node21 -->
<g id="Node000021" class="node">
<title>Node21</title>
<g id="a_Node000021"><a xlink:href="../../dd/dfe/subscribe__client_8hpp.html" target="_top" xlink:title="Client that allows subscribing to Redis channel messages.">
<polygon fill="white" stroke="#666666" points="1308.5,-371 1183.5,-371 1183.5,-341 1308.5,-341 1308.5,-371"/>
<text text-anchor="start" x="1191.5" y="-359" font-family="Helvetica,sans-Serif" font-size="10.00">userver/storages/redis</text>
<text text-anchor="middle" x="1246" y="-348" font-family="Helvetica,sans-Serif" font-size="10.00">/subscribe_client.hpp</text>
</a>
</g>
</g>
<!-- Node3&#45;&gt;Node21 -->
<g id="edge33_Node000003_Node000021" class="edge">
<title>Node3&#45;&gt;Node21</title>
<g id="a_edge33_Node000003_Node000021"><a xlink:title=" ">
<path fill="none" stroke="#63b8ff" d="M742.96,-415.99C841.39,-408.72 1022.01,-393.6 1175,-371 1177.73,-370.6 1180.52,-370.16 1183.34,-369.69"/>
<polygon fill="#63b8ff" stroke="#63b8ff" points="742.54,-412.51 732.83,-416.73 743.06,-419.49 742.54,-412.51"/>
</a>
</g>
</g>
<!-- Node4&#45;&gt;Node2 -->
<g id="edge4_Node000004_Node000002" class="edge">
<title>Node4&#45;&gt;Node2</title>
<g id="a_edge4_Node000004_Node000002"><a xlink:title=" ">
<path fill="none" stroke="#63b8ff" d="M428.52,-63.52C386.03,-53.14 331.77,-39.88 291.36,-30.01"/>
<polygon fill="#63b8ff" stroke="#63b8ff" points="427.96,-66.98 438.5,-65.95 429.62,-60.18 427.96,-66.98"/>
</a>
</g>
</g>
<!-- Node5&#45;&gt;Node4 -->
<g id="edge6_Node000005_Node000004" class="edge">
<title>Node5&#45;&gt;Node4</title>
<g id="a_edge6_Node000005_Node000004"><a xlink:title=" ">
<path fill="none" stroke="#63b8ff" d="M643.43,-265.94C662.01,-232.99 688.58,-172.01 659,-132 636.04,-100.94 594.13,-88.55 558.56,-83.87"/>
<polygon fill="#63b8ff" stroke="#63b8ff" points="640.26,-264.43 638.22,-274.83 646.3,-267.97 640.26,-264.43"/>
</a>
</g>
</g>
<!-- Node6 -->
<g id="Node000006" class="node">
<title>Node6</title>
<g id="a_Node000006"><a xlink:href="../../db/d36/redis_2include_2userver_2storages_2redis_2transaction_8hpp.html" target="_top" xlink:title=" ">
<polygon fill="white" stroke="#666666" points="649.5,-162 524.5,-162 524.5,-132 649.5,-132 649.5,-162"/>
<text text-anchor="start" x="532.5" y="-150" font-family="Helvetica,sans-Serif" font-size="10.00">userver/storages/redis</text>
<text text-anchor="middle" x="587" y="-139" font-family="Helvetica,sans-Serif" font-size="10.00">/transaction.hpp</text>
</a>
</g>
</g>
<!-- Node5&#45;&gt;Node6 -->
<g id="edge7_Node000005_Node000006" class="edge">
<title>Node5&#45;&gt;Node6</title>
<g id="a_edge7_Node000005_Node000006"><a xlink:title=" ">
<path fill="none" stroke="#63b8ff" d="M631.78,-264.85C633.05,-246.06 632.82,-219.63 625,-198 620.11,-184.47 610.16,-171.59 601.67,-162.3"/>
<polygon fill="#63b8ff" stroke="#63b8ff" points="628.28,-264.67 630.91,-274.94 635.26,-265.27 628.28,-264.67"/>
</a>
</g>
</g>
<!-- Node6&#45;&gt;Node4 -->
<g id="edge8_Node000006_Node000004" class="edge">
<title>Node6&#45;&gt;Node4</title>
<g id="a_edge8_Node000006_Node000004"><a xlink:title=" ">
<path fill="none" stroke="#63b8ff" d="M558.6,-126.03C544.83,-116.34 528.62,-104.94 516.14,-96.16"/>
<polygon fill="#63b8ff" stroke="#63b8ff" points="556.61,-128.91 566.8,-131.8 560.64,-123.18 556.61,-128.91"/>
</a>
</g>
</g>
<!-- Node8&#45;&gt;Node5 -->
<g id="edge11_Node000008_Node000005" class="edge">
<title>Node8&#45;&gt;Node5</title>
<g id="a_edge11_Node000008_Node000005"><a xlink:title=" ">
<path fill="none" stroke="#63b8ff" d="M516.74,-337.05C541.46,-326.91 571.9,-314.43 594.84,-305.01"/>
<polygon fill="#63b8ff" stroke="#63b8ff" points="515.16,-333.92 507.23,-340.95 517.82,-340.4 515.16,-333.92"/>
</a>
</g>
</g>
<!-- Node10 -->
<g id="Node000010" class="node">
<title>Node10</title>
<g id="a_Node000010"><a xlink:href="../../dd/dc2/reply_8hpp_source.html" target="_top" xlink:title=" ">
<polygon fill="white" stroke="#666666" points="153.5,-233.5 28.5,-233.5 28.5,-203.5 153.5,-203.5 153.5,-233.5"/>
<text text-anchor="start" x="36.5" y="-221.5" font-family="Helvetica,sans-Serif" font-size="10.00">userver/storages/redis</text>
<text text-anchor="middle" x="91" y="-210.5" font-family="Helvetica,sans-Serif" font-size="10.00">/reply.hpp</text>
</a>
</g>
</g>
<!-- Node9&#45;&gt;Node10 -->
<g id="edge13_Node000009_Node000010" class="edge">
<title>Node9&#45;&gt;Node10</title>
<g id="a_edge13_Node000009_Node000010"><a xlink:title=" ">
<path fill="none" stroke="#63b8ff" d="M119.14,-266.06C112.64,-255.32 105.12,-242.86 99.49,-233.54"/>
<polygon fill="#63b8ff" stroke="#63b8ff" points="116.33,-268.19 124.5,-274.94 122.32,-264.57 116.33,-268.19"/>
</a>
</g>
</g>
<!-- Node11 -->
<g id="Node000011" class="node">
<title>Node11</title>
<g id="a_Node000011"><a xlink:href="../../da/df5/request__eval_8hpp_source.html" target="_top" xlink:title=" ">
<polygon fill="white" stroke="#666666" points="459.5,-162 334.5,-162 334.5,-132 459.5,-132 459.5,-162"/>
<text text-anchor="start" x="342.5" y="-150" font-family="Helvetica,sans-Serif" font-size="10.00">userver/storages/redis</text>
<text text-anchor="middle" x="397" y="-139" font-family="Helvetica,sans-Serif" font-size="10.00">/request_eval.hpp</text>
</a>
</g>
</g>
<!-- Node10&#45;&gt;Node11 -->
<g id="edge14_Node000010_Node000011" class="edge">
<title>Node10&#45;&gt;Node11</title>
<g id="a_edge14_Node000010_Node000011"><a xlink:title=" ">
<path fill="none" stroke="#63b8ff" d="M151.41,-200.89C155.32,-199.89 159.21,-198.92 163,-198 220.74,-184.02 286.99,-170.06 334.22,-160.46"/>
<polygon fill="#63b8ff" stroke="#63b8ff" points="150.46,-197.52 141.65,-203.41 152.21,-204.29 150.46,-197.52"/>
</a>
</g>
</g>
<!-- Node12 -->
<g id="Node000012" class="node">
<title>Node12</title>
<g id="a_Node000012"><a xlink:href="../../de/d60/request__evalsha_8hpp_source.html" target="_top" xlink:title=" ">
<polygon fill="white" stroke="#666666" points="300.5,-162 175.5,-162 175.5,-132 300.5,-132 300.5,-162"/>
<text text-anchor="start" x="183.5" y="-150" font-family="Helvetica,sans-Serif" font-size="10.00">userver/storages/redis</text>
<text text-anchor="middle" x="238" y="-139" font-family="Helvetica,sans-Serif" font-size="10.00">/request_evalsha.hpp</text>
</a>
</g>
</g>
<!-- Node10&#45;&gt;Node12 -->
<g id="edge16_Node000010_Node000012" class="edge">
<title>Node10&#45;&gt;Node12</title>
<g id="a_edge16_Node000010_Node000012"><a xlink:title=" ">
<path fill="none" stroke="#63b8ff" d="M129.81,-199.15C154.39,-187.53 185.69,-172.73 208.3,-162.04"/>
<polygon fill="#63b8ff" stroke="#63b8ff" points="128.29,-196 120.75,-203.44 131.28,-202.33 128.29,-196"/>
</a>
</g>
</g>
<!-- Node11&#45;&gt;Node4 -->
<g id="edge15_Node000011_Node000004" class="edge">
<title>Node11&#45;&gt;Node4</title>
<g id="a_edge15_Node000011_Node000004"><a xlink:title=" ">
<path fill="none" stroke="#63b8ff" d="M427.47,-126.3C442.54,-116.56 460.39,-105.02 474.09,-96.16"/>
<polygon fill="#63b8ff" stroke="#63b8ff" points="425.47,-123.43 418.97,-131.8 429.27,-129.31 425.47,-123.43"/>
</a>
</g>
</g>
<!-- Node12&#45;&gt;Node4 -->
<g id="edge17_Node000012_Node000004" class="edge">
<title>Node12&#45;&gt;Node4</title>
<g id="a_edge17_Node000012_Node000004"><a xlink:title=" ">
<path fill="none" stroke="#63b8ff" d="M304.45,-129.52C346.29,-119.14 399.72,-105.88 439.51,-96.01"/>
<polygon fill="#63b8ff" stroke="#63b8ff" points="303.48,-126.15 294.62,-131.95 305.17,-132.94 303.48,-126.15"/>
</a>
</g>
</g>
<!-- Node17 -->
<g id="Node000017" class="node">
<title>Node17</title>
<g id="a_Node000017"><a xlink:href="../../d1/daf/parse__reply_8hpp_source.html" target="_top" xlink:title=" ">
<polygon fill="white" stroke="#666666" points="296.5,-233.5 171.5,-233.5 171.5,-203.5 296.5,-203.5 296.5,-233.5"/>
<text text-anchor="start" x="179.5" y="-221.5" font-family="Helvetica,sans-Serif" font-size="10.00">userver/storages/redis</text>
<text text-anchor="middle" x="234" y="-210.5" font-family="Helvetica,sans-Serif" font-size="10.00">/parse_reply.hpp</text>
</a>
</g>
</g>
<!-- Node16&#45;&gt;Node17 -->
<g id="edge22_Node000016_Node000017" class="edge">
<title>Node16&#45;&gt;Node17</title>
<g id="a_edge22_Node000016_Node000017"><a xlink:title=" ">
<path fill="none" stroke="#63b8ff" d="M301.23,-331.97C284.37,-303.76 256.34,-256.87 242.4,-233.55"/>
<polygon fill="#63b8ff" stroke="#63b8ff" points="298.35,-333.97 306.48,-340.76 304.36,-330.38 298.35,-333.97"/>
</a>
</g>
</g>
<!-- Node18 -->
<g id="Node000018" class="node">
<title>Node18</title>
<g id="a_Node000018"><a xlink:href="../../d7/d98/redis_2include_2userver_2storages_2redis_2request_8hpp_source.html" target="_top" xlink:title=" ">
<polygon fill="white" stroke="#666666" points="615.5,-233.5 490.5,-233.5 490.5,-203.5 615.5,-203.5 615.5,-233.5"/>
<text text-anchor="start" x="498.5" y="-221.5" font-family="Helvetica,sans-Serif" font-size="10.00">userver/storages/redis</text>
<text text-anchor="middle" x="553" y="-210.5" font-family="Helvetica,sans-Serif" font-size="10.00">/request.hpp</text>
</a>
</g>
</g>
<!-- Node16&#45;&gt;Node18 -->
<g id="edge25_Node000016_Node000018" class="edge">
<title>Node16&#45;&gt;Node18</title>
<g id="a_edge25_Node000016_Node000018"><a xlink:title=" ">
<path fill="none" stroke="#63b8ff" d="M387.47,-339.51C414.64,-331.73 444.98,-320.55 470,-305 500.92,-285.78 528.56,-252.57 542.81,-233.7"/>
<polygon fill="#63b8ff" stroke="#63b8ff" points="386.33,-336.2 377.62,-342.23 388.19,-342.95 386.33,-336.2"/>
</a>
</g>
</g>
<!-- Node19 -->
<g id="Node000019" class="node">
<title>Node19</title>
<g id="a_Node000019"><a xlink:href="../../db/d81/request__data__base_8hpp_source.html" target="_top" xlink:title=" ">
<polygon fill="white" stroke="#666666" points="460.5,-305 327.5,-305 327.5,-275 460.5,-275 460.5,-305"/>
<text text-anchor="start" x="335.5" y="-293" font-family="Helvetica,sans-Serif" font-size="10.00">userver/storages/redis</text>
<text text-anchor="middle" x="394" y="-282" font-family="Helvetica,sans-Serif" font-size="10.00">/request_data_base.hpp</text>
</a>
</g>
</g>
<!-- Node16&#45;&gt;Node19 -->
<g id="edge30_Node000016_Node000019" class="edge">
<title>Node16&#45;&gt;Node19</title>
<g id="a_edge30_Node000016_Node000019"><a xlink:title=" ">
<path fill="none" stroke="#63b8ff" d="M340.33,-334.48C352.14,-324.91 365.89,-313.77 376.52,-305.16"/>
<polygon fill="#63b8ff" stroke="#63b8ff" points="338.1,-331.78 332.53,-340.8 342.51,-337.22 338.1,-331.78"/>
</a>
</g>
</g>
<!-- Node17&#45;&gt;Node11 -->
<g id="edge23_Node000017_Node000011" class="edge">
<title>Node17&#45;&gt;Node11</title>
<g id="a_edge23_Node000017_Node000011"><a xlink:title=" ">
<path fill="none" stroke="#63b8ff" d="M276.31,-199.46C303.68,-187.79 338.78,-172.82 364.06,-162.04"/>
<polygon fill="#63b8ff" stroke="#63b8ff" points="274.81,-196.29 266.99,-203.44 277.56,-202.73 274.81,-196.29"/>
</a>
</g>
</g>
<!-- Node17&#45;&gt;Node12 -->
<g id="edge24_Node000017_Node000012" class="edge">
<title>Node17&#45;&gt;Node12</title>
<g id="a_edge24_Node000017_Node000012"><a xlink:title=" ">
<path fill="none" stroke="#63b8ff" d="M235.4,-193.25C236,-182.81 236.68,-170.99 237.19,-162.04"/>
<polygon fill="#63b8ff" stroke="#63b8ff" points="231.89,-193.25 234.81,-203.44 238.88,-193.65 231.89,-193.25"/>
</a>
</g>
</g>
<!-- Node18&#45;&gt;Node4 -->
<g id="edge26_Node000018_Node000004" class="edge">
<title>Node18&#45;&gt;Node4</title>
<g id="a_edge26_Node000018_Node000004"><a xlink:title=" ">
<path fill="none" stroke="#63b8ff" d="M535.41,-194.96C528.53,-185.26 521.09,-173.51 516,-162 506.27,-140 500.7,-112.43 498.02,-96.06"/>
<polygon fill="#63b8ff" stroke="#63b8ff" points="532.74,-197.24 541.48,-203.23 538.38,-193.1 532.74,-197.24"/>
</a>
</g>
</g>
<!-- Node18&#45;&gt;Node6 -->
<g id="edge29_Node000018_Node000006" class="edge">
<title>Node18&#45;&gt;Node6</title>
<g id="a_edge29_Node000018_Node000006"><a xlink:title=" ">
<path fill="none" stroke="#63b8ff" d="M564.38,-194.23C569.6,-183.56 575.62,-171.27 580.13,-162.04"/>
<polygon fill="#63b8ff" stroke="#63b8ff" points="561.13,-192.91 559.88,-203.44 567.42,-195.99 561.13,-192.91"/>
</a>
</g>
</g>
<!-- Node18&#45;&gt;Node11 -->
<g id="edge27_Node000018_Node000011" class="edge">
<title>Node18&#45;&gt;Node11</title>
<g id="a_edge27_Node000018_Node000011"><a xlink:title=" ">
<path fill="none" stroke="#63b8ff" d="M512.16,-199.31C486.02,-187.66 452.61,-172.78 428.52,-162.04"/>
<polygon fill="#63b8ff" stroke="#63b8ff" points="510.87,-202.56 521.43,-203.44 513.72,-196.17 510.87,-202.56"/>
</a>
</g>
</g>
<!-- Node18&#45;&gt;Node12 -->
<g id="edge28_Node000018_Node000012" class="edge">
<title>Node18&#45;&gt;Node12</title>
<g id="a_edge28_Node000018_Node000012"><a xlink:title=" ">
<path fill="none" stroke="#63b8ff" d="M493.66,-200.89C489.72,-199.88 485.81,-198.91 482,-198 420.71,-183.32 350.12,-169.15 300.68,-159.67"/>
<polygon fill="#63b8ff" stroke="#63b8ff" points="492.89,-204.31 503.45,-203.44 494.66,-197.53 492.89,-204.31"/>
</a>
</g>
</g>
<!-- Node19&#45;&gt;Node18 -->
<g id="edge32_Node000019_Node000018" class="edge">
<title>Node19&#45;&gt;Node18</title>
<g id="a_edge32_Node000019_Node000018"><a xlink:title=" ">
<path fill="none" stroke="#63b8ff" d="M435.63,-270.81C462.27,-259.16 496.32,-244.28 520.87,-233.54"/>
<polygon fill="#63b8ff" stroke="#63b8ff" points="433.94,-267.72 426.18,-274.94 436.74,-274.14 433.94,-267.72"/>
</a>
</g>
</g>
<!-- Node20 -->
<g id="Node000020" class="node">
<title>Node20</title>
<g id="a_Node000020"><a xlink:href="../../d1/d35/transaction__subrequest__data_8hpp_source.html" target="_top" xlink:title=" ">
<polygon fill="white" stroke="#666666" points="473,-239 315,-239 315,-198 473,-198 473,-239"/>
<text text-anchor="start" x="323" y="-227" font-family="Helvetica,sans-Serif" font-size="10.00">userver/storages/redis</text>
<text text-anchor="start" x="323" y="-216" font-family="Helvetica,sans-Serif" font-size="10.00">/impl/transaction_subrequest</text>
<text text-anchor="middle" x="394" y="-205" font-family="Helvetica,sans-Serif" font-size="10.00">_data.hpp</text>
</a>
</g>
</g>
<!-- Node19&#45;&gt;Node20 -->
<g id="edge31_Node000019_Node000020" class="edge">
<title>Node19&#45;&gt;Node20</title>
<g id="a_edge31_Node000019_Node000020"><a xlink:title=" ">
<path fill="none" stroke="#63b8ff" d="M394,-264.91C394,-256.47 394,-247.1 394,-239.07"/>
<polygon fill="#63b8ff" stroke="#63b8ff" points="390.5,-264.94 394,-274.94 397.5,-264.94 390.5,-264.94"/>
</a>
</g>
</g>
</g>
</svg>
