<?xml version="1.0" encoding="UTF-8" standalone="no"?>
<!DOCTYPE svg PUBLIC "-//W3C//DTD SVG 1.1//EN"
 "http://www.w3.org/Graphics/SVG/1.1/DTD/svg11.dtd">
<!-- Generated by graphviz version 2.43.0 (0)
 -->
<!-- Title: Universal Pages: 1 -->
<svg width="335pt" height="1107pt"
 viewBox="0.00 0.00 335.00 1107.34" xmlns="http://www.w3.org/2000/svg" xmlns:xlink="http://www.w3.org/1999/xlink">
<g id="graph0" class="graph" transform="scale(1 1) rotate(0) translate(4 1103.34)">
<title>Universal</title>
<!-- Node8 -->
<g id="Node000008" class="node">
<title>Node8</title>
<g id="a_Node000008"><a xlink:href="../../da/d0c/group__userver__base__classes.html" target="_top" xlink:title="Base classes that simplify implementation of functionality.">
<polygon fill="white" stroke="#666666" points="322,-1086.84 241,-1086.84 241,-1067.84 322,-1067.84 322,-1086.84"/>
<text text-anchor="middle" x="281.5" y="-1074.84" font-family="Helvetica,sans-Serif" font-size="10.00">Base Classes</text>
</a>
</g>
</g>
<!-- Node7 -->
<g id="Node000007" class="node">
<title>Node7</title>
<g id="a_Node000007"><a xlink:href="../../dc/db7/group__userver__concurrency.html" target="_top" xlink:title="Task construction and synchronization primitives for coroutines.">
<polygon fill="white" stroke="#666666" points="320,-1034.84 243,-1034.84 243,-1015.84 320,-1015.84 320,-1034.84"/>
<text text-anchor="middle" x="281.5" y="-1022.84" font-family="Helvetica,sans-Serif" font-size="10.00">Concurrency</text>
</a>
</g>
</g>
<!-- Node2 -->
<g id="Node000002" class="node">
<title>Node2</title>
<g id="a_Node000002"><a xlink:href="../../df/d2e/group__userver__containers.html" target="_top" xlink:title="Utility containers.">
<polygon fill="white" stroke="#666666" points="316,-511.84 247,-511.84 247,-492.84 316,-492.84 316,-511.84"/>
<text text-anchor="middle" x="281.5" y="-499.84" font-family="Helvetica,sans-Serif" font-size="10.00">Containers</text>
</a>
</g>
</g>
<!-- Node3 -->
<g id="Node000003" class="node">
<title>Node3</title>
<g id="a_Node000003"><a xlink:href="../../d3/dcb/group__userver__formats.html" target="_top" xlink:title="Different containers that share the same interface and manipulate tree&#45;like formats.">
<polygon fill="white" stroke="#666666" points="309.5,-422.84 253.5,-422.84 253.5,-403.84 309.5,-403.84 309.5,-422.84"/>
<text text-anchor="middle" x="281.5" y="-410.84" font-family="Helvetica,sans-Serif" font-size="10.00">Formats</text>
</a>
</g>
</g>
<!-- Node5 -->
<g id="Node000005" class="node">
<title>Node5</title>
<g id="a_Node000005"><a xlink:href="../../da/d5d/group__userver__formats__parse.html" target="_top" xlink:title="Files with parsers from formats.">
<polygon fill="white" stroke="#666666" points="307.5,-331.84 255.5,-331.84 255.5,-312.84 307.5,-312.84 307.5,-331.84"/>
<text text-anchor="middle" x="281.5" y="-319.84" font-family="Helvetica,sans-Serif" font-size="10.00">Parsers</text>
</a>
</g>
</g>
<!-- Node6 -->
<g id="Node000006" class="node">
<title>Node6</title>
<g id="a_Node000006"><a xlink:href="../../df/d0f/group__userver__formats__serialize.html" target="_top" xlink:title="Files with serializers into formats.">
<polygon fill="white" stroke="#666666" points="315.5,-171.84 247.5,-171.84 247.5,-152.84 315.5,-152.84 315.5,-171.84"/>
<text text-anchor="middle" x="281.5" y="-159.84" font-family="Helvetica,sans-Serif" font-size="10.00">Serializers</text>
</a>
</g>
</g>
<!-- Node4 -->
<g id="Node000004" class="node">
<title>Node4</title>
<g id="a_Node000004"><a xlink:href="../../dc/d1a/group__userver__formats__serialize__sax.html" target="_top" xlink:title="Files with SAX serializers into formats.">
<polygon fill="white" stroke="#666666" points="327,-48.84 236,-48.84 236,-29.84 327,-29.84 327,-48.84"/>
<text text-anchor="middle" x="281.5" y="-36.84" font-family="Helvetica,sans-Serif" font-size="10.00">SAX Serializers</text>
</a>
</g>
</g>
<!-- Node1 -->
<g id="Node000001" class="node">
<title>Node1</title>
<g id="a_Node000001"><a xlink:title="Functions and classes that could be used with or without coroutine environment.">
<polygon fill="#999999" stroke="#666666" points="63,-388.84 0,-388.84 0,-369.84 63,-369.84 63,-388.84"/>
<text text-anchor="middle" x="31.5" y="-376.84" font-family="Helvetica,sans-Serif" font-size="10.00">Universal</text>
</a>
</g>
</g>
<!-- Node1&#45;&gt;Node8 -->
<g id="edge7" class="edge">
<title>Node1&#45;&gt;Node8</title>
<path fill="none" stroke="orange" stroke-dasharray="5,2" d="M32.48,-389.05C32.4,-467.76 33.62,-999.91 81,-1050.34 121.32,-1093.27 195,-1091.38 240.65,-1085.08"/>
<text text-anchor="middle" x="149.5" y="-1091.34" font-family="Helvetica,sans-Serif" font-size="10.00">utils::TracefulException</text>
</g>
<!-- Node1&#45;&gt;Node7 -->
<g id="edge6" class="edge">
<title>Node1&#45;&gt;Node7</title>
<path fill="none" stroke="orange" stroke-dasharray="5,2" d="M32.47,-389.16C32.29,-466.5 32.99,-975.92 81,-1021.34 103.46,-1042.59 191.59,-1036.15 242.89,-1030.31"/>
<text text-anchor="middle" x="149.5" y="-1038.34" font-family="Helvetica,sans-Serif" font-size="10.00">utils::TokenBucket</text>
</g>
<!-- Node1&#45;&gt;Node7 -->
<g id="edge11" class="edge">
<title>Node1&#45;&gt;Node7</title>
<path fill="none" stroke="darkgreen" stroke-dasharray="5,2" d="M32.56,-389.06C33.13,-463.48 38.45,-941.6 81,-987.34 101.98,-1009.9 187.87,-1001.96 218,-1008.34 227.9,-1010.44 238.56,-1013.17 248.23,-1015.82"/>
<text text-anchor="middle" x="149.5" y="-1011.34" font-family="Helvetica,sans-Serif" font-size="10.00">atomic.hpp</text>
</g>
<!-- Node1&#45;&gt;Node2 -->
<g id="edge1" class="edge">
<title>Node1&#45;&gt;Node2</title>
<path fill="none" stroke="orange" stroke-dasharray="5,2" d="M34.18,-389.11C38.23,-409.32 50.52,-455.68 81,-477.34 106.89,-495.75 196.8,-500.62 246.62,-501.9"/>
<text text-anchor="middle" x="149.5" y="-976.34" font-family="Helvetica,sans-Serif" font-size="10.00">cache::LruMap</text>
<text text-anchor="middle" x="149.5" y="-965.34" font-family="Helvetica,sans-Serif" font-size="10.00">cache::LruSet</text>
<text text-anchor="middle" x="149.5" y="-954.34" font-family="Helvetica,sans-Serif" font-size="10.00">crypto::Certificate</text>
<text text-anchor="middle" x="149.5" y="-943.34" font-family="Helvetica,sans-Serif" font-size="10.00">crypto::PrivateKey</text>
<text text-anchor="middle" x="149.5" y="-932.34" font-family="Helvetica,sans-Serif" font-size="10.00">crypto::PublicKey</text>
<text text-anchor="middle" x="149.5" y="-921.34" font-family="Helvetica,sans-Serif" font-size="10.00">decimal64::Decimal</text>
<text text-anchor="middle" x="149.5" y="-910.34" font-family="Helvetica,sans-Serif" font-size="10.00">formats::json::StringBuilder</text>
<text text-anchor="middle" x="149.5" y="-899.34" font-family="Helvetica,sans-Serif" font-size="10.00">formats::json::Value</text>
<text text-anchor="middle" x="149.5" y="-888.34" font-family="Helvetica,sans-Serif" font-size="10.00">formats::json::ValueBuilder</text>
<text text-anchor="middle" x="149.5" y="-877.34" font-family="Helvetica,sans-Serif" font-size="10.00">formats::yaml::Value</text>
<text text-anchor="middle" x="149.5" y="-866.34" font-family="Helvetica,sans-Serif" font-size="10.00">formats::yaml::ValueBuilder</text>
<text text-anchor="middle" x="149.5" y="-855.34" font-family="Helvetica,sans-Serif" font-size="10.00">fs::blocking::CFile</text>
<text text-anchor="middle" x="149.5" y="-844.34" font-family="Helvetica,sans-Serif" font-size="10.00">fs::blocking::FileDescriptor</text>
<text text-anchor="middle" x="149.5" y="-833.34" font-family="Helvetica,sans-Serif" font-size="10.00">fs::blocking::TempDirectory</text>
<text text-anchor="middle" x="149.5" y="-822.34" font-family="Helvetica,sans-Serif" font-size="10.00">fs::blocking::TempFile</text>
<text text-anchor="middle" x="149.5" y="-811.34" font-family="Helvetica,sans-Serif" font-size="10.00">http::ContentType</text>
<text text-anchor="middle" x="149.5" y="-800.34" font-family="Helvetica,sans-Serif" font-size="10.00">http::headers::HeaderMap</text>
<text text-anchor="start" x="81" y="-789.34" font-family="Helvetica,sans-Serif" font-size="10.00">http::headers::Predefined</text>
<text text-anchor="middle" x="149.5" y="-778.34" font-family="Helvetica,sans-Serif" font-size="10.00">Header</text>
<text text-anchor="middle" x="149.5" y="-767.34" font-family="Helvetica,sans-Serif" font-size="10.00">utils::AnyMovable</text>
<text text-anchor="middle" x="149.5" y="-756.34" font-family="Helvetica,sans-Serif" font-size="10.00">utils::AnyStorage</text>
<text text-anchor="middle" x="149.5" y="-745.34" font-family="Helvetica,sans-Serif" font-size="10.00">utils::CheckedPtr</text>
<text text-anchor="middle" x="149.5" y="-734.34" font-family="Helvetica,sans-Serif" font-size="10.00">utils::datetime::Date</text>
<text text-anchor="middle" x="149.5" y="-723.34" font-family="Helvetica,sans-Serif" font-size="10.00">utils::DefaultDict</text>
<text text-anchor="middle" x="149.5" y="-712.34" font-family="Helvetica,sans-Serif" font-size="10.00">utils::expected</text>
<text text-anchor="middle" x="149.5" y="-701.34" font-family="Helvetica,sans-Serif" font-size="10.00">utils::FastPimpl</text>
<text text-anchor="middle" x="149.5" y="-690.34" font-family="Helvetica,sans-Serif" font-size="10.00">utils::FastScopeGuard</text>
<text text-anchor="middle" x="149.5" y="-679.34" font-family="Helvetica,sans-Serif" font-size="10.00">utils::FixedArray</text>
<text text-anchor="middle" x="149.5" y="-668.34" font-family="Helvetica,sans-Serif" font-size="10.00">utils::Flags</text>
<text text-anchor="middle" x="149.5" y="-657.34" font-family="Helvetica,sans-Serif" font-size="10.00">utils::AtomicFlags</text>
<text text-anchor="middle" x="149.5" y="-646.34" font-family="Helvetica,sans-Serif" font-size="10.00">utils::NotNull</text>
<text text-anchor="middle" x="149.5" y="-635.34" font-family="Helvetica,sans-Serif" font-size="10.00">utils::OptionalRef</text>
<text text-anchor="middle" x="149.5" y="-624.34" font-family="Helvetica,sans-Serif" font-size="10.00">utils::regex</text>
<text text-anchor="middle" x="149.5" y="-613.34" font-family="Helvetica,sans-Serif" font-size="10.00">utils::ResultStore</text>
<text text-anchor="start" x="81" y="-602.34" font-family="Helvetica,sans-Serif" font-size="10.00">utils::ResultStore</text>
<text text-anchor="middle" x="149.5" y="-591.34" font-family="Helvetica,sans-Serif" font-size="10.00">&lt; void &gt;</text>
<text text-anchor="middle" x="149.5" y="-580.34" font-family="Helvetica,sans-Serif" font-size="10.00">utils::ScopeGuard</text>
<text text-anchor="middle" x="149.5" y="-569.34" font-family="Helvetica,sans-Serif" font-size="10.00">utils::SharedReadablePtr</text>
<text text-anchor="middle" x="149.5" y="-558.34" font-family="Helvetica,sans-Serif" font-size="10.00">utils::SlidingInterval</text>
<text text-anchor="middle" x="149.5" y="-547.34" font-family="Helvetica,sans-Serif" font-size="10.00">utils::SmallString</text>
<text text-anchor="middle" x="149.5" y="-536.34" font-family="Helvetica,sans-Serif" font-size="10.00">utils::StrongTypedef</text>
<text text-anchor="middle" x="149.5" y="-525.34" font-family="Helvetica,sans-Serif" font-size="10.00">utils::datetime::TimeOfDay</text>
<text text-anchor="middle" x="149.5" y="-514.34" font-family="Helvetica,sans-Serif" font-size="10.00">utils::TrivialBiMap</text>
<text text-anchor="middle" x="149.5" y="-503.34" font-family="Helvetica,sans-Serif" font-size="10.00">utils::TrivialSet</text>
</g>
<!-- Node1&#45;&gt;Node3 -->
<g id="edge2" class="edge">
<title>Node1&#45;&gt;Node3</title>
<path fill="none" stroke="orange" stroke-dasharray="5,2" d="M63.16,-387.58C69.05,-388.98 75.19,-390.31 81,-391.34 142.06,-402.22 214.66,-408.61 253.23,-411.49"/>
<text text-anchor="middle" x="149.5" y="-465.34" font-family="Helvetica,sans-Serif" font-size="10.00">formats::json::StringBuilder</text>
<text text-anchor="middle" x="149.5" y="-454.34" font-family="Helvetica,sans-Serif" font-size="10.00">formats::json::Value</text>
<text text-anchor="middle" x="149.5" y="-443.34" font-family="Helvetica,sans-Serif" font-size="10.00">formats::json::ValueBuilder</text>
<text text-anchor="middle" x="149.5" y="-432.34" font-family="Helvetica,sans-Serif" font-size="10.00">formats::yaml::Value</text>
<text text-anchor="middle" x="149.5" y="-421.34" font-family="Helvetica,sans-Serif" font-size="10.00">formats::yaml::ValueBuilder</text>
<text text-anchor="middle" x="149.5" y="-410.34" font-family="Helvetica,sans-Serif" font-size="10.00">yaml_config::YamlConfig</text>
</g>
<!-- Node1&#45;&gt;Node5 -->
<g id="edge4" class="edge">
<title>Node1&#45;&gt;Node5</title>
<path fill="none" stroke="orange" stroke-dasharray="5,2" d="M63,-377.18C108.02,-373.74 189.93,-366.47 218,-357.34 235.98,-351.5 254.64,-340.26 266.84,-332.09"/>
<text text-anchor="middle" x="149.5" y="-378.34" font-family="Helvetica,sans-Serif" font-size="10.00">formats::parse::To</text>
</g>
<!-- Node1&#45;&gt;Node5 -->
<g id="edge9" class="edge">
<title>Node1&#45;&gt;Node5</title>
<path fill="none" stroke="darkgreen" stroke-dasharray="5,2" d="M33.19,-369.81C35.42,-347 44.58,-289.43 81,-265.34 106.39,-248.55 189.61,-254.34 218,-265.34 242.65,-274.9 263.53,-299.2 273.76,-312.78"/>
<text text-anchor="middle" x="149.5" y="-345.34" font-family="Helvetica,sans-Serif" font-size="10.00">boost_optional.hpp</text>
<text text-anchor="middle" x="149.5" y="-334.34" font-family="Helvetica,sans-Serif" font-size="10.00">boost_uuid.hpp</text>
<text text-anchor="middle" x="149.5" y="-323.34" font-family="Helvetica,sans-Serif" font-size="10.00">boost_variant.hpp</text>
<text text-anchor="middle" x="149.5" y="-312.34" font-family="Helvetica,sans-Serif" font-size="10.00">common.hpp</text>
<text text-anchor="middle" x="149.5" y="-301.34" font-family="Helvetica,sans-Serif" font-size="10.00">common_containers.hpp</text>
<text text-anchor="middle" x="149.5" y="-290.34" font-family="Helvetica,sans-Serif" font-size="10.00">time_of_day.hpp</text>
<text text-anchor="middle" x="149.5" y="-279.34" font-family="Helvetica,sans-Serif" font-size="10.00">to.hpp</text>
<text text-anchor="middle" x="149.5" y="-268.34" font-family="Helvetica,sans-Serif" font-size="10.00">variant.hpp</text>
</g>
<!-- Node1&#45;&gt;Node6 -->
<g id="edge5" class="edge">
<title>Node1&#45;&gt;Node6</title>
<path fill="none" stroke="orange" stroke-dasharray="5,2" d="M32.74,-369.76C33.91,-344.26 40.83,-274.29 81,-239.34 127.82,-198.61 161.71,-238.48 218,-212.34 239.43,-202.4 259.96,-183.61 271.33,-172.11"/>
<text text-anchor="middle" x="149.5" y="-242.34" font-family="Helvetica,sans-Serif" font-size="10.00">formats::serialize::To</text>
</g>
<!-- Node1&#45;&gt;Node6 -->
<g id="edge8" class="edge">
<title>Node1&#45;&gt;Node6</title>
<path fill="none" stroke="darkgreen" stroke-dasharray="5,2" d="M32.52,-369.8C32.82,-323.72 36.7,-124.89 81,-87.34 104.22,-67.66 190.43,-74.43 218,-87.34 247.16,-101 267.46,-135.7 275.99,-152.68"/>
<text text-anchor="middle" x="149.5" y="-200.34" font-family="Helvetica,sans-Serif" font-size="10.00">serialize_boost_variant.hpp</text>
<text text-anchor="middle" x="149.5" y="-189.34" font-family="Helvetica,sans-Serif" font-size="10.00">serialize_duration.hpp</text>
<text text-anchor="middle" x="149.5" y="-178.34" font-family="Helvetica,sans-Serif" font-size="10.00">serialize_variant.hpp</text>
<text text-anchor="middle" x="149.5" y="-167.34" font-family="Helvetica,sans-Serif" font-size="10.00">boost_optional.hpp</text>
<text text-anchor="middle" x="149.5" y="-156.34" font-family="Helvetica,sans-Serif" font-size="10.00">boost_uuid.hpp</text>
<text text-anchor="middle" x="149.5" y="-145.34" font-family="Helvetica,sans-Serif" font-size="10.00">common_containers.hpp</text>
<text text-anchor="middle" x="149.5" y="-134.34" font-family="Helvetica,sans-Serif" font-size="10.00">time_of_day.hpp</text>
<text text-anchor="middle" x="149.5" y="-123.34" font-family="Helvetica,sans-Serif" font-size="10.00">to.hpp</text>
<text text-anchor="middle" x="149.5" y="-112.34" font-family="Helvetica,sans-Serif" font-size="10.00">variant.hpp</text>
<text text-anchor="middle" x="149.5" y="-101.34" font-family="Helvetica,sans-Serif" font-size="10.00">serialize_duration.hpp</text>
<text text-anchor="middle" x="149.5" y="-90.34" font-family="Helvetica,sans-Serif" font-size="10.00">...</text>
</g>
<!-- Node1&#45;&gt;Node4 -->
<g id="edge3" class="edge">
<title>Node1&#45;&gt;Node4</title>
<path fill="none" stroke="orange" stroke-dasharray="5,2" d="M32.45,-369.65C32.39,-320.91 34.78,-103.29 81,-59.34 102.51,-38.9 183.86,-36.81 235.8,-37.7"/>
<text text-anchor="middle" x="149.5" y="-62.34" font-family="Helvetica,sans-Serif" font-size="10.00">formats::json::StringBuilder</text>
</g>
<!-- Node1&#45;&gt;Node4 -->
<g id="edge10" class="edge">
<title>Node1&#45;&gt;Node4</title>
<path fill="none" stroke="darkgreen" stroke-dasharray="5,2" d="M32.2,-369.84C30.81,-317.95 27.06,-69.45 81,-22.34 132.45,22.59 222.46,-11.47 261.52,-29.73"/>
<text text-anchor="middle" x="149.5" y="-25.34" font-family="Helvetica,sans-Serif" font-size="10.00">write_to_stream.hpp</text>
</g>
</g>
</svg>
