<?xml version="1.0" encoding="UTF-8" standalone="no"?>
<!DOCTYPE svg PUBLIC "-//W3C//DTD SVG 1.1//EN"
 "http://www.w3.org/Graphics/SVG/1.1/DTD/svg11.dtd">
<!-- Generated by graphviz version 2.43.0 (0)
 -->
<!-- Title: userver/formats/parse/common.hpp Pages: 1 -->
<svg width="1230pt" height="291pt"
 viewBox="0.00 0.00 1230.06 291.00" xmlns="http://www.w3.org/2000/svg" xmlns:xlink="http://www.w3.org/1999/xlink">
<g id="graph0" class="graph" transform="scale(1 1) rotate(0) translate(4 287)">
<title>userver/formats/parse/common.hpp</title>
<!-- Node1 -->
<g id="Node000001" class="node">
<title>Node1</title>
<g id="a_Node000001"><a xlink:title="Parsers and converters for std::chrono::seconds, std::chrono::system_clock::time_point and integral t...">
<polygon fill="#999999" stroke="#666666" points="573.06,-283 448.06,-283 448.06,-253 573.06,-253 573.06,-283"/>
<text text-anchor="start" x="456.06" y="-271" font-family="Helvetica,sans-Serif" font-size="10.00">userver/formats/parse</text>
<text text-anchor="middle" x="510.56" y="-260" font-family="Helvetica,sans-Serif" font-size="10.00">/common.hpp</text>
</a>
</g>
</g>
<!-- Node2 -->
<g id="Node000002" class="node">
<title>Node2</title>
<g id="a_Node000002"><a xlink:title=" ">
<polygon fill="#e0e0e0" stroke="#999999" points="116.56,-145.5 66.56,-145.5 66.56,-126.5 116.56,-126.5 116.56,-145.5"/>
<text text-anchor="middle" x="91.56" y="-133.5" font-family="Helvetica,sans-Serif" font-size="10.00">chrono</text>
</a>
</g>
</g>
<!-- Node1&#45;&gt;Node2 -->
<g id="edge1_Node000001_Node000002" class="edge">
<title>Node1&#45;&gt;Node2</title>
<g id="a_edge1_Node000001_Node000002"><a xlink:title=" ">
<path fill="none" stroke="#63b8ff" d="M447.71,-265.39C319.14,-261.44 35.67,-249.14 6.56,-217 -16.41,-191.64 27.89,-164.93 60.72,-149.69"/>
<polygon fill="#63b8ff" stroke="#63b8ff" points="62.33,-152.8 70.03,-145.52 59.47,-146.41 62.33,-152.8"/>
</a>
</g>
</g>
<!-- Node3 -->
<g id="Node000003" class="node">
<title>Node3</title>
<g id="a_Node000003"><a xlink:title=" ">
<polygon fill="#e0e0e0" stroke="#999999" points="246.56,-145.5 196.56,-145.5 196.56,-126.5 246.56,-126.5 246.56,-145.5"/>
<text text-anchor="middle" x="221.56" y="-133.5" font-family="Helvetica,sans-Serif" font-size="10.00">cstdint</text>
</a>
</g>
</g>
<!-- Node1&#45;&gt;Node3 -->
<g id="edge2_Node000001_Node000003" class="edge">
<title>Node1&#45;&gt;Node3</title>
<g id="a_edge2_Node000001_Node000003"><a xlink:title=" ">
<path fill="none" stroke="#63b8ff" d="M447.8,-254.61C414.73,-246.6 374.17,-234.38 340.56,-217 321.45,-207.12 320.19,-199.34 302.56,-187 283.89,-173.93 261.82,-160.43 245.44,-150.76"/>
<polygon fill="#63b8ff" stroke="#63b8ff" points="246.92,-147.57 236.52,-145.54 243.38,-153.61 246.92,-147.57"/>
</a>
</g>
</g>
<!-- Node4 -->
<g id="Node000004" class="node">
<title>Node4</title>
<g id="a_Node000004"><a xlink:title=" ">
<polygon fill="#e0e0e0" stroke="#999999" points="1000.56,-211.5 956.56,-211.5 956.56,-192.5 1000.56,-192.5 1000.56,-211.5"/>
<text text-anchor="middle" x="978.56" y="-199.5" font-family="Helvetica,sans-Serif" font-size="10.00">limits</text>
</a>
</g>
</g>
<!-- Node1&#45;&gt;Node4 -->
<g id="edge3_Node000001_Node000004" class="edge">
<title>Node1&#45;&gt;Node4</title>
<g id="a_edge3_Node000001_Node000004"><a xlink:title=" ">
<path fill="none" stroke="#63b8ff" d="M573.33,-264.76C658.21,-260.59 813.77,-248.94 942.56,-217 944.87,-216.43 947.23,-215.75 949.58,-215"/>
<polygon fill="#63b8ff" stroke="#63b8ff" points="950.8,-218.28 959.05,-211.63 948.46,-211.68 950.8,-218.28"/>
</a>
</g>
</g>
<!-- Node5 -->
<g id="Node000005" class="node">
<title>Node5</title>
<g id="a_Node000005"><a xlink:title=" ">
<polygon fill="#e0e0e0" stroke="#999999" points="1098.06,-211.5 1019.06,-211.5 1019.06,-192.5 1098.06,-192.5 1098.06,-211.5"/>
<text text-anchor="middle" x="1058.56" y="-199.5" font-family="Helvetica,sans-Serif" font-size="10.00">fmt/format.h</text>
</a>
</g>
</g>
<!-- Node1&#45;&gt;Node5 -->
<g id="edge4_Node000001_Node000005" class="edge">
<title>Node1&#45;&gt;Node5</title>
<g id="a_edge4_Node000001_Node000005"><a xlink:title=" ">
<path fill="none" stroke="#63b8ff" d="M573.31,-264.31C668.4,-259.42 854.35,-246.7 1009.56,-217 1013.72,-216.2 1018.03,-215.22 1022.29,-214.14"/>
<polygon fill="#63b8ff" stroke="#63b8ff" points="1023.32,-217.49 1032.07,-211.5 1021.5,-210.73 1023.32,-217.49"/>
</a>
</g>
</g>
<!-- Node6 -->
<g id="Node000006" class="node">
<title>Node6</title>
<g id="a_Node000006"><a xlink:href="../../da/d00/universal_2include_2userver_2formats_2common_2meta_8hpp.html" target="_top" xlink:title="Metaprogramming helpers for converters detection.">
<polygon fill="white" stroke="#666666" points="900.56,-217 760.56,-217 760.56,-187 900.56,-187 900.56,-217"/>
<text text-anchor="start" x="768.56" y="-205" font-family="Helvetica,sans-Serif" font-size="10.00">userver/formats/common</text>
<text text-anchor="middle" x="830.56" y="-194" font-family="Helvetica,sans-Serif" font-size="10.00">/meta.hpp</text>
</a>
</g>
</g>
<!-- Node1&#45;&gt;Node6 -->
<g id="edge5_Node000001_Node000006" class="edge">
<title>Node1&#45;&gt;Node6</title>
<g id="a_edge5_Node000001_Node000006"><a xlink:title=" ">
<path fill="none" stroke="#63b8ff" d="M573.4,-254.43C624.04,-244.31 695.56,-230 750.33,-219.05"/>
<polygon fill="#63b8ff" stroke="#63b8ff" points="751.24,-222.43 760.36,-217.04 749.86,-215.57 751.24,-222.43"/>
</a>
</g>
</g>
<!-- Node8 -->
<g id="Node000008" class="node">
<title>Node8</title>
<g id="a_Node000008"><a xlink:href="../../d2/dc8/universal_2include_2userver_2formats_2parse_2to_8hpp.html" target="_top" xlink:title="Helper for parsers.">
<polygon fill="white" stroke="#666666" points="1222.06,-151 1097.06,-151 1097.06,-121 1222.06,-121 1222.06,-151"/>
<text text-anchor="start" x="1105.06" y="-139" font-family="Helvetica,sans-Serif" font-size="10.00">userver/formats/parse</text>
<text text-anchor="middle" x="1159.56" y="-128" font-family="Helvetica,sans-Serif" font-size="10.00">/to.hpp</text>
</a>
</g>
</g>
<!-- Node1&#45;&gt;Node8 -->
<g id="edge13_Node000001_Node000008" class="edge">
<title>Node1&#45;&gt;Node8</title>
<g id="a_edge13_Node000001_Node000008"><a xlink:title=" ">
<path fill="none" stroke="#63b8ff" d="M573.43,-263.25C670.11,-256.78 850.32,-241.8 909.56,-217 929.41,-208.69 928.19,-196.36 947.56,-187 960.31,-180.84 1030.69,-164.78 1086.92,-152.51"/>
<polygon fill="#63b8ff" stroke="#63b8ff" points="1087.85,-155.88 1096.87,-150.34 1086.36,-149.04 1087.85,-155.88"/>
</a>
</g>
</g>
<!-- Node12 -->
<g id="Node000012" class="node">
<title>Node12</title>
<g id="a_Node000012"><a xlink:href="../../d7/d4a/datetime_8hpp.html" target="_top" xlink:title="Date and Time related converters.">
<polygon fill="white" stroke="#666666" points="495.56,-211.5 349.56,-211.5 349.56,-192.5 495.56,-192.5 495.56,-211.5"/>
<text text-anchor="middle" x="422.56" y="-199.5" font-family="Helvetica,sans-Serif" font-size="10.00">userver/utils/datetime.hpp</text>
</a>
</g>
</g>
<!-- Node1&#45;&gt;Node12 -->
<g id="edge14_Node000001_Node000012" class="edge">
<title>Node1&#45;&gt;Node12</title>
<g id="a_edge14_Node000001_Node000012"><a xlink:title=" ">
<path fill="none" stroke="#63b8ff" d="M491.03,-252.8C476.69,-242.37 457.26,-228.24 442.77,-217.69"/>
<polygon fill="#63b8ff" stroke="#63b8ff" points="444.61,-214.71 434.47,-211.66 440.5,-220.37 444.61,-214.71"/>
</a>
</g>
</g>
<!-- Node17 -->
<g id="Node000017" class="node">
<title>Node17</title>
<g id="a_Node000017"><a xlink:href="../../dd/d10/from__string__saturating_8hpp.html" target="_top" xlink:title="Saturating converters from strings to time points.">
<polygon fill="white" stroke="#666666" points="167.56,-217 15.56,-217 15.56,-187 167.56,-187 167.56,-217"/>
<text text-anchor="start" x="23.56" y="-205" font-family="Helvetica,sans-Serif" font-size="10.00">userver/utils/datetime</text>
<text text-anchor="middle" x="91.56" y="-194" font-family="Helvetica,sans-Serif" font-size="10.00">/from_string_saturating.hpp</text>
</a>
</g>
</g>
<!-- Node1&#45;&gt;Node17 -->
<g id="edge21_Node000001_Node000017" class="edge">
<title>Node1&#45;&gt;Node17</title>
<g id="a_edge21_Node000001_Node000017"><a xlink:title=" ">
<path fill="none" stroke="#63b8ff" d="M448.04,-257.92C383.06,-248.42 278.15,-232.9 178,-217.21"/>
<polygon fill="#63b8ff" stroke="#63b8ff" points="178.43,-213.74 168.01,-215.65 177.35,-220.65 178.43,-213.74"/>
</a>
</g>
</g>
<!-- Node18 -->
<g id="Node000018" class="node">
<title>Node18</title>
<g id="a_Node000018"><a xlink:href="../../d0/d03/universal_2include_2userver_2utils_2meta_8hpp.html" target="_top" xlink:title="Metaprogramming, template variables and concepts.">
<polygon fill="white" stroke="#666666" points="662.06,-211.5 535.06,-211.5 535.06,-192.5 662.06,-192.5 662.06,-211.5"/>
<text text-anchor="middle" x="598.56" y="-199.5" font-family="Helvetica,sans-Serif" font-size="10.00">userver/utils/meta.hpp</text>
</a>
</g>
</g>
<!-- Node1&#45;&gt;Node18 -->
<g id="edge24_Node000001_Node000018" class="edge">
<title>Node1&#45;&gt;Node18</title>
<g id="a_edge24_Node000001_Node000018"><a xlink:title=" ">
<path fill="none" stroke="#63b8ff" d="M530.09,-252.8C544.43,-242.37 563.86,-228.24 578.36,-217.69"/>
<polygon fill="#63b8ff" stroke="#63b8ff" points="580.63,-220.37 586.66,-211.66 576.51,-214.71 580.63,-220.37"/>
</a>
</g>
</g>
<!-- Node22 -->
<g id="Node000022" class="node">
<title>Node22</title>
<g id="a_Node000022"><a xlink:href="../../dc/dff/string__to__duration_8hpp.html" target="_top" xlink:title="Converts strings like &quot;10s&quot;, &quot;5d&quot;, &quot;1h&quot; to durations.">
<polygon fill="white" stroke="#666666" points="293.56,-217 185.56,-217 185.56,-187 293.56,-187 293.56,-217"/>
<text text-anchor="start" x="193.56" y="-205" font-family="Helvetica,sans-Serif" font-size="10.00">userver/utils/string</text>
<text text-anchor="middle" x="239.56" y="-194" font-family="Helvetica,sans-Serif" font-size="10.00">_to_duration.hpp</text>
</a>
</g>
</g>
<!-- Node1&#45;&gt;Node22 -->
<g id="edge31_Node000001_Node000022" class="edge">
<title>Node1&#45;&gt;Node22</title>
<g id="a_edge31_Node000001_Node000022"><a xlink:title=" ">
<path fill="none" stroke="#63b8ff" d="M451.09,-252.95C407.49,-242.66 348.36,-228.69 303.7,-218.15"/>
<polygon fill="#63b8ff" stroke="#63b8ff" points="304.37,-214.71 293.83,-215.82 302.76,-221.52 304.37,-214.71"/>
</a>
</g>
</g>
<!-- Node7 -->
<g id="Node000007" class="node">
<title>Node7</title>
<g id="a_Node000007"><a xlink:title=" ">
<polygon fill="#e0e0e0" stroke="#999999" points="846.06,-19 777.06,-19 777.06,0 846.06,0 846.06,-19"/>
<text text-anchor="middle" x="811.56" y="-7" font-family="Helvetica,sans-Serif" font-size="10.00">type_traits</text>
</a>
</g>
</g>
<!-- Node6&#45;&gt;Node7 -->
<g id="edge6_Node000006_Node000007" class="edge">
<title>Node6&#45;&gt;Node7</title>
<g id="a_edge6_Node000006_Node000007"><a xlink:title=" ">
<path fill="none" stroke="#63b8ff" d="M857.44,-186.96C870.62,-178.49 885.22,-166.34 892.56,-151 898.31,-138.97 896.49,-133.74 892.56,-121 880.55,-82.07 848.36,-45.77 828.36,-26.01"/>
<polygon fill="#63b8ff" stroke="#63b8ff" points="830.75,-23.45 821.12,-19.05 825.9,-28.5 830.75,-23.45"/>
</a>
</g>
</g>
<!-- Node6&#45;&gt;Node8 -->
<g id="edge7_Node000006_Node000008" class="edge">
<title>Node6&#45;&gt;Node8</title>
<g id="a_edge7_Node000006_Node000008"><a xlink:title=" ">
<path fill="none" stroke="#63b8ff" d="M900.66,-187.48C950.12,-177.92 1018.23,-164.74 1086.74,-151.35"/>
<polygon fill="#63b8ff" stroke="#63b8ff" points="1087.7,-154.73 1096.84,-149.38 1086.36,-147.86 1087.7,-154.73"/>
</a>
</g>
</g>
<!-- Node9 -->
<g id="Node000009" class="node">
<title>Node9</title>
<g id="a_Node000009"><a xlink:href="../../d6/d8e/universal_2include_2userver_2formats_2serialize_2to_8hpp.html" target="_top" xlink:title="Helper for serializers.">
<polygon fill="white" stroke="#666666" points="1079.06,-151 940.06,-151 940.06,-121 1079.06,-121 1079.06,-151"/>
<text text-anchor="start" x="948.06" y="-139" font-family="Helvetica,sans-Serif" font-size="10.00">userver/formats/serialize</text>
<text text-anchor="middle" x="1009.56" y="-128" font-family="Helvetica,sans-Serif" font-size="10.00">/to.hpp</text>
</a>
</g>
</g>
<!-- Node6&#45;&gt;Node9 -->
<g id="edge8_Node000006_Node000009" class="edge">
<title>Node6&#45;&gt;Node9</title>
<g id="a_edge8_Node000006_Node000009"><a xlink:title=" ">
<path fill="none" stroke="#63b8ff" d="M869.84,-186.95C896.54,-177.41 932.05,-164.71 960.59,-154.51"/>
<polygon fill="#63b8ff" stroke="#63b8ff" points="962.13,-157.67 970.37,-151.01 959.78,-151.08 962.13,-157.67"/>
</a>
</g>
</g>
<!-- Node10 -->
<g id="Node000010" class="node">
<title>Node10</title>
<g id="a_Node000010"><a xlink:href="../../d3/da0/meta__light_8hpp.html" target="_top" xlink:title="Lightweight concepts.">
<polygon fill="white" stroke="#666666" points="883.56,-151 777.56,-151 777.56,-121 883.56,-121 883.56,-151"/>
<text text-anchor="start" x="785.56" y="-139" font-family="Helvetica,sans-Serif" font-size="10.00">userver/utils/meta</text>
<text text-anchor="middle" x="830.56" y="-128" font-family="Helvetica,sans-Serif" font-size="10.00">_light.hpp</text>
</a>
</g>
</g>
<!-- Node6&#45;&gt;Node10 -->
<g id="edge9_Node000006_Node000010" class="edge">
<title>Node6&#45;&gt;Node10</title>
<g id="a_edge9_Node000006_Node000010"><a xlink:title=" ">
<path fill="none" stroke="#63b8ff" d="M830.56,-186.8C830.56,-179.34 830.56,-169.99 830.56,-161.41"/>
<polygon fill="#63b8ff" stroke="#63b8ff" points="834.06,-161.16 830.56,-151.16 827.06,-161.16 834.06,-161.16"/>
</a>
</g>
</g>
<!-- Node10&#45;&gt;Node7 -->
<g id="edge10_Node000010_Node000007" class="edge">
<title>Node10&#45;&gt;Node7</title>
<g id="a_edge10_Node000010_Node000007"><a xlink:title=" ">
<path fill="none" stroke="#63b8ff" d="M832.96,-120.92C835.24,-104.79 837.64,-77.64 832.56,-55 830.49,-45.74 826.26,-36.14 822.14,-28.23"/>
<polygon fill="#63b8ff" stroke="#63b8ff" points="825.07,-26.31 817.14,-19.28 818.96,-29.72 825.07,-26.31"/>
</a>
</g>
</g>
<!-- Node11 -->
<g id="Node000011" class="node">
<title>Node11</title>
<g id="a_Node000011"><a xlink:href="../../d9/dce/void__t_8hpp.html" target="_top" xlink:title="std::void_t implementation with workarounds for compiler bugs">
<polygon fill="white" stroke="#666666" points="823.06,-85 722.06,-85 722.06,-55 823.06,-55 823.06,-85"/>
<text text-anchor="start" x="730.06" y="-73" font-family="Helvetica,sans-Serif" font-size="10.00">userver/utils/void</text>
<text text-anchor="middle" x="772.56" y="-62" font-family="Helvetica,sans-Serif" font-size="10.00">_t.hpp</text>
</a>
</g>
</g>
<!-- Node10&#45;&gt;Node11 -->
<g id="edge11_Node000010_Node000011" class="edge">
<title>Node10&#45;&gt;Node11</title>
<g id="a_edge11_Node000010_Node000011"><a xlink:title=" ">
<path fill="none" stroke="#63b8ff" d="M817.69,-120.8C810.18,-112.51 800.56,-101.89 792.13,-92.59"/>
<polygon fill="#63b8ff" stroke="#63b8ff" points="794.71,-90.22 785.4,-85.16 789.52,-94.92 794.71,-90.22"/>
</a>
</g>
</g>
<!-- Node11&#45;&gt;Node7 -->
<g id="edge12_Node000011_Node000007" class="edge">
<title>Node11&#45;&gt;Node7</title>
<g id="a_edge12_Node000011_Node000007"><a xlink:title=" ">
<path fill="none" stroke="#63b8ff" d="M782,-54.84C787.43,-46.69 794.3,-36.4 800.04,-27.78"/>
<polygon fill="#63b8ff" stroke="#63b8ff" points="803.08,-29.53 805.72,-19.27 797.26,-25.65 803.08,-29.53"/>
</a>
</g>
</g>
<!-- Node12&#45;&gt;Node2 -->
<g id="edge15_Node000012_Node000002" class="edge">
<title>Node12&#45;&gt;Node2</title>
<g id="a_edge15_Node000012_Node000002"><a xlink:title=" ">
<path fill="none" stroke="#63b8ff" d="M362.22,-192.47C288.7,-181.8 168.92,-163.41 125.56,-151 123.67,-150.46 121.75,-149.85 119.82,-149.19"/>
<polygon fill="#63b8ff" stroke="#63b8ff" points="120.95,-145.87 110.36,-145.62 118.48,-152.42 120.95,-145.87"/>
</a>
</g>
</g>
<!-- Node12&#45;&gt;Node3 -->
<g id="edge16_Node000012_Node000003" class="edge">
<title>Node12&#45;&gt;Node3</title>
<g id="a_edge16_Node000012_Node000003"><a xlink:title=" ">
<path fill="none" stroke="#63b8ff" d="M390.55,-192.44C356.71,-183.15 301.91,-167.44 255.56,-151 254.13,-150.49 252.68,-149.96 251.21,-149.41"/>
<polygon fill="#63b8ff" stroke="#63b8ff" points="252.16,-146.02 241.57,-145.63 249.6,-152.54 252.16,-146.02"/>
</a>
</g>
</g>
<!-- Node13 -->
<g id="Node000013" class="node">
<title>Node13</title>
<g id="a_Node000013"><a xlink:title=" ">
<polygon fill="#e0e0e0" stroke="#999999" points="518.56,-145.5 462.56,-145.5 462.56,-126.5 518.56,-126.5 518.56,-145.5"/>
<text text-anchor="middle" x="490.56" y="-133.5" font-family="Helvetica,sans-Serif" font-size="10.00">optional</text>
</a>
</g>
</g>
<!-- Node12&#45;&gt;Node13 -->
<g id="edge17_Node000012_Node000013" class="edge">
<title>Node12&#45;&gt;Node13</title>
<g id="a_edge17_Node000012_Node000013"><a xlink:title=" ">
<path fill="none" stroke="#63b8ff" d="M431.73,-192.37C442.42,-182.31 460.3,-165.48 473.55,-153.01"/>
<polygon fill="#63b8ff" stroke="#63b8ff" points="476.22,-155.31 481.1,-145.91 471.42,-150.21 476.22,-155.31"/>
</a>
</g>
</g>
<!-- Node14 -->
<g id="Node000014" class="node">
<title>Node14</title>
<g id="a_Node000014"><a xlink:title=" ">
<polygon fill="#e0e0e0" stroke="#999999" points="330.06,-145.5 265.06,-145.5 265.06,-126.5 330.06,-126.5 330.06,-145.5"/>
<text text-anchor="middle" x="297.56" y="-133.5" font-family="Helvetica,sans-Serif" font-size="10.00">stdexcept</text>
</a>
</g>
</g>
<!-- Node12&#45;&gt;Node14 -->
<g id="edge18_Node000012_Node000014" class="edge">
<title>Node12&#45;&gt;Node14</title>
<g id="a_edge18_Node000012_Node000014"><a xlink:title=" ">
<path fill="none" stroke="#63b8ff" d="M405.7,-192.37C384.64,-181.59 348.38,-163.02 323.7,-150.38"/>
<polygon fill="#63b8ff" stroke="#63b8ff" points="325.05,-147.14 314.55,-145.7 321.86,-153.37 325.05,-147.14"/>
</a>
</g>
</g>
<!-- Node15 -->
<g id="Node000015" class="node">
<title>Node15</title>
<g id="a_Node000015"><a xlink:title=" ">
<polygon fill="#e0e0e0" stroke="#999999" points="178.56,-145.5 134.56,-145.5 134.56,-126.5 178.56,-126.5 178.56,-145.5"/>
<text text-anchor="middle" x="156.56" y="-133.5" font-family="Helvetica,sans-Serif" font-size="10.00">string</text>
</a>
</g>
</g>
<!-- Node12&#45;&gt;Node15 -->
<g id="edge19_Node000012_Node000015" class="edge">
<title>Node12&#45;&gt;Node15</title>
<g id="a_edge19_Node000012_Node000015"><a xlink:title=" ">
<path fill="none" stroke="#63b8ff" d="M366.12,-192.49C317.95,-184.41 247.21,-170.56 187.56,-151 186.12,-150.53 184.66,-150.01 183.2,-149.46"/>
<polygon fill="#63b8ff" stroke="#63b8ff" points="184.26,-146.11 173.68,-145.52 181.58,-152.58 184.26,-146.11"/>
</a>
</g>
</g>
<!-- Node16 -->
<g id="Node000016" class="node">
<title>Node16</title>
<g id="a_Node000016"><a xlink:title=" ">
<polygon fill="#e0e0e0" stroke="#999999" points="444.56,-145.5 348.56,-145.5 348.56,-126.5 444.56,-126.5 444.56,-145.5"/>
<text text-anchor="middle" x="396.56" y="-133.5" font-family="Helvetica,sans-Serif" font-size="10.00">cctz/civil_time.h</text>
</a>
</g>
</g>
<!-- Node12&#45;&gt;Node16 -->
<g id="edge20_Node000012_Node000016" class="edge">
<title>Node12&#45;&gt;Node16</title>
<g id="a_edge20_Node000012_Node000016"><a xlink:title=" ">
<path fill="none" stroke="#63b8ff" d="M419.06,-192.37C415.24,-182.97 409.02,-167.67 404.09,-155.53"/>
<polygon fill="#63b8ff" stroke="#63b8ff" points="407.19,-153.85 400.18,-145.91 400.7,-156.49 407.19,-153.85"/>
</a>
</g>
</g>
<!-- Node17&#45;&gt;Node2 -->
<g id="edge22_Node000017_Node000002" class="edge">
<title>Node17&#45;&gt;Node2</title>
<g id="a_edge22_Node000017_Node000002"><a xlink:title=" ">
<path fill="none" stroke="#63b8ff" d="M91.56,-186.8C91.56,-177.7 91.56,-165.79 91.56,-155.9"/>
<polygon fill="#63b8ff" stroke="#63b8ff" points="95.06,-155.84 91.56,-145.84 88.06,-155.84 95.06,-155.84"/>
</a>
</g>
</g>
<!-- Node17&#45;&gt;Node15 -->
<g id="edge23_Node000017_Node000015" class="edge">
<title>Node17&#45;&gt;Node15</title>
<g id="a_edge23_Node000017_Node000015"><a xlink:title=" ">
<path fill="none" stroke="#63b8ff" d="M105.99,-186.8C116.12,-176.82 129.69,-163.46 140.22,-153.09"/>
<polygon fill="#63b8ff" stroke="#63b8ff" points="142.91,-155.35 147.58,-145.84 138,-150.37 142.91,-155.35"/>
</a>
</g>
</g>
<!-- Node18&#45;&gt;Node7 -->
<g id="edge28_Node000018_Node000007" class="edge">
<title>Node18&#45;&gt;Node7</title>
<g id="a_edge28_Node000018_Node000007"><a xlink:title=" ">
<path fill="none" stroke="#63b8ff" d="M589.57,-192.08C575.21,-176.74 550.22,-144.71 565.56,-121 610.19,-52.03 709.21,-25.69 767.09,-15.95"/>
<polygon fill="#63b8ff" stroke="#63b8ff" points="767.73,-19.39 777.05,-14.37 766.63,-12.48 767.73,-19.39"/>
</a>
</g>
</g>
<!-- Node18&#45;&gt;Node10 -->
<g id="edge30_Node000018_Node000010" class="edge">
<title>Node18&#45;&gt;Node10</title>
<g id="a_edge30_Node000018_Node000010"><a xlink:title=" ">
<path fill="none" stroke="#63b8ff" d="M629.85,-192.37C665.5,-182.54 724.61,-166.23 769.47,-153.85"/>
<polygon fill="#63b8ff" stroke="#63b8ff" points="770.68,-157.15 779.39,-151.12 768.82,-150.4 770.68,-157.15"/>
</a>
</g>
</g>
<!-- Node18&#45;&gt;Node13 -->
<g id="edge27_Node000018_Node000013" class="edge">
<title>Node18&#45;&gt;Node13</title>
<g id="a_edge27_Node000018_Node000013"><a xlink:title=" ">
<path fill="none" stroke="#63b8ff" d="M584,-192.37C566.04,-181.73 535.3,-163.51 514,-150.89"/>
<polygon fill="#63b8ff" stroke="#63b8ff" points="515.63,-147.79 505.24,-145.7 512.06,-153.81 515.63,-147.79"/>
</a>
</g>
</g>
<!-- Node19 -->
<g id="Node000019" class="node">
<title>Node19</title>
<g id="a_Node000019"><a xlink:title=" ">
<polygon fill="#e0e0e0" stroke="#999999" points="622.56,-145.5 574.56,-145.5 574.56,-126.5 622.56,-126.5 622.56,-145.5"/>
<text text-anchor="middle" x="598.56" y="-133.5" font-family="Helvetica,sans-Serif" font-size="10.00">iosfwd</text>
</a>
</g>
</g>
<!-- Node18&#45;&gt;Node19 -->
<g id="edge25_Node000018_Node000019" class="edge">
<title>Node18&#45;&gt;Node19</title>
<g id="a_edge25_Node000018_Node000019"><a xlink:title=" ">
<path fill="none" stroke="#63b8ff" d="M598.56,-192.37C598.56,-183.16 598.56,-168.29 598.56,-156.27"/>
<polygon fill="#63b8ff" stroke="#63b8ff" points="602.06,-155.91 598.56,-145.91 595.06,-155.91 602.06,-155.91"/>
</a>
</g>
</g>
<!-- Node20 -->
<g id="Node000020" class="node">
<title>Node20</title>
<g id="a_Node000020"><a xlink:title=" ">
<polygon fill="#e0e0e0" stroke="#999999" points="694.06,-145.5 641.06,-145.5 641.06,-126.5 694.06,-126.5 694.06,-145.5"/>
<text text-anchor="middle" x="667.56" y="-133.5" font-family="Helvetica,sans-Serif" font-size="10.00">iterator</text>
</a>
</g>
</g>
<!-- Node18&#45;&gt;Node20 -->
<g id="edge26_Node000018_Node000020" class="edge">
<title>Node18&#45;&gt;Node20</title>
<g id="a_edge26_Node000018_Node000020"><a xlink:title=" ">
<path fill="none" stroke="#63b8ff" d="M607.87,-192.37C618.71,-182.31 636.86,-165.48 650.3,-153.01"/>
<polygon fill="#63b8ff" stroke="#63b8ff" points="653.01,-155.27 657.96,-145.91 648.25,-150.14 653.01,-155.27"/>
</a>
</g>
</g>
<!-- Node21 -->
<g id="Node000021" class="node">
<title>Node21</title>
<g id="a_Node000021"><a xlink:title=" ">
<polygon fill="#e0e0e0" stroke="#999999" points="759.06,-145.5 712.06,-145.5 712.06,-126.5 759.06,-126.5 759.06,-145.5"/>
<text text-anchor="middle" x="735.56" y="-133.5" font-family="Helvetica,sans-Serif" font-size="10.00">vector</text>
</a>
</g>
</g>
<!-- Node18&#45;&gt;Node21 -->
<g id="edge29_Node000018_Node000021" class="edge">
<title>Node18&#45;&gt;Node21</title>
<g id="a_edge29_Node000018_Node000021"><a xlink:title=" ">
<path fill="none" stroke="#63b8ff" d="M617.04,-192.37C640.33,-181.49 680.57,-162.69 707.63,-150.05"/>
<polygon fill="#63b8ff" stroke="#63b8ff" points="709.36,-153.1 716.94,-145.7 706.4,-146.76 709.36,-153.1"/>
</a>
</g>
</g>
<!-- Node22&#45;&gt;Node2 -->
<g id="edge32_Node000022_Node000002" class="edge">
<title>Node22&#45;&gt;Node2</title>
<g id="a_edge32_Node000022_Node000002"><a xlink:title=" ">
<path fill="none" stroke="#63b8ff" d="M207.08,-186.95C181.24,-175.78 145.41,-160.29 120.54,-149.53"/>
<polygon fill="#63b8ff" stroke="#63b8ff" points="121.83,-146.27 111.26,-145.52 119.05,-152.7 121.83,-146.27"/>
</a>
</g>
</g>
<!-- Node22&#45;&gt;Node15 -->
<g id="edge33_Node000022_Node000015" class="edge">
<title>Node22&#45;&gt;Node15</title>
<g id="a_edge33_Node000022_Node000015"><a xlink:title=" ">
<path fill="none" stroke="#63b8ff" d="M221.14,-186.8C207.82,-176.53 189.85,-162.67 176.25,-152.18"/>
<polygon fill="#63b8ff" stroke="#63b8ff" points="178.09,-149.18 168.03,-145.84 173.81,-154.72 178.09,-149.18"/>
</a>
</g>
</g>
</g>
</svg>
