<?xml version="1.0" encoding="UTF-8" standalone="no"?>
<!DOCTYPE svg PUBLIC "-//W3C//DTD SVG 1.1//EN"
 "http://www.w3.org/Graphics/SVG/1.1/DTD/svg11.dtd">
<!-- Generated by graphviz version 2.43.0 (0)
 -->
<!-- Title: userver/utils/statistics/metric_value.hpp Pages: 1 -->
<svg width="1681pt" height="225pt"
 viewBox="0.00 0.00 1681.00 225.00" xmlns="http://www.w3.org/2000/svg" xmlns:xlink="http://www.w3.org/1999/xlink">
<g id="graph0" class="graph" transform="scale(1 1) rotate(0) translate(4 221)">
<title>userver/utils/statistics/metric_value.hpp</title>
<!-- Node1 -->
<g id="Node000001" class="node">
<title>Node1</title>
<g id="a_Node000001"><a xlink:title="The value of a metric.">
<polygon fill="#999999" stroke="#666666" points="1001,-217 876,-217 876,-187 1001,-187 1001,-217"/>
<text text-anchor="start" x="884" y="-205" font-family="Helvetica,sans-Serif" font-size="10.00">userver/utils/statistics</text>
<text text-anchor="middle" x="938.5" y="-194" font-family="Helvetica,sans-Serif" font-size="10.00">/metric_value.hpp</text>
</a>
</g>
</g>
<!-- Node2 -->
<g id="Node000002" class="node">
<title>Node2</title>
<g id="a_Node000002"><a xlink:href="../../dd/d85/fmt_8hpp.html" target="_top" xlink:title="fmt formatters for various statistics types">
<polygon fill="white" stroke="#666666" points="858,-151 733,-151 733,-121 858,-121 858,-151"/>
<text text-anchor="start" x="741" y="-139" font-family="Helvetica,sans-Serif" font-size="10.00">userver/utils/statistics</text>
<text text-anchor="middle" x="795.5" y="-128" font-family="Helvetica,sans-Serif" font-size="10.00">/fmt.hpp</text>
</a>
</g>
</g>
<!-- Node1&#45;&gt;Node2 -->
<g id="edge1_Node000001_Node000002" class="edge">
<title>Node1&#45;&gt;Node2</title>
<g id="a_edge1_Node000001_Node000002"><a xlink:title=" ">
<path fill="none" stroke="#63b8ff" d="M897.8,-182.78C875.25,-172.69 847.66,-160.34 826.81,-151.01"/>
<polygon fill="#63b8ff" stroke="#63b8ff" points="896.56,-186.06 907.12,-186.95 899.42,-179.68 896.56,-186.06"/>
</a>
</g>
</g>
<!-- Node3 -->
<g id="Node000003" class="node">
<title>Node3</title>
<g id="a_Node000003"><a xlink:href="../../d4/d9a/utils_2statistics_2storage_8hpp.html" target="_top" xlink:title=" ">
<polygon fill="white" stroke="#666666" points="1001,-151 876,-151 876,-121 1001,-121 1001,-151"/>
<text text-anchor="start" x="884" y="-139" font-family="Helvetica,sans-Serif" font-size="10.00">userver/utils/statistics</text>
<text text-anchor="middle" x="938.5" y="-128" font-family="Helvetica,sans-Serif" font-size="10.00">/storage.hpp</text>
</a>
</g>
</g>
<!-- Node1&#45;&gt;Node3 -->
<g id="edge2_Node000001_Node000003" class="edge">
<title>Node1&#45;&gt;Node3</title>
<g id="a_edge2_Node000001_Node000003"><a xlink:title=" ">
<path fill="none" stroke="#63b8ff" d="M938.5,-176.54C938.5,-167.96 938.5,-158.61 938.5,-151.16"/>
<polygon fill="#63b8ff" stroke="#63b8ff" points="935,-176.8 938.5,-186.8 942,-176.8 935,-176.8"/>
</a>
</g>
</g>
<!-- Node15 -->
<g id="Node000015" class="node">
<title>Node15</title>
<g id="a_Node000015"><a xlink:href="../../d2/da2/testing_8hpp_source.html" target="_top" xlink:title=" ">
<polygon fill="white" stroke="#666666" points="1673,-85 1548,-85 1548,-55 1673,-55 1673,-85"/>
<text text-anchor="start" x="1556" y="-73" font-family="Helvetica,sans-Serif" font-size="10.00">userver/utils/statistics</text>
<text text-anchor="middle" x="1610.5" y="-62" font-family="Helvetica,sans-Serif" font-size="10.00">/testing.hpp</text>
</a>
</g>
</g>
<!-- Node1&#45;&gt;Node15 -->
<g id="edge16_Node000001_Node000015" class="edge">
<title>Node1&#45;&gt;Node15</title>
<g id="a_edge16_Node000001_Node000015"><a xlink:title=" ">
<path fill="none" stroke="#63b8ff" d="M1011.03,-187C1123.85,-165.23 1348.17,-121.9 1538.5,-85 1541.5,-84.42 1544.57,-83.82 1547.67,-83.22"/>
<polygon fill="#63b8ff" stroke="#63b8ff" points="1010.28,-183.58 1001.13,-188.91 1011.61,-190.46 1010.28,-183.58"/>
</a>
</g>
</g>
<!-- Node4 -->
<g id="Node000004" class="node">
<title>Node4</title>
<g id="a_Node000004"><a xlink:href="../../d6/d3a/core_2include_2userver_2components_2statistics__storage_8hpp.html" target="_top" xlink:title="Component that keeps a utils::statistics::Storage storage for metrics.">
<polygon fill="white" stroke="#666666" points="127,-85 0,-85 0,-55 127,-55 127,-85"/>
<text text-anchor="start" x="8" y="-73" font-family="Helvetica,sans-Serif" font-size="10.00">userver/components</text>
<text text-anchor="middle" x="63.5" y="-62" font-family="Helvetica,sans-Serif" font-size="10.00">/statistics_storage.hpp</text>
</a>
</g>
</g>
<!-- Node3&#45;&gt;Node4 -->
<g id="edge3_Node000003_Node000004" class="edge">
<title>Node3&#45;&gt;Node4</title>
<g id="a_edge3_Node000003_Node000004"><a xlink:title=" ">
<path fill="none" stroke="#63b8ff" d="M865.61,-121.04C541.81,-82.72 455.11,-123.74 135.5,-85 132.72,-84.66 129.88,-84.28 127.03,-83.86"/>
<polygon fill="#63b8ff" stroke="#63b8ff" points="865.41,-124.54 875.76,-122.25 866.24,-117.59 865.41,-124.54"/>
</a>
</g>
</g>
<!-- Node5 -->
<g id="Node000005" class="node">
<title>Node5</title>
<g id="a_Node000005"><a xlink:href="../../d2/d2e/clickhouse_2include_2userver_2storages_2clickhouse_2component_8hpp.html" target="_top" xlink:title="ClickHouse client component.">
<polygon fill="white" stroke="#666666" points="298,-85 145,-85 145,-55 298,-55 298,-85"/>
<text text-anchor="start" x="153" y="-73" font-family="Helvetica,sans-Serif" font-size="10.00">userver/storages/clickhouse</text>
<text text-anchor="middle" x="221.5" y="-62" font-family="Helvetica,sans-Serif" font-size="10.00">/component.hpp</text>
</a>
</g>
</g>
<!-- Node3&#45;&gt;Node5 -->
<g id="edge4_Node000003_Node000005" class="edge">
<title>Node3&#45;&gt;Node5</title>
<g id="a_edge4_Node000003_Node000005"><a xlink:title=" ">
<path fill="none" stroke="#63b8ff" d="M865.7,-121.03C617.4,-89.76 551.02,-112.93 306.5,-85 303.83,-84.69 301.11,-84.36 298.36,-84.01"/>
<polygon fill="#63b8ff" stroke="#63b8ff" points="865.39,-124.51 875.75,-122.31 866.27,-117.57 865.39,-124.51"/>
</a>
</g>
</g>
<!-- Node7 -->
<g id="Node000007" class="node">
<title>Node7</title>
<g id="a_Node000007"><a xlink:href="../../d5/df6/rabbitmq_2include_2userver_2urabbitmq_2component_8hpp.html" target="_top" xlink:title="RabbitMQ (AMQP 0.9.1) client component.">
<polygon fill="white" stroke="#666666" points="501,-79.5 316,-79.5 316,-60.5 501,-60.5 501,-79.5"/>
<text text-anchor="middle" x="408.5" y="-67.5" font-family="Helvetica,sans-Serif" font-size="10.00">userver/urabbitmq/component.hpp</text>
</a>
</g>
</g>
<!-- Node3&#45;&gt;Node7 -->
<g id="edge6_Node000003_Node000007" class="edge">
<title>Node3&#45;&gt;Node7</title>
<g id="a_edge6_Node000003_Node000007"><a xlink:title=" ">
<path fill="none" stroke="#63b8ff" d="M865.61,-120.96C707.01,-98 664.59,-103.56 509.5,-85 495.79,-83.36 481.06,-81.42 467.2,-79.51"/>
<polygon fill="#63b8ff" stroke="#63b8ff" points="865.33,-124.46 875.73,-122.44 866.34,-117.53 865.33,-124.46"/>
</a>
</g>
</g>
<!-- Node9 -->
<g id="Node000009" class="node">
<title>Node9</title>
<g id="a_Node000009"><a xlink:href="../../dd/da6/statistics_2graphite_8hpp.html" target="_top" xlink:title="Statistics output in Graphite format.">
<polygon fill="white" stroke="#666666" points="644,-85 519,-85 519,-55 644,-55 644,-85"/>
<text text-anchor="start" x="527" y="-73" font-family="Helvetica,sans-Serif" font-size="10.00">userver/utils/statistics</text>
<text text-anchor="middle" x="581.5" y="-62" font-family="Helvetica,sans-Serif" font-size="10.00">/graphite.hpp</text>
</a>
</g>
</g>
<!-- Node3&#45;&gt;Node9 -->
<g id="edge8_Node000003_Node000009" class="edge">
<title>Node3&#45;&gt;Node9</title>
<g id="a_edge8_Node000003_Node000009"><a xlink:title=" ">
<path fill="none" stroke="#63b8ff" d="M865.58,-120.86C769.91,-103.68 744.23,-101.76 652.5,-85 649.78,-84.5 647,-83.99 644.2,-83.46"/>
<polygon fill="#63b8ff" stroke="#63b8ff" points="865.23,-124.36 875.69,-122.69 866.47,-117.47 865.23,-124.36"/>
</a>
</g>
</g>
<!-- Node10 -->
<g id="Node000010" class="node">
<title>Node10</title>
<g id="a_Node000010"><a xlink:href="../../d1/dc7/core_2include_2userver_2utils_2statistics_2json_8hpp.html" target="_top" xlink:title="Statistics output in JSON format.">
<polygon fill="white" stroke="#666666" points="787,-85 662,-85 662,-55 787,-55 787,-85"/>
<text text-anchor="start" x="670" y="-73" font-family="Helvetica,sans-Serif" font-size="10.00">userver/utils/statistics</text>
<text text-anchor="middle" x="724.5" y="-62" font-family="Helvetica,sans-Serif" font-size="10.00">/json.hpp</text>
</a>
</g>
</g>
<!-- Node3&#45;&gt;Node10 -->
<g id="edge9_Node000003_Node000010" class="edge">
<title>Node3&#45;&gt;Node10</title>
<g id="a_edge9_Node000003_Node000010"><a xlink:title=" ">
<path fill="none" stroke="#63b8ff" d="M881.62,-117.99C847.19,-107.69 803.8,-94.72 771.35,-85.01"/>
<polygon fill="#63b8ff" stroke="#63b8ff" points="880.95,-121.44 891.54,-120.95 882.96,-114.74 880.95,-121.44"/>
</a>
</g>
</g>
<!-- Node11 -->
<g id="Node000011" class="node">
<title>Node11</title>
<g id="a_Node000011"><a xlink:href="../../d7/d98/portability__info_8hpp.html" target="_top" xlink:title="Portability reports.">
<polygon fill="white" stroke="#666666" points="930,-85 805,-85 805,-55 930,-55 930,-85"/>
<text text-anchor="start" x="813" y="-73" font-family="Helvetica,sans-Serif" font-size="10.00">userver/utils/statistics</text>
<text text-anchor="middle" x="867.5" y="-62" font-family="Helvetica,sans-Serif" font-size="10.00">/portability_info.hpp</text>
</a>
</g>
</g>
<!-- Node3&#45;&gt;Node11 -->
<g id="edge10_Node000003_Node000011" class="edge">
<title>Node3&#45;&gt;Node11</title>
<g id="a_edge10_Node000003_Node000011"><a xlink:title=" ">
<path fill="none" stroke="#63b8ff" d="M915.12,-113.92C904.65,-104.49 892.58,-93.61 883.21,-85.16"/>
<polygon fill="#63b8ff" stroke="#63b8ff" points="912.97,-116.7 922.74,-120.8 917.66,-111.5 912.97,-116.7"/>
</a>
</g>
</g>
<!-- Node12 -->
<g id="Node000012" class="node">
<title>Node12</title>
<g id="a_Node000012"><a xlink:href="../../d0/d09/pretty__format_8hpp.html" target="_top" xlink:title="Statistics output in human&#45;readable format.">
<polygon fill="white" stroke="#666666" points="1073,-85 948,-85 948,-55 1073,-55 1073,-85"/>
<text text-anchor="start" x="956" y="-73" font-family="Helvetica,sans-Serif" font-size="10.00">userver/utils/statistics</text>
<text text-anchor="middle" x="1010.5" y="-62" font-family="Helvetica,sans-Serif" font-size="10.00">/pretty_format.hpp</text>
</a>
</g>
</g>
<!-- Node3&#45;&gt;Node12 -->
<g id="edge11_Node000003_Node000012" class="edge">
<title>Node3&#45;&gt;Node12</title>
<g id="a_edge11_Node000003_Node000012"><a xlink:title=" ">
<path fill="none" stroke="#63b8ff" d="M962.21,-113.92C972.83,-104.49 985.07,-93.61 994.57,-85.16"/>
<polygon fill="#63b8ff" stroke="#63b8ff" points="959.63,-111.54 954.48,-120.8 964.28,-116.77 959.63,-111.54"/>
</a>
</g>
</g>
<!-- Node13 -->
<g id="Node000013" class="node">
<title>Node13</title>
<g id="a_Node000013"><a xlink:href="../../da/d92/prometheus_8hpp.html" target="_top" xlink:title="Statistics output in Prometheus format.">
<polygon fill="white" stroke="#666666" points="1216,-85 1091,-85 1091,-55 1216,-55 1216,-85"/>
<text text-anchor="start" x="1099" y="-73" font-family="Helvetica,sans-Serif" font-size="10.00">userver/utils/statistics</text>
<text text-anchor="middle" x="1153.5" y="-62" font-family="Helvetica,sans-Serif" font-size="10.00">/prometheus.hpp</text>
</a>
</g>
</g>
<!-- Node3&#45;&gt;Node13 -->
<g id="edge12_Node000003_Node000013" class="edge">
<title>Node3&#45;&gt;Node13</title>
<g id="a_edge12_Node000003_Node000013"><a xlink:title=" ">
<path fill="none" stroke="#63b8ff" d="M995.65,-117.99C1030.24,-107.69 1073.83,-94.72 1106.43,-85.01"/>
<polygon fill="#63b8ff" stroke="#63b8ff" points="994.27,-114.75 985.68,-120.95 996.27,-121.46 994.27,-114.75"/>
</a>
</g>
</g>
<!-- Node14 -->
<g id="Node000014" class="node">
<title>Node14</title>
<g id="a_Node000014"><a xlink:href="../../d4/d70/solomon_8hpp.html" target="_top" xlink:title="Statistics output in Solomon format.">
<polygon fill="white" stroke="#666666" points="1359,-85 1234,-85 1234,-55 1359,-55 1359,-85"/>
<text text-anchor="start" x="1242" y="-73" font-family="Helvetica,sans-Serif" font-size="10.00">userver/utils/statistics</text>
<text text-anchor="middle" x="1296.5" y="-62" font-family="Helvetica,sans-Serif" font-size="10.00">/solomon.hpp</text>
</a>
</g>
</g>
<!-- Node3&#45;&gt;Node14 -->
<g id="edge13_Node000003_Node000014" class="edge">
<title>Node3&#45;&gt;Node14</title>
<g id="a_edge13_Node000003_Node000014"><a xlink:title=" ">
<path fill="none" stroke="#63b8ff" d="M1011.19,-122.68C1069.03,-112.79 1152.02,-98.38 1224.5,-85 1227.51,-84.45 1230.58,-83.87 1233.68,-83.29"/>
<polygon fill="#63b8ff" stroke="#63b8ff" points="1010.32,-119.28 1001.05,-124.42 1011.49,-126.18 1010.32,-119.28"/>
</a>
</g>
</g>
<!-- Node3&#45;&gt;Node15 -->
<g id="edge14_Node000003_Node000015" class="edge">
<title>Node3&#45;&gt;Node15</title>
<g id="a_edge14_Node000003_Node000015"><a xlink:title=" ">
<path fill="none" stroke="#63b8ff" d="M1011.65,-131.48C1124.94,-125.44 1349.49,-111.17 1538.5,-85 1541.53,-84.58 1544.62,-84.12 1547.74,-83.62"/>
<polygon fill="#63b8ff" stroke="#63b8ff" points="1011.17,-128 1001.37,-132.02 1011.54,-134.99 1011.17,-128"/>
</a>
</g>
</g>
<!-- Node16 -->
<g id="Node000016" class="node">
<title>Node16</title>
<g id="a_Node000016"><a xlink:href="../../d1/d84/ydb_2include_2userver_2ydb_2component_8hpp.html" target="_top" xlink:title="YDB client component.">
<polygon fill="white" stroke="#666666" points="1530,-79.5 1377,-79.5 1377,-60.5 1530,-60.5 1530,-79.5"/>
<text text-anchor="middle" x="1453.5" y="-67.5" font-family="Helvetica,sans-Serif" font-size="10.00">userver/ydb/component.hpp</text>
</a>
</g>
</g>
<!-- Node3&#45;&gt;Node16 -->
<g id="edge15_Node000003_Node000016" class="edge">
<title>Node3&#45;&gt;Node16</title>
<g id="a_edge15_Node000003_Node000016"><a xlink:title=" ">
<path fill="none" stroke="#63b8ff" d="M1011.25,-127.54C1096.69,-118.54 1242.62,-102.43 1367.5,-85 1379.19,-83.37 1391.73,-81.43 1403.54,-79.53"/>
<polygon fill="#63b8ff" stroke="#63b8ff" points="1010.71,-124.07 1001.13,-128.6 1011.45,-131.04 1010.71,-124.07"/>
</a>
</g>
</g>
<!-- Node6 -->
<g id="Node000006" class="node">
<title>Node6</title>
<g id="a_Node000006"><a xlink:href="../../d7/d29/clickhouse_8hpp.html" target="_top" xlink:title=" ">
<polygon fill="white" stroke="#666666" points="308.5,-19 134.5,-19 134.5,0 308.5,0 308.5,-19"/>
<text text-anchor="middle" x="221.5" y="-7" font-family="Helvetica,sans-Serif" font-size="10.00">userver/storages/clickhouse.hpp</text>
</a>
</g>
</g>
<!-- Node5&#45;&gt;Node6 -->
<g id="edge5_Node000005_Node000006" class="edge">
<title>Node5&#45;&gt;Node6</title>
<g id="a_edge5_Node000005_Node000006"><a xlink:title=" ">
<path fill="none" stroke="#63b8ff" d="M221.5,-44.75C221.5,-35.72 221.5,-26.03 221.5,-19.27"/>
<polygon fill="#63b8ff" stroke="#63b8ff" points="218,-44.84 221.5,-54.84 225,-44.84 218,-44.84"/>
</a>
</g>
</g>
<!-- Node8 -->
<g id="Node000008" class="node">
<title>Node8</title>
<g id="a_Node000008"><a xlink:href="../../d7/de4/rabbitmq_8hpp.html" target="_top" xlink:title=" ">
<polygon fill="white" stroke="#666666" points="469.5,-19 347.5,-19 347.5,0 469.5,0 469.5,-19"/>
<text text-anchor="middle" x="408.5" y="-7" font-family="Helvetica,sans-Serif" font-size="10.00">userver/rabbitmq.hpp</text>
</a>
</g>
</g>
<!-- Node7&#45;&gt;Node8 -->
<g id="edge7_Node000007_Node000008" class="edge">
<title>Node7&#45;&gt;Node8</title>
<g id="a_edge7_Node000007_Node000008"><a xlink:title=" ">
<path fill="none" stroke="#63b8ff" d="M408.5,-50.16C408.5,-39.74 408.5,-27.3 408.5,-19.17"/>
<polygon fill="#63b8ff" stroke="#63b8ff" points="405,-50.37 408.5,-60.37 412,-50.37 405,-50.37"/>
</a>
</g>
</g>
</g>
</svg>
