<?xml version="1.0" encoding="UTF-8" standalone="no"?>
<!DOCTYPE svg PUBLIC "-//W3C//DTD SVG 1.1//EN"
 "http://www.w3.org/Graphics/SVG/1.1/DTD/svg11.dtd">
<!-- Generated by graphviz version 2.43.0 (0)
 -->
<!-- Title: userver/utils/exception.hpp Pages: 1 -->
<svg width="2001pt" height="401pt"
 viewBox="0.00 0.00 2001.17 401.00" xmlns="http://www.w3.org/2000/svg" xmlns:xlink="http://www.w3.org/1999/xlink">
<g id="graph0" class="graph" transform="scale(1 1) rotate(0) translate(4 397)">
<title>userver/utils/exception.hpp</title>
<!-- Node1 -->
<g id="Node000001" class="node">
<title>Node1</title>
<g id="a_Node000001"><a xlink:title="Logs error_message and throws an exception ith that message.">
<polygon fill="#999999" stroke="#666666" points="1646.67,-393 1497.67,-393 1497.67,-374 1646.67,-374 1646.67,-393"/>
<text text-anchor="middle" x="1572.17" y="-381" font-family="Helvetica,sans-Serif" font-size="10.00">userver/utils/exception.hpp</text>
</a>
</g>
</g>
<!-- Node2 -->
<g id="Node000002" class="node">
<title>Node2</title>
<g id="a_Node000002"><a xlink:title=" ">
<polygon fill="#e0e0e0" stroke="#999999" points="1488.67,-338 1423.67,-338 1423.67,-319 1488.67,-319 1488.67,-338"/>
<text text-anchor="middle" x="1456.17" y="-326" font-family="Helvetica,sans-Serif" font-size="10.00">stdexcept</text>
</a>
</g>
</g>
<!-- Node1&#45;&gt;Node2 -->
<g id="edge1_Node000001_Node000002" class="edge">
<title>Node1&#45;&gt;Node2</title>
<g id="a_edge1_Node000001_Node000002"><a xlink:title=" ">
<path fill="none" stroke="#63b8ff" d="M1553.54,-373.98C1534.88,-365.46 1505.92,-352.23 1484.43,-342.41"/>
<polygon fill="#63b8ff" stroke="#63b8ff" points="1485.7,-339.14 1475.15,-338.17 1482.79,-345.51 1485.7,-339.14"/>
</a>
</g>
</g>
<!-- Node3 -->
<g id="Node000003" class="node">
<title>Node3</title>
<g id="a_Node000003"><a xlink:title=" ">
<polygon fill="#e0e0e0" stroke="#999999" points="1721.17,-145.5 1677.17,-145.5 1677.17,-126.5 1721.17,-126.5 1721.17,-145.5"/>
<text text-anchor="middle" x="1699.17" y="-133.5" font-family="Helvetica,sans-Serif" font-size="10.00">string</text>
</a>
</g>
</g>
<!-- Node1&#45;&gt;Node3 -->
<g id="edge2_Node000001_Node000003" class="edge">
<title>Node1&#45;&gt;Node3</title>
<g id="a_edge2_Node000001_Node000003"><a xlink:title=" ">
<path fill="none" stroke="#63b8ff" d="M1591.87,-373.95C1607.89,-366.27 1630.37,-353.78 1646.17,-338 1690.62,-293.62 1702.33,-277.51 1719.17,-217 1725.09,-195.76 1716.64,-171.11 1708.98,-154.85"/>
<polygon fill="#63b8ff" stroke="#63b8ff" points="1712.09,-153.25 1704.44,-145.92 1705.85,-156.42 1712.09,-153.25"/>
</a>
</g>
</g>
<!-- Node4 -->
<g id="Node000004" class="node">
<title>Node4</title>
<g id="a_Node000004"><a xlink:href="../../dd/de6/universal_2include_2userver_2logging_2log_8hpp.html" target="_top" xlink:title="Logging helpers.">
<polygon fill="white" stroke="#666666" points="1637.67,-338 1506.67,-338 1506.67,-319 1637.67,-319 1637.67,-338"/>
<text text-anchor="middle" x="1572.17" y="-326" font-family="Helvetica,sans-Serif" font-size="10.00">userver/logging/log.hpp</text>
</a>
</g>
</g>
<!-- Node1&#45;&gt;Node4 -->
<g id="edge3_Node000001_Node000004" class="edge">
<title>Node1&#45;&gt;Node4</title>
<g id="a_edge3_Node000001_Node000004"><a xlink:title=" ">
<path fill="none" stroke="#63b8ff" d="M1572.17,-373.75C1572.17,-366.8 1572.17,-356.85 1572.17,-348.13"/>
<polygon fill="#63b8ff" stroke="#63b8ff" points="1575.67,-348.09 1572.17,-338.09 1568.67,-348.09 1575.67,-348.09"/>
</a>
</g>
</g>
<!-- Node5 -->
<g id="Node000005" class="node">
<title>Node5</title>
<g id="a_Node000005"><a xlink:title=" ">
<polygon fill="#e0e0e0" stroke="#999999" points="1710.17,-211.5 1660.17,-211.5 1660.17,-192.5 1710.17,-192.5 1710.17,-211.5"/>
<text text-anchor="middle" x="1685.17" y="-199.5" font-family="Helvetica,sans-Serif" font-size="10.00">chrono</text>
</a>
</g>
</g>
<!-- Node4&#45;&gt;Node5 -->
<g id="edge4_Node000004_Node000005" class="edge">
<title>Node4&#45;&gt;Node5</title>
<g id="a_edge4_Node000004_Node000005"><a xlink:title=" ">
<path fill="none" stroke="#63b8ff" d="M1579.94,-318.94C1598.57,-298.42 1646.03,-246.12 1670.34,-219.34"/>
<polygon fill="#63b8ff" stroke="#63b8ff" points="1673.22,-221.37 1677.35,-211.62 1668.04,-216.67 1673.22,-221.37"/>
</a>
</g>
</g>
<!-- Node6 -->
<g id="Node000006" class="node">
<title>Node6</title>
<g id="a_Node000006"><a xlink:href="../../d2/d84/select_8hpp.html" target="_top" xlink:title="Utilities for selection of platform specific values.">
<polygon fill="white" stroke="#666666" points="1621.17,-145.5 1469.17,-145.5 1469.17,-126.5 1621.17,-126.5 1621.17,-145.5"/>
<text text-anchor="middle" x="1545.17" y="-133.5" font-family="Helvetica,sans-Serif" font-size="10.00">userver/compiler/select.hpp</text>
</a>
</g>
</g>
<!-- Node4&#45;&gt;Node6 -->
<g id="edge5_Node000004_Node000006" class="edge">
<title>Node4&#45;&gt;Node6</title>
<g id="a_edge5_Node000004_Node000006"><a xlink:title=" ">
<path fill="none" stroke="#63b8ff" d="M1562.98,-318.86C1545.31,-301.56 1507.14,-260.56 1493.17,-217 1489.1,-204.3 1487.95,-199.27 1493.17,-187 1499.27,-172.68 1511.71,-160.47 1522.89,-151.71"/>
<polygon fill="#63b8ff" stroke="#63b8ff" points="1525.09,-154.44 1531.07,-145.7 1520.94,-148.8 1525.09,-154.44"/>
</a>
</g>
</g>
<!-- Node8 -->
<g id="Node000008" class="node">
<title>Node8</title>
<g id="a_Node000008"><a xlink:href="../../db/dfb/universal_2include_2userver_2logging_2fwd_8hpp.html" target="_top" xlink:title="Forward declarations for logging types.">
<polygon fill="white" stroke="#666666" points="853.17,-145.5 719.17,-145.5 719.17,-126.5 853.17,-126.5 853.17,-145.5"/>
<text text-anchor="middle" x="786.17" y="-133.5" font-family="Helvetica,sans-Serif" font-size="10.00">userver/logging/fwd.hpp</text>
</a>
</g>
</g>
<!-- Node4&#45;&gt;Node8 -->
<g id="edge7_Node000004_Node000008" class="edge">
<title>Node4&#45;&gt;Node8</title>
<g id="a_edge7_Node000004_Node000008"><a xlink:title=" ">
<path fill="none" stroke="#63b8ff" d="M1506.34,-319.82C1503.25,-319.53 1500.18,-319.25 1497.17,-319 1425.43,-312.94 909.33,-324.05 850.17,-283 807.44,-253.35 792.96,-188.56 788.28,-156.19"/>
<polygon fill="#63b8ff" stroke="#63b8ff" points="791.7,-155.34 786.96,-145.86 784.75,-156.22 791.7,-155.34"/>
</a>
</g>
</g>
<!-- Node10 -->
<g id="Node000010" class="node">
<title>Node10</title>
<g id="a_Node000010"><a xlink:href="../../d5/d37/level_8hpp.html" target="_top" xlink:title="Log levels.">
<polygon fill="white" stroke="#666666" points="1642.17,-211.5 1502.17,-211.5 1502.17,-192.5 1642.17,-192.5 1642.17,-211.5"/>
<text text-anchor="middle" x="1572.17" y="-199.5" font-family="Helvetica,sans-Serif" font-size="10.00">userver/logging/level.hpp</text>
</a>
</g>
</g>
<!-- Node4&#45;&gt;Node10 -->
<g id="edge9_Node000004_Node000010" class="edge">
<title>Node4&#45;&gt;Node10</title>
<g id="a_edge9_Node000004_Node000010"><a xlink:title=" ">
<path fill="none" stroke="#63b8ff" d="M1572.17,-318.94C1572.17,-299.04 1572.17,-249.26 1572.17,-221.85"/>
<polygon fill="#63b8ff" stroke="#63b8ff" points="1575.67,-221.62 1572.17,-211.62 1568.67,-221.62 1575.67,-221.62"/>
</a>
</g>
</g>
<!-- Node13 -->
<g id="Node000013" class="node">
<title>Node13</title>
<g id="a_Node000013"><a xlink:href="../../d4/dc3/log__filepath_8hpp.html" target="_top" xlink:title="Short source path calculator.">
<polygon fill="white" stroke="#666666" points="1993.17,-151 1883.17,-151 1883.17,-121 1993.17,-121 1993.17,-151"/>
<text text-anchor="start" x="1891.17" y="-139" font-family="Helvetica,sans-Serif" font-size="10.00">userver/logging/log</text>
<text text-anchor="middle" x="1938.17" y="-128" font-family="Helvetica,sans-Serif" font-size="10.00">_filepath.hpp</text>
</a>
</g>
</g>
<!-- Node4&#45;&gt;Node13 -->
<g id="edge13_Node000004_Node000013" class="edge">
<title>Node4&#45;&gt;Node13</title>
<g id="a_edge13_Node000004_Node000013"><a xlink:title=" ">
<path fill="none" stroke="#63b8ff" d="M1636.4,-318.96C1706.1,-306.83 1817.42,-278.78 1892.17,-217 1910.03,-202.24 1922.39,-178.63 1929.77,-160.87"/>
<polygon fill="#63b8ff" stroke="#63b8ff" points="1933.17,-161.79 1933.54,-151.21 1926.64,-159.25 1933.17,-161.79"/>
</a>
</g>
</g>
<!-- Node15 -->
<g id="Node000015" class="node">
<title>Node15</title>
<g id="a_Node000015"><a xlink:href="../../db/d94/log__helper_8hpp.html" target="_top" xlink:title=" ">
<polygon fill="white" stroke="#666666" points="969.17,-283 859.17,-283 859.17,-253 969.17,-253 969.17,-283"/>
<text text-anchor="start" x="867.17" y="-271" font-family="Helvetica,sans-Serif" font-size="10.00">userver/logging/log</text>
<text text-anchor="middle" x="914.17" y="-260" font-family="Helvetica,sans-Serif" font-size="10.00">_helper.hpp</text>
</a>
</g>
</g>
<!-- Node4&#45;&gt;Node15 -->
<g id="edge15_Node000004_Node000015" class="edge">
<title>Node4&#45;&gt;Node15</title>
<g id="a_edge15_Node000004_Node000015"><a xlink:title=" ">
<path fill="none" stroke="#63b8ff" d="M1506.33,-319.94C1503.24,-319.61 1500.17,-319.3 1497.17,-319 1309.4,-300.31 1087.17,-282.42 979.35,-274.01"/>
<polygon fill="#63b8ff" stroke="#63b8ff" points="979.52,-270.51 969.28,-273.22 978.98,-277.49 979.52,-270.51"/>
</a>
</g>
</g>
<!-- Node7 -->
<g id="Node000007" class="node">
<title>Node7</title>
<g id="a_Node000007"><a xlink:title=" ">
<polygon fill="#e0e0e0" stroke="#999999" points="1540.67,-79.5 1487.67,-79.5 1487.67,-60.5 1540.67,-60.5 1540.67,-79.5"/>
<text text-anchor="middle" x="1514.17" y="-67.5" font-family="Helvetica,sans-Serif" font-size="10.00">cstddef</text>
</a>
</g>
</g>
<!-- Node6&#45;&gt;Node7 -->
<g id="edge6_Node000006_Node000007" class="edge">
<title>Node6&#45;&gt;Node7</title>
<g id="a_edge6_Node000006_Node000007"><a xlink:title=" ">
<path fill="none" stroke="#63b8ff" d="M1540.99,-126.37C1536.4,-116.88 1528.88,-101.36 1522.97,-89.16"/>
<polygon fill="#63b8ff" stroke="#63b8ff" points="1526,-87.38 1518.49,-79.91 1519.7,-90.43 1526,-87.38"/>
</a>
</g>
</g>
<!-- Node9 -->
<g id="Node000009" class="node">
<title>Node9</title>
<g id="a_Node000009"><a xlink:title=" ">
<polygon fill="#e0e0e0" stroke="#999999" points="900.17,-79.5 842.17,-79.5 842.17,-60.5 900.17,-60.5 900.17,-79.5"/>
<text text-anchor="middle" x="871.17" y="-67.5" font-family="Helvetica,sans-Serif" font-size="10.00">memory</text>
</a>
</g>
</g>
<!-- Node8&#45;&gt;Node9 -->
<g id="edge8_Node000008_Node000009" class="edge">
<title>Node8&#45;&gt;Node9</title>
<g id="a_edge8_Node000008_Node000009"><a xlink:title=" ">
<path fill="none" stroke="#63b8ff" d="M797.64,-126.37C811.45,-115.97 834.89,-98.32 851.59,-85.75"/>
<polygon fill="#63b8ff" stroke="#63b8ff" points="853.74,-88.51 859.62,-79.7 849.53,-82.92 853.74,-88.51"/>
</a>
</g>
</g>
<!-- Node10&#45;&gt;Node3 -->
<g id="edge12_Node000010_Node000003" class="edge">
<title>Node10&#45;&gt;Node3</title>
<g id="a_edge12_Node000010_Node000003"><a xlink:title=" ">
<path fill="none" stroke="#63b8ff" d="M1589.3,-192.37C1610.79,-181.54 1647.87,-162.85 1672.95,-150.22"/>
<polygon fill="#63b8ff" stroke="#63b8ff" points="1674.56,-153.32 1681.91,-145.7 1671.41,-147.07 1674.56,-153.32"/>
</a>
</g>
</g>
<!-- Node11 -->
<g id="Node000011" class="node">
<title>Node11</title>
<g id="a_Node000011"><a xlink:title=" ">
<polygon fill="#e0e0e0" stroke="#999999" points="1789.17,-145.5 1739.17,-145.5 1739.17,-126.5 1789.17,-126.5 1789.17,-145.5"/>
<text text-anchor="middle" x="1764.17" y="-133.5" font-family="Helvetica,sans-Serif" font-size="10.00">cstdint</text>
</a>
</g>
</g>
<!-- Node10&#45;&gt;Node11 -->
<g id="edge10_Node000010_Node000011" class="edge">
<title>Node10&#45;&gt;Node11</title>
<g id="a_edge10_Node000010_Node000011"><a xlink:title=" ">
<path fill="none" stroke="#63b8ff" d="M1601.83,-192.43C1633.77,-183.01 1685.96,-167.07 1730.17,-151 1731.6,-150.48 1733.05,-149.94 1734.52,-149.38"/>
<polygon fill="#63b8ff" stroke="#63b8ff" points="1736.14,-152.51 1744.15,-145.57 1733.56,-146 1736.14,-152.51"/>
</a>
</g>
</g>
<!-- Node12 -->
<g id="Node000012" class="node">
<title>Node12</title>
<g id="a_Node000012"><a xlink:title=" ">
<polygon fill="#e0e0e0" stroke="#999999" points="927.17,-145.5 871.17,-145.5 871.17,-126.5 927.17,-126.5 927.17,-145.5"/>
<text text-anchor="middle" x="899.17" y="-133.5" font-family="Helvetica,sans-Serif" font-size="10.00">optional</text>
</a>
</g>
</g>
<!-- Node10&#45;&gt;Node12 -->
<g id="edge11_Node000010_Node000012" class="edge">
<title>Node10&#45;&gt;Node12</title>
<g id="a_edge11_Node000010_Node000012"><a xlink:title=" ">
<path fill="none" stroke="#63b8ff" d="M1501.96,-197.44C1389.96,-191.23 1164.15,-176.61 974.17,-151 962.09,-149.37 949,-147.1 937.19,-144.87"/>
<polygon fill="#63b8ff" stroke="#63b8ff" points="937.68,-141.4 927.2,-142.93 936.35,-148.27 937.68,-141.4"/>
</a>
</g>
</g>
<!-- Node14 -->
<g id="Node000014" class="node">
<title>Node14</title>
<g id="a_Node000014"><a xlink:title=" ">
<polygon fill="#e0e0e0" stroke="#999999" points="1918.67,-79.5 1845.67,-79.5 1845.67,-60.5 1918.67,-60.5 1918.67,-79.5"/>
<text text-anchor="middle" x="1882.17" y="-67.5" font-family="Helvetica,sans-Serif" font-size="10.00">string_view</text>
</a>
</g>
</g>
<!-- Node13&#45;&gt;Node14 -->
<g id="edge14_Node000013_Node000014" class="edge">
<title>Node13&#45;&gt;Node14</title>
<g id="a_edge14_Node000013_Node000014"><a xlink:title=" ">
<path fill="none" stroke="#63b8ff" d="M1925.75,-120.8C1917.1,-110.92 1905.55,-97.72 1896.52,-87.39"/>
<polygon fill="#63b8ff" stroke="#63b8ff" points="1899.13,-85.07 1889.91,-79.84 1893.86,-89.67 1899.13,-85.07"/>
</a>
</g>
</g>
<!-- Node15&#45;&gt;Node5 -->
<g id="edge16_Node000015_Node000005" class="edge">
<title>Node15&#45;&gt;Node5</title>
<g id="a_edge16_Node000015_Node000005"><a xlink:title=" ">
<path fill="none" stroke="#63b8ff" d="M969.29,-265.56C1117.39,-261.32 1521.52,-247.24 1651.17,-217 1653.4,-216.48 1655.66,-215.83 1657.91,-215.11"/>
<polygon fill="#63b8ff" stroke="#63b8ff" points="1659.38,-218.29 1667.53,-211.53 1656.94,-211.73 1659.38,-218.29"/>
</a>
</g>
</g>
<!-- Node15&#45;&gt;Node8 -->
<g id="edge33_Node000015_Node000008" class="edge">
<title>Node15&#45;&gt;Node8</title>
<g id="a_edge33_Node000015_Node000008"><a xlink:title=" ">
<path fill="none" stroke="#63b8ff" d="M900.23,-252.84C876.26,-228.49 827.38,-178.85 802.1,-153.18"/>
<polygon fill="#63b8ff" stroke="#63b8ff" points="804.3,-150.42 794.79,-145.75 799.31,-155.33 804.3,-150.42"/>
</a>
</g>
</g>
<!-- Node15&#45;&gt;Node9 -->
<g id="edge20_Node000015_Node000009" class="edge">
<title>Node15&#45;&gt;Node9</title>
<g id="a_edge20_Node000015_Node000009"><a xlink:title=" ">
<path fill="none" stroke="#63b8ff" d="M921.49,-252.89C934.43,-225.83 958.03,-165.38 936.17,-121 928.38,-105.18 912.91,-92.96 899.02,-84.57"/>
<polygon fill="#63b8ff" stroke="#63b8ff" points="900.65,-81.46 890.22,-79.6 897.21,-87.56 900.65,-81.46"/>
</a>
</g>
</g>
<!-- Node15&#45;&gt;Node10 -->
<g id="edge34_Node000015_Node000010" class="edge">
<title>Node15&#45;&gt;Node10</title>
<g id="a_edge34_Node000015_Node000010"><a xlink:title=" ">
<path fill="none" stroke="#63b8ff" d="M969.38,-262.24C1066.61,-253.77 1274.72,-235.25 1450.17,-217 1463.65,-215.6 1477.96,-214.03 1491.86,-212.46"/>
<polygon fill="#63b8ff" stroke="#63b8ff" points="1492.34,-215.93 1501.88,-211.32 1491.55,-208.97 1492.34,-215.93"/>
</a>
</g>
</g>
<!-- Node15&#45;&gt;Node12 -->
<g id="edge21_Node000015_Node000012" class="edge">
<title>Node15&#45;&gt;Node12</title>
<g id="a_edge21_Node000015_Node000012"><a xlink:title=" ">
<path fill="none" stroke="#63b8ff" d="M912.54,-252.84C909.83,-229.34 904.4,-182.26 901.36,-155.93"/>
<polygon fill="#63b8ff" stroke="#63b8ff" points="904.81,-155.28 900.18,-145.75 897.85,-156.08 904.81,-155.28"/>
</a>
</g>
</g>
<!-- Node15&#45;&gt;Node14 -->
<g id="edge22_Node000015_Node000014" class="edge">
<title>Node15&#45;&gt;Node14</title>
<g id="a_edge22_Node000015_Node000014"><a xlink:title=" ">
<path fill="none" stroke="#63b8ff" d="M969.38,-261.54C1046.73,-253.56 1191.64,-237.42 1314.17,-217 1349.55,-211.1 1597.68,-166.18 1630.17,-151 1649.67,-141.89 1648.79,-130.34 1668.17,-121 1722.23,-94.96 1790.62,-82.05 1835.34,-75.96"/>
<polygon fill="#63b8ff" stroke="#63b8ff" points="1835.88,-79.42 1845.34,-74.66 1834.97,-72.48 1835.88,-79.42"/>
</a>
</g>
</g>
<!-- Node16 -->
<g id="Node000016" class="node">
<title>Node16</title>
<g id="a_Node000016"><a xlink:title=" ">
<polygon fill="#e0e0e0" stroke="#999999" points="1305.67,-211.5 1240.67,-211.5 1240.67,-192.5 1305.67,-192.5 1305.67,-211.5"/>
<text text-anchor="middle" x="1273.17" y="-199.5" font-family="Helvetica,sans-Serif" font-size="10.00">exception</text>
</a>
</g>
</g>
<!-- Node15&#45;&gt;Node16 -->
<g id="edge17_Node000015_Node000016" class="edge">
<title>Node15&#45;&gt;Node16</title>
<g id="a_edge17_Node000015_Node000016"><a xlink:title=" ">
<path fill="none" stroke="#63b8ff" d="M969.41,-261.1C1033.1,-253.64 1140.64,-239.07 1231.17,-217 1234.14,-216.28 1237.2,-215.44 1240.24,-214.55"/>
<polygon fill="#63b8ff" stroke="#63b8ff" points="1241.33,-217.87 1249.83,-211.54 1239.24,-211.19 1241.33,-217.87"/>
</a>
</g>
</g>
<!-- Node17 -->
<g id="Node000017" class="node">
<title>Node17</title>
<g id="a_Node000017"><a xlink:title=" ">
<polygon fill="#e0e0e0" stroke="#999999" points="526.17,-145.5 478.17,-145.5 478.17,-126.5 526.17,-126.5 526.17,-145.5"/>
<text text-anchor="middle" x="502.17" y="-133.5" font-family="Helvetica,sans-Serif" font-size="10.00">iosfwd</text>
</a>
</g>
</g>
<!-- Node15&#45;&gt;Node17 -->
<g id="edge18_Node000015_Node000017" class="edge">
<title>Node15&#45;&gt;Node17</title>
<g id="a_edge18_Node000015_Node000017"><a xlink:title=" ">
<path fill="none" stroke="#63b8ff" d="M858.98,-263.09C776.81,-256.54 626.86,-241.6 579.17,-217 550.6,-202.26 526.57,-172.76 513.29,-153.99"/>
<polygon fill="#63b8ff" stroke="#63b8ff" points="516.04,-151.81 507.52,-145.53 510.26,-155.76 516.04,-151.81"/>
</a>
</g>
</g>
<!-- Node18 -->
<g id="Node000018" class="node">
<title>Node18</title>
<g id="a_Node000018"><a xlink:title=" ">
<polygon fill="#e0e0e0" stroke="#999999" points="597.67,-145.5 544.67,-145.5 544.67,-126.5 597.67,-126.5 597.67,-145.5"/>
<text text-anchor="middle" x="571.17" y="-133.5" font-family="Helvetica,sans-Serif" font-size="10.00">iterator</text>
</a>
</g>
</g>
<!-- Node15&#45;&gt;Node18 -->
<g id="edge19_Node000015_Node000018" class="edge">
<title>Node15&#45;&gt;Node18</title>
<g id="a_edge19_Node000015_Node000018"><a xlink:title=" ">
<path fill="none" stroke="#63b8ff" d="M858.93,-264.47C780.65,-259.84 642.69,-247.5 604.17,-217 585.16,-201.95 577,-174.07 573.57,-155.53"/>
<polygon fill="#63b8ff" stroke="#63b8ff" points="577.03,-154.96 572.02,-145.62 570.11,-156.04 577.03,-154.96"/>
</a>
</g>
</g>
<!-- Node19 -->
<g id="Node000019" class="node">
<title>Node19</title>
<g id="a_Node000019"><a xlink:title=" ">
<polygon fill="#e0e0e0" stroke="#999999" points="518.67,-211.5 437.67,-211.5 437.67,-192.5 518.67,-192.5 518.67,-211.5"/>
<text text-anchor="middle" x="478.17" y="-199.5" font-family="Helvetica,sans-Serif" font-size="10.00">system_error</text>
</a>
</g>
</g>
<!-- Node15&#45;&gt;Node19 -->
<g id="edge23_Node000015_Node000019" class="edge">
<title>Node15&#45;&gt;Node19</title>
<g id="a_edge23_Node000015_Node000019"><a xlink:title=" ">
<path fill="none" stroke="#63b8ff" d="M858.95,-261.83C784.54,-254.4 648.15,-239.1 533.17,-217 528.52,-216.11 523.67,-215.05 518.87,-213.93"/>
<polygon fill="#63b8ff" stroke="#63b8ff" points="519.7,-210.53 509.15,-211.57 518.04,-217.33 519.7,-210.53"/>
</a>
</g>
</g>
<!-- Node20 -->
<g id="Node000020" class="node">
<title>Node20</title>
<g id="a_Node000020"><a xlink:title=" ">
<polygon fill="#e0e0e0" stroke="#999999" points="520.67,-19 451.67,-19 451.67,0 520.67,0 520.67,-19"/>
<text text-anchor="middle" x="486.17" y="-7" font-family="Helvetica,sans-Serif" font-size="10.00">type_traits</text>
</a>
</g>
</g>
<!-- Node15&#45;&gt;Node20 -->
<g id="edge24_Node000015_Node000020" class="edge">
<title>Node15&#45;&gt;Node20</title>
<g id="a_edge24_Node000015_Node000020"><a xlink:title=" ">
<path fill="none" stroke="#63b8ff" d="M858.83,-266.44C743.98,-264.49 471.74,-255.79 247.17,-217 137.74,-198.1 73.54,-239.29 6.17,-151 -1.91,-140.4 -2.13,-131.43 6.17,-121 60.47,-52.78 332.84,-23.13 441.4,-13.89"/>
<polygon fill="#63b8ff" stroke="#63b8ff" points="441.71,-17.38 451.39,-13.06 441.13,-10.4 441.71,-17.38"/>
</a>
</g>
</g>
<!-- Node21 -->
<g id="Node000021" class="node">
<title>Node21</title>
<g id="a_Node000021"><a xlink:href="../../da/d00/universal_2include_2userver_2formats_2common_2meta_8hpp.html" target="_top" xlink:title="Metaprogramming helpers for converters detection.">
<polygon fill="white" stroke="#666666" points="396.17,-217 256.17,-217 256.17,-187 396.17,-187 396.17,-217"/>
<text text-anchor="start" x="264.17" y="-205" font-family="Helvetica,sans-Serif" font-size="10.00">userver/formats/common</text>
<text text-anchor="middle" x="326.17" y="-194" font-family="Helvetica,sans-Serif" font-size="10.00">/meta.hpp</text>
</a>
</g>
</g>
<!-- Node15&#45;&gt;Node21 -->
<g id="edge25_Node000015_Node000021" class="edge">
<title>Node15&#45;&gt;Node21</title>
<g id="a_edge25_Node000015_Node000021"><a xlink:title=" ">
<path fill="none" stroke="#63b8ff" d="M859.08,-261.94C768.9,-253.53 584.18,-235.73 428.17,-217 421.1,-216.15 413.75,-215.23 406.39,-214.27"/>
<polygon fill="#63b8ff" stroke="#63b8ff" points="406.74,-210.79 396.37,-212.95 405.82,-217.73 406.74,-210.79"/>
</a>
</g>
</g>
<!-- Node26 -->
<g id="Node000026" class="node">
<title>Node26</title>
<g id="a_Node000026"><a xlink:href="../../d6/def/log__extra_8hpp.html" target="_top" xlink:title="Extra tskv fields storage.">
<polygon fill="white" stroke="#666666" points="1222.17,-217 1112.17,-217 1112.17,-187 1222.17,-187 1222.17,-217"/>
<text text-anchor="start" x="1120.17" y="-205" font-family="Helvetica,sans-Serif" font-size="10.00">userver/logging/log</text>
<text text-anchor="middle" x="1167.17" y="-194" font-family="Helvetica,sans-Serif" font-size="10.00">_extra.hpp</text>
</a>
</g>
</g>
<!-- Node15&#45;&gt;Node26 -->
<g id="edge35_Node000015_Node000026" class="edge">
<title>Node15&#45;&gt;Node26</title>
<g id="a_edge35_Node000015_Node000026"><a xlink:title=" ">
<path fill="none" stroke="#63b8ff" d="M969.38,-253.03C1008.47,-243.15 1061.04,-229.85 1102.16,-219.45"/>
<polygon fill="#63b8ff" stroke="#63b8ff" points="1103.25,-222.78 1112.08,-216.94 1101.53,-216 1103.25,-222.78"/>
</a>
</g>
</g>
<!-- Node33 -->
<g id="Node000033" class="node">
<title>Node33</title>
<g id="a_Node000033"><a xlink:href="../../df/dd4/source__location_8hpp_source.html" target="_top" xlink:title=" ">
<polygon fill="white" stroke="#666666" points="1883.67,-217 1766.67,-217 1766.67,-187 1883.67,-187 1883.67,-217"/>
<text text-anchor="start" x="1774.67" y="-205" font-family="Helvetica,sans-Serif" font-size="10.00">userver/utils/impl</text>
<text text-anchor="middle" x="1825.17" y="-194" font-family="Helvetica,sans-Serif" font-size="10.00">/source_location.hpp</text>
</a>
</g>
</g>
<!-- Node15&#45;&gt;Node33 -->
<g id="edge48_Node000015_Node000033" class="edge">
<title>Node15&#45;&gt;Node33</title>
<g id="a_edge48_Node000015_Node000033"><a xlink:title=" ">
<path fill="none" stroke="#63b8ff" d="M969.42,-264.89C1100.03,-259.61 1437.99,-244.27 1719.17,-217 1731.23,-215.83 1744.02,-214.35 1756.39,-212.79"/>
<polygon fill="#63b8ff" stroke="#63b8ff" points="1757.19,-216.22 1766.66,-211.47 1756.3,-209.27 1757.19,-216.22"/>
</a>
</g>
</g>
<!-- Node34 -->
<g id="Node000034" class="node">
<title>Node34</title>
<g id="a_Node000034"><a xlink:href="../../d0/d03/universal_2include_2userver_2utils_2meta_8hpp.html" target="_top" xlink:title="Metaprogramming, template variables and concepts.">
<polygon fill="white" stroke="#666666" points="740.67,-211.5 613.67,-211.5 613.67,-192.5 740.67,-192.5 740.67,-211.5"/>
<text text-anchor="middle" x="677.17" y="-199.5" font-family="Helvetica,sans-Serif" font-size="10.00">userver/utils/meta.hpp</text>
</a>
</g>
</g>
<!-- Node15&#45;&gt;Node34 -->
<g id="edge53_Node000015_Node000034" class="edge">
<title>Node15&#45;&gt;Node34</title>
<g id="a_edge53_Node000015_Node000034"><a xlink:title=" ">
<path fill="none" stroke="#63b8ff" d="M862.16,-252.95C818.95,-241.29 758.3,-224.91 718.39,-214.13"/>
<polygon fill="#63b8ff" stroke="#63b8ff" points="719.28,-210.75 708.71,-211.52 717.46,-217.5 719.28,-210.75"/>
</a>
</g>
</g>
<!-- Node21&#45;&gt;Node20 -->
<g id="edge26_Node000021_Node000020" class="edge">
<title>Node21&#45;&gt;Node20</title>
<g id="a_edge26_Node000021_Node000020"><a xlink:title=" ">
<path fill="none" stroke="#63b8ff" d="M323.69,-186.58C319.62,-157.88 314.93,-93.13 347.17,-55 370.25,-27.71 410.1,-16.98 441.23,-12.85"/>
<polygon fill="#63b8ff" stroke="#63b8ff" points="441.87,-16.3 451.41,-11.69 441.08,-9.35 441.87,-16.3"/>
</a>
</g>
</g>
<!-- Node22 -->
<g id="Node000022" class="node">
<title>Node22</title>
<g id="a_Node000022"><a xlink:href="../../d2/dc8/universal_2include_2userver_2formats_2parse_2to_8hpp.html" target="_top" xlink:title="Helper for parsers.">
<polygon fill="white" stroke="#666666" points="140.67,-151 15.67,-151 15.67,-121 140.67,-121 140.67,-151"/>
<text text-anchor="start" x="23.67" y="-139" font-family="Helvetica,sans-Serif" font-size="10.00">userver/formats/parse</text>
<text text-anchor="middle" x="78.17" y="-128" font-family="Helvetica,sans-Serif" font-size="10.00">/to.hpp</text>
</a>
</g>
</g>
<!-- Node21&#45;&gt;Node22 -->
<g id="edge27_Node000021_Node000022" class="edge">
<title>Node21&#45;&gt;Node22</title>
<g id="a_edge27_Node000021_Node000022"><a xlink:title=" ">
<path fill="none" stroke="#63b8ff" d="M271.75,-186.95C233.55,-177.1 182.33,-163.88 142.17,-153.51"/>
<polygon fill="#63b8ff" stroke="#63b8ff" points="143.03,-150.12 132.47,-151.01 141.28,-156.9 143.03,-150.12"/>
</a>
</g>
</g>
<!-- Node23 -->
<g id="Node000023" class="node">
<title>Node23</title>
<g id="a_Node000023"><a xlink:href="../../d6/d8e/universal_2include_2userver_2formats_2serialize_2to_8hpp.html" target="_top" xlink:title="Helper for serializers.">
<polygon fill="white" stroke="#666666" points="297.67,-151 158.67,-151 158.67,-121 297.67,-121 297.67,-151"/>
<text text-anchor="start" x="166.67" y="-139" font-family="Helvetica,sans-Serif" font-size="10.00">userver/formats/serialize</text>
<text text-anchor="middle" x="228.17" y="-128" font-family="Helvetica,sans-Serif" font-size="10.00">/to.hpp</text>
</a>
</g>
</g>
<!-- Node21&#45;&gt;Node23 -->
<g id="edge28_Node000021_Node000023" class="edge">
<title>Node21&#45;&gt;Node23</title>
<g id="a_edge28_Node000021_Node000023"><a xlink:title=" ">
<path fill="none" stroke="#63b8ff" d="M304.42,-186.8C290.85,-177.93 273.18,-166.39 258.27,-156.66"/>
<polygon fill="#63b8ff" stroke="#63b8ff" points="260.15,-153.7 249.86,-151.16 256.32,-159.56 260.15,-153.7"/>
</a>
</g>
</g>
<!-- Node24 -->
<g id="Node000024" class="node">
<title>Node24</title>
<g id="a_Node000024"><a xlink:href="../../d3/da0/meta__light_8hpp.html" target="_top" xlink:title="Lightweight concepts.">
<polygon fill="white" stroke="#666666" points="460.17,-151 354.17,-151 354.17,-121 460.17,-121 460.17,-151"/>
<text text-anchor="start" x="362.17" y="-139" font-family="Helvetica,sans-Serif" font-size="10.00">userver/utils/meta</text>
<text text-anchor="middle" x="407.17" y="-128" font-family="Helvetica,sans-Serif" font-size="10.00">_light.hpp</text>
</a>
</g>
</g>
<!-- Node21&#45;&gt;Node24 -->
<g id="edge29_Node000021_Node000024" class="edge">
<title>Node21&#45;&gt;Node24</title>
<g id="a_edge29_Node000021_Node000024"><a xlink:title=" ">
<path fill="none" stroke="#63b8ff" d="M344.15,-186.8C355.06,-178.18 369.16,-167.04 381.26,-157.48"/>
<polygon fill="#63b8ff" stroke="#63b8ff" points="383.57,-160.11 389.25,-151.16 379.23,-154.62 383.57,-160.11"/>
</a>
</g>
</g>
<!-- Node24&#45;&gt;Node20 -->
<g id="edge30_Node000024_Node000020" class="edge">
<title>Node24&#45;&gt;Node20</title>
<g id="a_edge30_Node000024_Node000020"><a xlink:title=" ">
<path fill="none" stroke="#63b8ff" d="M429.77,-120.89C442.22,-112.01 456.97,-99.51 466.17,-85 476.91,-68.07 481.93,-45.47 484.24,-29.62"/>
<polygon fill="#63b8ff" stroke="#63b8ff" points="487.75,-29.8 485.5,-19.45 480.8,-28.94 487.75,-29.8"/>
</a>
</g>
</g>
<!-- Node25 -->
<g id="Node000025" class="node">
<title>Node25</title>
<g id="a_Node000025"><a xlink:href="../../d9/dce/void__t_8hpp.html" target="_top" xlink:title="std::void_t implementation with workarounds for compiler bugs">
<polygon fill="white" stroke="#666666" points="457.67,-85 356.67,-85 356.67,-55 457.67,-55 457.67,-85"/>
<text text-anchor="start" x="364.67" y="-73" font-family="Helvetica,sans-Serif" font-size="10.00">userver/utils/void</text>
<text text-anchor="middle" x="407.17" y="-62" font-family="Helvetica,sans-Serif" font-size="10.00">_t.hpp</text>
</a>
</g>
</g>
<!-- Node24&#45;&gt;Node25 -->
<g id="edge31_Node000024_Node000025" class="edge">
<title>Node24&#45;&gt;Node25</title>
<g id="a_edge31_Node000024_Node000025"><a xlink:title=" ">
<path fill="none" stroke="#63b8ff" d="M407.17,-120.8C407.17,-113.34 407.17,-103.99 407.17,-95.41"/>
<polygon fill="#63b8ff" stroke="#63b8ff" points="410.67,-95.16 407.17,-85.16 403.67,-95.16 410.67,-95.16"/>
</a>
</g>
</g>
<!-- Node25&#45;&gt;Node20 -->
<g id="edge32_Node000025_Node000020" class="edge">
<title>Node25&#45;&gt;Node20</title>
<g id="a_edge32_Node000025_Node000020"><a xlink:title=" ">
<path fill="none" stroke="#63b8ff" d="M426.3,-54.84C438.35,-45.91 453.89,-34.41 466.12,-25.35"/>
<polygon fill="#63b8ff" stroke="#63b8ff" points="468.38,-28.03 474.34,-19.27 464.22,-22.4 468.38,-28.03"/>
</a>
</g>
</g>
<!-- Node26&#45;&gt;Node3 -->
<g id="edge37_Node000026_Node000003" class="edge">
<title>Node26&#45;&gt;Node3</title>
<g id="a_edge37_Node000026_Node000003"><a xlink:title=" ">
<path fill="none" stroke="#63b8ff" d="M1222.25,-188.49C1225.26,-187.95 1228.25,-187.45 1231.17,-187 1407.16,-159.92 1453.99,-176.74 1630.17,-151 1642.21,-149.24 1655.32,-146.73 1666.84,-144.33"/>
<polygon fill="#63b8ff" stroke="#63b8ff" points="1667.87,-147.69 1676.91,-142.17 1666.4,-140.84 1667.87,-147.69"/>
</a>
</g>
</g>
<!-- Node26&#45;&gt;Node6 -->
<g id="edge41_Node000026_Node000006" class="edge">
<title>Node26&#45;&gt;Node6</title>
<g id="a_edge41_Node000026_Node000006"><a xlink:title=" ">
<path fill="none" stroke="#63b8ff" d="M1222.29,-188.73C1225.29,-188.13 1228.27,-187.55 1231.17,-187 1331.99,-168.03 1357.88,-167.24 1459.17,-151 1466.84,-149.77 1474.89,-148.47 1482.86,-147.18"/>
<polygon fill="#63b8ff" stroke="#63b8ff" points="1483.57,-150.61 1492.88,-145.55 1482.45,-143.7 1483.57,-150.61"/>
</a>
</g>
</g>
<!-- Node26&#45;&gt;Node8 -->
<g id="edge42_Node000026_Node000008" class="edge">
<title>Node26&#45;&gt;Node8</title>
<g id="a_edge42_Node000026_Node000008"><a xlink:title=" ">
<path fill="none" stroke="#63b8ff" d="M1112.02,-192.29C1050.89,-182.56 949.4,-166.18 862.17,-151 855.51,-149.84 848.53,-148.6 841.61,-147.34"/>
<polygon fill="#63b8ff" stroke="#63b8ff" points="842.03,-143.86 831.56,-145.51 840.77,-150.75 842.03,-143.86"/>
</a>
</g>
</g>
<!-- Node27 -->
<g id="Node000027" class="node">
<title>Node27</title>
<g id="a_Node000027"><a xlink:title=" ">
<polygon fill="#e0e0e0" stroke="#999999" points="1066.67,-145.5 983.67,-145.5 983.67,-126.5 1066.67,-126.5 1066.67,-145.5"/>
<text text-anchor="middle" x="1025.17" y="-133.5" font-family="Helvetica,sans-Serif" font-size="10.00">initializer_list</text>
</a>
</g>
</g>
<!-- Node26&#45;&gt;Node27 -->
<g id="edge36_Node000026_Node000027" class="edge">
<title>Node26&#45;&gt;Node27</title>
<g id="a_edge36_Node000026_Node000027"><a xlink:title=" ">
<path fill="none" stroke="#63b8ff" d="M1136.01,-186.95C1111.33,-175.83 1077.15,-160.42 1053.29,-149.67"/>
<polygon fill="#63b8ff" stroke="#63b8ff" points="1054.63,-146.44 1044.07,-145.52 1051.75,-152.82 1054.63,-146.44"/>
</a>
</g>
</g>
<!-- Node28 -->
<g id="Node000028" class="node">
<title>Node28</title>
<g id="a_Node000028"><a xlink:title=" ">
<polygon fill="#e0e0e0" stroke="#999999" points="1345.67,-79.5 1300.67,-79.5 1300.67,-60.5 1345.67,-60.5 1345.67,-79.5"/>
<text text-anchor="middle" x="1323.17" y="-67.5" font-family="Helvetica,sans-Serif" font-size="10.00">utility</text>
</a>
</g>
</g>
<!-- Node26&#45;&gt;Node28 -->
<g id="edge38_Node000026_Node000028" class="edge">
<title>Node26&#45;&gt;Node28</title>
<g id="a_edge38_Node000026_Node000028"><a xlink:title=" ">
<path fill="none" stroke="#63b8ff" d="M1220.55,-186.94C1253.52,-177.24 1291.66,-163.82 1303.17,-151 1318.31,-134.14 1322.38,-107.56 1323.27,-89.71"/>
<polygon fill="#63b8ff" stroke="#63b8ff" points="1326.77,-89.74 1323.49,-79.67 1319.78,-89.59 1326.77,-89.74"/>
</a>
</g>
</g>
<!-- Node29 -->
<g id="Node000029" class="node">
<title>Node29</title>
<g id="a_Node000029"><a xlink:title=" ">
<polygon fill="#e0e0e0" stroke="#999999" points="1135.67,-145.5 1084.67,-145.5 1084.67,-126.5 1135.67,-126.5 1135.67,-145.5"/>
<text text-anchor="middle" x="1110.17" y="-133.5" font-family="Helvetica,sans-Serif" font-size="10.00">variant</text>
</a>
</g>
</g>
<!-- Node26&#45;&gt;Node29 -->
<g id="edge39_Node000026_Node000029" class="edge">
<title>Node26&#45;&gt;Node29</title>
<g id="a_edge39_Node000026_Node000029"><a xlink:title=" ">
<path fill="none" stroke="#63b8ff" d="M1154.52,-186.8C1145.72,-176.92 1133.97,-163.72 1124.77,-153.39"/>
<polygon fill="#63b8ff" stroke="#63b8ff" points="1127.32,-150.98 1118.05,-145.84 1122.09,-155.64 1127.32,-150.98"/>
</a>
</g>
</g>
<!-- Node30 -->
<g id="Node000030" class="node">
<title>Node30</title>
<g id="a_Node000030"><a xlink:title=" ">
<polygon fill="#e0e0e0" stroke="#999999" points="1294.67,-151 1153.67,-151 1153.67,-121 1294.67,-121 1294.67,-151"/>
<text text-anchor="start" x="1161.67" y="-139" font-family="Helvetica,sans-Serif" font-size="10.00">boost/container/container</text>
<text text-anchor="middle" x="1224.17" y="-128" font-family="Helvetica,sans-Serif" font-size="10.00">_fwd.hpp</text>
</a>
</g>
</g>
<!-- Node26&#45;&gt;Node30 -->
<g id="edge40_Node000026_Node000030" class="edge">
<title>Node26&#45;&gt;Node30</title>
<g id="a_edge40_Node000026_Node000030"><a xlink:title=" ">
<path fill="none" stroke="#63b8ff" d="M1179.82,-186.8C1187.13,-178.59 1196.47,-168.1 1204.7,-158.87"/>
<polygon fill="#63b8ff" stroke="#63b8ff" points="1207.52,-160.96 1211.56,-151.16 1202.29,-156.3 1207.52,-160.96"/>
</a>
</g>
</g>
<!-- Node31 -->
<g id="Node000031" class="node">
<title>Node31</title>
<g id="a_Node000031"><a xlink:href="../../d5/d02/fast__pimpl_8hpp.html" target="_top" xlink:title="Implements pimpl idiom without dynamic memory allocation.">
<polygon fill="white" stroke="#666666" points="1450.67,-151 1351.67,-151 1351.67,-121 1450.67,-121 1450.67,-151"/>
<text text-anchor="start" x="1359.67" y="-139" font-family="Helvetica,sans-Serif" font-size="10.00">userver/utils/fast</text>
<text text-anchor="middle" x="1401.17" y="-128" font-family="Helvetica,sans-Serif" font-size="10.00">_pimpl.hpp</text>
</a>
</g>
</g>
<!-- Node26&#45;&gt;Node31 -->
<g id="edge43_Node000026_Node000031" class="edge">
<title>Node26&#45;&gt;Node31</title>
<g id="a_edge43_Node000026_Node000031"><a xlink:title=" ">
<path fill="none" stroke="#63b8ff" d="M1218.53,-186.95C1254.83,-177.02 1303.61,-163.68 1341.63,-153.29"/>
<polygon fill="#63b8ff" stroke="#63b8ff" points="1342.82,-156.59 1351.55,-150.57 1340.98,-149.84 1342.82,-156.59"/>
</a>
</g>
</g>
<!-- Node31&#45;&gt;Node7 -->
<g id="edge44_Node000031_Node000007" class="edge">
<title>Node31&#45;&gt;Node7</title>
<g id="a_edge44_Node000031_Node000007"><a xlink:title=" ">
<path fill="none" stroke="#63b8ff" d="M1425.97,-120.95C1445.09,-110.13 1471.37,-95.24 1490.26,-84.54"/>
<polygon fill="#63b8ff" stroke="#63b8ff" points="1492.16,-87.49 1499.14,-79.52 1488.71,-81.4 1492.16,-87.49"/>
</a>
</g>
</g>
<!-- Node31&#45;&gt;Node20 -->
<g id="edge46_Node000031_Node000020" class="edge">
<title>Node31&#45;&gt;Node20</title>
<g id="a_edge46_Node000031_Node000020"><a xlink:title=" ">
<path fill="none" stroke="#63b8ff" d="M1408.4,-120.74C1416.32,-102.87 1425.83,-72.48 1409.17,-55 1378.57,-22.88 711.63,-13.04 530.96,-10.96"/>
<polygon fill="#63b8ff" stroke="#63b8ff" points="530.79,-7.46 520.75,-10.85 530.71,-14.46 530.79,-7.46"/>
</a>
</g>
</g>
<!-- Node31&#45;&gt;Node28 -->
<g id="edge47_Node000031_Node000028" class="edge">
<title>Node31&#45;&gt;Node28</title>
<g id="a_edge47_Node000031_Node000028"><a xlink:title=" ">
<path fill="none" stroke="#63b8ff" d="M1383.86,-120.8C1371.46,-110.62 1354.78,-96.93 1342.04,-86.48"/>
<polygon fill="#63b8ff" stroke="#63b8ff" points="1343.9,-83.48 1333.95,-79.84 1339.46,-88.89 1343.9,-83.48"/>
</a>
</g>
</g>
<!-- Node32 -->
<g id="Node000032" class="node">
<title>Node32</title>
<g id="a_Node000032"><a xlink:title=" ">
<polygon fill="#e0e0e0" stroke="#999999" points="1400.67,-79.5 1363.67,-79.5 1363.67,-60.5 1400.67,-60.5 1400.67,-79.5"/>
<text text-anchor="middle" x="1382.17" y="-67.5" font-family="Helvetica,sans-Serif" font-size="10.00">new</text>
</a>
</g>
</g>
<!-- Node31&#45;&gt;Node32 -->
<g id="edge45_Node000031_Node000032" class="edge">
<title>Node31&#45;&gt;Node32</title>
<g id="a_edge45_Node000031_Node000032"><a xlink:title=" ">
<path fill="none" stroke="#63b8ff" d="M1396.96,-120.8C1394.23,-111.6 1390.64,-99.53 1387.69,-89.58"/>
<polygon fill="#63b8ff" stroke="#63b8ff" points="1391,-88.43 1384.8,-79.84 1384.29,-90.43 1391,-88.43"/>
</a>
</g>
</g>
<!-- Node33&#45;&gt;Node11 -->
<g id="edge49_Node000033_Node000011" class="edge">
<title>Node33&#45;&gt;Node11</title>
<g id="a_edge49_Node000033_Node000011"><a xlink:title=" ">
<path fill="none" stroke="#63b8ff" d="M1811.64,-186.8C1802.13,-176.82 1789.39,-163.46 1779.51,-153.09"/>
<polygon fill="#63b8ff" stroke="#63b8ff" points="1782.04,-150.67 1772.6,-145.84 1776.97,-155.5 1782.04,-150.67"/>
</a>
</g>
</g>
<!-- Node33&#45;&gt;Node13 -->
<g id="edge52_Node000033_Node000013" class="edge">
<title>Node33&#45;&gt;Node13</title>
<g id="a_edge52_Node000033_Node000013"><a xlink:title=" ">
<path fill="none" stroke="#63b8ff" d="M1849.97,-186.95C1866.02,-177.87 1887.1,-165.93 1904.63,-156"/>
<polygon fill="#63b8ff" stroke="#63b8ff" points="1906.46,-158.99 1913.43,-151.01 1903.01,-152.9 1906.46,-158.99"/>
</a>
</g>
</g>
<!-- Node33&#45;&gt;Node14 -->
<g id="edge50_Node000033_Node000014" class="edge">
<title>Node33&#45;&gt;Node14</title>
<g id="a_edge50_Node000033_Node000014"><a xlink:title=" ">
<path fill="none" stroke="#63b8ff" d="M1831.38,-186.84C1841.78,-163.13 1862.7,-115.41 1874.18,-89.23"/>
<polygon fill="#63b8ff" stroke="#63b8ff" points="1877.53,-90.31 1878.34,-79.75 1871.12,-87.5 1877.53,-90.31"/>
</a>
</g>
</g>
<!-- Node33&#45;&gt;Node20 -->
<g id="edge51_Node000033_Node000020" class="edge">
<title>Node33&#45;&gt;Node20</title>
<g id="a_edge51_Node000033_Node000020"><a xlink:title=" ">
<path fill="none" stroke="#63b8ff" d="M1824.37,-187C1822.58,-169.12 1816.8,-138.43 1798.17,-121 1714.58,-42.78 1662.37,-72.16 1549.17,-55 1348.17,-24.52 706.88,-13.56 531.1,-11.08"/>
<polygon fill="#63b8ff" stroke="#63b8ff" points="530.97,-7.58 520.92,-10.94 530.87,-14.58 530.97,-7.58"/>
</a>
</g>
</g>
<!-- Node34&#45;&gt;Node12 -->
<g id="edge56_Node000034_Node000012" class="edge">
<title>Node34&#45;&gt;Node12</title>
<g id="a_edge56_Node000034_Node000012"><a xlink:title=" ">
<path fill="none" stroke="#63b8ff" d="M712.94,-192.44C750.43,-183.2 810.89,-167.59 862.17,-151 864.09,-150.38 866.04,-149.72 868.01,-149.04"/>
<polygon fill="#63b8ff" stroke="#63b8ff" points="869.57,-152.2 877.78,-145.5 867.18,-145.62 869.57,-152.2"/>
</a>
</g>
</g>
<!-- Node34&#45;&gt;Node17 -->
<g id="edge54_Node000034_Node000017" class="edge">
<title>Node34&#45;&gt;Node17</title>
<g id="a_edge54_Node000034_Node000017"><a xlink:title=" ">
<path fill="none" stroke="#63b8ff" d="M651.34,-192.45C622.75,-182.85 575.38,-166.59 535.17,-151 533.97,-150.53 532.74,-150.05 531.5,-149.55"/>
<polygon fill="#63b8ff" stroke="#63b8ff" points="532.56,-146.21 521.98,-145.64 529.9,-152.68 532.56,-146.21"/>
</a>
</g>
</g>
<!-- Node34&#45;&gt;Node18 -->
<g id="edge55_Node000034_Node000018" class="edge">
<title>Node34&#45;&gt;Node18</title>
<g id="a_edge55_Node000034_Node000018"><a xlink:title=" ">
<path fill="none" stroke="#63b8ff" d="M662.88,-192.37C645.26,-181.73 615.08,-163.51 594.18,-150.89"/>
<polygon fill="#63b8ff" stroke="#63b8ff" points="595.95,-147.87 585.58,-145.7 592.33,-153.86 595.95,-147.87"/>
</a>
</g>
</g>
<!-- Node34&#45;&gt;Node20 -->
<g id="edge57_Node000034_Node000020" class="edge">
<title>Node34&#45;&gt;Node20</title>
<g id="a_edge57_Node000034_Node000020"><a xlink:title=" ">
<path fill="none" stroke="#63b8ff" d="M678.96,-192.28C681.65,-176.67 685.09,-143.51 671.17,-121 638.44,-68.04 570.09,-37.24 526.26,-22.17"/>
<polygon fill="#63b8ff" stroke="#63b8ff" points="527.35,-18.85 516.76,-19.02 525.15,-25.49 527.35,-18.85"/>
</a>
</g>
</g>
<!-- Node34&#45;&gt;Node24 -->
<g id="edge59_Node000034_Node000024" class="edge">
<title>Node34&#45;&gt;Node24</title>
<g id="a_edge59_Node000034_Node000024"><a xlink:title=" ">
<path fill="none" stroke="#63b8ff" d="M641.04,-192.44C597.44,-182.1 523.37,-164.54 470.27,-151.96"/>
<polygon fill="#63b8ff" stroke="#63b8ff" points="470.81,-148.49 460.28,-149.59 469.2,-155.3 470.81,-148.49"/>
</a>
</g>
</g>
<!-- Node35 -->
<g id="Node000035" class="node">
<title>Node35</title>
<g id="a_Node000035"><a xlink:title=" ">
<polygon fill="#e0e0e0" stroke="#999999" points="662.67,-145.5 615.67,-145.5 615.67,-126.5 662.67,-126.5 662.67,-145.5"/>
<text text-anchor="middle" x="639.17" y="-133.5" font-family="Helvetica,sans-Serif" font-size="10.00">vector</text>
</a>
</g>
</g>
<!-- Node34&#45;&gt;Node35 -->
<g id="edge58_Node000034_Node000035" class="edge">
<title>Node34&#45;&gt;Node35</title>
<g id="a_edge58_Node000034_Node000035"><a xlink:title=" ">
<path fill="none" stroke="#63b8ff" d="M672.05,-192.37C666.36,-182.78 657.02,-167.05 649.74,-154.8"/>
<polygon fill="#63b8ff" stroke="#63b8ff" points="652.58,-152.72 644.46,-145.91 646.56,-156.29 652.58,-152.72"/>
</a>
</g>
</g>
</g>
</svg>
