<?xml version="1.0" encoding="UTF-8" standalone="no"?>
<!DOCTYPE svg PUBLIC "-//W3C//DTD SVG 1.1//EN"
 "http://www.w3.org/Graphics/SVG/1.1/DTD/svg11.dtd">
<!-- Generated by graphviz version 2.43.0 (0)
 -->
<!-- Title: userver/cache/cache_update_trait.hpp Pages: 1 -->
<svg width="1437pt" height="302pt"
 viewBox="0.00 0.00 1437.00 302.00" xmlns="http://www.w3.org/2000/svg" xmlns:xlink="http://www.w3.org/1999/xlink">
<g id="graph0" class="graph" transform="scale(1 1) rotate(0) translate(4 298)">
<title>userver/cache/cache_update_trait.hpp</title>
<!-- Node1 -->
<g id="Node000001" class="node">
<title>Node1</title>
<g id="a_Node000001"><a xlink:title="Base class for periodically updated caches.">
<polygon fill="#999999" stroke="#666666" points="960.5,-294 844.5,-294 844.5,-264 960.5,-264 960.5,-294"/>
<text text-anchor="start" x="852.5" y="-282" font-family="Helvetica,sans-Serif" font-size="10.00">userver/cache/cache</text>
<text text-anchor="middle" x="902.5" y="-271" font-family="Helvetica,sans-Serif" font-size="10.00">_update_trait.hpp</text>
</a>
</g>
</g>
<!-- Node2 -->
<g id="Node000002" class="node">
<title>Node2</title>
<g id="a_Node000002"><a xlink:title=" ">
<polygon fill="#e0e0e0" stroke="#999999" points="287.5,-24.5 229.5,-24.5 229.5,-5.5 287.5,-5.5 287.5,-24.5"/>
<text text-anchor="middle" x="258.5" y="-12.5" font-family="Helvetica,sans-Serif" font-size="10.00">memory</text>
</a>
</g>
</g>
<!-- Node1&#45;&gt;Node2 -->
<g id="edge1_Node000001_Node000002" class="edge">
<title>Node1&#45;&gt;Node2</title>
<g id="a_edge1_Node000001_Node000002"><a xlink:title=" ">
<path fill="none" stroke="#63b8ff" d="M844.47,-278.35C732.68,-276.62 482.69,-260.97 303.5,-162 265.5,-141.01 248.98,-135.74 231.5,-96 222.22,-74.91 234.51,-49.57 245.38,-33.14"/>
<polygon fill="#63b8ff" stroke="#63b8ff" points="248.51,-34.78 251.45,-24.6 242.81,-30.72 248.51,-34.78"/>
</a>
</g>
</g>
<!-- Node3 -->
<g id="Node000003" class="node">
<title>Node3</title>
<g id="a_Node000003"><a xlink:title=" ">
<polygon fill="#e0e0e0" stroke="#999999" points="1011.5,-156.5 967.5,-156.5 967.5,-137.5 1011.5,-137.5 1011.5,-156.5"/>
<text text-anchor="middle" x="989.5" y="-144.5" font-family="Helvetica,sans-Serif" font-size="10.00">string</text>
</a>
</g>
</g>
<!-- Node1&#45;&gt;Node3 -->
<g id="edge2_Node000001_Node000003" class="edge">
<title>Node1&#45;&gt;Node3</title>
<g id="a_edge2_Node000001_Node000003"><a xlink:title=" ">
<path fill="none" stroke="#63b8ff" d="M930.09,-263.91C944.2,-255.35 960.47,-243.15 970.5,-228 982.67,-209.63 987.07,-184.32 988.65,-167.13"/>
<polygon fill="#63b8ff" stroke="#63b8ff" points="992.17,-166.91 989.35,-156.7 985.19,-166.44 992.17,-166.91"/>
</a>
</g>
</g>
<!-- Node4 -->
<g id="Node000004" class="node">
<title>Node4</title>
<g id="a_Node000004"><a xlink:href="../../d1/d8c/cache__statistics_8hpp.html" target="_top" xlink:title="Statistics collection for components::CachingComponentBase.">
<polygon fill="white" stroke="#666666" points="669.5,-228 553.5,-228 553.5,-198 669.5,-198 669.5,-228"/>
<text text-anchor="start" x="561.5" y="-216" font-family="Helvetica,sans-Serif" font-size="10.00">userver/cache/cache</text>
<text text-anchor="middle" x="611.5" y="-205" font-family="Helvetica,sans-Serif" font-size="10.00">_statistics.hpp</text>
</a>
</g>
</g>
<!-- Node1&#45;&gt;Node4 -->
<g id="edge3_Node000001_Node000004" class="edge">
<title>Node1&#45;&gt;Node4</title>
<g id="a_edge3_Node000001_Node000004"><a xlink:title=" ">
<path fill="none" stroke="#63b8ff" d="M844.31,-265.2C796.83,-254.76 729.66,-239.99 679.66,-228.99"/>
<polygon fill="#63b8ff" stroke="#63b8ff" points="680.11,-225.51 669.59,-226.78 678.6,-232.34 680.11,-225.51"/>
</a>
</g>
</g>
<!-- Node8 -->
<g id="Node000008" class="node">
<title>Node8</title>
<g id="a_Node000008"><a xlink:href="../../d9/dc2/update__type_8hpp.html" target="_top" xlink:title="Enums representing periodic update types for CachingComponentBase">
<polygon fill="white" stroke="#666666" points="949.5,-162 827.5,-162 827.5,-132 949.5,-132 949.5,-162"/>
<text text-anchor="start" x="835.5" y="-150" font-family="Helvetica,sans-Serif" font-size="10.00">userver/cache/update</text>
<text text-anchor="middle" x="888.5" y="-139" font-family="Helvetica,sans-Serif" font-size="10.00">_type.hpp</text>
</a>
</g>
</g>
<!-- Node1&#45;&gt;Node8 -->
<g id="edge22_Node000001_Node000008" class="edge">
<title>Node1&#45;&gt;Node8</title>
<g id="a_edge22_Node000001_Node000008"><a xlink:title=" ">
<path fill="none" stroke="#63b8ff" d="M872.04,-263.94C857.88,-255.66 842.44,-243.69 834.5,-228 828.48,-216.1 829.16,-210.22 834.5,-198 839.54,-186.48 848.68,-176.42 858.04,-168.41"/>
<polygon fill="#63b8ff" stroke="#63b8ff" points="860.22,-171.15 865.85,-162.17 855.85,-165.67 860.22,-171.15"/>
</a>
</g>
</g>
<!-- Node19 -->
<g id="Node000019" class="node">
<title>Node19</title>
<g id="a_Node000019"><a xlink:href="../../d7/d47/component__fwd_8hpp.html" target="_top" xlink:title="Forward declarations for components::ComponentContext and components::ComponentConfig; function compo...">
<polygon fill="white" stroke="#666666" points="961.5,-228 843.5,-228 843.5,-198 961.5,-198 961.5,-228"/>
<text text-anchor="start" x="851.5" y="-216" font-family="Helvetica,sans-Serif" font-size="10.00">userver/components</text>
<text text-anchor="middle" x="902.5" y="-205" font-family="Helvetica,sans-Serif" font-size="10.00">/component_fwd.hpp</text>
</a>
</g>
</g>
<!-- Node1&#45;&gt;Node19 -->
<g id="edge23_Node000001_Node000019" class="edge">
<title>Node1&#45;&gt;Node19</title>
<g id="a_edge23_Node000001_Node000019"><a xlink:title=" ">
<path fill="none" stroke="#63b8ff" d="M902.5,-263.8C902.5,-256.34 902.5,-246.99 902.5,-238.41"/>
<polygon fill="#63b8ff" stroke="#63b8ff" points="906,-238.16 902.5,-228.16 899,-238.16 906,-238.16"/>
</a>
</g>
</g>
<!-- Node20 -->
<g id="Node000020" class="node">
<title>Node20</title>
<g id="a_Node000020"><a xlink:href="../../db/d0c/core_2include_2userver_2dump_2fwd_8hpp.html" target="_top" xlink:title="Forward declarations of dump::Reader, dump::Writer and dump::To.">
<polygon fill="white" stroke="#666666" points="1143,-222.5 1018,-222.5 1018,-203.5 1143,-203.5 1143,-222.5"/>
<text text-anchor="middle" x="1080.5" y="-210.5" font-family="Helvetica,sans-Serif" font-size="10.00">userver/dump/fwd.hpp</text>
</a>
</g>
</g>
<!-- Node1&#45;&gt;Node20 -->
<g id="edge25_Node000001_Node000020" class="edge">
<title>Node1&#45;&gt;Node20</title>
<g id="a_edge25_Node000001_Node000020"><a xlink:title=" ">
<path fill="none" stroke="#63b8ff" d="M941.56,-263.95C973.19,-252.58 1017.26,-236.74 1047.23,-225.96"/>
<polygon fill="#63b8ff" stroke="#63b8ff" points="1048.59,-229.19 1056.81,-222.52 1046.22,-222.61 1048.59,-229.19"/>
</a>
</g>
</g>
<!-- Node22 -->
<g id="Node000022" class="node">
<title>Node22</title>
<g id="a_Node000022"><a xlink:href="../../d8/d03/task__processor__fwd_8hpp.html" target="_top" xlink:title=" ">
<polygon fill="white" stroke="#666666" points="1298,-228 1161,-228 1161,-198 1298,-198 1298,-228"/>
<text text-anchor="start" x="1169" y="-216" font-family="Helvetica,sans-Serif" font-size="10.00">userver/engine/task</text>
<text text-anchor="middle" x="1229.5" y="-205" font-family="Helvetica,sans-Serif" font-size="10.00">/task_processor_fwd.hpp</text>
</a>
</g>
</g>
<!-- Node1&#45;&gt;Node22 -->
<g id="edge28_Node000001_Node000022" class="edge">
<title>Node1&#45;&gt;Node22</title>
<g id="a_edge28_Node000001_Node000022"><a xlink:title=" ">
<path fill="none" stroke="#63b8ff" d="M960.58,-266.63C1013.59,-256.26 1092.35,-240.84 1150.96,-229.37"/>
<polygon fill="#63b8ff" stroke="#63b8ff" points="1151.77,-232.78 1160.92,-227.42 1150.43,-225.91 1151.77,-232.78"/>
</a>
</g>
</g>
<!-- Node24 -->
<g id="Node000024" class="node">
<title>Node24</title>
<g id="a_Node000024"><a xlink:href="../../d5/d14/core_2include_2userver_2rcu_2fwd_8hpp.html" target="_top" xlink:title="Forward declarations for rcu::Variable and rcu::RcuMap.">
<polygon fill="white" stroke="#666666" points="1429,-222.5 1316,-222.5 1316,-203.5 1429,-203.5 1429,-222.5"/>
<text text-anchor="middle" x="1372.5" y="-210.5" font-family="Helvetica,sans-Serif" font-size="10.00">userver/rcu/fwd.hpp</text>
</a>
</g>
</g>
<!-- Node1&#45;&gt;Node24 -->
<g id="edge30_Node000001_Node000024" class="edge">
<title>Node1&#45;&gt;Node24</title>
<g id="a_edge30_Node000001_Node000024"><a xlink:title=" ">
<path fill="none" stroke="#63b8ff" d="M960.6,-272.39C1039.29,-264.44 1184,-248.53 1306.5,-228 1312.42,-227.01 1318.62,-225.85 1324.74,-224.64"/>
<polygon fill="#63b8ff" stroke="#63b8ff" points="1325.82,-227.99 1334.91,-222.56 1324.41,-221.13 1325.82,-227.99"/>
</a>
</g>
</g>
<!-- Node26 -->
<g id="Node000026" class="node">
<title>Node26</title>
<g id="a_Node000026"><a xlink:href="../../db/db5/flags_8hpp.html" target="_top" xlink:title="Types that provide flags interface to enums.">
<polygon fill="white" stroke="#666666" points="184,-222.5 59,-222.5 59,-203.5 184,-203.5 184,-222.5"/>
<text text-anchor="middle" x="121.5" y="-210.5" font-family="Helvetica,sans-Serif" font-size="10.00">userver/utils/flags.hpp</text>
</a>
</g>
</g>
<!-- Node1&#45;&gt;Node26 -->
<g id="edge33_Node000001_Node000026" class="edge">
<title>Node1&#45;&gt;Node26</title>
<g id="a_edge33_Node000001_Node000026"><a xlink:title=" ">
<path fill="none" stroke="#63b8ff" d="M844.34,-276.01C723.59,-271.42 437.08,-258.07 198.5,-228 190.45,-226.99 181.96,-225.68 173.69,-224.28"/>
<polygon fill="#63b8ff" stroke="#63b8ff" points="174.19,-220.82 163.73,-222.53 172.98,-227.71 174.19,-220.82"/>
</a>
</g>
</g>
<!-- Node5 -->
<g id="Node000005" class="node">
<title>Node5</title>
<g id="a_Node000005"><a xlink:title=" ">
<polygon fill="#e0e0e0" stroke="#999999" points="577.5,-90.5 527.5,-90.5 527.5,-71.5 577.5,-71.5 577.5,-90.5"/>
<text text-anchor="middle" x="552.5" y="-78.5" font-family="Helvetica,sans-Serif" font-size="10.00">atomic</text>
</a>
</g>
</g>
<!-- Node4&#45;&gt;Node5 -->
<g id="edge4_Node000004_Node000005" class="edge">
<title>Node4&#45;&gt;Node5</title>
<g id="a_edge4_Node000004_Node000005"><a xlink:title=" ">
<path fill="none" stroke="#63b8ff" d="M580.24,-197.84C565.97,-189.59 550.5,-177.68 542.5,-162 532.59,-142.59 538.44,-117.2 544.53,-100.28"/>
<polygon fill="#63b8ff" stroke="#63b8ff" points="547.79,-101.56 548.23,-90.97 541.29,-98.98 547.79,-101.56"/>
</a>
</g>
</g>
<!-- Node6 -->
<g id="Node000006" class="node">
<title>Node6</title>
<g id="a_Node000006"><a xlink:title=" ">
<polygon fill="#e0e0e0" stroke="#999999" points="601.5,-156.5 551.5,-156.5 551.5,-137.5 601.5,-137.5 601.5,-156.5"/>
<text text-anchor="middle" x="576.5" y="-144.5" font-family="Helvetica,sans-Serif" font-size="10.00">chrono</text>
</a>
</g>
</g>
<!-- Node4&#45;&gt;Node6 -->
<g id="edge5_Node000004_Node000006" class="edge">
<title>Node4&#45;&gt;Node6</title>
<g id="a_edge5_Node000004_Node000006"><a xlink:title=" ">
<path fill="none" stroke="#63b8ff" d="M603.73,-197.8C598.54,-188.31 591.68,-175.76 586.14,-165.63"/>
<polygon fill="#63b8ff" stroke="#63b8ff" points="589.21,-163.94 581.34,-156.84 583.06,-167.3 589.21,-163.94"/>
</a>
</g>
</g>
<!-- Node7 -->
<g id="Node000007" class="node">
<title>Node7</title>
<g id="a_Node000007"><a xlink:title=" ">
<polygon fill="#e0e0e0" stroke="#999999" points="673,-156.5 620,-156.5 620,-137.5 673,-137.5 673,-156.5"/>
<text text-anchor="middle" x="646.5" y="-144.5" font-family="Helvetica,sans-Serif" font-size="10.00">cstddef</text>
</a>
</g>
</g>
<!-- Node4&#45;&gt;Node7 -->
<g id="edge6_Node000004_Node000007" class="edge">
<title>Node4&#45;&gt;Node7</title>
<g id="a_edge6_Node000004_Node000007"><a xlink:title=" ">
<path fill="none" stroke="#63b8ff" d="M619.27,-197.8C624.46,-188.31 631.32,-175.76 636.86,-165.63"/>
<polygon fill="#63b8ff" stroke="#63b8ff" points="639.94,-167.3 641.66,-156.84 633.79,-163.94 639.94,-167.3"/>
</a>
</g>
</g>
<!-- Node4&#45;&gt;Node8 -->
<g id="edge7_Node000004_Node000008" class="edge">
<title>Node4&#45;&gt;Node8</title>
<g id="a_edge7_Node000004_Node000008"><a xlink:title=" ">
<path fill="none" stroke="#63b8ff" d="M669.57,-198.58C712.73,-188.61 771.83,-174.96 817.75,-164.35"/>
<polygon fill="#63b8ff" stroke="#63b8ff" points="818.68,-167.73 827.63,-162.06 817.1,-160.9 818.68,-167.73"/>
</a>
</g>
</g>
<!-- Node14 -->
<g id="Node000014" class="node">
<title>Node14</title>
<g id="a_Node000014"><a xlink:href="../../d7/d2e/core_2include_2userver_2utils_2internal__tag__fwd_8hpp.html" target="_top" xlink:title=" ">
<polygon fill="white" stroke="#666666" points="809.5,-162 691.5,-162 691.5,-132 809.5,-132 809.5,-162"/>
<text text-anchor="start" x="699.5" y="-150" font-family="Helvetica,sans-Serif" font-size="10.00">userver/utils/internal</text>
<text text-anchor="middle" x="750.5" y="-139" font-family="Helvetica,sans-Serif" font-size="10.00">_tag_fwd.hpp</text>
</a>
</g>
</g>
<!-- Node4&#45;&gt;Node14 -->
<g id="edge14_Node000004_Node000014" class="edge">
<title>Node4&#45;&gt;Node14</title>
<g id="a_edge14_Node000004_Node000014"><a xlink:title=" ">
<path fill="none" stroke="#63b8ff" d="M642,-197.95C662.19,-188.66 688.87,-176.38 710.72,-166.32"/>
<polygon fill="#63b8ff" stroke="#63b8ff" points="712.45,-169.37 720.07,-162.01 709.52,-163.02 712.45,-169.37"/>
</a>
</g>
</g>
<!-- Node15 -->
<g id="Node000015" class="node">
<title>Node15</title>
<g id="a_Node000015"><a xlink:href="../../d7/def/core_2include_2userver_2utils_2statistics_2fwd_8hpp.html" target="_top" xlink:title="Forward declarations for statistics entities.">
<polygon fill="white" stroke="#666666" points="366,-96 241,-96 241,-66 366,-66 366,-96"/>
<text text-anchor="start" x="249" y="-84" font-family="Helvetica,sans-Serif" font-size="10.00">userver/utils/statistics</text>
<text text-anchor="middle" x="303.5" y="-73" font-family="Helvetica,sans-Serif" font-size="10.00">/fwd.hpp</text>
</a>
</g>
</g>
<!-- Node4&#45;&gt;Node15 -->
<g id="edge15_Node000004_Node000015" class="edge">
<title>Node4&#45;&gt;Node15</title>
<g id="a_edge15_Node000004_Node000015"><a xlink:title=" ">
<path fill="none" stroke="#63b8ff" d="M553.4,-209.36C478.8,-204.74 355.06,-192.6 322.5,-162 307.44,-147.85 303.34,-124.12 302.62,-106.17"/>
<polygon fill="#63b8ff" stroke="#63b8ff" points="306.12,-106.1 302.53,-96.13 299.12,-106.16 306.12,-106.1"/>
</a>
</g>
</g>
<!-- Node16 -->
<g id="Node000016" class="node">
<title>Node16</title>
<g id="a_Node000016"><a xlink:href="../../df/dd3/rate__counter_8hpp.html" target="_top" xlink:title="Atomic counter of type Rate with relaxed memory ordering.">
<polygon fill="white" stroke="#666666" points="457,-162 332,-162 332,-132 457,-132 457,-162"/>
<text text-anchor="start" x="340" y="-150" font-family="Helvetica,sans-Serif" font-size="10.00">userver/utils/statistics</text>
<text text-anchor="middle" x="394.5" y="-139" font-family="Helvetica,sans-Serif" font-size="10.00">/rate_counter.hpp</text>
</a>
</g>
</g>
<!-- Node4&#45;&gt;Node16 -->
<g id="edge17_Node000004_Node000016" class="edge">
<title>Node4&#45;&gt;Node16</title>
<g id="a_edge17_Node000004_Node000016"><a xlink:title=" ">
<path fill="none" stroke="#63b8ff" d="M563.88,-197.95C530.81,-188.2 486.58,-175.16 451.61,-164.84"/>
<polygon fill="#63b8ff" stroke="#63b8ff" points="452.59,-161.48 442.01,-162.01 450.61,-168.2 452.59,-161.48"/>
</a>
</g>
</g>
<!-- Node9 -->
<g id="Node000009" class="node">
<title>Node9</title>
<g id="a_Node000009"><a xlink:title=" ">
<polygon fill="#e0e0e0" stroke="#999999" points="925,-90.5 852,-90.5 852,-71.5 925,-71.5 925,-90.5"/>
<text text-anchor="middle" x="888.5" y="-78.5" font-family="Helvetica,sans-Serif" font-size="10.00">string_view</text>
</a>
</g>
</g>
<!-- Node8&#45;&gt;Node9 -->
<g id="edge8_Node000008_Node000009" class="edge">
<title>Node8&#45;&gt;Node9</title>
<g id="a_edge8_Node000008_Node000009"><a xlink:title=" ">
<path fill="none" stroke="#63b8ff" d="M888.5,-131.8C888.5,-122.7 888.5,-110.79 888.5,-100.9"/>
<polygon fill="#63b8ff" stroke="#63b8ff" points="892,-100.84 888.5,-90.84 885,-100.84 892,-100.84"/>
</a>
</g>
</g>
<!-- Node10 -->
<g id="Node000010" class="node">
<title>Node10</title>
<g id="a_Node000010"><a xlink:href="../../dc/d7d/json__fwd_8hpp.html" target="_top" xlink:title="Forward declarations of formats::json types, formats::parse::To and formats::serialize::To.">
<polygon fill="white" stroke="#666666" points="833.5,-96 715.5,-96 715.5,-66 833.5,-66 833.5,-96"/>
<text text-anchor="start" x="723.5" y="-84" font-family="Helvetica,sans-Serif" font-size="10.00">userver/formats/json</text>
<text text-anchor="middle" x="774.5" y="-73" font-family="Helvetica,sans-Serif" font-size="10.00">_fwd.hpp</text>
</a>
</g>
</g>
<!-- Node8&#45;&gt;Node10 -->
<g id="edge9_Node000008_Node000010" class="edge">
<title>Node8&#45;&gt;Node10</title>
<g id="a_edge9_Node000008_Node000010"><a xlink:title=" ">
<path fill="none" stroke="#63b8ff" d="M863.48,-131.95C847.3,-122.87 826.02,-110.93 808.34,-101"/>
<polygon fill="#63b8ff" stroke="#63b8ff" points="809.89,-97.86 799.46,-96.01 806.47,-103.96 809.89,-97.86"/>
</a>
</g>
</g>
<!-- Node13 -->
<g id="Node000013" class="node">
<title>Node13</title>
<g id="a_Node000013"><a xlink:href="../../dd/dd7/universal_2include_2userver_2yaml__config_2fwd_8hpp.html" target="_top" xlink:title="Forward declarations of YamlConfig type and formats::parse::To.">
<polygon fill="white" stroke="#666666" points="1059.5,-96 943.5,-96 943.5,-66 1059.5,-66 1059.5,-96"/>
<text text-anchor="start" x="951.5" y="-84" font-family="Helvetica,sans-Serif" font-size="10.00">userver/yaml_config</text>
<text text-anchor="middle" x="1001.5" y="-73" font-family="Helvetica,sans-Serif" font-size="10.00">/fwd.hpp</text>
</a>
</g>
</g>
<!-- Node8&#45;&gt;Node13 -->
<g id="edge12_Node000008_Node000013" class="edge">
<title>Node8&#45;&gt;Node13</title>
<g id="a_edge12_Node000008_Node000013"><a xlink:title=" ">
<path fill="none" stroke="#63b8ff" d="M913.3,-131.95C929.34,-122.87 950.43,-110.93 967.96,-101"/>
<polygon fill="#63b8ff" stroke="#63b8ff" points="969.78,-103.99 976.76,-96.01 966.33,-97.9 969.78,-103.99"/>
</a>
</g>
</g>
<!-- Node11 -->
<g id="Node000011" class="node">
<title>Node11</title>
<g id="a_Node000011"><a xlink:href="../../d2/dc8/universal_2include_2userver_2formats_2parse_2to_8hpp.html" target="_top" xlink:title="Helper for parsers.">
<polygon fill="white" stroke="#666666" points="1025,-30 900,-30 900,0 1025,0 1025,-30"/>
<text text-anchor="start" x="908" y="-18" font-family="Helvetica,sans-Serif" font-size="10.00">userver/formats/parse</text>
<text text-anchor="middle" x="962.5" y="-7" font-family="Helvetica,sans-Serif" font-size="10.00">/to.hpp</text>
</a>
</g>
</g>
<!-- Node10&#45;&gt;Node11 -->
<g id="edge10_Node000010_Node000011" class="edge">
<title>Node10&#45;&gt;Node11</title>
<g id="a_edge10_Node000010_Node000011"><a xlink:title=" ">
<path fill="none" stroke="#63b8ff" d="M815.76,-65.95C844.04,-56.33 881.75,-43.49 911.85,-33.24"/>
<polygon fill="#63b8ff" stroke="#63b8ff" points="913,-36.55 921.34,-30.01 910.74,-29.92 913,-36.55"/>
</a>
</g>
</g>
<!-- Node12 -->
<g id="Node000012" class="node">
<title>Node12</title>
<g id="a_Node000012"><a xlink:href="../../d6/d8e/universal_2include_2userver_2formats_2serialize_2to_8hpp.html" target="_top" xlink:title="Helper for serializers.">
<polygon fill="white" stroke="#666666" points="844,-30 705,-30 705,0 844,0 844,-30"/>
<text text-anchor="start" x="713" y="-18" font-family="Helvetica,sans-Serif" font-size="10.00">userver/formats/serialize</text>
<text text-anchor="middle" x="774.5" y="-7" font-family="Helvetica,sans-Serif" font-size="10.00">/to.hpp</text>
</a>
</g>
</g>
<!-- Node10&#45;&gt;Node12 -->
<g id="edge11_Node000010_Node000012" class="edge">
<title>Node10&#45;&gt;Node12</title>
<g id="a_edge11_Node000010_Node000012"><a xlink:title=" ">
<path fill="none" stroke="#63b8ff" d="M774.5,-65.8C774.5,-58.34 774.5,-48.99 774.5,-40.41"/>
<polygon fill="#63b8ff" stroke="#63b8ff" points="778,-40.16 774.5,-30.16 771,-40.16 778,-40.16"/>
</a>
</g>
</g>
<!-- Node13&#45;&gt;Node11 -->
<g id="edge13_Node000013_Node000011" class="edge">
<title>Node13&#45;&gt;Node11</title>
<g id="a_edge13_Node000013_Node000011"><a xlink:title=" ">
<path fill="none" stroke="#63b8ff" d="M992.84,-65.8C988,-57.84 981.84,-47.74 976.34,-38.71"/>
<polygon fill="#63b8ff" stroke="#63b8ff" points="979.32,-36.88 971.13,-30.16 973.35,-40.52 979.32,-36.88"/>
</a>
</g>
</g>
<!-- Node15&#45;&gt;Node2 -->
<g id="edge16_Node000015_Node000002" class="edge">
<title>Node15&#45;&gt;Node2</title>
<g id="a_edge16_Node000015_Node000002"><a xlink:title=" ">
<path fill="none" stroke="#63b8ff" d="M293.51,-65.8C286.77,-56.21 277.84,-43.5 270.68,-33.32"/>
<polygon fill="#63b8ff" stroke="#63b8ff" points="273.33,-31.01 264.72,-24.84 267.61,-35.04 273.33,-31.01"/>
</a>
</g>
</g>
<!-- Node16&#45;&gt;Node5 -->
<g id="edge18_Node000016_Node000005" class="edge">
<title>Node16&#45;&gt;Node5</title>
<g id="a_edge18_Node000016_Node000005"><a xlink:title=" ">
<path fill="none" stroke="#63b8ff" d="M429.17,-131.95C456.88,-120.73 495.35,-105.15 521.92,-94.39"/>
<polygon fill="#63b8ff" stroke="#63b8ff" points="523.52,-97.52 531.47,-90.52 520.89,-91.03 523.52,-97.52"/>
</a>
</g>
</g>
<!-- Node16&#45;&gt;Node15 -->
<g id="edge19_Node000016_Node000015" class="edge">
<title>Node16&#45;&gt;Node15</title>
<g id="a_edge19_Node000016_Node000015"><a xlink:title=" ">
<path fill="none" stroke="#63b8ff" d="M374.3,-131.8C361.82,-123.01 345.6,-111.61 331.84,-101.93"/>
<polygon fill="#63b8ff" stroke="#63b8ff" points="333.83,-99.05 323.64,-96.16 329.81,-104.78 333.83,-99.05"/>
</a>
</g>
</g>
<!-- Node17 -->
<g id="Node000017" class="node">
<title>Node17</title>
<g id="a_Node000017"><a xlink:href="../../d6/dab/rate_8hpp.html" target="_top" xlink:title=" ">
<polygon fill="white" stroke="#666666" points="509,-96 384,-96 384,-66 509,-66 509,-96"/>
<text text-anchor="start" x="392" y="-84" font-family="Helvetica,sans-Serif" font-size="10.00">userver/utils/statistics</text>
<text text-anchor="middle" x="446.5" y="-73" font-family="Helvetica,sans-Serif" font-size="10.00">/rate.hpp</text>
</a>
</g>
</g>
<!-- Node16&#45;&gt;Node17 -->
<g id="edge20_Node000016_Node000017" class="edge">
<title>Node16&#45;&gt;Node17</title>
<g id="a_edge20_Node000016_Node000017"><a xlink:title=" ">
<path fill="none" stroke="#63b8ff" d="M406.04,-131.8C412.64,-123.68 421.06,-113.31 428.5,-104.15"/>
<polygon fill="#63b8ff" stroke="#63b8ff" points="431.4,-106.13 434.99,-96.16 425.97,-101.72 431.4,-106.13"/>
</a>
</g>
</g>
<!-- Node18 -->
<g id="Node000018" class="node">
<title>Node18</title>
<g id="a_Node000018"><a xlink:title=" ">
<polygon fill="#e0e0e0" stroke="#999999" points="471.5,-24.5 421.5,-24.5 421.5,-5.5 471.5,-5.5 471.5,-24.5"/>
<text text-anchor="middle" x="446.5" y="-12.5" font-family="Helvetica,sans-Serif" font-size="10.00">cstdint</text>
</a>
</g>
</g>
<!-- Node17&#45;&gt;Node18 -->
<g id="edge21_Node000017_Node000018" class="edge">
<title>Node17&#45;&gt;Node18</title>
<g id="a_edge21_Node000017_Node000018"><a xlink:title=" ">
<path fill="none" stroke="#63b8ff" d="M446.5,-65.8C446.5,-56.7 446.5,-44.79 446.5,-34.9"/>
<polygon fill="#63b8ff" stroke="#63b8ff" points="450,-34.84 446.5,-24.84 443,-34.84 450,-34.84"/>
</a>
</g>
</g>
<!-- Node19&#45;&gt;Node3 -->
<g id="edge24_Node000019_Node000003" class="edge">
<title>Node19&#45;&gt;Node3</title>
<g id="a_edge24_Node000019_Node000003"><a xlink:title=" ">
<path fill="none" stroke="#63b8ff" d="M921.81,-197.8C935.99,-187.37 955.19,-173.24 969.52,-162.69"/>
<polygon fill="#63b8ff" stroke="#63b8ff" points="971.75,-165.4 977.73,-156.66 967.6,-159.76 971.75,-165.4"/>
</a>
</g>
</g>
<!-- Node21 -->
<g id="Node000021" class="node">
<title>Node21</title>
<g id="a_Node000021"><a xlink:href="../../d4/d56/core_2include_2userver_2dump_2to_8hpp.html" target="_top" xlink:title="A marker type used in ADL&#45;found Read">
<polygon fill="white" stroke="#666666" points="1147.5,-156.5 1029.5,-156.5 1029.5,-137.5 1147.5,-137.5 1147.5,-156.5"/>
<text text-anchor="middle" x="1088.5" y="-144.5" font-family="Helvetica,sans-Serif" font-size="10.00">userver/dump/to.hpp</text>
</a>
</g>
</g>
<!-- Node20&#45;&gt;Node21 -->
<g id="edge26_Node000020_Node000021" class="edge">
<title>Node20&#45;&gt;Node21</title>
<g id="a_edge26_Node000020_Node000021"><a xlink:title=" ">
<path fill="none" stroke="#63b8ff" d="M1081.58,-203.37C1082.74,-194.07 1084.63,-178.98 1086.14,-166.9"/>
<polygon fill="#63b8ff" stroke="#63b8ff" points="1089.62,-167.26 1087.39,-156.91 1082.67,-166.39 1089.62,-167.26"/>
</a>
</g>
</g>
<!-- Node21&#45;&gt;Node21 -->
<g id="edge27_Node000021_Node000021" class="edge">
<title>Node21&#45;&gt;Node21</title>
<g id="a_edge27_Node000021_Node000021"><a xlink:title=" ">
<path fill="none" stroke="#63b8ff" d="M1112.55,-156.56C1137.52,-162.37 1165.5,-159.18 1165.5,-147 1165.5,-136.44 1144.46,-132.64 1122.58,-135.6"/>
<polygon fill="#63b8ff" stroke="#63b8ff" points="1121.75,-132.19 1112.55,-137.44 1123.01,-139.08 1121.75,-132.19"/>
</a>
</g>
</g>
<!-- Node23 -->
<g id="Node000023" class="node">
<title>Node23</title>
<g id="a_Node000023"><a xlink:title=" ">
<polygon fill="#e0e0e0" stroke="#999999" points="1285,-156.5 1220,-156.5 1220,-137.5 1285,-137.5 1285,-156.5"/>
<text text-anchor="middle" x="1252.5" y="-144.5" font-family="Helvetica,sans-Serif" font-size="10.00">functional</text>
</a>
</g>
</g>
<!-- Node22&#45;&gt;Node23 -->
<g id="edge29_Node000022_Node000023" class="edge">
<title>Node22&#45;&gt;Node23</title>
<g id="a_edge29_Node000022_Node000023"><a xlink:title=" ">
<path fill="none" stroke="#63b8ff" d="M1234.6,-197.8C1237.94,-188.5 1242.34,-176.27 1245.94,-166.26"/>
<polygon fill="#63b8ff" stroke="#63b8ff" points="1249.23,-167.44 1249.32,-156.84 1242.65,-165.07 1249.23,-167.44"/>
</a>
</g>
</g>
<!-- Node24&#45;&gt;Node23 -->
<g id="edge31_Node000024_Node000023" class="edge">
<title>Node24&#45;&gt;Node23</title>
<g id="a_edge31_Node000024_Node000023"><a xlink:title=" ">
<path fill="none" stroke="#63b8ff" d="M1356.32,-203.37C1336.19,-192.63 1301.59,-174.18 1277.91,-161.55"/>
<polygon fill="#63b8ff" stroke="#63b8ff" points="1279.28,-158.32 1268.81,-156.7 1275.99,-164.49 1279.28,-158.32"/>
</a>
</g>
</g>
<!-- Node25 -->
<g id="Node000025" class="node">
<title>Node25</title>
<g id="a_Node000025"><a xlink:title=" ">
<polygon fill="#e0e0e0" stroke="#999999" points="1419,-156.5 1326,-156.5 1326,-137.5 1419,-137.5 1419,-156.5"/>
<text text-anchor="middle" x="1372.5" y="-144.5" font-family="Helvetica,sans-Serif" font-size="10.00">unordered_map</text>
</a>
</g>
</g>
<!-- Node24&#45;&gt;Node25 -->
<g id="edge32_Node000024_Node000025" class="edge">
<title>Node24&#45;&gt;Node25</title>
<g id="a_edge32_Node000024_Node000025"><a xlink:title=" ">
<path fill="none" stroke="#63b8ff" d="M1372.5,-203.37C1372.5,-194.16 1372.5,-179.29 1372.5,-167.27"/>
<polygon fill="#63b8ff" stroke="#63b8ff" points="1376,-166.91 1372.5,-156.91 1369,-166.91 1376,-166.91"/>
</a>
</g>
</g>
<!-- Node26&#45;&gt;Node5 -->
<g id="edge34_Node000026_Node000005" class="edge">
<title>Node26&#45;&gt;Node5</title>
<g id="a_edge34_Node000026_Node000005"><a xlink:title=" ">
<path fill="none" stroke="#63b8ff" d="M184.34,-207.33C269.63,-200.23 416.99,-185.07 465.5,-162 496.69,-147.16 524.48,-117.25 539.86,-98.5"/>
<polygon fill="#63b8ff" stroke="#63b8ff" points="542.7,-100.54 546.19,-90.53 537.23,-96.18 542.7,-100.54"/>
</a>
</g>
</g>
<!-- Node27 -->
<g id="Node000027" class="node">
<title>Node27</title>
<g id="a_Node000027"><a xlink:title=" ">
<polygon fill="#e0e0e0" stroke="#999999" points="83,-156.5 0,-156.5 0,-137.5 83,-137.5 83,-156.5"/>
<text text-anchor="middle" x="41.5" y="-144.5" font-family="Helvetica,sans-Serif" font-size="10.00">initializer_list</text>
</a>
</g>
</g>
<!-- Node26&#45;&gt;Node27 -->
<g id="edge35_Node000026_Node000027" class="edge">
<title>Node26&#45;&gt;Node27</title>
<g id="a_edge35_Node000026_Node000027"><a xlink:title=" ">
<path fill="none" stroke="#63b8ff" d="M110.71,-203.37C97.83,-193.06 76.06,-175.65 60.37,-163.09"/>
<polygon fill="#63b8ff" stroke="#63b8ff" points="62.37,-160.21 52.37,-156.7 58,-165.68 62.37,-160.21"/>
</a>
</g>
</g>
<!-- Node28 -->
<g id="Node000028" class="node">
<title>Node28</title>
<g id="a_Node000028"><a xlink:title=" ">
<polygon fill="#e0e0e0" stroke="#999999" points="170,-156.5 101,-156.5 101,-137.5 170,-137.5 170,-156.5"/>
<text text-anchor="middle" x="135.5" y="-144.5" font-family="Helvetica,sans-Serif" font-size="10.00">type_traits</text>
</a>
</g>
</g>
<!-- Node26&#45;&gt;Node28 -->
<g id="edge36_Node000026_Node000028" class="edge">
<title>Node26&#45;&gt;Node28</title>
<g id="a_edge36_Node000026_Node000028"><a xlink:title=" ">
<path fill="none" stroke="#63b8ff" d="M123.39,-203.37C125.42,-194.07 128.72,-178.98 131.37,-166.9"/>
<polygon fill="#63b8ff" stroke="#63b8ff" points="134.83,-167.42 133.55,-156.91 128,-165.93 134.83,-167.42"/>
</a>
</g>
</g>
</g>
</svg>
