<?xml version="1.0" encoding="UTF-8" standalone="no"?>
<!DOCTYPE svg PUBLIC "-//W3C//DTD SVG 1.1//EN"
 "http://www.w3.org/Graphics/SVG/1.1/DTD/svg11.dtd">
<!-- Generated by graphviz version 2.43.0 (0)
 -->
<!-- Title: userver/utils/not_null.hpp Pages: 1 -->
<svg width="1498pt" height="302pt"
 viewBox="0.00 0.00 1498.00 302.00" xmlns="http://www.w3.org/2000/svg" xmlns:xlink="http://www.w3.org/1999/xlink">
<g id="graph0" class="graph" transform="scale(1 1) rotate(0) translate(4 298)">
<title>userver/utils/not_null.hpp</title>
<!-- Node1 -->
<g id="Node000001" class="node">
<title>Node1</title>
<g id="a_Node000001"><a xlink:title="Restricts a pointer or smart pointer to only hold non&#45;null values.">
<polygon fill="#999999" stroke="#666666" points="809.5,-294 669.5,-294 669.5,-275 809.5,-275 809.5,-294"/>
<text text-anchor="middle" x="739.5" y="-282" font-family="Helvetica,sans-Serif" font-size="10.00">userver/utils/not_null.hpp</text>
</a>
</g>
</g>
<!-- Node2 -->
<g id="Node000002" class="node">
<title>Node2</title>
<g id="a_Node000002"><a xlink:href="../../d3/db8/core_2include_2userver_2clients_2http_2client_8hpp.html" target="_top" xlink:title="HTTP client that returns a HTTP request builder from CreateRequest().">
<polygon fill="white" stroke="#666666" points="387,-101.5 276,-101.5 276,-71.5 387,-71.5 387,-101.5"/>
<text text-anchor="start" x="284" y="-89.5" font-family="Helvetica,sans-Serif" font-size="10.00">userver/clients/http</text>
<text text-anchor="middle" x="331.5" y="-78.5" font-family="Helvetica,sans-Serif" font-size="10.00">/client.hpp</text>
</a>
</g>
</g>
<!-- Node1&#45;&gt;Node2 -->
<g id="edge1_Node000001_Node000002" class="edge">
<title>Node1&#45;&gt;Node2</title>
<g id="a_edge1_Node000001_Node000002"><a xlink:title=" ">
<path fill="none" stroke="#63b8ff" d="M659.17,-279.55C551.69,-273.48 372.01,-260.27 350.5,-239 313.19,-202.09 322.23,-131.65 328.24,-101.62"/>
<polygon fill="#63b8ff" stroke="#63b8ff" points="659.16,-283.05 669.34,-280.11 659.55,-276.06 659.16,-283.05"/>
</a>
</g>
</g>
<!-- Node4 -->
<g id="Node000004" class="node">
<title>Node4</title>
<g id="a_Node000004"><a xlink:href="../../d1/dab/plugin_8hpp.html" target="_top" xlink:title="Base class for HTTP Client plugins.">
<polygon fill="white" stroke="#666666" points="284,-239 173,-239 173,-209 284,-209 284,-239"/>
<text text-anchor="start" x="181" y="-227" font-family="Helvetica,sans-Serif" font-size="10.00">userver/clients/http</text>
<text text-anchor="middle" x="228.5" y="-216" font-family="Helvetica,sans-Serif" font-size="10.00">/plugin.hpp</text>
</a>
</g>
</g>
<!-- Node1&#45;&gt;Node4 -->
<g id="edge3_Node000001_Node000004" class="edge">
<title>Node1&#45;&gt;Node4</title>
<g id="a_edge3_Node000001_Node000004"><a xlink:title=" ">
<path fill="none" stroke="#63b8ff" d="M659.08,-276.25C574.07,-268.3 436.12,-254.57 317.5,-239 306.8,-237.6 295.4,-235.93 284.46,-234.25"/>
<polygon fill="#63b8ff" stroke="#63b8ff" points="658.9,-279.75 669.18,-277.19 659.55,-272.78 658.9,-279.75"/>
</a>
</g>
</g>
<!-- Node9 -->
<g id="Node000009" class="node">
<title>Node9</title>
<g id="a_Node000009"><a xlink:href="../../d6/df3/core_2include_2userver_2fs_2temp__file_8hpp.html" target="_top" xlink:title="A unique temporary file. The file is deleted when the TempFile object is destroyed.">
<polygon fill="white" stroke="#666666" points="495,-233.5 360,-233.5 360,-214.5 495,-214.5 495,-233.5"/>
<text text-anchor="middle" x="427.5" y="-221.5" font-family="Helvetica,sans-Serif" font-size="10.00">userver/fs/temp_file.hpp</text>
</a>
</g>
</g>
<!-- Node1&#45;&gt;Node9 -->
<g id="edge10_Node000001_Node000009" class="edge">
<title>Node1&#45;&gt;Node9</title>
<g id="a_edge10_Node000001_Node000009"><a xlink:title=" ">
<path fill="none" stroke="#63b8ff" d="M684.05,-273.1C623.86,-261.82 528.87,-244.01 472.92,-233.52"/>
<polygon fill="#63b8ff" stroke="#63b8ff" points="683.66,-276.59 694.13,-274.99 684.95,-269.71 683.66,-276.59"/>
</a>
</g>
</g>
<!-- Node10 -->
<g id="Node000010" class="node">
<title>Node10</title>
<g id="a_Node000010"><a xlink:href="../../d3/d1a/server_2congestion__control_2limiter_8hpp_source.html" target="_top" xlink:title=" ">
<polygon fill="white" stroke="#666666" points="656,-239 513,-239 513,-209 656,-209 656,-239"/>
<text text-anchor="start" x="521" y="-227" font-family="Helvetica,sans-Serif" font-size="10.00">userver/server/congestion</text>
<text text-anchor="middle" x="584.5" y="-216" font-family="Helvetica,sans-Serif" font-size="10.00">_control/limiter.hpp</text>
</a>
</g>
</g>
<!-- Node1&#45;&gt;Node10 -->
<g id="edge11_Node000001_Node000010" class="edge">
<title>Node1&#45;&gt;Node10</title>
<g id="a_edge11_Node000001_Node000010"><a xlink:title=" ">
<path fill="none" stroke="#63b8ff" d="M707.59,-271.46C682.66,-262.05 647.97,-248.95 621.76,-239.06"/>
<polygon fill="#63b8ff" stroke="#63b8ff" points="706.37,-274.74 716.96,-274.99 708.84,-268.19 706.37,-274.74"/>
</a>
</g>
</g>
<!-- Node14 -->
<g id="Node000014" class="node">
<title>Node14</title>
<g id="a_Node000014"><a xlink:href="../../d2/d2b/dump__control_8hpp.html" target="_top" xlink:title="Dumper control interface for testsuite.">
<polygon fill="white" stroke="#666666" points="804.5,-239 674.5,-239 674.5,-209 804.5,-209 804.5,-239"/>
<text text-anchor="start" x="682.5" y="-227" font-family="Helvetica,sans-Serif" font-size="10.00">userver/testsuite/dump</text>
<text text-anchor="middle" x="739.5" y="-216" font-family="Helvetica,sans-Serif" font-size="10.00">_control.hpp</text>
</a>
</g>
</g>
<!-- Node1&#45;&gt;Node14 -->
<g id="edge15_Node000001_Node000014" class="edge">
<title>Node1&#45;&gt;Node14</title>
<g id="a_edge15_Node000001_Node000014"><a xlink:title=" ">
<path fill="none" stroke="#63b8ff" d="M739.5,-264.65C739.5,-256.36 739.5,-246.78 739.5,-239.11"/>
<polygon fill="#63b8ff" stroke="#63b8ff" points="736,-264.87 739.5,-274.87 743,-264.87 736,-264.87"/>
</a>
</g>
</g>
<!-- Node16 -->
<g id="Node000016" class="node">
<title>Node16</title>
<g id="a_Node000016"><a xlink:href="../../da/dbd/userver__experiments_8hpp_source.html" target="_top" xlink:title=" ">
<polygon fill="white" stroke="#666666" points="966.5,-239 822.5,-239 822.5,-209 966.5,-209 966.5,-239"/>
<text text-anchor="start" x="830.5" y="-227" font-family="Helvetica,sans-Serif" font-size="10.00">userver/utils/impl</text>
<text text-anchor="middle" x="894.5" y="-216" font-family="Helvetica,sans-Serif" font-size="10.00">/userver_experiments.hpp</text>
</a>
</g>
</g>
<!-- Node1&#45;&gt;Node16 -->
<g id="edge17_Node000001_Node000016" class="edge">
<title>Node1&#45;&gt;Node16</title>
<g id="a_edge17_Node000001_Node000016"><a xlink:title=" ">
<path fill="none" stroke="#63b8ff" d="M771.41,-271.46C796.34,-262.05 831.03,-248.95 857.24,-239.06"/>
<polygon fill="#63b8ff" stroke="#63b8ff" points="770.16,-268.19 762.04,-274.99 772.63,-274.74 770.16,-268.19"/>
</a>
</g>
</g>
<!-- Node17 -->
<g id="Node000017" class="node">
<title>Node17</title>
<g id="a_Node000017"><a xlink:href="../../d2/da2/testing_8hpp_source.html" target="_top" xlink:title=" ">
<polygon fill="white" stroke="#666666" points="1110,-239 985,-239 985,-209 1110,-209 1110,-239"/>
<text text-anchor="start" x="993" y="-227" font-family="Helvetica,sans-Serif" font-size="10.00">userver/utils/statistics</text>
<text text-anchor="middle" x="1047.5" y="-216" font-family="Helvetica,sans-Serif" font-size="10.00">/testing.hpp</text>
</a>
</g>
</g>
<!-- Node1&#45;&gt;Node17 -->
<g id="edge18_Node000001_Node000017" class="edge">
<title>Node1&#45;&gt;Node17</title>
<g id="a_edge18_Node000001_Node000017"><a xlink:title=" ">
<path fill="none" stroke="#63b8ff" d="M795.04,-273.12C842.88,-264.16 913.76,-250.82 975.5,-239 978.5,-238.43 981.57,-237.84 984.68,-237.24"/>
<polygon fill="#63b8ff" stroke="#63b8ff" points="794.38,-269.68 785.2,-274.96 795.67,-276.56 794.38,-269.68"/>
</a>
</g>
</g>
<!-- Node18 -->
<g id="Node000018" class="node">
<title>Node18</title>
<g id="a_Node000018"><a xlink:href="../../d9/d9b/worker_8hpp.html" target="_top" xlink:title=" ">
<polygon fill="white" stroke="#666666" points="1249,-239 1128,-239 1128,-209 1249,-209 1249,-239"/>
<text text-anchor="start" x="1136" y="-227" font-family="Helvetica,sans-Serif" font-size="10.00">userver/ydb/dist_lock</text>
<text text-anchor="middle" x="1188.5" y="-216" font-family="Helvetica,sans-Serif" font-size="10.00">/worker.hpp</text>
</a>
</g>
</g>
<!-- Node1&#45;&gt;Node18 -->
<g id="edge19_Node000001_Node000018" class="edge">
<title>Node1&#45;&gt;Node18</title>
<g id="a_edge19_Node000001_Node000018"><a xlink:title=" ">
<path fill="none" stroke="#63b8ff" d="M819.68,-275.98C896.57,-268.32 1015.8,-255.27 1118.5,-239 1121.56,-238.52 1124.69,-237.99 1127.85,-237.44"/>
<polygon fill="#63b8ff" stroke="#63b8ff" points="819.19,-272.51 809.58,-276.98 819.88,-279.48 819.19,-272.51"/>
</a>
</g>
</g>
<!-- Node20 -->
<g id="Node000020" class="node">
<title>Node20</title>
<g id="a_Node000020"><a xlink:href="../../db/d0b/ydb_2include_2userver_2ydb_2response_8hpp_source.html" target="_top" xlink:title=" ">
<polygon fill="white" stroke="#666666" points="1410,-233.5 1267,-233.5 1267,-214.5 1410,-214.5 1410,-233.5"/>
<text text-anchor="middle" x="1338.5" y="-221.5" font-family="Helvetica,sans-Serif" font-size="10.00">userver/ydb/response.hpp</text>
</a>
</g>
</g>
<!-- Node1&#45;&gt;Node20 -->
<g id="edge21_Node000001_Node000020" class="edge">
<title>Node1&#45;&gt;Node20</title>
<g id="a_edge21_Node000001_Node000020"><a xlink:title=" ">
<path fill="none" stroke="#63b8ff" d="M819.89,-278.73C921.92,-272.19 1103.23,-258.92 1257.5,-239 1269.11,-237.5 1281.59,-235.53 1293.19,-233.53"/>
<polygon fill="#63b8ff" stroke="#63b8ff" points="819.42,-275.25 809.66,-279.38 819.87,-282.24 819.42,-275.25"/>
</a>
</g>
</g>
<!-- Node3 -->
<g id="Node000003" class="node">
<title>Node3</title>
<g id="a_Node000003"><a xlink:href="../../d7/d98/core_2include_2userver_2clients_2http_2component_8hpp.html" target="_top" xlink:title="Component that manages clients::http::Client.">
<polygon fill="white" stroke="#666666" points="387,-30 276,-30 276,0 387,0 387,-30"/>
<text text-anchor="start" x="284" y="-18" font-family="Helvetica,sans-Serif" font-size="10.00">userver/clients/http</text>
<text text-anchor="middle" x="331.5" y="-7" font-family="Helvetica,sans-Serif" font-size="10.00">/component.hpp</text>
</a>
</g>
</g>
<!-- Node2&#45;&gt;Node3 -->
<g id="edge2_Node000002_Node000003" class="edge">
<title>Node2&#45;&gt;Node3</title>
<g id="a_edge2_Node000002_Node000003"><a xlink:title=" ">
<path fill="none" stroke="#63b8ff" d="M331.5,-61.25C331.5,-50.81 331.5,-38.99 331.5,-30.04"/>
<polygon fill="#63b8ff" stroke="#63b8ff" points="328,-61.44 331.5,-71.44 335,-61.44 328,-61.44"/>
</a>
</g>
</g>
<!-- Node4&#45;&gt;Node2 -->
<g id="edge4_Node000004_Node000002" class="edge">
<title>Node4&#45;&gt;Node2</title>
<g id="a_edge4_Node000004_Node000002"><a xlink:title=" ">
<path fill="none" stroke="#63b8ff" d="M249.3,-201.19C257.16,-192.63 266,-182.57 273.5,-173 292.41,-148.85 311.94,-118.82 322.82,-101.53"/>
<polygon fill="#63b8ff" stroke="#63b8ff" points="246.68,-198.88 242.44,-208.58 251.81,-203.64 246.68,-198.88"/>
</a>
</g>
</g>
<!-- Node5 -->
<g id="Node000005" class="node">
<title>Node5</title>
<g id="a_Node000005"><a xlink:href="../../d5/d70/plugin__component_8hpp_source.html" target="_top" xlink:title=" ">
<polygon fill="white" stroke="#666666" points="134,-173 3,-173 3,-143 134,-143 134,-173"/>
<text text-anchor="start" x="11" y="-161" font-family="Helvetica,sans-Serif" font-size="10.00">userver/clients/http</text>
<text text-anchor="middle" x="68.5" y="-150" font-family="Helvetica,sans-Serif" font-size="10.00">/plugin_component.hpp</text>
</a>
</g>
</g>
<!-- Node4&#45;&gt;Node5 -->
<g id="edge5_Node000004_Node000005" class="edge">
<title>Node4&#45;&gt;Node5</title>
<g id="a_edge5_Node000004_Node000005"><a xlink:title=" ">
<path fill="none" stroke="#63b8ff" d="M183.97,-205.19C158.56,-195.02 127.17,-182.47 103.53,-173.01"/>
<polygon fill="#63b8ff" stroke="#63b8ff" points="182.8,-208.49 193.39,-208.95 185.4,-201.99 182.8,-208.49"/>
</a>
</g>
</g>
<!-- Node7 -->
<g id="Node000007" class="node">
<title>Node7</title>
<g id="a_Node000007"><a xlink:href="../../d1/d57/core_2include_2userver_2clients_2http_2request_8hpp.html" target="_top" xlink:title="Class for creating and performing new http requests.">
<polygon fill="white" stroke="#666666" points="265,-173 154,-173 154,-143 265,-143 265,-173"/>
<text text-anchor="start" x="162" y="-161" font-family="Helvetica,sans-Serif" font-size="10.00">userver/clients/http</text>
<text text-anchor="middle" x="209.5" y="-150" font-family="Helvetica,sans-Serif" font-size="10.00">/request.hpp</text>
</a>
</g>
</g>
<!-- Node4&#45;&gt;Node7 -->
<g id="edge7_Node000004_Node000007" class="edge">
<title>Node4&#45;&gt;Node7</title>
<g id="a_edge7_Node000004_Node000007"><a xlink:title=" ">
<path fill="none" stroke="#63b8ff" d="M221.41,-199.11C218.81,-190.38 215.97,-180.78 213.7,-173.16"/>
<polygon fill="#63b8ff" stroke="#63b8ff" points="218.08,-200.21 224.28,-208.8 224.79,-198.21 218.08,-200.21"/>
</a>
</g>
</g>
<!-- Node6 -->
<g id="Node000006" class="node">
<title>Node6</title>
<g id="a_Node000006"><a xlink:href="../../d5/d3d/core_2include_2userver_2clients_2http_2plugins_2yandex__tracing_2component_8hpp_source.html" target="_top" xlink:title=" ">
<polygon fill="white" stroke="#666666" points="133,-107 0,-107 0,-66 133,-66 133,-107"/>
<text text-anchor="start" x="8" y="-95" font-family="Helvetica,sans-Serif" font-size="10.00">userver/clients/http</text>
<text text-anchor="start" x="8" y="-84" font-family="Helvetica,sans-Serif" font-size="10.00">/plugins/yandex_tracing</text>
<text text-anchor="middle" x="66.5" y="-73" font-family="Helvetica,sans-Serif" font-size="10.00">/component.hpp</text>
</a>
</g>
</g>
<!-- Node5&#45;&gt;Node6 -->
<g id="edge6_Node000005_Node000006" class="edge">
<title>Node5&#45;&gt;Node6</title>
<g id="a_edge6_Node000005_Node000006"><a xlink:title=" ">
<path fill="none" stroke="#63b8ff" d="M67.81,-132.91C67.56,-124.47 67.29,-115.1 67.06,-107.07"/>
<polygon fill="#63b8ff" stroke="#63b8ff" points="64.31,-133.04 68.1,-142.94 71.31,-132.84 64.31,-133.04"/>
</a>
</g>
</g>
<!-- Node7&#45;&gt;Node2 -->
<g id="edge8_Node000007_Node000002" class="edge">
<title>Node7&#45;&gt;Node2</title>
<g id="a_edge8_Node000007_Node000002"><a xlink:title=" ">
<path fill="none" stroke="#63b8ff" d="M243.06,-137.88C263.25,-126.38 288.5,-111.99 306.85,-101.54"/>
<polygon fill="#63b8ff" stroke="#63b8ff" points="241.15,-134.94 234.19,-142.94 244.61,-141.03 241.15,-134.94"/>
</a>
</g>
</g>
<!-- Node8 -->
<g id="Node000008" class="node">
<title>Node8</title>
<g id="a_Node000008"><a xlink:href="../../d2/d6c/http__server__mock_8hpp_source.html" target="_top" xlink:title=" ">
<polygon fill="white" stroke="#666666" points="257.5,-101.5 151.5,-101.5 151.5,-71.5 257.5,-71.5 257.5,-101.5"/>
<text text-anchor="start" x="159.5" y="-89.5" font-family="Helvetica,sans-Serif" font-size="10.00">userver/utest/http</text>
<text text-anchor="middle" x="204.5" y="-78.5" font-family="Helvetica,sans-Serif" font-size="10.00">_server_mock.hpp</text>
</a>
</g>
</g>
<!-- Node7&#45;&gt;Node8 -->
<g id="edge9_Node000007_Node000008" class="edge">
<title>Node7&#45;&gt;Node8</title>
<g id="a_edge9_Node000007_Node000008"><a xlink:title=" ">
<path fill="none" stroke="#63b8ff" d="M207.76,-132.75C207,-122.31 206.15,-110.49 205.51,-101.54"/>
<polygon fill="#63b8ff" stroke="#63b8ff" points="204.28,-133.21 208.49,-142.94 211.26,-132.71 204.28,-133.21"/>
</a>
</g>
</g>
<!-- Node11 -->
<g id="Node000011" class="node">
<title>Node11</title>
<g id="a_Node000011"><a xlink:href="../../dd/d55/core_2include_2userver_2congestion__control_2component_8hpp.html" target="_top" xlink:title="Component to limit too active requests, also known as CC.">
<polygon fill="white" stroke="#666666" points="495.5,-173 361.5,-173 361.5,-143 495.5,-143 495.5,-173"/>
<text text-anchor="start" x="369.5" y="-161" font-family="Helvetica,sans-Serif" font-size="10.00">userver/congestion</text>
<text text-anchor="middle" x="428.5" y="-150" font-family="Helvetica,sans-Serif" font-size="10.00">_control/component.hpp</text>
</a>
</g>
</g>
<!-- Node10&#45;&gt;Node11 -->
<g id="edge12_Node000010_Node000011" class="edge">
<title>Node10&#45;&gt;Node11</title>
<g id="a_edge12_Node000010_Node000011"><a xlink:title=" ">
<path fill="none" stroke="#63b8ff" d="M540.76,-205.05C516.04,-194.91 485.6,-182.43 462.66,-173.01"/>
<polygon fill="#63b8ff" stroke="#63b8ff" points="539.68,-208.4 550.27,-208.95 542.34,-201.92 539.68,-208.4"/>
</a>
</g>
</g>
<!-- Node12 -->
<g id="Node000012" class="node">
<title>Node12</title>
<g id="a_Node000012"><a xlink:href="../../d8/d82/core_2include_2userver_2server_2server_8hpp_source.html" target="_top" xlink:title=" ">
<polygon fill="white" stroke="#666666" points="655,-167.5 514,-167.5 514,-148.5 655,-148.5 655,-167.5"/>
<text text-anchor="middle" x="584.5" y="-155.5" font-family="Helvetica,sans-Serif" font-size="10.00">userver/server/server.hpp</text>
</a>
</g>
</g>
<!-- Node10&#45;&gt;Node12 -->
<g id="edge13_Node000010_Node000012" class="edge">
<title>Node10&#45;&gt;Node12</title>
<g id="a_edge13_Node000010_Node000012"><a xlink:title=" ">
<path fill="none" stroke="#63b8ff" d="M584.5,-198.6C584.5,-187.8 584.5,-175.78 584.5,-167.84"/>
<polygon fill="#63b8ff" stroke="#63b8ff" points="581,-198.8 584.5,-208.8 588,-198.8 581,-198.8"/>
</a>
</g>
</g>
<!-- Node13 -->
<g id="Node000013" class="node">
<title>Node13</title>
<g id="a_Node000013"><a xlink:href="../../d3/ddd/core_2include_2userver_2server_2component_8hpp.html" target="_top" xlink:title="Component that listens for incoming requests, manages incoming connections and passes the requests to...">
<polygon fill="white" stroke="#666666" points="667.5,-96 501.5,-96 501.5,-77 667.5,-77 667.5,-96"/>
<text text-anchor="middle" x="584.5" y="-84" font-family="Helvetica,sans-Serif" font-size="10.00">userver/server/component.hpp</text>
</a>
</g>
</g>
<!-- Node12&#45;&gt;Node13 -->
<g id="edge14_Node000012_Node000013" class="edge">
<title>Node12&#45;&gt;Node13</title>
<g id="a_edge14_Node000012_Node000013"><a xlink:title=" ">
<path fill="none" stroke="#63b8ff" d="M584.5,-138.21C584.5,-124.5 584.5,-106.55 584.5,-96.09"/>
<polygon fill="#63b8ff" stroke="#63b8ff" points="581,-138.48 584.5,-148.48 588,-138.48 581,-138.48"/>
</a>
</g>
</g>
<!-- Node15 -->
<g id="Node000015" class="node">
<title>Node15</title>
<g id="a_Node000015"><a xlink:href="../../d3/d37/testsuite__support_8hpp.html" target="_top" xlink:title="Testsuite support component.">
<polygon fill="white" stroke="#666666" points="818,-173 673,-173 673,-143 818,-143 818,-173"/>
<text text-anchor="start" x="681" y="-161" font-family="Helvetica,sans-Serif" font-size="10.00">userver/testsuite/testsuite</text>
<text text-anchor="middle" x="745.5" y="-150" font-family="Helvetica,sans-Serif" font-size="10.00">_support.hpp</text>
</a>
</g>
</g>
<!-- Node14&#45;&gt;Node15 -->
<g id="edge16_Node000014_Node000015" class="edge">
<title>Node14&#45;&gt;Node15</title>
<g id="a_edge16_Node000014_Node000015"><a xlink:title=" ">
<path fill="none" stroke="#63b8ff" d="M741.77,-198.83C742.58,-190.17 743.47,-180.7 744.17,-173.16"/>
<polygon fill="#63b8ff" stroke="#63b8ff" points="738.28,-198.51 740.83,-208.8 745.25,-199.17 738.28,-198.51"/>
</a>
</g>
</g>
<!-- Node19 -->
<g id="Node000019" class="node">
<title>Node19</title>
<g id="a_Node000019"><a xlink:href="../../d5/dcf/ydb_2include_2userver_2ydb_2dist__lock_2component__base_8hpp.html" target="_top" xlink:title="Base class for YDB&#45;based distlock worker components.">
<polygon fill="white" stroke="#666666" points="1250.5,-173 1126.5,-173 1126.5,-143 1250.5,-143 1250.5,-173"/>
<text text-anchor="start" x="1134.5" y="-161" font-family="Helvetica,sans-Serif" font-size="10.00">userver/ydb/dist_lock</text>
<text text-anchor="middle" x="1188.5" y="-150" font-family="Helvetica,sans-Serif" font-size="10.00">/component_base.hpp</text>
</a>
</g>
</g>
<!-- Node18&#45;&gt;Node19 -->
<g id="edge20_Node000018_Node000019" class="edge">
<title>Node18&#45;&gt;Node19</title>
<g id="a_edge20_Node000018_Node000019"><a xlink:title=" ">
<path fill="none" stroke="#63b8ff" d="M1188.5,-198.54C1188.5,-189.96 1188.5,-180.61 1188.5,-173.16"/>
<polygon fill="#63b8ff" stroke="#63b8ff" points="1185,-198.8 1188.5,-208.8 1192,-198.8 1185,-198.8"/>
</a>
</g>
</g>
<!-- Node21 -->
<g id="Node000021" class="node">
<title>Node21</title>
<g id="a_Node000021"><a xlink:href="../../de/d2d/table_8hpp_source.html" target="_top" xlink:title=" ">
<polygon fill="white" stroke="#666666" points="1422,-96 1299,-96 1299,-77 1422,-77 1422,-96"/>
<text text-anchor="middle" x="1360.5" y="-84" font-family="Helvetica,sans-Serif" font-size="10.00">userver/ydb/table.hpp</text>
</a>
</g>
</g>
<!-- Node20&#45;&gt;Node21 -->
<g id="edge22_Node000020_Node000021" class="edge">
<title>Node20&#45;&gt;Node21</title>
<g id="a_edge22_Node000020_Node000021"><a xlink:title=" ">
<path fill="none" stroke="#63b8ff" d="M1331.81,-204.53C1326.84,-188.14 1321.82,-163.65 1327.5,-143 1332.49,-124.84 1345.14,-106.61 1353.25,-96.23"/>
<polygon fill="#63b8ff" stroke="#63b8ff" points="1328.63,-206.06 1335.11,-214.44 1335.27,-203.85 1328.63,-206.06"/>
</a>
</g>
</g>
<!-- Node22 -->
<g id="Node000022" class="node">
<title>Node22</title>
<g id="a_Node000022"><a xlink:href="../../da/d14/ydb_2include_2userver_2ydb_2transaction_8hpp_source.html" target="_top" xlink:title=" ">
<polygon fill="white" stroke="#666666" points="1490,-167.5 1337,-167.5 1337,-148.5 1490,-148.5 1490,-167.5"/>
<text text-anchor="middle" x="1413.5" y="-155.5" font-family="Helvetica,sans-Serif" font-size="10.00">userver/ydb/transaction.hpp</text>
</a>
</g>
</g>
<!-- Node20&#45;&gt;Node22 -->
<g id="edge23_Node000020_Node000022" class="edge">
<title>Node20&#45;&gt;Node22</title>
<g id="a_edge23_Node000020_Node000022"><a xlink:title=" ">
<path fill="none" stroke="#63b8ff" d="M1356.45,-207.68C1371.01,-195.26 1391.02,-178.18 1403.06,-167.91"/>
<polygon fill="#63b8ff" stroke="#63b8ff" points="1353.95,-205.22 1348.61,-214.37 1358.49,-210.54 1353.95,-205.22"/>
</a>
</g>
</g>
<!-- Node22&#45;&gt;Node21 -->
<g id="edge24_Node000022_Node000021" class="edge">
<title>Node22&#45;&gt;Node21</title>
<g id="a_edge24_Node000022_Node000021"><a xlink:title=" ">
<path fill="none" stroke="#63b8ff" d="M1400.72,-140.24C1390.1,-126.31 1375.42,-107.07 1367.05,-96.09"/>
<polygon fill="#63b8ff" stroke="#63b8ff" points="1398.15,-142.65 1407,-148.48 1403.72,-138.4 1398.15,-142.65"/>
</a>
</g>
</g>
</g>
</svg>
