<?xml version="1.0" encoding="UTF-8" standalone="no"?>
<!DOCTYPE svg PUBLIC "-//W3C//DTD SVG 1.1//EN"
 "http://www.w3.org/Graphics/SVG/1.1/DTD/svg11.dtd">
<!-- Generated by graphviz version 2.43.0 (0)
 -->
<!-- Title: storages::postgres::InstanceStatisticsNonatomic Pages: 1 -->
<svg width="887pt" height="150pt"
 viewBox="0.00 0.00 887.00 149.50" xmlns="http://www.w3.org/2000/svg" xmlns:xlink="http://www.w3.org/1999/xlink">
<g id="graph0" class="graph" transform="scale(1 1) rotate(0) translate(4 145.5)">
<title>storages::postgres::InstanceStatisticsNonatomic</title>
<!-- Node1 -->
<g id="Node000001" class="node">
<title>Node1</title>
<g id="a_Node000001"><a xlink:title=" ">
<polygon fill="#999999" stroke="#666666" points="879,-123 717,-123 717,-93 879,-93 879,-123"/>
<text text-anchor="start" x="725" y="-111" font-family="Helvetica,sans-Serif" font-size="10.00">storages::postgres</text>
<text text-anchor="middle" x="798" y="-100" font-family="Helvetica,sans-Serif" font-size="10.00">::InstanceStatisticsNonatomic</text>
</a>
</g>
</g>
<!-- Node2 -->
<g id="Node000002" class="node">
<title>Node2</title>
<g id="a_Node000002"><a xlink:href="../../df/d1c/structstorages_1_1postgres_1_1InstanceStatisticsTemplate.html" target="_top" xlink:title="Template instance statistics storage.">
<polygon fill="white" stroke="#666666" points="577,-141.5 397,-141.5 397,-122.5 577,-122.5 577,-141.5"/>
<text text-anchor="middle" x="487" y="-129.5" font-family="Helvetica,sans-Serif" font-size="10.00">InstanceStatisticsNonatomicBase</text>
</a>
</g>
</g>
<!-- Node2&#45;&gt;Node1 -->
<g id="edge1_Node000001_Node000002" class="edge">
<title>Node2&#45;&gt;Node1</title>
<g id="a_edge1_Node000001_Node000002"><a xlink:title=" ">
<path fill="none" stroke="#63b8ff" d="M587.58,-124.27C629.37,-121.02 677.32,-117.3 716.78,-114.23"/>
<polygon fill="#63b8ff" stroke="#63b8ff" points="587.07,-120.79 577.38,-125.06 587.62,-127.77 587.07,-120.79"/>
</a>
</g>
</g>
<!-- Node3 -->
<g id="Node000003" class="node">
<title>Node3</title>
<g id="a_Node000003"><a xlink:title=" ">
<polygon fill="white" stroke="#666666" points="576,-104.5 398,-104.5 398,-63.5 576,-63.5 576,-104.5"/>
<text text-anchor="start" x="406" y="-92.5" font-family="Helvetica,sans-Serif" font-size="10.00">std::unordered_map</text>
<text text-anchor="start" x="406" y="-81.5" font-family="Helvetica,sans-Serif" font-size="10.00">&lt; std::string, storages</text>
<text text-anchor="middle" x="487" y="-70.5" font-family="Helvetica,sans-Serif" font-size="10.00">::postgres::StatementStatistics &gt;</text>
</a>
</g>
</g>
<!-- Node3&#45;&gt;Node1 -->
<g id="edge2_Node000001_Node000003" class="edge">
<title>Node3&#45;&gt;Node1</title>
<g id="a_edge2_Node000001_Node000003"><a xlink:title=" ">
<path fill="none" stroke="#9a32cd" stroke-dasharray="5,2" d="M586.4,-91.34C621.89,-94.02 662.25,-97.11 699,-100 704.79,-100.46 710.76,-100.93 716.78,-101.41"/>
<polygon fill="#9a32cd" stroke="#9a32cd" points="586.27,-87.82 576.04,-90.56 585.75,-94.8 586.27,-87.82"/>
</a>
</g>
<text text-anchor="middle" x="647" y="-103" font-family="Helvetica,sans-Serif" font-size="10.00" fill="grey"> per_statement_stats</text>
</g>
<!-- Node4 -->
<g id="Node000004" class="node">
<title>Node4</title>
<g id="a_Node000004"><a xlink:title=" ">
<polygon fill="white" stroke="#666666" points="285,-117.5 220,-117.5 220,-98.5 285,-98.5 285,-117.5"/>
<text text-anchor="middle" x="252.5" y="-105.5" font-family="Helvetica,sans-Serif" font-size="10.00">std::string</text>
</a>
</g>
</g>
<!-- Node4&#45;&gt;Node3 -->
<g id="edge3_Node000003_Node000004" class="edge">
<title>Node4&#45;&gt;Node3</title>
<g id="a_edge3_Node000003_Node000004"><a xlink:title=" ">
<path fill="none" stroke="#9a32cd" stroke-dasharray="5,2" d="M295.37,-103.68C323.92,-100.73 362.8,-96.72 398,-93.08"/>
<polygon fill="#9a32cd" stroke="#9a32cd" points="294.93,-100.2 285.34,-104.71 295.65,-107.17 294.93,-100.2"/>
</a>
</g>
<text text-anchor="middle" x="354.5" y="-102" font-family="Helvetica,sans-Serif" font-size="10.00" fill="grey"> keys</text>
</g>
<!-- Node5 -->
<g id="Node000005" class="node">
<title>Node5</title>
<g id="a_Node000005"><a xlink:title=" ">
<polygon fill="white" stroke="#666666" points="108,-126 4,-126 4,-96 108,-96 108,-126"/>
<text text-anchor="start" x="12" y="-114" font-family="Helvetica,sans-Serif" font-size="10.00">std::basic_string&lt;</text>
<text text-anchor="middle" x="56" y="-103" font-family="Helvetica,sans-Serif" font-size="10.00"> Char &gt;</text>
</a>
</g>
</g>
<!-- Node5&#45;&gt;Node4 -->
<g id="edge4_Node000004_Node000005" class="edge">
<title>Node5&#45;&gt;Node4</title>
<g id="a_edge4_Node000004_Node000005"><a xlink:title=" ">
<path fill="none" stroke="#63b8ff" d="M118.33,-110.05C152.06,-109.53 192.5,-108.91 219.9,-108.49"/>
<polygon fill="#63b8ff" stroke="#63b8ff" points="118.05,-106.56 108.1,-110.21 118.16,-113.56 118.05,-106.56"/>
</a>
</g>
</g>
<!-- Node6 -->
<g id="Node000006" class="node">
<title>Node6</title>
<g id="a_Node000006"><a xlink:href="../../d3/d6e/structstorages_1_1postgres_1_1StatementStatistics.html" target="_top" xlink:title=" ">
<polygon fill="white" stroke="#bfbfbf" points="312,-78 193,-78 193,-48 312,-48 312,-78"/>
<text text-anchor="start" x="201" y="-66" font-family="Helvetica,sans-Serif" font-size="10.00">storages::postgres</text>
<text text-anchor="middle" x="252.5" y="-55" font-family="Helvetica,sans-Serif" font-size="10.00">::StatementStatistics</text>
</a>
</g>
</g>
<!-- Node6&#45;&gt;Node3 -->
<g id="edge5_Node000003_Node000006" class="edge">
<title>Node6&#45;&gt;Node3</title>
<g id="a_edge5_Node000003_Node000006"><a xlink:title=" ">
<path fill="none" stroke="#9a32cd" stroke-dasharray="5,2" d="M322.37,-65.92C340.79,-66.95 360.67,-68.29 379,-70 385.16,-70.57 391.5,-71.23 397.89,-71.94"/>
<polygon fill="#9a32cd" stroke="#9a32cd" points="322.48,-62.42 312.31,-65.37 322.1,-69.41 322.48,-62.42"/>
</a>
</g>
<text text-anchor="middle" x="354.5" y="-73" font-family="Helvetica,sans-Serif" font-size="10.00" fill="grey"> elements</text>
</g>
<!-- Node7 -->
<g id="Node000007" class="node">
<title>Node7</title>
<g id="a_Node000007"><a xlink:href="../../df/d18/classutils_1_1statistics_1_1Percentile.html" target="_top" xlink:title=" ">
<polygon fill="white" stroke="#666666" points="112,-78 0,-78 0,-48 112,-48 112,-78"/>
<text text-anchor="start" x="8" y="-66" font-family="Helvetica,sans-Serif" font-size="10.00">utils::statistics::</text>
<text text-anchor="middle" x="56" y="-55" font-family="Helvetica,sans-Serif" font-size="10.00">Percentile&lt; 2048 &gt;</text>
</a>
</g>
</g>
<!-- Node7&#45;&gt;Node6 -->
<g id="edge6_Node000006_Node000007" class="edge">
<title>Node7&#45;&gt;Node6</title>
<g id="a_edge6_Node000006_Node000007"><a xlink:title=" ">
<path fill="none" stroke="#9a32cd" stroke-dasharray="5,2" d="M122.46,-63C145.22,-63 170.57,-63 192.75,-63"/>
<polygon fill="#9a32cd" stroke="#9a32cd" points="122.22,-59.5 112.22,-63 122.22,-66.5 122.22,-59.5"/>
</a>
</g>
<text text-anchor="middle" x="152.5" y="-66" font-family="Helvetica,sans-Serif" font-size="10.00" fill="grey"> timings</text>
</g>
<!-- Node8 -->
<g id="Node000008" class="node">
<title>Node8</title>
<g id="a_Node000008"><a xlink:href="../../da/d24/classutils_1_1statistics_1_1RateCounter.html" target="_top" xlink:title="Atomic counter of type Rate with relaxed memory ordering.">
<polygon fill="white" stroke="#666666" points="103,-30 9,-30 9,0 103,0 103,-30"/>
<text text-anchor="start" x="17" y="-18" font-family="Helvetica,sans-Serif" font-size="10.00">utils::statistics::</text>
<text text-anchor="middle" x="56" y="-7" font-family="Helvetica,sans-Serif" font-size="10.00">RateCounter</text>
</a>
</g>
</g>
<!-- Node8&#45;&gt;Node6 -->
<g id="edge7_Node000006_Node000008" class="edge">
<title>Node8&#45;&gt;Node6</title>
<g id="a_edge7_Node000006_Node000008"><a xlink:title=" ">
<path fill="none" stroke="#9a32cd" stroke-dasharray="5,2" d="M113.06,-23.76C132.78,-27.28 155,-31.77 175,-37 186.67,-40.05 199.13,-43.99 210.54,-47.87"/>
<polygon fill="#9a32cd" stroke="#9a32cd" points="113.46,-20.27 103.01,-22 112.26,-27.17 113.46,-20.27"/>
</a>
</g>
<text text-anchor="middle" x="152.5" y="-51" font-family="Helvetica,sans-Serif" font-size="10.00" fill="grey"> errors</text>
<text text-anchor="middle" x="152.5" y="-40" font-family="Helvetica,sans-Serif" font-size="10.00" fill="grey">executed</text>
</g>
</g>
</svg>
