<?xml version="1.0" encoding="UTF-8" standalone="no"?>
<!DOCTYPE svg PUBLIC "-//W3C//DTD SVG 1.1//EN"
 "http://www.w3.org/Graphics/SVG/1.1/DTD/svg11.dtd">
<!-- Generated by graphviz version 2.43.0 (0)
 -->
<!-- Title: userver/testsuite/cache_control.hpp Pages: 1 -->
<svg width="906pt" height="236pt"
 viewBox="0.00 0.00 906.00 236.00" xmlns="http://www.w3.org/2000/svg" xmlns:xlink="http://www.w3.org/1999/xlink">
<g id="graph0" class="graph" transform="scale(1 1) rotate(0) translate(4 232)">
<title>userver/testsuite/cache_control.hpp</title>
<!-- Node1 -->
<g id="Node000001" class="node">
<title>Node1</title>
<g id="a_Node000001"><a xlink:title="Testsuite interface for caches and cache&#45;like components.">
<polygon fill="#999999" stroke="#666666" points="409,-228 278,-228 278,-198 409,-198 409,-228"/>
<text text-anchor="start" x="286" y="-216" font-family="Helvetica,sans-Serif" font-size="10.00">userver/testsuite/cache</text>
<text text-anchor="middle" x="343.5" y="-205" font-family="Helvetica,sans-Serif" font-size="10.00">_control.hpp</text>
</a>
</g>
</g>
<!-- Node2 -->
<g id="Node000002" class="node">
<title>Node2</title>
<g id="a_Node000002"><a xlink:title=" ">
<polygon fill="#e0e0e0" stroke="#999999" points="65,-156.5 0,-156.5 0,-137.5 65,-137.5 65,-156.5"/>
<text text-anchor="middle" x="32.5" y="-144.5" font-family="Helvetica,sans-Serif" font-size="10.00">functional</text>
</a>
</g>
</g>
<!-- Node1&#45;&gt;Node2 -->
<g id="edge1_Node000001_Node000002" class="edge">
<title>Node1&#45;&gt;Node2</title>
<g id="a_edge1_Node000001_Node000002"><a xlink:title=" ">
<path fill="none" stroke="#63b8ff" d="M277.99,-202.42C223.18,-193.78 143.14,-179.73 74.5,-162 71.71,-161.28 68.83,-160.47 65.96,-159.61"/>
<polygon fill="#63b8ff" stroke="#63b8ff" points="66.91,-156.24 56.32,-156.57 64.8,-162.92 66.91,-156.24"/>
</a>
</g>
</g>
<!-- Node3 -->
<g id="Node000003" class="node">
<title>Node3</title>
<g id="a_Node000003"><a xlink:title=" ">
<polygon fill="#e0e0e0" stroke="#999999" points="141.5,-156.5 83.5,-156.5 83.5,-137.5 141.5,-137.5 141.5,-156.5"/>
<text text-anchor="middle" x="112.5" y="-144.5" font-family="Helvetica,sans-Serif" font-size="10.00">memory</text>
</a>
</g>
</g>
<!-- Node1&#45;&gt;Node3 -->
<g id="edge2_Node000001_Node000003" class="edge">
<title>Node1&#45;&gt;Node3</title>
<g id="a_edge2_Node000001_Node000003"><a xlink:title=" ">
<path fill="none" stroke="#63b8ff" d="M283.08,-197.98C244.81,-188.71 194.43,-175.75 150.5,-162 148.37,-161.33 146.19,-160.62 144,-159.88"/>
<polygon fill="#63b8ff" stroke="#63b8ff" points="145.07,-156.54 134.48,-156.52 142.74,-163.14 145.07,-156.54"/>
</a>
</g>
</g>
<!-- Node4 -->
<g id="Node000004" class="node">
<title>Node4</title>
<g id="a_Node000004"><a xlink:title=" ">
<polygon fill="#e0e0e0" stroke="#999999" points="327.5,-90.5 283.5,-90.5 283.5,-71.5 327.5,-71.5 327.5,-90.5"/>
<text text-anchor="middle" x="305.5" y="-78.5" font-family="Helvetica,sans-Serif" font-size="10.00">string</text>
</a>
</g>
</g>
<!-- Node1&#45;&gt;Node4 -->
<g id="edge3_Node000001_Node000004" class="edge">
<title>Node1&#45;&gt;Node4</title>
<g id="a_edge3_Node000001_Node000004"><a xlink:title=" ">
<path fill="none" stroke="#63b8ff" d="M339.36,-197.84C332.46,-174.23 318.61,-126.83 310.93,-100.58"/>
<polygon fill="#63b8ff" stroke="#63b8ff" points="314.22,-99.36 308.06,-90.75 307.5,-101.33 314.22,-99.36"/>
</a>
</g>
</g>
<!-- Node5 -->
<g id="Node000005" class="node">
<title>Node5</title>
<g id="a_Node000005"><a xlink:title=" ">
<polygon fill="#e0e0e0" stroke="#999999" points="865,-156.5 796,-156.5 796,-137.5 865,-137.5 865,-156.5"/>
<text text-anchor="middle" x="830.5" y="-144.5" font-family="Helvetica,sans-Serif" font-size="10.00">type_traits</text>
</a>
</g>
</g>
<!-- Node1&#45;&gt;Node5 -->
<g id="edge4_Node000001_Node000005" class="edge">
<title>Node1&#45;&gt;Node5</title>
<g id="a_edge4_Node000001_Node000005"><a xlink:title=" ">
<path fill="none" stroke="#63b8ff" d="M409.07,-208.62C496.11,-203.21 654.22,-190.22 786.5,-162 789.9,-161.28 793.4,-160.4 796.88,-159.43"/>
<polygon fill="#63b8ff" stroke="#63b8ff" points="797.94,-162.77 806.52,-156.56 795.94,-156.06 797.94,-162.77"/>
</a>
</g>
</g>
<!-- Node6 -->
<g id="Node000006" class="node">
<title>Node6</title>
<g id="a_Node000006"><a xlink:title=" ">
<polygon fill="#e0e0e0" stroke="#999999" points="452.5,-90.5 366.5,-90.5 366.5,-71.5 452.5,-71.5 452.5,-90.5"/>
<text text-anchor="middle" x="409.5" y="-78.5" font-family="Helvetica,sans-Serif" font-size="10.00">unordered_set</text>
</a>
</g>
</g>
<!-- Node1&#45;&gt;Node6 -->
<g id="edge5_Node000001_Node000006" class="edge">
<title>Node1&#45;&gt;Node6</title>
<g id="a_edge5_Node000001_Node000006"><a xlink:title=" ">
<path fill="none" stroke="#63b8ff" d="M344.63,-197.92C346.45,-181.3 351.06,-153.24 362.5,-132 369.56,-118.89 380.93,-106.66 390.72,-97.58"/>
<polygon fill="#63b8ff" stroke="#63b8ff" points="393.27,-99.99 398.44,-90.74 388.63,-94.75 393.27,-99.99"/>
</a>
</g>
</g>
<!-- Node7 -->
<g id="Node000007" class="node">
<title>Node7</title>
<g id="a_Node000007"><a xlink:href="../../d9/dc2/update__type_8hpp.html" target="_top" xlink:title="Enums representing periodic update types for CachingComponentBase">
<polygon fill="white" stroke="#666666" points="777.5,-162 655.5,-162 655.5,-132 777.5,-132 777.5,-162"/>
<text text-anchor="start" x="663.5" y="-150" font-family="Helvetica,sans-Serif" font-size="10.00">userver/cache/update</text>
<text text-anchor="middle" x="716.5" y="-139" font-family="Helvetica,sans-Serif" font-size="10.00">_type.hpp</text>
</a>
</g>
</g>
<!-- Node1&#45;&gt;Node7 -->
<g id="edge6_Node000001_Node000007" class="edge">
<title>Node1&#45;&gt;Node7</title>
<g id="a_edge6_Node000001_Node000007"><a xlink:title=" ">
<path fill="none" stroke="#63b8ff" d="M409.29,-201.7C468.32,-192.33 557.58,-177.82 645.46,-161.97"/>
<polygon fill="#63b8ff" stroke="#63b8ff" points="646.11,-165.41 655.33,-160.18 644.87,-158.52 646.11,-165.41"/>
</a>
</g>
</g>
<!-- Node13 -->
<g id="Node000013" class="node">
<title>Node13</title>
<g id="a_Node000013"><a xlink:href="../../d7/d47/component__fwd_8hpp.html" target="_top" xlink:title="Forward declarations for components::ComponentContext and components::ComponentConfig; function compo...">
<polygon fill="white" stroke="#666666" points="277.5,-162 159.5,-162 159.5,-132 277.5,-132 277.5,-162"/>
<text text-anchor="start" x="167.5" y="-150" font-family="Helvetica,sans-Serif" font-size="10.00">userver/components</text>
<text text-anchor="middle" x="218.5" y="-139" font-family="Helvetica,sans-Serif" font-size="10.00">/component_fwd.hpp</text>
</a>
</g>
</g>
<!-- Node1&#45;&gt;Node13 -->
<g id="edge13_Node000001_Node000013" class="edge">
<title>Node1&#45;&gt;Node13</title>
<g id="a_edge13_Node000001_Node000013"><a xlink:title=" ">
<path fill="none" stroke="#63b8ff" d="M316.07,-197.95C298.08,-188.74 274.35,-176.6 254.8,-166.59"/>
<polygon fill="#63b8ff" stroke="#63b8ff" points="256.36,-163.45 245.87,-162.01 253.17,-169.69 256.36,-163.45"/>
</a>
</g>
</g>
<!-- Node14 -->
<g id="Node000014" class="node">
<title>Node14</title>
<g id="a_Node000014"><a xlink:href="../../da/d3b/state_8hpp.html" target="_top" xlink:title=" ">
<polygon fill="white" stroke="#666666" points="487.5,-162 371.5,-162 371.5,-132 487.5,-132 487.5,-162"/>
<text text-anchor="start" x="379.5" y="-150" font-family="Helvetica,sans-Serif" font-size="10.00">userver/components</text>
<text text-anchor="middle" x="429.5" y="-139" font-family="Helvetica,sans-Serif" font-size="10.00">/state.hpp</text>
</a>
</g>
</g>
<!-- Node1&#45;&gt;Node14 -->
<g id="edge15_Node000001_Node000014" class="edge">
<title>Node1&#45;&gt;Node14</title>
<g id="a_edge15_Node000001_Node000014"><a xlink:title=" ">
<path fill="none" stroke="#63b8ff" d="M362.59,-197.8C374.28,-189.1 389.43,-177.82 402.35,-168.2"/>
<polygon fill="#63b8ff" stroke="#63b8ff" points="404.53,-170.94 410.47,-162.16 400.36,-165.33 404.53,-170.94"/>
</a>
</g>
</g>
<!-- Node15 -->
<g id="Node000015" class="node">
<title>Node15</title>
<g id="a_Node000015"><a xlink:href="../../d2/d54/assert_8hpp.html" target="_top" xlink:title="Assertion macros UASSERT, UASSERT_MSG, UINVARIANT.">
<polygon fill="white" stroke="#666666" points="637,-156.5 506,-156.5 506,-137.5 637,-137.5 637,-156.5"/>
<text text-anchor="middle" x="571.5" y="-144.5" font-family="Helvetica,sans-Serif" font-size="10.00">userver/utils/assert.hpp</text>
</a>
</g>
</g>
<!-- Node1&#45;&gt;Node15 -->
<g id="edge19_Node000001_Node000015" class="edge">
<title>Node1&#45;&gt;Node15</title>
<g id="a_edge19_Node000001_Node000015"><a xlink:title=" ">
<path fill="none" stroke="#63b8ff" d="M393.54,-197.95C434.93,-186.34 492.96,-170.05 531.36,-159.27"/>
<polygon fill="#63b8ff" stroke="#63b8ff" points="532.48,-162.59 541.16,-156.52 530.58,-155.85 532.48,-162.59"/>
</a>
</g>
</g>
<!-- Node8 -->
<g id="Node000008" class="node">
<title>Node8</title>
<g id="a_Node000008"><a xlink:title=" ">
<polygon fill="#e0e0e0" stroke="#999999" points="608,-90.5 535,-90.5 535,-71.5 608,-71.5 608,-90.5"/>
<text text-anchor="middle" x="571.5" y="-78.5" font-family="Helvetica,sans-Serif" font-size="10.00">string_view</text>
</a>
</g>
</g>
<!-- Node7&#45;&gt;Node8 -->
<g id="edge7_Node000007_Node000008" class="edge">
<title>Node7&#45;&gt;Node8</title>
<g id="a_edge7_Node000007_Node000008"><a xlink:title=" ">
<path fill="none" stroke="#63b8ff" d="M684.68,-131.95C659.47,-120.83 624.57,-105.42 600.21,-94.67"/>
<polygon fill="#63b8ff" stroke="#63b8ff" points="601.36,-91.35 590.8,-90.52 598.53,-97.76 601.36,-91.35"/>
</a>
</g>
</g>
<!-- Node9 -->
<g id="Node000009" class="node">
<title>Node9</title>
<g id="a_Node000009"><a xlink:href="../../dc/d7d/json__fwd_8hpp.html" target="_top" xlink:title="Forward declarations of formats::json types, formats::parse::To and formats::serialize::To.">
<polygon fill="white" stroke="#666666" points="759.5,-96 641.5,-96 641.5,-66 759.5,-66 759.5,-96"/>
<text text-anchor="start" x="649.5" y="-84" font-family="Helvetica,sans-Serif" font-size="10.00">userver/formats/json</text>
<text text-anchor="middle" x="700.5" y="-73" font-family="Helvetica,sans-Serif" font-size="10.00">_fwd.hpp</text>
</a>
</g>
</g>
<!-- Node7&#45;&gt;Node9 -->
<g id="edge8_Node000007_Node000009" class="edge">
<title>Node7&#45;&gt;Node9</title>
<g id="a_edge8_Node000007_Node000009"><a xlink:title=" ">
<path fill="none" stroke="#63b8ff" d="M712.95,-131.8C711.06,-124.26 708.7,-114.78 706.53,-106.13"/>
<polygon fill="#63b8ff" stroke="#63b8ff" points="709.86,-105.02 704.04,-96.16 703.07,-106.71 709.86,-105.02"/>
</a>
</g>
</g>
<!-- Node12 -->
<g id="Node000012" class="node">
<title>Node12</title>
<g id="a_Node000012"><a xlink:href="../../dd/dd7/universal_2include_2userver_2yaml__config_2fwd_8hpp.html" target="_top" xlink:title="Forward declarations of YamlConfig type and formats::parse::To.">
<polygon fill="white" stroke="#666666" points="893.5,-96 777.5,-96 777.5,-66 893.5,-66 893.5,-96"/>
<text text-anchor="start" x="785.5" y="-84" font-family="Helvetica,sans-Serif" font-size="10.00">userver/yaml_config</text>
<text text-anchor="middle" x="835.5" y="-73" font-family="Helvetica,sans-Serif" font-size="10.00">/fwd.hpp</text>
</a>
</g>
</g>
<!-- Node7&#45;&gt;Node12 -->
<g id="edge11_Node000007_Node000012" class="edge">
<title>Node7&#45;&gt;Node12</title>
<g id="a_edge11_Node000007_Node000012"><a xlink:title=" ">
<path fill="none" stroke="#63b8ff" d="M742.62,-131.95C759.59,-122.83 781.92,-110.82 800.43,-100.86"/>
<polygon fill="#63b8ff" stroke="#63b8ff" points="802.3,-103.83 809.45,-96.01 798.98,-97.67 802.3,-103.83"/>
</a>
</g>
</g>
<!-- Node10 -->
<g id="Node000010" class="node">
<title>Node10</title>
<g id="a_Node000010"><a xlink:href="../../d2/dc8/universal_2include_2userver_2formats_2parse_2to_8hpp.html" target="_top" xlink:title="Helper for parsers.">
<polygon fill="white" stroke="#666666" points="898,-30 773,-30 773,0 898,0 898,-30"/>
<text text-anchor="start" x="781" y="-18" font-family="Helvetica,sans-Serif" font-size="10.00">userver/formats/parse</text>
<text text-anchor="middle" x="835.5" y="-7" font-family="Helvetica,sans-Serif" font-size="10.00">/to.hpp</text>
</a>
</g>
</g>
<!-- Node9&#45;&gt;Node10 -->
<g id="edge9_Node000009_Node000010" class="edge">
<title>Node9&#45;&gt;Node10</title>
<g id="a_edge9_Node000009_Node000010"><a xlink:title=" ">
<path fill="none" stroke="#63b8ff" d="M730.13,-65.95C749.73,-56.66 775.64,-44.38 796.87,-34.32"/>
<polygon fill="#63b8ff" stroke="#63b8ff" points="798.41,-37.46 805.94,-30.01 795.41,-31.13 798.41,-37.46"/>
</a>
</g>
</g>
<!-- Node11 -->
<g id="Node000011" class="node">
<title>Node11</title>
<g id="a_Node000011"><a xlink:href="../../d6/d8e/universal_2include_2userver_2formats_2serialize_2to_8hpp.html" target="_top" xlink:title="Helper for serializers.">
<polygon fill="white" stroke="#666666" points="755,-30 616,-30 616,0 755,0 755,-30"/>
<text text-anchor="start" x="624" y="-18" font-family="Helvetica,sans-Serif" font-size="10.00">userver/formats/serialize</text>
<text text-anchor="middle" x="685.5" y="-7" font-family="Helvetica,sans-Serif" font-size="10.00">/to.hpp</text>
</a>
</g>
</g>
<!-- Node9&#45;&gt;Node11 -->
<g id="edge10_Node000009_Node000011" class="edge">
<title>Node9&#45;&gt;Node11</title>
<g id="a_edge10_Node000009_Node000011"><a xlink:title=" ">
<path fill="none" stroke="#63b8ff" d="M697.17,-65.8C695.4,-58.26 693.18,-48.78 691.16,-40.13"/>
<polygon fill="#63b8ff" stroke="#63b8ff" points="694.51,-39.1 688.82,-30.16 687.69,-40.7 694.51,-39.1"/>
</a>
</g>
</g>
<!-- Node12&#45;&gt;Node10 -->
<g id="edge12_Node000012_Node000010" class="edge">
<title>Node12&#45;&gt;Node10</title>
<g id="a_edge12_Node000012_Node000010"><a xlink:title=" ">
<path fill="none" stroke="#63b8ff" d="M835.5,-65.8C835.5,-58.34 835.5,-48.99 835.5,-40.41"/>
<polygon fill="#63b8ff" stroke="#63b8ff" points="839,-40.16 835.5,-30.16 832,-40.16 839,-40.16"/>
</a>
</g>
</g>
<!-- Node13&#45;&gt;Node4 -->
<g id="edge14_Node000013_Node000004" class="edge">
<title>Node13&#45;&gt;Node4</title>
<g id="a_edge14_Node000013_Node000004"><a xlink:title=" ">
<path fill="none" stroke="#63b8ff" d="M237.81,-131.8C251.99,-121.37 271.19,-107.24 285.52,-96.69"/>
<polygon fill="#63b8ff" stroke="#63b8ff" points="287.75,-99.4 293.73,-90.66 283.6,-93.76 287.75,-99.4"/>
</a>
</g>
</g>
<!-- Node14&#45;&gt;Node4 -->
<g id="edge16_Node000014_Node000004" class="edge">
<title>Node14&#45;&gt;Node4</title>
<g id="a_edge16_Node000014_Node000004"><a xlink:title=" ">
<path fill="none" stroke="#63b8ff" d="M402.29,-131.95C381.02,-120.98 351.68,-105.83 330.89,-95.11"/>
<polygon fill="#63b8ff" stroke="#63b8ff" points="332.49,-91.99 322,-90.52 329.28,-98.21 332.49,-91.99"/>
</a>
</g>
</g>
<!-- Node14&#45;&gt;Node6 -->
<g id="edge18_Node000014_Node000006" class="edge">
<title>Node14&#45;&gt;Node6</title>
<g id="a_edge18_Node000014_Node000006"><a xlink:title=" ">
<path fill="none" stroke="#63b8ff" d="M425.06,-131.8C422.19,-122.6 418.42,-110.53 415.31,-100.58"/>
<polygon fill="#63b8ff" stroke="#63b8ff" points="418.59,-99.35 412.26,-90.84 411.91,-101.43 418.59,-99.35"/>
</a>
</g>
</g>
<!-- Node14&#45;&gt;Node8 -->
<g id="edge17_Node000014_Node000008" class="edge">
<title>Node14&#45;&gt;Node8</title>
<g id="a_edge17_Node000014_Node000008"><a xlink:title=" ">
<path fill="none" stroke="#63b8ff" d="M460.66,-131.95C485.35,-120.83 519.53,-105.42 543.38,-94.67"/>
<polygon fill="#63b8ff" stroke="#63b8ff" points="544.92,-97.82 552.6,-90.52 542.05,-91.44 544.92,-97.82"/>
</a>
</g>
</g>
<!-- Node15&#45;&gt;Node8 -->
<g id="edge20_Node000015_Node000008" class="edge">
<title>Node15&#45;&gt;Node8</title>
<g id="a_edge20_Node000015_Node000008"><a xlink:title=" ">
<path fill="none" stroke="#63b8ff" d="M571.5,-137.37C571.5,-128.16 571.5,-113.29 571.5,-101.27"/>
<polygon fill="#63b8ff" stroke="#63b8ff" points="575,-100.91 571.5,-90.91 568,-100.91 575,-100.91"/>
</a>
</g>
</g>
</g>
</svg>
