<?xml version="1.0" encoding="UTF-8" standalone="no"?>
<!DOCTYPE svg PUBLIC "-//W3C//DTD SVG 1.1//EN"
 "http://www.w3.org/Graphics/SVG/1.1/DTD/svg11.dtd">
<!-- Generated by graphviz version 2.43.0 (0)
 -->
<!-- Title: userver/utils/statistics/rate_counter.hpp Pages: 1 -->
<svg width="1601pt" height="654pt"
 viewBox="0.00 0.00 1601.00 654.00" xmlns="http://www.w3.org/2000/svg" xmlns:xlink="http://www.w3.org/1999/xlink">
<g id="graph0" class="graph" transform="scale(1 1) rotate(0) translate(4 650)">
<title>userver/utils/statistics/rate_counter.hpp</title>
<!-- Node1 -->
<g id="Node000001" class="node">
<title>Node1</title>
<g id="a_Node000001"><a xlink:title="Atomic counter of type Rate with relaxed memory ordering.">
<polygon fill="#999999" stroke="#666666" points="935,-646 810,-646 810,-616 935,-616 935,-646"/>
<text text-anchor="start" x="818" y="-634" font-family="Helvetica,sans-Serif" font-size="10.00">userver/utils/statistics</text>
<text text-anchor="middle" x="872.5" y="-623" font-family="Helvetica,sans-Serif" font-size="10.00">/rate_counter.hpp</text>
</a>
</g>
</g>
<!-- Node2 -->
<g id="Node000002" class="node">
<title>Node2</title>
<g id="a_Node000002"><a xlink:href="../../d1/d8c/cache__statistics_8hpp.html" target="_top" xlink:title="Statistics collection for components::CachingComponentBase.">
<polygon fill="white" stroke="#666666" points="370.5,-580 254.5,-580 254.5,-550 370.5,-550 370.5,-580"/>
<text text-anchor="start" x="262.5" y="-568" font-family="Helvetica,sans-Serif" font-size="10.00">userver/cache/cache</text>
<text text-anchor="middle" x="312.5" y="-557" font-family="Helvetica,sans-Serif" font-size="10.00">_statistics.hpp</text>
</a>
</g>
</g>
<!-- Node1&#45;&gt;Node2 -->
<g id="edge1_Node000001_Node000002" class="edge">
<title>Node1&#45;&gt;Node2</title>
<g id="a_edge1_Node000001_Node000002"><a xlink:title=" ">
<path fill="none" stroke="#63b8ff" d="M799.67,-621.68C687.29,-608.83 473.85,-584.44 370.91,-572.68"/>
<polygon fill="#63b8ff" stroke="#63b8ff" points="799.56,-625.19 809.89,-622.84 800.35,-618.23 799.56,-625.19"/>
</a>
</g>
</g>
<!-- Node9 -->
<g id="Node000009" class="node">
<title>Node9</title>
<g id="a_Node000009"><a xlink:href="../../d1/db6/postgresql_2include_2userver_2storages_2postgres_2statistics_8hpp.html" target="_top" xlink:title="Statistics helpers.">
<polygon fill="white" stroke="#666666" points="719,-580 576,-580 576,-550 719,-550 719,-580"/>
<text text-anchor="start" x="584" y="-568" font-family="Helvetica,sans-Serif" font-size="10.00">userver/storages/postgres</text>
<text text-anchor="middle" x="647.5" y="-557" font-family="Helvetica,sans-Serif" font-size="10.00">/statistics.hpp</text>
</a>
</g>
</g>
<!-- Node1&#45;&gt;Node9 -->
<g id="edge11_Node000001_Node000009" class="edge">
<title>Node1&#45;&gt;Node9</title>
<g id="a_edge11_Node000001_Node000009"><a xlink:title=" ">
<path fill="none" stroke="#63b8ff" d="M813.16,-613.12C776.88,-602.8 731.03,-589.76 696.76,-580.01"/>
<polygon fill="#63b8ff" stroke="#63b8ff" points="812.55,-616.59 823.12,-615.95 814.46,-609.85 812.55,-616.59"/>
</a>
</g>
</g>
<!-- Node12 -->
<g id="Node000012" class="node">
<title>Node12</title>
<g id="a_Node000012"><a xlink:href="../../d6/d93/grpc_2include_2userver_2ugrpc_2impl_2statistics_8hpp_source.html" target="_top" xlink:title=" ">
<polygon fill="white" stroke="#666666" points="1039.5,-580 931.5,-580 931.5,-550 1039.5,-550 1039.5,-580"/>
<text text-anchor="start" x="939.5" y="-568" font-family="Helvetica,sans-Serif" font-size="10.00">userver/ugrpc/impl</text>
<text text-anchor="middle" x="985.5" y="-557" font-family="Helvetica,sans-Serif" font-size="10.00">/statistics.hpp</text>
</a>
</g>
</g>
<!-- Node1&#45;&gt;Node12 -->
<g id="edge15_Node000001_Node000012" class="edge">
<title>Node1&#45;&gt;Node12</title>
<g id="a_edge15_Node000001_Node000012"><a xlink:title=" ">
<path fill="none" stroke="#63b8ff" d="M906.1,-610.97C923.64,-601.03 944.73,-589.09 960.76,-580.01"/>
<polygon fill="#63b8ff" stroke="#63b8ff" points="904.27,-607.98 897.3,-615.95 907.72,-614.07 904.27,-607.98"/>
</a>
</g>
</g>
<!-- Node35 -->
<g id="Node000035" class="node">
<title>Node35</title>
<g id="a_Node000035"><a xlink:href="../../d5/d25/retry__budget_8hpp.html" target="_top" xlink:title=" ">
<polygon fill="white" stroke="#666666" points="1337.5,-580 1233.5,-580 1233.5,-550 1337.5,-550 1337.5,-580"/>
<text text-anchor="start" x="1241.5" y="-568" font-family="Helvetica,sans-Serif" font-size="10.00">userver/utils/retry</text>
<text text-anchor="middle" x="1285.5" y="-557" font-family="Helvetica,sans-Serif" font-size="10.00">_budget.hpp</text>
</a>
</g>
</g>
<!-- Node1&#45;&gt;Node35 -->
<g id="edge49_Node000001_Node000035" class="edge">
<title>Node1&#45;&gt;Node35</title>
<g id="a_edge49_Node000001_Node000035"><a xlink:title=" ">
<path fill="none" stroke="#63b8ff" d="M945.29,-618.72C1027.85,-605.93 1160.45,-585.38 1233.33,-574.08"/>
<polygon fill="#63b8ff" stroke="#63b8ff" points="944.57,-615.29 935.23,-620.28 945.64,-622.21 944.57,-615.29"/>
</a>
</g>
</g>
<!-- Node3 -->
<g id="Node000003" class="node">
<title>Node3</title>
<g id="a_Node000003"><a xlink:href="../../dd/d6c/base__mongo__cache_8hpp.html" target="_top" xlink:title="Base class for all caches polling mongo collection">
<polygon fill="white" stroke="#666666" points="111,-382 0,-382 0,-352 111,-352 111,-382"/>
<text text-anchor="start" x="8" y="-370" font-family="Helvetica,sans-Serif" font-size="10.00">userver/cache/base</text>
<text text-anchor="middle" x="55.5" y="-359" font-family="Helvetica,sans-Serif" font-size="10.00">_mongo_cache.hpp</text>
</a>
</g>
</g>
<!-- Node2&#45;&gt;Node3 -->
<g id="edge2_Node000002_Node000003" class="edge">
<title>Node2&#45;&gt;Node3</title>
<g id="a_edge2_Node000002_Node000003"><a xlink:title=" ">
<path fill="none" stroke="#63b8ff" d="M244.29,-560.19C176.7,-554.82 79.98,-542.31 56.5,-514 24.95,-475.95 40.88,-411.16 50.27,-382.44"/>
<polygon fill="#63b8ff" stroke="#63b8ff" points="244.22,-563.69 254.45,-560.96 244.74,-556.71 244.22,-563.69"/>
</a>
</g>
</g>
<!-- Node4 -->
<g id="Node000004" class="node">
<title>Node4</title>
<g id="a_Node000004"><a xlink:href="../../dc/df7/base__postgres__cache_8hpp.html" target="_top" xlink:title="Caching component for PostgreSQL. See Caching Component for PostgreSQL.">
<polygon fill="white" stroke="#666666" points="457,-382 338,-382 338,-352 457,-352 457,-382"/>
<text text-anchor="start" x="346" y="-370" font-family="Helvetica,sans-Serif" font-size="10.00">userver/cache/base</text>
<text text-anchor="middle" x="397.5" y="-359" font-family="Helvetica,sans-Serif" font-size="10.00">_postgres_cache.hpp</text>
</a>
</g>
</g>
<!-- Node2&#45;&gt;Node4 -->
<g id="edge3_Node000002_Node000004" class="edge">
<title>Node2&#45;&gt;Node4</title>
<g id="a_edge3_Node000002_Node000004"><a xlink:title=" ">
<path fill="none" stroke="#63b8ff" d="M335.45,-542.25C343.05,-534.02 350.98,-524.16 356.5,-514 380.76,-469.35 391.74,-409.04 395.68,-382.06"/>
<polygon fill="#63b8ff" stroke="#63b8ff" points="332.77,-539.99 328.34,-549.61 337.81,-544.85 332.77,-539.99"/>
</a>
</g>
</g>
<!-- Node5 -->
<g id="Node000005" class="node">
<title>Node5</title>
<g id="a_Node000005"><a xlink:href="../../d1/d20/cache__update__trait_8hpp.html" target="_top" xlink:title="Base class for periodically updated caches.">
<polygon fill="white" stroke="#666666" points="181.5,-514 65.5,-514 65.5,-484 181.5,-484 181.5,-514"/>
<text text-anchor="start" x="73.5" y="-502" font-family="Helvetica,sans-Serif" font-size="10.00">userver/cache/cache</text>
<text text-anchor="middle" x="123.5" y="-491" font-family="Helvetica,sans-Serif" font-size="10.00">_update_trait.hpp</text>
</a>
</g>
</g>
<!-- Node2&#45;&gt;Node5 -->
<g id="edge4_Node000002_Node000005" class="edge">
<title>Node2&#45;&gt;Node5</title>
<g id="a_edge4_Node000002_Node000005"><a xlink:title=" ">
<path fill="none" stroke="#63b8ff" d="M261.48,-546.72C231.2,-536.47 193.29,-523.63 164.88,-514.01"/>
<polygon fill="#63b8ff" stroke="#63b8ff" points="260.43,-550.06 271.02,-549.95 262.67,-543.43 260.43,-550.06"/>
</a>
</g>
</g>
<!-- Node7 -->
<g id="Node000007" class="node">
<title>Node7</title>
<g id="a_Node000007"><a xlink:href="../../db/df3/core_2include_2userver_2dynamic__config_2updater_2component_8hpp.html" target="_top" xlink:title="Component that does a periodic update of runtime configs.">
<polygon fill="white" stroke="#666666" points="301.5,-382 165.5,-382 165.5,-352 301.5,-352 301.5,-382"/>
<text text-anchor="start" x="173.5" y="-370" font-family="Helvetica,sans-Serif" font-size="10.00">userver/dynamic_config</text>
<text text-anchor="middle" x="233.5" y="-359" font-family="Helvetica,sans-Serif" font-size="10.00">/updater/component.hpp</text>
</a>
</g>
</g>
<!-- Node2&#45;&gt;Node7 -->
<g id="edge10_Node000002_Node000007" class="edge">
<title>Node2&#45;&gt;Node7</title>
<g id="a_edge10_Node000002_Node000007"><a xlink:title=" ">
<path fill="none" stroke="#63b8ff" d="M329.41,-541C339.08,-524.92 347.93,-503.02 340.5,-484 323.05,-439.34 279.46,-401.53 253.62,-382.08"/>
<polygon fill="#63b8ff" stroke="#63b8ff" points="326.26,-539.43 323.75,-549.73 332.13,-543.25 326.26,-539.43"/>
</a>
</g>
</g>
<!-- Node8 -->
<g id="Node000008" class="node">
<title>Node8</title>
<g id="a_Node000008"><a xlink:href="../../dd/dd2/statistics__mock_8hpp.html" target="_top" xlink:title="Allows to test helper functions of CacheUpdateTrait::Update that use UpdateStatisticsScope.">
<polygon fill="white" stroke="#666666" points="331.5,-514 199.5,-514 199.5,-484 331.5,-484 331.5,-514"/>
<text text-anchor="start" x="207.5" y="-502" font-family="Helvetica,sans-Serif" font-size="10.00">userver/cache/statistics</text>
<text text-anchor="middle" x="265.5" y="-491" font-family="Helvetica,sans-Serif" font-size="10.00">_mock.hpp</text>
</a>
</g>
</g>
<!-- Node2&#45;&gt;Node8 -->
<g id="edge9_Node000002_Node000008" class="edge">
<title>Node2&#45;&gt;Node8</title>
<g id="a_edge9_Node000002_Node000008"><a xlink:title=" ">
<path fill="none" stroke="#63b8ff" d="M296,-541.53C289.31,-532.43 281.8,-522.19 275.9,-514.16"/>
<polygon fill="#63b8ff" stroke="#63b8ff" points="293.33,-543.81 302.07,-549.8 298.97,-539.66 293.33,-543.81"/>
</a>
</g>
</g>
<!-- Node6 -->
<g id="Node000006" class="node">
<title>Node6</title>
<g id="a_Node000006"><a xlink:href="../../df/d56/caching__component__base_8hpp.html" target="_top" xlink:title="Base class for caching components.">
<polygon fill="white" stroke="#666666" points="235.5,-448 109.5,-448 109.5,-418 235.5,-418 235.5,-448"/>
<text text-anchor="start" x="117.5" y="-436" font-family="Helvetica,sans-Serif" font-size="10.00">userver/cache/caching</text>
<text text-anchor="middle" x="172.5" y="-425" font-family="Helvetica,sans-Serif" font-size="10.00">_component_base.hpp</text>
</a>
</g>
</g>
<!-- Node5&#45;&gt;Node6 -->
<g id="edge5_Node000005_Node000006" class="edge">
<title>Node5&#45;&gt;Node6</title>
<g id="a_edge5_Node000005_Node000006"><a xlink:title=" ">
<path fill="none" stroke="#63b8ff" d="M140.49,-475.81C147.51,-466.64 155.44,-456.28 161.66,-448.16"/>
<polygon fill="#63b8ff" stroke="#63b8ff" points="137.67,-473.73 134.37,-483.8 143.23,-477.98 137.67,-473.73"/>
</a>
</g>
</g>
<!-- Node6&#45;&gt;Node3 -->
<g id="edge6_Node000006_Node000003" class="edge">
<title>Node6&#45;&gt;Node3</title>
<g id="a_edge6_Node000006_Node000003"><a xlink:title=" ">
<path fill="none" stroke="#63b8ff" d="M137.71,-412.97C119.55,-403.03 97.72,-391.09 81.12,-382.01"/>
<polygon fill="#63b8ff" stroke="#63b8ff" points="136.37,-416.23 146.82,-417.95 139.73,-410.09 136.37,-416.23"/>
</a>
</g>
</g>
<!-- Node6&#45;&gt;Node4 -->
<g id="edge7_Node000006_Node000004" class="edge">
<title>Node6&#45;&gt;Node4</title>
<g id="a_edge7_Node000006_Node000004"><a xlink:title=" ">
<path fill="none" stroke="#63b8ff" d="M231.84,-415.12C268.12,-404.8 313.97,-391.76 348.24,-382.01"/>
<polygon fill="#63b8ff" stroke="#63b8ff" points="230.54,-411.85 221.88,-417.95 232.45,-418.59 230.54,-411.85"/>
</a>
</g>
</g>
<!-- Node6&#45;&gt;Node7 -->
<g id="edge8_Node000006_Node000007" class="edge">
<title>Node6&#45;&gt;Node7</title>
<g id="a_edge8_Node000006_Node000007"><a xlink:title=" ">
<path fill="none" stroke="#63b8ff" d="M193.12,-410.37C201.99,-401.06 212.11,-390.44 220,-382.16"/>
<polygon fill="#63b8ff" stroke="#63b8ff" points="190.4,-408.14 186.04,-417.8 195.47,-412.97 190.4,-408.14"/>
</a>
</g>
</g>
<!-- Node10 -->
<g id="Node000010" class="node">
<title>Node10</title>
<g id="a_Node000010"><a xlink:href="../../de/dd3/postgresql_2include_2userver_2storages_2postgres_2cluster_8hpp.html" target="_top" xlink:title="Interface for executing queries on a cluster of PostgreSQL servers.">
<polygon fill="white" stroke="#666666" points="607,-514 464,-514 464,-484 607,-484 607,-514"/>
<text text-anchor="start" x="472" y="-502" font-family="Helvetica,sans-Serif" font-size="10.00">userver/storages/postgres</text>
<text text-anchor="middle" x="535.5" y="-491" font-family="Helvetica,sans-Serif" font-size="10.00">/cluster.hpp</text>
</a>
</g>
</g>
<!-- Node9&#45;&gt;Node10 -->
<g id="edge12_Node000009_Node000010" class="edge">
<title>Node9&#45;&gt;Node10</title>
<g id="a_edge12_Node000009_Node000010"><a xlink:title=" ">
<path fill="none" stroke="#63b8ff" d="M614.19,-544.97C596.81,-535.03 575.91,-523.09 560.02,-514.01"/>
<polygon fill="#63b8ff" stroke="#63b8ff" points="612.5,-548.03 622.92,-549.95 615.98,-541.95 612.5,-548.03"/>
</a>
</g>
</g>
<!-- Node10&#45;&gt;Node4 -->
<g id="edge13_Node000010_Node000004" class="edge">
<title>Node10&#45;&gt;Node4</title>
<g id="a_edge13_Node000010_Node000004"><a xlink:title=" ">
<path fill="none" stroke="#63b8ff" d="M497.83,-478.95C483.37,-470.6 467.29,-459.97 454.5,-448 433.21,-428.07 414.93,-399.07 405.14,-382.01"/>
<polygon fill="#63b8ff" stroke="#63b8ff" points="496.15,-482.01 506.58,-483.84 499.56,-475.91 496.15,-482.01"/>
</a>
</g>
</g>
<!-- Node11 -->
<g id="Node000011" class="node">
<title>Node11</title>
<g id="a_Node000011"><a xlink:href="../../df/d02/postgres_8hpp.html" target="_top" xlink:title=" ">
<polygon fill="white" stroke="#666666" points="607,-448 464,-448 464,-418 607,-418 607,-448"/>
<text text-anchor="start" x="472" y="-436" font-family="Helvetica,sans-Serif" font-size="10.00">userver/storages/postgres</text>
<text text-anchor="middle" x="535.5" y="-425" font-family="Helvetica,sans-Serif" font-size="10.00">/postgres.hpp</text>
</a>
</g>
</g>
<!-- Node10&#45;&gt;Node11 -->
<g id="edge14_Node000010_Node000011" class="edge">
<title>Node10&#45;&gt;Node11</title>
<g id="a_edge14_Node000010_Node000011"><a xlink:title=" ">
<path fill="none" stroke="#63b8ff" d="M535.5,-473.54C535.5,-464.96 535.5,-455.61 535.5,-448.16"/>
<polygon fill="#63b8ff" stroke="#63b8ff" points="532,-473.8 535.5,-483.8 539,-473.8 532,-473.8"/>
</a>
</g>
</g>
<!-- Node13 -->
<g id="Node000013" class="node">
<title>Node13</title>
<g id="a_Node000013"><a xlink:href="../../d2/d7b/client_2impl_2call__params_8hpp_source.html" target="_top" xlink:title=" ">
<polygon fill="white" stroke="#666666" points="750,-448 625,-448 625,-418 750,-418 750,-448"/>
<text text-anchor="start" x="633" y="-436" font-family="Helvetica,sans-Serif" font-size="10.00">userver/ugrpc/client</text>
<text text-anchor="middle" x="687.5" y="-425" font-family="Helvetica,sans-Serif" font-size="10.00">/impl/call_params.hpp</text>
</a>
</g>
</g>
<!-- Node12&#45;&gt;Node13 -->
<g id="edge16_Node000012_Node000013" class="edge">
<title>Node12&#45;&gt;Node13</title>
<g id="a_edge16_Node000012_Node000013"><a xlink:title=" ">
<path fill="none" stroke="#63b8ff" d="M922.17,-547.1C893.11,-538.52 858.52,-527.13 828.5,-514 784.4,-494.72 736.31,-465.5 709.23,-448.23"/>
<polygon fill="#63b8ff" stroke="#63b8ff" points="921.22,-550.47 931.8,-549.9 923.17,-543.74 921.22,-550.47"/>
</a>
</g>
</g>
<!-- Node16 -->
<g id="Node000016" class="node">
<title>Node16</title>
<g id="a_Node000016"><a xlink:href="../../d8/d5f/client_2impl_2codegen__declarations_8hpp_source.html" target="_top" xlink:title=" ">
<polygon fill="white" stroke="#666666" points="919.5,-239 747.5,-239 747.5,-209 919.5,-209 919.5,-239"/>
<text text-anchor="start" x="755.5" y="-227" font-family="Helvetica,sans-Serif" font-size="10.00">userver/ugrpc/client</text>
<text text-anchor="middle" x="833.5" y="-216" font-family="Helvetica,sans-Serif" font-size="10.00">/impl/codegen_declarations.hpp</text>
</a>
</g>
</g>
<!-- Node12&#45;&gt;Node16 -->
<g id="edge33_Node000012_Node000016" class="edge">
<title>Node12&#45;&gt;Node16</title>
<g id="a_edge33_Node000012_Node000016"><a xlink:title=" ">
<path fill="none" stroke="#63b8ff" d="M985.5,-539.86C985.5,-513.76 985.5,-470.93 985.5,-434 985.5,-434 985.5,-434 985.5,-366 985.5,-302.65 913.66,-259.76 868.75,-239.14"/>
<polygon fill="#63b8ff" stroke="#63b8ff" points="982,-539.96 985.5,-549.96 989,-539.96 982,-539.96"/>
</a>
</g>
</g>
<!-- Node24 -->
<g id="Node000024" class="node">
<title>Node24</title>
<g id="a_Node000024"><a xlink:href="../../d9/d5b/client__data_8hpp_source.html" target="_top" xlink:title=" ">
<polygon fill="white" stroke="#666666" points="957,-514 838,-514 838,-484 957,-484 957,-514"/>
<text text-anchor="start" x="846" y="-502" font-family="Helvetica,sans-Serif" font-size="10.00">userver/ugrpc/client</text>
<text text-anchor="middle" x="897.5" y="-491" font-family="Helvetica,sans-Serif" font-size="10.00">/impl/client_data.hpp</text>
</a>
</g>
</g>
<!-- Node12&#45;&gt;Node24 -->
<g id="edge28_Node000012_Node000024" class="edge">
<title>Node12&#45;&gt;Node24</title>
<g id="a_edge28_Node000012_Node000024"><a xlink:title=" ">
<path fill="none" stroke="#63b8ff" d="M957.66,-543.75C944.43,-534.13 928.93,-522.86 916.98,-514.16"/>
<polygon fill="#63b8ff" stroke="#63b8ff" points="955.82,-546.75 965.97,-549.8 959.94,-541.08 955.82,-546.75"/>
</a>
</g>
</g>
<!-- Node26 -->
<g id="Node000026" class="node">
<title>Node26</title>
<g id="a_Node000026"><a xlink:href="../../d8/dc6/grpc_2include_2userver_2ugrpc_2impl_2statistics__storage_8hpp_source.html" target="_top" xlink:title=" ">
<polygon fill="white" stroke="#666666" points="1141,-514 1014,-514 1014,-484 1141,-484 1141,-514"/>
<text text-anchor="start" x="1022" y="-502" font-family="Helvetica,sans-Serif" font-size="10.00">userver/ugrpc/impl</text>
<text text-anchor="middle" x="1077.5" y="-491" font-family="Helvetica,sans-Serif" font-size="10.00">/statistics_storage.hpp</text>
</a>
</g>
</g>
<!-- Node12&#45;&gt;Node26 -->
<g id="edge34_Node000012_Node000026" class="edge">
<title>Node12&#45;&gt;Node26</title>
<g id="a_edge34_Node000012_Node000026"><a xlink:title=" ">
<path fill="none" stroke="#63b8ff" d="M1014.21,-544.03C1028.13,-534.34 1044.53,-522.94 1057.14,-514.16"/>
<polygon fill="#63b8ff" stroke="#63b8ff" points="1012.13,-541.21 1005.92,-549.8 1016.13,-546.96 1012.13,-541.21"/>
</a>
</g>
</g>
<!-- Node29 -->
<g id="Node000029" class="node">
<title>Node29</title>
<g id="a_Node000029"><a xlink:href="../../db/d93/service__worker__impl_8hpp_source.html" target="_top" xlink:title=" ">
<polygon fill="white" stroke="#666666" points="1427.5,-316 1309.5,-316 1309.5,-275 1427.5,-275 1427.5,-316"/>
<text text-anchor="start" x="1317.5" y="-304" font-family="Helvetica,sans-Serif" font-size="10.00">userver/ugrpc/server</text>
<text text-anchor="start" x="1317.5" y="-293" font-family="Helvetica,sans-Serif" font-size="10.00">/impl/service_worker</text>
<text text-anchor="middle" x="1368.5" y="-282" font-family="Helvetica,sans-Serif" font-size="10.00">_impl.hpp</text>
</a>
</g>
</g>
<!-- Node12&#45;&gt;Node29 -->
<g id="edge47_Node000012_Node000029" class="edge">
<title>Node12&#45;&gt;Node29</title>
<g id="a_edge47_Node000012_Node000029"><a xlink:title=" ">
<path fill="none" stroke="#63b8ff" d="M1049.51,-549.84C1080.87,-541.6 1118.65,-529.71 1150.5,-514 1232.56,-473.52 1249.65,-452.07 1308.5,-382 1326.46,-360.62 1344.53,-334.02 1356.07,-316.22"/>
<polygon fill="#63b8ff" stroke="#63b8ff" points="1048.39,-546.51 1039.57,-552.38 1050.13,-553.29 1048.39,-546.51"/>
</a>
</g>
</g>
<!-- Node32 -->
<g id="Node000032" class="node">
<title>Node32</title>
<g id="a_Node000032"><a xlink:href="../../d4/d79/grpc_2include_2userver_2ugrpc_2server_2server_8hpp.html" target="_top" xlink:title="Manages the gRPC server.">
<polygon fill="white" stroke="#666666" points="1563,-310.5 1446,-310.5 1446,-280.5 1563,-280.5 1563,-310.5"/>
<text text-anchor="start" x="1454" y="-298.5" font-family="Helvetica,sans-Serif" font-size="10.00">userver/ugrpc/server</text>
<text text-anchor="middle" x="1504.5" y="-287.5" font-family="Helvetica,sans-Serif" font-size="10.00">/server.hpp</text>
</a>
</g>
</g>
<!-- Node12&#45;&gt;Node32 -->
<g id="edge48_Node000012_Node000032" class="edge">
<title>Node12&#45;&gt;Node32</title>
<g id="a_edge48_Node000012_Node000032"><a xlink:title=" ">
<path fill="none" stroke="#63b8ff" d="M1049.48,-554.62C1090.95,-547.05 1145.43,-534.26 1190.5,-514 1316.3,-457.44 1444.97,-349.21 1488.79,-310.61"/>
<polygon fill="#63b8ff" stroke="#63b8ff" points="1048.74,-551.2 1039.5,-556.39 1049.96,-558.09 1048.74,-551.2"/>
</a>
</g>
</g>
<!-- Node14 -->
<g id="Node000014" class="node">
<title>Node14</title>
<g id="a_Node000014"><a xlink:href="../../d7/d8b/client_2impl_2async__methods_8hpp_source.html" target="_top" xlink:title=" ">
<polygon fill="white" stroke="#666666" points="702.5,-382 560.5,-382 560.5,-352 702.5,-352 702.5,-382"/>
<text text-anchor="start" x="568.5" y="-370" font-family="Helvetica,sans-Serif" font-size="10.00">userver/ugrpc/client</text>
<text text-anchor="middle" x="631.5" y="-359" font-family="Helvetica,sans-Serif" font-size="10.00">/impl/async_methods.hpp</text>
</a>
</g>
</g>
<!-- Node13&#45;&gt;Node14 -->
<g id="edge17_Node000013_Node000014" class="edge">
<title>Node13&#45;&gt;Node14</title>
<g id="a_edge17_Node000013_Node000014"><a xlink:title=" ">
<path fill="none" stroke="#63b8ff" d="M668.33,-410.09C660.24,-400.85 651.06,-390.36 643.89,-382.16"/>
<polygon fill="#63b8ff" stroke="#63b8ff" points="665.85,-412.58 675.07,-417.8 671.12,-407.97 665.85,-412.58"/>
</a>
</g>
</g>
<!-- Node15 -->
<g id="Node000015" class="node">
<title>Node15</title>
<g id="a_Node000015"><a xlink:href="../../db/df8/client_2rpc_8hpp.html" target="_top" xlink:title="Classes representing an outgoing RPC.">
<polygon fill="white" stroke="#666666" points="732,-310.5 619,-310.5 619,-280.5 732,-280.5 732,-310.5"/>
<text text-anchor="start" x="627" y="-298.5" font-family="Helvetica,sans-Serif" font-size="10.00">userver/ugrpc/client</text>
<text text-anchor="middle" x="675.5" y="-287.5" font-family="Helvetica,sans-Serif" font-size="10.00">/rpc.hpp</text>
</a>
</g>
</g>
<!-- Node13&#45;&gt;Node15 -->
<g id="edge27_Node000013_Node000015" class="edge">
<title>Node13&#45;&gt;Node15</title>
<g id="a_edge27_Node000013_Node000015"><a xlink:title=" ">
<path fill="none" stroke="#63b8ff" d="M701.81,-408.72C709.82,-392.77 717.16,-371.11 711.5,-352 706.94,-336.58 696.6,-321.43 688.17,-310.86"/>
<polygon fill="#63b8ff" stroke="#63b8ff" points="698.55,-407.39 696.85,-417.85 704.7,-410.74 698.55,-407.39"/>
</a>
</g>
</g>
<!-- Node14&#45;&gt;Node15 -->
<g id="edge18_Node000014_Node000015" class="edge">
<title>Node14&#45;&gt;Node15</title>
<g id="a_edge18_Node000014_Node000015"><a xlink:title=" ">
<path fill="none" stroke="#63b8ff" d="M645.82,-343.38C652.67,-332.57 660.65,-319.96 666.61,-310.54"/>
<polygon fill="#63b8ff" stroke="#63b8ff" points="642.8,-341.61 640.4,-351.94 648.71,-345.36 642.8,-341.61"/>
</a>
</g>
</g>
<!-- Node15&#45;&gt;Node16 -->
<g id="edge19_Node000015_Node000016" class="edge">
<title>Node15&#45;&gt;Node16</title>
<g id="a_edge19_Node000015_Node000016"><a xlink:title=" ">
<path fill="none" stroke="#63b8ff" d="M716.86,-276.31C743.34,-264.66 777.17,-249.78 801.57,-239.04"/>
<polygon fill="#63b8ff" stroke="#63b8ff" points="715.22,-273.21 707.47,-280.44 718.04,-279.61 715.22,-273.21"/>
</a>
</g>
</g>
<!-- Node17 -->
<g id="Node000017" class="node">
<title>Node17</title>
<g id="a_Node000017"><a xlink:href="../../d3/d3e/grpc_2include_2userver_2ugrpc_2client_2middlewares_2base_8hpp_source.html" target="_top" xlink:title=" ">
<polygon fill="white" stroke="#666666" points="729.5,-239 599.5,-239 599.5,-209 729.5,-209 729.5,-239"/>
<text text-anchor="start" x="607.5" y="-227" font-family="Helvetica,sans-Serif" font-size="10.00">userver/ugrpc/client</text>
<text text-anchor="middle" x="664.5" y="-216" font-family="Helvetica,sans-Serif" font-size="10.00">/middlewares/base.hpp</text>
</a>
</g>
</g>
<!-- Node15&#45;&gt;Node17 -->
<g id="edge20_Node000015_Node000017" class="edge">
<title>Node15&#45;&gt;Node17</title>
<g id="a_edge20_Node000015_Node000017"><a xlink:title=" ">
<path fill="none" stroke="#63b8ff" d="M671.66,-270.25C670.01,-259.81 668.14,-247.99 666.72,-239.04"/>
<polygon fill="#63b8ff" stroke="#63b8ff" points="668.25,-271.11 673.27,-280.44 675.17,-270.01 668.25,-271.11"/>
</a>
</g>
</g>
<!-- Node18 -->
<g id="Node000018" class="node">
<title>Node18</title>
<g id="a_Node000018"><a xlink:href="../../d0/d98/client__factory_8hpp.html" target="_top" xlink:title="Creates generated gRPC clients. Has a minimal built&#45;in channel cache: as long as a channel to the sam...">
<polygon fill="white" stroke="#666666" points="1038,-167.5 925,-167.5 925,-137.5 1038,-137.5 1038,-167.5"/>
<text text-anchor="start" x="933" y="-155.5" font-family="Helvetica,sans-Serif" font-size="10.00">userver/ugrpc/client</text>
<text text-anchor="middle" x="981.5" y="-144.5" font-family="Helvetica,sans-Serif" font-size="10.00">/client_factory.hpp</text>
</a>
</g>
</g>
<!-- Node17&#45;&gt;Node18 -->
<g id="edge21_Node000017_Node000018" class="edge">
<title>Node17&#45;&gt;Node18</title>
<g id="a_edge21_Node000017_Node000018"><a xlink:title=" ">
<path fill="none" stroke="#63b8ff" d="M739.94,-208.33C807.52,-195.13 898.52,-177.19 915.5,-173 922.11,-171.37 929.05,-169.5 935.85,-167.57"/>
<polygon fill="#63b8ff" stroke="#63b8ff" points="738.88,-204.97 729.73,-210.32 740.22,-211.84 738.88,-204.97"/>
</a>
</g>
</g>
<!-- Node21 -->
<g id="Node000021" class="node">
<title>Node21</title>
<g id="a_Node000021"><a xlink:href="../../d4/d96/grpc_2include_2userver_2ugrpc_2client_2middlewares_2baggage_2component_8hpp_source.html" target="_top" xlink:title=" ">
<polygon fill="white" stroke="#666666" points="532.5,-173 404.5,-173 404.5,-132 532.5,-132 532.5,-173"/>
<text text-anchor="start" x="412.5" y="-161" font-family="Helvetica,sans-Serif" font-size="10.00">userver/ugrpc/client</text>
<text text-anchor="start" x="412.5" y="-150" font-family="Helvetica,sans-Serif" font-size="10.00">/middlewares/baggage</text>
<text text-anchor="middle" x="468.5" y="-139" font-family="Helvetica,sans-Serif" font-size="10.00">/component.hpp</text>
</a>
</g>
</g>
<!-- Node17&#45;&gt;Node21 -->
<g id="edge24_Node000017_Node000021" class="edge">
<title>Node17&#45;&gt;Node21</title>
<g id="a_edge24_Node000017_Node000021"><a xlink:title=" ">
<path fill="none" stroke="#63b8ff" d="M615.3,-205.55C587.43,-195.67 552.5,-183.28 523.7,-173.07"/>
<polygon fill="#63b8ff" stroke="#63b8ff" points="614.24,-208.89 624.84,-208.94 616.58,-202.29 614.24,-208.89"/>
</a>
</g>
</g>
<!-- Node22 -->
<g id="Node000022" class="node">
<title>Node22</title>
<g id="a_Node000022"><a xlink:href="../../d6/d04/grpc_2include_2userver_2ugrpc_2client_2middlewares_2deadline__propagation_2component_8hpp.html" target="_top" xlink:title="ugrpc::client::middlewares::deadline_propagation::Component">
<polygon fill="white" stroke="#666666" points="710,-173 551,-173 551,-132 710,-132 710,-173"/>
<text text-anchor="start" x="559" y="-161" font-family="Helvetica,sans-Serif" font-size="10.00">userver/ugrpc/client</text>
<text text-anchor="start" x="559" y="-150" font-family="Helvetica,sans-Serif" font-size="10.00">/middlewares/deadline</text>
<text text-anchor="middle" x="630.5" y="-139" font-family="Helvetica,sans-Serif" font-size="10.00">_propagation/component.hpp</text>
</a>
</g>
</g>
<!-- Node17&#45;&gt;Node22 -->
<g id="edge25_Node000017_Node000022" class="edge">
<title>Node17&#45;&gt;Node22</title>
<g id="a_edge25_Node000017_Node000022"><a xlink:title=" ">
<path fill="none" stroke="#63b8ff" d="M653.13,-199.75C648.89,-191.1 644.13,-181.37 640.08,-173.07"/>
<polygon fill="#63b8ff" stroke="#63b8ff" points="650.08,-201.49 657.62,-208.94 656.37,-198.41 650.08,-201.49"/>
</a>
</g>
</g>
<!-- Node23 -->
<g id="Node000023" class="node">
<title>Node23</title>
<g id="a_Node000023"><a xlink:href="../../d1/de5/grpc_2include_2userver_2ugrpc_2client_2middlewares_2log_2component_8hpp_source.html" target="_top" xlink:title=" ">
<polygon fill="white" stroke="#666666" points="907,-167.5 728,-167.5 728,-137.5 907,-137.5 907,-167.5"/>
<text text-anchor="start" x="736" y="-155.5" font-family="Helvetica,sans-Serif" font-size="10.00">userver/ugrpc/client</text>
<text text-anchor="middle" x="817.5" y="-144.5" font-family="Helvetica,sans-Serif" font-size="10.00">/middlewares/log/component.hpp</text>
</a>
</g>
</g>
<!-- Node17&#45;&gt;Node23 -->
<g id="edge26_Node000017_Node000023" class="edge">
<title>Node17&#45;&gt;Node23</title>
<g id="a_edge26_Node000017_Node000023"><a xlink:title=" ">
<path fill="none" stroke="#63b8ff" d="M704.89,-204.65C730.48,-193.03 763.06,-178.23 786.58,-167.54"/>
<polygon fill="#63b8ff" stroke="#63b8ff" points="703.12,-201.61 695.46,-208.94 706.01,-207.99 703.12,-201.61"/>
</a>
</g>
</g>
<!-- Node19 -->
<g id="Node000019" class="node">
<title>Node19</title>
<g id="a_Node000019"><a xlink:href="../../da/dd3/client__factory__component_8hpp.html" target="_top" xlink:title="Provides a ClientFactory in the component system.">
<polygon fill="white" stroke="#666666" points="1065,-96 898,-96 898,-66 1065,-66 1065,-96"/>
<text text-anchor="start" x="906" y="-84" font-family="Helvetica,sans-Serif" font-size="10.00">userver/ugrpc/client</text>
<text text-anchor="middle" x="981.5" y="-73" font-family="Helvetica,sans-Serif" font-size="10.00">/client_factory_component.hpp</text>
</a>
</g>
</g>
<!-- Node18&#45;&gt;Node19 -->
<g id="edge22_Node000018_Node000019" class="edge">
<title>Node18&#45;&gt;Node19</title>
<g id="a_edge22_Node000018_Node000019"><a xlink:title=" ">
<path fill="none" stroke="#63b8ff" d="M981.5,-127.25C981.5,-116.81 981.5,-104.99 981.5,-96.04"/>
<polygon fill="#63b8ff" stroke="#63b8ff" points="978,-127.44 981.5,-137.44 985,-127.44 978,-127.44"/>
</a>
</g>
</g>
<!-- Node20 -->
<g id="Node000020" class="node">
<title>Node20</title>
<g id="a_Node000020"><a xlink:href="../../d8/d98/simple__client__component_8hpp.html" target="_top" xlink:title="Template class for a simple gRPC client.">
<polygon fill="white" stroke="#666666" points="1064.5,-30 898.5,-30 898.5,0 1064.5,0 1064.5,-30"/>
<text text-anchor="start" x="906.5" y="-18" font-family="Helvetica,sans-Serif" font-size="10.00">userver/ugrpc/client</text>
<text text-anchor="middle" x="981.5" y="-7" font-family="Helvetica,sans-Serif" font-size="10.00">/simple_client_component.hpp</text>
</a>
</g>
</g>
<!-- Node19&#45;&gt;Node20 -->
<g id="edge23_Node000019_Node000020" class="edge">
<title>Node19&#45;&gt;Node20</title>
<g id="a_edge23_Node000019_Node000020"><a xlink:title=" ">
<path fill="none" stroke="#63b8ff" d="M981.5,-55.54C981.5,-46.96 981.5,-37.61 981.5,-30.16"/>
<polygon fill="#63b8ff" stroke="#63b8ff" points="978,-55.8 981.5,-65.8 985,-55.8 978,-55.8"/>
</a>
</g>
</g>
<!-- Node24&#45;&gt;Node13 -->
<g id="edge31_Node000024_Node000013" class="edge">
<title>Node24&#45;&gt;Node13</title>
<g id="a_edge31_Node000024_Node000013"><a xlink:title=" ">
<path fill="none" stroke="#63b8ff" d="M841.68,-480.99C807.89,-470.69 765.32,-457.72 733.48,-448.01"/>
<polygon fill="#63b8ff" stroke="#63b8ff" points="840.83,-484.39 851.41,-483.95 842.87,-477.69 840.83,-484.39"/>
</a>
</g>
</g>
<!-- Node24&#45;&gt;Node16 -->
<g id="edge32_Node000024_Node000016" class="edge">
<title>Node24&#45;&gt;Node16</title>
<g id="a_edge32_Node000024_Node000016"><a xlink:title=" ">
<path fill="none" stroke="#63b8ff" d="M896.22,-473.63C895.1,-457.7 893.07,-436.48 889.5,-418 876.32,-349.83 849.79,-271.02 838.63,-239.31"/>
<polygon fill="#63b8ff" stroke="#63b8ff" points="892.74,-473.96 896.86,-483.72 899.72,-473.52 892.74,-473.96"/>
</a>
</g>
</g>
<!-- Node24&#45;&gt;Node18 -->
<g id="edge30_Node000024_Node000018" class="edge">
<title>Node24&#45;&gt;Node18</title>
<g id="a_edge30_Node000024_Node000018"><a xlink:title=" ">
<path fill="none" stroke="#63b8ff" d="M912.22,-475.08C926.97,-449.88 947.5,-407.67 947.5,-368 947.5,-368 947.5,-368 947.5,-294.5 947.5,-246.91 966.03,-192.74 975.73,-167.64"/>
<polygon fill="#63b8ff" stroke="#63b8ff" points="909.09,-473.5 906.9,-483.87 915.07,-477.13 909.09,-473.5"/>
</a>
</g>
</g>
<!-- Node25 -->
<g id="Node000025" class="node">
<title>Node25</title>
<g id="a_Node000025"><a xlink:href="../../d5/d0c/channels_8hpp.html" target="_top" xlink:title="Utilities for managing gRPC connections.">
<polygon fill="white" stroke="#666666" points="881,-448 768,-448 768,-418 881,-418 881,-448"/>
<text text-anchor="start" x="776" y="-436" font-family="Helvetica,sans-Serif" font-size="10.00">userver/ugrpc/client</text>
<text text-anchor="middle" x="824.5" y="-425" font-family="Helvetica,sans-Serif" font-size="10.00">/channels.hpp</text>
</a>
</g>
</g>
<!-- Node24&#45;&gt;Node25 -->
<g id="edge29_Node000024_Node000025" class="edge">
<title>Node24&#45;&gt;Node25</title>
<g id="a_edge29_Node000024_Node000025"><a xlink:title=" ">
<path fill="none" stroke="#63b8ff" d="M873.78,-477.2C862.94,-467.7 850.38,-456.69 840.66,-448.16"/>
<polygon fill="#63b8ff" stroke="#63b8ff" points="871.47,-479.84 881.3,-483.8 876.09,-474.57 871.47,-479.84"/>
</a>
</g>
</g>
<!-- Node26&#45;&gt;Node18 -->
<g id="edge35_Node000026_Node000018" class="edge">
<title>Node26&#45;&gt;Node18</title>
<g id="a_edge35_Node000026_Node000018"><a xlink:title=" ">
<path fill="none" stroke="#63b8ff" d="M1061.81,-475.58C1045.87,-450.55 1023.5,-408.27 1023.5,-368 1023.5,-368 1023.5,-368 1023.5,-294.5 1023.5,-246.48 1000.85,-192.95 988.82,-167.9"/>
<polygon fill="#63b8ff" stroke="#63b8ff" points="1058.92,-477.55 1067.34,-483.98 1064.77,-473.7 1058.92,-477.55"/>
</a>
</g>
</g>
<!-- Node27 -->
<g id="Node000027" class="node">
<title>Node27</title>
<g id="a_Node000027"><a xlink:href="../../d9/dfa/service__worker_8hpp_source.html" target="_top" xlink:title=" ">
<polygon fill="white" stroke="#666666" points="1233.5,-448 1095.5,-448 1095.5,-418 1233.5,-418 1233.5,-448"/>
<text text-anchor="start" x="1103.5" y="-436" font-family="Helvetica,sans-Serif" font-size="10.00">userver/ugrpc/server</text>
<text text-anchor="middle" x="1164.5" y="-425" font-family="Helvetica,sans-Serif" font-size="10.00">/impl/service_worker.hpp</text>
</a>
</g>
</g>
<!-- Node26&#45;&gt;Node27 -->
<g id="edge36_Node000026_Node000027" class="edge">
<title>Node26&#45;&gt;Node27</title>
<g id="a_edge36_Node000026_Node000027"><a xlink:title=" ">
<path fill="none" stroke="#63b8ff" d="M1105.02,-477.75C1118.11,-468.13 1133.43,-456.86 1145.25,-448.16"/>
<polygon fill="#63b8ff" stroke="#63b8ff" points="1102.79,-475.05 1096.81,-483.8 1106.94,-480.69 1102.79,-475.05"/>
</a>
</g>
</g>
<!-- Node28 -->
<g id="Node000028" class="node">
<title>Node28</title>
<g id="a_Node000028"><a xlink:href="../../df/d2b/server_2impl_2codegen__declarations_8hpp_source.html" target="_top" xlink:title=" ">
<polygon fill="white" stroke="#666666" points="1257.5,-239 1085.5,-239 1085.5,-209 1257.5,-209 1257.5,-239"/>
<text text-anchor="start" x="1093.5" y="-227" font-family="Helvetica,sans-Serif" font-size="10.00">userver/ugrpc/server</text>
<text text-anchor="middle" x="1171.5" y="-216" font-family="Helvetica,sans-Serif" font-size="10.00">/impl/codegen_declarations.hpp</text>
</a>
</g>
</g>
<!-- Node27&#45;&gt;Node28 -->
<g id="edge37_Node000027_Node000028" class="edge">
<title>Node27&#45;&gt;Node28</title>
<g id="a_edge37_Node000027_Node000028"><a xlink:title=" ">
<path fill="none" stroke="#63b8ff" d="M1138.97,-411.17C1104.97,-380.8 1052.23,-322.79 1080.5,-275 1090.41,-258.24 1108.16,-246.73 1125.36,-239.01"/>
<polygon fill="#63b8ff" stroke="#63b8ff" points="1136.89,-414 1146.73,-417.92 1141.48,-408.71 1136.89,-414"/>
</a>
</g>
</g>
<!-- Node27&#45;&gt;Node29 -->
<g id="edge38_Node000027_Node000029" class="edge">
<title>Node27&#45;&gt;Node29</title>
<g id="a_edge38_Node000027_Node000029"><a xlink:title=" ">
<path fill="none" stroke="#63b8ff" d="M1212.9,-414.17C1233.03,-405.77 1256.16,-394.76 1275.5,-382 1304.42,-362.91 1333.07,-334.82 1350.76,-316.1"/>
<polygon fill="#63b8ff" stroke="#63b8ff" points="1211.52,-410.95 1203.58,-417.97 1214.17,-417.43 1211.52,-410.95"/>
</a>
</g>
</g>
<!-- Node31 -->
<g id="Node000031" class="node">
<title>Node31</title>
<g id="a_Node000031"><a xlink:href="../../df/da9/service__base_8hpp.html" target="_top" xlink:title="The type&#45;erased base class for all gRPC service implementations.">
<polygon fill="white" stroke="#666666" points="1266,-382 1149,-382 1149,-352 1266,-352 1266,-382"/>
<text text-anchor="start" x="1157" y="-370" font-family="Helvetica,sans-Serif" font-size="10.00">userver/ugrpc/server</text>
<text text-anchor="middle" x="1207.5" y="-359" font-family="Helvetica,sans-Serif" font-size="10.00">/service_base.hpp</text>
</a>
</g>
</g>
<!-- Node27&#45;&gt;Node31 -->
<g id="edge40_Node000027_Node000031" class="edge">
<title>Node27&#45;&gt;Node31</title>
<g id="a_edge40_Node000027_Node000031"><a xlink:title=" ">
<path fill="none" stroke="#63b8ff" d="M1179.79,-409.24C1185.86,-400.21 1192.64,-390.11 1197.98,-382.16"/>
<polygon fill="#63b8ff" stroke="#63b8ff" points="1176.71,-407.54 1174.04,-417.8 1182.53,-411.45 1176.71,-407.54"/>
</a>
</g>
</g>
<!-- Node30 -->
<g id="Node000030" class="node">
<title>Node30</title>
<g id="a_Node000030"><a xlink:href="../../d1/dac/server_2impl_2codegen__definitions_8hpp_source.html" target="_top" xlink:title=" ">
<polygon fill="white" stroke="#666666" points="1444,-239 1281,-239 1281,-209 1444,-209 1444,-239"/>
<text text-anchor="start" x="1289" y="-227" font-family="Helvetica,sans-Serif" font-size="10.00">userver/ugrpc/server</text>
<text text-anchor="middle" x="1362.5" y="-216" font-family="Helvetica,sans-Serif" font-size="10.00">/impl/codegen_definitions.hpp</text>
</a>
</g>
</g>
<!-- Node29&#45;&gt;Node30 -->
<g id="edge39_Node000029_Node000030" class="edge">
<title>Node29&#45;&gt;Node30</title>
<g id="a_edge39_Node000029_Node000030"><a xlink:title=" ">
<path fill="none" stroke="#63b8ff" d="M1365.92,-264.66C1365.16,-255.76 1364.35,-246.42 1363.71,-239.04"/>
<polygon fill="#63b8ff" stroke="#63b8ff" points="1362.45,-265.11 1366.8,-274.77 1369.42,-264.51 1362.45,-265.11"/>
</a>
</g>
</g>
<!-- Node31&#45;&gt;Node28 -->
<g id="edge41_Node000031_Node000028" class="edge">
<title>Node31&#45;&gt;Node28</title>
<g id="a_edge41_Node000031_Node000028"><a xlink:title=" ">
<path fill="none" stroke="#63b8ff" d="M1238.52,-345.7C1248.04,-337.69 1257.36,-327.62 1262.5,-316 1269.87,-299.34 1271.78,-290.68 1262.5,-275 1252.59,-258.24 1234.84,-246.73 1217.64,-239.01"/>
<polygon fill="#63b8ff" stroke="#63b8ff" points="1236.28,-343 1230.56,-351.92 1240.59,-348.52 1236.28,-343"/>
</a>
</g>
</g>
<!-- Node31&#45;&gt;Node29 -->
<g id="edge42_Node000031_Node000029" class="edge">
<title>Node31&#45;&gt;Node29</title>
<g id="a_edge42_Node000031_Node000029"><a xlink:title=" ">
<path fill="none" stroke="#63b8ff" d="M1249.42,-347.9C1272.06,-338.13 1300.02,-326.06 1323.16,-316.07"/>
<polygon fill="#63b8ff" stroke="#63b8ff" points="1247.87,-344.76 1240.08,-351.94 1250.65,-351.19 1247.87,-344.76"/>
</a>
</g>
</g>
<!-- Node31&#45;&gt;Node32 -->
<g id="edge43_Node000031_Node000032" class="edge">
<title>Node31&#45;&gt;Node32</title>
<g id="a_edge43_Node000031_Node000032"><a xlink:title=" ">
<path fill="none" stroke="#63b8ff" d="M1276.17,-352.21C1321.8,-342.75 1382.94,-329.51 1436.5,-316 1443.17,-314.32 1450.17,-312.44 1457.05,-310.53"/>
<polygon fill="#63b8ff" stroke="#63b8ff" points="1275.18,-348.84 1266.1,-354.29 1276.6,-355.69 1275.18,-348.84"/>
</a>
</g>
</g>
<!-- Node34 -->
<g id="Node000034" class="node">
<title>Node34</title>
<g id="a_Node000034"><a xlink:href="../../d1/d68/service__component__base_8hpp.html" target="_top" xlink:title="Base class for all the gRPC service components.">
<polygon fill="white" stroke="#666666" points="1253.5,-310.5 1089.5,-310.5 1089.5,-280.5 1253.5,-280.5 1253.5,-310.5"/>
<text text-anchor="start" x="1097.5" y="-298.5" font-family="Helvetica,sans-Serif" font-size="10.00">userver/ugrpc/server</text>
<text text-anchor="middle" x="1171.5" y="-287.5" font-family="Helvetica,sans-Serif" font-size="10.00">/service_component_base.hpp</text>
</a>
</g>
</g>
<!-- Node31&#45;&gt;Node34 -->
<g id="edge45_Node000031_Node000034" class="edge">
<title>Node31&#45;&gt;Node34</title>
<g id="a_edge45_Node000031_Node000034"><a xlink:title=" ">
<path fill="none" stroke="#63b8ff" d="M1195.45,-342.73C1189.92,-332.06 1183.55,-319.77 1178.77,-310.54"/>
<polygon fill="#63b8ff" stroke="#63b8ff" points="1192.51,-344.67 1200.21,-351.94 1198.72,-341.45 1192.51,-344.67"/>
</a>
</g>
</g>
<!-- Node33 -->
<g id="Node000033" class="node">
<title>Node33</title>
<g id="a_Node000033"><a xlink:href="../../db/d7e/server__component_8hpp.html" target="_top" xlink:title="Component that configures and manages the gRPC server.">
<polygon fill="white" stroke="#666666" points="1593,-239 1462,-239 1462,-209 1593,-209 1593,-239"/>
<text text-anchor="start" x="1470" y="-227" font-family="Helvetica,sans-Serif" font-size="10.00">userver/ugrpc/server</text>
<text text-anchor="middle" x="1527.5" y="-216" font-family="Helvetica,sans-Serif" font-size="10.00">/server_component.hpp</text>
</a>
</g>
</g>
<!-- Node32&#45;&gt;Node33 -->
<g id="edge44_Node000032_Node000033" class="edge">
<title>Node32&#45;&gt;Node33</title>
<g id="a_edge44_Node000032_Node000033"><a xlink:title=" ">
<path fill="none" stroke="#63b8ff" d="M1512.31,-270.9C1515.81,-260.31 1519.83,-248.18 1522.85,-239.04"/>
<polygon fill="#63b8ff" stroke="#63b8ff" points="1508.97,-269.84 1509.15,-280.44 1515.62,-272.04 1508.97,-269.84"/>
</a>
</g>
</g>
<!-- Node34&#45;&gt;Node28 -->
<g id="edge46_Node000034_Node000028" class="edge">
<title>Node34&#45;&gt;Node28</title>
<g id="a_edge46_Node000034_Node000028"><a xlink:title=" ">
<path fill="none" stroke="#63b8ff" d="M1171.5,-270.25C1171.5,-259.81 1171.5,-247.99 1171.5,-239.04"/>
<polygon fill="#63b8ff" stroke="#63b8ff" points="1168,-270.44 1171.5,-280.44 1175,-270.44 1168,-270.44"/>
</a>
</g>
</g>
<!-- Node36 -->
<g id="Node000036" class="node">
<title>Node36</title>
<g id="a_Node000036"><a xlink:href="../../d0/d5e/redis__config_8hpp_source.html" target="_top" xlink:title=" ">
<polygon fill="white" stroke="#666666" points="1524,-514 1399,-514 1399,-484 1524,-484 1524,-514"/>
<text text-anchor="start" x="1407" y="-502" font-family="Helvetica,sans-Serif" font-size="10.00">userver/storages/redis</text>
<text text-anchor="middle" x="1461.5" y="-491" font-family="Helvetica,sans-Serif" font-size="10.00">/redis_config.hpp</text>
</a>
</g>
</g>
<!-- Node35&#45;&gt;Node36 -->
<g id="edge50_Node000035_Node000036" class="edge">
<title>Node35&#45;&gt;Node36</title>
<g id="a_edge50_Node000035_Node000036"><a xlink:title=" ">
<path fill="none" stroke="#63b8ff" d="M1333.74,-546.46C1361.82,-536.25 1396.74,-523.55 1422.97,-514.01"/>
<polygon fill="#63b8ff" stroke="#63b8ff" points="1332.33,-543.25 1324.12,-549.95 1334.72,-549.83 1332.33,-543.25"/>
</a>
</g>
</g>
</g>
</svg>
