<?xml version="1.0" encoding="UTF-8" standalone="no"?>
<!DOCTYPE svg PUBLIC "-//W3C//DTD SVG 1.1//EN"
 "http://www.w3.org/Graphics/SVG/1.1/DTD/svg11.dtd">
<!-- Generated by graphviz version 2.43.0 (0)
 -->
<!-- Title: formats::json::ExceptionWithPath Pages: 1 -->
<svg width="671pt" height="230pt"
 viewBox="0.00 0.00 671.00 230.00" xmlns="http://www.w3.org/2000/svg" xmlns:xlink="http://www.w3.org/1999/xlink">
<g id="graph0" class="graph" transform="scale(1 1) rotate(0) translate(4 226)">
<title>formats::json::ExceptionWithPath</title>
<!-- Node1 -->
<g id="Node000001" class="node">
<title>Node1</title>
<g id="a_Node000001"><a xlink:title=" ">
<polygon fill="#999999" stroke="#666666" points="428,-126 293,-126 293,-96 428,-96 428,-126"/>
<text text-anchor="start" x="301" y="-114" font-family="Helvetica,sans-Serif" font-size="10.00">formats::json::Exception</text>
<text text-anchor="middle" x="360.5" y="-103" font-family="Helvetica,sans-Serif" font-size="10.00">WithPath</text>
</a>
</g>
</g>
<!-- Node4 -->
<g id="Node000004" class="node">
<title>Node4</title>
<g id="a_Node000004"><a xlink:href="../../de/d49/classformats_1_1json_1_1ConversionException.html" target="_top" xlink:title="Conversion error.">
<polygon fill="white" stroke="#666666" points="634.5,-222 492.5,-222 492.5,-192 634.5,-192 634.5,-222"/>
<text text-anchor="start" x="500.5" y="-210" font-family="Helvetica,sans-Serif" font-size="10.00">formats::json::Conversion</text>
<text text-anchor="middle" x="563.5" y="-199" font-family="Helvetica,sans-Serif" font-size="10.00">Exception</text>
</a>
</g>
</g>
<!-- Node1&#45;&gt;Node4 -->
<g id="edge3_Node000001_Node000004" class="edge">
<title>Node1&#45;&gt;Node4</title>
<g id="a_edge3_Node000001_Node000004"><a xlink:title=" ">
<path fill="none" stroke="#63b8ff" d="M386.66,-132.73C406.46,-148.79 435.41,-170.04 464,-183 472.9,-187.03 482.57,-190.45 492.25,-193.32"/>
<polygon fill="#63b8ff" stroke="#63b8ff" points="388.7,-129.88 378.76,-126.21 384.24,-135.28 388.7,-129.88"/>
</a>
</g>
</g>
<!-- Node5 -->
<g id="Node000005" class="node">
<title>Node5</title>
<g id="a_Node000005"><a xlink:href="../../d0/da8/classformats_1_1json_1_1MemberMissingException.html" target="_top" xlink:title=" ">
<polygon fill="white" stroke="#bfbfbf" points="646,-174 481,-174 481,-144 646,-144 646,-174"/>
<text text-anchor="start" x="489" y="-162" font-family="Helvetica,sans-Serif" font-size="10.00">formats::json::MemberMissing</text>
<text text-anchor="middle" x="563.5" y="-151" font-family="Helvetica,sans-Serif" font-size="10.00">Exception</text>
</a>
</g>
</g>
<!-- Node1&#45;&gt;Node5 -->
<g id="edge4_Node000001_Node000005" class="edge">
<title>Node1&#45;&gt;Node5</title>
<g id="a_edge4_Node000001_Node000005"><a xlink:title=" ">
<path fill="none" stroke="#63b8ff" d="M434.54,-128.44C455.88,-133.54 479.02,-139.07 499.68,-144"/>
<polygon fill="#63b8ff" stroke="#63b8ff" points="435.09,-124.97 424.55,-126.06 433.46,-131.78 435.09,-124.97"/>
</a>
</g>
</g>
<!-- Node6 -->
<g id="Node000006" class="node">
<title>Node6</title>
<g id="a_Node000006"><a xlink:href="../../de/d4c/classformats_1_1json_1_1OutOfBoundsException.html" target="_top" xlink:title=" ">
<polygon fill="white" stroke="#bfbfbf" points="639.5,-126 487.5,-126 487.5,-96 639.5,-96 639.5,-126"/>
<text text-anchor="start" x="495.5" y="-114" font-family="Helvetica,sans-Serif" font-size="10.00">formats::json::OutOfBounds</text>
<text text-anchor="middle" x="563.5" y="-103" font-family="Helvetica,sans-Serif" font-size="10.00">Exception</text>
</a>
</g>
</g>
<!-- Node1&#45;&gt;Node6 -->
<g id="edge5_Node000001_Node000006" class="edge">
<title>Node1&#45;&gt;Node6</title>
<g id="a_edge5_Node000001_Node000006"><a xlink:title=" ">
<path fill="none" stroke="#63b8ff" d="M438.53,-111C454.55,-111 471.41,-111 487.35,-111"/>
<polygon fill="#63b8ff" stroke="#63b8ff" points="438.15,-107.5 428.15,-111 438.15,-114.5 438.15,-107.5"/>
</a>
</g>
</g>
<!-- Node7 -->
<g id="Node000007" class="node">
<title>Node7</title>
<g id="a_Node000007"><a xlink:href="../../db/da0/classformats_1_1json_1_1TypeMismatchException.html" target="_top" xlink:title=" ">
<polygon fill="white" stroke="#bfbfbf" points="642.5,-78 484.5,-78 484.5,-48 642.5,-48 642.5,-78"/>
<text text-anchor="start" x="492.5" y="-66" font-family="Helvetica,sans-Serif" font-size="10.00">formats::json::TypeMismatch</text>
<text text-anchor="middle" x="563.5" y="-55" font-family="Helvetica,sans-Serif" font-size="10.00">Exception</text>
</a>
</g>
</g>
<!-- Node1&#45;&gt;Node7 -->
<g id="edge6_Node000001_Node000007" class="edge">
<title>Node1&#45;&gt;Node7</title>
<g id="a_edge6_Node000001_Node000007"><a xlink:title=" ">
<path fill="none" stroke="#63b8ff" d="M434.54,-93.56C455.88,-88.46 479.02,-82.93 499.68,-78"/>
<polygon fill="#63b8ff" stroke="#63b8ff" points="433.46,-90.22 424.55,-95.94 435.09,-97.03 433.46,-90.22"/>
</a>
</g>
</g>
<!-- Node8 -->
<g id="Node000008" class="node">
<title>Node8</title>
<g id="a_Node000008"><a xlink:href="../../dc/da0/classformats_1_1json_1_1UnknownDiscriminatorException.html" target="_top" xlink:title=" ">
<polygon fill="white" stroke="#bfbfbf" points="663,-30 464,-30 464,0 663,0 663,-30"/>
<text text-anchor="start" x="472" y="-18" font-family="Helvetica,sans-Serif" font-size="10.00">formats::json::UnknownDiscriminator</text>
<text text-anchor="middle" x="563.5" y="-7" font-family="Helvetica,sans-Serif" font-size="10.00">Exception</text>
</a>
</g>
</g>
<!-- Node1&#45;&gt;Node8 -->
<g id="edge7_Node000001_Node000008" class="edge">
<title>Node1&#45;&gt;Node8</title>
<g id="a_edge7_Node000001_Node000008"><a xlink:title=" ">
<path fill="none" stroke="#63b8ff" d="M386.66,-89.27C406.46,-73.21 435.41,-51.96 464,-39 471.53,-35.58 479.62,-32.61 487.81,-30.04"/>
<polygon fill="#63b8ff" stroke="#63b8ff" points="384.24,-86.72 378.76,-95.79 388.7,-92.12 384.24,-86.72"/>
</a>
</g>
</g>
<!-- Node2 -->
<g id="Node000002" class="node">
<title>Node2</title>
<g id="a_Node000002"><a xlink:href="../../d4/d84/classformats_1_1json_1_1Exception.html" target="_top" xlink:title=" ">
<polygon fill="white" stroke="#bfbfbf" points="257,-120.5 122,-120.5 122,-101.5 257,-101.5 257,-120.5"/>
<text text-anchor="middle" x="189.5" y="-108.5" font-family="Helvetica,sans-Serif" font-size="10.00">formats::json::Exception</text>
</a>
</g>
</g>
<!-- Node2&#45;&gt;Node1 -->
<g id="edge1_Node000001_Node000002" class="edge">
<title>Node2&#45;&gt;Node1</title>
<g id="a_edge1_Node000001_Node000002"><a xlink:title=" ">
<path fill="none" stroke="#63b8ff" d="M267.55,-111C276.02,-111 284.59,-111 292.92,-111"/>
<polygon fill="#63b8ff" stroke="#63b8ff" points="267.29,-107.5 257.29,-111 267.29,-114.5 267.29,-107.5"/>
</a>
</g>
</g>
<!-- Node3 -->
<g id="Node000003" class="node">
<title>Node3</title>
<g id="a_Node000003"><a xlink:title=" ">
<polygon fill="white" stroke="#666666" points="86,-120.5 0,-120.5 0,-101.5 86,-101.5 86,-120.5"/>
<text text-anchor="middle" x="43" y="-108.5" font-family="Helvetica,sans-Serif" font-size="10.00">std::exception</text>
</a>
</g>
</g>
<!-- Node3&#45;&gt;Node2 -->
<g id="edge2_Node000002_Node000003" class="edge">
<title>Node3&#45;&gt;Node2</title>
<g id="a_edge2_Node000002_Node000003"><a xlink:title=" ">
<path fill="none" stroke="#63b8ff" d="M96.4,-111C104.65,-111 113.27,-111 121.79,-111"/>
<polygon fill="#63b8ff" stroke="#63b8ff" points="96.18,-107.5 86.18,-111 96.18,-114.5 96.18,-107.5"/>
</a>
</g>
</g>
</g>
</svg>
