<?xml version="1.0" encoding="UTF-8" standalone="no"?>
<!DOCTYPE svg PUBLIC "-//W3C//DTD SVG 1.1//EN"
 "http://www.w3.org/Graphics/SVG/1.1/DTD/svg11.dtd">
<!-- Generated by graphviz version 2.43.0 (0)
 -->
<!-- Title: userver/engine/shared_mutex.hpp Pages: 1 -->
<svg width="2313pt" height="379pt"
 viewBox="0.00 0.00 2312.62 379.00" xmlns="http://www.w3.org/2000/svg" xmlns:xlink="http://www.w3.org/1999/xlink">
<g id="graph0" class="graph" transform="scale(1 1) rotate(0) translate(4 375)">
<title>userver/engine/shared_mutex.hpp</title>
<!-- Node1 -->
<g id="Node000001" class="node">
<title>Node1</title>
<g id="a_Node000001"><a xlink:title="std::shared_mutex replacement for asynchronous tasks.">
<polygon fill="#999999" stroke="#666666" points="993.12,-371 868.12,-371 868.12,-341 993.12,-341 993.12,-371"/>
<text text-anchor="start" x="876.12" y="-359" font-family="Helvetica,sans-Serif" font-size="10.00">userver/engine/shared</text>
<text text-anchor="middle" x="930.62" y="-348" font-family="Helvetica,sans-Serif" font-size="10.00">_mutex.hpp</text>
</a>
</g>
</g>
<!-- Node2 -->
<g id="Node000002" class="node">
<title>Node2</title>
<g id="a_Node000002"><a xlink:href="../../d8/dc6/grpc_2include_2userver_2ugrpc_2impl_2statistics__storage_8hpp_source.html" target="_top" xlink:title=" ">
<polygon fill="white" stroke="#666666" points="610.12,-305 483.12,-305 483.12,-275 610.12,-275 610.12,-305"/>
<text text-anchor="start" x="491.12" y="-293" font-family="Helvetica,sans-Serif" font-size="10.00">userver/ugrpc/impl</text>
<text text-anchor="middle" x="546.62" y="-282" font-family="Helvetica,sans-Serif" font-size="10.00">/statistics_storage.hpp</text>
</a>
</g>
</g>
<!-- Node1&#45;&gt;Node2 -->
<g id="edge1_Node000001_Node000002" class="edge">
<title>Node1&#45;&gt;Node2</title>
<g id="a_edge1_Node000001_Node000002"><a xlink:title=" ">
<path fill="none" stroke="#63b8ff" d="M857.8,-342.86C786.38,-330.96 678.57,-312.99 610.42,-301.63"/>
<polygon fill="#63b8ff" stroke="#63b8ff" points="857.63,-346.38 868.07,-344.57 858.78,-339.48 857.63,-346.38"/>
</a>
</g>
</g>
<!-- Node14 -->
<g id="Node000014" class="node">
<title>Node14</title>
<g id="a_Node000014"><a xlink:href="../../d4/d9a/utils_2statistics_2storage_8hpp.html" target="_top" xlink:title=" ">
<polygon fill="white" stroke="#666666" points="1449.12,-305 1324.12,-305 1324.12,-275 1449.12,-275 1449.12,-305"/>
<text text-anchor="start" x="1332.12" y="-293" font-family="Helvetica,sans-Serif" font-size="10.00">userver/utils/statistics</text>
<text text-anchor="middle" x="1386.62" y="-282" font-family="Helvetica,sans-Serif" font-size="10.00">/storage.hpp</text>
</a>
</g>
</g>
<!-- Node1&#45;&gt;Node14 -->
<g id="edge16_Node000001_Node000014" class="edge">
<title>Node1&#45;&gt;Node14</title>
<g id="a_edge16_Node000001_Node000014"><a xlink:title=" ">
<path fill="none" stroke="#63b8ff" d="M1003.52,-344.77C1092.16,-332.33 1240.25,-311.54 1323.97,-299.79"/>
<polygon fill="#63b8ff" stroke="#63b8ff" points="1002.96,-341.31 993.54,-346.17 1003.93,-348.24 1002.96,-341.31"/>
</a>
</g>
</g>
<!-- Node3 -->
<g id="Node000003" class="node">
<title>Node3</title>
<g id="a_Node000003"><a xlink:href="../../d0/d98/client__factory_8hpp.html" target="_top" xlink:title="Creates generated gRPC clients. Has a minimal built&#45;in channel cache: as long as a channel to the sam...">
<polygon fill="white" stroke="#666666" points="603.12,-239 490.12,-239 490.12,-209 603.12,-209 603.12,-239"/>
<text text-anchor="start" x="498.12" y="-227" font-family="Helvetica,sans-Serif" font-size="10.00">userver/ugrpc/client</text>
<text text-anchor="middle" x="546.62" y="-216" font-family="Helvetica,sans-Serif" font-size="10.00">/client_factory.hpp</text>
</a>
</g>
</g>
<!-- Node2&#45;&gt;Node3 -->
<g id="edge2_Node000002_Node000003" class="edge">
<title>Node2&#45;&gt;Node3</title>
<g id="a_edge2_Node000002_Node000003"><a xlink:title=" ">
<path fill="none" stroke="#63b8ff" d="M546.62,-264.54C546.62,-255.96 546.62,-246.61 546.62,-239.16"/>
<polygon fill="#63b8ff" stroke="#63b8ff" points="543.12,-264.8 546.62,-274.8 550.12,-264.8 543.12,-264.8"/>
</a>
</g>
</g>
<!-- Node6 -->
<g id="Node000006" class="node">
<title>Node6</title>
<g id="a_Node000006"><a xlink:href="../../d9/dfa/service__worker_8hpp_source.html" target="_top" xlink:title=" ">
<polygon fill="white" stroke="#666666" points="446.62,-239 308.62,-239 308.62,-209 446.62,-209 446.62,-239"/>
<text text-anchor="start" x="316.62" y="-227" font-family="Helvetica,sans-Serif" font-size="10.00">userver/ugrpc/server</text>
<text text-anchor="middle" x="377.62" y="-216" font-family="Helvetica,sans-Serif" font-size="10.00">/impl/service_worker.hpp</text>
</a>
</g>
</g>
<!-- Node2&#45;&gt;Node6 -->
<g id="edge5_Node000002_Node000006" class="edge">
<title>Node2&#45;&gt;Node6</title>
<g id="a_edge5_Node000002_Node000006"><a xlink:title=" ">
<path fill="none" stroke="#63b8ff" d="M499.94,-271.32C473.04,-261.14 439.7,-248.51 414.62,-239.01"/>
<polygon fill="#63b8ff" stroke="#63b8ff" points="498.94,-274.69 509.53,-274.95 501.42,-268.14 498.94,-274.69"/>
</a>
</g>
</g>
<!-- Node4 -->
<g id="Node000004" class="node">
<title>Node4</title>
<g id="a_Node000004"><a xlink:href="../../da/dd3/client__factory__component_8hpp.html" target="_top" xlink:title="Provides a ClientFactory in the component system.">
<polygon fill="white" stroke="#666666" points="632.12,-173 465.12,-173 465.12,-143 632.12,-143 632.12,-173"/>
<text text-anchor="start" x="473.12" y="-161" font-family="Helvetica,sans-Serif" font-size="10.00">userver/ugrpc/client</text>
<text text-anchor="middle" x="548.62" y="-150" font-family="Helvetica,sans-Serif" font-size="10.00">/client_factory_component.hpp</text>
</a>
</g>
</g>
<!-- Node3&#45;&gt;Node4 -->
<g id="edge3_Node000003_Node000004" class="edge">
<title>Node3&#45;&gt;Node4</title>
<g id="a_edge3_Node000003_Node000004"><a xlink:title=" ">
<path fill="none" stroke="#63b8ff" d="M547.38,-198.54C547.65,-189.96 547.94,-180.61 548.18,-173.16"/>
<polygon fill="#63b8ff" stroke="#63b8ff" points="543.88,-198.69 547.06,-208.8 550.87,-198.91 543.88,-198.69"/>
</a>
</g>
</g>
<!-- Node5 -->
<g id="Node000005" class="node">
<title>Node5</title>
<g id="a_Node000005"><a xlink:href="../../d8/d98/simple__client__component_8hpp.html" target="_top" xlink:title="Template class for a simple gRPC client.">
<polygon fill="white" stroke="#666666" points="674.62,-101.5 508.62,-101.5 508.62,-71.5 674.62,-71.5 674.62,-101.5"/>
<text text-anchor="start" x="516.62" y="-89.5" font-family="Helvetica,sans-Serif" font-size="10.00">userver/ugrpc/client</text>
<text text-anchor="middle" x="591.62" y="-78.5" font-family="Helvetica,sans-Serif" font-size="10.00">/simple_client_component.hpp</text>
</a>
</g>
</g>
<!-- Node4&#45;&gt;Node5 -->
<g id="edge4_Node000004_Node000005" class="edge">
<title>Node4&#45;&gt;Node5</title>
<g id="a_edge4_Node000004_Node000005"><a xlink:title=" ">
<path fill="none" stroke="#63b8ff" d="M562.61,-134.38C569.3,-123.57 577.1,-110.96 582.93,-101.54"/>
<polygon fill="#63b8ff" stroke="#63b8ff" points="559.61,-132.59 557.32,-142.94 565.56,-136.27 559.61,-132.59"/>
</a>
</g>
</g>
<!-- Node7 -->
<g id="Node000007" class="node">
<title>Node7</title>
<g id="a_Node000007"><a xlink:href="../../df/d2b/server_2impl_2codegen__declarations_8hpp_source.html" target="_top" xlink:title=" ">
<polygon fill="white" stroke="#666666" points="184.62,-30 12.62,-30 12.62,0 184.62,0 184.62,-30"/>
<text text-anchor="start" x="20.62" y="-18" font-family="Helvetica,sans-Serif" font-size="10.00">userver/ugrpc/server</text>
<text text-anchor="middle" x="98.62" y="-7" font-family="Helvetica,sans-Serif" font-size="10.00">/impl/codegen_declarations.hpp</text>
</a>
</g>
</g>
<!-- Node6&#45;&gt;Node7 -->
<g id="edge6_Node000006_Node000007" class="edge">
<title>Node6&#45;&gt;Node7</title>
<g id="a_edge6_Node000006_Node000007"><a xlink:title=" ">
<path fill="none" stroke="#63b8ff" d="M298.35,-209.38C200.36,-190.74 42.24,-154.14 7.62,-107 -3.17,-92.31 -1.66,-81.68 7.62,-66 17.53,-49.24 35.28,-37.73 52.48,-30.01"/>
<polygon fill="#63b8ff" stroke="#63b8ff" points="297.76,-212.83 308.23,-211.24 299.05,-205.95 297.76,-212.83"/>
</a>
</g>
</g>
<!-- Node8 -->
<g id="Node000008" class="node">
<title>Node8</title>
<g id="a_Node000008"><a xlink:href="../../db/d93/service__worker__impl_8hpp_source.html" target="_top" xlink:title=" ">
<polygon fill="white" stroke="#666666" points="490.62,-107 372.62,-107 372.62,-66 490.62,-66 490.62,-107"/>
<text text-anchor="start" x="380.62" y="-95" font-family="Helvetica,sans-Serif" font-size="10.00">userver/ugrpc/server</text>
<text text-anchor="start" x="380.62" y="-84" font-family="Helvetica,sans-Serif" font-size="10.00">/impl/service_worker</text>
<text text-anchor="middle" x="431.62" y="-73" font-family="Helvetica,sans-Serif" font-size="10.00">_impl.hpp</text>
</a>
</g>
</g>
<!-- Node6&#45;&gt;Node8 -->
<g id="edge7_Node000006_Node000008" class="edge">
<title>Node6&#45;&gt;Node8</title>
<g id="a_edge7_Node000006_Node000008"><a xlink:title=" ">
<path fill="none" stroke="#63b8ff" d="M387.09,-199.24C397.5,-173.11 414.04,-131.6 423.76,-107.21"/>
<polygon fill="#63b8ff" stroke="#63b8ff" points="383.75,-198.17 383.3,-208.76 390.25,-200.76 383.75,-198.17"/>
</a>
</g>
</g>
<!-- Node10 -->
<g id="Node000010" class="node">
<title>Node10</title>
<g id="a_Node000010"><a xlink:href="../../df/da9/service__base_8hpp.html" target="_top" xlink:title="The type&#45;erased base class for all gRPC service implementations.">
<polygon fill="white" stroke="#666666" points="354.12,-173 237.12,-173 237.12,-143 354.12,-143 354.12,-173"/>
<text text-anchor="start" x="245.12" y="-161" font-family="Helvetica,sans-Serif" font-size="10.00">userver/ugrpc/server</text>
<text text-anchor="middle" x="295.62" y="-150" font-family="Helvetica,sans-Serif" font-size="10.00">/service_base.hpp</text>
</a>
</g>
</g>
<!-- Node6&#45;&gt;Node10 -->
<g id="edge9_Node000006_Node000010" class="edge">
<title>Node6&#45;&gt;Node10</title>
<g id="a_edge9_Node000006_Node000010"><a xlink:title=" ">
<path fill="none" stroke="#63b8ff" d="M351.32,-202.48C339.07,-192.91 324.8,-181.77 313.77,-173.16"/>
<polygon fill="#63b8ff" stroke="#63b8ff" points="349.38,-205.4 359.42,-208.8 353.69,-199.88 349.38,-205.4"/>
</a>
</g>
</g>
<!-- Node9 -->
<g id="Node000009" class="node">
<title>Node9</title>
<g id="a_Node000009"><a xlink:href="../../d1/dac/server_2impl_2codegen__definitions_8hpp_source.html" target="_top" xlink:title=" ">
<polygon fill="white" stroke="#666666" points="528.12,-30 365.12,-30 365.12,0 528.12,0 528.12,-30"/>
<text text-anchor="start" x="373.12" y="-18" font-family="Helvetica,sans-Serif" font-size="10.00">userver/ugrpc/server</text>
<text text-anchor="middle" x="446.62" y="-7" font-family="Helvetica,sans-Serif" font-size="10.00">/impl/codegen_definitions.hpp</text>
</a>
</g>
</g>
<!-- Node8&#45;&gt;Node9 -->
<g id="edge8_Node000008_Node000009" class="edge">
<title>Node8&#45;&gt;Node9</title>
<g id="a_edge8_Node000008_Node000009"><a xlink:title=" ">
<path fill="none" stroke="#63b8ff" d="M438,-55.95C439.94,-46.96 441.98,-37.5 443.59,-30.04"/>
<polygon fill="#63b8ff" stroke="#63b8ff" points="434.57,-55.26 435.88,-65.77 441.41,-56.73 434.57,-55.26"/>
</a>
</g>
</g>
<!-- Node10&#45;&gt;Node7 -->
<g id="edge10_Node000010_Node000007" class="edge">
<title>Node10&#45;&gt;Node7</title>
<g id="a_edge10_Node000010_Node000007"><a xlink:title=" ">
<path fill="none" stroke="#63b8ff" d="M265.77,-136.91C253.54,-128.21 239.49,-117.6 227.62,-107 209.08,-90.46 209.2,-81.29 189.62,-66 171.29,-51.69 148.33,-39.11 130.05,-30.14"/>
<polygon fill="#63b8ff" stroke="#63b8ff" points="264.1,-140.01 274.3,-142.88 268.11,-134.28 264.1,-140.01"/>
</a>
</g>
</g>
<!-- Node10&#45;&gt;Node8 -->
<g id="edge11_Node000010_Node000008" class="edge">
<title>Node10&#45;&gt;Node8</title>
<g id="a_edge11_Node000010_Node000008"><a xlink:title=" ">
<path fill="none" stroke="#63b8ff" d="M332.06,-138.38C350.99,-128.7 374.12,-116.88 393.32,-107.07"/>
<polygon fill="#63b8ff" stroke="#63b8ff" points="330.45,-135.27 323.14,-142.94 333.64,-141.5 330.45,-135.27"/>
</a>
</g>
</g>
<!-- Node11 -->
<g id="Node000011" class="node">
<title>Node11</title>
<g id="a_Node000011"><a xlink:href="../../d4/d79/grpc_2include_2userver_2ugrpc_2server_2server_8hpp.html" target="_top" xlink:title="Manages the gRPC server.">
<polygon fill="white" stroke="#666666" points="354.12,-101.5 237.12,-101.5 237.12,-71.5 354.12,-71.5 354.12,-101.5"/>
<text text-anchor="start" x="245.12" y="-89.5" font-family="Helvetica,sans-Serif" font-size="10.00">userver/ugrpc/server</text>
<text text-anchor="middle" x="295.62" y="-78.5" font-family="Helvetica,sans-Serif" font-size="10.00">/server.hpp</text>
</a>
</g>
</g>
<!-- Node10&#45;&gt;Node11 -->
<g id="edge12_Node000010_Node000011" class="edge">
<title>Node10&#45;&gt;Node11</title>
<g id="a_edge12_Node000010_Node000011"><a xlink:title=" ">
<path fill="none" stroke="#63b8ff" d="M295.62,-132.75C295.62,-122.31 295.62,-110.49 295.62,-101.54"/>
<polygon fill="#63b8ff" stroke="#63b8ff" points="292.12,-132.94 295.62,-142.94 299.12,-132.94 292.12,-132.94"/>
</a>
</g>
</g>
<!-- Node13 -->
<g id="Node000013" class="node">
<title>Node13</title>
<g id="a_Node000013"><a xlink:href="../../d1/d68/service__component__base_8hpp.html" target="_top" xlink:title="Base class for all the gRPC service components.">
<polygon fill="white" stroke="#666666" points="180.62,-101.5 16.62,-101.5 16.62,-71.5 180.62,-71.5 180.62,-101.5"/>
<text text-anchor="start" x="24.62" y="-89.5" font-family="Helvetica,sans-Serif" font-size="10.00">userver/ugrpc/server</text>
<text text-anchor="middle" x="98.62" y="-78.5" font-family="Helvetica,sans-Serif" font-size="10.00">/service_component_base.hpp</text>
</a>
</g>
</g>
<!-- Node10&#45;&gt;Node13 -->
<g id="edge14_Node000010_Node000013" class="edge">
<title>Node10&#45;&gt;Node13</title>
<g id="a_edge14_Node000010_Node000013"><a xlink:title=" ">
<path fill="none" stroke="#63b8ff" d="M246.2,-139.57C212.89,-127.81 169.52,-112.51 138.43,-101.54"/>
<polygon fill="#63b8ff" stroke="#63b8ff" points="245.16,-142.91 255.75,-142.94 247.49,-136.31 245.16,-142.91"/>
</a>
</g>
</g>
<!-- Node12 -->
<g id="Node000012" class="node">
<title>Node12</title>
<g id="a_Node000012"><a xlink:href="../../db/d7e/server__component_8hpp.html" target="_top" xlink:title="Component that configures and manages the gRPC server.">
<polygon fill="white" stroke="#666666" points="347.12,-30 216.12,-30 216.12,0 347.12,0 347.12,-30"/>
<text text-anchor="start" x="224.12" y="-18" font-family="Helvetica,sans-Serif" font-size="10.00">userver/ugrpc/server</text>
<text text-anchor="middle" x="281.62" y="-7" font-family="Helvetica,sans-Serif" font-size="10.00">/server_component.hpp</text>
</a>
</g>
</g>
<!-- Node11&#45;&gt;Node12 -->
<g id="edge13_Node000011_Node000012" class="edge">
<title>Node11&#45;&gt;Node12</title>
<g id="a_edge13_Node000011_Node000012"><a xlink:title=" ">
<path fill="none" stroke="#63b8ff" d="M290.8,-61.58C288.68,-51.06 286.27,-39.08 284.45,-30.04"/>
<polygon fill="#63b8ff" stroke="#63b8ff" points="287.38,-62.32 292.79,-71.44 294.24,-60.94 287.38,-62.32"/>
</a>
</g>
</g>
<!-- Node13&#45;&gt;Node7 -->
<g id="edge15_Node000013_Node000007" class="edge">
<title>Node13&#45;&gt;Node7</title>
<g id="a_edge15_Node000013_Node000007"><a xlink:title=" ">
<path fill="none" stroke="#63b8ff" d="M98.62,-61.25C98.62,-50.81 98.62,-38.99 98.62,-30.04"/>
<polygon fill="#63b8ff" stroke="#63b8ff" points="95.12,-61.44 98.62,-71.44 102.12,-61.44 95.12,-61.44"/>
</a>
</g>
</g>
<!-- Node15 -->
<g id="Node000015" class="node">
<title>Node15</title>
<g id="a_Node000015"><a xlink:href="../../d6/d3a/core_2include_2userver_2components_2statistics__storage_8hpp.html" target="_top" xlink:title="Component that keeps a utils::statistics::Storage storage for metrics.">
<polygon fill="white" stroke="#666666" points="2123.12,-239 1996.12,-239 1996.12,-209 2123.12,-209 2123.12,-239"/>
<text text-anchor="start" x="2004.12" y="-227" font-family="Helvetica,sans-Serif" font-size="10.00">userver/components</text>
<text text-anchor="middle" x="2059.62" y="-216" font-family="Helvetica,sans-Serif" font-size="10.00">/statistics_storage.hpp</text>
</a>
</g>
</g>
<!-- Node14&#45;&gt;Node15 -->
<g id="edge17_Node000014_Node000015" class="edge">
<title>Node14&#45;&gt;Node15</title>
<g id="a_edge17_Node000014_Node000015"><a xlink:title=" ">
<path fill="none" stroke="#63b8ff" d="M1459.44,-285.51C1572.77,-279.5 1798.04,-265.24 1987.62,-239 1990.39,-238.62 1993.22,-238.19 1996.08,-237.74"/>
<polygon fill="#63b8ff" stroke="#63b8ff" points="1458.96,-282.03 1449.16,-286.05 1459.33,-289.02 1458.96,-282.03"/>
</a>
</g>
</g>
<!-- Node16 -->
<g id="Node000016" class="node">
<title>Node16</title>
<g id="a_Node000016"><a xlink:href="../../d2/d2e/clickhouse_2include_2userver_2storages_2clickhouse_2component_8hpp.html" target="_top" xlink:title="ClickHouse client component.">
<polygon fill="white" stroke="#666666" points="2294.12,-239 2141.12,-239 2141.12,-209 2294.12,-209 2294.12,-239"/>
<text text-anchor="start" x="2149.12" y="-227" font-family="Helvetica,sans-Serif" font-size="10.00">userver/storages/clickhouse</text>
<text text-anchor="middle" x="2217.62" y="-216" font-family="Helvetica,sans-Serif" font-size="10.00">/component.hpp</text>
</a>
</g>
</g>
<!-- Node14&#45;&gt;Node16 -->
<g id="edge18_Node000014_Node000016" class="edge">
<title>Node14&#45;&gt;Node16</title>
<g id="a_edge18_Node000014_Node000016"><a xlink:title=" ">
<path fill="none" stroke="#63b8ff" d="M1459.31,-286.45C1592.96,-281.26 1886.62,-267.44 2132.62,-239 2135.29,-238.69 2138.01,-238.36 2140.75,-238"/>
<polygon fill="#63b8ff" stroke="#63b8ff" points="1459.05,-282.96 1449.19,-286.84 1459.32,-289.96 1459.05,-282.96"/>
</a>
</g>
</g>
<!-- Node18 -->
<g id="Node000018" class="node">
<title>Node18</title>
<g id="a_Node000018"><a xlink:href="../../d5/df6/rabbitmq_2include_2userver_2urabbitmq_2component_8hpp.html" target="_top" xlink:title="RabbitMQ (AMQP 0.9.1) client component.">
<polygon fill="white" stroke="#666666" points="806.12,-233.5 621.12,-233.5 621.12,-214.5 806.12,-214.5 806.12,-233.5"/>
<text text-anchor="middle" x="713.62" y="-221.5" font-family="Helvetica,sans-Serif" font-size="10.00">userver/urabbitmq/component.hpp</text>
</a>
</g>
</g>
<!-- Node14&#45;&gt;Node18 -->
<g id="edge20_Node000014_Node000018" class="edge">
<title>Node14&#45;&gt;Node18</title>
<g id="a_edge20_Node000014_Node000018"><a xlink:title=" ">
<path fill="none" stroke="#63b8ff" d="M1313.67,-283.81C1204.84,-275.8 993.58,-259.21 814.62,-239 800.63,-237.42 785.59,-235.47 771.5,-233.54"/>
<polygon fill="#63b8ff" stroke="#63b8ff" points="1313.65,-287.32 1323.88,-284.56 1314.16,-280.34 1313.65,-287.32"/>
</a>
</g>
</g>
<!-- Node20 -->
<g id="Node000020" class="node">
<title>Node20</title>
<g id="a_Node000020"><a xlink:href="../../dd/da6/statistics_2graphite_8hpp.html" target="_top" xlink:title="Statistics output in Graphite format.">
<polygon fill="white" stroke="#666666" points="949.12,-239 824.12,-239 824.12,-209 949.12,-209 949.12,-239"/>
<text text-anchor="start" x="832.12" y="-227" font-family="Helvetica,sans-Serif" font-size="10.00">userver/utils/statistics</text>
<text text-anchor="middle" x="886.62" y="-216" font-family="Helvetica,sans-Serif" font-size="10.00">/graphite.hpp</text>
</a>
</g>
</g>
<!-- Node14&#45;&gt;Node20 -->
<g id="edge22_Node000014_Node000020" class="edge">
<title>Node14&#45;&gt;Node20</title>
<g id="a_edge22_Node000014_Node000020"><a xlink:title=" ">
<path fill="none" stroke="#63b8ff" d="M1313.94,-282.2C1228.61,-273.83 1082.93,-258.32 958.62,-239 955.6,-238.53 952.51,-238.03 949.4,-237.5"/>
<polygon fill="#63b8ff" stroke="#63b8ff" points="1313.75,-285.7 1324.04,-283.19 1314.43,-278.73 1313.75,-285.7"/>
</a>
</g>
</g>
<!-- Node21 -->
<g id="Node000021" class="node">
<title>Node21</title>
<g id="a_Node000021"><a xlink:href="../../d1/dc7/core_2include_2userver_2utils_2statistics_2json_8hpp.html" target="_top" xlink:title="Statistics output in JSON format.">
<polygon fill="white" stroke="#666666" points="1092.12,-239 967.12,-239 967.12,-209 1092.12,-209 1092.12,-239"/>
<text text-anchor="start" x="975.12" y="-227" font-family="Helvetica,sans-Serif" font-size="10.00">userver/utils/statistics</text>
<text text-anchor="middle" x="1029.62" y="-216" font-family="Helvetica,sans-Serif" font-size="10.00">/json.hpp</text>
</a>
</g>
</g>
<!-- Node14&#45;&gt;Node21 -->
<g id="edge23_Node000014_Node000021" class="edge">
<title>Node14&#45;&gt;Node21</title>
<g id="a_edge23_Node000014_Node000021"><a xlink:title=" ">
<path fill="none" stroke="#63b8ff" d="M1313.91,-276.62C1256.28,-266.72 1173.73,-252.34 1101.62,-239 1098.61,-238.44 1095.54,-237.87 1092.43,-237.28"/>
<polygon fill="#63b8ff" stroke="#63b8ff" points="1313.56,-280.11 1324.01,-278.36 1314.75,-273.22 1313.56,-280.11"/>
</a>
</g>
</g>
<!-- Node22 -->
<g id="Node000022" class="node">
<title>Node22</title>
<g id="a_Node000022"><a xlink:href="../../d7/d98/portability__info_8hpp.html" target="_top" xlink:title="Portability reports.">
<polygon fill="white" stroke="#666666" points="1235.12,-239 1110.12,-239 1110.12,-209 1235.12,-209 1235.12,-239"/>
<text text-anchor="start" x="1118.12" y="-227" font-family="Helvetica,sans-Serif" font-size="10.00">userver/utils/statistics</text>
<text text-anchor="middle" x="1172.62" y="-216" font-family="Helvetica,sans-Serif" font-size="10.00">/portability_info.hpp</text>
</a>
</g>
</g>
<!-- Node14&#45;&gt;Node22 -->
<g id="edge24_Node000014_Node000022" class="edge">
<title>Node14&#45;&gt;Node22</title>
<g id="a_edge24_Node000014_Node000022"><a xlink:title=" ">
<path fill="none" stroke="#63b8ff" d="M1329.74,-271.99C1295.3,-261.69 1251.92,-248.72 1219.47,-239.01"/>
<polygon fill="#63b8ff" stroke="#63b8ff" points="1329.07,-275.44 1339.66,-274.95 1331.08,-268.74 1329.07,-275.44"/>
</a>
</g>
</g>
<!-- Node23 -->
<g id="Node000023" class="node">
<title>Node23</title>
<g id="a_Node000023"><a xlink:href="../../d0/d09/pretty__format_8hpp.html" target="_top" xlink:title="Statistics output in human&#45;readable format.">
<polygon fill="white" stroke="#666666" points="1378.12,-239 1253.12,-239 1253.12,-209 1378.12,-209 1378.12,-239"/>
<text text-anchor="start" x="1261.12" y="-227" font-family="Helvetica,sans-Serif" font-size="10.00">userver/utils/statistics</text>
<text text-anchor="middle" x="1315.62" y="-216" font-family="Helvetica,sans-Serif" font-size="10.00">/pretty_format.hpp</text>
</a>
</g>
</g>
<!-- Node14&#45;&gt;Node23 -->
<g id="edge25_Node000014_Node000023" class="edge">
<title>Node14&#45;&gt;Node23</title>
<g id="a_edge25_Node000014_Node000023"><a xlink:title=" ">
<path fill="none" stroke="#63b8ff" d="M1363.24,-267.92C1352.77,-258.49 1340.7,-247.61 1331.33,-239.16"/>
<polygon fill="#63b8ff" stroke="#63b8ff" points="1361.09,-270.7 1370.86,-274.8 1365.78,-265.5 1361.09,-270.7"/>
</a>
</g>
</g>
<!-- Node24 -->
<g id="Node000024" class="node">
<title>Node24</title>
<g id="a_Node000024"><a xlink:href="../../da/d92/prometheus_8hpp.html" target="_top" xlink:title="Statistics output in Prometheus format.">
<polygon fill="white" stroke="#666666" points="1521.12,-239 1396.12,-239 1396.12,-209 1521.12,-209 1521.12,-239"/>
<text text-anchor="start" x="1404.12" y="-227" font-family="Helvetica,sans-Serif" font-size="10.00">userver/utils/statistics</text>
<text text-anchor="middle" x="1458.62" y="-216" font-family="Helvetica,sans-Serif" font-size="10.00">/prometheus.hpp</text>
</a>
</g>
</g>
<!-- Node14&#45;&gt;Node24 -->
<g id="edge26_Node000014_Node000024" class="edge">
<title>Node14&#45;&gt;Node24</title>
<g id="a_edge26_Node000014_Node000024"><a xlink:title=" ">
<path fill="none" stroke="#63b8ff" d="M1410.33,-267.92C1420.95,-258.49 1433.18,-247.61 1442.68,-239.16"/>
<polygon fill="#63b8ff" stroke="#63b8ff" points="1407.75,-265.54 1402.6,-274.8 1412.4,-270.77 1407.75,-265.54"/>
</a>
</g>
</g>
<!-- Node25 -->
<g id="Node000025" class="node">
<title>Node25</title>
<g id="a_Node000025"><a xlink:href="../../d4/d70/solomon_8hpp.html" target="_top" xlink:title="Statistics output in Solomon format.">
<polygon fill="white" stroke="#666666" points="1664.12,-239 1539.12,-239 1539.12,-209 1664.12,-209 1664.12,-239"/>
<text text-anchor="start" x="1547.12" y="-227" font-family="Helvetica,sans-Serif" font-size="10.00">userver/utils/statistics</text>
<text text-anchor="middle" x="1601.62" y="-216" font-family="Helvetica,sans-Serif" font-size="10.00">/solomon.hpp</text>
</a>
</g>
</g>
<!-- Node14&#45;&gt;Node25 -->
<g id="edge27_Node000014_Node000025" class="edge">
<title>Node14&#45;&gt;Node25</title>
<g id="a_edge27_Node000014_Node000025"><a xlink:title=" ">
<path fill="none" stroke="#63b8ff" d="M1443.76,-271.99C1478.36,-261.69 1521.94,-248.72 1554.55,-239.01"/>
<polygon fill="#63b8ff" stroke="#63b8ff" points="1442.39,-268.75 1433.8,-274.95 1444.38,-275.46 1442.39,-268.75"/>
</a>
</g>
</g>
<!-- Node26 -->
<g id="Node000026" class="node">
<title>Node26</title>
<g id="a_Node000026"><a xlink:href="../../d2/da2/testing_8hpp_source.html" target="_top" xlink:title=" ">
<polygon fill="white" stroke="#666666" points="1807.12,-239 1682.12,-239 1682.12,-209 1807.12,-209 1807.12,-239"/>
<text text-anchor="start" x="1690.12" y="-227" font-family="Helvetica,sans-Serif" font-size="10.00">userver/utils/statistics</text>
<text text-anchor="middle" x="1744.62" y="-216" font-family="Helvetica,sans-Serif" font-size="10.00">/testing.hpp</text>
</a>
</g>
</g>
<!-- Node14&#45;&gt;Node26 -->
<g id="edge28_Node000014_Node000026" class="edge">
<title>Node14&#45;&gt;Node26</title>
<g id="a_edge28_Node000014_Node000026"><a xlink:title=" ">
<path fill="none" stroke="#63b8ff" d="M1459.57,-276.75C1517.63,-266.89 1600.91,-252.5 1673.62,-239 1676.34,-238.5 1679.11,-237.97 1681.91,-237.44"/>
<polygon fill="#63b8ff" stroke="#63b8ff" points="1458.67,-273.35 1449.4,-278.48 1459.84,-280.25 1458.67,-273.35"/>
</a>
</g>
</g>
<!-- Node27 -->
<g id="Node000027" class="node">
<title>Node27</title>
<g id="a_Node000027"><a xlink:href="../../d1/d84/ydb_2include_2userver_2ydb_2component_8hpp.html" target="_top" xlink:title="YDB client component.">
<polygon fill="white" stroke="#666666" points="1978.12,-233.5 1825.12,-233.5 1825.12,-214.5 1978.12,-214.5 1978.12,-233.5"/>
<text text-anchor="middle" x="1901.62" y="-221.5" font-family="Helvetica,sans-Serif" font-size="10.00">userver/ydb/component.hpp</text>
</a>
</g>
</g>
<!-- Node14&#45;&gt;Node27 -->
<g id="edge29_Node000014_Node000027" class="edge">
<title>Node14&#45;&gt;Node27</title>
<g id="a_edge29_Node000014_Node000027"><a xlink:title=" ">
<path fill="none" stroke="#63b8ff" d="M1459.54,-281.59C1545.19,-272.63 1691.46,-256.57 1816.62,-239 1828.17,-237.38 1840.57,-235.44 1852.24,-233.54"/>
<polygon fill="#63b8ff" stroke="#63b8ff" points="1458.99,-278.13 1449.4,-282.64 1459.71,-285.09 1458.99,-278.13"/>
</a>
</g>
</g>
<!-- Node17 -->
<g id="Node000017" class="node">
<title>Node17</title>
<g id="a_Node000017"><a xlink:href="../../d7/d29/clickhouse_8hpp.html" target="_top" xlink:title=" ">
<polygon fill="white" stroke="#666666" points="2304.62,-167.5 2130.62,-167.5 2130.62,-148.5 2304.62,-148.5 2304.62,-167.5"/>
<text text-anchor="middle" x="2217.62" y="-155.5" font-family="Helvetica,sans-Serif" font-size="10.00">userver/storages/clickhouse.hpp</text>
</a>
</g>
</g>
<!-- Node16&#45;&gt;Node17 -->
<g id="edge19_Node000016_Node000017" class="edge">
<title>Node16&#45;&gt;Node17</title>
<g id="a_edge19_Node000016_Node000017"><a xlink:title=" ">
<path fill="none" stroke="#63b8ff" d="M2217.62,-198.6C2217.62,-187.8 2217.62,-175.78 2217.62,-167.84"/>
<polygon fill="#63b8ff" stroke="#63b8ff" points="2214.12,-198.8 2217.62,-208.8 2221.12,-198.8 2214.12,-198.8"/>
</a>
</g>
</g>
<!-- Node19 -->
<g id="Node000019" class="node">
<title>Node19</title>
<g id="a_Node000019"><a xlink:href="../../d7/de4/rabbitmq_8hpp.html" target="_top" xlink:title=" ">
<polygon fill="white" stroke="#666666" points="774.62,-167.5 652.62,-167.5 652.62,-148.5 774.62,-148.5 774.62,-167.5"/>
<text text-anchor="middle" x="713.62" y="-155.5" font-family="Helvetica,sans-Serif" font-size="10.00">userver/rabbitmq.hpp</text>
</a>
</g>
</g>
<!-- Node18&#45;&gt;Node19 -->
<g id="edge21_Node000018_Node000019" class="edge">
<title>Node18&#45;&gt;Node19</title>
<g id="a_edge21_Node000018_Node000019"><a xlink:title=" ">
<path fill="none" stroke="#63b8ff" d="M713.62,-204.08C713.62,-192.13 713.62,-177.22 713.62,-167.91"/>
<polygon fill="#63b8ff" stroke="#63b8ff" points="710.12,-204.37 713.62,-214.37 717.12,-204.37 710.12,-204.37"/>
</a>
</g>
</g>
</g>
</svg>
