<?xml version="1.0" encoding="UTF-8" standalone="no"?>
<!DOCTYPE svg PUBLIC "-//W3C//DTD SVG 1.1//EN"
 "http://www.w3.org/Graphics/SVG/1.1/DTD/svg11.dtd">
<!-- Generated by graphviz version 2.43.0 (0)
 -->
<!-- Title: userver/cache/cache_statistics.hpp Pages: 1 -->
<svg width="815pt" height="236pt"
 viewBox="0.00 0.00 815.00 236.00" xmlns="http://www.w3.org/2000/svg" xmlns:xlink="http://www.w3.org/1999/xlink">
<g id="graph0" class="graph" transform="scale(1 1) rotate(0) translate(4 232)">
<title>userver/cache/cache_statistics.hpp</title>
<!-- Node1 -->
<g id="Node000001" class="node">
<title>Node1</title>
<g id="a_Node000001"><a xlink:title="Statistics collection for components::CachingComponentBase.">
<polygon fill="#999999" stroke="#666666" points="484.5,-228 368.5,-228 368.5,-198 484.5,-198 484.5,-228"/>
<text text-anchor="start" x="376.5" y="-216" font-family="Helvetica,sans-Serif" font-size="10.00">userver/cache/cache</text>
<text text-anchor="middle" x="426.5" y="-205" font-family="Helvetica,sans-Serif" font-size="10.00">_statistics.hpp</text>
</a>
</g>
</g>
<!-- Node2 -->
<g id="Node000002" class="node">
<title>Node2</title>
<g id="a_Node000002"><a xlink:title=" ">
<polygon fill="#e0e0e0" stroke="#999999" points="486.5,-90.5 436.5,-90.5 436.5,-71.5 486.5,-71.5 486.5,-90.5"/>
<text text-anchor="middle" x="461.5" y="-78.5" font-family="Helvetica,sans-Serif" font-size="10.00">atomic</text>
</a>
</g>
</g>
<!-- Node1&#45;&gt;Node2 -->
<g id="edge1_Node000001_Node000002" class="edge">
<title>Node1&#45;&gt;Node2</title>
<g id="a_edge1_Node000001_Node000002"><a xlink:title=" ">
<path fill="none" stroke="#63b8ff" d="M429.54,-197.75C433.04,-181.69 439.15,-154.83 445.5,-132 448.45,-121.41 452.17,-109.7 455.28,-100.28"/>
<polygon fill="#63b8ff" stroke="#63b8ff" points="458.6,-101.38 458.46,-90.79 451.96,-99.16 458.6,-101.38"/>
</a>
</g>
</g>
<!-- Node3 -->
<g id="Node000003" class="node">
<title>Node3</title>
<g id="a_Node000003"><a xlink:title=" ">
<polygon fill="#e0e0e0" stroke="#999999" points="326.5,-156.5 276.5,-156.5 276.5,-137.5 326.5,-137.5 326.5,-156.5"/>
<text text-anchor="middle" x="301.5" y="-144.5" font-family="Helvetica,sans-Serif" font-size="10.00">chrono</text>
</a>
</g>
</g>
<!-- Node1&#45;&gt;Node3 -->
<g id="edge2_Node000001_Node000003" class="edge">
<title>Node1&#45;&gt;Node3</title>
<g id="a_edge2_Node000001_Node000003"><a xlink:title=" ">
<path fill="none" stroke="#63b8ff" d="M399.07,-197.95C377.63,-186.98 348.05,-171.83 327.1,-161.11"/>
<polygon fill="#63b8ff" stroke="#63b8ff" points="328.63,-157.96 318.14,-156.52 325.44,-164.19 328.63,-157.96"/>
</a>
</g>
</g>
<!-- Node4 -->
<g id="Node000004" class="node">
<title>Node4</title>
<g id="a_Node000004"><a xlink:title=" ">
<polygon fill="#e0e0e0" stroke="#999999" points="398,-156.5 345,-156.5 345,-137.5 398,-137.5 398,-156.5"/>
<text text-anchor="middle" x="371.5" y="-144.5" font-family="Helvetica,sans-Serif" font-size="10.00">cstddef</text>
</a>
</g>
</g>
<!-- Node1&#45;&gt;Node4 -->
<g id="edge3_Node000001_Node000004" class="edge">
<title>Node1&#45;&gt;Node4</title>
<g id="a_edge3_Node000001_Node000004"><a xlink:title=" ">
<path fill="none" stroke="#63b8ff" d="M414.29,-197.8C405.89,-188.01 394.69,-174.98 385.85,-164.7"/>
<polygon fill="#63b8ff" stroke="#63b8ff" points="388.27,-162.15 379.1,-156.84 382.96,-166.71 388.27,-162.15"/>
</a>
</g>
</g>
<!-- Node5 -->
<g id="Node000005" class="node">
<title>Node5</title>
<g id="a_Node000005"><a xlink:href="../../d9/dc2/update__type_8hpp.html" target="_top" xlink:title="Enums representing periodic update types for CachingComponentBase">
<polygon fill="white" stroke="#666666" points="258.5,-162 136.5,-162 136.5,-132 258.5,-132 258.5,-162"/>
<text text-anchor="start" x="144.5" y="-150" font-family="Helvetica,sans-Serif" font-size="10.00">userver/cache/update</text>
<text text-anchor="middle" x="197.5" y="-139" font-family="Helvetica,sans-Serif" font-size="10.00">_type.hpp</text>
</a>
</g>
</g>
<!-- Node1&#45;&gt;Node5 -->
<g id="edge4_Node000001_Node000005" class="edge">
<title>Node1&#45;&gt;Node5</title>
<g id="a_edge4_Node000001_Node000005"><a xlink:title=" ">
<path fill="none" stroke="#63b8ff" d="M376.24,-197.95C341.2,-188.16 294.27,-175.05 257.3,-164.71"/>
<polygon fill="#63b8ff" stroke="#63b8ff" points="258.21,-161.33 247.64,-162.01 256.33,-168.07 258.21,-161.33"/>
</a>
</g>
</g>
<!-- Node11 -->
<g id="Node000011" class="node">
<title>Node11</title>
<g id="a_Node000011"><a xlink:href="../../d7/d2e/core_2include_2userver_2utils_2internal__tag__fwd_8hpp.html" target="_top" xlink:title=" ">
<polygon fill="white" stroke="#666666" points="572.5,-162 454.5,-162 454.5,-132 572.5,-132 572.5,-162"/>
<text text-anchor="start" x="462.5" y="-150" font-family="Helvetica,sans-Serif" font-size="10.00">userver/utils/internal</text>
<text text-anchor="middle" x="513.5" y="-139" font-family="Helvetica,sans-Serif" font-size="10.00">_tag_fwd.hpp</text>
</a>
</g>
</g>
<!-- Node1&#45;&gt;Node11 -->
<g id="edge11_Node000001_Node000011" class="edge">
<title>Node1&#45;&gt;Node11</title>
<g id="a_edge11_Node000001_Node000011"><a xlink:title=" ">
<path fill="none" stroke="#63b8ff" d="M445.81,-197.8C457.63,-189.1 472.96,-177.82 486.04,-168.2"/>
<polygon fill="#63b8ff" stroke="#63b8ff" points="488.26,-170.91 494.25,-162.16 484.12,-165.27 488.26,-170.91"/>
</a>
</g>
</g>
<!-- Node12 -->
<g id="Node000012" class="node">
<title>Node12</title>
<g id="a_Node000012"><a xlink:href="../../d7/def/core_2include_2userver_2utils_2statistics_2fwd_8hpp.html" target="_top" xlink:title="Forward declarations for statistics entities.">
<polygon fill="white" stroke="#666666" points="807,-96 682,-96 682,-66 807,-66 807,-96"/>
<text text-anchor="start" x="690" y="-84" font-family="Helvetica,sans-Serif" font-size="10.00">userver/utils/statistics</text>
<text text-anchor="middle" x="744.5" y="-73" font-family="Helvetica,sans-Serif" font-size="10.00">/fwd.hpp</text>
</a>
</g>
</g>
<!-- Node1&#45;&gt;Node12 -->
<g id="edge12_Node000001_Node000012" class="edge">
<title>Node1&#45;&gt;Node12</title>
<g id="a_edge12_Node000001_Node000012"><a xlink:title=" ">
<path fill="none" stroke="#63b8ff" d="M484.63,-209.74C561.56,-205.53 691.47,-193.81 725.5,-162 740.6,-147.89 744.7,-124.15 745.41,-106.19"/>
<polygon fill="#63b8ff" stroke="#63b8ff" points="748.91,-106.17 745.49,-96.15 741.91,-106.12 748.91,-106.17"/>
</a>
</g>
</g>
<!-- Node14 -->
<g id="Node000014" class="node">
<title>Node14</title>
<g id="a_Node000014"><a xlink:href="../../df/dd3/rate__counter_8hpp.html" target="_top" xlink:title="Atomic counter of type Rate with relaxed memory ordering.">
<polygon fill="white" stroke="#666666" points="716,-162 591,-162 591,-132 716,-132 716,-162"/>
<text text-anchor="start" x="599" y="-150" font-family="Helvetica,sans-Serif" font-size="10.00">userver/utils/statistics</text>
<text text-anchor="middle" x="653.5" y="-139" font-family="Helvetica,sans-Serif" font-size="10.00">/rate_counter.hpp</text>
</a>
</g>
</g>
<!-- Node1&#45;&gt;Node14 -->
<g id="edge14_Node000001_Node000014" class="edge">
<title>Node1&#45;&gt;Node14</title>
<g id="a_edge14_Node000001_Node000014"><a xlink:title=" ">
<path fill="none" stroke="#63b8ff" d="M476.32,-197.95C510.91,-188.2 557.18,-175.16 593.76,-164.84"/>
<polygon fill="#63b8ff" stroke="#63b8ff" points="595.13,-168.09 603.8,-162.01 593.23,-161.36 595.13,-168.09"/>
</a>
</g>
</g>
<!-- Node6 -->
<g id="Node000006" class="node">
<title>Node6</title>
<g id="a_Node000006"><a xlink:title=" ">
<polygon fill="#e0e0e0" stroke="#999999" points="348,-90.5 275,-90.5 275,-71.5 348,-71.5 348,-90.5"/>
<text text-anchor="middle" x="311.5" y="-78.5" font-family="Helvetica,sans-Serif" font-size="10.00">string_view</text>
</a>
</g>
</g>
<!-- Node5&#45;&gt;Node6 -->
<g id="edge5_Node000005_Node000006" class="edge">
<title>Node5&#45;&gt;Node6</title>
<g id="a_edge5_Node000005_Node000006"><a xlink:title=" ">
<path fill="none" stroke="#63b8ff" d="M222.52,-131.95C241.81,-121.13 268.32,-106.24 287.38,-95.54"/>
<polygon fill="#63b8ff" stroke="#63b8ff" points="289.32,-98.46 296.33,-90.52 285.9,-92.36 289.32,-98.46"/>
</a>
</g>
</g>
<!-- Node7 -->
<g id="Node000007" class="node">
<title>Node7</title>
<g id="a_Node000007"><a xlink:href="../../dc/d7d/json__fwd_8hpp.html" target="_top" xlink:title="Forward declarations of formats::json types, formats::parse::To and formats::serialize::To.">
<polygon fill="white" stroke="#666666" points="256.5,-96 138.5,-96 138.5,-66 256.5,-66 256.5,-96"/>
<text text-anchor="start" x="146.5" y="-84" font-family="Helvetica,sans-Serif" font-size="10.00">userver/formats/json</text>
<text text-anchor="middle" x="197.5" y="-73" font-family="Helvetica,sans-Serif" font-size="10.00">_fwd.hpp</text>
</a>
</g>
</g>
<!-- Node5&#45;&gt;Node7 -->
<g id="edge6_Node000005_Node000007" class="edge">
<title>Node5&#45;&gt;Node7</title>
<g id="a_edge6_Node000005_Node000007"><a xlink:title=" ">
<path fill="none" stroke="#63b8ff" d="M197.5,-131.8C197.5,-124.34 197.5,-114.99 197.5,-106.41"/>
<polygon fill="#63b8ff" stroke="#63b8ff" points="201,-106.16 197.5,-96.16 194,-106.16 201,-106.16"/>
</a>
</g>
</g>
<!-- Node10 -->
<g id="Node000010" class="node">
<title>Node10</title>
<g id="a_Node000010"><a xlink:href="../../dd/dd7/universal_2include_2userver_2yaml__config_2fwd_8hpp.html" target="_top" xlink:title="Forward declarations of YamlConfig type and formats::parse::To.">
<polygon fill="white" stroke="#666666" points="120.5,-96 4.5,-96 4.5,-66 120.5,-66 120.5,-96"/>
<text text-anchor="start" x="12.5" y="-84" font-family="Helvetica,sans-Serif" font-size="10.00">userver/yaml_config</text>
<text text-anchor="middle" x="62.5" y="-73" font-family="Helvetica,sans-Serif" font-size="10.00">/fwd.hpp</text>
</a>
</g>
</g>
<!-- Node5&#45;&gt;Node10 -->
<g id="edge9_Node000005_Node000010" class="edge">
<title>Node5&#45;&gt;Node10</title>
<g id="a_edge9_Node000005_Node000010"><a xlink:title=" ">
<path fill="none" stroke="#63b8ff" d="M167.87,-131.95C148.27,-122.66 122.36,-110.38 101.13,-100.32"/>
<polygon fill="#63b8ff" stroke="#63b8ff" points="102.59,-97.13 92.06,-96.01 99.59,-103.46 102.59,-97.13"/>
</a>
</g>
</g>
<!-- Node8 -->
<g id="Node000008" class="node">
<title>Node8</title>
<g id="a_Node000008"><a xlink:href="../../d2/dc8/universal_2include_2userver_2formats_2parse_2to_8hpp.html" target="_top" xlink:title="Helper for parsers.">
<polygon fill="white" stroke="#666666" points="125,-30 0,-30 0,0 125,0 125,-30"/>
<text text-anchor="start" x="8" y="-18" font-family="Helvetica,sans-Serif" font-size="10.00">userver/formats/parse</text>
<text text-anchor="middle" x="62.5" y="-7" font-family="Helvetica,sans-Serif" font-size="10.00">/to.hpp</text>
</a>
</g>
</g>
<!-- Node7&#45;&gt;Node8 -->
<g id="edge7_Node000007_Node000008" class="edge">
<title>Node7&#45;&gt;Node8</title>
<g id="a_edge7_Node000007_Node000008"><a xlink:title=" ">
<path fill="none" stroke="#63b8ff" d="M167.87,-65.95C148.27,-56.66 122.36,-44.38 101.13,-34.32"/>
<polygon fill="#63b8ff" stroke="#63b8ff" points="102.59,-31.13 92.06,-30.01 99.59,-37.46 102.59,-31.13"/>
</a>
</g>
</g>
<!-- Node9 -->
<g id="Node000009" class="node">
<title>Node9</title>
<g id="a_Node000009"><a xlink:href="../../d6/d8e/universal_2include_2userver_2formats_2serialize_2to_8hpp.html" target="_top" xlink:title="Helper for serializers.">
<polygon fill="white" stroke="#666666" points="282,-30 143,-30 143,0 282,0 282,-30"/>
<text text-anchor="start" x="151" y="-18" font-family="Helvetica,sans-Serif" font-size="10.00">userver/formats/serialize</text>
<text text-anchor="middle" x="212.5" y="-7" font-family="Helvetica,sans-Serif" font-size="10.00">/to.hpp</text>
</a>
</g>
</g>
<!-- Node7&#45;&gt;Node9 -->
<g id="edge8_Node000007_Node000009" class="edge">
<title>Node7&#45;&gt;Node9</title>
<g id="a_edge8_Node000007_Node000009"><a xlink:title=" ">
<path fill="none" stroke="#63b8ff" d="M200.83,-65.8C202.6,-58.26 204.82,-48.78 206.84,-40.13"/>
<polygon fill="#63b8ff" stroke="#63b8ff" points="210.31,-40.7 209.18,-30.16 203.49,-39.1 210.31,-40.7"/>
</a>
</g>
</g>
<!-- Node10&#45;&gt;Node8 -->
<g id="edge10_Node000010_Node000008" class="edge">
<title>Node10&#45;&gt;Node8</title>
<g id="a_edge10_Node000010_Node000008"><a xlink:title=" ">
<path fill="none" stroke="#63b8ff" d="M62.5,-65.8C62.5,-58.34 62.5,-48.99 62.5,-40.41"/>
<polygon fill="#63b8ff" stroke="#63b8ff" points="66,-40.16 62.5,-30.16 59,-40.16 66,-40.16"/>
</a>
</g>
</g>
<!-- Node13 -->
<g id="Node000013" class="node">
<title>Node13</title>
<g id="a_Node000013"><a xlink:title=" ">
<polygon fill="#e0e0e0" stroke="#999999" points="773.5,-24.5 715.5,-24.5 715.5,-5.5 773.5,-5.5 773.5,-24.5"/>
<text text-anchor="middle" x="744.5" y="-12.5" font-family="Helvetica,sans-Serif" font-size="10.00">memory</text>
</a>
</g>
</g>
<!-- Node12&#45;&gt;Node13 -->
<g id="edge13_Node000012_Node000013" class="edge">
<title>Node12&#45;&gt;Node13</title>
<g id="a_edge13_Node000012_Node000013"><a xlink:title=" ">
<path fill="none" stroke="#63b8ff" d="M744.5,-65.8C744.5,-56.7 744.5,-44.79 744.5,-34.9"/>
<polygon fill="#63b8ff" stroke="#63b8ff" points="748,-34.84 744.5,-24.84 741,-34.84 748,-34.84"/>
</a>
</g>
</g>
<!-- Node14&#45;&gt;Node2 -->
<g id="edge15_Node000014_Node000002" class="edge">
<title>Node14&#45;&gt;Node2</title>
<g id="a_edge15_Node000014_Node000002"><a xlink:title=" ">
<path fill="none" stroke="#63b8ff" d="M611.36,-131.95C576.9,-120.47 528.74,-104.41 496.41,-93.64"/>
<polygon fill="#63b8ff" stroke="#63b8ff" points="497.09,-90.18 486.5,-90.33 494.88,-96.82 497.09,-90.18"/>
</a>
</g>
</g>
<!-- Node14&#45;&gt;Node12 -->
<g id="edge16_Node000014_Node000012" class="edge">
<title>Node14&#45;&gt;Node12</title>
<g id="a_edge16_Node000014_Node000012"><a xlink:title=" ">
<path fill="none" stroke="#63b8ff" d="M673.7,-131.8C686.18,-123.01 702.4,-111.61 716.16,-101.93"/>
<polygon fill="#63b8ff" stroke="#63b8ff" points="718.19,-104.78 724.36,-96.16 714.17,-99.05 718.19,-104.78"/>
</a>
</g>
</g>
<!-- Node15 -->
<g id="Node000015" class="node">
<title>Node15</title>
<g id="a_Node000015"><a xlink:href="../../d6/dab/rate_8hpp.html" target="_top" xlink:title=" ">
<polygon fill="white" stroke="#666666" points="664,-96 539,-96 539,-66 664,-66 664,-96"/>
<text text-anchor="start" x="547" y="-84" font-family="Helvetica,sans-Serif" font-size="10.00">userver/utils/statistics</text>
<text text-anchor="middle" x="601.5" y="-73" font-family="Helvetica,sans-Serif" font-size="10.00">/rate.hpp</text>
</a>
</g>
</g>
<!-- Node14&#45;&gt;Node15 -->
<g id="edge17_Node000014_Node000015" class="edge">
<title>Node14&#45;&gt;Node15</title>
<g id="a_edge17_Node000014_Node000015"><a xlink:title=" ">
<path fill="none" stroke="#63b8ff" d="M641.96,-131.8C635.36,-123.68 626.94,-113.31 619.5,-104.15"/>
<polygon fill="#63b8ff" stroke="#63b8ff" points="622.03,-101.72 613.01,-96.16 616.6,-106.13 622.03,-101.72"/>
</a>
</g>
</g>
<!-- Node16 -->
<g id="Node000016" class="node">
<title>Node16</title>
<g id="a_Node000016"><a xlink:title=" ">
<polygon fill="#e0e0e0" stroke="#999999" points="626.5,-24.5 576.5,-24.5 576.5,-5.5 626.5,-5.5 626.5,-24.5"/>
<text text-anchor="middle" x="601.5" y="-12.5" font-family="Helvetica,sans-Serif" font-size="10.00">cstdint</text>
</a>
</g>
</g>
<!-- Node15&#45;&gt;Node16 -->
<g id="edge18_Node000015_Node000016" class="edge">
<title>Node15&#45;&gt;Node16</title>
<g id="a_edge18_Node000015_Node000016"><a xlink:title=" ">
<path fill="none" stroke="#63b8ff" d="M601.5,-65.8C601.5,-56.7 601.5,-44.79 601.5,-34.9"/>
<polygon fill="#63b8ff" stroke="#63b8ff" points="605,-34.84 601.5,-24.84 598,-34.84 605,-34.84"/>
</a>
</g>
</g>
</g>
</svg>
