<?xml version="1.0" encoding="UTF-8" standalone="no"?>
<!DOCTYPE svg PUBLIC "-//W3C//DTD SVG 1.1//EN"
 "http://www.w3.org/Graphics/SVG/1.1/DTD/svg11.dtd">
<!-- Generated by graphviz version 2.43.0 (0)
 -->
<!-- Title: userver/utils/statistics/striped_rate_counter.hpp Pages: 1 -->
<svg width="518pt" height="225pt"
 viewBox="0.00 0.00 517.50 225.00" xmlns="http://www.w3.org/2000/svg" xmlns:xlink="http://www.w3.org/1999/xlink">
<g id="graph0" class="graph" transform="scale(1 1) rotate(0) translate(4 221)">
<title>userver/utils/statistics/striped_rate_counter.hpp</title>
<!-- Node1 -->
<g id="Node000001" class="node">
<title>Node1</title>
<g id="a_Node000001"><a xlink:title="Atomic counter of type Rate with relaxed memory ordering, increased memory consumption and decreased ...">
<polygon fill="#999999" stroke="#666666" points="239,-217 99,-217 99,-187 239,-187 239,-217"/>
<text text-anchor="start" x="107" y="-205" font-family="Helvetica,sans-Serif" font-size="10.00">userver/utils/statistics</text>
<text text-anchor="middle" x="169" y="-194" font-family="Helvetica,sans-Serif" font-size="10.00">/striped_rate_counter.hpp</text>
</a>
</g>
</g>
<!-- Node2 -->
<g id="Node000002" class="node">
<title>Node2</title>
<g id="a_Node000002"><a xlink:title=" ">
<polygon fill="#e0e0e0" stroke="#999999" points="50,-145.5 0,-145.5 0,-126.5 50,-126.5 50,-145.5"/>
<text text-anchor="middle" x="25" y="-133.5" font-family="Helvetica,sans-Serif" font-size="10.00">atomic</text>
</a>
</g>
</g>
<!-- Node1&#45;&gt;Node2 -->
<g id="edge1_Node000001_Node000002" class="edge">
<title>Node1&#45;&gt;Node2</title>
<g id="a_edge1_Node000001_Node000002"><a xlink:title=" ">
<path fill="none" stroke="#63b8ff" d="M137.4,-186.95C112.37,-175.83 77.7,-160.42 53.51,-149.67"/>
<polygon fill="#63b8ff" stroke="#63b8ff" points="54.72,-146.38 44.16,-145.52 51.88,-152.78 54.72,-146.38"/>
</a>
</g>
</g>
<!-- Node3 -->
<g id="Node000003" class="node">
<title>Node3</title>
<g id="a_Node000003"><a xlink:title=" ">
<polygon fill="#e0e0e0" stroke="#999999" points="194,-79.5 144,-79.5 144,-60.5 194,-60.5 194,-79.5"/>
<text text-anchor="middle" x="169" y="-67.5" font-family="Helvetica,sans-Serif" font-size="10.00">cstdint</text>
</a>
</g>
</g>
<!-- Node1&#45;&gt;Node3 -->
<g id="edge2_Node000001_Node000003" class="edge">
<title>Node1&#45;&gt;Node3</title>
<g id="a_edge2_Node000001_Node000003"><a xlink:title=" ">
<path fill="none" stroke="#63b8ff" d="M136.05,-186.95C121.27,-178.78 105.32,-166.91 97,-151 90.82,-139.19 90.82,-132.81 97,-121 105.64,-104.47 122.52,-92.31 137.75,-84.12"/>
<polygon fill="#63b8ff" stroke="#63b8ff" points="139.56,-87.13 146.94,-79.53 136.43,-80.87 139.56,-87.13"/>
</a>
</g>
</g>
<!-- Node4 -->
<g id="Node000004" class="node">
<title>Node4</title>
<g id="a_Node000004"><a xlink:href="../../d8/d6a/striped__counter_8hpp.html" target="_top" xlink:title="A contention&#45;free sharded atomic counter, with memory consumption and read performance traded for wri...">
<polygon fill="white" stroke="#666666" points="366,-151 250,-151 250,-121 366,-121 366,-151"/>
<text text-anchor="start" x="258" y="-139" font-family="Helvetica,sans-Serif" font-size="10.00">userver/concurrent</text>
<text text-anchor="middle" x="308" y="-128" font-family="Helvetica,sans-Serif" font-size="10.00">/striped_counter.hpp</text>
</a>
</g>
</g>
<!-- Node1&#45;&gt;Node4 -->
<g id="edge3_Node000001_Node000004" class="edge">
<title>Node1&#45;&gt;Node4</title>
<g id="a_edge3_Node000001_Node000004"><a xlink:title=" ">
<path fill="none" stroke="#63b8ff" d="M199.5,-186.95C219.69,-177.66 246.37,-165.38 268.22,-155.32"/>
<polygon fill="#63b8ff" stroke="#63b8ff" points="269.95,-158.37 277.57,-151.01 267.02,-152.02 269.95,-158.37"/>
</a>
</g>
</g>
<!-- Node10 -->
<g id="Node000010" class="node">
<title>Node10</title>
<g id="a_Node000010"><a xlink:href="../../d7/def/core_2include_2userver_2utils_2statistics_2fwd_8hpp.html" target="_top" xlink:title="Forward declarations for statistics entities.">
<polygon fill="white" stroke="#666666" points="509.5,-151 384.5,-151 384.5,-121 509.5,-121 509.5,-151"/>
<text text-anchor="start" x="392.5" y="-139" font-family="Helvetica,sans-Serif" font-size="10.00">userver/utils/statistics</text>
<text text-anchor="middle" x="447" y="-128" font-family="Helvetica,sans-Serif" font-size="10.00">/fwd.hpp</text>
</a>
</g>
</g>
<!-- Node1&#45;&gt;Node10 -->
<g id="edge10_Node000001_Node000010" class="edge">
<title>Node1&#45;&gt;Node10</title>
<g id="a_edge10_Node000001_Node000010"><a xlink:title=" ">
<path fill="none" stroke="#63b8ff" d="M230.01,-186.95C273.1,-177.03 330.98,-163.71 376.12,-153.32"/>
<polygon fill="#63b8ff" stroke="#63b8ff" points="377.17,-156.67 386.13,-151.01 375.6,-149.85 377.17,-156.67"/>
</a>
</g>
</g>
<!-- Node12 -->
<g id="Node000012" class="node">
<title>Node12</title>
<g id="a_Node000012"><a xlink:href="../../d6/dab/rate_8hpp.html" target="_top" xlink:title=" ">
<polygon fill="white" stroke="#666666" points="231.5,-151 106.5,-151 106.5,-121 231.5,-121 231.5,-151"/>
<text text-anchor="start" x="114.5" y="-139" font-family="Helvetica,sans-Serif" font-size="10.00">userver/utils/statistics</text>
<text text-anchor="middle" x="169" y="-128" font-family="Helvetica,sans-Serif" font-size="10.00">/rate.hpp</text>
</a>
</g>
</g>
<!-- Node1&#45;&gt;Node12 -->
<g id="edge12_Node000001_Node000012" class="edge">
<title>Node1&#45;&gt;Node12</title>
<g id="a_edge12_Node000001_Node000012"><a xlink:title=" ">
<path fill="none" stroke="#63b8ff" d="M169,-186.8C169,-179.34 169,-169.99 169,-161.41"/>
<polygon fill="#63b8ff" stroke="#63b8ff" points="172.5,-161.16 169,-151.16 165.5,-161.16 172.5,-161.16"/>
</a>
</g>
</g>
<!-- Node4&#45;&gt;Node3 -->
<g id="edge4_Node000004_Node000003" class="edge">
<title>Node4&#45;&gt;Node3</title>
<g id="a_edge4_Node000004_Node000003"><a xlink:title=" ">
<path fill="none" stroke="#63b8ff" d="M277.5,-120.95C253.44,-109.88 220.17,-94.56 196.84,-83.82"/>
<polygon fill="#63b8ff" stroke="#63b8ff" points="198.05,-80.52 187.5,-79.52 195.12,-86.88 198.05,-80.52"/>
</a>
</g>
</g>
<!-- Node5 -->
<g id="Node000005" class="node">
<title>Node5</title>
<g id="a_Node000005"><a xlink:href="../../d5/d02/fast__pimpl_8hpp.html" target="_top" xlink:title="Implements pimpl idiom without dynamic memory allocation.">
<polygon fill="white" stroke="#666666" points="357.5,-85 258.5,-85 258.5,-55 357.5,-55 357.5,-85"/>
<text text-anchor="start" x="266.5" y="-73" font-family="Helvetica,sans-Serif" font-size="10.00">userver/utils/fast</text>
<text text-anchor="middle" x="308" y="-62" font-family="Helvetica,sans-Serif" font-size="10.00">_pimpl.hpp</text>
</a>
</g>
</g>
<!-- Node4&#45;&gt;Node5 -->
<g id="edge5_Node000004_Node000005" class="edge">
<title>Node4&#45;&gt;Node5</title>
<g id="a_edge5_Node000004_Node000005"><a xlink:title=" ">
<path fill="none" stroke="#63b8ff" d="M308,-120.8C308,-113.34 308,-103.99 308,-95.41"/>
<polygon fill="#63b8ff" stroke="#63b8ff" points="311.5,-95.16 308,-85.16 304.5,-95.16 311.5,-95.16"/>
</a>
</g>
</g>
<!-- Node6 -->
<g id="Node000006" class="node">
<title>Node6</title>
<g id="a_Node000006"><a xlink:title=" ">
<polygon fill="#e0e0e0" stroke="#999999" points="235.5,-19 182.5,-19 182.5,0 235.5,0 235.5,-19"/>
<text text-anchor="middle" x="209" y="-7" font-family="Helvetica,sans-Serif" font-size="10.00">cstddef</text>
</a>
</g>
</g>
<!-- Node5&#45;&gt;Node6 -->
<g id="edge6_Node000005_Node000006" class="edge">
<title>Node5&#45;&gt;Node6</title>
<g id="a_edge6_Node000005_Node000006"><a xlink:title=" ">
<path fill="none" stroke="#63b8ff" d="M284.29,-54.99C268.65,-45.75 248.26,-33.7 232.64,-24.47"/>
<polygon fill="#63b8ff" stroke="#63b8ff" points="234.01,-21.21 223.62,-19.14 230.45,-27.24 234.01,-21.21"/>
</a>
</g>
</g>
<!-- Node7 -->
<g id="Node000007" class="node">
<title>Node7</title>
<g id="a_Node000007"><a xlink:title=" ">
<polygon fill="#e0e0e0" stroke="#999999" points="290.5,-19 253.5,-19 253.5,0 290.5,0 290.5,-19"/>
<text text-anchor="middle" x="272" y="-7" font-family="Helvetica,sans-Serif" font-size="10.00">new</text>
</a>
</g>
</g>
<!-- Node5&#45;&gt;Node7 -->
<g id="edge7_Node000005_Node000007" class="edge">
<title>Node5&#45;&gt;Node7</title>
<g id="a_edge7_Node000005_Node000007"><a xlink:title=" ">
<path fill="none" stroke="#63b8ff" d="M299.29,-54.84C294.33,-46.78 288.07,-36.62 282.8,-28.06"/>
<polygon fill="#63b8ff" stroke="#63b8ff" points="285.62,-25.95 277.39,-19.27 279.65,-29.62 285.62,-25.95"/>
</a>
</g>
</g>
<!-- Node8 -->
<g id="Node000008" class="node">
<title>Node8</title>
<g id="a_Node000008"><a xlink:title=" ">
<polygon fill="#e0e0e0" stroke="#999999" points="377.5,-19 308.5,-19 308.5,0 377.5,0 377.5,-19"/>
<text text-anchor="middle" x="343" y="-7" font-family="Helvetica,sans-Serif" font-size="10.00">type_traits</text>
</a>
</g>
</g>
<!-- Node5&#45;&gt;Node8 -->
<g id="edge8_Node000005_Node000008" class="edge">
<title>Node5&#45;&gt;Node8</title>
<g id="a_edge8_Node000005_Node000008"><a xlink:title=" ">
<path fill="none" stroke="#63b8ff" d="M316.47,-54.84C321.29,-46.78 327.37,-36.62 332.5,-28.06"/>
<polygon fill="#63b8ff" stroke="#63b8ff" points="335.62,-29.64 337.76,-19.27 329.62,-26.05 335.62,-29.64"/>
</a>
</g>
</g>
<!-- Node9 -->
<g id="Node000009" class="node">
<title>Node9</title>
<g id="a_Node000009"><a xlink:title=" ">
<polygon fill="#e0e0e0" stroke="#999999" points="440.5,-19 395.5,-19 395.5,0 440.5,0 440.5,-19"/>
<text text-anchor="middle" x="418" y="-7" font-family="Helvetica,sans-Serif" font-size="10.00">utility</text>
</a>
</g>
</g>
<!-- Node5&#45;&gt;Node9 -->
<g id="edge9_Node000005_Node000009" class="edge">
<title>Node5&#45;&gt;Node9</title>
<g id="a_edge9_Node000005_Node000009"><a xlink:title=" ">
<path fill="none" stroke="#63b8ff" d="M334.35,-54.99C352.05,-45.58 375.23,-33.24 392.71,-23.95"/>
<polygon fill="#63b8ff" stroke="#63b8ff" points="394.57,-26.92 401.76,-19.14 391.28,-20.74 394.57,-26.92"/>
</a>
</g>
</g>
<!-- Node11 -->
<g id="Node000011" class="node">
<title>Node11</title>
<g id="a_Node000011"><a xlink:title=" ">
<polygon fill="#e0e0e0" stroke="#999999" points="476,-79.5 418,-79.5 418,-60.5 476,-60.5 476,-79.5"/>
<text text-anchor="middle" x="447" y="-67.5" font-family="Helvetica,sans-Serif" font-size="10.00">memory</text>
</a>
</g>
</g>
<!-- Node10&#45;&gt;Node11 -->
<g id="edge11_Node000010_Node000011" class="edge">
<title>Node10&#45;&gt;Node11</title>
<g id="a_edge11_Node000010_Node000011"><a xlink:title=" ">
<path fill="none" stroke="#63b8ff" d="M447,-120.8C447,-111.7 447,-99.79 447,-89.9"/>
<polygon fill="#63b8ff" stroke="#63b8ff" points="450.5,-89.84 447,-79.84 443.5,-89.84 450.5,-89.84"/>
</a>
</g>
</g>
<!-- Node12&#45;&gt;Node3 -->
<g id="edge13_Node000012_Node000003" class="edge">
<title>Node12&#45;&gt;Node3</title>
<g id="a_edge13_Node000012_Node000003"><a xlink:title=" ">
<path fill="none" stroke="#63b8ff" d="M169,-120.8C169,-111.7 169,-99.79 169,-89.9"/>
<polygon fill="#63b8ff" stroke="#63b8ff" points="172.5,-89.84 169,-79.84 165.5,-89.84 172.5,-89.84"/>
</a>
</g>
</g>
</g>
</svg>
