<?xml version="1.0" encoding="UTF-8" standalone="no"?>
<!DOCTYPE svg PUBLIC "-//W3C//DTD SVG 1.1//EN"
 "http://www.w3.org/Graphics/SVG/1.1/DTD/svg11.dtd">
<!-- Generated by graphviz version 2.43.0 (0)
 -->
<!-- Title: userver/tracing/span.hpp Pages: 1 -->
<svg width="2071pt" height="412pt"
 viewBox="0.00 0.00 2070.87 412.00" xmlns="http://www.w3.org/2000/svg" xmlns:xlink="http://www.w3.org/1999/xlink">
<g id="graph0" class="graph" transform="scale(1 1) rotate(0) translate(4 408)">
<title>userver/tracing/span.hpp</title>
<!-- Node1 -->
<g id="Node000001" class="node">
<title>Node1</title>
<g id="a_Node000001"><a xlink:title="Measures the execution time of the current code block, links it with the parent tracing::Spans and st...">
<polygon fill="#999999" stroke="#666666" points="1293.51,-404 1156.51,-404 1156.51,-385 1293.51,-385 1293.51,-404"/>
<text text-anchor="middle" x="1225.01" y="-392" font-family="Helvetica,sans-Serif" font-size="10.00">userver/tracing/span.hpp</text>
</a>
</g>
</g>
<!-- Node2 -->
<g id="Node000002" class="node">
<title>Node2</title>
<g id="a_Node000002"><a xlink:title=" ">
<polygon fill="#e0e0e0" stroke="#999999" points="1366.01,-145.5 1310.01,-145.5 1310.01,-126.5 1366.01,-126.5 1366.01,-145.5"/>
<text text-anchor="middle" x="1338.01" y="-133.5" font-family="Helvetica,sans-Serif" font-size="10.00">optional</text>
</a>
</g>
</g>
<!-- Node1&#45;&gt;Node2 -->
<g id="edge1_Node000001_Node000002" class="edge">
<title>Node1&#45;&gt;Node2</title>
<g id="a_edge1_Node000001_Node000002"><a xlink:title=" ">
<path fill="none" stroke="#63b8ff" d="M1228.77,-384.97C1244.82,-348.53 1307.81,-205.54 1330.12,-154.9"/>
<polygon fill="#63b8ff" stroke="#63b8ff" points="1333.4,-156.13 1334.23,-145.57 1327,-153.31 1333.4,-156.13"/>
</a>
</g>
</g>
<!-- Node3 -->
<g id="Node000003" class="node">
<title>Node3</title>
<g id="a_Node000003"><a xlink:title=" ">
<polygon fill="#e0e0e0" stroke="#999999" points="162.51,-79.5 89.51,-79.5 89.51,-60.5 162.51,-60.5 162.51,-79.5"/>
<text text-anchor="middle" x="126.01" y="-67.5" font-family="Helvetica,sans-Serif" font-size="10.00">string_view</text>
</a>
</g>
</g>
<!-- Node1&#45;&gt;Node3 -->
<g id="edge2_Node000001_Node000003" class="edge">
<title>Node1&#45;&gt;Node3</title>
<g id="a_edge2_Node000001_Node000003"><a xlink:title=" ">
<path fill="none" stroke="#63b8ff" d="M1156.13,-393.78C897.79,-393.93 1.01,-386.01 1.01,-269 1.01,-269 1.01,-269 1.01,-201 1.01,-164.46 -3.02,-149.38 20.01,-121 35.13,-102.36 58.81,-90.29 79.96,-82.68"/>
<polygon fill="#63b8ff" stroke="#63b8ff" points="81.09,-85.99 89.46,-79.49 78.87,-79.36 81.09,-85.99"/>
</a>
</g>
</g>
<!-- Node4 -->
<g id="Node000004" class="node">
<title>Node4</title>
<g id="a_Node000004"><a xlink:href="../../dd/de6/universal_2include_2userver_2logging_2log_8hpp.html" target="_top" xlink:title="Logging helpers.">
<polygon fill="white" stroke="#666666" points="1207.51,-343.5 1076.51,-343.5 1076.51,-324.5 1207.51,-324.5 1207.51,-343.5"/>
<text text-anchor="middle" x="1142.01" y="-331.5" font-family="Helvetica,sans-Serif" font-size="10.00">userver/logging/log.hpp</text>
</a>
</g>
</g>
<!-- Node1&#45;&gt;Node4 -->
<g id="edge3_Node000001_Node000004" class="edge">
<title>Node1&#45;&gt;Node4</title>
<g id="a_edge3_Node000001_Node000004"><a xlink:title=" ">
<path fill="none" stroke="#63b8ff" d="M1212.76,-384.87C1199.64,-375.62 1178.59,-360.78 1162.85,-349.69"/>
<polygon fill="#63b8ff" stroke="#63b8ff" points="1164.49,-346.57 1154.3,-343.67 1160.46,-352.29 1164.49,-346.57"/>
</a>
</g>
</g>
<!-- Node25 -->
<g id="Node000025" class="node">
<title>Node25</title>
<g id="a_Node000025"><a xlink:href="../../d6/def/log__extra_8hpp.html" target="_top" xlink:title="Extra tskv fields storage.">
<polygon fill="white" stroke="#666666" points="1628.01,-217 1518.01,-217 1518.01,-187 1628.01,-187 1628.01,-217"/>
<text text-anchor="start" x="1526.01" y="-205" font-family="Helvetica,sans-Serif" font-size="10.00">userver/logging/log</text>
<text text-anchor="middle" x="1573.01" y="-194" font-family="Helvetica,sans-Serif" font-size="10.00">_extra.hpp</text>
</a>
</g>
</g>
<!-- Node1&#45;&gt;Node25 -->
<g id="edge60_Node000001_Node000025" class="edge">
<title>Node1&#45;&gt;Node25</title>
<g id="a_edge60_Node000001_Node000025"><a xlink:title=" ">
<path fill="none" stroke="#63b8ff" d="M1254.1,-384.99C1280.23,-376.95 1319.39,-363.92 1352.01,-349 1405.6,-324.49 1417.84,-315.48 1467.01,-283 1495.54,-264.15 1526.59,-240.29 1547.66,-223.55"/>
<polygon fill="#63b8ff" stroke="#63b8ff" points="1549.87,-226.27 1555.5,-217.29 1545.5,-220.8 1549.87,-226.27"/>
</a>
</g>
</g>
<!-- Node32 -->
<g id="Node000032" class="node">
<title>Node32</title>
<g id="a_Node000032"><a xlink:href="../../df/dd4/source__location_8hpp_source.html" target="_top" xlink:title=" ">
<polygon fill="white" stroke="#666666" points="224.51,-217 107.51,-217 107.51,-187 224.51,-187 224.51,-217"/>
<text text-anchor="start" x="115.51" y="-205" font-family="Helvetica,sans-Serif" font-size="10.00">userver/utils/impl</text>
<text text-anchor="middle" x="166.01" y="-194" font-family="Helvetica,sans-Serif" font-size="10.00">/source_location.hpp</text>
</a>
</g>
</g>
<!-- Node1&#45;&gt;Node32 -->
<g id="edge69_Node000001_Node000032" class="edge">
<title>Node1&#45;&gt;Node32</title>
<g id="a_edge69_Node000001_Node000032"><a xlink:title=" ">
<path fill="none" stroke="#63b8ff" d="M1156.41,-391.54C932.88,-384.44 236.01,-356.53 170.01,-283 156.7,-268.17 157.03,-244.89 159.91,-227.25"/>
<polygon fill="#63b8ff" stroke="#63b8ff" points="163.4,-227.62 161.93,-217.13 156.54,-226.25 163.4,-227.62"/>
</a>
</g>
</g>
<!-- Node35 -->
<g id="Node000035" class="node">
<title>Node35</title>
<g id="a_Node000035"><a xlink:href="../../d4/d54/scope__time_8hpp.html" target="_top" xlink:title="Type to measure execution time of a scope.">
<polygon fill="white" stroke="#666666" points="1458.01,-283 1336.01,-283 1336.01,-253 1458.01,-253 1458.01,-283"/>
<text text-anchor="start" x="1344.01" y="-271" font-family="Helvetica,sans-Serif" font-size="10.00">userver/tracing/scope</text>
<text text-anchor="middle" x="1397.01" y="-260" font-family="Helvetica,sans-Serif" font-size="10.00">_time.hpp</text>
</a>
</g>
</g>
<!-- Node1&#45;&gt;Node35 -->
<g id="edge61_Node000001_Node000035" class="edge">
<title>Node1&#45;&gt;Node35</title>
<g id="a_edge61_Node000001_Node000035"><a xlink:title=" ">
<path fill="none" stroke="#63b8ff" d="M1250.35,-384.98C1270.81,-377.39 1299.75,-365.02 1322.01,-349 1344.85,-332.56 1366.31,-308.43 1380.38,-290.98"/>
<polygon fill="#63b8ff" stroke="#63b8ff" points="1383.22,-293.03 1386.66,-283.01 1377.72,-288.69 1383.22,-293.03"/>
</a>
</g>
</g>
<!-- Node37 -->
<g id="Node000037" class="node">
<title>Node37</title>
<g id="a_Node000037"><a xlink:href="../../dc/d90/tracer__fwd_8hpp_source.html" target="_top" xlink:title=" ">
<polygon fill="white" stroke="#666666" points="301.01,-283 179.01,-283 179.01,-253 301.01,-253 301.01,-283"/>
<text text-anchor="start" x="187.01" y="-271" font-family="Helvetica,sans-Serif" font-size="10.00">userver/tracing/tracer</text>
<text text-anchor="middle" x="240.01" y="-260" font-family="Helvetica,sans-Serif" font-size="10.00">_fwd.hpp</text>
</a>
</g>
</g>
<!-- Node1&#45;&gt;Node37 -->
<g id="edge67_Node000001_Node000037" class="edge">
<title>Node1&#45;&gt;Node37</title>
<g id="a_edge67_Node000001_Node000037"><a xlink:title=" ">
<path fill="none" stroke="#63b8ff" d="M1156.31,-386.67C1004.28,-371.22 628.02,-331.17 315.01,-283 313.75,-282.81 312.49,-282.61 311.22,-282.41"/>
<polygon fill="#63b8ff" stroke="#63b8ff" points="311.78,-278.95 301.35,-280.78 310.64,-285.86 311.78,-278.95"/>
</a>
</g>
</g>
<!-- Node38 -->
<g id="Node000038" class="node">
<title>Node38</title>
<g id="a_Node000038"><a xlink:href="../../d7/d2e/core_2include_2userver_2utils_2internal__tag__fwd_8hpp.html" target="_top" xlink:title=" ">
<polygon fill="white" stroke="#666666" points="1632.01,-349 1514.01,-349 1514.01,-319 1632.01,-319 1632.01,-349"/>
<text text-anchor="start" x="1522.01" y="-337" font-family="Helvetica,sans-Serif" font-size="10.00">userver/utils/internal</text>
<text text-anchor="middle" x="1573.01" y="-326" font-family="Helvetica,sans-Serif" font-size="10.00">_tag_fwd.hpp</text>
</a>
</g>
</g>
<!-- Node1&#45;&gt;Node38 -->
<g id="edge70_Node000001_Node000038" class="edge">
<title>Node1&#45;&gt;Node38</title>
<g id="a_edge70_Node000001_Node000038"><a xlink:title=" ">
<path fill="none" stroke="#63b8ff" d="M1280.65,-384.98C1336.26,-376.35 1424.16,-362.41 1500.01,-349 1501.26,-348.78 1502.52,-348.55 1503.79,-348.33"/>
<polygon fill="#63b8ff" stroke="#63b8ff" points="1504.46,-351.76 1513.67,-346.53 1503.21,-344.88 1504.46,-351.76"/>
</a>
</g>
</g>
<!-- Node5 -->
<g id="Node000005" class="node">
<title>Node5</title>
<g id="a_Node000005"><a xlink:title=" ">
<polygon fill="#e0e0e0" stroke="#999999" points="1280.01,-211.5 1230.01,-211.5 1230.01,-192.5 1280.01,-192.5 1280.01,-211.5"/>
<text text-anchor="middle" x="1255.01" y="-199.5" font-family="Helvetica,sans-Serif" font-size="10.00">chrono</text>
</a>
</g>
</g>
<!-- Node4&#45;&gt;Node5 -->
<g id="edge4_Node000004_Node000005" class="edge">
<title>Node4&#45;&gt;Node5</title>
<g id="a_edge4_Node000004_Node000005"><a xlink:title=" ">
<path fill="none" stroke="#63b8ff" d="M1149.42,-324.47C1167.93,-303.17 1216.43,-247.38 1240.72,-219.44"/>
<polygon fill="#63b8ff" stroke="#63b8ff" points="1243.5,-221.57 1247.42,-211.73 1238.21,-216.98 1243.5,-221.57"/>
</a>
</g>
</g>
<!-- Node6 -->
<g id="Node000006" class="node">
<title>Node6</title>
<g id="a_Node000006"><a xlink:href="../../d2/d84/select_8hpp.html" target="_top" xlink:title="Utilities for selection of platform specific values.">
<polygon fill="white" stroke="#666666" points="1598.01,-145.5 1446.01,-145.5 1446.01,-126.5 1598.01,-126.5 1598.01,-145.5"/>
<text text-anchor="middle" x="1522.01" y="-133.5" font-family="Helvetica,sans-Serif" font-size="10.00">userver/compiler/select.hpp</text>
</a>
</g>
</g>
<!-- Node4&#45;&gt;Node6 -->
<g id="edge5_Node000004_Node000006" class="edge">
<title>Node4&#45;&gt;Node6</title>
<g id="a_edge5_Node000004_Node000006"><a xlink:title=" ">
<path fill="none" stroke="#63b8ff" d="M1158.82,-324.33C1219.03,-293.27 1424.09,-187.5 1496.46,-150.18"/>
<polygon fill="#63b8ff" stroke="#63b8ff" points="1498.1,-153.27 1505.38,-145.57 1494.89,-147.05 1498.1,-153.27"/>
</a>
</g>
</g>
<!-- Node8 -->
<g id="Node000008" class="node">
<title>Node8</title>
<g id="a_Node000008"><a xlink:href="../../db/dfb/universal_2include_2userver_2logging_2fwd_8hpp.html" target="_top" xlink:title="Forward declarations for logging types.">
<polygon fill="white" stroke="#666666" points="587.01,-145.5 453.01,-145.5 453.01,-126.5 587.01,-126.5 587.01,-145.5"/>
<text text-anchor="middle" x="520.01" y="-133.5" font-family="Helvetica,sans-Serif" font-size="10.00">userver/logging/fwd.hpp</text>
</a>
</g>
</g>
<!-- Node4&#45;&gt;Node8 -->
<g id="edge7_Node000004_Node000008" class="edge">
<title>Node4&#45;&gt;Node8</title>
<g id="a_edge7_Node000004_Node000008"><a xlink:title=" ">
<path fill="none" stroke="#63b8ff" d="M1076.29,-333.26C917.78,-332.22 522.39,-319.26 453.01,-217 445.52,-205.97 447.03,-198.92 453.01,-187 461.01,-171.04 476.8,-158.87 491.04,-150.53"/>
<polygon fill="#63b8ff" stroke="#63b8ff" points="492.97,-153.47 500.08,-145.61 489.62,-147.32 492.97,-153.47"/>
</a>
</g>
</g>
<!-- Node10 -->
<g id="Node000010" class="node">
<title>Node10</title>
<g id="a_Node000010"><a xlink:href="../../d5/d37/level_8hpp.html" target="_top" xlink:title="Log levels.">
<polygon fill="white" stroke="#666666" points="1212.01,-211.5 1072.01,-211.5 1072.01,-192.5 1212.01,-192.5 1212.01,-211.5"/>
<text text-anchor="middle" x="1142.01" y="-199.5" font-family="Helvetica,sans-Serif" font-size="10.00">userver/logging/level.hpp</text>
</a>
</g>
</g>
<!-- Node4&#45;&gt;Node10 -->
<g id="edge9_Node000004_Node000010" class="edge">
<title>Node4&#45;&gt;Node10</title>
<g id="a_edge9_Node000004_Node000010"><a xlink:title=" ">
<path fill="none" stroke="#63b8ff" d="M1142.01,-324.47C1142.01,-303.82 1142.01,-250.72 1142.01,-222.04"/>
<polygon fill="#63b8ff" stroke="#63b8ff" points="1145.51,-221.73 1142.01,-211.73 1138.51,-221.73 1145.51,-221.73"/>
</a>
</g>
</g>
<!-- Node13 -->
<g id="Node000013" class="node">
<title>Node13</title>
<g id="a_Node000013"><a xlink:href="../../d4/dc3/log__filepath_8hpp.html" target="_top" xlink:title="Short source path calculator.">
<polygon fill="white" stroke="#666666" points="139.01,-151 29.01,-151 29.01,-121 139.01,-121 139.01,-151"/>
<text text-anchor="start" x="37.01" y="-139" font-family="Helvetica,sans-Serif" font-size="10.00">userver/logging/log</text>
<text text-anchor="middle" x="84.01" y="-128" font-family="Helvetica,sans-Serif" font-size="10.00">_filepath.hpp</text>
</a>
</g>
</g>
<!-- Node4&#45;&gt;Node13 -->
<g id="edge13_Node000004_Node000013" class="edge">
<title>Node4&#45;&gt;Node13</title>
<g id="a_edge13_Node000004_Node000013"><a xlink:title=" ">
<path fill="none" stroke="#63b8ff" d="M1076.32,-332.21C871.46,-329.4 252.92,-318.07 170.01,-283 130.33,-266.22 119.8,-254.73 99.01,-217 89.55,-199.84 85.94,-177.81 84.61,-161.21"/>
<polygon fill="#63b8ff" stroke="#63b8ff" points="88.1,-160.97 84.03,-151.19 81.12,-161.38 88.1,-160.97"/>
</a>
</g>
</g>
<!-- Node14 -->
<g id="Node000014" class="node">
<title>Node14</title>
<g id="a_Node000014"><a xlink:href="../../db/d94/log__helper_8hpp.html" target="_top" xlink:title=" ">
<polygon fill="white" stroke="#666666" points="738.01,-283 628.01,-283 628.01,-253 738.01,-253 738.01,-283"/>
<text text-anchor="start" x="636.01" y="-271" font-family="Helvetica,sans-Serif" font-size="10.00">userver/logging/log</text>
<text text-anchor="middle" x="683.01" y="-260" font-family="Helvetica,sans-Serif" font-size="10.00">_helper.hpp</text>
</a>
</g>
</g>
<!-- Node4&#45;&gt;Node14 -->
<g id="edge15_Node000004_Node000014" class="edge">
<title>Node4&#45;&gt;Node14</title>
<g id="a_edge15_Node000004_Node000014"><a xlink:title=" ">
<path fill="none" stroke="#63b8ff" d="M1080.58,-324.44C994.02,-312.37 836.85,-290.45 748.26,-278.1"/>
<polygon fill="#63b8ff" stroke="#63b8ff" points="748.72,-274.63 738.33,-276.71 747.75,-281.56 748.72,-274.63"/>
</a>
</g>
</g>
<!-- Node7 -->
<g id="Node000007" class="node">
<title>Node7</title>
<g id="a_Node000007"><a xlink:title=" ">
<polygon fill="#e0e0e0" stroke="#999999" points="1558.51,-79.5 1505.51,-79.5 1505.51,-60.5 1558.51,-60.5 1558.51,-79.5"/>
<text text-anchor="middle" x="1532.01" y="-67.5" font-family="Helvetica,sans-Serif" font-size="10.00">cstddef</text>
</a>
</g>
</g>
<!-- Node6&#45;&gt;Node7 -->
<g id="edge6_Node000006_Node000007" class="edge">
<title>Node6&#45;&gt;Node7</title>
<g id="a_edge6_Node000006_Node000007"><a xlink:title=" ">
<path fill="none" stroke="#63b8ff" d="M1523.35,-126.37C1524.81,-117.07 1527.17,-101.98 1529.05,-89.9"/>
<polygon fill="#63b8ff" stroke="#63b8ff" points="1532.53,-90.33 1530.61,-79.91 1525.61,-89.25 1532.53,-90.33"/>
</a>
</g>
</g>
<!-- Node9 -->
<g id="Node000009" class="node">
<title>Node9</title>
<g id="a_Node000009"><a xlink:title=" ">
<polygon fill="#e0e0e0" stroke="#999999" points="405.01,-79.5 347.01,-79.5 347.01,-60.5 405.01,-60.5 405.01,-79.5"/>
<text text-anchor="middle" x="376.01" y="-67.5" font-family="Helvetica,sans-Serif" font-size="10.00">memory</text>
</a>
</g>
</g>
<!-- Node8&#45;&gt;Node9 -->
<g id="edge8_Node000008_Node000009" class="edge">
<title>Node8&#45;&gt;Node9</title>
<g id="a_edge8_Node000008_Node000009"><a xlink:title=" ">
<path fill="none" stroke="#63b8ff" d="M500.59,-126.37C476,-115.44 433.43,-96.52 405,-83.88"/>
<polygon fill="#63b8ff" stroke="#63b8ff" points="406.14,-80.56 395.58,-79.7 403.3,-86.96 406.14,-80.56"/>
</a>
</g>
</g>
<!-- Node10&#45;&gt;Node2 -->
<g id="edge11_Node000010_Node000002" class="edge">
<title>Node10&#45;&gt;Node2</title>
<g id="a_edge11_Node000010_Node000002"><a xlink:title=" ">
<path fill="none" stroke="#63b8ff" d="M1168.46,-192.48C1199.15,-182.58 1251.28,-165.71 1296.01,-151 1298.14,-150.3 1300.34,-149.57 1302.55,-148.84"/>
<polygon fill="#63b8ff" stroke="#63b8ff" points="1303.86,-152.09 1312.25,-145.62 1301.66,-145.45 1303.86,-152.09"/>
</a>
</g>
</g>
<!-- Node11 -->
<g id="Node000011" class="node">
<title>Node11</title>
<g id="a_Node000011"><a xlink:title=" ">
<polygon fill="#e0e0e0" stroke="#999999" points="435.01,-145.5 385.01,-145.5 385.01,-126.5 435.01,-126.5 435.01,-145.5"/>
<text text-anchor="middle" x="410.01" y="-133.5" font-family="Helvetica,sans-Serif" font-size="10.00">cstdint</text>
</a>
</g>
</g>
<!-- Node10&#45;&gt;Node11 -->
<g id="edge10_Node000010_Node000011" class="edge">
<title>Node10&#45;&gt;Node11</title>
<g id="a_edge10_Node000010_Node000011"><a xlink:title=" ">
<path fill="none" stroke="#63b8ff" d="M1076.48,-192.49C1059.72,-190.5 1041.71,-188.52 1025.01,-187 767.35,-163.62 696.13,-209.04 444.01,-151 441.78,-150.49 439.52,-149.85 437.26,-149.12"/>
<polygon fill="#63b8ff" stroke="#63b8ff" points="438.24,-145.75 427.64,-145.55 435.8,-152.31 438.24,-145.75"/>
</a>
</g>
</g>
<!-- Node12 -->
<g id="Node000012" class="node">
<title>Node12</title>
<g id="a_Node000012"><a xlink:title=" ">
<polygon fill="#e0e0e0" stroke="#999999" points="1428.01,-145.5 1384.01,-145.5 1384.01,-126.5 1428.01,-126.5 1428.01,-145.5"/>
<text text-anchor="middle" x="1406.01" y="-133.5" font-family="Helvetica,sans-Serif" font-size="10.00">string</text>
</a>
</g>
</g>
<!-- Node10&#45;&gt;Node12 -->
<g id="edge12_Node000010_Node000012" class="edge">
<title>Node10&#45;&gt;Node12</title>
<g id="a_edge12_Node000010_Node000012"><a xlink:title=" ">
<path fill="none" stroke="#63b8ff" d="M1187.39,-192.45C1244.91,-181.41 1340.72,-162.28 1375.01,-151 1376.44,-150.53 1377.9,-150.01 1379.37,-149.46"/>
<polygon fill="#63b8ff" stroke="#63b8ff" points="1380.99,-152.58 1388.89,-145.51 1378.31,-146.11 1380.99,-152.58"/>
</a>
</g>
</g>
<!-- Node13&#45;&gt;Node3 -->
<g id="edge14_Node000013_Node000003" class="edge">
<title>Node13&#45;&gt;Node3</title>
<g id="a_edge14_Node000013_Node000003"><a xlink:title=" ">
<path fill="none" stroke="#63b8ff" d="M93.33,-120.8C99.62,-111.21 107.96,-98.5 114.64,-88.32"/>
<polygon fill="#63b8ff" stroke="#63b8ff" points="117.64,-90.13 120.2,-79.84 111.79,-86.28 117.64,-90.13"/>
</a>
</g>
</g>
<!-- Node14&#45;&gt;Node2 -->
<g id="edge21_Node000014_Node000002" class="edge">
<title>Node14&#45;&gt;Node2</title>
<g id="a_edge21_Node000014_Node000002"><a xlink:title=" ">
<path fill="none" stroke="#63b8ff" d="M738.08,-267.58C807.71,-266.42 929.94,-257.95 1025.01,-217 1044.77,-208.49 1043.28,-195.59 1063.01,-187 1159.07,-145.16 1194.16,-175.66 1296.01,-151 1298.97,-150.28 1302.03,-149.45 1305.08,-148.56"/>
<polygon fill="#63b8ff" stroke="#63b8ff" points="1306.16,-151.88 1314.66,-145.56 1304.07,-145.2 1306.16,-151.88"/>
</a>
</g>
</g>
<!-- Node14&#45;&gt;Node3 -->
<g id="edge22_Node000014_Node000003" class="edge">
<title>Node14&#45;&gt;Node3</title>
<g id="a_edge22_Node000014_Node000003"><a xlink:title=" ">
<path fill="none" stroke="#63b8ff" d="M627.8,-265.66C560.79,-262.46 445.3,-251.84 353.01,-217 267.37,-184.67 180.26,-116.67 143.78,-86.26"/>
<polygon fill="#63b8ff" stroke="#63b8ff" points="145.91,-83.48 136.01,-79.71 141.4,-88.83 145.91,-83.48"/>
</a>
</g>
</g>
<!-- Node14&#45;&gt;Node5 -->
<g id="edge16_Node000014_Node000005" class="edge">
<title>Node14&#45;&gt;Node5</title>
<g id="a_edge16_Node000014_Node000005"><a xlink:title=" ">
<path fill="none" stroke="#63b8ff" d="M738.12,-267.24C836.54,-266.5 1048.41,-259.54 1221.01,-217 1223.17,-216.47 1225.38,-215.82 1227.58,-215.1"/>
<polygon fill="#63b8ff" stroke="#63b8ff" points="1228.84,-218.36 1236.99,-211.58 1226.4,-211.8 1228.84,-218.36"/>
</a>
</g>
</g>
<!-- Node14&#45;&gt;Node8 -->
<g id="edge33_Node000014_Node000008" class="edge">
<title>Node14&#45;&gt;Node8</title>
<g id="a_edge33_Node000014_Node000008"><a xlink:title=" ">
<path fill="none" stroke="#63b8ff" d="M627.81,-262.2C569.51,-255.85 483.26,-242.37 463.01,-217 445.27,-194.78 474.8,-167.58 497.56,-151.3"/>
<polygon fill="#63b8ff" stroke="#63b8ff" points="499.57,-154.17 505.84,-145.63 495.62,-148.39 499.57,-154.17"/>
</a>
</g>
</g>
<!-- Node14&#45;&gt;Node9 -->
<g id="edge20_Node000014_Node000009" class="edge">
<title>Node14&#45;&gt;Node9</title>
<g id="a_edge20_Node000014_Node000009"><a xlink:title=" ">
<path fill="none" stroke="#63b8ff" d="M627.98,-262.69C579.75,-257.17 508.81,-244.74 453.01,-217 412.65,-196.94 394.84,-191.95 376.01,-151 367.14,-131.73 368.86,-106.97 371.68,-90.14"/>
<polygon fill="#63b8ff" stroke="#63b8ff" points="375.2,-90.4 373.7,-79.91 368.33,-89.05 375.2,-90.4"/>
</a>
</g>
</g>
<!-- Node14&#45;&gt;Node10 -->
<g id="edge34_Node000014_Node000010" class="edge">
<title>Node14&#45;&gt;Node10</title>
<g id="a_edge34_Node000014_Node000010"><a xlink:title=" ">
<path fill="none" stroke="#63b8ff" d="M738.05,-260.23C811.22,-251.1 944.5,-234.02 1058.01,-217 1065.91,-215.82 1074.21,-214.51 1082.4,-213.18"/>
<polygon fill="#63b8ff" stroke="#63b8ff" points="1083,-216.63 1092.3,-211.56 1081.87,-209.72 1083,-216.63"/>
</a>
</g>
</g>
<!-- Node15 -->
<g id="Node000015" class="node">
<title>Node15</title>
<g id="a_Node000015"><a xlink:title=" ">
<polygon fill="#e0e0e0" stroke="#999999" points="536.51,-211.5 471.51,-211.5 471.51,-192.5 536.51,-192.5 536.51,-211.5"/>
<text text-anchor="middle" x="504.01" y="-199.5" font-family="Helvetica,sans-Serif" font-size="10.00">exception</text>
</a>
</g>
</g>
<!-- Node14&#45;&gt;Node15 -->
<g id="edge17_Node000014_Node000015" class="edge">
<title>Node14&#45;&gt;Node15</title>
<g id="a_edge17_Node000014_Node000015"><a xlink:title=" ">
<path fill="none" stroke="#63b8ff" d="M643.72,-252.95C611.92,-241.58 567.6,-225.74 537.47,-214.96"/>
<polygon fill="#63b8ff" stroke="#63b8ff" points="538.42,-211.59 527.83,-211.52 536.07,-218.18 538.42,-211.59"/>
</a>
</g>
</g>
<!-- Node16 -->
<g id="Node000016" class="node">
<title>Node16</title>
<g id="a_Node000016"><a xlink:title=" ">
<polygon fill="#e0e0e0" stroke="#999999" points="725.01,-145.5 677.01,-145.5 677.01,-126.5 725.01,-126.5 725.01,-145.5"/>
<text text-anchor="middle" x="701.01" y="-133.5" font-family="Helvetica,sans-Serif" font-size="10.00">iosfwd</text>
</a>
</g>
</g>
<!-- Node14&#45;&gt;Node16 -->
<g id="edge18_Node000014_Node000016" class="edge">
<title>Node14&#45;&gt;Node16</title>
<g id="a_edge18_Node000014_Node000016"><a xlink:title=" ">
<path fill="none" stroke="#63b8ff" d="M684.97,-252.84C688.22,-229.34 694.74,-182.26 698.39,-155.93"/>
<polygon fill="#63b8ff" stroke="#63b8ff" points="701.89,-156.13 699.79,-145.75 694.96,-155.17 701.89,-156.13"/>
</a>
</g>
</g>
<!-- Node17 -->
<g id="Node000017" class="node">
<title>Node17</title>
<g id="a_Node000017"><a xlink:title=" ">
<polygon fill="#e0e0e0" stroke="#999999" points="658.51,-145.5 605.51,-145.5 605.51,-126.5 658.51,-126.5 658.51,-145.5"/>
<text text-anchor="middle" x="632.01" y="-133.5" font-family="Helvetica,sans-Serif" font-size="10.00">iterator</text>
</a>
</g>
</g>
<!-- Node14&#45;&gt;Node17 -->
<g id="edge19_Node000014_Node000017" class="edge">
<title>Node14&#45;&gt;Node17</title>
<g id="a_edge19_Node000014_Node000017"><a xlink:title=" ">
<path fill="none" stroke="#63b8ff" d="M677.45,-252.84C668.15,-229.13 649.43,-181.41 639.16,-155.23"/>
<polygon fill="#63b8ff" stroke="#63b8ff" points="642.35,-153.78 635.44,-145.75 635.83,-156.34 642.35,-153.78"/>
</a>
</g>
</g>
<!-- Node18 -->
<g id="Node000018" class="node">
<title>Node18</title>
<g id="a_Node000018"><a xlink:title=" ">
<polygon fill="#e0e0e0" stroke="#999999" points="635.51,-211.5 554.51,-211.5 554.51,-192.5 635.51,-192.5 635.51,-211.5"/>
<text text-anchor="middle" x="595.01" y="-199.5" font-family="Helvetica,sans-Serif" font-size="10.00">system_error</text>
</a>
</g>
</g>
<!-- Node14&#45;&gt;Node18 -->
<g id="edge23_Node000014_Node000018" class="edge">
<title>Node14&#45;&gt;Node18</title>
<g id="a_edge23_Node000014_Node000018"><a xlink:title=" ">
<path fill="none" stroke="#63b8ff" d="M663.48,-252.8C649.14,-242.37 629.71,-228.24 615.21,-217.69"/>
<polygon fill="#63b8ff" stroke="#63b8ff" points="617.06,-214.71 606.91,-211.66 612.94,-220.37 617.06,-214.71"/>
</a>
</g>
</g>
<!-- Node19 -->
<g id="Node000019" class="node">
<title>Node19</title>
<g id="a_Node000019"><a xlink:title=" ">
<polygon fill="#e0e0e0" stroke="#999999" points="932.51,-19 863.51,-19 863.51,0 932.51,0 932.51,-19"/>
<text text-anchor="middle" x="898.01" y="-7" font-family="Helvetica,sans-Serif" font-size="10.00">type_traits</text>
</a>
</g>
</g>
<!-- Node14&#45;&gt;Node19 -->
<g id="edge24_Node000014_Node000019" class="edge">
<title>Node14&#45;&gt;Node19</title>
<g id="a_edge24_Node000014_Node000019"><a xlink:title=" ">
<path fill="none" stroke="#63b8ff" d="M627.74,-263.39C554.81,-257.63 431.53,-244.12 396.01,-217 335.22,-170.59 286.12,-111.18 338.01,-55 372.72,-17.41 726.82,-11.55 853.36,-10.65"/>
<polygon fill="#63b8ff" stroke="#63b8ff" points="853.5,-14.15 863.48,-10.59 853.45,-7.15 853.5,-14.15"/>
</a>
</g>
</g>
<!-- Node20 -->
<g id="Node000020" class="node">
<title>Node20</title>
<g id="a_Node000020"><a xlink:href="../../da/d00/universal_2include_2userver_2formats_2common_2meta_8hpp.html" target="_top" xlink:title="Metaprogramming helpers for converters detection.">
<polygon fill="white" stroke="#666666" points="1016.01,-217 876.01,-217 876.01,-187 1016.01,-187 1016.01,-217"/>
<text text-anchor="start" x="884.01" y="-205" font-family="Helvetica,sans-Serif" font-size="10.00">userver/formats/common</text>
<text text-anchor="middle" x="946.01" y="-194" font-family="Helvetica,sans-Serif" font-size="10.00">/meta.hpp</text>
</a>
</g>
</g>
<!-- Node14&#45;&gt;Node20 -->
<g id="edge25_Node000014_Node000020" class="edge">
<title>Node14&#45;&gt;Node20</title>
<g id="a_edge25_Node000014_Node000020"><a xlink:title=" ">
<path fill="none" stroke="#63b8ff" d="M738.14,-253.58C778.94,-243.65 834.76,-230.07 878.28,-219.48"/>
<polygon fill="#63b8ff" stroke="#63b8ff" points="879.32,-222.83 888.21,-217.06 877.67,-216.03 879.32,-222.83"/>
</a>
</g>
</g>
<!-- Node14&#45;&gt;Node25 -->
<g id="edge35_Node000014_Node000025" class="edge">
<title>Node14&#45;&gt;Node25</title>
<g id="a_edge35_Node000014_Node000025"><a xlink:title=" ">
<path fill="none" stroke="#63b8ff" d="M738.4,-266.6C870.23,-265.02 1213.03,-257.17 1507.92,-216.99"/>
<polygon fill="#63b8ff" stroke="#63b8ff" points="1508.52,-220.44 1517.95,-215.61 1507.56,-213.51 1508.52,-220.44"/>
</a>
</g>
</g>
<!-- Node14&#45;&gt;Node32 -->
<g id="edge48_Node000014_Node000032" class="edge">
<title>Node14&#45;&gt;Node32</title>
<g id="a_edge48_Node000014_Node000032"><a xlink:title=" ">
<path fill="none" stroke="#63b8ff" d="M627.84,-260.26C549.73,-250.7 402.45,-232.64 277.01,-217 263.36,-215.3 248.77,-213.47 234.8,-211.71"/>
<polygon fill="#63b8ff" stroke="#63b8ff" points="235.12,-208.22 224.76,-210.44 234.24,-215.17 235.12,-208.22"/>
</a>
</g>
</g>
<!-- Node33 -->
<g id="Node000033" class="node">
<title>Node33</title>
<g id="a_Node000033"><a xlink:href="../../d0/d03/universal_2include_2userver_2utils_2meta_8hpp.html" target="_top" xlink:title="Metaprogramming, template variables and concepts.">
<polygon fill="white" stroke="#666666" points="857.51,-211.5 730.51,-211.5 730.51,-192.5 857.51,-192.5 857.51,-211.5"/>
<text text-anchor="middle" x="794.01" y="-199.5" font-family="Helvetica,sans-Serif" font-size="10.00">userver/utils/meta.hpp</text>
</a>
</g>
</g>
<!-- Node14&#45;&gt;Node33 -->
<g id="edge53_Node000014_Node000033" class="edge">
<title>Node14&#45;&gt;Node33</title>
<g id="a_edge53_Node000014_Node000033"><a xlink:title=" ">
<path fill="none" stroke="#63b8ff" d="M707.37,-252.95C726.15,-242.13 751.96,-227.24 770.52,-216.54"/>
<polygon fill="#63b8ff" stroke="#63b8ff" points="772.32,-219.54 779.23,-211.52 768.82,-213.48 772.32,-219.54"/>
</a>
</g>
</g>
<!-- Node20&#45;&gt;Node19 -->
<g id="edge26_Node000020_Node000019" class="edge">
<title>Node20&#45;&gt;Node19</title>
<g id="a_edge26_Node000020_Node000019"><a xlink:title=" ">
<path fill="none" stroke="#63b8ff" d="M1016.25,-187.81C1017.85,-187.53 1019.44,-187.26 1021.01,-187 1130.96,-168.57 1329.44,-210.53 1263.01,-121 1224.39,-68.96 1031.42,-31.9 942.73,-17.33"/>
<polygon fill="#63b8ff" stroke="#63b8ff" points="943.13,-13.85 932.7,-15.71 942.01,-20.76 943.13,-13.85"/>
</a>
</g>
</g>
<!-- Node21 -->
<g id="Node000021" class="node">
<title>Node21</title>
<g id="a_Node000021"><a xlink:href="../../d2/dc8/universal_2include_2userver_2formats_2parse_2to_8hpp.html" target="_top" xlink:title="Helper for parsers.">
<polygon fill="white" stroke="#666666" points="1096.51,-151 971.51,-151 971.51,-121 1096.51,-121 1096.51,-151"/>
<text text-anchor="start" x="979.51" y="-139" font-family="Helvetica,sans-Serif" font-size="10.00">userver/formats/parse</text>
<text text-anchor="middle" x="1034.01" y="-128" font-family="Helvetica,sans-Serif" font-size="10.00">/to.hpp</text>
</a>
</g>
</g>
<!-- Node20&#45;&gt;Node21 -->
<g id="edge27_Node000020_Node000021" class="edge">
<title>Node20&#45;&gt;Node21</title>
<g id="a_edge27_Node000020_Node000021"><a xlink:title=" ">
<path fill="none" stroke="#63b8ff" d="M965.54,-186.8C977.5,-178.1 993,-166.82 1006.23,-157.2"/>
<polygon fill="#63b8ff" stroke="#63b8ff" points="1008.5,-159.88 1014.53,-151.16 1004.38,-154.22 1008.5,-159.88"/>
</a>
</g>
</g>
<!-- Node22 -->
<g id="Node000022" class="node">
<title>Node22</title>
<g id="a_Node000022"><a xlink:href="../../d6/d8e/universal_2include_2userver_2formats_2serialize_2to_8hpp.html" target="_top" xlink:title="Helper for serializers.">
<polygon fill="white" stroke="#666666" points="1253.51,-151 1114.51,-151 1114.51,-121 1253.51,-121 1253.51,-151"/>
<text text-anchor="start" x="1122.51" y="-139" font-family="Helvetica,sans-Serif" font-size="10.00">userver/formats/serialize</text>
<text text-anchor="middle" x="1184.01" y="-128" font-family="Helvetica,sans-Serif" font-size="10.00">/to.hpp</text>
</a>
</g>
</g>
<!-- Node20&#45;&gt;Node22 -->
<g id="edge28_Node000020_Node000022" class="edge">
<title>Node20&#45;&gt;Node22</title>
<g id="a_edge28_Node000020_Node000022"><a xlink:title=" ">
<path fill="none" stroke="#63b8ff" d="M998.24,-186.95C1034.66,-177.16 1083.43,-164.05 1121.86,-153.71"/>
<polygon fill="#63b8ff" stroke="#63b8ff" points="1123.15,-156.99 1131.9,-151.01 1121.33,-150.23 1123.15,-156.99"/>
</a>
</g>
</g>
<!-- Node23 -->
<g id="Node000023" class="node">
<title>Node23</title>
<g id="a_Node000023"><a xlink:href="../../d3/da0/meta__light_8hpp.html" target="_top" xlink:title="Lightweight concepts.">
<polygon fill="white" stroke="#666666" points="953.01,-151 847.01,-151 847.01,-121 953.01,-121 953.01,-151"/>
<text text-anchor="start" x="855.01" y="-139" font-family="Helvetica,sans-Serif" font-size="10.00">userver/utils/meta</text>
<text text-anchor="middle" x="900.01" y="-128" font-family="Helvetica,sans-Serif" font-size="10.00">_light.hpp</text>
</a>
</g>
</g>
<!-- Node20&#45;&gt;Node23 -->
<g id="edge29_Node000020_Node000023" class="edge">
<title>Node20&#45;&gt;Node23</title>
<g id="a_edge29_Node000020_Node000023"><a xlink:title=" ">
<path fill="none" stroke="#63b8ff" d="M935.8,-186.8C930.02,-178.76 922.67,-168.53 916.13,-159.43"/>
<polygon fill="#63b8ff" stroke="#63b8ff" points="918.87,-157.24 910.19,-151.16 913.18,-161.33 918.87,-157.24"/>
</a>
</g>
</g>
<!-- Node23&#45;&gt;Node19 -->
<g id="edge30_Node000023_Node000019" class="edge">
<title>Node23&#45;&gt;Node19</title>
<g id="a_edge30_Node000023_Node000019"><a xlink:title=" ">
<path fill="none" stroke="#63b8ff" d="M924.59,-120.99C937.09,-112.38 951.08,-100.11 958.01,-85 963.56,-72.88 964,-66.91 958.01,-55 951.32,-41.71 938.57,-31.39 926.54,-24.05"/>
<polygon fill="#63b8ff" stroke="#63b8ff" points="928.02,-20.87 917.59,-19.02 924.59,-26.97 928.02,-20.87"/>
</a>
</g>
</g>
<!-- Node24 -->
<g id="Node000024" class="node">
<title>Node24</title>
<g id="a_Node000024"><a xlink:href="../../d9/dce/void__t_8hpp.html" target="_top" xlink:title="std::void_t implementation with workarounds for compiler bugs">
<polygon fill="white" stroke="#666666" points="948.51,-85 847.51,-85 847.51,-55 948.51,-55 948.51,-85"/>
<text text-anchor="start" x="855.51" y="-73" font-family="Helvetica,sans-Serif" font-size="10.00">userver/utils/void</text>
<text text-anchor="middle" x="898.01" y="-62" font-family="Helvetica,sans-Serif" font-size="10.00">_t.hpp</text>
</a>
</g>
</g>
<!-- Node23&#45;&gt;Node24 -->
<g id="edge31_Node000023_Node000024" class="edge">
<title>Node23&#45;&gt;Node24</title>
<g id="a_edge31_Node000023_Node000024"><a xlink:title=" ">
<path fill="none" stroke="#63b8ff" d="M899.56,-120.8C899.33,-113.34 899.04,-103.99 898.77,-95.41"/>
<polygon fill="#63b8ff" stroke="#63b8ff" points="902.26,-95.05 898.45,-85.16 895.26,-95.27 902.26,-95.05"/>
</a>
</g>
</g>
<!-- Node24&#45;&gt;Node19 -->
<g id="edge32_Node000024_Node000019" class="edge">
<title>Node24&#45;&gt;Node19</title>
<g id="a_edge32_Node000024_Node000019"><a xlink:title=" ">
<path fill="none" stroke="#63b8ff" d="M898.01,-54.84C898.01,-47.21 898.01,-37.7 898.01,-29.45"/>
<polygon fill="#63b8ff" stroke="#63b8ff" points="901.51,-29.27 898.01,-19.27 894.51,-29.27 901.51,-29.27"/>
</a>
</g>
</g>
<!-- Node25&#45;&gt;Node6 -->
<g id="edge41_Node000025_Node000006" class="edge">
<title>Node25&#45;&gt;Node6</title>
<g id="a_edge41_Node000025_Node000006"><a xlink:title=" ">
<path fill="none" stroke="#63b8ff" d="M1561.69,-186.8C1553.89,-177.01 1543.51,-163.98 1535.31,-153.7"/>
<polygon fill="#63b8ff" stroke="#63b8ff" points="1538.02,-151.48 1529.05,-145.84 1532.55,-155.85 1538.02,-151.48"/>
</a>
</g>
</g>
<!-- Node25&#45;&gt;Node8 -->
<g id="edge42_Node000025_Node000008" class="edge">
<title>Node25&#45;&gt;Node8</title>
<g id="a_edge42_Node000025_Node000008"><a xlink:title=" ">
<path fill="none" stroke="#63b8ff" d="M1517.96,-188.31C1514.94,-187.82 1511.94,-187.38 1509.01,-187 1106.65,-135.46 1000.22,-195.39 597.01,-151 588.56,-150.07 579.65,-148.76 571,-147.31"/>
<polygon fill="#63b8ff" stroke="#63b8ff" points="571.46,-143.84 561.01,-145.56 570.25,-150.73 571.46,-143.84"/>
</a>
</g>
</g>
<!-- Node25&#45;&gt;Node12 -->
<g id="edge37_Node000025_Node000012" class="edge">
<title>Node25&#45;&gt;Node12</title>
<g id="a_edge37_Node000025_Node000012"><a xlink:title=" ">
<path fill="none" stroke="#63b8ff" d="M1532.55,-186.98C1505.34,-177.35 1468.79,-164 1437.01,-151 1435.84,-150.52 1434.65,-150.03 1433.45,-149.52"/>
<polygon fill="#63b8ff" stroke="#63b8ff" points="1434.84,-146.31 1424.27,-145.51 1432.03,-152.72 1434.84,-146.31"/>
</a>
</g>
</g>
<!-- Node26 -->
<g id="Node000026" class="node">
<title>Node26</title>
<g id="a_Node000026"><a xlink:title=" ">
<polygon fill="#e0e0e0" stroke="#999999" points="1816.51,-145.5 1733.51,-145.5 1733.51,-126.5 1816.51,-126.5 1816.51,-145.5"/>
<text text-anchor="middle" x="1775.01" y="-133.5" font-family="Helvetica,sans-Serif" font-size="10.00">initializer_list</text>
</a>
</g>
</g>
<!-- Node25&#45;&gt;Node26 -->
<g id="edge36_Node000025_Node000026" class="edge">
<title>Node25&#45;&gt;Node26</title>
<g id="a_edge36_Node000025_Node000026"><a xlink:title=" ">
<path fill="none" stroke="#63b8ff" d="M1617.34,-186.95C1653.7,-175.43 1704.55,-159.32 1738.57,-148.54"/>
<polygon fill="#63b8ff" stroke="#63b8ff" points="1739.65,-151.87 1748.12,-145.52 1737.53,-145.2 1739.65,-151.87"/>
</a>
</g>
</g>
<!-- Node27 -->
<g id="Node000027" class="node">
<title>Node27</title>
<g id="a_Node000027"><a xlink:title=" ">
<polygon fill="#e0e0e0" stroke="#999999" points="1921.51,-79.5 1876.51,-79.5 1876.51,-60.5 1921.51,-60.5 1921.51,-79.5"/>
<text text-anchor="middle" x="1899.01" y="-67.5" font-family="Helvetica,sans-Serif" font-size="10.00">utility</text>
</a>
</g>
</g>
<!-- Node25&#45;&gt;Node27 -->
<g id="edge38_Node000025_Node000027" class="edge">
<title>Node25&#45;&gt;Node27</title>
<g id="a_edge38_Node000025_Node000027"><a xlink:title=" ">
<path fill="none" stroke="#63b8ff" d="M1628.4,-199.33C1748.82,-195.13 2025.93,-182.14 2054.01,-151 2092.58,-108.21 1988.23,-84.84 1932.07,-75.65"/>
<polygon fill="#63b8ff" stroke="#63b8ff" points="1932.29,-72.15 1921.86,-74.05 1931.2,-79.06 1932.29,-72.15"/>
</a>
</g>
</g>
<!-- Node28 -->
<g id="Node000028" class="node">
<title>Node28</title>
<g id="a_Node000028"><a xlink:title=" ">
<polygon fill="#e0e0e0" stroke="#999999" points="1885.51,-145.5 1834.51,-145.5 1834.51,-126.5 1885.51,-126.5 1885.51,-145.5"/>
<text text-anchor="middle" x="1860.01" y="-133.5" font-family="Helvetica,sans-Serif" font-size="10.00">variant</text>
</a>
</g>
</g>
<!-- Node25&#45;&gt;Node28 -->
<g id="edge39_Node000025_Node000028" class="edge">
<title>Node25&#45;&gt;Node28</title>
<g id="a_edge39_Node000025_Node000028"><a xlink:title=" ">
<path fill="none" stroke="#63b8ff" d="M1628.05,-193.3C1679.81,-185.32 1759.13,-171.16 1826.01,-151 1827.89,-150.43 1829.8,-149.8 1831.73,-149.13"/>
<polygon fill="#63b8ff" stroke="#63b8ff" points="1833.09,-152.35 1841.18,-145.52 1830.59,-145.81 1833.09,-152.35"/>
</a>
</g>
</g>
<!-- Node29 -->
<g id="Node000029" class="node">
<title>Node29</title>
<g id="a_Node000029"><a xlink:title=" ">
<polygon fill="#e0e0e0" stroke="#999999" points="2044.51,-151 1903.51,-151 1903.51,-121 2044.51,-121 2044.51,-151"/>
<text text-anchor="start" x="1911.51" y="-139" font-family="Helvetica,sans-Serif" font-size="10.00">boost/container/container</text>
<text text-anchor="middle" x="1974.01" y="-128" font-family="Helvetica,sans-Serif" font-size="10.00">_fwd.hpp</text>
</a>
</g>
</g>
<!-- Node25&#45;&gt;Node29 -->
<g id="edge40_Node000025_Node000029" class="edge">
<title>Node25&#45;&gt;Node29</title>
<g id="a_edge40_Node000025_Node000029"><a xlink:title=" ">
<path fill="none" stroke="#63b8ff" d="M1628.04,-192.82C1690.13,-183.51 1794.4,-167.63 1893.5,-151.23"/>
<polygon fill="#63b8ff" stroke="#63b8ff" points="1894.09,-154.68 1903.38,-149.59 1892.95,-147.78 1894.09,-154.68"/>
</a>
</g>
</g>
<!-- Node30 -->
<g id="Node000030" class="node">
<title>Node30</title>
<g id="a_Node000030"><a xlink:href="../../d5/d02/fast__pimpl_8hpp.html" target="_top" xlink:title="Implements pimpl idiom without dynamic memory allocation.">
<polygon fill="white" stroke="#666666" points="1715.51,-151 1616.51,-151 1616.51,-121 1715.51,-121 1715.51,-151"/>
<text text-anchor="start" x="1624.51" y="-139" font-family="Helvetica,sans-Serif" font-size="10.00">userver/utils/fast</text>
<text text-anchor="middle" x="1666.01" y="-128" font-family="Helvetica,sans-Serif" font-size="10.00">_pimpl.hpp</text>
</a>
</g>
</g>
<!-- Node25&#45;&gt;Node30 -->
<g id="edge43_Node000025_Node000030" class="edge">
<title>Node25&#45;&gt;Node30</title>
<g id="a_edge43_Node000025_Node000030"><a xlink:title=" ">
<path fill="none" stroke="#63b8ff" d="M1593.65,-186.8C1606.41,-178.01 1622.98,-166.61 1637.05,-156.93"/>
<polygon fill="#63b8ff" stroke="#63b8ff" points="1639.17,-159.72 1645.42,-151.16 1635.2,-153.95 1639.17,-159.72"/>
</a>
</g>
</g>
<!-- Node30&#45;&gt;Node7 -->
<g id="edge44_Node000030_Node000007" class="edge">
<title>Node30&#45;&gt;Node7</title>
<g id="a_edge44_Node000030_Node000007"><a xlink:title=" ">
<path fill="none" stroke="#63b8ff" d="M1636.6,-120.95C1613.51,-109.93 1581.62,-94.7 1559.14,-83.96"/>
<polygon fill="#63b8ff" stroke="#63b8ff" points="1560.37,-80.67 1549.84,-79.52 1557.35,-86.99 1560.37,-80.67"/>
</a>
</g>
</g>
<!-- Node30&#45;&gt;Node19 -->
<g id="edge46_Node000030_Node000019" class="edge">
<title>Node30&#45;&gt;Node19</title>
<g id="a_edge46_Node000030_Node000019"><a xlink:title=" ">
<path fill="none" stroke="#63b8ff" d="M1654.1,-120.92C1637.18,-102.04 1604.17,-69.26 1568.01,-55 1453.7,-9.94 1073.38,-8.92 942.62,-9.96"/>
<polygon fill="#63b8ff" stroke="#63b8ff" points="942.52,-6.46 932.55,-10.05 942.58,-13.46 942.52,-6.46"/>
</a>
</g>
</g>
<!-- Node30&#45;&gt;Node27 -->
<g id="edge47_Node000030_Node000027" class="edge">
<title>Node30&#45;&gt;Node27</title>
<g id="a_edge47_Node000030_Node000027"><a xlink:title=" ">
<path fill="none" stroke="#63b8ff" d="M1715.7,-121.35C1761.22,-108.85 1827.29,-90.7 1866.43,-79.95"/>
<polygon fill="#63b8ff" stroke="#63b8ff" points="1867.52,-83.28 1876.24,-77.25 1865.67,-76.53 1867.52,-83.28"/>
</a>
</g>
</g>
<!-- Node31 -->
<g id="Node000031" class="node">
<title>Node31</title>
<g id="a_Node000031"><a xlink:title=" ">
<polygon fill="#e0e0e0" stroke="#999999" points="1684.51,-79.5 1647.51,-79.5 1647.51,-60.5 1684.51,-60.5 1684.51,-79.5"/>
<text text-anchor="middle" x="1666.01" y="-67.5" font-family="Helvetica,sans-Serif" font-size="10.00">new</text>
</a>
</g>
</g>
<!-- Node30&#45;&gt;Node31 -->
<g id="edge45_Node000030_Node000031" class="edge">
<title>Node30&#45;&gt;Node31</title>
<g id="a_edge45_Node000030_Node000031"><a xlink:title=" ">
<path fill="none" stroke="#63b8ff" d="M1666.01,-120.8C1666.01,-111.7 1666.01,-99.79 1666.01,-89.9"/>
<polygon fill="#63b8ff" stroke="#63b8ff" points="1669.51,-89.84 1666.01,-79.84 1662.51,-89.84 1669.51,-89.84"/>
</a>
</g>
</g>
<!-- Node32&#45;&gt;Node3 -->
<g id="edge50_Node000032_Node000003" class="edge">
<title>Node32&#45;&gt;Node3</title>
<g id="a_edge50_Node000032_Node000003"><a xlink:title=" ">
<path fill="none" stroke="#63b8ff" d="M163.69,-186.9C160.83,-170.75 155.44,-143.58 148.01,-121 144.39,-110.02 139.23,-98.16 134.82,-88.74"/>
<polygon fill="#63b8ff" stroke="#63b8ff" points="137.93,-87.13 130.43,-79.65 131.62,-90.18 137.93,-87.13"/>
</a>
</g>
</g>
<!-- Node32&#45;&gt;Node11 -->
<g id="edge49_Node000032_Node000011" class="edge">
<title>Node32&#45;&gt;Node11</title>
<g id="a_edge49_Node000032_Node000011"><a xlink:title=" ">
<path fill="none" stroke="#63b8ff" d="M219.55,-186.95C266.89,-174.54 334.54,-156.79 375.18,-146.13"/>
<polygon fill="#63b8ff" stroke="#63b8ff" points="376.12,-149.51 384.9,-143.58 374.34,-142.74 376.12,-149.51"/>
</a>
</g>
</g>
<!-- Node32&#45;&gt;Node13 -->
<g id="edge52_Node000032_Node000013" class="edge">
<title>Node32&#45;&gt;Node13</title>
<g id="a_edge52_Node000032_Node000013"><a xlink:title=" ">
<path fill="none" stroke="#63b8ff" d="M147.81,-186.8C136.77,-178.18 122.49,-167.04 110.24,-157.48"/>
<polygon fill="#63b8ff" stroke="#63b8ff" points="112.19,-154.56 102.15,-151.16 107.88,-160.08 112.19,-154.56"/>
</a>
</g>
</g>
<!-- Node32&#45;&gt;Node19 -->
<g id="edge51_Node000032_Node000019" class="edge">
<title>Node32&#45;&gt;Node19</title>
<g id="a_edge51_Node000032_Node000019"><a xlink:title=" ">
<path fill="none" stroke="#63b8ff" d="M174.25,-186.94C192.99,-156.5 242.07,-84.82 305.01,-55 354.12,-31.73 723.57,-16.64 853.21,-12.01"/>
<polygon fill="#63b8ff" stroke="#63b8ff" points="853.33,-15.51 863.2,-11.66 853.09,-8.51 853.33,-15.51"/>
</a>
</g>
</g>
<!-- Node33&#45;&gt;Node2 -->
<g id="edge56_Node000033_Node000002" class="edge">
<title>Node33&#45;&gt;Node2</title>
<g id="a_edge56_Node000033_Node000002"><a xlink:title=" ">
<path fill="none" stroke="#63b8ff" d="M834.81,-192.44C845.27,-190.44 856.53,-188.48 867.01,-187 1042,-162.33 1087.95,-175.24 1263.01,-151 1275.08,-149.33 1288.17,-147.05 1299.98,-144.81"/>
<polygon fill="#63b8ff" stroke="#63b8ff" points="1300.82,-148.22 1309.97,-142.88 1299.49,-141.34 1300.82,-148.22"/>
</a>
</g>
</g>
<!-- Node33&#45;&gt;Node16 -->
<g id="edge54_Node000033_Node000016" class="edge">
<title>Node33&#45;&gt;Node16</title>
<g id="a_edge54_Node000033_Node000016"><a xlink:title=" ">
<path fill="none" stroke="#63b8ff" d="M781.46,-192.37C766.21,-181.87 740.24,-164 721.93,-151.4"/>
<polygon fill="#63b8ff" stroke="#63b8ff" points="723.87,-148.48 713.65,-145.7 719.9,-154.25 723.87,-148.48"/>
</a>
</g>
</g>
<!-- Node33&#45;&gt;Node17 -->
<g id="edge55_Node000033_Node000017" class="edge">
<title>Node33&#45;&gt;Node17</title>
<g id="a_edge55_Node000033_Node000017"><a xlink:title=" ">
<path fill="none" stroke="#63b8ff" d="M772.16,-192.37C744.06,-181.27 695.08,-161.92 663.1,-149.28"/>
<polygon fill="#63b8ff" stroke="#63b8ff" points="664.35,-146.02 653.77,-145.6 661.78,-152.53 664.35,-146.02"/>
</a>
</g>
</g>
<!-- Node33&#45;&gt;Node19 -->
<g id="edge57_Node000033_Node000019" class="edge">
<title>Node33&#45;&gt;Node19</title>
<g id="a_edge57_Node000033_Node000019"><a xlink:title=" ">
<path fill="none" stroke="#63b8ff" d="M794.82,-192.29C797.42,-168.32 807.32,-100.16 839.01,-55 847.76,-42.53 861.08,-32.05 872.85,-24.41"/>
<polygon fill="#63b8ff" stroke="#63b8ff" points="874.77,-27.34 881.45,-19.12 871.1,-21.37 874.77,-27.34"/>
</a>
</g>
</g>
<!-- Node33&#45;&gt;Node23 -->
<g id="edge59_Node000033_Node000023" class="edge">
<title>Node33&#45;&gt;Node23</title>
<g id="a_edge59_Node000033_Node000023"><a xlink:title=" ">
<path fill="none" stroke="#63b8ff" d="M808.3,-192.37C823.49,-183.2 848.01,-168.39 867.88,-156.4"/>
<polygon fill="#63b8ff" stroke="#63b8ff" points="869.88,-159.28 876.63,-151.12 866.26,-153.29 869.88,-159.28"/>
</a>
</g>
</g>
<!-- Node34 -->
<g id="Node000034" class="node">
<title>Node34</title>
<g id="a_Node000034"><a xlink:title=" ">
<polygon fill="#e0e0e0" stroke="#999999" points="790.51,-145.5 743.51,-145.5 743.51,-126.5 790.51,-126.5 790.51,-145.5"/>
<text text-anchor="middle" x="767.01" y="-133.5" font-family="Helvetica,sans-Serif" font-size="10.00">vector</text>
</a>
</g>
</g>
<!-- Node33&#45;&gt;Node34 -->
<g id="edge58_Node000033_Node000034" class="edge">
<title>Node33&#45;&gt;Node34</title>
<g id="a_edge58_Node000033_Node000034"><a xlink:title=" ">
<path fill="none" stroke="#63b8ff" d="M790.36,-192.37C786.36,-182.88 779.81,-167.36 774.67,-155.16"/>
<polygon fill="#63b8ff" stroke="#63b8ff" points="777.87,-153.76 770.76,-145.91 771.43,-156.48 777.87,-153.76"/>
</a>
</g>
</g>
<!-- Node35&#45;&gt;Node2 -->
<g id="edge64_Node000035_Node000002" class="edge">
<title>Node35&#45;&gt;Node2</title>
<g id="a_edge64_Node000035_Node000002"><a xlink:title=" ">
<path fill="none" stroke="#63b8ff" d="M1390.58,-252.84C1379.77,-229.02 1357.97,-180.99 1346.12,-154.88"/>
<polygon fill="#63b8ff" stroke="#63b8ff" points="1349.3,-153.41 1341.98,-145.75 1342.92,-156.3 1349.3,-153.41"/>
</a>
</g>
</g>
<!-- Node35&#45;&gt;Node5 -->
<g id="edge63_Node000035_Node000005" class="edge">
<title>Node35&#45;&gt;Node5</title>
<g id="a_edge63_Node000035_Node000005"><a xlink:title=" ">
<path fill="none" stroke="#63b8ff" d="M1365.84,-252.95C1341.16,-241.83 1306.98,-226.42 1283.12,-215.67"/>
<polygon fill="#63b8ff" stroke="#63b8ff" points="1284.46,-212.44 1273.9,-211.52 1281.58,-218.82 1284.46,-212.44"/>
</a>
</g>
</g>
<!-- Node35&#45;&gt;Node12 -->
<g id="edge65_Node000035_Node000012" class="edge">
<title>Node35&#45;&gt;Node12</title>
<g id="a_edge65_Node000035_Node000012"><a xlink:title=" ">
<path fill="none" stroke="#63b8ff" d="M1397.99,-252.84C1399.61,-229.34 1402.87,-182.26 1404.7,-155.93"/>
<polygon fill="#63b8ff" stroke="#63b8ff" points="1408.2,-155.97 1405.4,-145.75 1401.22,-155.48 1408.2,-155.97"/>
</a>
</g>
</g>
<!-- Node35&#45;&gt;Node25 -->
<g id="edge66_Node000035_Node000025" class="edge">
<title>Node35&#45;&gt;Node25</title>
<g id="a_edge66_Node000035_Node000025"><a xlink:title=" ">
<path fill="none" stroke="#63b8ff" d="M1435.63,-252.95C1461.88,-243.41 1496.8,-230.71 1524.86,-220.51"/>
<polygon fill="#63b8ff" stroke="#63b8ff" points="1526.27,-223.72 1534.47,-217.01 1523.88,-217.14 1526.27,-223.72"/>
</a>
</g>
</g>
<!-- Node36 -->
<g id="Node000036" class="node">
<title>Node36</title>
<g id="a_Node000036"><a xlink:title=" ">
<polygon fill="#e0e0e0" stroke="#999999" points="1500.01,-211.5 1450.01,-211.5 1450.01,-192.5 1500.01,-192.5 1500.01,-211.5"/>
<text text-anchor="middle" x="1475.01" y="-199.5" font-family="Helvetica,sans-Serif" font-size="10.00">atomic</text>
</a>
</g>
</g>
<!-- Node35&#45;&gt;Node36 -->
<g id="edge62_Node000035_Node000036" class="edge">
<title>Node35&#45;&gt;Node36</title>
<g id="a_edge62_Node000035_Node000036"><a xlink:title=" ">
<path fill="none" stroke="#63b8ff" d="M1414.32,-252.8C1426.72,-242.62 1443.4,-228.93 1456.14,-218.48"/>
<polygon fill="#63b8ff" stroke="#63b8ff" points="1458.72,-220.89 1464.23,-211.84 1454.28,-215.48 1458.72,-220.89"/>
</a>
</g>
</g>
<!-- Node37&#45;&gt;Node9 -->
<g id="edge68_Node000037_Node000009" class="edge">
<title>Node37&#45;&gt;Node9</title>
<g id="a_edge68_Node000037_Node000009"><a xlink:title=" ">
<path fill="none" stroke="#63b8ff" d="M249.79,-252.9C274.15,-217.79 337.51,-126.48 364.05,-88.24"/>
<polygon fill="#63b8ff" stroke="#63b8ff" points="367.13,-89.94 369.95,-79.73 361.37,-85.95 367.13,-89.94"/>
</a>
</g>
</g>
</g>
</svg>
