<?xml version="1.0" encoding="UTF-8" standalone="no"?>
<!DOCTYPE svg PUBLIC "-//W3C//DTD SVG 1.1//EN"
 "http://www.w3.org/Graphics/SVG/1.1/DTD/svg11.dtd">
<!-- Generated by graphviz version 2.43.0 (0)
 -->
<!-- Title: storages::postgres::InstanceStatsDescriptor Pages: 1 -->
<svg width="1090pt" height="139pt"
 viewBox="0.00 0.00 1090.00 139.00" xmlns="http://www.w3.org/2000/svg" xmlns:xlink="http://www.w3.org/1999/xlink">
<g id="graph0" class="graph" transform="scale(1 1) rotate(0) translate(4 135)">
<title>storages::postgres::InstanceStatsDescriptor</title>
<!-- Node1 -->
<g id="Node000001" class="node">
<title>Node1</title>
<g id="a_Node000001"><a xlink:title="Instance statistics with description.">
<polygon fill="#999999" stroke="#666666" points="1082,-37 943,-37 943,-7 1082,-7 1082,-37"/>
<text text-anchor="start" x="951" y="-25" font-family="Helvetica,sans-Serif" font-size="10.00">storages::postgres</text>
<text text-anchor="middle" x="1012.5" y="-14" font-family="Helvetica,sans-Serif" font-size="10.00">::InstanceStatsDescriptor</text>
</a>
</g>
</g>
<!-- Node2 -->
<g id="Node000002" class="node">
<title>Node2</title>
<g id="a_Node000002"><a xlink:title=" ">
<polygon fill="white" stroke="#666666" points="285,-24.5 220,-24.5 220,-5.5 285,-5.5 285,-24.5"/>
<text text-anchor="middle" x="252.5" y="-12.5" font-family="Helvetica,sans-Serif" font-size="10.00">std::string</text>
</a>
</g>
</g>
<!-- Node2&#45;&gt;Node1 -->
<g id="edge1_Node000001_Node000002" class="edge">
<title>Node2&#45;&gt;Node1</title>
<g id="a_edge1_Node000001_Node000002"><a xlink:title=" ">
<path fill="none" stroke="#9a32cd" stroke-dasharray="5,2" d="M295.36,-15.39C419.94,-16.54 789.13,-19.95 942.99,-21.37"/>
<polygon fill="#9a32cd" stroke="#9a32cd" points="295.14,-11.88 285.11,-15.29 295.07,-18.88 295.14,-11.88"/>
</a>
</g>
<text text-anchor="middle" x="647" y="-23" font-family="Helvetica,sans-Serif" font-size="10.00" fill="grey"> host_port</text>
</g>
<!-- Node6 -->
<g id="Node000006" class="node">
<title>Node6</title>
<g id="a_Node000006"><a xlink:title=" ">
<polygon fill="white" stroke="#666666" points="576,-75.5 398,-75.5 398,-34.5 576,-34.5 576,-75.5"/>
<text text-anchor="start" x="406" y="-63.5" font-family="Helvetica,sans-Serif" font-size="10.00">std::unordered_map</text>
<text text-anchor="start" x="406" y="-52.5" font-family="Helvetica,sans-Serif" font-size="10.00">&lt; std::string, storages</text>
<text text-anchor="middle" x="487" y="-41.5" font-family="Helvetica,sans-Serif" font-size="10.00">::postgres::StatementStatistics &gt;</text>
</a>
</g>
</g>
<!-- Node2&#45;&gt;Node6 -->
<g id="edge6_Node000006_Node000002" class="edge">
<title>Node2&#45;&gt;Node6</title>
<g id="a_edge6_Node000006_Node000002"><a xlink:title=" ">
<path fill="none" stroke="#9a32cd" stroke-dasharray="5,2" d="M295.37,-22.2C323.92,-27.12 362.8,-33.8 398,-39.86"/>
<polygon fill="#9a32cd" stroke="#9a32cd" points="295.79,-18.72 285.34,-20.48 294.6,-25.62 295.79,-18.72"/>
</a>
</g>
<text text-anchor="middle" x="354.5" y="-40" font-family="Helvetica,sans-Serif" font-size="10.00" fill="grey"> keys</text>
</g>
<!-- Node3 -->
<g id="Node000003" class="node">
<title>Node3</title>
<g id="a_Node000003"><a xlink:title=" ">
<polygon fill="white" stroke="#666666" points="108,-30 4,-30 4,0 108,0 108,-30"/>
<text text-anchor="start" x="12" y="-18" font-family="Helvetica,sans-Serif" font-size="10.00">std::basic_string&lt;</text>
<text text-anchor="middle" x="56" y="-7" font-family="Helvetica,sans-Serif" font-size="10.00"> Char &gt;</text>
</a>
</g>
</g>
<!-- Node3&#45;&gt;Node2 -->
<g id="edge2_Node000002_Node000003" class="edge">
<title>Node3&#45;&gt;Node2</title>
<g id="a_edge2_Node000002_Node000003"><a xlink:title=" ">
<path fill="none" stroke="#63b8ff" d="M118.33,-15C152.06,-15 192.5,-15 219.9,-15"/>
<polygon fill="#63b8ff" stroke="#63b8ff" points="118.1,-11.5 108.1,-15 118.1,-18.5 118.1,-11.5"/>
</a>
</g>
</g>
<!-- Node4 -->
<g id="Node000004" class="node">
<title>Node4</title>
<g id="a_Node000004"><a xlink:href="../../d6/d2a/structstorages_1_1postgres_1_1InstanceStatisticsNonatomic.html" target="_top" xlink:title=" ">
<polygon fill="white" stroke="#bfbfbf" points="879,-70 717,-70 717,-40 879,-40 879,-70"/>
<text text-anchor="start" x="725" y="-58" font-family="Helvetica,sans-Serif" font-size="10.00">storages::postgres</text>
<text text-anchor="middle" x="798" y="-47" font-family="Helvetica,sans-Serif" font-size="10.00">::InstanceStatisticsNonatomic</text>
</a>
</g>
</g>
<!-- Node4&#45;&gt;Node1 -->
<g id="edge3_Node000001_Node000004" class="edge">
<title>Node4&#45;&gt;Node1</title>
<g id="a_edge3_Node000001_Node000004"><a xlink:title=" ">
<path fill="none" stroke="#9a32cd" stroke-dasharray="5,2" d="M888.94,-41.03C906.92,-38.24 925.54,-35.35 942.67,-32.69"/>
<polygon fill="#9a32cd" stroke="#9a32cd" points="888.38,-37.58 879.03,-42.57 889.45,-44.5 888.38,-37.58"/>
</a>
</g>
<text text-anchor="middle" x="911" y="-43" font-family="Helvetica,sans-Serif" font-size="10.00" fill="grey"> stats</text>
</g>
<!-- Node5 -->
<g id="Node000005" class="node">
<title>Node5</title>
<g id="a_Node000005"><a xlink:href="../../df/d1c/structstorages_1_1postgres_1_1InstanceStatisticsTemplate.html" target="_top" xlink:title="Template instance statistics storage.">
<polygon fill="white" stroke="#666666" points="577,-112.5 397,-112.5 397,-93.5 577,-93.5 577,-112.5"/>
<text text-anchor="middle" x="487" y="-100.5" font-family="Helvetica,sans-Serif" font-size="10.00">InstanceStatisticsNonatomicBase</text>
</a>
</g>
</g>
<!-- Node5&#45;&gt;Node4 -->
<g id="edge4_Node000004_Node000005" class="edge">
<title>Node5&#45;&gt;Node4</title>
<g id="a_edge4_Node000004_Node000005"><a xlink:title=" ">
<path fill="none" stroke="#63b8ff" d="M559.53,-91.89C606.58,-84.58 668.24,-75 716.93,-67.44"/>
<polygon fill="#63b8ff" stroke="#63b8ff" points="558.76,-88.47 549.42,-93.46 559.84,-95.38 558.76,-88.47"/>
</a>
</g>
</g>
<!-- Node6&#45;&gt;Node4 -->
<g id="edge5_Node000004_Node000006" class="edge">
<title>Node6&#45;&gt;Node4</title>
<g id="a_edge5_Node000004_Node000006"><a xlink:title=" ">
<path fill="none" stroke="#9a32cd" stroke-dasharray="5,2" d="M586.14,-55C628.32,-55 676.99,-55 716.94,-55"/>
<polygon fill="#9a32cd" stroke="#9a32cd" points="586.13,-51.5 576.13,-55 586.13,-58.5 586.13,-51.5"/>
</a>
</g>
<text text-anchor="middle" x="647" y="-58" font-family="Helvetica,sans-Serif" font-size="10.00" fill="grey"> per_statement_stats</text>
</g>
<!-- Node7 -->
<g id="Node000007" class="node">
<title>Node7</title>
<g id="a_Node000007"><a xlink:href="../../d3/d6e/structstorages_1_1postgres_1_1StatementStatistics.html" target="_top" xlink:title=" ">
<polygon fill="white" stroke="#bfbfbf" points="312,-88 193,-88 193,-58 312,-58 312,-88"/>
<text text-anchor="start" x="201" y="-76" font-family="Helvetica,sans-Serif" font-size="10.00">storages::postgres</text>
<text text-anchor="middle" x="252.5" y="-65" font-family="Helvetica,sans-Serif" font-size="10.00">::StatementStatistics</text>
</a>
</g>
</g>
<!-- Node7&#45;&gt;Node6 -->
<g id="edge7_Node000006_Node000007" class="edge">
<title>Node7&#45;&gt;Node6</title>
<g id="a_edge7_Node000006_Node000007"><a xlink:title=" ">
<path fill="none" stroke="#9a32cd" stroke-dasharray="5,2" d="M322.45,-67.66C346.11,-65.83 372.92,-63.75 397.88,-61.82"/>
<polygon fill="#9a32cd" stroke="#9a32cd" points="321.87,-64.2 312.17,-68.46 322.41,-71.18 321.87,-64.2"/>
</a>
</g>
<text text-anchor="middle" x="354.5" y="-69" font-family="Helvetica,sans-Serif" font-size="10.00" fill="grey"> elements</text>
</g>
<!-- Node8 -->
<g id="Node000008" class="node">
<title>Node8</title>
<g id="a_Node000008"><a xlink:href="../../df/d18/classutils_1_1statistics_1_1Percentile.html" target="_top" xlink:title=" ">
<polygon fill="white" stroke="#666666" points="112,-131 0,-131 0,-101 112,-101 112,-131"/>
<text text-anchor="start" x="8" y="-119" font-family="Helvetica,sans-Serif" font-size="10.00">utils::statistics::</text>
<text text-anchor="middle" x="56" y="-108" font-family="Helvetica,sans-Serif" font-size="10.00">Percentile&lt; 2048 &gt;</text>
</a>
</g>
</g>
<!-- Node8&#45;&gt;Node7 -->
<g id="edge8_Node000007_Node000008" class="edge">
<title>Node8&#45;&gt;Node7</title>
<g id="a_edge8_Node000007_Node000008"><a xlink:title=" ">
<path fill="none" stroke="#9a32cd" stroke-dasharray="5,2" d="M122.11,-104.87C139.37,-101.64 157.94,-97.93 175,-94 182.78,-92.21 190.97,-90.15 198.97,-88.04"/>
<polygon fill="#9a32cd" stroke="#9a32cd" points="121.33,-101.45 112.13,-106.71 122.6,-108.34 121.33,-101.45"/>
</a>
</g>
<text text-anchor="middle" x="152.5" y="-105" font-family="Helvetica,sans-Serif" font-size="10.00" fill="grey"> timings</text>
</g>
<!-- Node9 -->
<g id="Node000009" class="node">
<title>Node9</title>
<g id="a_Node000009"><a xlink:href="../../da/d24/classutils_1_1statistics_1_1RateCounter.html" target="_top" xlink:title="Atomic counter of type Rate with relaxed memory ordering.">
<polygon fill="white" stroke="#666666" points="103,-83 9,-83 9,-53 103,-53 103,-83"/>
<text text-anchor="start" x="17" y="-71" font-family="Helvetica,sans-Serif" font-size="10.00">utils::statistics::</text>
<text text-anchor="middle" x="56" y="-60" font-family="Helvetica,sans-Serif" font-size="10.00">RateCounter</text>
</a>
</g>
</g>
<!-- Node9&#45;&gt;Node7 -->
<g id="edge9_Node000007_Node000009" class="edge">
<title>Node9&#45;&gt;Node7</title>
<g id="a_edge9_Node000007_Node000009"><a xlink:title=" ">
<path fill="none" stroke="#9a32cd" stroke-dasharray="5,2" d="M113.14,-69.44C138.13,-70.09 167.54,-70.84 192.82,-71.49"/>
<polygon fill="#9a32cd" stroke="#9a32cd" points="113.18,-65.94 103.09,-69.18 113,-72.94 113.18,-65.94"/>
</a>
</g>
<text text-anchor="middle" x="152.5" y="-84" font-family="Helvetica,sans-Serif" font-size="10.00" fill="grey"> errors</text>
<text text-anchor="middle" x="152.5" y="-73" font-family="Helvetica,sans-Serif" font-size="10.00" fill="grey">executed</text>
</g>
</g>
</svg>
