<?xml version="1.0" encoding="UTF-8" standalone="no"?>
<!DOCTYPE svg PUBLIC "-//W3C//DTD SVG 1.1//EN"
 "http://www.w3.org/Graphics/SVG/1.1/DTD/svg11.dtd">
<!-- Generated by graphviz version 2.43.0 (0)
 -->
<!-- Title: formats::json::Exception Pages: 1 -->
<svg width="697pt" height="326pt"
 viewBox="0.00 0.00 697.00 326.00" xmlns="http://www.w3.org/2000/svg" xmlns:xlink="http://www.w3.org/1999/xlink">
<g id="graph0" class="graph" transform="scale(1 1) rotate(0) translate(4 322)">
<title>formats::json::Exception</title>
<!-- Node1 -->
<g id="Node000001" class="node">
<title>Node1</title>
<g id="a_Node000001"><a xlink:title=" ">
<polygon fill="#999999" stroke="#666666" points="257,-170.5 122,-170.5 122,-151.5 257,-151.5 257,-170.5"/>
<text text-anchor="middle" x="189.5" y="-158.5" font-family="Helvetica,sans-Serif" font-size="10.00">formats::json::Exception</text>
</a>
</g>
</g>
<!-- Node3 -->
<g id="Node000003" class="node">
<title>Node3</title>
<g id="a_Node000003"><a xlink:href="../../d8/d1f/classformats_1_1json_1_1BadStreamException.html" target="_top" xlink:title=" ">
<polygon fill="white" stroke="#bfbfbf" points="444,-246 303,-246 303,-216 444,-216 444,-246"/>
<text text-anchor="start" x="311" y="-234" font-family="Helvetica,sans-Serif" font-size="10.00">formats::json::BadStream</text>
<text text-anchor="middle" x="373.5" y="-223" font-family="Helvetica,sans-Serif" font-size="10.00">Exception</text>
</a>
</g>
</g>
<!-- Node1&#45;&gt;Node3 -->
<g id="edge2_Node000001_Node000003" class="edge">
<title>Node1&#45;&gt;Node3</title>
<g id="a_edge2_Node000001_Node000003"><a xlink:title=" ">
<path fill="none" stroke="#63b8ff" d="M218.87,-174.92C239.22,-184.61 267.45,-197.45 293,-207 301.37,-210.13 310.35,-213.15 319.16,-215.93"/>
<polygon fill="#63b8ff" stroke="#63b8ff" points="220.37,-171.76 209.84,-170.58 217.34,-178.06 220.37,-171.76"/>
</a>
</g>
</g>
<!-- Node4 -->
<g id="Node000004" class="node">
<title>Node4</title>
<g id="a_Node000004"><a xlink:href="../../d0/df3/classformats_1_1json_1_1ExceptionWithPath.html" target="_top" xlink:title=" ">
<polygon fill="white" stroke="#bfbfbf" points="441,-198 306,-198 306,-168 441,-168 441,-198"/>
<text text-anchor="start" x="314" y="-186" font-family="Helvetica,sans-Serif" font-size="10.00">formats::json::Exception</text>
<text text-anchor="middle" x="373.5" y="-175" font-family="Helvetica,sans-Serif" font-size="10.00">WithPath</text>
</a>
</g>
</g>
<!-- Node1&#45;&gt;Node4 -->
<g id="edge3_Node000001_Node000004" class="edge">
<title>Node1&#45;&gt;Node4</title>
<g id="a_edge3_Node000001_Node000004"><a xlink:title=" ">
<path fill="none" stroke="#63b8ff" d="M267.37,-170.29C280.14,-171.84 293.28,-173.42 305.77,-174.93"/>
<polygon fill="#63b8ff" stroke="#63b8ff" points="267.58,-166.79 257.24,-169.07 266.74,-173.74 267.58,-166.79"/>
</a>
</g>
</g>
<!-- Node10 -->
<g id="Node000010" class="node">
<title>Node10</title>
<g id="a_Node000010"><a xlink:href="../../de/dff/classformats_1_1json_1_1ParseException.html" target="_top" xlink:title=" ">
<polygon fill="white" stroke="#bfbfbf" points="454,-149.5 293,-149.5 293,-130.5 454,-130.5 454,-149.5"/>
<text text-anchor="middle" x="373.5" y="-137.5" font-family="Helvetica,sans-Serif" font-size="10.00">formats::json::ParseException</text>
</a>
</g>
</g>
<!-- Node1&#45;&gt;Node10 -->
<g id="edge9_Node000001_Node000010" class="edge">
<title>Node1&#45;&gt;Node10</title>
<g id="a_edge9_Node000001_Node000010"><a xlink:title=" ">
<path fill="none" stroke="#63b8ff" d="M267.39,-152.13C275.79,-151.16 284.36,-150.17 292.8,-149.2"/>
<polygon fill="#63b8ff" stroke="#63b8ff" points="266.77,-148.68 257.24,-153.3 267.57,-155.63 266.77,-148.68"/>
</a>
</g>
</g>
<!-- Node11 -->
<g id="Node000011" class="node">
<title>Node11</title>
<g id="a_Node000011"><a xlink:href="../../de/d7c/classformats_1_1json_1_1parser_1_1BaseError.html" target="_top" xlink:title=" ">
<polygon fill="white" stroke="#bfbfbf" points="432.5,-78 314.5,-78 314.5,-48 432.5,-48 432.5,-78"/>
<text text-anchor="start" x="322.5" y="-66" font-family="Helvetica,sans-Serif" font-size="10.00">formats::json::parser</text>
<text text-anchor="middle" x="373.5" y="-55" font-family="Helvetica,sans-Serif" font-size="10.00">::BaseError</text>
</a>
</g>
</g>
<!-- Node1&#45;&gt;Node11 -->
<g id="edge10_Node000001_Node000011" class="edge">
<title>Node1&#45;&gt;Node11</title>
<g id="a_edge10_Node000001_Node000011"><a xlink:title=" ">
<path fill="none" stroke="#63b8ff" d="M217.2,-146.62C251.28,-128.27 309.96,-96.68 344.6,-78.02"/>
<polygon fill="#63b8ff" stroke="#63b8ff" points="215.43,-143.6 208.28,-151.42 218.75,-149.77 215.43,-143.6"/>
</a>
</g>
</g>
<!-- Node2 -->
<g id="Node000002" class="node">
<title>Node2</title>
<g id="a_Node000002"><a xlink:title=" ">
<polygon fill="white" stroke="#666666" points="86,-170.5 0,-170.5 0,-151.5 86,-151.5 86,-170.5"/>
<text text-anchor="middle" x="43" y="-158.5" font-family="Helvetica,sans-Serif" font-size="10.00">std::exception</text>
</a>
</g>
</g>
<!-- Node2&#45;&gt;Node1 -->
<g id="edge1_Node000001_Node000002" class="edge">
<title>Node2&#45;&gt;Node1</title>
<g id="a_edge1_Node000001_Node000002"><a xlink:title=" ">
<path fill="none" stroke="#63b8ff" d="M96.4,-161C104.65,-161 113.27,-161 121.79,-161"/>
<polygon fill="#63b8ff" stroke="#63b8ff" points="96.18,-157.5 86.18,-161 96.18,-164.5 96.18,-157.5"/>
</a>
</g>
</g>
<!-- Node5 -->
<g id="Node000005" class="node">
<title>Node5</title>
<g id="a_Node000005"><a xlink:href="../../de/d49/classformats_1_1json_1_1ConversionException.html" target="_top" xlink:title="Conversion error.">
<polygon fill="white" stroke="#666666" points="660.5,-318 518.5,-318 518.5,-288 660.5,-288 660.5,-318"/>
<text text-anchor="start" x="526.5" y="-306" font-family="Helvetica,sans-Serif" font-size="10.00">formats::json::Conversion</text>
<text text-anchor="middle" x="589.5" y="-295" font-family="Helvetica,sans-Serif" font-size="10.00">Exception</text>
</a>
</g>
</g>
<!-- Node4&#45;&gt;Node5 -->
<g id="edge4_Node000004_Node000005" class="edge">
<title>Node4&#45;&gt;Node5</title>
<g id="a_edge4_Node000004_Node000005"><a xlink:title=" ">
<path fill="none" stroke="#63b8ff" d="M449.22,-203.34C450.87,-204.49 452.47,-205.71 454,-207 481.36,-230.05 462.03,-256.7 490,-279 498.33,-285.64 508.22,-290.48 518.47,-294"/>
<polygon fill="#63b8ff" stroke="#63b8ff" points="450.91,-200.27 440.54,-198.09 447.29,-206.26 450.91,-200.27"/>
</a>
</g>
</g>
<!-- Node6 -->
<g id="Node000006" class="node">
<title>Node6</title>
<g id="a_Node000006"><a xlink:href="../../d0/da8/classformats_1_1json_1_1MemberMissingException.html" target="_top" xlink:title=" ">
<polygon fill="white" stroke="#bfbfbf" points="672,-270 507,-270 507,-240 672,-240 672,-270"/>
<text text-anchor="start" x="515" y="-258" font-family="Helvetica,sans-Serif" font-size="10.00">formats::json::MemberMissing</text>
<text text-anchor="middle" x="589.5" y="-247" font-family="Helvetica,sans-Serif" font-size="10.00">Exception</text>
</a>
</g>
</g>
<!-- Node4&#45;&gt;Node6 -->
<g id="edge5_Node000004_Node000006" class="edge">
<title>Node4&#45;&gt;Node6</title>
<g id="a_edge5_Node000004_Node000006"><a xlink:title=" ">
<path fill="none" stroke="#63b8ff" d="M441.33,-201.58C445.67,-203.27 449.93,-205.08 454,-207 471.39,-215.2 472.39,-223.27 490,-231 497.74,-234.39 506.03,-237.36 514.41,-239.94"/>
<polygon fill="#63b8ff" stroke="#63b8ff" points="442.32,-198.21 431.73,-198.05 439.9,-204.78 442.32,-198.21"/>
</a>
</g>
</g>
<!-- Node7 -->
<g id="Node000007" class="node">
<title>Node7</title>
<g id="a_Node000007"><a xlink:href="../../de/d4c/classformats_1_1json_1_1OutOfBoundsException.html" target="_top" xlink:title=" ">
<polygon fill="white" stroke="#bfbfbf" points="665.5,-222 513.5,-222 513.5,-192 665.5,-192 665.5,-222"/>
<text text-anchor="start" x="521.5" y="-210" font-family="Helvetica,sans-Serif" font-size="10.00">formats::json::OutOfBounds</text>
<text text-anchor="middle" x="589.5" y="-199" font-family="Helvetica,sans-Serif" font-size="10.00">Exception</text>
</a>
</g>
</g>
<!-- Node4&#45;&gt;Node7 -->
<g id="edge6_Node000004_Node000007" class="edge">
<title>Node4&#45;&gt;Node7</title>
<g id="a_edge6_Node000004_Node000007"><a xlink:title=" ">
<path fill="none" stroke="#63b8ff" d="M451.15,-191.6C471.41,-193.87 493.24,-196.32 513.42,-198.58"/>
<polygon fill="#63b8ff" stroke="#63b8ff" points="451.37,-188.1 441.04,-190.46 450.59,-195.05 451.37,-188.1"/>
</a>
</g>
</g>
<!-- Node8 -->
<g id="Node000008" class="node">
<title>Node8</title>
<g id="a_Node000008"><a xlink:href="../../db/da0/classformats_1_1json_1_1TypeMismatchException.html" target="_top" xlink:title=" ">
<polygon fill="white" stroke="#bfbfbf" points="668.5,-174 510.5,-174 510.5,-144 668.5,-144 668.5,-174"/>
<text text-anchor="start" x="518.5" y="-162" font-family="Helvetica,sans-Serif" font-size="10.00">formats::json::TypeMismatch</text>
<text text-anchor="middle" x="589.5" y="-151" font-family="Helvetica,sans-Serif" font-size="10.00">Exception</text>
</a>
</g>
</g>
<!-- Node4&#45;&gt;Node8 -->
<g id="edge7_Node000004_Node000008" class="edge">
<title>Node4&#45;&gt;Node8</title>
<g id="a_edge7_Node000004_Node000008"><a xlink:title=" ">
<path fill="none" stroke="#63b8ff" d="M450.98,-174.42C470.27,-172.26 491.01,-169.93 510.38,-167.76"/>
<polygon fill="#63b8ff" stroke="#63b8ff" points="450.59,-170.95 441.04,-175.54 451.37,-177.9 450.59,-170.95"/>
</a>
</g>
</g>
<!-- Node9 -->
<g id="Node000009" class="node">
<title>Node9</title>
<g id="a_Node000009"><a xlink:href="../../dc/da0/classformats_1_1json_1_1UnknownDiscriminatorException.html" target="_top" xlink:title=" ">
<polygon fill="white" stroke="#bfbfbf" points="689,-126 490,-126 490,-96 689,-96 689,-126"/>
<text text-anchor="start" x="498" y="-114" font-family="Helvetica,sans-Serif" font-size="10.00">formats::json::UnknownDiscriminator</text>
<text text-anchor="middle" x="589.5" y="-103" font-family="Helvetica,sans-Serif" font-size="10.00">Exception</text>
</a>
</g>
</g>
<!-- Node4&#45;&gt;Node9 -->
<g id="edge8_Node000004_Node000009" class="edge">
<title>Node4&#45;&gt;Node9</title>
<g id="a_edge8_Node000004_Node000009"><a xlink:title=" ">
<path fill="none" stroke="#63b8ff" d="M438.64,-164.47C443.9,-162.45 449.08,-160.29 454,-158 471.21,-149.97 472.54,-142.46 490,-135 497.93,-131.61 506.43,-128.64 515,-126.05"/>
<polygon fill="#63b8ff" stroke="#63b8ff" points="437.31,-161.22 429.11,-167.93 439.71,-167.8 437.31,-161.22"/>
</a>
</g>
</g>
<!-- Node12 -->
<g id="Node000012" class="node">
<title>Node12</title>
<g id="a_Node000012"><a xlink:href="../../d7/da4/classformats_1_1json_1_1parser_1_1InternalParseError.html" target="_top" xlink:title=" ">
<polygon fill="white" stroke="#bfbfbf" points="648.5,-78 530.5,-78 530.5,-48 648.5,-48 648.5,-78"/>
<text text-anchor="start" x="538.5" y="-66" font-family="Helvetica,sans-Serif" font-size="10.00">formats::json::parser</text>
<text text-anchor="middle" x="589.5" y="-55" font-family="Helvetica,sans-Serif" font-size="10.00">::InternalParseError</text>
</a>
</g>
</g>
<!-- Node11&#45;&gt;Node12 -->
<g id="edge11_Node000011_Node000012" class="edge">
<title>Node11&#45;&gt;Node12</title>
<g id="a_edge11_Node000011_Node000012"><a xlink:title=" ">
<path fill="none" stroke="#63b8ff" d="M442.87,-63C471.03,-63 503.31,-63 530.32,-63"/>
<polygon fill="#63b8ff" stroke="#63b8ff" points="442.69,-59.5 432.69,-63 442.69,-66.5 442.69,-59.5"/>
</a>
</g>
</g>
<!-- Node13 -->
<g id="Node000013" class="node">
<title>Node13</title>
<g id="a_Node000013"><a xlink:href="../../d2/d03/classformats_1_1json_1_1parser_1_1ParseError.html" target="_top" xlink:title=" ">
<polygon fill="white" stroke="#bfbfbf" points="648.5,-30 530.5,-30 530.5,0 648.5,0 648.5,-30"/>
<text text-anchor="start" x="538.5" y="-18" font-family="Helvetica,sans-Serif" font-size="10.00">formats::json::parser</text>
<text text-anchor="middle" x="589.5" y="-7" font-family="Helvetica,sans-Serif" font-size="10.00">::ParseError</text>
</a>
</g>
</g>
<!-- Node11&#45;&gt;Node13 -->
<g id="edge12_Node000011_Node000013" class="edge">
<title>Node11&#45;&gt;Node13</title>
<g id="a_edge12_Node000011_Node000013"><a xlink:title=" ">
<path fill="none" stroke="#63b8ff" d="M442.49,-47.75C470.74,-41.41 503.19,-34.13 530.32,-28.05"/>
<polygon fill="#63b8ff" stroke="#63b8ff" points="441.69,-44.34 432.69,-49.95 443.22,-51.17 441.69,-44.34"/>
</a>
</g>
</g>
</g>
</svg>
