<?xml version="1.0" encoding="UTF-8" standalone="no"?>
<!DOCTYPE svg PUBLIC "-//W3C//DTD SVG 1.1//EN"
 "http://www.w3.org/Graphics/SVG/1.1/DTD/svg11.dtd">
<!-- Generated by graphviz version 2.43.0 (0)
 -->
<!-- Title: storages::postgres::StatementStatistics Pages: 1 -->
<svg width="232pt" height="126pt"
 viewBox="0.00 0.00 232.00 126.00" xmlns="http://www.w3.org/2000/svg" xmlns:xlink="http://www.w3.org/1999/xlink">
<g id="graph0" class="graph" transform="scale(1 1) rotate(0) translate(4 122)">
<title>storages::postgres::StatementStatistics</title>
<!-- Node1 -->
<g id="Node000001" class="node">
<title>Node1</title>
<g id="a_Node000001"><a xlink:title=" ">
<polygon fill="#999999" stroke="#666666" points="175.5,-30 56.5,-30 56.5,0 175.5,0 175.5,-30"/>
<text text-anchor="start" x="64.5" y="-18" font-family="Helvetica,sans-Serif" font-size="10.00">storages::postgres</text>
<text text-anchor="middle" x="116" y="-7" font-family="Helvetica,sans-Serif" font-size="10.00">::StatementStatistics</text>
</a>
</g>
</g>
<!-- Node2 -->
<g id="Node000002" class="node">
<title>Node2</title>
<g id="a_Node000002"><a xlink:href="../../df/d18/classutils_1_1statistics_1_1Percentile.html" target="_top" xlink:title=" ">
<polygon fill="white" stroke="#666666" points="112,-118 0,-118 0,-88 112,-88 112,-118"/>
<text text-anchor="start" x="8" y="-106" font-family="Helvetica,sans-Serif" font-size="10.00">utils::statistics::</text>
<text text-anchor="middle" x="56" y="-95" font-family="Helvetica,sans-Serif" font-size="10.00">Percentile&lt; 2048 &gt;</text>
</a>
</g>
</g>
<!-- Node2&#45;&gt;Node1 -->
<g id="edge1_Node000001_Node000002" class="edge">
<title>Node2&#45;&gt;Node1</title>
<g id="a_edge1_Node000001_Node000002"><a xlink:title=" ">
<path fill="none" stroke="#9a32cd" stroke-dasharray="5,2" d="M71.87,-79.25C82.72,-63.69 96.78,-43.55 106.08,-30.22"/>
<polygon fill="#9a32cd" stroke="#9a32cd" points="68.76,-77.59 65.91,-87.8 74.5,-81.6 68.76,-77.59"/>
</a>
</g>
<text text-anchor="middle" x="114" y="-56.5" font-family="Helvetica,sans-Serif" font-size="10.00" fill="grey"> timings</text>
</g>
<!-- Node3 -->
<g id="Node000003" class="node">
<title>Node3</title>
<g id="a_Node000003"><a xlink:href="../../da/d24/classutils_1_1statistics_1_1RateCounter.html" target="_top" xlink:title="Atomic counter of type Rate with relaxed memory ordering.">
<polygon fill="white" stroke="#666666" points="224,-118 130,-118 130,-88 224,-88 224,-118"/>
<text text-anchor="start" x="138" y="-106" font-family="Helvetica,sans-Serif" font-size="10.00">utils::statistics::</text>
<text text-anchor="middle" x="177" y="-95" font-family="Helvetica,sans-Serif" font-size="10.00">RateCounter</text>
</a>
</g>
</g>
<!-- Node3&#45;&gt;Node1 -->
<g id="edge2_Node000001_Node000003" class="edge">
<title>Node3&#45;&gt;Node1</title>
<g id="a_edge2_Node000001_Node000003"><a xlink:title=" ">
<path fill="none" stroke="#9a32cd" stroke-dasharray="5,2" d="M160.87,-79.25C149.83,-63.69 135.54,-43.55 126.09,-30.22"/>
<polygon fill="#9a32cd" stroke="#9a32cd" points="158.29,-81.67 166.93,-87.8 164,-77.62 158.29,-81.67"/>
</a>
</g>
<text text-anchor="middle" x="175.5" y="-62" font-family="Helvetica,sans-Serif" font-size="10.00" fill="grey"> errors</text>
<text text-anchor="middle" x="175.5" y="-51" font-family="Helvetica,sans-Serif" font-size="10.00" fill="grey">executed</text>
</g>
</g>
</svg>
