<?xml version="1.0" encoding="UTF-8" standalone="no"?>
<!DOCTYPE svg PUBLIC "-//W3C//DTD SVG 1.1//EN"
 "http://www.w3.org/Graphics/SVG/1.1/DTD/svg11.dtd">
<!-- Generated by graphviz version 2.43.0 (0)
 -->
<!-- Title: userver/utils/statistics/storage.hpp Pages: 1 -->
<svg width="1681pt" height="159pt"
 viewBox="0.00 0.00 1681.00 159.00" xmlns="http://www.w3.org/2000/svg" xmlns:xlink="http://www.w3.org/1999/xlink">
<g id="graph0" class="graph" transform="scale(1 1) rotate(0) translate(4 155)">
<title>userver/utils/statistics/storage.hpp</title>
<!-- Node1 -->
<g id="Node000001" class="node">
<title>Node1</title>
<g id="a_Node000001"><a xlink:title=" ">
<polygon fill="#999999" stroke="#666666" points="930,-151 805,-151 805,-121 930,-121 930,-151"/>
<text text-anchor="start" x="813" y="-139" font-family="Helvetica,sans-Serif" font-size="10.00">userver/utils/statistics</text>
<text text-anchor="middle" x="867.5" y="-128" font-family="Helvetica,sans-Serif" font-size="10.00">/storage.hpp</text>
</a>
</g>
</g>
<!-- Node2 -->
<g id="Node000002" class="node">
<title>Node2</title>
<g id="a_Node000002"><a xlink:href="../../d6/d3a/core_2include_2userver_2components_2statistics__storage_8hpp.html" target="_top" xlink:title="Component that keeps a utils::statistics::Storage storage for metrics.">
<polygon fill="white" stroke="#666666" points="127,-85 0,-85 0,-55 127,-55 127,-85"/>
<text text-anchor="start" x="8" y="-73" font-family="Helvetica,sans-Serif" font-size="10.00">userver/components</text>
<text text-anchor="middle" x="63.5" y="-62" font-family="Helvetica,sans-Serif" font-size="10.00">/statistics_storage.hpp</text>
</a>
</g>
</g>
<!-- Node1&#45;&gt;Node2 -->
<g id="edge1_Node000001_Node000002" class="edge">
<title>Node1&#45;&gt;Node2</title>
<g id="a_edge1_Node000001_Node000002"><a xlink:title=" ">
<path fill="none" stroke="#63b8ff" d="M794.29,-132.93C662.33,-128.54 376.01,-116.04 136.5,-85 133.43,-84.6 130.29,-84.16 127.13,-83.67"/>
<polygon fill="#63b8ff" stroke="#63b8ff" points="794.56,-136.44 804.67,-133.27 794.79,-129.44 794.56,-136.44"/>
</a>
</g>
</g>
<!-- Node3 -->
<g id="Node000003" class="node">
<title>Node3</title>
<g id="a_Node000003"><a xlink:href="../../d2/d2e/clickhouse_2include_2userver_2storages_2clickhouse_2component_8hpp.html" target="_top" xlink:title="ClickHouse client component.">
<polygon fill="white" stroke="#666666" points="298,-85 145,-85 145,-55 298,-55 298,-85"/>
<text text-anchor="start" x="153" y="-73" font-family="Helvetica,sans-Serif" font-size="10.00">userver/storages/clickhouse</text>
<text text-anchor="middle" x="221.5" y="-62" font-family="Helvetica,sans-Serif" font-size="10.00">/component.hpp</text>
</a>
</g>
</g>
<!-- Node1&#45;&gt;Node3 -->
<g id="edge2_Node000001_Node000003" class="edge">
<title>Node1&#45;&gt;Node3</title>
<g id="a_edge2_Node000001_Node000003"><a xlink:title=" ">
<path fill="none" stroke="#63b8ff" d="M794.73,-130.19C687.73,-122.74 481.77,-106.94 307.5,-85 304.5,-84.62 301.44,-84.22 298.35,-83.79"/>
<polygon fill="#63b8ff" stroke="#63b8ff" points="794.56,-133.69 804.77,-130.89 795.04,-126.7 794.56,-133.69"/>
</a>
</g>
</g>
<!-- Node5 -->
<g id="Node000005" class="node">
<title>Node5</title>
<g id="a_Node000005"><a xlink:href="../../d5/df6/rabbitmq_2include_2userver_2urabbitmq_2component_8hpp.html" target="_top" xlink:title="RabbitMQ (AMQP 0.9.1) client component.">
<polygon fill="white" stroke="#666666" points="501,-79.5 316,-79.5 316,-60.5 501,-60.5 501,-79.5"/>
<text text-anchor="middle" x="408.5" y="-67.5" font-family="Helvetica,sans-Serif" font-size="10.00">userver/urabbitmq/component.hpp</text>
</a>
</g>
</g>
<!-- Node1&#45;&gt;Node5 -->
<g id="edge4_Node000001_Node000005" class="edge">
<title>Node1&#45;&gt;Node5</title>
<g id="a_edge4_Node000001_Node000005"><a xlink:title=" ">
<path fill="none" stroke="#63b8ff" d="M794.53,-124.83C704.63,-112.29 553.52,-91.22 469.5,-79.51"/>
<polygon fill="#63b8ff" stroke="#63b8ff" points="794.25,-128.32 804.64,-126.24 795.22,-121.39 794.25,-128.32"/>
</a>
</g>
</g>
<!-- Node7 -->
<g id="Node000007" class="node">
<title>Node7</title>
<g id="a_Node000007"><a xlink:href="../../dd/da6/statistics_2graphite_8hpp.html" target="_top" xlink:title="Statistics output in Graphite format.">
<polygon fill="white" stroke="#666666" points="644,-85 519,-85 519,-55 644,-55 644,-85"/>
<text text-anchor="start" x="527" y="-73" font-family="Helvetica,sans-Serif" font-size="10.00">userver/utils/statistics</text>
<text text-anchor="middle" x="581.5" y="-62" font-family="Helvetica,sans-Serif" font-size="10.00">/graphite.hpp</text>
</a>
</g>
</g>
<!-- Node1&#45;&gt;Node7 -->
<g id="edge6_Node000001_Node000007" class="edge">
<title>Node1&#45;&gt;Node7</title>
<g id="a_edge6_Node000001_Node000007"><a xlink:title=" ">
<path fill="none" stroke="#63b8ff" d="M794.72,-118.71C748.21,-108.31 688.51,-94.95 644.12,-85.01"/>
<polygon fill="#63b8ff" stroke="#63b8ff" points="794.21,-122.19 804.74,-120.95 795.74,-115.36 794.21,-122.19"/>
</a>
</g>
</g>
<!-- Node8 -->
<g id="Node000008" class="node">
<title>Node8</title>
<g id="a_Node000008"><a xlink:href="../../d1/dc7/core_2include_2userver_2utils_2statistics_2json_8hpp.html" target="_top" xlink:title="Statistics output in JSON format.">
<polygon fill="white" stroke="#666666" points="787,-85 662,-85 662,-55 787,-55 787,-85"/>
<text text-anchor="start" x="670" y="-73" font-family="Helvetica,sans-Serif" font-size="10.00">userver/utils/statistics</text>
<text text-anchor="middle" x="724.5" y="-62" font-family="Helvetica,sans-Serif" font-size="10.00">/json.hpp</text>
</a>
</g>
</g>
<!-- Node1&#45;&gt;Node8 -->
<g id="edge7_Node000001_Node000008" class="edge">
<title>Node1&#45;&gt;Node8</title>
<g id="a_edge7_Node000001_Node000008"><a xlink:title=" ">
<path fill="none" stroke="#63b8ff" d="M826.8,-116.78C804.25,-106.69 776.66,-94.34 755.81,-85.01"/>
<polygon fill="#63b8ff" stroke="#63b8ff" points="825.56,-120.06 836.12,-120.95 828.42,-113.68 825.56,-120.06"/>
</a>
</g>
</g>
<!-- Node9 -->
<g id="Node000009" class="node">
<title>Node9</title>
<g id="a_Node000009"><a xlink:href="../../d7/d98/portability__info_8hpp.html" target="_top" xlink:title="Portability reports.">
<polygon fill="white" stroke="#666666" points="930,-85 805,-85 805,-55 930,-55 930,-85"/>
<text text-anchor="start" x="813" y="-73" font-family="Helvetica,sans-Serif" font-size="10.00">userver/utils/statistics</text>
<text text-anchor="middle" x="867.5" y="-62" font-family="Helvetica,sans-Serif" font-size="10.00">/portability_info.hpp</text>
</a>
</g>
</g>
<!-- Node1&#45;&gt;Node9 -->
<g id="edge8_Node000001_Node000009" class="edge">
<title>Node1&#45;&gt;Node9</title>
<g id="a_edge8_Node000001_Node000009"><a xlink:title=" ">
<path fill="none" stroke="#63b8ff" d="M867.5,-110.54C867.5,-101.96 867.5,-92.61 867.5,-85.16"/>
<polygon fill="#63b8ff" stroke="#63b8ff" points="864,-110.8 867.5,-120.8 871,-110.8 864,-110.8"/>
</a>
</g>
</g>
<!-- Node10 -->
<g id="Node000010" class="node">
<title>Node10</title>
<g id="a_Node000010"><a xlink:href="../../d0/d09/pretty__format_8hpp.html" target="_top" xlink:title="Statistics output in human&#45;readable format.">
<polygon fill="white" stroke="#666666" points="1073,-85 948,-85 948,-55 1073,-55 1073,-85"/>
<text text-anchor="start" x="956" y="-73" font-family="Helvetica,sans-Serif" font-size="10.00">userver/utils/statistics</text>
<text text-anchor="middle" x="1010.5" y="-62" font-family="Helvetica,sans-Serif" font-size="10.00">/pretty_format.hpp</text>
</a>
</g>
</g>
<!-- Node1&#45;&gt;Node10 -->
<g id="edge9_Node000001_Node000010" class="edge">
<title>Node1&#45;&gt;Node10</title>
<g id="a_edge9_Node000001_Node000010"><a xlink:title=" ">
<path fill="none" stroke="#63b8ff" d="M908.2,-116.78C930.75,-106.69 958.34,-94.34 979.19,-85.01"/>
<polygon fill="#63b8ff" stroke="#63b8ff" points="906.58,-113.68 898.88,-120.95 909.44,-120.06 906.58,-113.68"/>
</a>
</g>
</g>
<!-- Node11 -->
<g id="Node000011" class="node">
<title>Node11</title>
<g id="a_Node000011"><a xlink:href="../../da/d92/prometheus_8hpp.html" target="_top" xlink:title="Statistics output in Prometheus format.">
<polygon fill="white" stroke="#666666" points="1216,-85 1091,-85 1091,-55 1216,-55 1216,-85"/>
<text text-anchor="start" x="1099" y="-73" font-family="Helvetica,sans-Serif" font-size="10.00">userver/utils/statistics</text>
<text text-anchor="middle" x="1153.5" y="-62" font-family="Helvetica,sans-Serif" font-size="10.00">/prometheus.hpp</text>
</a>
</g>
</g>
<!-- Node1&#45;&gt;Node11 -->
<g id="edge10_Node000001_Node000011" class="edge">
<title>Node1&#45;&gt;Node11</title>
<g id="a_edge10_Node000001_Node000011"><a xlink:title=" ">
<path fill="none" stroke="#63b8ff" d="M940.28,-118.71C986.79,-108.31 1046.49,-94.95 1090.88,-85.01"/>
<polygon fill="#63b8ff" stroke="#63b8ff" points="939.26,-115.36 930.26,-120.95 940.79,-122.19 939.26,-115.36"/>
</a>
</g>
</g>
<!-- Node12 -->
<g id="Node000012" class="node">
<title>Node12</title>
<g id="a_Node000012"><a xlink:href="../../d4/d70/solomon_8hpp.html" target="_top" xlink:title="Statistics output in Solomon format.">
<polygon fill="white" stroke="#666666" points="1359,-85 1234,-85 1234,-55 1359,-55 1359,-85"/>
<text text-anchor="start" x="1242" y="-73" font-family="Helvetica,sans-Serif" font-size="10.00">userver/utils/statistics</text>
<text text-anchor="middle" x="1296.5" y="-62" font-family="Helvetica,sans-Serif" font-size="10.00">/solomon.hpp</text>
</a>
</g>
</g>
<!-- Node1&#45;&gt;Node12 -->
<g id="edge11_Node000001_Node000012" class="edge">
<title>Node1&#45;&gt;Node12</title>
<g id="a_edge11_Node000001_Node000012"><a xlink:title=" ">
<path fill="none" stroke="#63b8ff" d="M940.01,-126.08C1012.46,-116.89 1126.94,-101.59 1225.5,-85 1228.23,-84.54 1231.01,-84.06 1233.81,-83.56"/>
<polygon fill="#63b8ff" stroke="#63b8ff" points="939.55,-122.61 930.07,-127.34 940.43,-129.56 939.55,-122.61"/>
</a>
</g>
</g>
<!-- Node13 -->
<g id="Node000013" class="node">
<title>Node13</title>
<g id="a_Node000013"><a xlink:href="../../d2/da2/testing_8hpp_source.html" target="_top" xlink:title=" ">
<polygon fill="white" stroke="#666666" points="1502,-85 1377,-85 1377,-55 1502,-55 1502,-85"/>
<text text-anchor="start" x="1385" y="-73" font-family="Helvetica,sans-Serif" font-size="10.00">userver/utils/statistics</text>
<text text-anchor="middle" x="1439.5" y="-62" font-family="Helvetica,sans-Serif" font-size="10.00">/testing.hpp</text>
</a>
</g>
</g>
<!-- Node1&#45;&gt;Node13 -->
<g id="edge12_Node000001_Node000013" class="edge">
<title>Node1&#45;&gt;Node13</title>
<g id="a_edge12_Node000001_Node000013"><a xlink:title=" ">
<path fill="none" stroke="#63b8ff" d="M940.29,-129.92C1038.02,-122.6 1216.93,-107.46 1368.5,-85 1371.23,-84.59 1374.02,-84.16 1376.84,-83.69"/>
<polygon fill="#63b8ff" stroke="#63b8ff" points="939.93,-126.44 930.22,-130.67 940.45,-133.42 939.93,-126.44"/>
</a>
</g>
</g>
<!-- Node14 -->
<g id="Node000014" class="node">
<title>Node14</title>
<g id="a_Node000014"><a xlink:href="../../d1/d84/ydb_2include_2userver_2ydb_2component_8hpp.html" target="_top" xlink:title="YDB client component.">
<polygon fill="white" stroke="#666666" points="1673,-79.5 1520,-79.5 1520,-60.5 1673,-60.5 1673,-79.5"/>
<text text-anchor="middle" x="1596.5" y="-67.5" font-family="Helvetica,sans-Serif" font-size="10.00">userver/ydb/component.hpp</text>
</a>
</g>
</g>
<!-- Node1&#45;&gt;Node14 -->
<g id="edge13_Node000001_Node000014" class="edge">
<title>Node1&#45;&gt;Node14</title>
<g id="a_edge13_Node000001_Node000014"><a xlink:title=" ">
<path fill="none" stroke="#63b8ff" d="M940.43,-131.38C1060.02,-124.99 1305.15,-109.96 1511.5,-85 1523.68,-83.53 1536.77,-81.56 1548.95,-79.57"/>
<polygon fill="#63b8ff" stroke="#63b8ff" points="940.1,-127.89 930.3,-131.92 940.47,-134.88 940.1,-127.89"/>
</a>
</g>
</g>
<!-- Node4 -->
<g id="Node000004" class="node">
<title>Node4</title>
<g id="a_Node000004"><a xlink:href="../../d7/d29/clickhouse_8hpp.html" target="_top" xlink:title=" ">
<polygon fill="white" stroke="#666666" points="308.5,-19 134.5,-19 134.5,0 308.5,0 308.5,-19"/>
<text text-anchor="middle" x="221.5" y="-7" font-family="Helvetica,sans-Serif" font-size="10.00">userver/storages/clickhouse.hpp</text>
</a>
</g>
</g>
<!-- Node3&#45;&gt;Node4 -->
<g id="edge3_Node000003_Node000004" class="edge">
<title>Node3&#45;&gt;Node4</title>
<g id="a_edge3_Node000003_Node000004"><a xlink:title=" ">
<path fill="none" stroke="#63b8ff" d="M221.5,-44.75C221.5,-35.72 221.5,-26.03 221.5,-19.27"/>
<polygon fill="#63b8ff" stroke="#63b8ff" points="218,-44.84 221.5,-54.84 225,-44.84 218,-44.84"/>
</a>
</g>
</g>
<!-- Node6 -->
<g id="Node000006" class="node">
<title>Node6</title>
<g id="a_Node000006"><a xlink:href="../../d7/de4/rabbitmq_8hpp.html" target="_top" xlink:title=" ">
<polygon fill="white" stroke="#666666" points="469.5,-19 347.5,-19 347.5,0 469.5,0 469.5,-19"/>
<text text-anchor="middle" x="408.5" y="-7" font-family="Helvetica,sans-Serif" font-size="10.00">userver/rabbitmq.hpp</text>
</a>
</g>
</g>
<!-- Node5&#45;&gt;Node6 -->
<g id="edge5_Node000005_Node000006" class="edge">
<title>Node5&#45;&gt;Node6</title>
<g id="a_edge5_Node000005_Node000006"><a xlink:title=" ">
<path fill="none" stroke="#63b8ff" d="M408.5,-50.16C408.5,-39.74 408.5,-27.3 408.5,-19.17"/>
<polygon fill="#63b8ff" stroke="#63b8ff" points="405,-50.37 408.5,-60.37 412,-50.37 405,-50.37"/>
</a>
</g>
</g>
</g>
</svg>
