<?xml version="1.0" encoding="UTF-8" standalone="no"?>
<!DOCTYPE svg PUBLIC "-//W3C//DTD SVG 1.1//EN"
 "http://www.w3.org/Graphics/SVG/1.1/DTD/svg11.dtd">
<!-- Generated by graphviz version 2.43.0 (0)
 -->
<!-- Title: userver/formats/yaml/value.hpp Pages: 1 -->
<svg width="2076pt" height="357pt"
 viewBox="0.00 0.00 2075.50 357.00" xmlns="http://www.w3.org/2000/svg" xmlns:xlink="http://www.w3.org/1999/xlink">
<g id="graph0" class="graph" transform="scale(1 1) rotate(0) translate(4 353)">
<title>userver/formats/yaml/value.hpp</title>
<!-- Node1 -->
<g id="Node000001" class="node">
<title>Node1</title>
<g id="a_Node000001"><a xlink:title="Non&#45;mutable YAML value representation.">
<polygon fill="#999999" stroke="#666666" points="1504.5,-349 1382.5,-349 1382.5,-319 1504.5,-319 1504.5,-349"/>
<text text-anchor="start" x="1390.5" y="-337" font-family="Helvetica,sans-Serif" font-size="10.00">userver/formats/yaml</text>
<text text-anchor="middle" x="1443.5" y="-326" font-family="Helvetica,sans-Serif" font-size="10.00">/value.hpp</text>
</a>
</g>
</g>
<!-- Node2 -->
<g id="Node000002" class="node">
<title>Node2</title>
<g id="a_Node000002"><a xlink:title=" ">
<polygon fill="#e0e0e0" stroke="#999999" points="1370,-19 1301,-19 1301,0 1370,0 1370,-19"/>
<text text-anchor="middle" x="1335.5" y="-7" font-family="Helvetica,sans-Serif" font-size="10.00">type_traits</text>
</a>
</g>
</g>
<!-- Node1&#45;&gt;Node2 -->
<g id="edge1_Node000001_Node000002" class="edge">
<title>Node1&#45;&gt;Node2</title>
<g id="a_edge1_Node000001_Node000002"><a xlink:title=" ">
<path fill="none" stroke="#63b8ff" d="M1504.75,-333.11C1661.97,-331.75 2067.5,-317.19 2067.5,-203 2067.5,-203 2067.5,-203 2067.5,-135 2067.5,-62.17 1994.23,-76.02 1924.5,-55 1822.76,-24.34 1499.73,-14.16 1380.38,-11.39"/>
<polygon fill="#63b8ff" stroke="#63b8ff" points="1380.22,-7.89 1370.14,-11.16 1380.06,-14.88 1380.22,-7.89"/>
</a>
</g>
</g>
<!-- Node3 -->
<g id="Node000003" class="node">
<title>Node3</title>
<g id="a_Node000003"><a xlink:href="../../dd/d14/items_8hpp.html" target="_top" xlink:title="Wrapper for handy python&#45;like iteration over a map.">
<polygon fill="white" stroke="#666666" points="1833.5,-217 1693.5,-217 1693.5,-187 1833.5,-187 1833.5,-217"/>
<text text-anchor="start" x="1701.5" y="-205" font-family="Helvetica,sans-Serif" font-size="10.00">userver/formats/common</text>
<text text-anchor="middle" x="1763.5" y="-194" font-family="Helvetica,sans-Serif" font-size="10.00">/items.hpp</text>
</a>
</g>
</g>
<!-- Node1&#45;&gt;Node3 -->
<g id="edge2_Node000001_Node000003" class="edge">
<title>Node1&#45;&gt;Node3</title>
<g id="a_edge2_Node000001_Node000003"><a xlink:title=" ">
<path fill="none" stroke="#63b8ff" d="M1478.05,-318.96C1536.46,-295.23 1654.66,-247.22 1719.12,-221.03"/>
<polygon fill="#63b8ff" stroke="#63b8ff" points="1720.66,-224.18 1728.61,-217.17 1718.03,-217.7 1720.66,-224.18"/>
</a>
</g>
</g>
<!-- Node7 -->
<g id="Node000007" class="node">
<title>Node7</title>
<g id="a_Node000007"><a xlink:href="../../da/d00/universal_2include_2userver_2formats_2common_2meta_8hpp.html" target="_top" xlink:title="Metaprogramming helpers for converters detection.">
<polygon fill="white" stroke="#666666" points="230.5,-217 90.5,-217 90.5,-187 230.5,-187 230.5,-217"/>
<text text-anchor="start" x="98.5" y="-205" font-family="Helvetica,sans-Serif" font-size="10.00">userver/formats/common</text>
<text text-anchor="middle" x="160.5" y="-194" font-family="Helvetica,sans-Serif" font-size="10.00">/meta.hpp</text>
</a>
</g>
</g>
<!-- Node1&#45;&gt;Node7 -->
<g id="edge7_Node000001_Node000007" class="edge">
<title>Node1&#45;&gt;Node7</title>
<g id="a_edge7_Node000001_Node000007"><a xlink:title=" ">
<path fill="none" stroke="#63b8ff" d="M1382.32,-332.59C1237.73,-330.96 863.81,-322.89 554.5,-283 438.06,-267.98 304.55,-238.17 226.66,-219.48"/>
<polygon fill="#63b8ff" stroke="#63b8ff" points="227.05,-215.97 216.51,-217.03 225.41,-222.78 227.05,-215.97"/>
</a>
</g>
</g>
<!-- Node12 -->
<g id="Node000012" class="node">
<title>Node12</title>
<g id="a_Node000012"><a xlink:href="../../d1/deb/universal_2include_2userver_2formats_2parse_2common_8hpp.html" target="_top" xlink:title="Parsers and converters for std::chrono::seconds, std::chrono::system_clock::time_point and integral t...">
<polygon fill="white" stroke="#666666" points="689,-283 564,-283 564,-253 689,-253 689,-283"/>
<text text-anchor="start" x="572" y="-271" font-family="Helvetica,sans-Serif" font-size="10.00">userver/formats/parse</text>
<text text-anchor="middle" x="626.5" y="-260" font-family="Helvetica,sans-Serif" font-size="10.00">/common.hpp</text>
</a>
</g>
</g>
<!-- Node1&#45;&gt;Node12 -->
<g id="edge15_Node000001_Node000012" class="edge">
<title>Node1&#45;&gt;Node12</title>
<g id="a_edge15_Node000001_Node000012"><a xlink:title=" ">
<path fill="none" stroke="#63b8ff" d="M1382.43,-328.22C1234.71,-316.64 858.59,-287.18 699.42,-274.71"/>
<polygon fill="#63b8ff" stroke="#63b8ff" points="699.49,-271.21 689.25,-273.92 698.95,-278.19 699.49,-271.21"/>
</a>
</g>
</g>
<!-- Node26 -->
<g id="Node000026" class="node">
<title>Node26</title>
<g id="a_Node000026"><a xlink:href="../../d6/db5/universal_2include_2userver_2formats_2yaml_2exception_8hpp.html" target="_top" xlink:title="Exception classes for YAML module.">
<polygon fill="white" stroke="#666666" points="1320.5,-283 1198.5,-283 1198.5,-253 1320.5,-253 1320.5,-283"/>
<text text-anchor="start" x="1206.5" y="-271" font-family="Helvetica,sans-Serif" font-size="10.00">userver/formats/yaml</text>
<text text-anchor="middle" x="1259.5" y="-260" font-family="Helvetica,sans-Serif" font-size="10.00">/exception.hpp</text>
</a>
</g>
</g>
<!-- Node1&#45;&gt;Node26 -->
<g id="edge42_Node000001_Node000026" class="edge">
<title>Node1&#45;&gt;Node26</title>
<g id="a_edge42_Node000001_Node000026"><a xlink:title=" ">
<path fill="none" stroke="#63b8ff" d="M1403.12,-318.95C1375.56,-309.37 1338.86,-296.6 1309.45,-286.37"/>
<polygon fill="#63b8ff" stroke="#63b8ff" points="1310.38,-282.99 1299.79,-283.01 1308.08,-289.6 1310.38,-282.99"/>
</a>
</g>
</g>
<!-- Node27 -->
<g id="Node000027" class="node">
<title>Node27</title>
<g id="a_Node000027"><a xlink:href="../../d5/dda/universal_2include_2userver_2formats_2yaml_2types_8hpp.html" target="_top" xlink:title="Forward declarations of the internal YAML types.">
<polygon fill="white" stroke="#666666" points="1460.5,-217 1338.5,-217 1338.5,-187 1460.5,-187 1460.5,-217"/>
<text text-anchor="start" x="1346.5" y="-205" font-family="Helvetica,sans-Serif" font-size="10.00">userver/formats/yaml</text>
<text text-anchor="middle" x="1399.5" y="-194" font-family="Helvetica,sans-Serif" font-size="10.00">/types.hpp</text>
</a>
</g>
</g>
<!-- Node1&#45;&gt;Node27 -->
<g id="edge63_Node000001_Node000027" class="edge">
<title>Node1&#45;&gt;Node27</title>
<g id="a_edge63_Node000001_Node000027"><a xlink:title=" ">
<path fill="none" stroke="#63b8ff" d="M1454.58,-318.87C1466.02,-302.45 1480.73,-274.82 1469.5,-253 1462.96,-240.28 1451.51,-230.09 1439.75,-222.3"/>
<polygon fill="#63b8ff" stroke="#63b8ff" points="1441.55,-219.3 1431.2,-217.06 1437.89,-225.27 1441.55,-219.3"/>
</a>
</g>
</g>
<!-- Node31 -->
<g id="Node000031" class="node">
<title>Node31</title>
<g id="a_Node000031"><a xlink:href="../../d7/dbc/universal_2include_2userver_2formats_2yaml_2iterator_8hpp.html" target="_top" xlink:title="Iterator for formats::yaml::Value">
<polygon fill="white" stroke="#666666" points="1460.5,-283 1338.5,-283 1338.5,-253 1460.5,-253 1460.5,-283"/>
<text text-anchor="start" x="1346.5" y="-271" font-family="Helvetica,sans-Serif" font-size="10.00">userver/formats/yaml</text>
<text text-anchor="middle" x="1399.5" y="-260" font-family="Helvetica,sans-Serif" font-size="10.00">/iterator.hpp</text>
</a>
</g>
</g>
<!-- Node1&#45;&gt;Node31 -->
<g id="edge53_Node000001_Node000031" class="edge">
<title>Node1&#45;&gt;Node31</title>
<g id="a_edge53_Node000001_Node000031"><a xlink:title=" ">
<path fill="none" stroke="#63b8ff" d="M1433.73,-318.8C1428.21,-310.76 1421.17,-300.53 1414.92,-291.43"/>
<polygon fill="#63b8ff" stroke="#63b8ff" points="1417.79,-289.42 1409.24,-283.16 1412.02,-293.39 1417.79,-289.42"/>
</a>
</g>
</g>
<!-- Node32 -->
<g id="Node000032" class="node">
<title>Node32</title>
<g id="a_Node000032"><a xlink:href="../../d5/d02/fast__pimpl_8hpp.html" target="_top" xlink:title="Implements pimpl idiom without dynamic memory allocation.">
<polygon fill="white" stroke="#666666" points="1960,-217 1861,-217 1861,-187 1960,-187 1960,-217"/>
<text text-anchor="start" x="1869" y="-205" font-family="Helvetica,sans-Serif" font-size="10.00">userver/utils/fast</text>
<text text-anchor="middle" x="1910.5" y="-194" font-family="Helvetica,sans-Serif" font-size="10.00">_pimpl.hpp</text>
</a>
</g>
</g>
<!-- Node1&#45;&gt;Node32 -->
<g id="edge64_Node000001_Node000032" class="edge">
<title>Node1&#45;&gt;Node32</title>
<g id="a_edge64_Node000001_Node000032"><a xlink:title=" ">
<path fill="none" stroke="#63b8ff" d="M1493.92,-318.96C1580.85,-294.77 1758.5,-245.31 1851.21,-219.51"/>
<polygon fill="#63b8ff" stroke="#63b8ff" points="1852.3,-222.83 1860.99,-216.78 1850.42,-216.09 1852.3,-222.83"/>
</a>
</g>
</g>
<!-- Node3&#45;&gt;Node2 -->
<g id="edge6_Node000003_Node000002" class="edge">
<title>Node3&#45;&gt;Node2</title>
<g id="a_edge6_Node000003_Node000002"><a xlink:title=" ">
<path fill="none" stroke="#63b8ff" d="M1768.57,-186.74C1773.68,-169.68 1779.15,-140.95 1766.5,-121 1729.66,-62.91 1692.3,-75.07 1626.5,-55 1541.82,-29.16 1438.51,-17.92 1380.54,-13.35"/>
<polygon fill="#63b8ff" stroke="#63b8ff" points="1380.5,-9.83 1370.26,-12.57 1379.97,-16.81 1380.5,-9.83"/>
</a>
</g>
</g>
<!-- Node4 -->
<g id="Node000004" class="node">
<title>Node4</title>
<g id="a_Node000004"><a xlink:title=" ">
<polygon fill="#e0e0e0" stroke="#999999" points="1883,-145.5 1830,-145.5 1830,-126.5 1883,-126.5 1883,-145.5"/>
<text text-anchor="middle" x="1856.5" y="-133.5" font-family="Helvetica,sans-Serif" font-size="10.00">cstddef</text>
</a>
</g>
</g>
<!-- Node3&#45;&gt;Node4 -->
<g id="edge3_Node000003_Node000004" class="edge">
<title>Node3&#45;&gt;Node4</title>
<g id="a_edge3_Node000003_Node000004"><a xlink:title=" ">
<path fill="none" stroke="#63b8ff" d="M1784.14,-186.8C1799.44,-176.27 1820.21,-161.97 1835.58,-151.4"/>
<polygon fill="#63b8ff" stroke="#63b8ff" points="1837.66,-154.21 1843.92,-145.66 1833.7,-148.44 1837.66,-154.21"/>
</a>
</g>
</g>
<!-- Node5 -->
<g id="Node000005" class="node">
<title>Node5</title>
<g id="a_Node000005"><a xlink:title=" ">
<polygon fill="#e0e0e0" stroke="#999999" points="1735,-145.5 1682,-145.5 1682,-126.5 1735,-126.5 1735,-145.5"/>
<text text-anchor="middle" x="1708.5" y="-133.5" font-family="Helvetica,sans-Serif" font-size="10.00">iterator</text>
</a>
</g>
</g>
<!-- Node3&#45;&gt;Node5 -->
<g id="edge4_Node000003_Node000005" class="edge">
<title>Node3&#45;&gt;Node5</title>
<g id="a_edge4_Node000003_Node000005"><a xlink:title=" ">
<path fill="none" stroke="#63b8ff" d="M1751.29,-186.8C1742.89,-177.01 1731.69,-163.98 1722.85,-153.7"/>
<polygon fill="#63b8ff" stroke="#63b8ff" points="1725.27,-151.15 1716.1,-145.84 1719.96,-155.71 1725.27,-151.15"/>
</a>
</g>
</g>
<!-- Node6 -->
<g id="Node000006" class="node">
<title>Node6</title>
<g id="a_Node000006"><a xlink:title=" ">
<polygon fill="#e0e0e0" stroke="#999999" points="1186.5,-79.5 1142.5,-79.5 1142.5,-60.5 1186.5,-60.5 1186.5,-79.5"/>
<text text-anchor="middle" x="1164.5" y="-67.5" font-family="Helvetica,sans-Serif" font-size="10.00">string</text>
</a>
</g>
</g>
<!-- Node3&#45;&gt;Node6 -->
<g id="edge5_Node000003_Node000006" class="edge">
<title>Node3&#45;&gt;Node6</title>
<g id="a_edge5_Node000003_Node000006"><a xlink:title=" ">
<path fill="none" stroke="#63b8ff" d="M1764.68,-186.94C1765.35,-168.71 1763.42,-137.32 1744.5,-121 1723.61,-102.97 1316.11,-79.31 1196.96,-72.75"/>
<polygon fill="#63b8ff" stroke="#63b8ff" points="1196.84,-69.24 1186.66,-72.19 1196.46,-76.23 1196.84,-69.24"/>
</a>
</g>
</g>
<!-- Node7&#45;&gt;Node2 -->
<g id="edge8_Node000007_Node000002" class="edge">
<title>Node7&#45;&gt;Node2</title>
<g id="a_edge8_Node000007_Node000002"><a xlink:title=" ">
<path fill="none" stroke="#63b8ff" d="M160.75,-186.93C161.89,-168.69 166.8,-137.29 186.5,-121 273.03,-49.45 1088.66,-18.49 1290.49,-11.89"/>
<polygon fill="#63b8ff" stroke="#63b8ff" points="1290.85,-15.38 1300.73,-11.55 1290.62,-8.38 1290.85,-15.38"/>
</a>
</g>
</g>
<!-- Node8 -->
<g id="Node000008" class="node">
<title>Node8</title>
<g id="a_Node000008"><a xlink:href="../../d2/dc8/universal_2include_2userver_2formats_2parse_2to_8hpp.html" target="_top" xlink:title="Helper for parsers.">
<polygon fill="white" stroke="#666666" points="321,-151 196,-151 196,-121 321,-121 321,-151"/>
<text text-anchor="start" x="204" y="-139" font-family="Helvetica,sans-Serif" font-size="10.00">userver/formats/parse</text>
<text text-anchor="middle" x="258.5" y="-128" font-family="Helvetica,sans-Serif" font-size="10.00">/to.hpp</text>
</a>
</g>
</g>
<!-- Node7&#45;&gt;Node8 -->
<g id="edge9_Node000007_Node000008" class="edge">
<title>Node7&#45;&gt;Node8</title>
<g id="a_edge9_Node000007_Node000008"><a xlink:title=" ">
<path fill="none" stroke="#63b8ff" d="M182.25,-186.8C195.83,-177.93 213.49,-166.39 228.4,-156.66"/>
<polygon fill="#63b8ff" stroke="#63b8ff" points="230.35,-159.56 236.81,-151.16 226.52,-153.7 230.35,-159.56"/>
</a>
</g>
</g>
<!-- Node9 -->
<g id="Node000009" class="node">
<title>Node9</title>
<g id="a_Node000009"><a xlink:href="../../d6/d8e/universal_2include_2userver_2formats_2serialize_2to_8hpp.html" target="_top" xlink:title="Helper for serializers.">
<polygon fill="white" stroke="#666666" points="139,-151 0,-151 0,-121 139,-121 139,-151"/>
<text text-anchor="start" x="8" y="-139" font-family="Helvetica,sans-Serif" font-size="10.00">userver/formats/serialize</text>
<text text-anchor="middle" x="69.5" y="-128" font-family="Helvetica,sans-Serif" font-size="10.00">/to.hpp</text>
</a>
</g>
</g>
<!-- Node7&#45;&gt;Node9 -->
<g id="edge10_Node000007_Node000009" class="edge">
<title>Node7&#45;&gt;Node9</title>
<g id="a_edge10_Node000007_Node000009"><a xlink:title=" ">
<path fill="none" stroke="#63b8ff" d="M140.3,-186.8C127.82,-178.01 111.6,-166.61 97.84,-156.93"/>
<polygon fill="#63b8ff" stroke="#63b8ff" points="99.83,-154.05 89.64,-151.16 95.81,-159.78 99.83,-154.05"/>
</a>
</g>
</g>
<!-- Node10 -->
<g id="Node000010" class="node">
<title>Node10</title>
<g id="a_Node000010"><a xlink:href="../../d3/da0/meta__light_8hpp.html" target="_top" xlink:title="Lightweight concepts.">
<polygon fill="white" stroke="#666666" points="541.5,-151 435.5,-151 435.5,-121 541.5,-121 541.5,-151"/>
<text text-anchor="start" x="443.5" y="-139" font-family="Helvetica,sans-Serif" font-size="10.00">userver/utils/meta</text>
<text text-anchor="middle" x="488.5" y="-128" font-family="Helvetica,sans-Serif" font-size="10.00">_light.hpp</text>
</a>
</g>
</g>
<!-- Node7&#45;&gt;Node10 -->
<g id="edge11_Node000007_Node000010" class="edge">
<title>Node7&#45;&gt;Node10</title>
<g id="a_edge11_Node000007_Node000010"><a xlink:title=" ">
<path fill="none" stroke="#63b8ff" d="M230.86,-187.27C288.63,-176 369.71,-160.18 425.4,-149.31"/>
<polygon fill="#63b8ff" stroke="#63b8ff" points="426.35,-152.69 435.5,-147.34 425.01,-145.82 426.35,-152.69"/>
</a>
</g>
</g>
<!-- Node10&#45;&gt;Node2 -->
<g id="edge12_Node000010_Node000002" class="edge">
<title>Node10&#45;&gt;Node2</title>
<g id="a_edge12_Node000010_Node000002"><a xlink:title=" ">
<path fill="none" stroke="#63b8ff" d="M541.58,-122.93C544.6,-122.27 547.59,-121.62 550.5,-121 695.92,-89.95 731.42,-76.9 878.5,-55 1028.82,-32.62 1208.69,-18.89 1290.74,-13.34"/>
<polygon fill="#63b8ff" stroke="#63b8ff" points="1291.21,-16.82 1300.96,-12.66 1290.75,-9.84 1291.21,-16.82"/>
</a>
</g>
</g>
<!-- Node11 -->
<g id="Node000011" class="node">
<title>Node11</title>
<g id="a_Node000011"><a xlink:href="../../d9/dce/void__t_8hpp.html" target="_top" xlink:title="std::void_t implementation with workarounds for compiler bugs">
<polygon fill="white" stroke="#666666" points="989,-85 888,-85 888,-55 989,-55 989,-85"/>
<text text-anchor="start" x="896" y="-73" font-family="Helvetica,sans-Serif" font-size="10.00">userver/utils/void</text>
<text text-anchor="middle" x="938.5" y="-62" font-family="Helvetica,sans-Serif" font-size="10.00">_t.hpp</text>
</a>
</g>
</g>
<!-- Node10&#45;&gt;Node11 -->
<g id="edge13_Node000010_Node000011" class="edge">
<title>Node10&#45;&gt;Node11</title>
<g id="a_edge13_Node000010_Node000011"><a xlink:title=" ">
<path fill="none" stroke="#63b8ff" d="M541.82,-123.48C546.44,-122.59 551.05,-121.75 555.5,-121 668.69,-101.82 801.77,-85.93 877.52,-77.51"/>
<polygon fill="#63b8ff" stroke="#63b8ff" points="878.27,-80.95 887.82,-76.37 877.5,-73.99 878.27,-80.95"/>
</a>
</g>
</g>
<!-- Node11&#45;&gt;Node2 -->
<g id="edge14_Node000011_Node000002" class="edge">
<title>Node11&#45;&gt;Node2</title>
<g id="a_edge14_Node000011_Node000002"><a xlink:title=" ">
<path fill="none" stroke="#63b8ff" d="M989.17,-57.68C994,-56.73 998.84,-55.81 1003.5,-55 1105.8,-37.16 1226.91,-22.56 1290.82,-15.35"/>
<polygon fill="#63b8ff" stroke="#63b8ff" points="1291.4,-18.81 1300.95,-14.22 1290.62,-11.85 1291.4,-18.81"/>
</a>
</g>
</g>
<!-- Node12&#45;&gt;Node7 -->
<g id="edge20_Node000012_Node000007" class="edge">
<title>Node12&#45;&gt;Node7</title>
<g id="a_edge20_Node000012_Node000007"><a xlink:title=" ">
<path fill="none" stroke="#63b8ff" d="M563.88,-259.49C488.13,-250.24 356.8,-233.7 244.5,-217 243.23,-216.81 241.94,-216.62 240.65,-216.42"/>
<polygon fill="#63b8ff" stroke="#63b8ff" points="241.01,-212.94 230.6,-214.87 239.95,-219.86 241.01,-212.94"/>
</a>
</g>
</g>
<!-- Node12&#45;&gt;Node8 -->
<g id="edge21_Node000012_Node000008" class="edge">
<title>Node12&#45;&gt;Node8</title>
<g id="a_edge21_Node000012_Node000008"><a xlink:title=" ">
<path fill="none" stroke="#63b8ff" d="M563.98,-266.24C475.06,-263.83 318.3,-254.25 277.5,-217 262.24,-203.07 258.16,-179.31 257.5,-161.29"/>
<polygon fill="#63b8ff" stroke="#63b8ff" points="261,-161.19 257.45,-151.21 254,-161.23 261,-161.19"/>
</a>
</g>
</g>
<!-- Node13 -->
<g id="Node000013" class="node">
<title>Node13</title>
<g id="a_Node000013"><a xlink:title=" ">
<polygon fill="#e0e0e0" stroke="#999999" points="647.5,-145.5 597.5,-145.5 597.5,-126.5 647.5,-126.5 647.5,-145.5"/>
<text text-anchor="middle" x="622.5" y="-133.5" font-family="Helvetica,sans-Serif" font-size="10.00">chrono</text>
</a>
</g>
</g>
<!-- Node12&#45;&gt;Node13 -->
<g id="edge16_Node000012_Node000013" class="edge">
<title>Node12&#45;&gt;Node13</title>
<g id="a_edge16_Node000012_Node000013"><a xlink:title=" ">
<path fill="none" stroke="#63b8ff" d="M626.06,-252.84C625.34,-229.34 623.89,-182.26 623.08,-155.93"/>
<polygon fill="#63b8ff" stroke="#63b8ff" points="626.58,-155.64 622.77,-145.75 619.58,-155.85 626.58,-155.64"/>
</a>
</g>
</g>
<!-- Node14 -->
<g id="Node000014" class="node">
<title>Node14</title>
<g id="a_Node000014"><a xlink:title=" ">
<polygon fill="#e0e0e0" stroke="#999999" points="753.5,-145.5 703.5,-145.5 703.5,-126.5 753.5,-126.5 753.5,-145.5"/>
<text text-anchor="middle" x="728.5" y="-133.5" font-family="Helvetica,sans-Serif" font-size="10.00">cstdint</text>
</a>
</g>
</g>
<!-- Node12&#45;&gt;Node14 -->
<g id="edge17_Node000012_Node000014" class="edge">
<title>Node12&#45;&gt;Node14</title>
<g id="a_edge17_Node000012_Node000014"><a xlink:title=" ">
<path fill="none" stroke="#63b8ff" d="M689.34,-261.84C719.38,-255.84 752.8,-243.24 771.5,-217 786.5,-195.96 764.67,-169.07 747.02,-152.44"/>
<polygon fill="#63b8ff" stroke="#63b8ff" points="749.14,-149.64 739.35,-145.58 744.47,-154.86 749.14,-149.64"/>
</a>
</g>
</g>
<!-- Node15 -->
<g id="Node000015" class="node">
<title>Node15</title>
<g id="a_Node000015"><a xlink:title=" ">
<polygon fill="#e0e0e0" stroke="#999999" points="330.5,-211.5 286.5,-211.5 286.5,-192.5 330.5,-192.5 330.5,-211.5"/>
<text text-anchor="middle" x="308.5" y="-199.5" font-family="Helvetica,sans-Serif" font-size="10.00">limits</text>
</a>
</g>
</g>
<!-- Node12&#45;&gt;Node15 -->
<g id="edge18_Node000012_Node000015" class="edge">
<title>Node12&#45;&gt;Node15</title>
<g id="a_edge18_Node000012_Node000015"><a xlink:title=" ">
<path fill="none" stroke="#63b8ff" d="M563.86,-260.69C504.99,-253.69 414.91,-240.19 339.5,-217 338.05,-216.56 336.59,-216.06 335.12,-215.53"/>
<polygon fill="#63b8ff" stroke="#63b8ff" points="336.16,-212.17 325.58,-211.64 333.52,-218.66 336.16,-212.17"/>
</a>
</g>
</g>
<!-- Node16 -->
<g id="Node000016" class="node">
<title>Node16</title>
<g id="a_Node000016"><a xlink:title=" ">
<polygon fill="#e0e0e0" stroke="#999999" points="428,-211.5 349,-211.5 349,-192.5 428,-192.5 428,-211.5"/>
<text text-anchor="middle" x="388.5" y="-199.5" font-family="Helvetica,sans-Serif" font-size="10.00">fmt/format.h</text>
</a>
</g>
</g>
<!-- Node12&#45;&gt;Node16 -->
<g id="edge19_Node000012_Node000016" class="edge">
<title>Node12&#45;&gt;Node16</title>
<g id="a_edge19_Node000012_Node000016"><a xlink:title=" ">
<path fill="none" stroke="#63b8ff" d="M572.25,-252.95C534.43,-243.08 482.82,-229.47 437.5,-217 434.34,-216.13 431.08,-215.22 427.8,-214.3"/>
<polygon fill="#63b8ff" stroke="#63b8ff" points="428.59,-210.89 418.01,-211.53 426.68,-217.62 428.59,-210.89"/>
</a>
</g>
</g>
<!-- Node17 -->
<g id="Node000017" class="node">
<title>Node17</title>
<g id="a_Node000017"><a xlink:href="../../d7/d4a/datetime_8hpp.html" target="_top" xlink:title="Date and Time related converters.">
<polygon fill="white" stroke="#666666" points="1002.5,-211.5 856.5,-211.5 856.5,-192.5 1002.5,-192.5 1002.5,-211.5"/>
<text text-anchor="middle" x="929.5" y="-199.5" font-family="Helvetica,sans-Serif" font-size="10.00">userver/utils/datetime.hpp</text>
</a>
</g>
</g>
<!-- Node12&#45;&gt;Node17 -->
<g id="edge22_Node000012_Node000017" class="edge">
<title>Node12&#45;&gt;Node17</title>
<g id="a_edge22_Node000012_Node000017"><a xlink:title=" ">
<path fill="none" stroke="#63b8ff" d="M689.28,-253.74C745.51,-241.86 826.91,-224.67 879.02,-213.66"/>
<polygon fill="#63b8ff" stroke="#63b8ff" points="879.97,-217.04 889.03,-211.55 878.53,-210.19 879.97,-217.04"/>
</a>
</g>
</g>
<!-- Node21 -->
<g id="Node000021" class="node">
<title>Node21</title>
<g id="a_Node000021"><a xlink:href="../../dd/d10/from__string__saturating_8hpp.html" target="_top" xlink:title="Saturating converters from strings to time points.">
<polygon fill="white" stroke="#666666" points="598.5,-217 446.5,-217 446.5,-187 598.5,-187 598.5,-217"/>
<text text-anchor="start" x="454.5" y="-205" font-family="Helvetica,sans-Serif" font-size="10.00">userver/utils/datetime</text>
<text text-anchor="middle" x="522.5" y="-194" font-family="Helvetica,sans-Serif" font-size="10.00">/from_string_saturating.hpp</text>
</a>
</g>
</g>
<!-- Node12&#45;&gt;Node21 -->
<g id="edge29_Node000012_Node000021" class="edge">
<title>Node12&#45;&gt;Node21</title>
<g id="a_edge29_Node000012_Node000021"><a xlink:title=" ">
<path fill="none" stroke="#63b8ff" d="M603.68,-252.95C589.05,-243.95 569.86,-232.14 553.81,-222.27"/>
<polygon fill="#63b8ff" stroke="#63b8ff" points="555.62,-219.27 545.27,-217.01 551.95,-225.23 555.62,-219.27"/>
</a>
</g>
</g>
<!-- Node22 -->
<g id="Node000022" class="node">
<title>Node22</title>
<g id="a_Node000022"><a xlink:href="../../d0/d03/universal_2include_2userver_2utils_2meta_8hpp.html" target="_top" xlink:title="Metaprogramming, template variables and concepts.">
<polygon fill="white" stroke="#666666" points="1186,-211.5 1059,-211.5 1059,-192.5 1186,-192.5 1186,-211.5"/>
<text text-anchor="middle" x="1122.5" y="-199.5" font-family="Helvetica,sans-Serif" font-size="10.00">userver/utils/meta.hpp</text>
</a>
</g>
</g>
<!-- Node12&#45;&gt;Node22 -->
<g id="edge32_Node000012_Node000022" class="edge">
<title>Node12&#45;&gt;Node22</title>
<g id="a_edge32_Node000012_Node000022"><a xlink:title=" ">
<path fill="none" stroke="#63b8ff" d="M689.07,-258.93C780.75,-247.1 951.27,-225.09 1048.86,-212.5"/>
<polygon fill="#63b8ff" stroke="#63b8ff" points="1049.48,-215.95 1058.94,-211.2 1048.58,-209.01 1049.48,-215.95"/>
</a>
</g>
</g>
<!-- Node25 -->
<g id="Node000025" class="node">
<title>Node25</title>
<g id="a_Node000025"><a xlink:href="../../dc/dff/string__to__duration_8hpp.html" target="_top" xlink:title="Converts strings like &quot;10s&quot;, &quot;5d&quot;, &quot;1h&quot; to durations.">
<polygon fill="white" stroke="#666666" points="762.5,-217 654.5,-217 654.5,-187 762.5,-187 762.5,-217"/>
<text text-anchor="start" x="662.5" y="-205" font-family="Helvetica,sans-Serif" font-size="10.00">userver/utils/string</text>
<text text-anchor="middle" x="708.5" y="-194" font-family="Helvetica,sans-Serif" font-size="10.00">_to_duration.hpp</text>
</a>
</g>
</g>
<!-- Node12&#45;&gt;Node25 -->
<g id="edge39_Node000012_Node000025" class="edge">
<title>Node12&#45;&gt;Node25</title>
<g id="a_edge39_Node000012_Node000025"><a xlink:title=" ">
<path fill="none" stroke="#63b8ff" d="M644.7,-252.8C655.74,-244.18 670.01,-233.04 682.26,-223.48"/>
<polygon fill="#63b8ff" stroke="#63b8ff" points="684.62,-226.08 690.35,-217.16 680.32,-220.56 684.62,-226.08"/>
</a>
</g>
</g>
<!-- Node17&#45;&gt;Node6 -->
<g id="edge27_Node000017_Node000006" class="edge">
<title>Node17&#45;&gt;Node6</title>
<g id="a_edge27_Node000017_Node000006"><a xlink:title=" ">
<path fill="none" stroke="#63b8ff" d="M923.93,-192.43C914.34,-176.49 897.3,-141.98 914.5,-121 941.63,-87.9 1070.44,-76.28 1131.82,-72.57"/>
<polygon fill="#63b8ff" stroke="#63b8ff" points="1132.33,-76.05 1142.11,-71.99 1131.93,-69.06 1132.33,-76.05"/>
</a>
</g>
</g>
<!-- Node17&#45;&gt;Node13 -->
<g id="edge23_Node000017_Node000013" class="edge">
<title>Node17&#45;&gt;Node13</title>
<g id="a_edge23_Node000017_Node000013"><a xlink:title=" ">
<path fill="none" stroke="#63b8ff" d="M888.42,-192.44C827.66,-179.77 714.89,-156.26 657.71,-144.34"/>
<polygon fill="#63b8ff" stroke="#63b8ff" points="658.2,-140.87 647.7,-142.25 656.78,-147.72 658.2,-140.87"/>
</a>
</g>
</g>
<!-- Node17&#45;&gt;Node14 -->
<g id="edge24_Node000017_Node000014" class="edge">
<title>Node17&#45;&gt;Node14</title>
<g id="a_edge24_Node000017_Node000014"><a xlink:title=" ">
<path fill="none" stroke="#63b8ff" d="M897.49,-192.44C863.65,-183.15 808.85,-167.44 762.5,-151 761.07,-150.49 759.61,-149.96 758.15,-149.41"/>
<polygon fill="#63b8ff" stroke="#63b8ff" points="759.1,-146.02 748.51,-145.63 756.54,-152.54 759.1,-146.02"/>
</a>
</g>
</g>
<!-- Node18 -->
<g id="Node000018" class="node">
<title>Node18</title>
<g id="a_Node000018"><a xlink:title=" ">
<polygon fill="#e0e0e0" stroke="#999999" points="1101.5,-145.5 1045.5,-145.5 1045.5,-126.5 1101.5,-126.5 1101.5,-145.5"/>
<text text-anchor="middle" x="1073.5" y="-133.5" font-family="Helvetica,sans-Serif" font-size="10.00">optional</text>
</a>
</g>
</g>
<!-- Node17&#45;&gt;Node18 -->
<g id="edge25_Node000017_Node000018" class="edge">
<title>Node17&#45;&gt;Node18</title>
<g id="a_edge25_Node000017_Node000018"><a xlink:title=" ">
<path fill="none" stroke="#63b8ff" d="M948.92,-192.37C973.51,-181.44 1016.07,-162.52 1044.51,-149.88"/>
<polygon fill="#63b8ff" stroke="#63b8ff" points="1046.21,-152.96 1053.93,-145.7 1043.37,-146.56 1046.21,-152.96"/>
</a>
</g>
</g>
<!-- Node19 -->
<g id="Node000019" class="node">
<title>Node19</title>
<g id="a_Node000019"><a xlink:title=" ">
<polygon fill="#e0e0e0" stroke="#999999" points="989,-145.5 924,-145.5 924,-126.5 989,-126.5 989,-145.5"/>
<text text-anchor="middle" x="956.5" y="-133.5" font-family="Helvetica,sans-Serif" font-size="10.00">stdexcept</text>
</a>
</g>
</g>
<!-- Node17&#45;&gt;Node19 -->
<g id="edge26_Node000017_Node000019" class="edge">
<title>Node17&#45;&gt;Node19</title>
<g id="a_edge26_Node000017_Node000019"><a xlink:title=" ">
<path fill="none" stroke="#63b8ff" d="M933.14,-192.37C937.14,-182.88 943.69,-167.36 948.84,-155.16"/>
<polygon fill="#63b8ff" stroke="#63b8ff" points="952.08,-156.48 952.74,-145.91 945.63,-153.76 952.08,-156.48"/>
</a>
</g>
</g>
<!-- Node20 -->
<g id="Node000020" class="node">
<title>Node20</title>
<g id="a_Node000020"><a xlink:title=" ">
<polygon fill="#e0e0e0" stroke="#999999" points="867.5,-145.5 771.5,-145.5 771.5,-126.5 867.5,-126.5 867.5,-145.5"/>
<text text-anchor="middle" x="819.5" y="-133.5" font-family="Helvetica,sans-Serif" font-size="10.00">cctz/civil_time.h</text>
</a>
</g>
</g>
<!-- Node17&#45;&gt;Node20 -->
<g id="edge28_Node000017_Node000020" class="edge">
<title>Node17&#45;&gt;Node20</title>
<g id="a_edge28_Node000017_Node000020"><a xlink:title=" ">
<path fill="none" stroke="#63b8ff" d="M914.66,-192.37C896.38,-181.73 865.06,-163.51 843.37,-150.89"/>
<polygon fill="#63b8ff" stroke="#63b8ff" points="844.86,-147.7 834.45,-145.7 841.33,-153.75 844.86,-147.7"/>
</a>
</g>
</g>
<!-- Node21&#45;&gt;Node6 -->
<g id="edge31_Node000021_Node000006" class="edge">
<title>Node21&#45;&gt;Node6</title>
<g id="a_edge31_Node000021_Node000006"><a xlink:title=" ">
<path fill="none" stroke="#63b8ff" d="M529.59,-186.76C539.77,-168.03 560.45,-135.74 588.5,-121 591.54,-119.4 1011.43,-83.9 1132.3,-73.71"/>
<polygon fill="#63b8ff" stroke="#63b8ff" points="1132.73,-77.19 1142.4,-72.86 1132.15,-70.21 1132.73,-77.19"/>
</a>
</g>
</g>
<!-- Node21&#45;&gt;Node13 -->
<g id="edge30_Node000021_Node000013" class="edge">
<title>Node21&#45;&gt;Node13</title>
<g id="a_edge30_Node000021_Node000013"><a xlink:title=" ">
<path fill="none" stroke="#63b8ff" d="M544.69,-186.8C561.3,-176.17 583.9,-161.7 600.47,-151.1"/>
<polygon fill="#63b8ff" stroke="#63b8ff" points="602.44,-154 608.97,-145.66 598.66,-148.1 602.44,-154"/>
</a>
</g>
</g>
<!-- Node22&#45;&gt;Node2 -->
<g id="edge36_Node000022_Node000002" class="edge">
<title>Node22&#45;&gt;Node2</title>
<g id="a_edge36_Node000022_Node000002"><a xlink:title=" ">
<path fill="none" stroke="#63b8ff" d="M1092.96,-192.41C1073.15,-184.95 1048.56,-171.96 1036.5,-151 1029.85,-139.44 1030.26,-132.79 1036.5,-121 1084.44,-30.39 1219.56,-13.05 1290.59,-10.39"/>
<polygon fill="#63b8ff" stroke="#63b8ff" points="1291.1,-13.88 1301,-10.09 1290.9,-6.88 1291.1,-13.88"/>
</a>
</g>
</g>
<!-- Node22&#45;&gt;Node5 -->
<g id="edge34_Node000022_Node000005" class="edge">
<title>Node22&#45;&gt;Node5</title>
<g id="a_edge34_Node000022_Node000005"><a xlink:title=" ">
<path fill="none" stroke="#63b8ff" d="M1186.18,-196.63C1283.22,-189.54 1473.81,-174 1634.5,-151 1646.71,-149.25 1659.98,-146.89 1671.86,-144.61"/>
<polygon fill="#63b8ff" stroke="#63b8ff" points="1672.74,-148 1681.88,-142.63 1671.39,-141.13 1672.74,-148"/>
</a>
</g>
</g>
<!-- Node22&#45;&gt;Node10 -->
<g id="edge38_Node000022_Node000010" class="edge">
<title>Node22&#45;&gt;Node10</title>
<g id="a_edge38_Node000022_Node000010"><a xlink:title=" ">
<path fill="none" stroke="#63b8ff" d="M1058.86,-192.52C1043.38,-190.59 1026.86,-188.62 1011.5,-187 823.86,-167.19 776,-172.09 588.5,-151 576.59,-149.66 563.91,-148.04 551.72,-146.38"/>
<polygon fill="#63b8ff" stroke="#63b8ff" points="552.01,-142.89 541.63,-144.98 551.05,-149.82 552.01,-142.89"/>
</a>
</g>
</g>
<!-- Node22&#45;&gt;Node18 -->
<g id="edge35_Node000022_Node000018" class="edge">
<title>Node22&#45;&gt;Node18</title>
<g id="a_edge35_Node000022_Node000018"><a xlink:title=" ">
<path fill="none" stroke="#63b8ff" d="M1115.89,-192.37C1108.41,-182.59 1096.03,-166.42 1086.57,-154.08"/>
<polygon fill="#63b8ff" stroke="#63b8ff" points="1089.18,-151.72 1080.32,-145.91 1083.62,-155.97 1089.18,-151.72"/>
</a>
</g>
</g>
<!-- Node23 -->
<g id="Node000023" class="node">
<title>Node23</title>
<g id="a_Node000023"><a xlink:title=" ">
<polygon fill="#e0e0e0" stroke="#999999" points="1233.5,-145.5 1185.5,-145.5 1185.5,-126.5 1233.5,-126.5 1233.5,-145.5"/>
<text text-anchor="middle" x="1209.5" y="-133.5" font-family="Helvetica,sans-Serif" font-size="10.00">iosfwd</text>
</a>
</g>
</g>
<!-- Node22&#45;&gt;Node23 -->
<g id="edge33_Node000022_Node000023" class="edge">
<title>Node22&#45;&gt;Node23</title>
<g id="a_edge33_Node000022_Node000023"><a xlink:title=" ">
<path fill="none" stroke="#63b8ff" d="M1134.23,-192.37C1148.37,-181.97 1172.36,-164.32 1189.45,-151.75"/>
<polygon fill="#63b8ff" stroke="#63b8ff" points="1191.69,-154.44 1197.67,-145.7 1187.55,-148.81 1191.69,-154.44"/>
</a>
</g>
</g>
<!-- Node24 -->
<g id="Node000024" class="node">
<title>Node24</title>
<g id="a_Node000024"><a xlink:title=" ">
<polygon fill="#e0e0e0" stroke="#999999" points="1167,-145.5 1120,-145.5 1120,-126.5 1167,-126.5 1167,-145.5"/>
<text text-anchor="middle" x="1143.5" y="-133.5" font-family="Helvetica,sans-Serif" font-size="10.00">vector</text>
</a>
</g>
</g>
<!-- Node22&#45;&gt;Node24 -->
<g id="edge37_Node000022_Node000024" class="edge">
<title>Node22&#45;&gt;Node24</title>
<g id="a_edge37_Node000022_Node000024"><a xlink:title=" ">
<path fill="none" stroke="#63b8ff" d="M1125.33,-192.37C1128.41,-182.97 1133.44,-167.67 1137.42,-155.53"/>
<polygon fill="#63b8ff" stroke="#63b8ff" points="1140.79,-156.5 1140.58,-145.91 1134.13,-154.32 1140.79,-156.5"/>
</a>
</g>
</g>
<!-- Node25&#45;&gt;Node6 -->
<g id="edge41_Node000025_Node000006" class="edge">
<title>Node25&#45;&gt;Node6</title>
<g id="a_edge41_Node000025_Node000006"><a xlink:title=" ">
<path fill="none" stroke="#63b8ff" d="M699.9,-186.94C690.32,-169.3 678.19,-139.14 694.5,-121 701.86,-112.82 1027.24,-83.21 1132.22,-73.85"/>
<polygon fill="#63b8ff" stroke="#63b8ff" points="1132.58,-77.34 1142.23,-72.96 1131.96,-70.36 1132.58,-77.34"/>
</a>
</g>
</g>
<!-- Node25&#45;&gt;Node13 -->
<g id="edge40_Node000025_Node000013" class="edge">
<title>Node25&#45;&gt;Node13</title>
<g id="a_edge40_Node000025_Node000013"><a xlink:title=" ">
<path fill="none" stroke="#63b8ff" d="M689.41,-186.8C675.48,-176.43 656.64,-162.4 642.5,-151.88"/>
<polygon fill="#63b8ff" stroke="#63b8ff" points="644.5,-149.01 634.38,-145.84 640.32,-154.62 644.5,-149.01"/>
</a>
</g>
</g>
<!-- Node26&#45;&gt;Node6 -->
<g id="edge45_Node000026_Node000006" class="edge">
<title>Node26&#45;&gt;Node6</title>
<g id="a_edge45_Node000026_Node000006"><a xlink:title=" ">
<path fill="none" stroke="#63b8ff" d="M1261.61,-252.85C1264.97,-225.18 1268.73,-162.99 1242.5,-121 1231.74,-103.78 1212.63,-91.39 1196.02,-83.24"/>
<polygon fill="#63b8ff" stroke="#63b8ff" points="1197.16,-79.92 1186.61,-78.94 1194.24,-86.28 1197.16,-79.92"/>
</a>
</g>
</g>
<!-- Node26&#45;&gt;Node19 -->
<g id="edge44_Node000026_Node000019" class="edge">
<title>Node26&#45;&gt;Node19</title>
<g id="a_edge44_Node000026_Node000019"><a xlink:title=" ">
<path fill="none" stroke="#63b8ff" d="M1198.47,-260.27C1155.07,-253.67 1096.4,-240.94 1049.5,-217 1040.89,-212.61 997.75,-174.24 973.36,-152.27"/>
<polygon fill="#63b8ff" stroke="#63b8ff" points="975.66,-149.63 965.89,-145.52 970.97,-154.82 975.66,-149.63"/>
</a>
</g>
</g>
<!-- Node26&#45;&gt;Node23 -->
<g id="edge43_Node000026_Node000023" class="edge">
<title>Node26&#45;&gt;Node23</title>
<g id="a_edge43_Node000026_Node000023"><a xlink:title=" ">
<path fill="none" stroke="#63b8ff" d="M1254.05,-252.84C1244.93,-229.13 1226.58,-181.41 1216.51,-155.23"/>
<polygon fill="#63b8ff" stroke="#63b8ff" points="1219.72,-153.83 1212.86,-145.75 1213.19,-156.34 1219.72,-153.83"/>
</a>
</g>
</g>
<!-- Node26&#45;&gt;Node27 -->
<g id="edge46_Node000026_Node000027" class="edge">
<title>Node26&#45;&gt;Node27</title>
<g id="a_edge46_Node000026_Node000027"><a xlink:title=" ">
<path fill="none" stroke="#63b8ff" d="M1290.22,-252.95C1310.65,-243.62 1337.67,-231.27 1359.73,-221.18"/>
<polygon fill="#63b8ff" stroke="#63b8ff" points="1361.21,-224.35 1368.85,-217.01 1358.3,-217.99 1361.21,-224.35"/>
</a>
</g>
</g>
<!-- Node27&#45;&gt;Node2 -->
<g id="edge47_Node000027_Node000002" class="edge">
<title>Node27&#45;&gt;Node2</title>
<g id="a_edge47_Node000027_Node000002"><a xlink:title=" ">
<path fill="none" stroke="#63b8ff" d="M1460.69,-192.03C1526.59,-181.74 1623.53,-164.56 1634.5,-151 1642.89,-140.64 1637.64,-133.96 1634.5,-121 1626.73,-88.93 1627.15,-74.46 1600.5,-55 1566.17,-29.93 1446.41,-18 1380.26,-13.21"/>
<polygon fill="#63b8ff" stroke="#63b8ff" points="1380.34,-9.71 1370.12,-12.5 1379.86,-16.69 1380.34,-9.71"/>
</a>
</g>
</g>
<!-- Node27&#45;&gt;Node11 -->
<g id="edge48_Node000027_Node000011" class="edge">
<title>Node27&#45;&gt;Node11</title>
<g id="a_edge48_Node000027_Node000011"><a xlink:title=" ">
<path fill="none" stroke="#63b8ff" d="M1377.32,-186.9C1347.74,-168.77 1293.22,-137.65 1242.5,-121 1160.66,-94.14 1061.49,-81.29 999.18,-75.45"/>
<polygon fill="#63b8ff" stroke="#63b8ff" points="999.4,-71.95 989.12,-74.54 998.77,-78.93 999.4,-71.95"/>
</a>
</g>
</g>
<!-- Node28 -->
<g id="Node000028" class="node">
<title>Node28</title>
<g id="a_Node000028"><a xlink:href="../../d1/d4c/path_8hpp.html" target="_top" xlink:title=" ">
<polygon fill="white" stroke="#666666" points="1625.5,-151 1485.5,-151 1485.5,-121 1625.5,-121 1625.5,-151"/>
<text text-anchor="start" x="1493.5" y="-139" font-family="Helvetica,sans-Serif" font-size="10.00">userver/formats/common</text>
<text text-anchor="middle" x="1555.5" y="-128" font-family="Helvetica,sans-Serif" font-size="10.00">/path.hpp</text>
</a>
</g>
</g>
<!-- Node27&#45;&gt;Node28 -->
<g id="edge49_Node000027_Node000028" class="edge">
<title>Node27&#45;&gt;Node28</title>
<g id="a_edge49_Node000027_Node000028"><a xlink:title=" ">
<path fill="none" stroke="#63b8ff" d="M1433.73,-186.95C1456.7,-177.53 1487.14,-165.04 1511.84,-154.91"/>
<polygon fill="#63b8ff" stroke="#63b8ff" points="1513.42,-158.05 1521.34,-151.01 1510.76,-151.57 1513.42,-158.05"/>
</a>
</g>
</g>
<!-- Node30 -->
<g id="Node000030" class="node">
<title>Node30</title>
<g id="a_Node000030"><a xlink:href="../../da/d72/type_8hpp.html" target="_top" xlink:title="Common enum of types.">
<polygon fill="white" stroke="#666666" points="1467.5,-151 1327.5,-151 1327.5,-121 1467.5,-121 1467.5,-151"/>
<text text-anchor="start" x="1335.5" y="-139" font-family="Helvetica,sans-Serif" font-size="10.00">userver/formats/common</text>
<text text-anchor="middle" x="1397.5" y="-128" font-family="Helvetica,sans-Serif" font-size="10.00">/type.hpp</text>
</a>
</g>
</g>
<!-- Node27&#45;&gt;Node30 -->
<g id="edge52_Node000027_Node000030" class="edge">
<title>Node27&#45;&gt;Node30</title>
<g id="a_edge52_Node000027_Node000030"><a xlink:title=" ">
<path fill="none" stroke="#63b8ff" d="M1399.06,-186.8C1398.82,-179.34 1398.53,-169.99 1398.26,-161.41"/>
<polygon fill="#63b8ff" stroke="#63b8ff" points="1401.75,-161.05 1397.94,-151.16 1394.76,-161.27 1401.75,-161.05"/>
</a>
</g>
</g>
<!-- Node28&#45;&gt;Node6 -->
<g id="edge50_Node000028_Node000006" class="edge">
<title>Node28&#45;&gt;Node6</title>
<g id="a_edge50_Node000028_Node000006"><a xlink:title=" ">
<path fill="none" stroke="#63b8ff" d="M1485.3,-122.5C1482.33,-121.99 1479.38,-121.49 1476.5,-121 1374.61,-103.81 1253.75,-84.85 1196.99,-76.03"/>
<polygon fill="#63b8ff" stroke="#63b8ff" points="1197.26,-72.53 1186.84,-74.45 1196.19,-79.44 1197.26,-72.53"/>
</a>
</g>
</g>
<!-- Node29 -->
<g id="Node000029" class="node">
<title>Node29</title>
<g id="a_Node000029"><a xlink:title=" ">
<polygon fill="#e0e0e0" stroke="#999999" points="1592,-79.5 1519,-79.5 1519,-60.5 1592,-60.5 1592,-79.5"/>
<text text-anchor="middle" x="1555.5" y="-67.5" font-family="Helvetica,sans-Serif" font-size="10.00">string_view</text>
</a>
</g>
</g>
<!-- Node28&#45;&gt;Node29 -->
<g id="edge51_Node000028_Node000029" class="edge">
<title>Node28&#45;&gt;Node29</title>
<g id="a_edge51_Node000028_Node000029"><a xlink:title=" ">
<path fill="none" stroke="#63b8ff" d="M1555.5,-120.8C1555.5,-111.7 1555.5,-99.79 1555.5,-89.9"/>
<polygon fill="#63b8ff" stroke="#63b8ff" points="1559,-89.84 1555.5,-79.84 1552,-89.84 1559,-89.84"/>
</a>
</g>
</g>
<!-- Node31&#45;&gt;Node5 -->
<g id="edge55_Node000031_Node000005" class="edge">
<title>Node31&#45;&gt;Node5</title>
<g id="a_edge55_Node000031_Node000005"><a xlink:title=" ">
<path fill="none" stroke="#63b8ff" d="M1432.86,-252.96C1493.49,-227.46 1620.83,-173.89 1678.72,-149.53"/>
<polygon fill="#63b8ff" stroke="#63b8ff" points="1680.18,-152.71 1688.04,-145.61 1677.47,-146.26 1680.18,-152.71"/>
</a>
</g>
</g>
<!-- Node31&#45;&gt;Node14 -->
<g id="edge54_Node000031_Node000014" class="edge">
<title>Node31&#45;&gt;Node14</title>
<g id="a_edge54_Node000031_Node000014"><a xlink:title=" ">
<path fill="none" stroke="#63b8ff" d="M1338.49,-254.34C1335.46,-253.85 1332.45,-253.4 1329.5,-253 1116.66,-223.88 1050.5,-287.26 847.5,-217 807,-202.98 767.16,-171.64 745.4,-152.61"/>
<polygon fill="#63b8ff" stroke="#63b8ff" points="747.52,-149.82 737.74,-145.76 742.86,-155.03 747.52,-149.82"/>
</a>
</g>
</g>
<!-- Node31&#45;&gt;Node18 -->
<g id="edge56_Node000031_Node000018" class="edge">
<title>Node31&#45;&gt;Node18</title>
<g id="a_edge56_Node000031_Node000018"><a xlink:title=" ">
<path fill="none" stroke="#63b8ff" d="M1364.3,-252.96C1300.2,-227.4 1165.44,-173.66 1104.54,-149.38"/>
<polygon fill="#63b8ff" stroke="#63b8ff" points="1105.67,-146.06 1095.08,-145.61 1103.08,-152.56 1105.67,-146.06"/>
</a>
</g>
</g>
<!-- Node31&#45;&gt;Node27 -->
<g id="edge57_Node000031_Node000027" class="edge">
<title>Node31&#45;&gt;Node27</title>
<g id="a_edge57_Node000031_Node000027"><a xlink:title=" ">
<path fill="none" stroke="#63b8ff" d="M1399.5,-252.8C1399.5,-245.34 1399.5,-235.99 1399.5,-227.41"/>
<polygon fill="#63b8ff" stroke="#63b8ff" points="1403,-227.16 1399.5,-217.16 1396,-227.16 1403,-227.16"/>
</a>
</g>
</g>
<!-- Node31&#45;&gt;Node32 -->
<g id="edge58_Node000031_Node000032" class="edge">
<title>Node31&#45;&gt;Node32</title>
<g id="a_edge58_Node000031_Node000032"><a xlink:title=" ">
<path fill="none" stroke="#63b8ff" d="M1460.65,-261.87C1546.32,-254.27 1706.82,-238.58 1842.5,-217 1845.2,-216.57 1847.95,-216.11 1850.73,-215.62"/>
<polygon fill="#63b8ff" stroke="#63b8ff" points="1851.63,-219.01 1860.83,-213.77 1850.36,-212.13 1851.63,-219.01"/>
</a>
</g>
</g>
<!-- Node32&#45;&gt;Node2 -->
<g id="edge61_Node000032_Node000002" class="edge">
<title>Node32&#45;&gt;Node2</title>
<g id="a_edge61_Node000032_Node000002"><a xlink:title=" ">
<path fill="none" stroke="#63b8ff" d="M1952.65,-186.92C1989.11,-172.49 2032.74,-148.33 2010.5,-121 1930.88,-23.16 1518.48,-11.61 1380.52,-10.51"/>
<polygon fill="#63b8ff" stroke="#63b8ff" points="1380.33,-7.01 1370.3,-10.45 1380.28,-14.01 1380.33,-7.01"/>
</a>
</g>
</g>
<!-- Node32&#45;&gt;Node4 -->
<g id="edge59_Node000032_Node000004" class="edge">
<title>Node32&#45;&gt;Node4</title>
<g id="a_edge59_Node000032_Node000004"><a xlink:title=" ">
<path fill="none" stroke="#63b8ff" d="M1898.52,-186.8C1890.26,-177.01 1879.26,-163.98 1870.59,-153.7"/>
<polygon fill="#63b8ff" stroke="#63b8ff" points="1873.09,-151.23 1863.96,-145.84 1867.74,-155.74 1873.09,-151.23"/>
</a>
</g>
</g>
<!-- Node33 -->
<g id="Node000033" class="node">
<title>Node33</title>
<g id="a_Node000033"><a xlink:title=" ">
<polygon fill="#e0e0e0" stroke="#999999" points="1938,-145.5 1901,-145.5 1901,-126.5 1938,-126.5 1938,-145.5"/>
<text text-anchor="middle" x="1919.5" y="-133.5" font-family="Helvetica,sans-Serif" font-size="10.00">new</text>
</a>
</g>
</g>
<!-- Node32&#45;&gt;Node33 -->
<g id="edge60_Node000032_Node000033" class="edge">
<title>Node32&#45;&gt;Node33</title>
<g id="a_edge60_Node000032_Node000033"><a xlink:title=" ">
<path fill="none" stroke="#63b8ff" d="M1912.5,-186.8C1913.78,-177.7 1915.45,-165.79 1916.84,-155.9"/>
<polygon fill="#63b8ff" stroke="#63b8ff" points="1920.33,-156.23 1918.26,-145.84 1913.4,-155.26 1920.33,-156.23"/>
</a>
</g>
</g>
<!-- Node34 -->
<g id="Node000034" class="node">
<title>Node34</title>
<g id="a_Node000034"><a xlink:title=" ">
<polygon fill="#e0e0e0" stroke="#999999" points="2001,-145.5 1956,-145.5 1956,-126.5 2001,-126.5 2001,-145.5"/>
<text text-anchor="middle" x="1978.5" y="-133.5" font-family="Helvetica,sans-Serif" font-size="10.00">utility</text>
</a>
</g>
</g>
<!-- Node32&#45;&gt;Node34 -->
<g id="edge62_Node000032_Node000034" class="edge">
<title>Node32&#45;&gt;Node34</title>
<g id="a_edge62_Node000032_Node000034"><a xlink:title=" ">
<path fill="none" stroke="#63b8ff" d="M1925.59,-186.8C1936.3,-176.72 1950.67,-163.19 1961.73,-152.78"/>
<polygon fill="#63b8ff" stroke="#63b8ff" points="1964.22,-155.25 1969.1,-145.84 1959.42,-150.15 1964.22,-155.25"/>
</a>
</g>
</g>
</g>
</svg>
