<?xml version="1.0" encoding="UTF-8" standalone="no"?>
<!DOCTYPE svg PUBLIC "-//W3C//DTD SVG 1.1//EN"
 "http://www.w3.org/Graphics/SVG/1.1/DTD/svg11.dtd">
<!-- Generated by graphviz version 2.43.0 (0)
 -->
<!-- Title: userver/utils/trivial_map.hpp Pages: 1 -->
<svg width="2671pt" height="533pt"
 viewBox="0.00 0.00 2671.00 533.00" xmlns="http://www.w3.org/2000/svg" xmlns:xlink="http://www.w3.org/1999/xlink">
<g id="graph0" class="graph" transform="scale(1 1) rotate(0) translate(4 529)">
<title>userver/utils/trivial_map.hpp</title>
<!-- Node1 -->
<g id="Node000001" class="node">
<title>Node1</title>
<g id="a_Node000001"><a xlink:title="Bidirectional map|sets over string literals or other trivial types.">
<polygon fill="#999999" stroke="#666666" points="701,-525 592,-525 592,-495 701,-495 701,-525"/>
<text text-anchor="start" x="600" y="-513" font-family="Helvetica,sans-Serif" font-size="10.00">userver/utils/trivial</text>
<text text-anchor="middle" x="646.5" y="-502" font-family="Helvetica,sans-Serif" font-size="10.00">_map.hpp</text>
</a>
</g>
</g>
<!-- Node2 -->
<g id="Node000002" class="node">
<title>Node2</title>
<g id="a_Node000002"><a xlink:href="../../de/dd5/predefined__header_8hpp_source.html" target="_top" xlink:title=" ">
<polygon fill="white" stroke="#666666" points="561,-459 430,-459 430,-429 561,-429 561,-459"/>
<text text-anchor="start" x="438" y="-447" font-family="Helvetica,sans-Serif" font-size="10.00">userver/http/predefined</text>
<text text-anchor="middle" x="495.5" y="-436" font-family="Helvetica,sans-Serif" font-size="10.00">_header.hpp</text>
</a>
</g>
</g>
<!-- Node1&#45;&gt;Node2 -->
<g id="edge1_Node000001_Node000002" class="edge">
<title>Node1&#45;&gt;Node2</title>
<g id="a_edge1_Node000001_Node000002"><a xlink:title=" ">
<path fill="none" stroke="#63b8ff" d="M603.84,-490.92C579.97,-480.8 550.67,-468.38 528.56,-459.01"/>
<polygon fill="#63b8ff" stroke="#63b8ff" points="602.79,-494.28 613.36,-494.95 605.52,-487.83 602.79,-494.28"/>
</a>
</g>
</g>
<!-- Node41 -->
<g id="Node000041" class="node">
<title>Node41</title>
<g id="a_Node000041"><a xlink:href="../../d2/ddc/core_2include_2userver_2server_2handlers_2auth_2digest_2types_8hpp.html" target="_top" xlink:title="Types for validating directive values.">
<polygon fill="white" stroke="#666666" points="712.5,-459 580.5,-459 580.5,-429 712.5,-429 712.5,-459"/>
<text text-anchor="start" x="588.5" y="-447" font-family="Helvetica,sans-Serif" font-size="10.00">userver/server/handlers</text>
<text text-anchor="middle" x="646.5" y="-436" font-family="Helvetica,sans-Serif" font-size="10.00">/auth/digest/types.hpp</text>
</a>
</g>
</g>
<!-- Node1&#45;&gt;Node41 -->
<g id="edge51_Node000001_Node000041" class="edge">
<title>Node1&#45;&gt;Node41</title>
<g id="a_edge51_Node000001_Node000041"><a xlink:title=" ">
<path fill="none" stroke="#63b8ff" d="M646.5,-484.54C646.5,-475.96 646.5,-466.61 646.5,-459.16"/>
<polygon fill="#63b8ff" stroke="#63b8ff" points="643,-484.8 646.5,-494.8 650,-484.8 643,-484.8"/>
</a>
</g>
</g>
<!-- Node42 -->
<g id="Node000042" class="node">
<title>Node42</title>
<g id="a_Node000042"><a xlink:href="../../d2/dc1/structs_8hpp_source.html" target="_top" xlink:title=" ">
<polygon fill="white" stroke="#666666" points="874,-453.5 731,-453.5 731,-434.5 874,-434.5 874,-453.5"/>
<text text-anchor="middle" x="802.5" y="-441.5" font-family="Helvetica,sans-Serif" font-size="10.00">userver/ydb/io/structs.hpp</text>
</a>
</g>
</g>
<!-- Node1&#45;&gt;Node42 -->
<g id="edge52_Node000001_Node000042" class="edge">
<title>Node1&#45;&gt;Node42</title>
<g id="a_edge52_Node000001_Node000042"><a xlink:title=" ">
<path fill="none" stroke="#63b8ff" d="M690.13,-491.1C720.07,-478.82 758.47,-463.06 781.74,-453.52"/>
<polygon fill="#63b8ff" stroke="#63b8ff" points="688.66,-487.92 680.73,-494.95 691.31,-494.4 688.66,-487.92"/>
</a>
</g>
</g>
<!-- Node3 -->
<g id="Node000003" class="node">
<title>Node3</title>
<g id="a_Node000003"><a xlink:href="../../d8/d9f/common__headers_8hpp.html" target="_top" xlink:title="Common HTTP header names.">
<polygon fill="white" stroke="#666666" points="419.5,-393 297.5,-393 297.5,-363 419.5,-363 419.5,-393"/>
<text text-anchor="start" x="305.5" y="-381" font-family="Helvetica,sans-Serif" font-size="10.00">userver/http/common</text>
<text text-anchor="middle" x="358.5" y="-370" font-family="Helvetica,sans-Serif" font-size="10.00">_headers.hpp</text>
</a>
</g>
</g>
<!-- Node2&#45;&gt;Node3 -->
<g id="edge2_Node000002_Node000003" class="edge">
<title>Node2&#45;&gt;Node3</title>
<g id="a_edge2_Node000002_Node000003"><a xlink:title=" ">
<path fill="none" stroke="#63b8ff" d="M456.22,-424.65C434.67,-414.58 408.38,-402.3 388.49,-393.01"/>
<polygon fill="#63b8ff" stroke="#63b8ff" points="454.89,-427.89 465.43,-428.95 457.86,-421.55 454.89,-427.89"/>
</a>
</g>
</g>
<!-- Node4 -->
<g id="Node000004" class="node">
<title>Node4</title>
<g id="a_Node000004"><a xlink:href="../../d4/d81/header__map_8hpp_source.html" target="_top" xlink:title=" ">
<polygon fill="white" stroke="#666666" points="551,-393 438,-393 438,-363 551,-363 551,-393"/>
<text text-anchor="start" x="446" y="-381" font-family="Helvetica,sans-Serif" font-size="10.00">userver/http/header</text>
<text text-anchor="middle" x="494.5" y="-370" font-family="Helvetica,sans-Serif" font-size="10.00">_map.hpp</text>
</a>
</g>
</g>
<!-- Node2&#45;&gt;Node4 -->
<g id="edge3_Node000002_Node000004" class="edge">
<title>Node2&#45;&gt;Node4</title>
<g id="a_edge3_Node000002_Node000004"><a xlink:title=" ">
<path fill="none" stroke="#63b8ff" d="M495.12,-418.54C494.98,-409.96 494.84,-400.61 494.72,-393.16"/>
<polygon fill="#63b8ff" stroke="#63b8ff" points="491.62,-418.85 495.28,-428.8 498.62,-418.74 491.62,-418.85"/>
</a>
</g>
</g>
<!-- Node40 -->
<g id="Node000040" class="node">
<title>Node40</title>
<g id="a_Node000040"><a xlink:href="../../d2/dd7/http__response__cookie_8hpp.html" target="_top" xlink:title="HTTP response cookie.">
<polygon fill="white" stroke="#666666" points="716,-393 569,-393 569,-363 716,-363 716,-393"/>
<text text-anchor="start" x="577" y="-381" font-family="Helvetica,sans-Serif" font-size="10.00">userver/server/http</text>
<text text-anchor="middle" x="642.5" y="-370" font-family="Helvetica,sans-Serif" font-size="10.00">/http_response_cookie.hpp</text>
</a>
</g>
</g>
<!-- Node2&#45;&gt;Node40 -->
<g id="edge48_Node000002_Node000040" class="edge">
<title>Node2&#45;&gt;Node40</title>
<g id="a_edge48_Node000002_Node000040"><a xlink:title=" ">
<path fill="none" stroke="#63b8ff" d="M537.03,-424.92C560.26,-414.8 588.79,-402.38 610.31,-393.01"/>
<polygon fill="#63b8ff" stroke="#63b8ff" points="535.53,-421.75 527.76,-428.95 538.32,-428.17 535.53,-421.75"/>
</a>
</g>
</g>
<!-- Node5 -->
<g id="Node000005" class="node">
<title>Node5</title>
<g id="a_Node000005"><a xlink:href="../../d9/d31/core_2include_2userver_2clients_2http_2response_8hpp.html" target="_top" xlink:title="Class that will be returned for successful request.">
<polygon fill="white" stroke="#666666" points="2318,-327 2207,-327 2207,-297 2318,-297 2318,-327"/>
<text text-anchor="start" x="2215" y="-315" font-family="Helvetica,sans-Serif" font-size="10.00">userver/clients/http</text>
<text text-anchor="middle" x="2262.5" y="-304" font-family="Helvetica,sans-Serif" font-size="10.00">/response.hpp</text>
</a>
</g>
</g>
<!-- Node4&#45;&gt;Node5 -->
<g id="edge4_Node000004_Node000005" class="edge">
<title>Node4&#45;&gt;Node5</title>
<g id="a_edge4_Node000004_Node000005"><a xlink:title=" ">
<path fill="none" stroke="#63b8ff" d="M561.41,-363.1C910.81,-323.35 1954.17,-314.81 2206.93,-313.29"/>
<polygon fill="#63b8ff" stroke="#63b8ff" points="560.8,-359.64 551.27,-364.28 561.61,-366.6 560.8,-359.64"/>
</a>
</g>
</g>
<!-- Node14 -->
<g id="Node000014" class="node">
<title>Node14</title>
<g id="a_Node000014"><a xlink:href="../../d2/d45/http__request_8hpp.html" target="_top" xlink:title="HTTP Request data.">
<polygon fill="white" stroke="#666666" points="393.5,-255.5 283.5,-255.5 283.5,-225.5 393.5,-225.5 393.5,-255.5"/>
<text text-anchor="start" x="291.5" y="-243.5" font-family="Helvetica,sans-Serif" font-size="10.00">userver/server/http</text>
<text text-anchor="middle" x="338.5" y="-232.5" font-family="Helvetica,sans-Serif" font-size="10.00">/http_request.hpp</text>
</a>
</g>
</g>
<!-- Node4&#45;&gt;Node14 -->
<g id="edge15_Node000004_Node000014" class="edge">
<title>Node4&#45;&gt;Node14</title>
<g id="a_edge15_Node000004_Node000014"><a xlink:title=" ">
<path fill="none" stroke="#63b8ff" d="M467.64,-356.83C456.03,-347.91 442.41,-337.16 430.5,-327 402.13,-302.81 370.61,-272.79 352.81,-255.52"/>
<polygon fill="#63b8ff" stroke="#63b8ff" points="465.61,-359.68 475.68,-362.97 469.85,-354.12 465.61,-359.68"/>
</a>
</g>
</g>
<!-- Node38 -->
<g id="Node000038" class="node">
<title>Node38</title>
<g id="a_Node000038"><a xlink:href="../../db/d6b/http__response_8hpp.html" target="_top" xlink:title="HTTP Response data.">
<polygon fill="white" stroke="#666666" points="549.5,-327 439.5,-327 439.5,-297 549.5,-297 549.5,-327"/>
<text text-anchor="start" x="447.5" y="-315" font-family="Helvetica,sans-Serif" font-size="10.00">userver/server/http</text>
<text text-anchor="middle" x="494.5" y="-304" font-family="Helvetica,sans-Serif" font-size="10.00">/http_response.hpp</text>
</a>
</g>
</g>
<!-- Node4&#45;&gt;Node38 -->
<g id="edge42_Node000004_Node000038" class="edge">
<title>Node4&#45;&gt;Node38</title>
<g id="a_edge42_Node000004_Node000038"><a xlink:title=" ">
<path fill="none" stroke="#63b8ff" d="M494.5,-352.54C494.5,-343.96 494.5,-334.61 494.5,-327.16"/>
<polygon fill="#63b8ff" stroke="#63b8ff" points="491,-352.8 494.5,-362.8 498,-352.8 491,-352.8"/>
</a>
</g>
</g>
<!-- Node6 -->
<g id="Node000006" class="node">
<title>Node6</title>
<g id="a_Node000006"><a xlink:href="../../d1/d57/core_2include_2userver_2clients_2http_2request_8hpp.html" target="_top" xlink:title="Class for creating and performing new http requests.">
<polygon fill="white" stroke="#666666" points="2513,-184 2402,-184 2402,-154 2513,-154 2513,-184"/>
<text text-anchor="start" x="2410" y="-172" font-family="Helvetica,sans-Serif" font-size="10.00">userver/clients/http</text>
<text text-anchor="middle" x="2457.5" y="-161" font-family="Helvetica,sans-Serif" font-size="10.00">/request.hpp</text>
</a>
</g>
</g>
<!-- Node5&#45;&gt;Node6 -->
<g id="edge5_Node000005_Node000006" class="edge">
<title>Node5&#45;&gt;Node6</title>
<g id="a_edge5_Node000005_Node000006"><a xlink:title=" ">
<path fill="none" stroke="#63b8ff" d="M2301.44,-292.07C2317.33,-283.55 2335.46,-272.76 2350.5,-261 2370.31,-245.51 2370.63,-236.62 2389.5,-220 2404.34,-206.92 2422.44,-193.73 2436.23,-184.19"/>
<polygon fill="#63b8ff" stroke="#63b8ff" points="2299.62,-289.07 2292.39,-296.81 2302.87,-295.27 2299.62,-289.07"/>
</a>
</g>
</g>
<!-- Node9 -->
<g id="Node000009" class="node">
<title>Node9</title>
<g id="a_Node000009"><a xlink:href="../../d2/d6c/http__server__mock_8hpp_source.html" target="_top" xlink:title=" ">
<polygon fill="white" stroke="#666666" points="2637.5,-112.5 2531.5,-112.5 2531.5,-82.5 2637.5,-82.5 2637.5,-112.5"/>
<text text-anchor="start" x="2539.5" y="-100.5" font-family="Helvetica,sans-Serif" font-size="10.00">userver/utest/http</text>
<text text-anchor="middle" x="2584.5" y="-89.5" font-family="Helvetica,sans-Serif" font-size="10.00">_server_mock.hpp</text>
</a>
</g>
</g>
<!-- Node5&#45;&gt;Node9 -->
<g id="edge14_Node000005_Node000009" class="edge">
<title>Node5&#45;&gt;Node9</title>
<g id="a_edge14_Node000005_Node000009"><a xlink:title=" ">
<path fill="none" stroke="#63b8ff" d="M2328.33,-305.97C2396.58,-299.48 2497.33,-285.95 2526.5,-261 2572.03,-222.06 2581.82,-144.78 2583.92,-112.84"/>
<polygon fill="#63b8ff" stroke="#63b8ff" points="2327.72,-302.51 2318.09,-306.91 2328.37,-309.48 2327.72,-302.51"/>
</a>
</g>
</g>
<!-- Node10 -->
<g id="Node000010" class="node">
<title>Node10</title>
<g id="a_Node000010"><a xlink:href="../../d2/de8/response__future_8hpp.html" target="_top" xlink:title="Allows to perform a request concurrently with other work without creating an extra coroutine for wait...">
<polygon fill="white" stroke="#666666" points="2517,-255.5 2398,-255.5 2398,-225.5 2517,-225.5 2517,-255.5"/>
<text text-anchor="start" x="2406" y="-243.5" font-family="Helvetica,sans-Serif" font-size="10.00">userver/clients/http</text>
<text text-anchor="middle" x="2457.5" y="-232.5" font-family="Helvetica,sans-Serif" font-size="10.00">/response_future.hpp</text>
</a>
</g>
</g>
<!-- Node5&#45;&gt;Node10 -->
<g id="edge9_Node000005_Node000010" class="edge">
<title>Node5&#45;&gt;Node10</title>
<g id="a_edge9_Node000005_Node000010"><a xlink:title=" ">
<path fill="none" stroke="#63b8ff" d="M2311.41,-293.57C2344.39,-281.81 2387.32,-266.51 2418.1,-255.54"/>
<polygon fill="#63b8ff" stroke="#63b8ff" points="2310.2,-290.28 2301.96,-296.94 2312.56,-296.88 2310.2,-290.28"/>
</a>
</g>
</g>
<!-- Node11 -->
<g id="Node000011" class="node">
<title>Node11</title>
<g id="a_Node000011"><a xlink:href="../../d5/d26/streamed__response_8hpp.html" target="_top" xlink:title="HTTP response for streamed API.">
<polygon fill="white" stroke="#666666" points="2166,-255.5 2029,-255.5 2029,-225.5 2166,-225.5 2166,-255.5"/>
<text text-anchor="start" x="2037" y="-243.5" font-family="Helvetica,sans-Serif" font-size="10.00">userver/clients/http</text>
<text text-anchor="middle" x="2097.5" y="-232.5" font-family="Helvetica,sans-Serif" font-size="10.00">/streamed_response.hpp</text>
</a>
</g>
</g>
<!-- Node5&#45;&gt;Node11 -->
<g id="edge11_Node000005_Node000011" class="edge">
<title>Node5&#45;&gt;Node11</title>
<g id="a_edge11_Node000005_Node000011"><a xlink:title=" ">
<path fill="none" stroke="#63b8ff" d="M2219.67,-292.96C2191.97,-281.29 2156.43,-266.32 2130.84,-255.54"/>
<polygon fill="#63b8ff" stroke="#63b8ff" points="2218.53,-296.28 2229.11,-296.94 2221.25,-289.83 2218.53,-296.28"/>
</a>
</g>
</g>
<!-- Node12 -->
<g id="Node000012" class="node">
<title>Node12</title>
<g id="a_Node000012"><a xlink:href="../../da/d04/manager_8hpp.html" target="_top" xlink:title="Base class for propagating trace context information in headers.">
<polygon fill="white" stroke="#666666" points="2341,-250 2184,-250 2184,-231 2341,-231 2341,-250"/>
<text text-anchor="middle" x="2262.5" y="-238" font-family="Helvetica,sans-Serif" font-size="10.00">userver/tracing/manager.hpp</text>
</a>
</g>
</g>
<!-- Node5&#45;&gt;Node12 -->
<g id="edge12_Node000005_Node000012" class="edge">
<title>Node5&#45;&gt;Node12</title>
<g id="a_edge12_Node000005_Node000012"><a xlink:title=" ">
<path fill="none" stroke="#63b8ff" d="M2262.5,-286.56C2262.5,-273.95 2262.5,-259.35 2262.5,-250.27"/>
<polygon fill="#63b8ff" stroke="#63b8ff" points="2259,-286.94 2262.5,-296.94 2266,-286.94 2259,-286.94"/>
</a>
</g>
</g>
<!-- Node7 -->
<g id="Node000007" class="node">
<title>Node7</title>
<g id="a_Node000007"><a xlink:href="../../d3/db8/core_2include_2userver_2clients_2http_2client_8hpp.html" target="_top" xlink:title="HTTP client that returns a HTTP request builder from CreateRequest().">
<polygon fill="white" stroke="#666666" points="2513,-112.5 2402,-112.5 2402,-82.5 2513,-82.5 2513,-112.5"/>
<text text-anchor="start" x="2410" y="-100.5" font-family="Helvetica,sans-Serif" font-size="10.00">userver/clients/http</text>
<text text-anchor="middle" x="2457.5" y="-89.5" font-family="Helvetica,sans-Serif" font-size="10.00">/client.hpp</text>
</a>
</g>
</g>
<!-- Node6&#45;&gt;Node7 -->
<g id="edge6_Node000006_Node000007" class="edge">
<title>Node6&#45;&gt;Node7</title>
<g id="a_edge6_Node000006_Node000007"><a xlink:title=" ">
<path fill="none" stroke="#63b8ff" d="M2457.5,-143.75C2457.5,-133.31 2457.5,-121.49 2457.5,-112.54"/>
<polygon fill="#63b8ff" stroke="#63b8ff" points="2454,-143.94 2457.5,-153.94 2461,-143.94 2454,-143.94"/>
</a>
</g>
</g>
<!-- Node6&#45;&gt;Node9 -->
<g id="edge8_Node000006_Node000009" class="edge">
<title>Node6&#45;&gt;Node9</title>
<g id="a_edge8_Node000006_Node000009"><a xlink:title=" ">
<path fill="none" stroke="#63b8ff" d="M2492.16,-149.03C2513.22,-137.51 2539.65,-123.04 2558.84,-112.54"/>
<polygon fill="#63b8ff" stroke="#63b8ff" points="2490.29,-146.06 2483.2,-153.94 2493.65,-152.21 2490.29,-146.06"/>
</a>
</g>
</g>
<!-- Node8 -->
<g id="Node000008" class="node">
<title>Node8</title>
<g id="a_Node000008"><a xlink:href="../../d7/d98/core_2include_2userver_2clients_2http_2component_8hpp.html" target="_top" xlink:title="Component that manages clients::http::Client.">
<polygon fill="white" stroke="#666666" points="2663,-35.5 2552,-35.5 2552,-5.5 2663,-5.5 2663,-35.5"/>
<text text-anchor="start" x="2560" y="-23.5" font-family="Helvetica,sans-Serif" font-size="10.00">userver/clients/http</text>
<text text-anchor="middle" x="2607.5" y="-12.5" font-family="Helvetica,sans-Serif" font-size="10.00">/component.hpp</text>
</a>
</g>
</g>
<!-- Node7&#45;&gt;Node8 -->
<g id="edge7_Node000007_Node000008" class="edge">
<title>Node7&#45;&gt;Node8</title>
<g id="a_edge7_Node000007_Node000008"><a xlink:title=" ">
<path fill="none" stroke="#63b8ff" d="M2494.95,-77.77C2521.14,-64.68 2555.56,-47.47 2579.41,-35.54"/>
<polygon fill="#63b8ff" stroke="#63b8ff" points="2493.09,-74.79 2485.71,-82.39 2496.22,-81.05 2493.09,-74.79"/>
</a>
</g>
</g>
<!-- Node10&#45;&gt;Node6 -->
<g id="edge10_Node000010_Node000006" class="edge">
<title>Node10&#45;&gt;Node6</title>
<g id="a_edge10_Node000010_Node000006"><a xlink:title=" ">
<path fill="none" stroke="#63b8ff" d="M2457.5,-215.25C2457.5,-204.81 2457.5,-192.99 2457.5,-184.04"/>
<polygon fill="#63b8ff" stroke="#63b8ff" points="2454,-215.44 2457.5,-225.44 2461,-215.44 2454,-215.44"/>
</a>
</g>
</g>
<!-- Node13 -->
<g id="Node000013" class="node">
<title>Node13</title>
<g id="a_Node000013"><a xlink:href="../../d6/dbd/manager__component_8hpp.html" target="_top" xlink:title="TracingManager base and default components.">
<polygon fill="white" stroke="#666666" points="2331,-184 2194,-184 2194,-154 2331,-154 2331,-184"/>
<text text-anchor="start" x="2202" y="-172" font-family="Helvetica,sans-Serif" font-size="10.00">userver/tracing/manager</text>
<text text-anchor="middle" x="2262.5" y="-161" font-family="Helvetica,sans-Serif" font-size="10.00">_component.hpp</text>
</a>
</g>
</g>
<!-- Node12&#45;&gt;Node13 -->
<g id="edge13_Node000012_Node000013" class="edge">
<title>Node12&#45;&gt;Node13</title>
<g id="a_edge13_Node000012_Node000013"><a xlink:title=" ">
<path fill="none" stroke="#63b8ff" d="M2262.5,-220.71C2262.5,-209.19 2262.5,-194.68 2262.5,-184.14"/>
<polygon fill="#63b8ff" stroke="#63b8ff" points="2259,-220.98 2262.5,-230.98 2266,-220.98 2259,-220.98"/>
</a>
</g>
</g>
<!-- Node15 -->
<g id="Node000015" class="node">
<title>Node15</title>
<g id="a_Node000015"><a xlink:href="../../da/dff/auth__checker__base_8hpp_source.html" target="_top" xlink:title=" ">
<polygon fill="white" stroke="#666666" points="211.5,-184 53.5,-184 53.5,-154 211.5,-154 211.5,-184"/>
<text text-anchor="start" x="61.5" y="-172" font-family="Helvetica,sans-Serif" font-size="10.00">userver/server/handlers</text>
<text text-anchor="middle" x="132.5" y="-161" font-family="Helvetica,sans-Serif" font-size="10.00">/auth/auth_checker_base.hpp</text>
</a>
</g>
</g>
<!-- Node14&#45;&gt;Node15 -->
<g id="edge16_Node000014_Node000015" class="edge">
<title>Node14&#45;&gt;Node15</title>
<g id="a_edge16_Node000014_Node000015"><a xlink:title=" ">
<path fill="none" stroke="#63b8ff" d="M287.27,-222.22C252.38,-210.45 206.78,-195.06 174.12,-184.04"/>
<polygon fill="#63b8ff" stroke="#63b8ff" points="286.22,-225.56 296.81,-225.44 288.46,-218.92 286.22,-225.56"/>
</a>
</g>
</g>
<!-- Node17 -->
<g id="Node000017" class="node">
<title>Node17</title>
<g id="a_Node000017"><a xlink:href="../../de/d82/digest_2auth__checker__base_8hpp.html" target="_top" xlink:title="Base class for digest authentication checkers. Implements a digest&#45;authentication logic.">
<polygon fill="white" stroke="#666666" points="343.5,-118 201.5,-118 201.5,-77 343.5,-77 343.5,-118"/>
<text text-anchor="start" x="209.5" y="-106" font-family="Helvetica,sans-Serif" font-size="10.00">userver/server/handlers</text>
<text text-anchor="start" x="209.5" y="-95" font-family="Helvetica,sans-Serif" font-size="10.00">/auth/digest/auth_checker</text>
<text text-anchor="middle" x="272.5" y="-84" font-family="Helvetica,sans-Serif" font-size="10.00">_base.hpp</text>
</a>
</g>
</g>
<!-- Node14&#45;&gt;Node17 -->
<g id="edge20_Node000014_Node000017" class="edge">
<title>Node14&#45;&gt;Node17</title>
<g id="a_edge20_Node000014_Node000017"><a xlink:title=" ">
<path fill="none" stroke="#63b8ff" d="M295.8,-220.39C281.25,-211.54 266.61,-199.5 258.5,-184 247.69,-163.34 255.1,-136.36 262.63,-118.28"/>
<polygon fill="#63b8ff" stroke="#63b8ff" points="294.36,-223.6 304.79,-225.48 297.81,-217.51 294.36,-223.6"/>
</a>
</g>
</g>
<!-- Node18 -->
<g id="Node000018" class="node">
<title>Node18</title>
<g id="a_Node000018"><a xlink:href="../../db/df0/standalone__checker_8hpp.html" target="_top" xlink:title="Class for digest authentication checker. Implements a stand&#45;alone digest&#45;authentication logic.">
<polygon fill="white" stroke="#666666" points="338.5,-41 206.5,-41 206.5,0 338.5,0 338.5,-41"/>
<text text-anchor="start" x="214.5" y="-29" font-family="Helvetica,sans-Serif" font-size="10.00">userver/server/handlers</text>
<text text-anchor="start" x="214.5" y="-18" font-family="Helvetica,sans-Serif" font-size="10.00">/auth/digest/standalone</text>
<text text-anchor="middle" x="272.5" y="-7" font-family="Helvetica,sans-Serif" font-size="10.00">_checker.hpp</text>
</a>
</g>
</g>
<!-- Node14&#45;&gt;Node18 -->
<g id="edge21_Node000014_Node000018" class="edge">
<title>Node14&#45;&gt;Node18</title>
<g id="a_edge21_Node000014_Node000018"><a xlink:title=" ">
<path fill="none" stroke="#63b8ff" d="M273.13,-233.54C198.01,-225.61 80.45,-209.53 44.5,-184 16.9,-164.4 15.24,-150.7 6.5,-118 1.79,-100.4 -4.99,-91.14 6.5,-77 31.23,-46.57 136.03,-32.26 206.46,-25.96"/>
<polygon fill="#63b8ff" stroke="#63b8ff" points="273.13,-237.06 283.44,-234.61 273.85,-230.1 273.13,-237.06"/>
</a>
</g>
</g>
<!-- Node19 -->
<g id="Node000019" class="node">
<title>Node19</title>
<g id="a_Node000019"><a xlink:href="../../d4/df6/http__handler__base_8hpp.html" target="_top" xlink:title="Base class for all the Userver HTTP Handlers.">
<polygon fill="white" stroke="#666666" points="1299.5,-184 1167.5,-184 1167.5,-154 1299.5,-154 1299.5,-184"/>
<text text-anchor="start" x="1175.5" y="-172" font-family="Helvetica,sans-Serif" font-size="10.00">userver/server/handlers</text>
<text text-anchor="middle" x="1233.5" y="-161" font-family="Helvetica,sans-Serif" font-size="10.00">/http_handler_base.hpp</text>
</a>
</g>
</g>
<!-- Node14&#45;&gt;Node19 -->
<g id="edge22_Node000014_Node000019" class="edge">
<title>Node14&#45;&gt;Node19</title>
<g id="a_edge22_Node000014_Node000019"><a xlink:title=" ">
<path fill="none" stroke="#63b8ff" d="M403.66,-230.82C432.92,-227.12 467.91,-222.99 499.5,-220 745.23,-196.77 1038.24,-180.12 1167.11,-173.35"/>
<polygon fill="#63b8ff" stroke="#63b8ff" points="403.04,-227.37 393.56,-232.1 403.92,-234.31 403.04,-227.37"/>
</a>
</g>
</g>
<!-- Node37 -->
<g id="Node000037" class="node">
<title>Node37</title>
<g id="a_Node000037"><a xlink:href="../../de/d4e/core_2include_2userver_2server_2websocket_2server_8hpp.html" target="_top" xlink:title=" ">
<polygon fill="white" stroke="#666666" points="409.5,-184 267.5,-184 267.5,-154 409.5,-154 409.5,-184"/>
<text text-anchor="start" x="275.5" y="-172" font-family="Helvetica,sans-Serif" font-size="10.00">userver/server/websocket</text>
<text text-anchor="middle" x="338.5" y="-161" font-family="Helvetica,sans-Serif" font-size="10.00">/server.hpp</text>
</a>
</g>
</g>
<!-- Node14&#45;&gt;Node37 -->
<g id="edge40_Node000014_Node000037" class="edge">
<title>Node14&#45;&gt;Node37</title>
<g id="a_edge40_Node000014_Node000037"><a xlink:title=" ">
<path fill="none" stroke="#63b8ff" d="M338.5,-215.25C338.5,-204.81 338.5,-192.99 338.5,-184.04"/>
<polygon fill="#63b8ff" stroke="#63b8ff" points="335,-215.44 338.5,-225.44 342,-215.44 335,-215.44"/>
</a>
</g>
</g>
<!-- Node16 -->
<g id="Node000016" class="node">
<title>Node16</title>
<g id="a_Node000016"><a xlink:href="../../db/ddd/auth__checker__factory_8hpp.html" target="_top" xlink:title="Authorization factory registration and base classes.">
<polygon fill="white" stroke="#666666" points="183.5,-112.5 15.5,-112.5 15.5,-82.5 183.5,-82.5 183.5,-112.5"/>
<text text-anchor="start" x="23.5" y="-100.5" font-family="Helvetica,sans-Serif" font-size="10.00">userver/server/handlers</text>
<text text-anchor="middle" x="99.5" y="-89.5" font-family="Helvetica,sans-Serif" font-size="10.00">/auth/auth_checker_factory.hpp</text>
</a>
</g>
</g>
<!-- Node15&#45;&gt;Node16 -->
<g id="edge17_Node000015_Node000016" class="edge">
<title>Node15&#45;&gt;Node16</title>
<g id="a_edge17_Node000015_Node000016"><a xlink:title=" ">
<path fill="none" stroke="#63b8ff" d="M121.45,-144.73C116.39,-134.06 110.55,-121.77 106.17,-112.54"/>
<polygon fill="#63b8ff" stroke="#63b8ff" points="118.37,-146.4 125.82,-153.94 124.69,-143.4 118.37,-146.4"/>
</a>
</g>
</g>
<!-- Node15&#45;&gt;Node17 -->
<g id="edge18_Node000015_Node000017" class="edge">
<title>Node15&#45;&gt;Node17</title>
<g id="a_edge18_Node000015_Node000017"><a xlink:title=" ">
<path fill="none" stroke="#63b8ff" d="M170.01,-149.38C189.5,-139.7 213.31,-127.88 233.07,-118.07"/>
<polygon fill="#63b8ff" stroke="#63b8ff" points="168.23,-146.35 160.83,-153.94 171.34,-152.62 168.23,-146.35"/>
</a>
</g>
</g>
<!-- Node17&#45;&gt;Node18 -->
<g id="edge19_Node000017_Node000018" class="edge">
<title>Node17&#45;&gt;Node18</title>
<g id="a_edge19_Node000017_Node000018"><a xlink:title=" ">
<path fill="none" stroke="#63b8ff" d="M272.5,-66.69C272.5,-58.08 272.5,-48.9 272.5,-41.07"/>
<polygon fill="#63b8ff" stroke="#63b8ff" points="269,-66.79 272.5,-76.79 276,-66.79 269,-66.79"/>
</a>
</g>
</g>
<!-- Node20 -->
<g id="Node000020" class="node">
<title>Node20</title>
<g id="a_Node000020"><a xlink:href="../../d6/d0d/dns__client__control_8hpp.html" target="_top" xlink:title="Handlers that controls the DNS client.">
<polygon fill="white" stroke="#666666" points="2209.5,-112.5 2077.5,-112.5 2077.5,-82.5 2209.5,-82.5 2209.5,-112.5"/>
<text text-anchor="start" x="2085.5" y="-100.5" font-family="Helvetica,sans-Serif" font-size="10.00">userver/server/handlers</text>
<text text-anchor="middle" x="2143.5" y="-89.5" font-family="Helvetica,sans-Serif" font-size="10.00">/dns_client_control.hpp</text>
</a>
</g>
</g>
<!-- Node19&#45;&gt;Node20 -->
<g id="edge23_Node000019_Node000020" class="edge">
<title>Node19&#45;&gt;Node20</title>
<g id="a_edge23_Node000019_Node000020"><a xlink:title=" ">
<path fill="none" stroke="#63b8ff" d="M1310.04,-168.37C1457.68,-168 1791.68,-161.85 2068.5,-118 2077.14,-116.63 2086.22,-114.7 2094.97,-112.58"/>
<polygon fill="#63b8ff" stroke="#63b8ff" points="1309.73,-164.87 1299.73,-168.39 1309.74,-171.87 1309.73,-164.87"/>
</a>
</g>
</g>
<!-- Node21 -->
<g id="Node000021" class="node">
<title>Node21</title>
<g id="a_Node000021"><a xlink:href="../../d6/dc0/dynamic__debug__log_8hpp.html" target="_top" xlink:title="HTTP Handler to show/hide logs at the specific file:line.">
<polygon fill="white" stroke="#666666" points="697.5,-112.5 559.5,-112.5 559.5,-82.5 697.5,-82.5 697.5,-112.5"/>
<text text-anchor="start" x="567.5" y="-100.5" font-family="Helvetica,sans-Serif" font-size="10.00">userver/server/handlers</text>
<text text-anchor="middle" x="628.5" y="-89.5" font-family="Helvetica,sans-Serif" font-size="10.00">/dynamic_debug_log.hpp</text>
</a>
</g>
</g>
<!-- Node19&#45;&gt;Node21 -->
<g id="edge24_Node000019_Node000021" class="edge">
<title>Node19&#45;&gt;Node21</title>
<g id="a_edge24_Node000019_Node000021"><a xlink:title=" ">
<path fill="none" stroke="#63b8ff" d="M1157.36,-164.38C1054.48,-158.66 865.61,-145.28 706.5,-118 697.83,-116.51 688.71,-114.58 679.87,-112.5"/>
<polygon fill="#63b8ff" stroke="#63b8ff" points="1157.18,-167.87 1167.35,-164.92 1157.56,-160.88 1157.18,-167.87"/>
</a>
</g>
</g>
<!-- Node22 -->
<g id="Node000022" class="node">
<title>Node22</title>
<g id="a_Node000022"><a xlink:href="../../d5/d4d/http__handler__flatbuf__base_8hpp.html" target="_top" xlink:title="Convenient base for handlers that accept requests with body in Flatbuffer format and respond with bod...">
<polygon fill="white" stroke="#666666" points="847.5,-118 715.5,-118 715.5,-77 847.5,-77 847.5,-118"/>
<text text-anchor="start" x="723.5" y="-106" font-family="Helvetica,sans-Serif" font-size="10.00">userver/server/handlers</text>
<text text-anchor="start" x="723.5" y="-95" font-family="Helvetica,sans-Serif" font-size="10.00">/http_handler_flatbuf</text>
<text text-anchor="middle" x="781.5" y="-84" font-family="Helvetica,sans-Serif" font-size="10.00">_base.hpp</text>
</a>
</g>
</g>
<!-- Node19&#45;&gt;Node22 -->
<g id="edge25_Node000019_Node000022" class="edge">
<title>Node19&#45;&gt;Node22</title>
<g id="a_edge25_Node000019_Node000022"><a xlink:title=" ">
<path fill="none" stroke="#63b8ff" d="M1157.36,-160.67C1080.89,-152.66 959.91,-138.22 856.5,-118 853.59,-117.43 850.63,-116.82 847.65,-116.17"/>
<polygon fill="#63b8ff" stroke="#63b8ff" points="1157.07,-164.16 1167.38,-161.71 1157.8,-157.2 1157.07,-164.16"/>
</a>
</g>
</g>
<!-- Node23 -->
<g id="Node000023" class="node">
<title>Node23</title>
<g id="a_Node000023"><a xlink:href="../../d1/d58/http__handler__json__base_8hpp.html" target="_top" xlink:title="Convenient base for handlers that accept requests with body in JSON format and respond with body in J...">
<polygon fill="white" stroke="#666666" points="2383.5,-112.5 2227.5,-112.5 2227.5,-82.5 2383.5,-82.5 2383.5,-112.5"/>
<text text-anchor="start" x="2235.5" y="-100.5" font-family="Helvetica,sans-Serif" font-size="10.00">userver/server/handlers</text>
<text text-anchor="middle" x="2305.5" y="-89.5" font-family="Helvetica,sans-Serif" font-size="10.00">/http_handler_json_base.hpp</text>
</a>
</g>
</g>
<!-- Node19&#45;&gt;Node23 -->
<g id="edge26_Node000019_Node000023" class="edge">
<title>Node19&#45;&gt;Node23</title>
<g id="a_edge26_Node000019_Node000023"><a xlink:title=" ">
<path fill="none" stroke="#63b8ff" d="M1309.67,-168.52C1475.63,-168.7 1881.99,-163.91 2218.5,-118 2228.47,-116.64 2238.98,-114.71 2249.13,-112.6"/>
<polygon fill="#63b8ff" stroke="#63b8ff" points="1309.57,-165.02 1299.56,-168.5 1309.56,-172.02 1309.57,-165.02"/>
</a>
</g>
</g>
<!-- Node27 -->
<g id="Node000027" class="node">
<title>Node27</title>
<g id="a_Node000027"><a xlink:href="../../dd/db6/http__handler__static_8hpp.html" target="_top" xlink:title="Handler that returns HTTP 200 if file exist and returns file data with mapped content/type.">
<polygon fill="white" stroke="#666666" points="999.5,-112.5 865.5,-112.5 865.5,-82.5 999.5,-82.5 999.5,-112.5"/>
<text text-anchor="start" x="873.5" y="-100.5" font-family="Helvetica,sans-Serif" font-size="10.00">userver/server/handlers</text>
<text text-anchor="middle" x="932.5" y="-89.5" font-family="Helvetica,sans-Serif" font-size="10.00">/http_handler_static.hpp</text>
</a>
</g>
</g>
<!-- Node19&#45;&gt;Node27 -->
<g id="edge30_Node000019_Node000027" class="edge">
<title>Node19&#45;&gt;Node27</title>
<g id="a_edge30_Node000019_Node000027"><a xlink:title=" ">
<path fill="none" stroke="#63b8ff" d="M1157.43,-151.74C1113.77,-142.25 1057.96,-129.84 1008.5,-118 1001.35,-116.29 993.83,-114.43 986.42,-112.57"/>
<polygon fill="#63b8ff" stroke="#63b8ff" points="1156.89,-155.2 1167.41,-153.9 1158.38,-148.36 1156.89,-155.2"/>
</a>
</g>
</g>
<!-- Node28 -->
<g id="Node000028" class="node">
<title>Node28</title>
<g id="a_Node000028"><a xlink:href="../../d7/db3/implicit__options_8hpp.html" target="_top" xlink:title="A &quot;magical&quot; handler that will respond to OPTIONS HTTP method for any other handler that cannot handle...">
<polygon fill="white" stroke="#666666" points="1149.5,-112.5 1017.5,-112.5 1017.5,-82.5 1149.5,-82.5 1149.5,-112.5"/>
<text text-anchor="start" x="1025.5" y="-100.5" font-family="Helvetica,sans-Serif" font-size="10.00">userver/server/handlers</text>
<text text-anchor="middle" x="1083.5" y="-89.5" font-family="Helvetica,sans-Serif" font-size="10.00">/implicit_options.hpp</text>
</a>
</g>
</g>
<!-- Node19&#45;&gt;Node28 -->
<g id="edge31_Node000019_Node000028" class="edge">
<title>Node19&#45;&gt;Node28</title>
<g id="a_edge31_Node000019_Node000028"><a xlink:title=" ">
<path fill="none" stroke="#63b8ff" d="M1193.9,-149.65C1168.81,-138.03 1136.87,-123.23 1113.81,-112.54"/>
<polygon fill="#63b8ff" stroke="#63b8ff" points="1192.6,-152.91 1203.14,-153.94 1195.54,-146.56 1192.6,-152.91"/>
</a>
</g>
</g>
<!-- Node29 -->
<g id="Node000029" class="node">
<title>Node29</title>
<g id="a_Node000029"><a xlink:href="../../d5/d86/jemalloc_8hpp.html" target="_top" xlink:title="Handler that controls the jemalloc allocator.">
<polygon fill="white" stroke="#666666" points="1299.5,-112.5 1167.5,-112.5 1167.5,-82.5 1299.5,-82.5 1299.5,-112.5"/>
<text text-anchor="start" x="1175.5" y="-100.5" font-family="Helvetica,sans-Serif" font-size="10.00">userver/server/handlers</text>
<text text-anchor="middle" x="1233.5" y="-89.5" font-family="Helvetica,sans-Serif" font-size="10.00">/jemalloc.hpp</text>
</a>
</g>
</g>
<!-- Node19&#45;&gt;Node29 -->
<g id="edge32_Node000019_Node000029" class="edge">
<title>Node19&#45;&gt;Node29</title>
<g id="a_edge32_Node000019_Node000029"><a xlink:title=" ">
<path fill="none" stroke="#63b8ff" d="M1233.5,-143.75C1233.5,-133.31 1233.5,-121.49 1233.5,-112.54"/>
<polygon fill="#63b8ff" stroke="#63b8ff" points="1230,-143.94 1233.5,-153.94 1237,-143.94 1230,-143.94"/>
</a>
</g>
</g>
<!-- Node30 -->
<g id="Node000030" class="node">
<title>Node30</title>
<g id="a_Node000030"><a xlink:href="../../d0/d01/log__level_8hpp.html" target="_top" xlink:title="Handler that controls logging levels of all the loggers.">
<polygon fill="white" stroke="#666666" points="1449.5,-112.5 1317.5,-112.5 1317.5,-82.5 1449.5,-82.5 1449.5,-112.5"/>
<text text-anchor="start" x="1325.5" y="-100.5" font-family="Helvetica,sans-Serif" font-size="10.00">userver/server/handlers</text>
<text text-anchor="middle" x="1383.5" y="-89.5" font-family="Helvetica,sans-Serif" font-size="10.00">/log_level.hpp</text>
</a>
</g>
</g>
<!-- Node19&#45;&gt;Node30 -->
<g id="edge33_Node000019_Node000030" class="edge">
<title>Node19&#45;&gt;Node30</title>
<g id="a_edge33_Node000019_Node000030"><a xlink:title=" ">
<path fill="none" stroke="#63b8ff" d="M1273.1,-149.65C1298.18,-138.03 1330.12,-123.23 1353.19,-112.54"/>
<polygon fill="#63b8ff" stroke="#63b8ff" points="1271.46,-146.56 1263.85,-153.94 1274.4,-152.91 1271.46,-146.56"/>
</a>
</g>
</g>
<!-- Node31 -->
<g id="Node000031" class="node">
<title>Node31</title>
<g id="a_Node000031"><a xlink:href="../../d7/d72/on__log__rotate_8hpp.html" target="_top" xlink:title="Handler that controls logging levels of all the loggers.">
<polygon fill="white" stroke="#666666" points="1599.5,-112.5 1467.5,-112.5 1467.5,-82.5 1599.5,-82.5 1599.5,-112.5"/>
<text text-anchor="start" x="1475.5" y="-100.5" font-family="Helvetica,sans-Serif" font-size="10.00">userver/server/handlers</text>
<text text-anchor="middle" x="1533.5" y="-89.5" font-family="Helvetica,sans-Serif" font-size="10.00">/on_log_rotate.hpp</text>
</a>
</g>
</g>
<!-- Node19&#45;&gt;Node31 -->
<g id="edge34_Node000019_Node000031" class="edge">
<title>Node19&#45;&gt;Node31</title>
<g id="a_edge34_Node000019_Node000031"><a xlink:title=" ">
<path fill="none" stroke="#63b8ff" d="M1309.58,-151.8C1353.25,-142.33 1409.06,-129.92 1458.5,-118 1465.56,-116.3 1472.98,-114.45 1480.29,-112.58"/>
<polygon fill="#63b8ff" stroke="#63b8ff" points="1308.64,-148.42 1299.61,-153.96 1310.12,-155.26 1308.64,-148.42"/>
</a>
</g>
</g>
<!-- Node32 -->
<g id="Node000032" class="node">
<title>Node32</title>
<g id="a_Node000032"><a xlink:href="../../d8/d39/ping_8hpp.html" target="_top" xlink:title="Handler that returns HTTP 200 if the service is OK and able to process requests.">
<polygon fill="white" stroke="#666666" points="1749.5,-112.5 1617.5,-112.5 1617.5,-82.5 1749.5,-82.5 1749.5,-112.5"/>
<text text-anchor="start" x="1625.5" y="-100.5" font-family="Helvetica,sans-Serif" font-size="10.00">userver/server/handlers</text>
<text text-anchor="middle" x="1683.5" y="-89.5" font-family="Helvetica,sans-Serif" font-size="10.00">/ping.hpp</text>
</a>
</g>
</g>
<!-- Node19&#45;&gt;Node32 -->
<g id="edge35_Node000019_Node000032" class="edge">
<title>Node19&#45;&gt;Node32</title>
<g id="a_edge35_Node000019_Node000032"><a xlink:title=" ">
<path fill="none" stroke="#63b8ff" d="M1309.58,-160.6C1385.66,-152.57 1505.79,-138.12 1608.5,-118 1616.42,-116.45 1624.75,-114.55 1632.86,-112.56"/>
<polygon fill="#63b8ff" stroke="#63b8ff" points="1309.19,-157.13 1299.6,-161.65 1309.91,-164.09 1309.19,-157.13"/>
</a>
</g>
</g>
<!-- Node33 -->
<g id="Node000033" class="node">
<title>Node33</title>
<g id="a_Node000033"><a xlink:href="../../de/d18/server__monitor_8hpp.html" target="_top" xlink:title="Handler that returns statistics data.">
<polygon fill="white" stroke="#666666" points="1899.5,-112.5 1767.5,-112.5 1767.5,-82.5 1899.5,-82.5 1899.5,-112.5"/>
<text text-anchor="start" x="1775.5" y="-100.5" font-family="Helvetica,sans-Serif" font-size="10.00">userver/server/handlers</text>
<text text-anchor="middle" x="1833.5" y="-89.5" font-family="Helvetica,sans-Serif" font-size="10.00">/server_monitor.hpp</text>
</a>
</g>
</g>
<!-- Node19&#45;&gt;Node33 -->
<g id="edge36_Node000019_Node000033" class="edge">
<title>Node19&#45;&gt;Node33</title>
<g id="a_edge36_Node000019_Node000033"><a xlink:title=" ">
<path fill="none" stroke="#63b8ff" d="M1310.12,-164.54C1412.82,-159.02 1600.5,-145.88 1758.5,-118 1766.85,-116.53 1775.63,-114.6 1784.12,-112.53"/>
<polygon fill="#63b8ff" stroke="#63b8ff" points="1309.64,-161.06 1299.84,-165.08 1310.01,-168.05 1309.64,-161.06"/>
</a>
</g>
</g>
<!-- Node34 -->
<g id="Node000034" class="node">
<title>Node34</title>
<g id="a_Node000034"><a xlink:href="../../d8/d82/core_2include_2userver_2server_2server_8hpp_source.html" target="_top" xlink:title=" ">
<polygon fill="white" stroke="#666666" points="2059,-107 1918,-107 1918,-88 2059,-88 2059,-107"/>
<text text-anchor="middle" x="1988.5" y="-95" font-family="Helvetica,sans-Serif" font-size="10.00">userver/server/server.hpp</text>
</a>
</g>
</g>
<!-- Node19&#45;&gt;Node34 -->
<g id="edge37_Node000019_Node000034" class="edge">
<title>Node19&#45;&gt;Node34</title>
<g id="a_edge37_Node000019_Node000034"><a xlink:title=" ">
<path fill="none" stroke="#63b8ff" d="M1309.82,-166.45C1435.4,-162.97 1693.15,-151.98 1908.5,-118 1925.16,-115.37 1943.46,-111.02 1958.35,-107.1"/>
<polygon fill="#63b8ff" stroke="#63b8ff" points="1309.45,-162.95 1299.55,-166.72 1309.64,-169.95 1309.45,-162.95"/>
</a>
</g>
</g>
<!-- Node36 -->
<g id="Node000036" class="node">
<title>Node36</title>
<g id="a_Node000036"><a xlink:href="../../d4/d64/websocket__handler_8hpp.html" target="_top" xlink:title=" ">
<polygon fill="white" stroke="#666666" points="541.5,-112.5 399.5,-112.5 399.5,-82.5 541.5,-82.5 541.5,-112.5"/>
<text text-anchor="start" x="407.5" y="-100.5" font-family="Helvetica,sans-Serif" font-size="10.00">userver/server/websocket</text>
<text text-anchor="middle" x="470.5" y="-89.5" font-family="Helvetica,sans-Serif" font-size="10.00">/websocket_handler.hpp</text>
</a>
</g>
</g>
<!-- Node19&#45;&gt;Node36 -->
<g id="edge39_Node000019_Node000036" class="edge">
<title>Node19&#45;&gt;Node36</title>
<g id="a_edge39_Node000019_Node000036"><a xlink:title=" ">
<path fill="none" stroke="#63b8ff" d="M1156.77,-166.53C1029.89,-163.17 768.69,-152.34 550.5,-118 541.46,-116.58 531.94,-114.65 522.75,-112.55"/>
<polygon fill="#63b8ff" stroke="#63b8ff" points="1157.06,-170.04 1167.15,-166.79 1157.24,-163.04 1157.06,-170.04"/>
</a>
</g>
</g>
<!-- Node24 -->
<g id="Node000024" class="node">
<title>Node24</title>
<g id="a_Node000024"><a xlink:href="../../d5/ded/handler_8hpp_source.html" target="_top" xlink:title=" ">
<polygon fill="white" stroke="#666666" points="2533.5,-30 2389.5,-30 2389.5,-11 2533.5,-11 2533.5,-30"/>
<text text-anchor="middle" x="2461.5" y="-18" font-family="Helvetica,sans-Serif" font-size="10.00">userver/alerts/handler.hpp</text>
</a>
</g>
</g>
<!-- Node23&#45;&gt;Node24 -->
<g id="edge27_Node000023_Node000024" class="edge">
<title>Node23&#45;&gt;Node24</title>
<g id="a_edge27_Node000023_Node000024"><a xlink:title=" ">
<path fill="none" stroke="#63b8ff" d="M2343.86,-78.06C2375.6,-62.8 2419.27,-41.8 2443.48,-30.16"/>
<polygon fill="#63b8ff" stroke="#63b8ff" points="2342.34,-74.91 2334.84,-82.39 2345.37,-81.21 2342.34,-74.91"/>
</a>
</g>
</g>
<!-- Node25 -->
<g id="Node000025" class="node">
<title>Node25</title>
<g id="a_Node000025"><a xlink:href="../../d7/d79/inspect__requests_8hpp.html" target="_top" xlink:title="Handler that returns information about all in&#45;flight requests.">
<polygon fill="white" stroke="#666666" points="2221.5,-35.5 2089.5,-35.5 2089.5,-5.5 2221.5,-5.5 2221.5,-35.5"/>
<text text-anchor="start" x="2097.5" y="-23.5" font-family="Helvetica,sans-Serif" font-size="10.00">userver/server/handlers</text>
<text text-anchor="middle" x="2155.5" y="-12.5" font-family="Helvetica,sans-Serif" font-size="10.00">/inspect_requests.hpp</text>
</a>
</g>
</g>
<!-- Node23&#45;&gt;Node25 -->
<g id="edge28_Node000023_Node000025" class="edge">
<title>Node23&#45;&gt;Node25</title>
<g id="a_edge28_Node000023_Node000025"><a xlink:title=" ">
<path fill="none" stroke="#63b8ff" d="M2268.04,-77.77C2241.85,-64.68 2207.43,-47.47 2183.59,-35.54"/>
<polygon fill="#63b8ff" stroke="#63b8ff" points="2266.78,-81.05 2277.29,-82.39 2269.91,-74.79 2266.78,-81.05"/>
</a>
</g>
</g>
<!-- Node26 -->
<g id="Node000026" class="node">
<title>Node26</title>
<g id="a_Node000026"><a xlink:href="../../d6/d43/tests__control_8hpp.html" target="_top" xlink:title="Handler that allows to control the behavior of server from tests, and functional tests with testsuite...">
<polygon fill="white" stroke="#666666" points="2371.5,-35.5 2239.5,-35.5 2239.5,-5.5 2371.5,-5.5 2371.5,-35.5"/>
<text text-anchor="start" x="2247.5" y="-23.5" font-family="Helvetica,sans-Serif" font-size="10.00">userver/server/handlers</text>
<text text-anchor="middle" x="2305.5" y="-12.5" font-family="Helvetica,sans-Serif" font-size="10.00">/tests_control.hpp</text>
</a>
</g>
</g>
<!-- Node23&#45;&gt;Node26 -->
<g id="edge29_Node000023_Node000026" class="edge">
<title>Node23&#45;&gt;Node26</title>
<g id="a_edge29_Node000023_Node000026"><a xlink:title=" ">
<path fill="none" stroke="#63b8ff" d="M2305.5,-72.04C2305.5,-59.95 2305.5,-45.79 2305.5,-35.54"/>
<polygon fill="#63b8ff" stroke="#63b8ff" points="2302,-72.39 2305.5,-82.39 2309,-72.39 2302,-72.39"/>
</a>
</g>
</g>
<!-- Node35 -->
<g id="Node000035" class="node">
<title>Node35</title>
<g id="a_Node000035"><a xlink:href="../../d3/ddd/core_2include_2userver_2server_2component_8hpp.html" target="_top" xlink:title="Component that listens for incoming requests, manages incoming connections and passes the requests to...">
<polygon fill="white" stroke="#666666" points="2071.5,-30 1905.5,-30 1905.5,-11 2071.5,-11 2071.5,-30"/>
<text text-anchor="middle" x="1988.5" y="-18" font-family="Helvetica,sans-Serif" font-size="10.00">userver/server/component.hpp</text>
</a>
</g>
</g>
<!-- Node34&#45;&gt;Node35 -->
<g id="edge38_Node000034_Node000035" class="edge">
<title>Node34&#45;&gt;Node35</title>
<g id="a_edge38_Node000034_Node000035"><a xlink:title=" ">
<path fill="none" stroke="#63b8ff" d="M1988.5,-77.52C1988.5,-62.24 1988.5,-41.48 1988.5,-30"/>
<polygon fill="#63b8ff" stroke="#63b8ff" points="1985,-77.9 1988.5,-87.9 1992,-77.9 1985,-77.9"/>
</a>
</g>
</g>
<!-- Node37&#45;&gt;Node36 -->
<g id="edge41_Node000037_Node000036" class="edge">
<title>Node37&#45;&gt;Node36</title>
<g id="a_edge41_Node000037_Node000036"><a xlink:title=" ">
<path fill="none" stroke="#63b8ff" d="M374.23,-149.19C396.16,-137.64 423.8,-123.09 443.83,-112.54"/>
<polygon fill="#63b8ff" stroke="#63b8ff" points="372.43,-146.18 365.21,-153.94 375.69,-152.37 372.43,-146.18"/>
</a>
</g>
</g>
<!-- Node38&#45;&gt;Node14 -->
<g id="edge46_Node000038_Node000014" class="edge">
<title>Node38&#45;&gt;Node14</title>
<g id="a_edge46_Node000038_Node000014"><a xlink:title=" ">
<path fill="none" stroke="#63b8ff" d="M453.66,-292.81C427.52,-281.16 394.11,-266.28 370.02,-255.54"/>
<polygon fill="#63b8ff" stroke="#63b8ff" points="452.37,-296.06 462.93,-296.94 455.22,-289.67 452.37,-296.06"/>
</a>
</g>
</g>
<!-- Node38&#45;&gt;Node17 -->
<g id="edge43_Node000038_Node000017" class="edge">
<title>Node38&#45;&gt;Node17</title>
<g id="a_edge43_Node000038_Node000017"><a xlink:title=" ">
<path fill="none" stroke="#63b8ff" d="M478.03,-288.16C472.4,-279.83 466.32,-270.2 461.5,-261 437.71,-215.6 455.08,-189.9 418.5,-154 406.45,-142.18 371.59,-128.73 338.96,-118.03"/>
<polygon fill="#63b8ff" stroke="#63b8ff" points="475.3,-290.37 483.87,-296.6 481.06,-286.39 475.3,-290.37"/>
</a>
</g>
</g>
<!-- Node38&#45;&gt;Node18 -->
<g id="edge44_Node000038_Node000018" class="edge">
<title>Node38&#45;&gt;Node18</title>
<g id="a_edge44_Node000038_Node000018"><a xlink:title=" ">
<path fill="none" stroke="#63b8ff" d="M491.55,-286.46C486.55,-253.48 473.8,-194.35 443.5,-154 426.4,-131.23 412.09,-136.56 390.5,-118 371.66,-101.8 371.26,-93.29 352.5,-77 337.44,-63.92 319.26,-51.11 304.05,-41.1"/>
<polygon fill="#63b8ff" stroke="#63b8ff" points="488.12,-287.15 492.97,-296.57 495.05,-286.18 488.12,-287.15"/>
</a>
</g>
</g>
<!-- Node38&#45;&gt;Node19 -->
<g id="edge45_Node000038_Node000019" class="edge">
<title>Node38&#45;&gt;Node19</title>
<g id="a_edge45_Node000038_Node000019"><a xlink:title=" ">
<path fill="none" stroke="#63b8ff" d="M497.53,-286.85C501.59,-265.52 510.97,-235.47 532.5,-220 583.31,-183.48 1002.76,-173.38 1167.47,-170.81"/>
<polygon fill="#63b8ff" stroke="#63b8ff" points="494.06,-286.37 495.89,-296.8 500.97,-287.5 494.06,-286.37"/>
</a>
</g>
</g>
<!-- Node39 -->
<g id="Node000039" class="node">
<title>Node39</title>
<g id="a_Node000039"><a xlink:href="../../d8/d76/http__response__body__stream_8hpp_source.html" target="_top" xlink:title=" ">
<polygon fill="white" stroke="#666666" points="659.5,-261 541.5,-261 541.5,-220 659.5,-220 659.5,-261"/>
<text text-anchor="start" x="549.5" y="-249" font-family="Helvetica,sans-Serif" font-size="10.00">userver/server/http</text>
<text text-anchor="start" x="549.5" y="-238" font-family="Helvetica,sans-Serif" font-size="10.00">/http_response_body</text>
<text text-anchor="middle" x="600.5" y="-227" font-family="Helvetica,sans-Serif" font-size="10.00">_stream.hpp</text>
</a>
</g>
</g>
<!-- Node38&#45;&gt;Node39 -->
<g id="edge47_Node000038_Node000039" class="edge">
<title>Node38&#45;&gt;Node39</title>
<g id="a_edge47_Node000038_Node000039"><a xlink:title=" ">
<path fill="none" stroke="#63b8ff" d="M524.53,-291.31C538.97,-281.84 556.23,-270.53 570.65,-261.07"/>
<polygon fill="#63b8ff" stroke="#63b8ff" points="522.39,-288.53 515.95,-296.94 526.23,-294.38 522.39,-288.53"/>
</a>
</g>
</g>
<!-- Node40&#45;&gt;Node5 -->
<g id="edge49_Node000040_Node000005" class="edge">
<title>Node40&#45;&gt;Node5</title>
<g id="a_edge49_Node000040_Node000005"><a xlink:title=" ">
<path fill="none" stroke="#63b8ff" d="M726.26,-363.06C1041.77,-333.01 1969.66,-317.39 2206.83,-313.81"/>
<polygon fill="#63b8ff" stroke="#63b8ff" points="725.81,-359.58 716.2,-364.04 726.49,-366.55 725.81,-359.58"/>
</a>
</g>
</g>
<!-- Node40&#45;&gt;Node38 -->
<g id="edge50_Node000040_Node000038" class="edge">
<title>Node40&#45;&gt;Node38</title>
<g id="a_edge50_Node000040_Node000038"><a xlink:title=" ">
<path fill="none" stroke="#63b8ff" d="M600.69,-358.92C577.3,-348.8 548.57,-336.38 526.9,-327.01"/>
<polygon fill="#63b8ff" stroke="#63b8ff" points="599.45,-362.2 610.02,-362.95 602.23,-355.77 599.45,-362.2"/>
</a>
</g>
</g>
<!-- Node43 -->
<g id="Node000043" class="node">
<title>Node43</title>
<g id="a_Node000043"><a xlink:href="../../d3/d9d/ydb_2include_2userver_2ydb_2io_2supported__types_8hpp.html" target="_top" xlink:title=" ">
<polygon fill="white" stroke="#666666" points="872.5,-393 734.5,-393 734.5,-363 872.5,-363 872.5,-393"/>
<text text-anchor="start" x="742.5" y="-381" font-family="Helvetica,sans-Serif" font-size="10.00">userver/ydb/io/supported</text>
<text text-anchor="middle" x="803.5" y="-370" font-family="Helvetica,sans-Serif" font-size="10.00">_types.hpp</text>
</a>
</g>
</g>
<!-- Node42&#45;&gt;Node43 -->
<g id="edge53_Node000042_Node000043" class="edge">
<title>Node42&#45;&gt;Node43</title>
<g id="a_edge53_Node000042_Node000043"><a xlink:title=" ">
<path fill="none" stroke="#63b8ff" d="M802.79,-424.35C802.95,-414.47 803.13,-402.51 803.27,-393.36"/>
<polygon fill="#63b8ff" stroke="#63b8ff" points="799.29,-424.32 802.63,-434.37 806.29,-424.42 799.29,-424.32"/>
</a>
</g>
</g>
</g>
</svg>
