<?xml version="1.0" encoding="UTF-8" standalone="no"?>
<!DOCTYPE svg PUBLIC "-//W3C//DTD SVG 1.1//EN"
 "http://www.w3.org/Graphics/SVG/1.1/DTD/svg11.dtd">
<!-- Generated by graphviz version 2.43.0 (0)
 -->
<!-- Title: userver/ydb/credentials.hpp Pages: 1 -->
<svg width="551pt" height="225pt"
 viewBox="0.00 0.00 550.50 225.00" xmlns="http://www.w3.org/2000/svg" xmlns:xlink="http://www.w3.org/1999/xlink">
<g id="graph0" class="graph" transform="scale(1 1) rotate(0) translate(4 221)">
<title>userver/ydb/credentials.hpp</title>
<!-- Node1 -->
<g id="Node000001" class="node">
<title>Node1</title>
<g id="a_Node000001"><a xlink:title=" ">
<polygon fill="#999999" stroke="#666666" points="206,-217 54,-217 54,-198 206,-198 206,-217"/>
<text text-anchor="middle" x="130" y="-205" font-family="Helvetica,sans-Serif" font-size="10.00">userver/ydb/credentials.hpp</text>
</a>
</g>
</g>
<!-- Node2 -->
<g id="Node000002" class="node">
<title>Node2</title>
<g id="a_Node000002"><a xlink:title=" ">
<polygon fill="#e0e0e0" stroke="#999999" points="58,-151 0,-151 0,-132 58,-132 58,-151"/>
<text text-anchor="middle" x="29" y="-139" font-family="Helvetica,sans-Serif" font-size="10.00">memory</text>
</a>
</g>
</g>
<!-- Node1&#45;&gt;Node2 -->
<g id="edge1_Node000001_Node000002" class="edge">
<title>Node1&#45;&gt;Node2</title>
<g id="a_edge1_Node000001_Node000002"><a xlink:title=" ">
<path fill="none" stroke="#63b8ff" d="M116.38,-197.87C99.66,-187.28 71.09,-169.17 51.19,-156.56"/>
<polygon fill="#63b8ff" stroke="#63b8ff" points="53.05,-153.6 42.73,-151.2 49.3,-159.51 53.05,-153.6"/>
</a>
</g>
</g>
<!-- Node3 -->
<g id="Node000003" class="node">
<title>Node3</title>
<g id="a_Node000003"><a xlink:title=" ">
<polygon fill="#e0e0e0" stroke="#999999" points="151,-19 107,-19 107,0 151,0 151,-19"/>
<text text-anchor="middle" x="129" y="-7" font-family="Helvetica,sans-Serif" font-size="10.00">string</text>
</a>
</g>
</g>
<!-- Node1&#45;&gt;Node3 -->
<g id="edge2_Node000001_Node000003" class="edge">
<title>Node1&#45;&gt;Node3</title>
<g id="a_edge2_Node000001_Node000003"><a xlink:title=" ">
<path fill="none" stroke="#63b8ff" d="M123.37,-197.88C117.24,-189.32 108.54,-175.54 105,-162 92.96,-115.99 93.36,-101.11 105,-55 107.41,-45.44 112.33,-35.7 117.09,-27.78"/>
<polygon fill="#63b8ff" stroke="#63b8ff" points="120.17,-29.46 122.63,-19.16 114.28,-25.68 120.17,-29.46"/>
</a>
</g>
</g>
<!-- Node4 -->
<g id="Node000004" class="node">
<title>Node4</title>
<g id="a_Node000004"><a xlink:href="../../da/d11/loggable__component__base_8hpp.html" target="_top" xlink:title="Contains components::LoggableComponentBase declaration and forward declarations of components::Compon...">
<polygon fill="white" stroke="#666666" points="236,-162 114,-162 114,-121 236,-121 236,-162"/>
<text text-anchor="start" x="122" y="-150" font-family="Helvetica,sans-Serif" font-size="10.00">userver/components</text>
<text text-anchor="start" x="122" y="-139" font-family="Helvetica,sans-Serif" font-size="10.00">/loggable_component</text>
<text text-anchor="middle" x="175" y="-128" font-family="Helvetica,sans-Serif" font-size="10.00">_base.hpp</text>
</a>
</g>
</g>
<!-- Node1&#45;&gt;Node4 -->
<g id="edge3_Node000001_Node000004" class="edge">
<title>Node1&#45;&gt;Node4</title>
<g id="a_edge3_Node000001_Node000004"><a xlink:title=" ">
<path fill="none" stroke="#63b8ff" d="M136.07,-197.87C141.04,-190.8 148.37,-180.38 155.33,-170.48"/>
<polygon fill="#63b8ff" stroke="#63b8ff" points="158.39,-172.2 161.28,-162.01 152.67,-168.18 158.39,-172.2"/>
</a>
</g>
</g>
<!-- Node7 -->
<g id="Node000007" class="node">
<title>Node7</title>
<g id="a_Node000007"><a xlink:href="../../dd/dd7/universal_2include_2userver_2yaml__config_2fwd_8hpp.html" target="_top" xlink:title="Forward declarations of YamlConfig type and formats::parse::To.">
<polygon fill="white" stroke="#666666" points="454,-156.5 338,-156.5 338,-126.5 454,-126.5 454,-156.5"/>
<text text-anchor="start" x="346" y="-144.5" font-family="Helvetica,sans-Serif" font-size="10.00">userver/yaml_config</text>
<text text-anchor="middle" x="396" y="-133.5" font-family="Helvetica,sans-Serif" font-size="10.00">/fwd.hpp</text>
</a>
</g>
</g>
<!-- Node1&#45;&gt;Node7 -->
<g id="edge7_Node000001_Node000007" class="edge">
<title>Node1&#45;&gt;Node7</title>
<g id="a_edge7_Node000001_Node000007"><a xlink:title=" ">
<path fill="none" stroke="#63b8ff" d="M165.6,-197.94C207.03,-187.97 276.37,-171.28 328.18,-158.82"/>
<polygon fill="#63b8ff" stroke="#63b8ff" points="329.06,-162.21 337.96,-156.46 327.42,-155.4 329.06,-162.21"/>
</a>
</g>
</g>
<!-- Node5 -->
<g id="Node000005" class="node">
<title>Node5</title>
<g id="a_Node000005"><a xlink:href="../../d7/d47/component__fwd_8hpp.html" target="_top" xlink:title="Forward declarations for components::ComponentContext and components::ComponentConfig; function compo...">
<polygon fill="white" stroke="#666666" points="232,-85 114,-85 114,-55 232,-55 232,-85"/>
<text text-anchor="start" x="122" y="-73" font-family="Helvetica,sans-Serif" font-size="10.00">userver/components</text>
<text text-anchor="middle" x="173" y="-62" font-family="Helvetica,sans-Serif" font-size="10.00">/component_fwd.hpp</text>
</a>
</g>
</g>
<!-- Node4&#45;&gt;Node5 -->
<g id="edge4_Node000004_Node000005" class="edge">
<title>Node4&#45;&gt;Node5</title>
<g id="a_edge4_Node000004_Node000005"><a xlink:title=" ">
<path fill="none" stroke="#63b8ff" d="M174.43,-120.77C174.2,-112.85 173.94,-103.63 173.7,-95.3"/>
<polygon fill="#63b8ff" stroke="#63b8ff" points="177.19,-94.93 173.4,-85.04 170.19,-95.13 177.19,-94.93"/>
</a>
</g>
</g>
<!-- Node6 -->
<g id="Node000006" class="node">
<title>Node6</title>
<g id="a_Node000006"><a xlink:href="../../de/da1/core_2include_2userver_2components_2impl_2component__base_8hpp_source.html" target="_top" xlink:title=" ">
<polygon fill="white" stroke="#666666" points="399.5,-85 250.5,-85 250.5,-55 399.5,-55 399.5,-85"/>
<text text-anchor="start" x="258.5" y="-73" font-family="Helvetica,sans-Serif" font-size="10.00">userver/components</text>
<text text-anchor="middle" x="325" y="-62" font-family="Helvetica,sans-Serif" font-size="10.00">/impl/component_base.hpp</text>
</a>
</g>
</g>
<!-- Node4&#45;&gt;Node6 -->
<g id="edge6_Node000004_Node000006" class="edge">
<title>Node4&#45;&gt;Node6</title>
<g id="a_edge6_Node000004_Node000006"><a xlink:title=" ">
<path fill="none" stroke="#63b8ff" d="M217.18,-120.96C238.52,-111.07 264.28,-99.13 285.27,-89.41"/>
<polygon fill="#63b8ff" stroke="#63b8ff" points="286.94,-92.49 294.54,-85.11 284,-86.14 286.94,-92.49"/>
</a>
</g>
</g>
<!-- Node5&#45;&gt;Node3 -->
<g id="edge5_Node000005_Node000003" class="edge">
<title>Node5&#45;&gt;Node3</title>
<g id="a_edge5_Node000005_Node000003"><a xlink:title=" ">
<path fill="none" stroke="#63b8ff" d="M162.35,-54.84C156.16,-46.61 148.31,-36.18 141.79,-27.51"/>
<polygon fill="#63b8ff" stroke="#63b8ff" points="144.4,-25.15 135.59,-19.27 138.81,-29.36 144.4,-25.15"/>
</a>
</g>
</g>
<!-- Node8 -->
<g id="Node000008" class="node">
<title>Node8</title>
<g id="a_Node000008"><a xlink:href="../../d2/dc8/universal_2include_2userver_2formats_2parse_2to_8hpp.html" target="_top" xlink:title="Helper for parsers.">
<polygon fill="white" stroke="#666666" points="542.5,-85 417.5,-85 417.5,-55 542.5,-55 542.5,-85"/>
<text text-anchor="start" x="425.5" y="-73" font-family="Helvetica,sans-Serif" font-size="10.00">userver/formats/parse</text>
<text text-anchor="middle" x="480" y="-62" font-family="Helvetica,sans-Serif" font-size="10.00">/to.hpp</text>
</a>
</g>
</g>
<!-- Node7&#45;&gt;Node8 -->
<g id="edge8_Node000007_Node000008" class="edge">
<title>Node7&#45;&gt;Node8</title>
<g id="a_edge8_Node000007_Node000008"><a xlink:title=" ">
<path fill="none" stroke="#63b8ff" d="M413,-126.44C425.07,-116.45 441.47,-102.88 455.02,-91.67"/>
<polygon fill="#63b8ff" stroke="#63b8ff" points="457.55,-94.11 463.03,-85.04 453.09,-88.72 457.55,-94.11"/>
</a>
</g>
</g>
</g>
</svg>
