<?xml version="1.0" encoding="UTF-8" standalone="no"?>
<!DOCTYPE svg PUBLIC "-//W3C//DTD SVG 1.1//EN"
 "http://www.w3.org/Graphics/SVG/1.1/DTD/svg11.dtd">
<!-- Generated by graphviz version 2.43.0 (0)
 -->
<!-- Title: Concurrency Pages: 1 -->
<svg width="359pt" height="213pt"
 viewBox="0.00 0.00 359.00 213.33" xmlns="http://www.w3.org/2000/svg" xmlns:xlink="http://www.w3.org/1999/xlink">
<g id="graph0" class="graph" transform="scale(1 1) rotate(0) translate(4 209.33)">
<title>Concurrency</title>
<!-- Node4 -->
<g id="Node000004" class="node">
<title>Node4</title>
<g id="a_Node000004"><a xlink:href="../../da/d0c/group__userver__base__classes.html" target="_top" xlink:title="Base classes that simplify implementation of functionality.">
<polygon fill="white" stroke="#666666" points="351,-195.83 270,-195.83 270,-176.83 351,-176.83 351,-195.83"/>
<text text-anchor="middle" x="310.5" y="-183.83" font-family="Helvetica,sans-Serif" font-size="10.00">Base Classes</text>
</a>
</g>
</g>
<!-- Node1 -->
<g id="Node000001" class="node">
<title>Node1</title>
<g id="a_Node000001"><a xlink:title="Task construction and synchronization primitives for coroutines.">
<polygon fill="#999999" stroke="#666666" points="77,-67.83 0,-67.83 0,-48.83 77,-48.83 77,-67.83"/>
<text text-anchor="middle" x="38.5" y="-55.83" font-family="Helvetica,sans-Serif" font-size="10.00">Concurrency</text>
</a>
</g>
</g>
<!-- Node1&#45;&gt;Node4 -->
<g id="edge3" class="edge">
<title>Node1&#45;&gt;Node4</title>
<path fill="none" stroke="orange" stroke-dasharray="5,2" d="M41.41,-67.89C46.19,-89.12 60.86,-140.2 95,-163.33 147.24,-198.74 223.64,-197.5 269.76,-192.52"/>
<text text-anchor="middle" x="173.5" y="-197.33" font-family="Helvetica,sans-Serif" font-size="10.00">dist_lock::DistLockStrategyBase</text>
</g>
<!-- Node3 -->
<g id="Node000003" class="node">
<title>Node3</title>
<g id="a_Node000003"><a xlink:href="../../df/d2e/group__userver__containers.html" target="_top" xlink:title="Utility containers.">
<polygon fill="white" stroke="#666666" points="345,-84.83 276,-84.83 276,-65.83 345,-65.83 345,-84.83"/>
<text text-anchor="middle" x="310.5" y="-72.83" font-family="Helvetica,sans-Serif" font-size="10.00">Containers</text>
</a>
</g>
</g>
<!-- Node1&#45;&gt;Node3 -->
<g id="edge2" class="edge">
<title>Node1&#45;&gt;Node3</title>
<path fill="none" stroke="orange" stroke-dasharray="5,2" d="M77.04,-60.7C129.79,-64.02 225.03,-70.01 275.68,-73.2"/>
<text text-anchor="start" x="104.5" y="-151.33" font-family="Helvetica,sans-Serif" font-size="10.00">concurrent::BackgroundTask</text>
<text text-anchor="middle" x="173.5" y="-140.33" font-family="Helvetica,sans-Serif" font-size="10.00">StorageCore</text>
<text text-anchor="start" x="104.5" y="-129.33" font-family="Helvetica,sans-Serif" font-size="10.00">concurrent::BackgroundTask</text>
<text text-anchor="middle" x="173.5" y="-118.33" font-family="Helvetica,sans-Serif" font-size="10.00">Storage</text>
<text text-anchor="middle" x="173.5" y="-107.33" font-family="Helvetica,sans-Serif" font-size="10.00">concurrent::MutexSet</text>
<text text-anchor="middle" x="173.5" y="-96.33" font-family="Helvetica,sans-Serif" font-size="10.00">concurrent::Variable</text>
<text text-anchor="middle" x="173.5" y="-85.33" font-family="Helvetica,sans-Serif" font-size="10.00">rcu::Variable</text>
<text text-anchor="middle" x="173.5" y="-74.33" font-family="Helvetica,sans-Serif" font-size="10.00">rcu::RcuMap</text>
</g>
<!-- Node2 -->
<g id="Node000002" class="node">
<title>Node2</title>
<g id="a_Node000002"><a xlink:href="../../d7/d67/group__userver__universal.html" target="_top" xlink:title="Functions and classes that could be used with or without coroutine environment.">
<polygon fill="white" stroke="#666666" points="342,-32.83 279,-32.83 279,-13.83 342,-13.83 342,-32.83"/>
<text text-anchor="middle" x="310.5" y="-20.83" font-family="Helvetica,sans-Serif" font-size="10.00">Universal</text>
</a>
</g>
</g>
<!-- Node1&#45;&gt;Node2 -->
<g id="edge1" class="edge">
<title>Node1&#45;&gt;Node2</title>
<path fill="none" stroke="orange" stroke-dasharray="5,2" d="M77.01,-49.66C83.01,-48.43 89.16,-47.28 95,-46.33 160.08,-35.84 237.06,-28.9 278.82,-25.59"/>
<text text-anchor="middle" x="173.5" y="-49.33" font-family="Helvetica,sans-Serif" font-size="10.00">utils::TokenBucket</text>
</g>
<!-- Node1&#45;&gt;Node2 -->
<g id="edge4" class="edge">
<title>Node1&#45;&gt;Node2</title>
<path fill="none" stroke="darkgreen" stroke-dasharray="5,2" d="M47.31,-48.69C57.08,-37.47 74.99,-19.55 95,-12.33 157.26,10.12 236.31,-3.85 278.93,-14.53"/>
<text text-anchor="middle" x="173.5" y="-15.33" font-family="Helvetica,sans-Serif" font-size="10.00">atomic.hpp</text>
</g>
</g>
</svg>
