<?xml version="1.0" encoding="UTF-8" standalone="no"?>
<!DOCTYPE svg PUBLIC "-//W3C//DTD SVG 1.1//EN"
 "http://www.w3.org/Graphics/SVG/1.1/DTD/svg11.dtd">
<!-- Generated by graphviz version 2.43.0 (0)
 -->
<!-- Title: userver/logging/log.hpp Pages: 1 -->
<svg width="2070pt" height="346pt"
 viewBox="0.00 0.00 2069.78 346.00" xmlns="http://www.w3.org/2000/svg" xmlns:xlink="http://www.w3.org/1999/xlink">
<g id="graph0" class="graph" transform="scale(1 1) rotate(0) translate(4 342)">
<title>userver/logging/log.hpp</title>
<!-- Node1 -->
<g id="Node000001" class="node">
<title>Node1</title>
<g id="a_Node000001"><a xlink:title="Logging helpers.">
<polygon fill="#999999" stroke="#666666" points="1171.5,-338 1040.5,-338 1040.5,-319 1171.5,-319 1171.5,-338"/>
<text text-anchor="middle" x="1106" y="-326" font-family="Helvetica,sans-Serif" font-size="10.00">userver/logging/log.hpp</text>
</a>
</g>
</g>
<!-- Node2 -->
<g id="Node000002" class="node">
<title>Node2</title>
<g id="a_Node000002"><a xlink:title=" ">
<polygon fill="#e0e0e0" stroke="#999999" points="50,-211.5 0,-211.5 0,-192.5 50,-192.5 50,-211.5"/>
<text text-anchor="middle" x="25" y="-199.5" font-family="Helvetica,sans-Serif" font-size="10.00">chrono</text>
</a>
</g>
</g>
<!-- Node1&#45;&gt;Node2 -->
<g id="edge1_Node000001_Node000002" class="edge">
<title>Node1&#45;&gt;Node2</title>
<g id="a_edge1_Node000001_Node000002"><a xlink:title=" ">
<path fill="none" stroke="#63b8ff" d="M1040.37,-326.46C874.44,-322.57 425.67,-304.14 64,-217 61.34,-216.36 58.61,-215.6 55.88,-214.77"/>
<polygon fill="#63b8ff" stroke="#63b8ff" points="56.8,-211.38 46.2,-211.55 54.59,-218.03 56.8,-211.38"/>
</a>
</g>
</g>
<!-- Node3 -->
<g id="Node000003" class="node">
<title>Node3</title>
<g id="a_Node000003"><a xlink:href="../../d2/d84/select_8hpp.html" target="_top" xlink:title="Utilities for selection of platform specific values.">
<polygon fill="white" stroke="#666666" points="1894,-145.5 1742,-145.5 1742,-126.5 1894,-126.5 1894,-145.5"/>
<text text-anchor="middle" x="1818" y="-133.5" font-family="Helvetica,sans-Serif" font-size="10.00">userver/compiler/select.hpp</text>
</a>
</g>
</g>
<!-- Node1&#45;&gt;Node3 -->
<g id="edge2_Node000001_Node000003" class="edge">
<title>Node1&#45;&gt;Node3</title>
<g id="a_edge2_Node000001_Node000003"><a xlink:title=" ">
<path fill="none" stroke="#63b8ff" d="M1140.97,-318.98C1214.85,-300.91 1392.17,-257.08 1540,-217 1625.84,-193.73 1725.95,-164.37 1779.51,-148.48"/>
<polygon fill="#63b8ff" stroke="#63b8ff" points="1780.68,-151.79 1789.27,-145.59 1778.68,-145.08 1780.68,-151.79"/>
</a>
</g>
</g>
<!-- Node5 -->
<g id="Node000005" class="node">
<title>Node5</title>
<g id="a_Node000005"><a xlink:href="../../db/dfb/universal_2include_2userver_2logging_2fwd_8hpp.html" target="_top" xlink:title="Forward declarations for logging types.">
<polygon fill="white" stroke="#666666" points="2046,-145.5 1912,-145.5 1912,-126.5 2046,-126.5 2046,-145.5"/>
<text text-anchor="middle" x="1979" y="-133.5" font-family="Helvetica,sans-Serif" font-size="10.00">userver/logging/fwd.hpp</text>
</a>
</g>
</g>
<!-- Node1&#45;&gt;Node5 -->
<g id="edge4_Node000001_Node000005" class="edge">
<title>Node1&#45;&gt;Node5</title>
<g id="a_edge4_Node000001_Node000005"><a xlink:title=" ">
<path fill="none" stroke="#63b8ff" d="M1158.83,-318.95C1209.54,-310.54 1288.21,-296.97 1356,-283 1574.8,-237.92 1834.27,-173.58 1935.51,-148.05"/>
<polygon fill="#63b8ff" stroke="#63b8ff" points="1936.54,-151.4 1945.38,-145.56 1934.82,-144.61 1936.54,-151.4"/>
</a>
</g>
</g>
<!-- Node7 -->
<g id="Node000007" class="node">
<title>Node7</title>
<g id="a_Node000007"><a xlink:href="../../d5/d37/level_8hpp.html" target="_top" xlink:title="Log levels.">
<polygon fill="white" stroke="#666666" points="1225,-211.5 1085,-211.5 1085,-192.5 1225,-192.5 1225,-211.5"/>
<text text-anchor="middle" x="1155" y="-199.5" font-family="Helvetica,sans-Serif" font-size="10.00">userver/logging/level.hpp</text>
</a>
</g>
</g>
<!-- Node1&#45;&gt;Node7 -->
<g id="edge6_Node000001_Node000007" class="edge">
<title>Node1&#45;&gt;Node7</title>
<g id="a_edge6_Node000001_Node000007"><a xlink:title=" ">
<path fill="none" stroke="#63b8ff" d="M1109.37,-318.94C1117.27,-298.86 1137.14,-248.37 1147.87,-221.12"/>
<polygon fill="#63b8ff" stroke="#63b8ff" points="1151.2,-222.2 1151.61,-211.62 1144.69,-219.64 1151.2,-222.2"/>
</a>
</g>
</g>
<!-- Node11 -->
<g id="Node000011" class="node">
<title>Node11</title>
<g id="a_Node000011"><a xlink:href="../../d4/dc3/log__filepath_8hpp.html" target="_top" xlink:title="Short source path calculator.">
<polygon fill="white" stroke="#666666" points="1108,-151 998,-151 998,-121 1108,-121 1108,-151"/>
<text text-anchor="start" x="1006" y="-139" font-family="Helvetica,sans-Serif" font-size="10.00">userver/logging/log</text>
<text text-anchor="middle" x="1053" y="-128" font-family="Helvetica,sans-Serif" font-size="10.00">_filepath.hpp</text>
</a>
</g>
</g>
<!-- Node1&#45;&gt;Node11 -->
<g id="edge10_Node000001_Node000011" class="edge">
<title>Node1&#45;&gt;Node11</title>
<g id="a_edge10_Node000001_Node000011"><a xlink:title=" ">
<path fill="none" stroke="#63b8ff" d="M1103.58,-318.82C1095.86,-291.04 1071.54,-203.65 1059.66,-160.95"/>
<polygon fill="#63b8ff" stroke="#63b8ff" points="1062.98,-159.82 1056.93,-151.12 1056.24,-161.69 1062.98,-159.82"/>
</a>
</g>
</g>
<!-- Node13 -->
<g id="Node000013" class="node">
<title>Node13</title>
<g id="a_Node000013"><a xlink:href="../../db/d94/log__helper_8hpp.html" target="_top" xlink:title=" ">
<polygon fill="white" stroke="#666666" points="695,-283 585,-283 585,-253 695,-253 695,-283"/>
<text text-anchor="start" x="593" y="-271" font-family="Helvetica,sans-Serif" font-size="10.00">userver/logging/log</text>
<text text-anchor="middle" x="640" y="-260" font-family="Helvetica,sans-Serif" font-size="10.00">_helper.hpp</text>
</a>
</g>
</g>
<!-- Node1&#45;&gt;Node13 -->
<g id="edge12_Node000001_Node000013" class="edge">
<title>Node1&#45;&gt;Node13</title>
<g id="a_edge12_Node000001_Node000013"><a xlink:title=" ">
<path fill="none" stroke="#63b8ff" d="M1040.22,-319.24C951.32,-308.08 793.78,-288.3 705.19,-277.18"/>
<polygon fill="#63b8ff" stroke="#63b8ff" points="705.62,-273.71 695.26,-275.94 704.74,-280.66 705.62,-273.71"/>
</a>
</g>
</g>
<!-- Node4 -->
<g id="Node000004" class="node">
<title>Node4</title>
<g id="a_Node000004"><a xlink:title=" ">
<polygon fill="#e0e0e0" stroke="#999999" points="1741.5,-79.5 1688.5,-79.5 1688.5,-60.5 1741.5,-60.5 1741.5,-79.5"/>
<text text-anchor="middle" x="1715" y="-67.5" font-family="Helvetica,sans-Serif" font-size="10.00">cstddef</text>
</a>
</g>
</g>
<!-- Node3&#45;&gt;Node4 -->
<g id="edge3_Node000003_Node000004" class="edge">
<title>Node3&#45;&gt;Node4</title>
<g id="a_edge3_Node000003_Node000004"><a xlink:title=" ">
<path fill="none" stroke="#63b8ff" d="M1804.11,-126.37C1787.06,-115.78 1757.93,-97.67 1737.63,-85.06"/>
<polygon fill="#63b8ff" stroke="#63b8ff" points="1739.34,-82 1729,-79.7 1735.65,-87.95 1739.34,-82"/>
</a>
</g>
</g>
<!-- Node6 -->
<g id="Node000006" class="node">
<title>Node6</title>
<g id="a_Node000006"><a xlink:title=" ">
<polygon fill="#e0e0e0" stroke="#999999" points="2055,-79.5 1997,-79.5 1997,-60.5 2055,-60.5 2055,-79.5"/>
<text text-anchor="middle" x="2026" y="-67.5" font-family="Helvetica,sans-Serif" font-size="10.00">memory</text>
</a>
</g>
</g>
<!-- Node5&#45;&gt;Node6 -->
<g id="edge5_Node000005_Node000006" class="edge">
<title>Node5&#45;&gt;Node6</title>
<g id="a_edge5_Node000005_Node000006"><a xlink:title=" ">
<path fill="none" stroke="#63b8ff" d="M1985.34,-126.37C1992.52,-116.59 2004.39,-100.42 2013.46,-88.08"/>
<polygon fill="#63b8ff" stroke="#63b8ff" points="2016.36,-90.04 2019.46,-79.91 2010.72,-85.89 2016.36,-90.04"/>
</a>
</g>
</g>
<!-- Node8 -->
<g id="Node000008" class="node">
<title>Node8</title>
<g id="a_Node000008"><a xlink:title=" ">
<polygon fill="#e0e0e0" stroke="#999999" points="1176,-145.5 1126,-145.5 1126,-126.5 1176,-126.5 1176,-145.5"/>
<text text-anchor="middle" x="1151" y="-133.5" font-family="Helvetica,sans-Serif" font-size="10.00">cstdint</text>
</a>
</g>
</g>
<!-- Node7&#45;&gt;Node8 -->
<g id="edge7_Node000007_Node000008" class="edge">
<title>Node7&#45;&gt;Node8</title>
<g id="a_edge7_Node000007_Node000008"><a xlink:title=" ">
<path fill="none" stroke="#63b8ff" d="M1154.46,-192.37C1153.88,-183.07 1152.94,-167.98 1152.18,-155.9"/>
<polygon fill="#63b8ff" stroke="#63b8ff" points="1155.67,-155.67 1151.56,-145.91 1148.69,-156.1 1155.67,-155.67"/>
</a>
</g>
</g>
<!-- Node9 -->
<g id="Node000009" class="node">
<title>Node9</title>
<g id="a_Node000009"><a xlink:title=" ">
<polygon fill="#e0e0e0" stroke="#999999" points="527,-145.5 471,-145.5 471,-126.5 527,-126.5 527,-145.5"/>
<text text-anchor="middle" x="499" y="-133.5" font-family="Helvetica,sans-Serif" font-size="10.00">optional</text>
</a>
</g>
</g>
<!-- Node7&#45;&gt;Node9 -->
<g id="edge8_Node000007_Node000009" class="edge">
<title>Node7&#45;&gt;Node9</title>
<g id="a_edge8_Node000007_Node000009"><a xlink:title=" ">
<path fill="none" stroke="#63b8ff" d="M1087.35,-192.5C1070.89,-190.56 1053.32,-188.6 1037,-187 831.59,-166.84 778.63,-177.98 574,-151 561.91,-149.41 548.82,-147.15 537.01,-144.91"/>
<polygon fill="#63b8ff" stroke="#63b8ff" points="537.51,-141.44 527.02,-142.97 536.17,-148.31 537.51,-141.44"/>
</a>
</g>
</g>
<!-- Node10 -->
<g id="Node000010" class="node">
<title>Node10</title>
<g id="a_Node000010"><a xlink:title=" ">
<polygon fill="#e0e0e0" stroke="#999999" points="1238,-145.5 1194,-145.5 1194,-126.5 1238,-126.5 1238,-145.5"/>
<text text-anchor="middle" x="1216" y="-133.5" font-family="Helvetica,sans-Serif" font-size="10.00">string</text>
</a>
</g>
</g>
<!-- Node7&#45;&gt;Node10 -->
<g id="edge9_Node000007_Node000010" class="edge">
<title>Node7&#45;&gt;Node10</title>
<g id="a_edge9_Node000007_Node000010"><a xlink:title=" ">
<path fill="none" stroke="#63b8ff" d="M1163.23,-192.37C1172.72,-182.4 1188.56,-165.79 1200.41,-153.36"/>
<polygon fill="#63b8ff" stroke="#63b8ff" points="1203.15,-155.56 1207.51,-145.91 1198.08,-150.73 1203.15,-155.56"/>
</a>
</g>
</g>
<!-- Node12 -->
<g id="Node000012" class="node">
<title>Node12</title>
<g id="a_Node000012"><a xlink:title=" ">
<polygon fill="#e0e0e0" stroke="#999999" points="1033.5,-79.5 960.5,-79.5 960.5,-60.5 1033.5,-60.5 1033.5,-79.5"/>
<text text-anchor="middle" x="997" y="-67.5" font-family="Helvetica,sans-Serif" font-size="10.00">string_view</text>
</a>
</g>
</g>
<!-- Node11&#45;&gt;Node12 -->
<g id="edge11_Node000011_Node000012" class="edge">
<title>Node11&#45;&gt;Node12</title>
<g id="a_edge11_Node000011_Node000012"><a xlink:title=" ">
<path fill="none" stroke="#63b8ff" d="M1040.57,-120.8C1031.93,-110.92 1020.38,-97.72 1011.34,-87.39"/>
<polygon fill="#63b8ff" stroke="#63b8ff" points="1013.96,-85.07 1004.74,-79.84 1008.69,-89.67 1013.96,-85.07"/>
</a>
</g>
</g>
<!-- Node13&#45;&gt;Node2 -->
<g id="edge13_Node000013_Node000002" class="edge">
<title>Node13&#45;&gt;Node2</title>
<g id="a_edge13_Node000013_Node000002"><a xlink:title=" ">
<path fill="none" stroke="#63b8ff" d="M584.89,-266.91C481.53,-265.72 252.01,-258.18 64,-217 61.17,-216.38 58.26,-215.61 55.37,-214.75"/>
<polygon fill="#63b8ff" stroke="#63b8ff" points="56.35,-211.38 45.76,-211.57 54.16,-218.03 56.35,-211.38"/>
</a>
</g>
</g>
<!-- Node13&#45;&gt;Node5 -->
<g id="edge30_Node000013_Node000005" class="edge">
<title>Node13&#45;&gt;Node5</title>
<g id="a_edge30_Node000013_Node000005"><a xlink:title=" ">
<path fill="none" stroke="#63b8ff" d="M695.25,-266.32C836.41,-264.06 1221.61,-254.64 1540,-217 1683.68,-200.01 1851.37,-165.23 1931.56,-147.66"/>
<polygon fill="#63b8ff" stroke="#63b8ff" points="1932.35,-151.07 1941.37,-145.51 1930.85,-144.24 1932.35,-151.07"/>
</a>
</g>
</g>
<!-- Node13&#45;&gt;Node6 -->
<g id="edge17_Node000013_Node000006" class="edge">
<title>Node13&#45;&gt;Node6</title>
<g id="a_edge17_Node000013_Node000006"><a xlink:title=" ">
<path fill="none" stroke="#63b8ff" d="M695.24,-266.45C847.8,-264.46 1287.73,-255.53 1651,-217 1831.92,-197.81 1937.18,-289.63 2055,-151 2070.56,-132.69 2054.64,-105.35 2040.96,-87.85"/>
<polygon fill="#63b8ff" stroke="#63b8ff" points="2043.27,-85.15 2034.19,-79.7 2037.89,-89.63 2043.27,-85.15"/>
</a>
</g>
</g>
<!-- Node13&#45;&gt;Node7 -->
<g id="edge31_Node000013_Node000007" class="edge">
<title>Node13&#45;&gt;Node7</title>
<g id="a_edge31_Node000013_Node000007"><a xlink:title=" ">
<path fill="none" stroke="#63b8ff" d="M695.11,-260.15C786.87,-248.75 971.23,-225.84 1076.52,-212.75"/>
<polygon fill="#63b8ff" stroke="#63b8ff" points="1076.97,-216.22 1086.46,-211.52 1076.11,-209.28 1076.97,-216.22"/>
</a>
</g>
</g>
<!-- Node13&#45;&gt;Node9 -->
<g id="edge18_Node000013_Node000009" class="edge">
<title>Node13&#45;&gt;Node9</title>
<g id="a_edge18_Node000013_Node000009"><a xlink:title=" ">
<path fill="none" stroke="#63b8ff" d="M628.62,-252.92C614.87,-236.31 590.62,-208.25 567,-187 552.34,-173.82 534.31,-160.68 520.5,-151.18"/>
<polygon fill="#63b8ff" stroke="#63b8ff" points="522.36,-148.21 512.11,-145.5 518.43,-154.01 522.36,-148.21"/>
</a>
</g>
</g>
<!-- Node13&#45;&gt;Node12 -->
<g id="edge19_Node000013_Node000012" class="edge">
<title>Node13&#45;&gt;Node12</title>
<g id="a_edge19_Node000013_Node000012"><a xlink:title=" ">
<path fill="none" stroke="#63b8ff" d="M681.77,-252.9C707.2,-243.77 740.06,-231 768,-217 849.17,-176.31 937.8,-114.23 976.74,-85.96"/>
<polygon fill="#63b8ff" stroke="#63b8ff" points="979.1,-88.56 985.11,-79.84 974.97,-82.91 979.1,-88.56"/>
</a>
</g>
</g>
<!-- Node14 -->
<g id="Node000014" class="node">
<title>Node14</title>
<g id="a_Node000014"><a xlink:title=" ">
<polygon fill="#e0e0e0" stroke="#999999" points="425.5,-211.5 360.5,-211.5 360.5,-192.5 425.5,-192.5 425.5,-211.5"/>
<text text-anchor="middle" x="393" y="-199.5" font-family="Helvetica,sans-Serif" font-size="10.00">exception</text>
</a>
</g>
</g>
<!-- Node13&#45;&gt;Node14 -->
<g id="edge14_Node000013_Node000014" class="edge">
<title>Node13&#45;&gt;Node14</title>
<g id="a_edge14_Node000013_Node000014"><a xlink:title=" ">
<path fill="none" stroke="#63b8ff" d="M584.99,-255.08C543.29,-245.7 484.7,-231.78 434,-217 431.54,-216.28 429,-215.51 426.46,-214.7"/>
<polygon fill="#63b8ff" stroke="#63b8ff" points="427.32,-211.3 416.73,-211.51 425.14,-217.95 427.32,-211.3"/>
</a>
</g>
</g>
<!-- Node15 -->
<g id="Node000015" class="node">
<title>Node15</title>
<g id="a_Node000015"><a xlink:title=" ">
<polygon fill="#e0e0e0" stroke="#999999" points="329,-145.5 281,-145.5 281,-126.5 329,-126.5 329,-145.5"/>
<text text-anchor="middle" x="305" y="-133.5" font-family="Helvetica,sans-Serif" font-size="10.00">iosfwd</text>
</a>
</g>
</g>
<!-- Node13&#45;&gt;Node15 -->
<g id="edge15_Node000013_Node000015" class="edge">
<title>Node13&#45;&gt;Node15</title>
<g id="a_edge15_Node000013_Node000015"><a xlink:title=" ">
<path fill="none" stroke="#63b8ff" d="M617.78,-252.8C603.05,-243.15 583.48,-229.84 567,-217 551.1,-204.62 551.12,-195.82 533,-187 453.75,-148.45 422.4,-176.36 338,-151 336.32,-150.5 334.61,-149.93 332.9,-149.33"/>
<polygon fill="#63b8ff" stroke="#63b8ff" points="333.83,-145.94 323.24,-145.58 331.29,-152.46 333.83,-145.94"/>
</a>
</g>
</g>
<!-- Node16 -->
<g id="Node000016" class="node">
<title>Node16</title>
<g id="a_Node000016"><a xlink:title=" ">
<polygon fill="#e0e0e0" stroke="#999999" points="159.5,-145.5 106.5,-145.5 106.5,-126.5 159.5,-126.5 159.5,-145.5"/>
<text text-anchor="middle" x="133" y="-133.5" font-family="Helvetica,sans-Serif" font-size="10.00">iterator</text>
</a>
</g>
</g>
<!-- Node13&#45;&gt;Node16 -->
<g id="edge16_Node000013_Node000016" class="edge">
<title>Node13&#45;&gt;Node16</title>
<g id="a_edge16_Node000013_Node000016"><a xlink:title=" ">
<path fill="none" stroke="#63b8ff" d="M584.74,-265.42C483.09,-261.74 270.9,-250.21 206,-217 178.08,-202.71 155.55,-173.08 143.24,-154.16"/>
<polygon fill="#63b8ff" stroke="#63b8ff" points="146.17,-152.24 137.9,-145.62 140.23,-155.95 146.17,-152.24"/>
</a>
</g>
</g>
<!-- Node17 -->
<g id="Node000017" class="node">
<title>Node17</title>
<g id="a_Node000017"><a xlink:title=" ">
<polygon fill="#e0e0e0" stroke="#999999" points="524.5,-211.5 443.5,-211.5 443.5,-192.5 524.5,-192.5 524.5,-211.5"/>
<text text-anchor="middle" x="484" y="-199.5" font-family="Helvetica,sans-Serif" font-size="10.00">system_error</text>
</a>
</g>
</g>
<!-- Node13&#45;&gt;Node17 -->
<g id="edge20_Node000013_Node000017" class="edge">
<title>Node13&#45;&gt;Node17</title>
<g id="a_edge20_Node000013_Node000017"><a xlink:title=" ">
<path fill="none" stroke="#63b8ff" d="M605.77,-252.95C578.41,-241.73 540.43,-226.15 514.19,-215.39"/>
<polygon fill="#63b8ff" stroke="#63b8ff" points="515.34,-212.07 504.76,-211.52 512.68,-218.55 515.34,-212.07"/>
</a>
</g>
</g>
<!-- Node18 -->
<g id="Node000018" class="node">
<title>Node18</title>
<g id="a_Node000018"><a xlink:title=" ">
<polygon fill="#e0e0e0" stroke="#999999" points="510.5,-19 441.5,-19 441.5,0 510.5,0 510.5,-19"/>
<text text-anchor="middle" x="476" y="-7" font-family="Helvetica,sans-Serif" font-size="10.00">type_traits</text>
</a>
</g>
</g>
<!-- Node13&#45;&gt;Node18 -->
<g id="edge21_Node000013_Node000018" class="edge">
<title>Node13&#45;&gt;Node18</title>
<g id="a_edge21_Node000013_Node000018"><a xlink:title=" ">
<path fill="none" stroke="#63b8ff" d="M584.97,-265.63C476.51,-262.21 239.29,-250.98 166,-217 127.5,-199.15 113.67,-190.02 97,-151 46.25,-32.23 222.25,-77.44 300,-55 344.37,-42.19 395.61,-29.47 431.32,-20.93"/>
<polygon fill="#63b8ff" stroke="#63b8ff" points="432.5,-24.24 441.42,-18.52 430.88,-17.43 432.5,-24.24"/>
</a>
</g>
</g>
<!-- Node19 -->
<g id="Node000019" class="node">
<title>Node19</title>
<g id="a_Node000019"><a xlink:href="../../da/d00/universal_2include_2userver_2formats_2common_2meta_8hpp.html" target="_top" xlink:title="Metaprogramming helpers for converters detection.">
<polygon fill="white" stroke="#666666" points="759,-217 619,-217 619,-187 759,-187 759,-217"/>
<text text-anchor="start" x="627" y="-205" font-family="Helvetica,sans-Serif" font-size="10.00">userver/formats/common</text>
<text text-anchor="middle" x="689" y="-194" font-family="Helvetica,sans-Serif" font-size="10.00">/meta.hpp</text>
</a>
</g>
</g>
<!-- Node13&#45;&gt;Node19 -->
<g id="edge22_Node000013_Node000019" class="edge">
<title>Node13&#45;&gt;Node19</title>
<g id="a_edge22_Node000013_Node000019"><a xlink:title=" ">
<path fill="none" stroke="#63b8ff" d="M650.87,-252.8C657.09,-244.68 665.02,-234.31 672.04,-225.15"/>
<polygon fill="#63b8ff" stroke="#63b8ff" points="674.86,-227.23 678.16,-217.16 669.3,-222.98 674.86,-227.23"/>
</a>
</g>
</g>
<!-- Node24 -->
<g id="Node000024" class="node">
<title>Node24</title>
<g id="a_Node000024"><a xlink:href="../../d6/def/log__extra_8hpp.html" target="_top" xlink:title="Extra tskv fields storage.">
<polygon fill="white" stroke="#666666" points="1531,-217 1421,-217 1421,-187 1531,-187 1531,-217"/>
<text text-anchor="start" x="1429" y="-205" font-family="Helvetica,sans-Serif" font-size="10.00">userver/logging/log</text>
<text text-anchor="middle" x="1476" y="-194" font-family="Helvetica,sans-Serif" font-size="10.00">_extra.hpp</text>
</a>
</g>
</g>
<!-- Node13&#45;&gt;Node24 -->
<g id="edge32_Node000013_Node000024" class="edge">
<title>Node13&#45;&gt;Node24</title>
<g id="a_edge32_Node000013_Node000024"><a xlink:title=" ">
<path fill="none" stroke="#63b8ff" d="M695.18,-262.78C843.6,-251.41 1250.93,-220.23 1410.58,-208.01"/>
<polygon fill="#63b8ff" stroke="#63b8ff" points="1411.03,-211.48 1420.73,-207.23 1410.49,-204.5 1411.03,-211.48"/>
</a>
</g>
</g>
<!-- Node31 -->
<g id="Node000031" class="node">
<title>Node31</title>
<g id="a_Node000031"><a xlink:href="../../df/dd4/source__location_8hpp_source.html" target="_top" xlink:title=" ">
<polygon fill="white" stroke="#666666" points="1028.5,-217 911.5,-217 911.5,-187 1028.5,-187 1028.5,-217"/>
<text text-anchor="start" x="919.5" y="-205" font-family="Helvetica,sans-Serif" font-size="10.00">userver/utils/impl</text>
<text text-anchor="middle" x="970" y="-194" font-family="Helvetica,sans-Serif" font-size="10.00">/source_location.hpp</text>
</a>
</g>
</g>
<!-- Node13&#45;&gt;Node31 -->
<g id="edge45_Node000013_Node000031" class="edge">
<title>Node13&#45;&gt;Node31</title>
<g id="a_edge45_Node000013_Node000031"><a xlink:title=" ">
<path fill="none" stroke="#63b8ff" d="M695.23,-256.29C751.9,-245.3 840.16,-228.18 901.3,-216.32"/>
<polygon fill="#63b8ff" stroke="#63b8ff" points="902.09,-219.74 911.24,-214.4 900.76,-212.86 902.09,-219.74"/>
</a>
</g>
</g>
<!-- Node32 -->
<g id="Node000032" class="node">
<title>Node32</title>
<g id="a_Node000032"><a xlink:href="../../d0/d03/universal_2include_2userver_2utils_2meta_8hpp.html" target="_top" xlink:title="Metaprogramming, template variables and concepts.">
<polygon fill="white" stroke="#666666" points="342.5,-211.5 215.5,-211.5 215.5,-192.5 342.5,-192.5 342.5,-211.5"/>
<text text-anchor="middle" x="279" y="-199.5" font-family="Helvetica,sans-Serif" font-size="10.00">userver/utils/meta.hpp</text>
</a>
</g>
</g>
<!-- Node13&#45;&gt;Node32 -->
<g id="edge50_Node000013_Node000032" class="edge">
<title>Node13&#45;&gt;Node32</title>
<g id="a_edge50_Node000013_Node000032"><a xlink:title=" ">
<path fill="none" stroke="#63b8ff" d="M584.81,-257.8C526.6,-248.02 432.26,-231.93 351,-217 344.84,-215.87 338.38,-214.65 331.97,-213.43"/>
<polygon fill="#63b8ff" stroke="#63b8ff" points="332.48,-209.96 321.99,-211.51 331.15,-216.84 332.48,-209.96"/>
</a>
</g>
</g>
<!-- Node19&#45;&gt;Node18 -->
<g id="edge23_Node000019_Node000018" class="edge">
<title>Node19&#45;&gt;Node18</title>
<g id="a_edge23_Node000019_Node000018"><a xlink:title=" ">
<path fill="none" stroke="#63b8ff" d="M634.31,-186.95C613.24,-179.25 590.35,-167.75 574,-151 541.83,-118.04 563.06,-91.52 535,-55 525.59,-42.76 511.99,-32.19 500.22,-24.43"/>
<polygon fill="#63b8ff" stroke="#63b8ff" points="502.01,-21.42 491.68,-19.06 498.28,-27.35 502.01,-21.42"/>
</a>
</g>
</g>
<!-- Node20 -->
<g id="Node000020" class="node">
<title>Node20</title>
<g id="a_Node000020"><a xlink:href="../../d2/dc8/universal_2include_2userver_2formats_2parse_2to_8hpp.html" target="_top" xlink:title="Helper for parsers.">
<polygon fill="white" stroke="#666666" points="708.5,-151 583.5,-151 583.5,-121 708.5,-121 708.5,-151"/>
<text text-anchor="start" x="591.5" y="-139" font-family="Helvetica,sans-Serif" font-size="10.00">userver/formats/parse</text>
<text text-anchor="middle" x="646" y="-128" font-family="Helvetica,sans-Serif" font-size="10.00">/to.hpp</text>
</a>
</g>
</g>
<!-- Node19&#45;&gt;Node20 -->
<g id="edge24_Node000019_Node000020" class="edge">
<title>Node19&#45;&gt;Node20</title>
<g id="a_edge24_Node000019_Node000020"><a xlink:title=" ">
<path fill="none" stroke="#63b8ff" d="M679.46,-186.8C674.11,-178.84 667.32,-168.74 661.26,-159.71"/>
<polygon fill="#63b8ff" stroke="#63b8ff" points="664,-157.51 655.52,-151.16 658.19,-161.42 664,-157.51"/>
</a>
</g>
</g>
<!-- Node21 -->
<g id="Node000021" class="node">
<title>Node21</title>
<g id="a_Node000021"><a xlink:href="../../d6/d8e/universal_2include_2userver_2formats_2serialize_2to_8hpp.html" target="_top" xlink:title="Helper for serializers.">
<polygon fill="white" stroke="#666666" points="865.5,-151 726.5,-151 726.5,-121 865.5,-121 865.5,-151"/>
<text text-anchor="start" x="734.5" y="-139" font-family="Helvetica,sans-Serif" font-size="10.00">userver/formats/serialize</text>
<text text-anchor="middle" x="796" y="-128" font-family="Helvetica,sans-Serif" font-size="10.00">/to.hpp</text>
</a>
</g>
</g>
<!-- Node19&#45;&gt;Node21 -->
<g id="edge25_Node000019_Node000021" class="edge">
<title>Node19&#45;&gt;Node21</title>
<g id="a_edge25_Node000019_Node000021"><a xlink:title=" ">
<path fill="none" stroke="#63b8ff" d="M712.48,-186.95C727.53,-177.95 747.27,-166.14 763.78,-156.27"/>
<polygon fill="#63b8ff" stroke="#63b8ff" points="765.79,-159.15 772.57,-151.01 762.19,-153.14 765.79,-159.15"/>
</a>
</g>
</g>
<!-- Node22 -->
<g id="Node000022" class="node">
<title>Node22</title>
<g id="a_Node000022"><a xlink:href="../../d3/da0/meta__light_8hpp.html" target="_top" xlink:title="Lightweight concepts.">
<polygon fill="white" stroke="#666666" points="453,-151 347,-151 347,-121 453,-121 453,-151"/>
<text text-anchor="start" x="355" y="-139" font-family="Helvetica,sans-Serif" font-size="10.00">userver/utils/meta</text>
<text text-anchor="middle" x="400" y="-128" font-family="Helvetica,sans-Serif" font-size="10.00">_light.hpp</text>
</a>
</g>
</g>
<!-- Node19&#45;&gt;Node22 -->
<g id="edge26_Node000019_Node000022" class="edge">
<title>Node19&#45;&gt;Node22</title>
<g id="a_edge26_Node000019_Node000022"><a xlink:title=" ">
<path fill="none" stroke="#63b8ff" d="M624.89,-186.97C581.81,-177.53 523.49,-164.69 463.18,-151.26"/>
<polygon fill="#63b8ff" stroke="#63b8ff" points="463.62,-147.77 453.1,-149.01 462.09,-154.6 463.62,-147.77"/>
</a>
</g>
</g>
<!-- Node22&#45;&gt;Node18 -->
<g id="edge27_Node000022_Node000018" class="edge">
<title>Node22&#45;&gt;Node18</title>
<g id="a_edge27_Node000022_Node000018"><a xlink:title=" ">
<path fill="none" stroke="#63b8ff" d="M399.84,-120.87C400.28,-103.94 403.11,-75.34 416,-55 424.13,-42.17 437.39,-31.76 449.37,-24.25"/>
<polygon fill="#63b8ff" stroke="#63b8ff" points="451.33,-27.16 458.18,-19.08 447.79,-21.12 451.33,-27.16"/>
</a>
</g>
</g>
<!-- Node23 -->
<g id="Node000023" class="node">
<title>Node23</title>
<g id="a_Node000023"><a xlink:href="../../d9/dce/void__t_8hpp.html" target="_top" xlink:title="std::void_t implementation with workarounds for compiler bugs">
<polygon fill="white" stroke="#666666" points="526.5,-85 425.5,-85 425.5,-55 526.5,-55 526.5,-85"/>
<text text-anchor="start" x="433.5" y="-73" font-family="Helvetica,sans-Serif" font-size="10.00">userver/utils/void</text>
<text text-anchor="middle" x="476" y="-62" font-family="Helvetica,sans-Serif" font-size="10.00">_t.hpp</text>
</a>
</g>
</g>
<!-- Node22&#45;&gt;Node23 -->
<g id="edge28_Node000022_Node000023" class="edge">
<title>Node22&#45;&gt;Node23</title>
<g id="a_edge28_Node000022_Node000023"><a xlink:title=" ">
<path fill="none" stroke="#63b8ff" d="M416.87,-120.8C427,-112.26 440.08,-101.25 451.35,-91.75"/>
<polygon fill="#63b8ff" stroke="#63b8ff" points="453.79,-94.28 459.18,-85.16 449.28,-88.93 453.79,-94.28"/>
</a>
</g>
</g>
<!-- Node23&#45;&gt;Node18 -->
<g id="edge29_Node000023_Node000018" class="edge">
<title>Node23&#45;&gt;Node18</title>
<g id="a_edge29_Node000023_Node000018"><a xlink:title=" ">
<path fill="none" stroke="#63b8ff" d="M476,-54.84C476,-47.21 476,-37.7 476,-29.45"/>
<polygon fill="#63b8ff" stroke="#63b8ff" points="479.5,-29.27 476,-19.27 472.5,-29.27 479.5,-29.27"/>
</a>
</g>
</g>
<!-- Node24&#45;&gt;Node3 -->
<g id="edge38_Node000024_Node000003" class="edge">
<title>Node24&#45;&gt;Node3</title>
<g id="a_edge38_Node000024_Node000003"><a xlink:title=" ">
<path fill="none" stroke="#63b8ff" d="M1531.33,-190.65C1594.94,-178.74 1698.77,-159.31 1762.47,-147.39"/>
<polygon fill="#63b8ff" stroke="#63b8ff" points="1763.15,-150.83 1772.33,-145.55 1761.86,-143.95 1763.15,-150.83"/>
</a>
</g>
</g>
<!-- Node24&#45;&gt;Node5 -->
<g id="edge39_Node000024_Node000005" class="edge">
<title>Node24&#45;&gt;Node5</title>
<g id="a_edge39_Node000024_Node000005"><a xlink:title=" ">
<path fill="none" stroke="#63b8ff" d="M1531.05,-194.76C1638.1,-182.59 1867.02,-156.41 1903,-151 1910.21,-149.92 1917.77,-148.66 1925.23,-147.36"/>
<polygon fill="#63b8ff" stroke="#63b8ff" points="1926.05,-150.77 1935.28,-145.56 1924.82,-143.88 1926.05,-150.77"/>
</a>
</g>
</g>
<!-- Node24&#45;&gt;Node10 -->
<g id="edge34_Node000024_Node000010" class="edge">
<title>Node24&#45;&gt;Node10</title>
<g id="a_edge34_Node000024_Node000010"><a xlink:title=" ">
<path fill="none" stroke="#63b8ff" d="M1420.53,-192.25C1373.61,-184.05 1304.95,-170.18 1247,-151 1245.56,-150.52 1244.1,-150 1242.64,-149.45"/>
<polygon fill="#63b8ff" stroke="#63b8ff" points="1243.7,-146.1 1233.12,-145.5 1241.02,-152.57 1243.7,-146.1"/>
</a>
</g>
</g>
<!-- Node25 -->
<g id="Node000025" class="node">
<title>Node25</title>
<g id="a_Node000025"><a xlink:title=" ">
<polygon fill="#e0e0e0" stroke="#999999" points="1339.5,-145.5 1256.5,-145.5 1256.5,-126.5 1339.5,-126.5 1339.5,-145.5"/>
<text text-anchor="middle" x="1298" y="-133.5" font-family="Helvetica,sans-Serif" font-size="10.00">initializer_list</text>
</a>
</g>
</g>
<!-- Node24&#45;&gt;Node25 -->
<g id="edge33_Node000024_Node000025" class="edge">
<title>Node24&#45;&gt;Node25</title>
<g id="a_edge33_Node000024_Node000025"><a xlink:title=" ">
<path fill="none" stroke="#63b8ff" d="M1436.94,-186.95C1405.31,-175.58 1361.24,-159.74 1331.27,-148.96"/>
<polygon fill="#63b8ff" stroke="#63b8ff" points="1332.28,-145.61 1321.69,-145.52 1329.91,-152.19 1332.28,-145.61"/>
</a>
</g>
</g>
<!-- Node26 -->
<g id="Node000026" class="node">
<title>Node26</title>
<g id="a_Node000026"><a xlink:title=" ">
<polygon fill="#e0e0e0" stroke="#999999" points="1567.5,-79.5 1522.5,-79.5 1522.5,-60.5 1567.5,-60.5 1567.5,-79.5"/>
<text text-anchor="middle" x="1545" y="-67.5" font-family="Helvetica,sans-Serif" font-size="10.00">utility</text>
</a>
</g>
</g>
<!-- Node24&#45;&gt;Node26 -->
<g id="edge35_Node000024_Node000026" class="edge">
<title>Node24&#45;&gt;Node26</title>
<g id="a_edge35_Node000024_Node000026"><a xlink:title=" ">
<path fill="none" stroke="#63b8ff" d="M1499.49,-186.8C1511.82,-178.06 1526,-165.72 1534,-151 1544.34,-131.99 1546.21,-106.81 1546.06,-89.82"/>
<polygon fill="#63b8ff" stroke="#63b8ff" points="1549.55,-89.42 1545.72,-79.54 1542.56,-89.66 1549.55,-89.42"/>
</a>
</g>
</g>
<!-- Node27 -->
<g id="Node000027" class="node">
<title>Node27</title>
<g id="a_Node000027"><a xlink:title=" ">
<polygon fill="#e0e0e0" stroke="#999999" points="1408.5,-145.5 1357.5,-145.5 1357.5,-126.5 1408.5,-126.5 1408.5,-145.5"/>
<text text-anchor="middle" x="1383" y="-133.5" font-family="Helvetica,sans-Serif" font-size="10.00">variant</text>
</a>
</g>
</g>
<!-- Node24&#45;&gt;Node27 -->
<g id="edge36_Node000024_Node000027" class="edge">
<title>Node24&#45;&gt;Node27</title>
<g id="a_edge36_Node000024_Node000027"><a xlink:title=" ">
<path fill="none" stroke="#63b8ff" d="M1455.36,-186.8C1440.06,-176.27 1419.29,-161.97 1403.92,-151.4"/>
<polygon fill="#63b8ff" stroke="#63b8ff" points="1405.8,-148.44 1395.58,-145.66 1401.84,-154.21 1405.8,-148.44"/>
</a>
</g>
</g>
<!-- Node28 -->
<g id="Node000028" class="node">
<title>Node28</title>
<g id="a_Node000028"><a xlink:title=" ">
<polygon fill="#e0e0e0" stroke="#999999" points="1723.5,-151 1582.5,-151 1582.5,-121 1723.5,-121 1723.5,-151"/>
<text text-anchor="start" x="1590.5" y="-139" font-family="Helvetica,sans-Serif" font-size="10.00">boost/container/container</text>
<text text-anchor="middle" x="1653" y="-128" font-family="Helvetica,sans-Serif" font-size="10.00">_fwd.hpp</text>
</a>
</g>
</g>
<!-- Node24&#45;&gt;Node28 -->
<g id="edge37_Node000024_Node000028" class="edge">
<title>Node24&#45;&gt;Node28</title>
<g id="a_edge37_Node000024_Node000028"><a xlink:title=" ">
<path fill="none" stroke="#63b8ff" d="M1514.84,-186.95C1541.24,-177.41 1576.36,-164.71 1604.58,-154.51"/>
<polygon fill="#63b8ff" stroke="#63b8ff" points="1606.03,-157.7 1614.25,-151.01 1603.65,-151.12 1606.03,-157.7"/>
</a>
</g>
</g>
<!-- Node29 -->
<g id="Node000029" class="node">
<title>Node29</title>
<g id="a_Node000029"><a xlink:href="../../d5/d02/fast__pimpl_8hpp.html" target="_top" xlink:title="Implements pimpl idiom without dynamic memory allocation.">
<polygon fill="white" stroke="#666666" points="1525.5,-151 1426.5,-151 1426.5,-121 1525.5,-121 1525.5,-151"/>
<text text-anchor="start" x="1434.5" y="-139" font-family="Helvetica,sans-Serif" font-size="10.00">userver/utils/fast</text>
<text text-anchor="middle" x="1476" y="-128" font-family="Helvetica,sans-Serif" font-size="10.00">_pimpl.hpp</text>
</a>
</g>
</g>
<!-- Node24&#45;&gt;Node29 -->
<g id="edge40_Node000024_Node000029" class="edge">
<title>Node24&#45;&gt;Node29</title>
<g id="a_edge40_Node000024_Node000029"><a xlink:title=" ">
<path fill="none" stroke="#63b8ff" d="M1476,-186.8C1476,-179.34 1476,-169.99 1476,-161.41"/>
<polygon fill="#63b8ff" stroke="#63b8ff" points="1479.5,-161.16 1476,-151.16 1472.5,-161.16 1479.5,-161.16"/>
</a>
</g>
</g>
<!-- Node29&#45;&gt;Node4 -->
<g id="edge41_Node000029_Node000004" class="edge">
<title>Node29&#45;&gt;Node4</title>
<g id="a_edge41_Node000029_Node000004"><a xlink:title=" ">
<path fill="none" stroke="#63b8ff" d="M1525.52,-121.74C1571.15,-109.52 1637.79,-91.67 1678.67,-80.73"/>
<polygon fill="#63b8ff" stroke="#63b8ff" points="1679.73,-84.07 1688.48,-78.1 1677.92,-77.31 1679.73,-84.07"/>
</a>
</g>
</g>
<!-- Node29&#45;&gt;Node18 -->
<g id="edge43_Node000029_Node000018" class="edge">
<title>Node29&#45;&gt;Node18</title>
<g id="a_edge43_Node000029_Node000018"><a xlink:title=" ">
<path fill="none" stroke="#63b8ff" d="M1426.47,-123.02C1423.27,-122.32 1420.09,-121.64 1417,-121 1251.27,-86.78 1209.88,-76.32 1042,-55 848.79,-30.46 616.64,-17.29 520.77,-12.56"/>
<polygon fill="#63b8ff" stroke="#63b8ff" points="520.73,-9.05 510.57,-12.06 520.39,-16.05 520.73,-9.05"/>
</a>
</g>
</g>
<!-- Node29&#45;&gt;Node26 -->
<g id="edge44_Node000029_Node000026" class="edge">
<title>Node29&#45;&gt;Node26</title>
<g id="a_edge44_Node000029_Node000026"><a xlink:title=" ">
<path fill="none" stroke="#63b8ff" d="M1491.31,-120.8C1502.18,-110.72 1516.76,-97.19 1527.99,-86.78"/>
<polygon fill="#63b8ff" stroke="#63b8ff" points="1530.51,-89.21 1535.46,-79.84 1525.75,-84.08 1530.51,-89.21"/>
</a>
</g>
</g>
<!-- Node30 -->
<g id="Node000030" class="node">
<title>Node30</title>
<g id="a_Node000030"><a xlink:title=" ">
<polygon fill="#e0e0e0" stroke="#999999" points="1494.5,-79.5 1457.5,-79.5 1457.5,-60.5 1494.5,-60.5 1494.5,-79.5"/>
<text text-anchor="middle" x="1476" y="-67.5" font-family="Helvetica,sans-Serif" font-size="10.00">new</text>
</a>
</g>
</g>
<!-- Node29&#45;&gt;Node30 -->
<g id="edge42_Node000029_Node000030" class="edge">
<title>Node29&#45;&gt;Node30</title>
<g id="a_edge42_Node000029_Node000030"><a xlink:title=" ">
<path fill="none" stroke="#63b8ff" d="M1476,-120.8C1476,-111.7 1476,-99.79 1476,-89.9"/>
<polygon fill="#63b8ff" stroke="#63b8ff" points="1479.5,-89.84 1476,-79.84 1472.5,-89.84 1479.5,-89.84"/>
</a>
</g>
</g>
<!-- Node31&#45;&gt;Node8 -->
<g id="edge46_Node000031_Node000008" class="edge">
<title>Node31&#45;&gt;Node8</title>
<g id="a_edge46_Node000031_Node000008"><a xlink:title=" ">
<path fill="none" stroke="#63b8ff" d="M1013.67,-186.94C1043.05,-177.29 1082.55,-163.94 1117,-151 1118.42,-150.47 1119.87,-149.91 1121.33,-149.34"/>
<polygon fill="#63b8ff" stroke="#63b8ff" points="1122.96,-152.46 1130.95,-145.5 1120.36,-145.96 1122.96,-152.46"/>
</a>
</g>
</g>
<!-- Node31&#45;&gt;Node11 -->
<g id="edge49_Node000031_Node000011" class="edge">
<title>Node31&#45;&gt;Node11</title>
<g id="a_edge49_Node000031_Node000011"><a xlink:title=" ">
<path fill="none" stroke="#63b8ff" d="M988.42,-186.8C999.6,-178.18 1014.05,-167.04 1026.44,-157.48"/>
<polygon fill="#63b8ff" stroke="#63b8ff" points="1028.85,-160.04 1034.63,-151.16 1024.57,-154.5 1028.85,-160.04"/>
</a>
</g>
</g>
<!-- Node31&#45;&gt;Node12 -->
<g id="edge47_Node000031_Node000012" class="edge">
<title>Node31&#45;&gt;Node12</title>
<g id="a_edge47_Node000031_Node000012"><a xlink:title=" ">
<path fill="none" stroke="#63b8ff" d="M972.94,-186.84C977.84,-163.23 987.69,-115.83 993.14,-89.58"/>
<polygon fill="#63b8ff" stroke="#63b8ff" points="996.58,-90.25 995.18,-79.75 989.72,-88.83 996.58,-90.25"/>
</a>
</g>
</g>
<!-- Node31&#45;&gt;Node18 -->
<g id="edge48_Node000031_Node000018" class="edge">
<title>Node31&#45;&gt;Node18</title>
<g id="a_edge48_Node000031_Node000018"><a xlink:title=" ">
<path fill="none" stroke="#63b8ff" d="M956.75,-186.72C939.4,-168.83 907.24,-138.42 874,-121 754.95,-58.6 596.88,-28.34 520.74,-16.61"/>
<polygon fill="#63b8ff" stroke="#63b8ff" points="520.96,-13.1 510.55,-15.07 519.92,-20.02 520.96,-13.1"/>
</a>
</g>
</g>
<!-- Node32&#45;&gt;Node9 -->
<g id="edge53_Node000032_Node000009" class="edge">
<title>Node32&#45;&gt;Node9</title>
<g id="a_edge53_Node000032_Node000009"><a xlink:title=" ">
<path fill="none" stroke="#63b8ff" d="M314.03,-192.48C351.08,-183.23 411.1,-167.54 462,-151 463.86,-150.4 465.77,-149.75 467.68,-149.08"/>
<polygon fill="#63b8ff" stroke="#63b8ff" points="469,-152.33 477.21,-145.64 466.62,-145.75 469,-152.33"/>
</a>
</g>
</g>
<!-- Node32&#45;&gt;Node15 -->
<g id="edge51_Node000032_Node000015" class="edge">
<title>Node32&#45;&gt;Node15</title>
<g id="a_edge51_Node000032_Node000015"><a xlink:title=" ">
<path fill="none" stroke="#63b8ff" d="M282.51,-192.37C286.32,-182.97 292.54,-167.67 297.47,-155.53"/>
<polygon fill="#63b8ff" stroke="#63b8ff" points="300.86,-156.49 301.38,-145.91 294.38,-153.85 300.86,-156.49"/>
</a>
</g>
</g>
<!-- Node32&#45;&gt;Node16 -->
<g id="edge52_Node000032_Node000016" class="edge">
<title>Node32&#45;&gt;Node16</title>
<g id="a_edge52_Node000032_Node000016"><a xlink:title=" ">
<path fill="none" stroke="#63b8ff" d="M259.31,-192.37C234.27,-181.39 190.85,-162.36 162.02,-149.72"/>
<polygon fill="#63b8ff" stroke="#63b8ff" points="163.41,-146.51 152.84,-145.7 160.6,-152.92 163.41,-146.51"/>
</a>
</g>
</g>
<!-- Node32&#45;&gt;Node18 -->
<g id="edge54_Node000032_Node000018" class="edge">
<title>Node32&#45;&gt;Node18</title>
<g id="a_edge54_Node000032_Node000018"><a xlink:title=" ">
<path fill="none" stroke="#63b8ff" d="M275.14,-192.33C268.87,-176.8 258.44,-143.76 272,-121 306.42,-63.21 382.74,-33.8 431.65,-20.33"/>
<polygon fill="#63b8ff" stroke="#63b8ff" points="432.57,-23.7 441.35,-17.77 430.78,-16.94 432.57,-23.7"/>
</a>
</g>
</g>
<!-- Node32&#45;&gt;Node22 -->
<g id="edge56_Node000032_Node000022" class="edge">
<title>Node32&#45;&gt;Node22</title>
<g id="a_edge56_Node000032_Node000022"><a xlink:title=" ">
<path fill="none" stroke="#63b8ff" d="M295.32,-192.37C312.89,-183.07 341.41,-167.99 364.24,-155.91"/>
<polygon fill="#63b8ff" stroke="#63b8ff" points="366.11,-158.89 373.31,-151.12 362.84,-152.7 366.11,-158.89"/>
</a>
</g>
</g>
<!-- Node33 -->
<g id="Node000033" class="node">
<title>Node33</title>
<g id="a_Node000033"><a xlink:title=" ">
<polygon fill="#e0e0e0" stroke="#999999" points="224.5,-145.5 177.5,-145.5 177.5,-126.5 224.5,-126.5 224.5,-145.5"/>
<text text-anchor="middle" x="201" y="-133.5" font-family="Helvetica,sans-Serif" font-size="10.00">vector</text>
</a>
</g>
</g>
<!-- Node32&#45;&gt;Node33 -->
<g id="edge55_Node000032_Node000033" class="edge">
<title>Node32&#45;&gt;Node33</title>
<g id="a_edge55_Node000032_Node000033"><a xlink:title=" ">
<path fill="none" stroke="#63b8ff" d="M268.48,-192.37C255.92,-182.06 234.69,-164.65 219.4,-152.09"/>
<polygon fill="#63b8ff" stroke="#63b8ff" points="221.55,-149.34 211.6,-145.7 217.11,-154.75 221.55,-149.34"/>
</a>
</g>
</g>
</g>
</svg>
