<?xml version="1.0" encoding="UTF-8" standalone="no"?>
<!DOCTYPE svg PUBLIC "-//W3C//DTD SVG 1.1//EN"
 "http://www.w3.org/Graphics/SVG/1.1/DTD/svg11.dtd">
<!-- Generated by graphviz version 2.43.0 (0)
 -->
<!-- Title: userver/utils/span.hpp Pages: 1 -->
<svg width="1615pt" height="709pt"
 viewBox="0.00 0.00 1614.50 709.00" xmlns="http://www.w3.org/2000/svg" xmlns:xlink="http://www.w3.org/1999/xlink">
<g id="graph0" class="graph" transform="scale(1 1) rotate(0) translate(4 705)">
<title>userver/utils/span.hpp</title>
<!-- Node1 -->
<g id="Node000001" class="node">
<title>Node1</title>
<g id="a_Node000001"><a xlink:title=" ">
<polygon fill="#999999" stroke="#666666" points="732,-701 607,-701 607,-682 732,-682 732,-701"/>
<text text-anchor="middle" x="669.5" y="-689" font-family="Helvetica,sans-Serif" font-size="10.00">userver/utils/span.hpp</text>
</a>
</g>
</g>
<!-- Node2 -->
<g id="Node000002" class="node">
<title>Node2</title>
<g id="a_Node000002"><a xlink:href="../../d1/df2/random_8hpp.html" target="_top" xlink:title="Cryptographically&#45;secure randomness.">
<polygon fill="white" stroke="#666666" points="149,-640.5 0,-640.5 0,-621.5 149,-621.5 149,-640.5"/>
<text text-anchor="middle" x="74.5" y="-628.5" font-family="Helvetica,sans-Serif" font-size="10.00">userver/crypto/random.hpp</text>
</a>
</g>
</g>
<!-- Node1&#45;&gt;Node2 -->
<g id="edge1_Node000001_Node000002" class="edge">
<title>Node1&#45;&gt;Node2</title>
<g id="a_edge1_Node000001_Node000002"><a xlink:title=" ">
<path fill="none" stroke="#63b8ff" d="M596.42,-686C496.9,-679.46 313.29,-665.88 157.5,-646 145.61,-644.48 132.83,-642.5 120.93,-640.51"/>
<polygon fill="#63b8ff" stroke="#63b8ff" points="596.46,-689.51 606.67,-686.67 596.92,-682.53 596.46,-689.51"/>
</a>
</g>
</g>
<!-- Node3 -->
<g id="Node000003" class="node">
<title>Node3</title>
<g id="a_Node000003"><a xlink:href="../../db/d30/wait__all__checked_8hpp.html" target="_top" xlink:title="Provides engine::WaitAllChecked.">
<polygon fill="white" stroke="#666666" points="280,-646 167,-646 167,-616 280,-616 280,-646"/>
<text text-anchor="start" x="175" y="-634" font-family="Helvetica,sans-Serif" font-size="10.00">userver/engine/wait</text>
<text text-anchor="middle" x="223.5" y="-623" font-family="Helvetica,sans-Serif" font-size="10.00">_all_checked.hpp</text>
</a>
</g>
</g>
<!-- Node1&#45;&gt;Node3 -->
<g id="edge2_Node000001_Node000003" class="edge">
<title>Node1&#45;&gt;Node3</title>
<g id="a_edge2_Node000001_Node000003"><a xlink:title=" ">
<path fill="none" stroke="#63b8ff" d="M596.82,-684.1C519.93,-676.85 395.23,-663.69 288.5,-646 285.77,-645.55 282.97,-645.06 280.16,-644.54"/>
<polygon fill="#63b8ff" stroke="#63b8ff" points="596.59,-687.6 606.88,-685.04 597.25,-680.63 596.59,-687.6"/>
</a>
</g>
</g>
<!-- Node7 -->
<g id="Node000007" class="node">
<title>Node7</title>
<g id="a_Node000007"><a xlink:href="../../d2/d1c/wait__any_8hpp.html" target="_top" xlink:title="Provides engine::WaitAny, engine::WaitAnyFor and engine::WaitAnyUntil.">
<polygon fill="white" stroke="#666666" points="411,-646 298,-646 298,-616 411,-616 411,-646"/>
<text text-anchor="start" x="306" y="-634" font-family="Helvetica,sans-Serif" font-size="10.00">userver/engine/wait</text>
<text text-anchor="middle" x="354.5" y="-623" font-family="Helvetica,sans-Serif" font-size="10.00">_any.hpp</text>
</a>
</g>
</g>
<!-- Node1&#45;&gt;Node7 -->
<g id="edge6_Node000001_Node000007" class="edge">
<title>Node1&#45;&gt;Node7</title>
<g id="a_edge6_Node000001_Node000007"><a xlink:title=" ">
<path fill="none" stroke="#63b8ff" d="M608.51,-680.28C557.82,-671.63 483.85,-658.65 419.5,-646 416.78,-645.47 414,-644.91 411.2,-644.34"/>
<polygon fill="#63b8ff" stroke="#63b8ff" points="608.2,-683.77 618.65,-682 609.37,-676.87 608.2,-683.77"/>
</a>
</g>
</g>
<!-- Node10 -->
<g id="Node000010" class="node">
<title>Node10</title>
<g id="a_Node000010"><a xlink:href="../../db/d4a/kafka_2include_2userver_2kafka_2message_8hpp_source.html" target="_top" xlink:title=" ">
<polygon fill="white" stroke="#666666" points="580,-640.5 429,-640.5 429,-621.5 580,-621.5 580,-640.5"/>
<text text-anchor="middle" x="504.5" y="-628.5" font-family="Helvetica,sans-Serif" font-size="10.00">userver/kafka/message.hpp</text>
</a>
</g>
</g>
<!-- Node1&#45;&gt;Node10 -->
<g id="edge9_Node000001_Node000010" class="edge">
<title>Node1&#45;&gt;Node10</title>
<g id="a_edge9_Node000001_Node000010"><a xlink:title=" ">
<path fill="none" stroke="#63b8ff" d="M635.72,-678.52C603.82,-667.21 556.76,-650.53 528.52,-640.52"/>
<polygon fill="#63b8ff" stroke="#63b8ff" points="634.91,-681.95 645.51,-681.99 637.25,-675.35 634.91,-681.95"/>
</a>
</g>
</g>
<!-- Node13 -->
<g id="Node000013" class="node">
<title>Node13</title>
<g id="a_Node000013"><a xlink:href="../../de/d4e/core_2include_2userver_2server_2websocket_2server_8hpp.html" target="_top" xlink:title=" ">
<polygon fill="white" stroke="#666666" points="740.5,-646 598.5,-646 598.5,-616 740.5,-616 740.5,-646"/>
<text text-anchor="start" x="606.5" y="-634" font-family="Helvetica,sans-Serif" font-size="10.00">userver/server/websocket</text>
<text text-anchor="middle" x="669.5" y="-623" font-family="Helvetica,sans-Serif" font-size="10.00">/server.hpp</text>
</a>
</g>
</g>
<!-- Node1&#45;&gt;Node13 -->
<g id="edge12_Node000001_Node000013" class="edge">
<title>Node1&#45;&gt;Node13</title>
<g id="a_edge12_Node000001_Node000013"><a xlink:title=" ">
<path fill="none" stroke="#63b8ff" d="M669.5,-671.65C669.5,-663.36 669.5,-653.78 669.5,-646.11"/>
<polygon fill="#63b8ff" stroke="#63b8ff" points="666,-671.87 669.5,-681.87 673,-671.87 666,-671.87"/>
</a>
</g>
</g>
<!-- Node15 -->
<g id="Node000015" class="node">
<title>Node15</title>
<g id="a_Node000015"><a xlink:href="../../d1/d14/static__metadata_8hpp_source.html" target="_top" xlink:title=" ">
<polygon fill="white" stroke="#666666" points="878.5,-646 758.5,-646 758.5,-616 878.5,-616 878.5,-646"/>
<text text-anchor="start" x="766.5" y="-634" font-family="Helvetica,sans-Serif" font-size="10.00">userver/ugrpc/impl</text>
<text text-anchor="middle" x="818.5" y="-623" font-family="Helvetica,sans-Serif" font-size="10.00">/static_metadata.hpp</text>
</a>
</g>
</g>
<!-- Node1&#45;&gt;Node15 -->
<g id="edge14_Node000001_Node000015" class="edge">
<title>Node1&#45;&gt;Node15</title>
<g id="a_edge14_Node000001_Node000015"><a xlink:title=" ">
<path fill="none" stroke="#63b8ff" d="M700.49,-678.33C724.43,-668.93 757.6,-655.91 782.68,-646.06"/>
<polygon fill="#63b8ff" stroke="#63b8ff" points="699.2,-675.08 691.17,-681.99 701.75,-681.6 699.2,-675.08"/>
</a>
</g>
</g>
<!-- Node39 -->
<g id="Node000039" class="node">
<title>Node39</title>
<g id="a_Node000039"><a xlink:href="../../d5/d6e/histogram_8hpp.html" target="_top" xlink:title="A histogram with a dynamically&#45;allocated array of buckets.">
<polygon fill="white" stroke="#666666" points="1022,-646 897,-646 897,-616 1022,-616 1022,-646"/>
<text text-anchor="start" x="905" y="-634" font-family="Helvetica,sans-Serif" font-size="10.00">userver/utils/statistics</text>
<text text-anchor="middle" x="959.5" y="-623" font-family="Helvetica,sans-Serif" font-size="10.00">/histogram.hpp</text>
</a>
</g>
</g>
<!-- Node1&#45;&gt;Node39 -->
<g id="edge53_Node000001_Node000039" class="edge">
<title>Node1&#45;&gt;Node39</title>
<g id="a_edge53_Node000001_Node000039"><a xlink:title=" ">
<path fill="none" stroke="#63b8ff" d="M721.78,-679.95C770.96,-670.03 844.67,-655.16 896.95,-644.62"/>
<polygon fill="#63b8ff" stroke="#63b8ff" points="720.78,-676.59 711.67,-681.99 722.16,-683.45 720.78,-676.59"/>
</a>
</g>
</g>
<!-- Node40 -->
<g id="Node000040" class="node">
<title>Node40</title>
<g id="a_Node000040"><a xlink:href="../../d4/d6f/histogram__aggregator_8hpp.html" target="_top" xlink:title="Used to aggregate multiple utils::statistics::Histogram metrics.">
<polygon fill="white" stroke="#666666" points="1188.5,-646 1040.5,-646 1040.5,-616 1188.5,-616 1188.5,-646"/>
<text text-anchor="start" x="1048.5" y="-634" font-family="Helvetica,sans-Serif" font-size="10.00">userver/utils/statistics</text>
<text text-anchor="middle" x="1114.5" y="-623" font-family="Helvetica,sans-Serif" font-size="10.00">/histogram_aggregator.hpp</text>
</a>
</g>
</g>
<!-- Node1&#45;&gt;Node40 -->
<g id="edge54_Node000001_Node000040" class="edge">
<title>Node1&#45;&gt;Node40</title>
<g id="a_edge54_Node000001_Node000040"><a xlink:title=" ">
<path fill="none" stroke="#63b8ff" d="M742.11,-682.54C815.29,-674.29 931.41,-660.59 1031.5,-646 1034.39,-645.58 1037.34,-645.14 1040.31,-644.68"/>
<polygon fill="#63b8ff" stroke="#63b8ff" points="741.62,-679.08 732.07,-683.67 742.4,-686.03 741.62,-679.08"/>
</a>
</g>
</g>
<!-- Node41 -->
<g id="Node000041" class="node">
<title>Node41</title>
<g id="a_Node000041"><a xlink:href="../../dd/de6/histogram__bucket_8hpp_source.html" target="_top" xlink:title=" ">
<polygon fill="white" stroke="#666666" points="1358.5,-646 1206.5,-646 1206.5,-616 1358.5,-616 1358.5,-646"/>
<text text-anchor="start" x="1214.5" y="-634" font-family="Helvetica,sans-Serif" font-size="10.00">userver/utils/statistics</text>
<text text-anchor="middle" x="1282.5" y="-623" font-family="Helvetica,sans-Serif" font-size="10.00">/impl/histogram_bucket.hpp</text>
</a>
</g>
</g>
<!-- Node1&#45;&gt;Node41 -->
<g id="edge55_Node000001_Node000041" class="edge">
<title>Node1&#45;&gt;Node41</title>
<g id="a_edge55_Node000001_Node000041"><a xlink:title=" ">
<path fill="none" stroke="#63b8ff" d="M742.44,-686.18C844.49,-679.73 1035.55,-666.13 1197.5,-646 1200.32,-645.65 1203.19,-645.27 1206.09,-644.88"/>
<polygon fill="#63b8ff" stroke="#63b8ff" points="742.01,-682.7 732.25,-686.82 742.45,-689.69 742.01,-682.7"/>
</a>
</g>
</g>
<!-- Node4 -->
<g id="Node000004" class="node">
<title>Node4</title>
<g id="a_Node000004"><a xlink:href="../../db/d71/get__all_8hpp.html" target="_top" xlink:title="Provides engine::GetAll.">
<polygon fill="white" stroke="#666666" points="265.5,-580 157.5,-580 157.5,-550 265.5,-550 265.5,-580"/>
<text text-anchor="start" x="165.5" y="-568" font-family="Helvetica,sans-Serif" font-size="10.00">userver/engine/get</text>
<text text-anchor="middle" x="211.5" y="-557" font-family="Helvetica,sans-Serif" font-size="10.00">_all.hpp</text>
</a>
</g>
</g>
<!-- Node3&#45;&gt;Node4 -->
<g id="edge3_Node000003_Node000004" class="edge">
<title>Node3&#45;&gt;Node4</title>
<g id="a_edge3_Node000003_Node000004"><a xlink:title=" ">
<path fill="none" stroke="#63b8ff" d="M218.97,-605.83C217.34,-597.17 215.57,-587.7 214.16,-580.16"/>
<polygon fill="#63b8ff" stroke="#63b8ff" points="215.55,-606.61 220.84,-615.8 222.43,-605.32 215.55,-606.61"/>
</a>
</g>
</g>
<!-- Node5 -->
<g id="Node000005" class="node">
<title>Node5</title>
<g id="a_Node000005"><a xlink:href="../../d4/d5f/connection__pool__base_8hpp.html" target="_top" xlink:title="Base connection pool implementation to be derived in different drivers. Takes care of synchronization...">
<polygon fill="white" stroke="#666666" points="274,-514 125,-514 125,-484 274,-484 274,-514"/>
<text text-anchor="start" x="133" y="-502" font-family="Helvetica,sans-Serif" font-size="10.00">userver/drivers/impl</text>
<text text-anchor="middle" x="199.5" y="-491" font-family="Helvetica,sans-Serif" font-size="10.00">/connection_pool_base.hpp</text>
</a>
</g>
</g>
<!-- Node4&#45;&gt;Node5 -->
<g id="edge4_Node000004_Node000005" class="edge">
<title>Node4&#45;&gt;Node5</title>
<g id="a_edge4_Node000004_Node000005"><a xlink:title=" ">
<path fill="none" stroke="#63b8ff" d="M206.97,-539.83C205.34,-531.17 203.57,-521.7 202.16,-514.16"/>
<polygon fill="#63b8ff" stroke="#63b8ff" points="203.55,-540.61 208.84,-549.8 210.43,-539.32 203.55,-540.61"/>
</a>
</g>
</g>
<!-- Node6 -->
<g id="Node000006" class="node">
<title>Node6</title>
<g id="a_Node000006"><a xlink:href="../../d3/dd3/drivers_8hpp.html" target="_top" xlink:title=" ">
<polygon fill="white" stroke="#666666" points="273.5,-442.5 125.5,-442.5 125.5,-423.5 273.5,-423.5 273.5,-442.5"/>
<text text-anchor="middle" x="199.5" y="-430.5" font-family="Helvetica,sans-Serif" font-size="10.00">userver/drivers/drivers.hpp</text>
</a>
</g>
</g>
<!-- Node5&#45;&gt;Node6 -->
<g id="edge5_Node000005_Node000006" class="edge">
<title>Node5&#45;&gt;Node6</title>
<g id="a_edge5_Node000005_Node000006"><a xlink:title=" ">
<path fill="none" stroke="#63b8ff" d="M199.5,-473.6C199.5,-462.8 199.5,-450.78 199.5,-442.84"/>
<polygon fill="#63b8ff" stroke="#63b8ff" points="196,-473.8 199.5,-483.8 203,-473.8 196,-473.8"/>
</a>
</g>
</g>
<!-- Node8 -->
<g id="Node000008" class="node">
<title>Node8</title>
<g id="a_Node000008"><a xlink:href="../../d7/daa/core_2include_2userver_2utils_2hedged__request_8hpp.html" target="_top" xlink:title="Classes and functions for performing hedged requests.">
<polygon fill="white" stroke="#666666" points="412.5,-580 296.5,-580 296.5,-550 412.5,-550 412.5,-580"/>
<text text-anchor="start" x="304.5" y="-568" font-family="Helvetica,sans-Serif" font-size="10.00">userver/utils/hedged</text>
<text text-anchor="middle" x="354.5" y="-557" font-family="Helvetica,sans-Serif" font-size="10.00">_request.hpp</text>
</a>
</g>
</g>
<!-- Node7&#45;&gt;Node8 -->
<g id="edge7_Node000007_Node000008" class="edge">
<title>Node7&#45;&gt;Node8</title>
<g id="a_edge7_Node000007_Node000008"><a xlink:title=" ">
<path fill="none" stroke="#63b8ff" d="M354.5,-605.54C354.5,-596.96 354.5,-587.61 354.5,-580.16"/>
<polygon fill="#63b8ff" stroke="#63b8ff" points="351,-605.8 354.5,-615.8 358,-605.8 351,-605.8"/>
</a>
</g>
</g>
<!-- Node9 -->
<g id="Node000009" class="node">
<title>Node9</title>
<g id="a_Node000009"><a xlink:href="../../df/d70/redis_2include_2userver_2storages_2redis_2hedged__request_8hpp.html" target="_top" xlink:title="Classes and functions for performing hedged requests.">
<polygon fill="white" stroke="#666666" points="417,-514 292,-514 292,-484 417,-484 417,-514"/>
<text text-anchor="start" x="300" y="-502" font-family="Helvetica,sans-Serif" font-size="10.00">userver/storages/redis</text>
<text text-anchor="middle" x="354.5" y="-491" font-family="Helvetica,sans-Serif" font-size="10.00">/hedged_request.hpp</text>
</a>
</g>
</g>
<!-- Node8&#45;&gt;Node9 -->
<g id="edge8_Node000008_Node000009" class="edge">
<title>Node8&#45;&gt;Node9</title>
<g id="a_edge8_Node000008_Node000009"><a xlink:title=" ">
<path fill="none" stroke="#63b8ff" d="M354.5,-539.54C354.5,-530.96 354.5,-521.61 354.5,-514.16"/>
<polygon fill="#63b8ff" stroke="#63b8ff" points="351,-539.8 354.5,-549.8 358,-539.8 351,-539.8"/>
</a>
</g>
</g>
<!-- Node11 -->
<g id="Node000011" class="node">
<title>Node11</title>
<g id="a_Node000011"><a xlink:href="../../de/d7b/consumer__scope_8hpp_source.html" target="_top" xlink:title=" ">
<polygon fill="white" stroke="#666666" points="573.5,-580 439.5,-580 439.5,-550 573.5,-550 573.5,-580"/>
<text text-anchor="start" x="447.5" y="-568" font-family="Helvetica,sans-Serif" font-size="10.00">userver/kafka/consumer</text>
<text text-anchor="middle" x="506.5" y="-557" font-family="Helvetica,sans-Serif" font-size="10.00">_scope.hpp</text>
</a>
</g>
</g>
<!-- Node10&#45;&gt;Node11 -->
<g id="edge10_Node000010_Node000011" class="edge">
<title>Node10&#45;&gt;Node11</title>
<g id="a_edge10_Node000010_Node000011"><a xlink:title=" ">
<path fill="none" stroke="#63b8ff" d="M505.08,-611.35C505.39,-601.47 505.77,-589.51 506.05,-580.36"/>
<polygon fill="#63b8ff" stroke="#63b8ff" points="501.58,-611.26 504.77,-621.37 508.58,-611.48 501.58,-611.26"/>
</a>
</g>
</g>
<!-- Node12 -->
<g id="Node000012" class="node">
<title>Node12</title>
<g id="a_Node000012"><a xlink:href="../../d6/d08/consumer__component_8hpp_source.html" target="_top" xlink:title=" ">
<polygon fill="white" stroke="#666666" points="584,-514 435,-514 435,-484 584,-484 584,-514"/>
<text text-anchor="start" x="443" y="-502" font-family="Helvetica,sans-Serif" font-size="10.00">userver/kafka/components</text>
<text text-anchor="middle" x="509.5" y="-491" font-family="Helvetica,sans-Serif" font-size="10.00">/consumer_component.hpp</text>
</a>
</g>
</g>
<!-- Node11&#45;&gt;Node12 -->
<g id="edge11_Node000011_Node000012" class="edge">
<title>Node11&#45;&gt;Node12</title>
<g id="a_edge11_Node000011_Node000012"><a xlink:title=" ">
<path fill="none" stroke="#63b8ff" d="M507.65,-539.54C508.05,-530.96 508.49,-521.61 508.84,-514.16"/>
<polygon fill="#63b8ff" stroke="#63b8ff" points="504.14,-539.64 507.17,-549.8 511.13,-539.97 504.14,-539.64"/>
</a>
</g>
</g>
<!-- Node14 -->
<g id="Node000014" class="node">
<title>Node14</title>
<g id="a_Node000014"><a xlink:href="../../d4/d64/websocket__handler_8hpp.html" target="_top" xlink:title=" ">
<polygon fill="white" stroke="#666666" points="737.5,-580 595.5,-580 595.5,-550 737.5,-550 737.5,-580"/>
<text text-anchor="start" x="603.5" y="-568" font-family="Helvetica,sans-Serif" font-size="10.00">userver/server/websocket</text>
<text text-anchor="middle" x="666.5" y="-557" font-family="Helvetica,sans-Serif" font-size="10.00">/websocket_handler.hpp</text>
</a>
</g>
</g>
<!-- Node13&#45;&gt;Node14 -->
<g id="edge13_Node000013_Node000014" class="edge">
<title>Node13&#45;&gt;Node14</title>
<g id="a_edge13_Node000013_Node000014"><a xlink:title=" ">
<path fill="none" stroke="#63b8ff" d="M668.35,-605.54C667.95,-596.96 667.51,-587.61 667.16,-580.16"/>
<polygon fill="#63b8ff" stroke="#63b8ff" points="664.87,-605.97 668.83,-615.8 671.86,-605.64 664.87,-605.97"/>
</a>
</g>
</g>
<!-- Node16 -->
<g id="Node000016" class="node">
<title>Node16</title>
<g id="a_Node000016"><a xlink:href="../../d9/d5b/client__data_8hpp_source.html" target="_top" xlink:title=" ">
<polygon fill="white" stroke="#666666" points="1213,-514 1094,-514 1094,-484 1213,-484 1213,-514"/>
<text text-anchor="start" x="1102" y="-502" font-family="Helvetica,sans-Serif" font-size="10.00">userver/ugrpc/client</text>
<text text-anchor="middle" x="1153.5" y="-491" font-family="Helvetica,sans-Serif" font-size="10.00">/impl/client_data.hpp</text>
</a>
</g>
</g>
<!-- Node15&#45;&gt;Node16 -->
<g id="edge15_Node000015_Node000016" class="edge">
<title>Node15&#45;&gt;Node16</title>
<g id="a_edge15_Node000015_Node000016"><a xlink:title=" ">
<path fill="none" stroke="#63b8ff" d="M888.68,-616.1C979.57,-600.89 1013.38,-624.34 1088.5,-580 1115.47,-564.08 1135.94,-532.54 1146.2,-514.18"/>
<polygon fill="#63b8ff" stroke="#63b8ff" points="888.04,-612.65 878.81,-617.86 889.27,-619.55 888.04,-612.65"/>
</a>
</g>
</g>
<!-- Node24 -->
<g id="Node000024" class="node">
<title>Node24</title>
<g id="a_Node000024"><a xlink:href="../../d8/d5f/client_2impl_2codegen__declarations_8hpp_source.html" target="_top" xlink:title=" ">
<polygon fill="white" stroke="#666666" points="1499.5,-239 1327.5,-239 1327.5,-209 1499.5,-209 1499.5,-239"/>
<text text-anchor="start" x="1335.5" y="-227" font-family="Helvetica,sans-Serif" font-size="10.00">userver/ugrpc/client</text>
<text text-anchor="middle" x="1413.5" y="-216" font-family="Helvetica,sans-Serif" font-size="10.00">/impl/codegen_declarations.hpp</text>
</a>
</g>
</g>
<!-- Node15&#45;&gt;Node24 -->
<g id="edge31_Node000015_Node000024" class="edge">
<title>Node15&#45;&gt;Node24</title>
<g id="a_edge31_Node000015_Node000024"><a xlink:title=" ">
<path fill="none" stroke="#63b8ff" d="M888.81,-616.17C1034.51,-595.1 1451.5,-624.75 1451.5,-500 1451.5,-500 1451.5,-500 1451.5,-366 1451.5,-318.08 1430.79,-264.07 1419.95,-239.07"/>
<polygon fill="#63b8ff" stroke="#63b8ff" points="888.12,-612.73 878.8,-617.77 889.23,-619.64 888.12,-612.73"/>
</a>
</g>
</g>
<!-- Node29 -->
<g id="Node000029" class="node">
<title>Node29</title>
<g id="a_Node000029"><a xlink:href="../../d6/d93/grpc_2include_2userver_2ugrpc_2impl_2statistics_8hpp_source.html" target="_top" xlink:title=" ">
<polygon fill="white" stroke="#666666" points="1079.5,-580 971.5,-580 971.5,-550 1079.5,-550 1079.5,-580"/>
<text text-anchor="start" x="979.5" y="-568" font-family="Helvetica,sans-Serif" font-size="10.00">userver/ugrpc/impl</text>
<text text-anchor="middle" x="1025.5" y="-557" font-family="Helvetica,sans-Serif" font-size="10.00">/statistics.hpp</text>
</a>
</g>
</g>
<!-- Node15&#45;&gt;Node29 -->
<g id="edge32_Node000015_Node000029" class="edge">
<title>Node15&#45;&gt;Node29</title>
<g id="a_edge32_Node000015_Node000029"><a xlink:title=" ">
<path fill="none" stroke="#63b8ff" d="M873.52,-612.99C906.83,-602.69 948.79,-589.72 980.18,-580.01"/>
<polygon fill="#63b8ff" stroke="#63b8ff" points="872.45,-609.66 863.93,-615.95 874.51,-616.34 872.45,-609.66"/>
</a>
</g>
</g>
<!-- Node31 -->
<g id="Node000031" class="node">
<title>Node31</title>
<g id="a_Node000031"><a xlink:href="../../d9/dfa/service__worker_8hpp_source.html" target="_top" xlink:title=" ">
<polygon fill="white" stroke="#666666" points="775.5,-448 637.5,-448 637.5,-418 775.5,-418 775.5,-448"/>
<text text-anchor="start" x="645.5" y="-436" font-family="Helvetica,sans-Serif" font-size="10.00">userver/ugrpc/server</text>
<text text-anchor="middle" x="706.5" y="-425" font-family="Helvetica,sans-Serif" font-size="10.00">/impl/service_worker.hpp</text>
</a>
</g>
</g>
<!-- Node15&#45;&gt;Node31 -->
<g id="edge51_Node000015_Node000031" class="edge">
<title>Node15&#45;&gt;Node31</title>
<g id="a_edge51_Node000015_Node000031"><a xlink:title=" ">
<path fill="none" stroke="#63b8ff" d="M804.92,-606.69C800.04,-598.29 794.51,-588.73 789.5,-580 761.77,-531.71 729.22,-474.2 714.47,-448.12"/>
<polygon fill="#63b8ff" stroke="#63b8ff" points="802.04,-608.69 810.09,-615.58 808.09,-605.17 802.04,-608.69"/>
</a>
</g>
</g>
<!-- Node33 -->
<g id="Node000033" class="node">
<title>Node33</title>
<g id="a_Node000033"><a xlink:href="../../db/d93/service__worker__impl_8hpp_source.html" target="_top" xlink:title=" ">
<polygon fill="white" stroke="#666666" points="824.5,-316 706.5,-316 706.5,-275 824.5,-275 824.5,-316"/>
<text text-anchor="start" x="714.5" y="-304" font-family="Helvetica,sans-Serif" font-size="10.00">userver/ugrpc/server</text>
<text text-anchor="start" x="714.5" y="-293" font-family="Helvetica,sans-Serif" font-size="10.00">/impl/service_worker</text>
<text text-anchor="middle" x="765.5" y="-282" font-family="Helvetica,sans-Serif" font-size="10.00">_impl.hpp</text>
</a>
</g>
</g>
<!-- Node15&#45;&gt;Node33 -->
<g id="edge52_Node000015_Node000033" class="edge">
<title>Node15&#45;&gt;Node33</title>
<g id="a_edge52_Node000015_Node000033"><a xlink:title=" ">
<path fill="none" stroke="#63b8ff" d="M813.98,-605.54C809.56,-579.48 803.5,-536.98 803.5,-500 803.5,-500 803.5,-500 803.5,-432 803.5,-389.49 785.94,-342.17 774.7,-316.22"/>
<polygon fill="#63b8ff" stroke="#63b8ff" points="810.57,-606.39 815.75,-615.63 817.47,-605.18 810.57,-606.39"/>
</a>
</g>
</g>
<!-- Node17 -->
<g id="Node000017" class="node">
<title>Node17</title>
<g id="a_Node000017"><a xlink:href="../../d5/d0c/channels_8hpp.html" target="_top" xlink:title="Utilities for managing gRPC connections.">
<polygon fill="white" stroke="#666666" points="1347,-448 1234,-448 1234,-418 1347,-418 1347,-448"/>
<text text-anchor="start" x="1242" y="-436" font-family="Helvetica,sans-Serif" font-size="10.00">userver/ugrpc/client</text>
<text text-anchor="middle" x="1290.5" y="-425" font-family="Helvetica,sans-Serif" font-size="10.00">/channels.hpp</text>
</a>
</g>
</g>
<!-- Node16&#45;&gt;Node17 -->
<g id="edge16_Node000016_Node000017" class="edge">
<title>Node16&#45;&gt;Node17</title>
<g id="a_edge16_Node000016_Node000017"><a xlink:title=" ">
<path fill="none" stroke="#63b8ff" d="M1192.78,-479.65C1214.33,-469.58 1240.62,-457.3 1260.5,-448.01"/>
<polygon fill="#63b8ff" stroke="#63b8ff" points="1191.14,-476.55 1183.57,-483.95 1194.11,-482.89 1191.14,-476.55"/>
</a>
</g>
</g>
<!-- Node18 -->
<g id="Node000018" class="node">
<title>Node18</title>
<g id="a_Node000018"><a xlink:href="../../d0/d98/client__factory_8hpp.html" target="_top" xlink:title="Creates generated gRPC clients. Has a minimal built&#45;in channel cache: as long as a channel to the sam...">
<polygon fill="white" stroke="#666666" points="1086,-167.5 973,-167.5 973,-137.5 1086,-137.5 1086,-167.5"/>
<text text-anchor="start" x="981" y="-155.5" font-family="Helvetica,sans-Serif" font-size="10.00">userver/ugrpc/client</text>
<text text-anchor="middle" x="1029.5" y="-144.5" font-family="Helvetica,sans-Serif" font-size="10.00">/client_factory.hpp</text>
</a>
</g>
</g>
<!-- Node16&#45;&gt;Node18 -->
<g id="edge17_Node000016_Node000018" class="edge">
<title>Node16&#45;&gt;Node18</title>
<g id="a_edge17_Node000016_Node000018"><a xlink:title=" ">
<path fill="none" stroke="#63b8ff" d="M1115.66,-478.53C1103.47,-470.57 1090.94,-460.31 1082.5,-448 1061.77,-417.77 1062.5,-404.65 1062.5,-368 1062.5,-368 1062.5,-368 1062.5,-294.5 1062.5,-246.98 1044.51,-192.78 1035.1,-167.65"/>
<polygon fill="#63b8ff" stroke="#63b8ff" points="1114.06,-481.66 1124.41,-483.92 1117.73,-475.7 1114.06,-481.66"/>
</a>
</g>
</g>
<!-- Node21 -->
<g id="Node000021" class="node">
<title>Node21</title>
<g id="a_Node000021"><a xlink:href="../../d2/d7b/client_2impl_2call__params_8hpp_source.html" target="_top" xlink:title=" ">
<polygon fill="white" stroke="#666666" points="1216,-448 1091,-448 1091,-418 1216,-418 1216,-448"/>
<text text-anchor="start" x="1099" y="-436" font-family="Helvetica,sans-Serif" font-size="10.00">userver/ugrpc/client</text>
<text text-anchor="middle" x="1153.5" y="-425" font-family="Helvetica,sans-Serif" font-size="10.00">/impl/call_params.hpp</text>
</a>
</g>
</g>
<!-- Node16&#45;&gt;Node21 -->
<g id="edge20_Node000016_Node000021" class="edge">
<title>Node16&#45;&gt;Node21</title>
<g id="a_edge20_Node000016_Node000021"><a xlink:title=" ">
<path fill="none" stroke="#63b8ff" d="M1153.5,-473.54C1153.5,-464.96 1153.5,-455.61 1153.5,-448.16"/>
<polygon fill="#63b8ff" stroke="#63b8ff" points="1150,-473.8 1153.5,-483.8 1157,-473.8 1150,-473.8"/>
</a>
</g>
</g>
<!-- Node16&#45;&gt;Node24 -->
<g id="edge30_Node000016_Node000024" class="edge">
<title>Node16&#45;&gt;Node24</title>
<g id="a_edge30_Node000016_Node000024"><a xlink:title=" ">
<path fill="none" stroke="#63b8ff" d="M1223.08,-488.65C1274.14,-480.39 1337.71,-466.75 1356.5,-448 1412.58,-392.04 1379.26,-351.6 1399.5,-275 1402.68,-262.97 1406.5,-249.38 1409.34,-239.41"/>
<polygon fill="#63b8ff" stroke="#63b8ff" points="1222.39,-485.21 1213.05,-490.23 1223.48,-492.13 1222.39,-485.21"/>
</a>
</g>
</g>
<!-- Node19 -->
<g id="Node000019" class="node">
<title>Node19</title>
<g id="a_Node000019"><a xlink:href="../../da/dd3/client__factory__component_8hpp.html" target="_top" xlink:title="Provides a ClientFactory in the component system.">
<polygon fill="white" stroke="#666666" points="1113,-96 946,-96 946,-66 1113,-66 1113,-96"/>
<text text-anchor="start" x="954" y="-84" font-family="Helvetica,sans-Serif" font-size="10.00">userver/ugrpc/client</text>
<text text-anchor="middle" x="1029.5" y="-73" font-family="Helvetica,sans-Serif" font-size="10.00">/client_factory_component.hpp</text>
</a>
</g>
</g>
<!-- Node18&#45;&gt;Node19 -->
<g id="edge18_Node000018_Node000019" class="edge">
<title>Node18&#45;&gt;Node19</title>
<g id="a_edge18_Node000018_Node000019"><a xlink:title=" ">
<path fill="none" stroke="#63b8ff" d="M1029.5,-127.25C1029.5,-116.81 1029.5,-104.99 1029.5,-96.04"/>
<polygon fill="#63b8ff" stroke="#63b8ff" points="1026,-127.44 1029.5,-137.44 1033,-127.44 1026,-127.44"/>
</a>
</g>
</g>
<!-- Node20 -->
<g id="Node000020" class="node">
<title>Node20</title>
<g id="a_Node000020"><a xlink:href="../../d8/d98/simple__client__component_8hpp.html" target="_top" xlink:title="Template class for a simple gRPC client.">
<polygon fill="white" stroke="#666666" points="1112.5,-30 946.5,-30 946.5,0 1112.5,0 1112.5,-30"/>
<text text-anchor="start" x="954.5" y="-18" font-family="Helvetica,sans-Serif" font-size="10.00">userver/ugrpc/client</text>
<text text-anchor="middle" x="1029.5" y="-7" font-family="Helvetica,sans-Serif" font-size="10.00">/simple_client_component.hpp</text>
</a>
</g>
</g>
<!-- Node19&#45;&gt;Node20 -->
<g id="edge19_Node000019_Node000020" class="edge">
<title>Node19&#45;&gt;Node20</title>
<g id="a_edge19_Node000019_Node000020"><a xlink:title=" ">
<path fill="none" stroke="#63b8ff" d="M1029.5,-55.54C1029.5,-46.96 1029.5,-37.61 1029.5,-30.16"/>
<polygon fill="#63b8ff" stroke="#63b8ff" points="1026,-55.8 1029.5,-65.8 1033,-55.8 1026,-55.8"/>
</a>
</g>
</g>
<!-- Node22 -->
<g id="Node000022" class="node">
<title>Node22</title>
<g id="a_Node000022"><a xlink:href="../../d7/d8b/client_2impl_2async__methods_8hpp_source.html" target="_top" xlink:title=" ">
<polygon fill="white" stroke="#666666" points="1321.5,-382 1179.5,-382 1179.5,-352 1321.5,-352 1321.5,-382"/>
<text text-anchor="start" x="1187.5" y="-370" font-family="Helvetica,sans-Serif" font-size="10.00">userver/ugrpc/client</text>
<text text-anchor="middle" x="1250.5" y="-359" font-family="Helvetica,sans-Serif" font-size="10.00">/impl/async_methods.hpp</text>
</a>
</g>
</g>
<!-- Node21&#45;&gt;Node22 -->
<g id="edge21_Node000021_Node000022" class="edge">
<title>Node21&#45;&gt;Node22</title>
<g id="a_edge21_Node000021_Node000022"><a xlink:title=" ">
<path fill="none" stroke="#63b8ff" d="M1183.77,-412.03C1198.45,-402.34 1215.73,-390.94 1229.03,-382.16"/>
<polygon fill="#63b8ff" stroke="#63b8ff" points="1181.45,-409.37 1175.03,-417.8 1185.3,-415.21 1181.45,-409.37"/>
</a>
</g>
</g>
<!-- Node23 -->
<g id="Node000023" class="node">
<title>Node23</title>
<g id="a_Node000023"><a xlink:href="../../db/df8/client_2rpc_8hpp.html" target="_top" xlink:title="Classes representing an outgoing RPC.">
<polygon fill="white" stroke="#666666" points="1303,-310.5 1190,-310.5 1190,-280.5 1303,-280.5 1303,-310.5"/>
<text text-anchor="start" x="1198" y="-298.5" font-family="Helvetica,sans-Serif" font-size="10.00">userver/ugrpc/client</text>
<text text-anchor="middle" x="1246.5" y="-287.5" font-family="Helvetica,sans-Serif" font-size="10.00">/rpc.hpp</text>
</a>
</g>
</g>
<!-- Node21&#45;&gt;Node23 -->
<g id="edge29_Node000021_Node000023" class="edge">
<title>Node21&#45;&gt;Node23</title>
<g id="a_edge29_Node000021_Node000023"><a xlink:title=" ">
<path fill="none" stroke="#63b8ff" d="M1154.17,-407.69C1155.65,-390.87 1159.74,-368.62 1170.5,-352 1182.05,-334.17 1201.46,-320.14 1217.78,-310.64"/>
<polygon fill="#63b8ff" stroke="#63b8ff" points="1150.67,-407.64 1153.52,-417.84 1157.65,-408.08 1150.67,-407.64"/>
</a>
</g>
</g>
<!-- Node22&#45;&gt;Node23 -->
<g id="edge22_Node000022_Node000023" class="edge">
<title>Node22&#45;&gt;Node23</title>
<g id="a_edge22_Node000022_Node000023"><a xlink:title=" ">
<path fill="none" stroke="#63b8ff" d="M1249.1,-341.75C1248.5,-331.31 1247.82,-319.49 1247.31,-310.54"/>
<polygon fill="#63b8ff" stroke="#63b8ff" points="1245.62,-342.15 1249.69,-351.94 1252.61,-341.75 1245.62,-342.15"/>
</a>
</g>
</g>
<!-- Node23&#45;&gt;Node24 -->
<g id="edge23_Node000023_Node000024" class="edge">
<title>Node23&#45;&gt;Node24</title>
<g id="a_edge23_Node000023_Node000024"><a xlink:title=" ">
<path fill="none" stroke="#63b8ff" d="M1289.85,-276.46C1317.89,-264.79 1353.85,-249.82 1379.76,-239.04"/>
<polygon fill="#63b8ff" stroke="#63b8ff" points="1288.18,-273.36 1280.29,-280.44 1290.87,-279.82 1288.18,-273.36"/>
</a>
</g>
</g>
<!-- Node25 -->
<g id="Node000025" class="node">
<title>Node25</title>
<g id="a_Node000025"><a xlink:href="../../d3/d3e/grpc_2include_2userver_2ugrpc_2client_2middlewares_2base_8hpp_source.html" target="_top" xlink:title=" ">
<polygon fill="white" stroke="#666666" points="1309.5,-239 1179.5,-239 1179.5,-209 1309.5,-209 1309.5,-239"/>
<text text-anchor="start" x="1187.5" y="-227" font-family="Helvetica,sans-Serif" font-size="10.00">userver/ugrpc/client</text>
<text text-anchor="middle" x="1244.5" y="-216" font-family="Helvetica,sans-Serif" font-size="10.00">/middlewares/base.hpp</text>
</a>
</g>
</g>
<!-- Node23&#45;&gt;Node25 -->
<g id="edge24_Node000023_Node000025" class="edge">
<title>Node23&#45;&gt;Node25</title>
<g id="a_edge24_Node000023_Node000025"><a xlink:title=" ">
<path fill="none" stroke="#63b8ff" d="M1245.8,-270.25C1245.5,-259.81 1245.16,-247.99 1244.9,-239.04"/>
<polygon fill="#63b8ff" stroke="#63b8ff" points="1242.31,-270.54 1246.1,-280.44 1249.31,-270.34 1242.31,-270.54"/>
</a>
</g>
</g>
<!-- Node25&#45;&gt;Node18 -->
<g id="edge25_Node000025_Node000018" class="edge">
<title>Node25&#45;&gt;Node18</title>
<g id="a_edge25_Node000025_Node000018"><a xlink:title=" ">
<path fill="none" stroke="#63b8ff" d="M1191.04,-205.72C1154.62,-193.95 1107.02,-178.56 1072.94,-167.54"/>
<polygon fill="#63b8ff" stroke="#63b8ff" points="1190.4,-209.19 1200.99,-208.94 1192.55,-202.53 1190.4,-209.19"/>
</a>
</g>
</g>
<!-- Node26 -->
<g id="Node000026" class="node">
<title>Node26</title>
<g id="a_Node000026"><a xlink:href="../../d4/d96/grpc_2include_2userver_2ugrpc_2client_2middlewares_2baggage_2component_8hpp_source.html" target="_top" xlink:title=" ">
<polygon fill="white" stroke="#666666" points="1606.5,-173 1478.5,-173 1478.5,-132 1606.5,-132 1606.5,-173"/>
<text text-anchor="start" x="1486.5" y="-161" font-family="Helvetica,sans-Serif" font-size="10.00">userver/ugrpc/client</text>
<text text-anchor="start" x="1486.5" y="-150" font-family="Helvetica,sans-Serif" font-size="10.00">/middlewares/baggage</text>
<text text-anchor="middle" x="1542.5" y="-139" font-family="Helvetica,sans-Serif" font-size="10.00">/component.hpp</text>
</a>
</g>
</g>
<!-- Node25&#45;&gt;Node26 -->
<g id="edge26_Node000025_Node000026" class="edge">
<title>Node25&#45;&gt;Node26</title>
<g id="a_edge26_Node000025_Node000026"><a xlink:title=" ">
<path fill="none" stroke="#63b8ff" d="M1319.66,-207.13C1363.47,-197.67 1419.74,-185.17 1469.5,-173 1472.43,-172.28 1475.42,-171.54 1478.45,-170.77"/>
<polygon fill="#63b8ff" stroke="#63b8ff" points="1318.69,-203.76 1309.65,-209.29 1320.17,-210.6 1318.69,-203.76"/>
</a>
</g>
</g>
<!-- Node27 -->
<g id="Node000027" class="node">
<title>Node27</title>
<g id="a_Node000027"><a xlink:href="../../d6/d04/grpc_2include_2userver_2ugrpc_2client_2middlewares_2deadline__propagation_2component_8hpp.html" target="_top" xlink:title="ugrpc::client::middlewares::deadline_propagation::Component">
<polygon fill="white" stroke="#666666" points="1263,-173 1104,-173 1104,-132 1263,-132 1263,-173"/>
<text text-anchor="start" x="1112" y="-161" font-family="Helvetica,sans-Serif" font-size="10.00">userver/ugrpc/client</text>
<text text-anchor="start" x="1112" y="-150" font-family="Helvetica,sans-Serif" font-size="10.00">/middlewares/deadline</text>
<text text-anchor="middle" x="1183.5" y="-139" font-family="Helvetica,sans-Serif" font-size="10.00">_propagation/component.hpp</text>
</a>
</g>
</g>
<!-- Node25&#45;&gt;Node27 -->
<g id="edge27_Node000025_Node000027" class="edge">
<title>Node25&#45;&gt;Node27</title>
<g id="a_edge27_Node000025_Node000027"><a xlink:title=" ">
<path fill="none" stroke="#63b8ff" d="M1225.55,-201.41C1217.61,-192.36 1208.43,-181.9 1200.68,-173.07"/>
<polygon fill="#63b8ff" stroke="#63b8ff" points="1222.93,-203.73 1232.16,-208.94 1228.19,-199.11 1222.93,-203.73"/>
</a>
</g>
</g>
<!-- Node28 -->
<g id="Node000028" class="node">
<title>Node28</title>
<g id="a_Node000028"><a xlink:href="../../d1/de5/grpc_2include_2userver_2ugrpc_2client_2middlewares_2log_2component_8hpp_source.html" target="_top" xlink:title=" ">
<polygon fill="white" stroke="#666666" points="1460,-167.5 1281,-167.5 1281,-137.5 1460,-137.5 1460,-167.5"/>
<text text-anchor="start" x="1289" y="-155.5" font-family="Helvetica,sans-Serif" font-size="10.00">userver/ugrpc/client</text>
<text text-anchor="middle" x="1370.5" y="-144.5" font-family="Helvetica,sans-Serif" font-size="10.00">/middlewares/log/component.hpp</text>
</a>
</g>
</g>
<!-- Node25&#45;&gt;Node28 -->
<g id="edge28_Node000025_Node000028" class="edge">
<title>Node25&#45;&gt;Node28</title>
<g id="a_edge28_Node000025_Node000028"><a xlink:title=" ">
<path fill="none" stroke="#63b8ff" d="M1278.88,-204.03C1299.78,-192.51 1326.01,-178.04 1345.04,-167.54"/>
<polygon fill="#63b8ff" stroke="#63b8ff" points="1277.06,-201.04 1270,-208.94 1280.44,-207.17 1277.06,-201.04"/>
</a>
</g>
</g>
<!-- Node29&#45;&gt;Node16 -->
<g id="edge34_Node000029_Node000016" class="edge">
<title>Node29&#45;&gt;Node16</title>
<g id="a_edge34_Node000029_Node000016"><a xlink:title=" ">
<path fill="none" stroke="#63b8ff" d="M1062.74,-545.38C1082.77,-535.36 1107.07,-523.22 1125.48,-514.01"/>
<polygon fill="#63b8ff" stroke="#63b8ff" points="1060.97,-542.35 1053.59,-549.95 1064.1,-548.61 1060.97,-542.35"/>
</a>
</g>
</g>
<!-- Node29&#45;&gt;Node21 -->
<g id="edge33_Node000029_Node000021" class="edge">
<title>Node29&#45;&gt;Node21</title>
<g id="a_edge33_Node000029_Node000021"><a xlink:title=" ">
<path fill="none" stroke="#63b8ff" d="M1040.04,-541.07C1051.3,-524.26 1067.91,-501.42 1085.5,-484 1099.35,-470.28 1117.16,-457.32 1131.08,-448.04"/>
<polygon fill="#63b8ff" stroke="#63b8ff" points="1036.92,-539.44 1034.36,-549.72 1042.77,-543.28 1036.92,-539.44"/>
</a>
</g>
</g>
<!-- Node29&#45;&gt;Node24 -->
<g id="edge35_Node000029_Node000024" class="edge">
<title>Node29&#45;&gt;Node24</title>
<g id="a_edge35_Node000029_Node000024"><a xlink:title=" ">
<path fill="none" stroke="#63b8ff" d="M1089.88,-555.95C1200.17,-540.34 1413.5,-501.43 1413.5,-434 1413.5,-434 1413.5,-434 1413.5,-366 1413.5,-319.49 1413.5,-264.35 1413.5,-239.01"/>
<polygon fill="#63b8ff" stroke="#63b8ff" points="1089.28,-552.5 1079.86,-557.34 1090.25,-559.43 1089.28,-552.5"/>
</a>
</g>
</g>
<!-- Node30 -->
<g id="Node000030" class="node">
<title>Node30</title>
<g id="a_Node000030"><a xlink:href="../../d8/dc6/grpc_2include_2userver_2ugrpc_2impl_2statistics__storage_8hpp_source.html" target="_top" xlink:title=" ">
<polygon fill="white" stroke="#666666" points="997,-514 870,-514 870,-484 997,-484 997,-514"/>
<text text-anchor="start" x="878" y="-502" font-family="Helvetica,sans-Serif" font-size="10.00">userver/ugrpc/impl</text>
<text text-anchor="middle" x="933.5" y="-491" font-family="Helvetica,sans-Serif" font-size="10.00">/statistics_storage.hpp</text>
</a>
</g>
</g>
<!-- Node29&#45;&gt;Node30 -->
<g id="edge36_Node000029_Node000030" class="edge">
<title>Node29&#45;&gt;Node30</title>
<g id="a_edge36_Node000029_Node000030"><a xlink:title=" ">
<path fill="none" stroke="#63b8ff" d="M996.79,-544.03C982.87,-534.34 966.47,-522.94 953.86,-514.16"/>
<polygon fill="#63b8ff" stroke="#63b8ff" points="994.87,-546.96 1005.08,-549.8 998.87,-541.21 994.87,-546.96"/>
</a>
</g>
</g>
<!-- Node29&#45;&gt;Node33 -->
<g id="edge49_Node000029_Node000033" class="edge">
<title>Node29&#45;&gt;Node33</title>
<g id="a_edge49_Node000029_Node000033"><a xlink:title=" ">
<path fill="none" stroke="#63b8ff" d="M961.02,-559.11C927.15,-553.27 887.42,-540.72 861.5,-514 809.56,-460.44 853.86,-417.15 817.5,-352 810.04,-338.63 798.66,-325.98 788.45,-316.14"/>
<polygon fill="#63b8ff" stroke="#63b8ff" points="960.9,-562.64 971.32,-560.72 961.98,-555.72 960.9,-562.64"/>
</a>
</g>
</g>
<!-- Node36 -->
<g id="Node000036" class="node">
<title>Node36</title>
<g id="a_Node000036"><a xlink:href="../../d4/d79/grpc_2include_2userver_2ugrpc_2server_2server_8hpp.html" target="_top" xlink:title="Manages the gRPC server.">
<polygon fill="white" stroke="#666666" points="960,-310.5 843,-310.5 843,-280.5 960,-280.5 960,-310.5"/>
<text text-anchor="start" x="851" y="-298.5" font-family="Helvetica,sans-Serif" font-size="10.00">userver/ugrpc/server</text>
<text text-anchor="middle" x="901.5" y="-287.5" font-family="Helvetica,sans-Serif" font-size="10.00">/server.hpp</text>
</a>
</g>
</g>
<!-- Node29&#45;&gt;Node36 -->
<g id="edge50_Node000029_Node000036" class="edge">
<title>Node29&#45;&gt;Node36</title>
<g id="a_edge50_Node000029_Node000036"><a xlink:title=" ">
<path fill="none" stroke="#63b8ff" d="M1021.52,-539.56C1018.45,-523.44 1013.54,-502.05 1006.5,-484 979.8,-415.52 932.01,-341.4 911.41,-310.88"/>
<polygon fill="#63b8ff" stroke="#63b8ff" points="1018.14,-540.54 1023.35,-549.77 1025.03,-539.31 1018.14,-540.54"/>
</a>
</g>
</g>
<!-- Node30&#45;&gt;Node18 -->
<g id="edge37_Node000030_Node000018" class="edge">
<title>Node30&#45;&gt;Node18</title>
<g id="a_edge37_Node000030_Node000018"><a xlink:title=" ">
<path fill="none" stroke="#63b8ff" d="M940.2,-473.97C958.83,-407.11 1010.88,-220.31 1025.59,-167.54"/>
<polygon fill="#63b8ff" stroke="#63b8ff" points="936.82,-473.06 937.5,-483.64 943.56,-474.94 936.82,-473.06"/>
</a>
</g>
</g>
<!-- Node30&#45;&gt;Node31 -->
<g id="edge38_Node000030_Node000031" class="edge">
<title>Node30&#45;&gt;Node31</title>
<g id="a_edge38_Node000030_Node000031"><a xlink:title=" ">
<path fill="none" stroke="#63b8ff" d="M873.63,-481.12C837.03,-470.8 790.77,-457.76 756.2,-448.01"/>
<polygon fill="#63b8ff" stroke="#63b8ff" points="873.11,-484.61 883.68,-483.95 875.01,-477.87 873.11,-484.61"/>
</a>
</g>
</g>
<!-- Node32 -->
<g id="Node000032" class="node">
<title>Node32</title>
<g id="a_Node000032"><a xlink:href="../../df/d2b/server_2impl_2codegen__declarations_8hpp_source.html" target="_top" xlink:title=" ">
<polygon fill="white" stroke="#666666" points="634.5,-239 462.5,-239 462.5,-209 634.5,-209 634.5,-239"/>
<text text-anchor="start" x="470.5" y="-227" font-family="Helvetica,sans-Serif" font-size="10.00">userver/ugrpc/server</text>
<text text-anchor="middle" x="548.5" y="-216" font-family="Helvetica,sans-Serif" font-size="10.00">/impl/codegen_declarations.hpp</text>
</a>
</g>
</g>
<!-- Node31&#45;&gt;Node32 -->
<g id="edge39_Node000031_Node000032" class="edge">
<title>Node31&#45;&gt;Node32</title>
<g id="a_edge39_Node000031_Node000032"><a xlink:title=" ">
<path fill="none" stroke="#63b8ff" d="M629.01,-415.13C576.28,-399.18 510.34,-369.44 477.5,-316 467.96,-300.47 469.11,-291.17 477.5,-275 485.69,-259.21 501.42,-247.35 515.99,-239.16"/>
<polygon fill="#63b8ff" stroke="#63b8ff" points="628.11,-418.51 638.69,-417.95 630.07,-411.79 628.11,-418.51"/>
</a>
</g>
</g>
<!-- Node31&#45;&gt;Node33 -->
<g id="edge40_Node000031_Node000033" class="edge">
<title>Node31&#45;&gt;Node33</title>
<g id="a_edge40_Node000031_Node000033"><a xlink:title=" ">
<path fill="none" stroke="#63b8ff" d="M727.5,-410.22C734.47,-401.95 741.67,-392.08 746.5,-382 756.62,-360.88 761.44,-334.23 763.67,-316.35"/>
<polygon fill="#63b8ff" stroke="#63b8ff" points="724.71,-408.1 720.71,-417.91 729.95,-412.73 724.71,-408.1"/>
</a>
</g>
</g>
<!-- Node35 -->
<g id="Node000035" class="node">
<title>Node35</title>
<g id="a_Node000035"><a xlink:href="../../df/da9/service__base_8hpp.html" target="_top" xlink:title="The type&#45;erased base class for all gRPC service implementations.">
<polygon fill="white" stroke="#666666" points="737,-382 620,-382 620,-352 737,-352 737,-382"/>
<text text-anchor="start" x="628" y="-370" font-family="Helvetica,sans-Serif" font-size="10.00">userver/ugrpc/server</text>
<text text-anchor="middle" x="678.5" y="-359" font-family="Helvetica,sans-Serif" font-size="10.00">/service_base.hpp</text>
</a>
</g>
</g>
<!-- Node31&#45;&gt;Node35 -->
<g id="edge42_Node000031_Node000035" class="edge">
<title>Node31&#45;&gt;Node35</title>
<g id="a_edge42_Node000031_Node000035"><a xlink:title=" ">
<path fill="none" stroke="#63b8ff" d="M696.17,-408.39C692.32,-399.59 688.07,-389.86 684.7,-382.16"/>
<polygon fill="#63b8ff" stroke="#63b8ff" points="693.07,-410.04 700.29,-417.8 699.48,-407.23 693.07,-410.04"/>
</a>
</g>
</g>
<!-- Node34 -->
<g id="Node000034" class="node">
<title>Node34</title>
<g id="a_Node000034"><a xlink:href="../../d1/dac/server_2impl_2codegen__definitions_8hpp_source.html" target="_top" xlink:title=" ">
<polygon fill="white" stroke="#666666" points="816,-239 653,-239 653,-209 816,-209 816,-239"/>
<text text-anchor="start" x="661" y="-227" font-family="Helvetica,sans-Serif" font-size="10.00">userver/ugrpc/server</text>
<text text-anchor="middle" x="734.5" y="-216" font-family="Helvetica,sans-Serif" font-size="10.00">/impl/codegen_definitions.hpp</text>
</a>
</g>
</g>
<!-- Node33&#45;&gt;Node34 -->
<g id="edge41_Node000033_Node000034" class="edge">
<title>Node33&#45;&gt;Node34</title>
<g id="a_edge41_Node000033_Node000034"><a xlink:title=" ">
<path fill="none" stroke="#63b8ff" d="M752.58,-265.53C748.49,-256.37 744.16,-246.66 740.76,-239.04"/>
<polygon fill="#63b8ff" stroke="#63b8ff" points="749.43,-267.06 756.7,-274.77 755.82,-264.21 749.43,-267.06"/>
</a>
</g>
</g>
<!-- Node35&#45;&gt;Node32 -->
<g id="edge43_Node000035_Node000032" class="edge">
<title>Node35&#45;&gt;Node32</title>
<g id="a_edge43_Node000035_Node000032"><a xlink:title=" ">
<path fill="none" stroke="#63b8ff" d="M679.21,-341.56C678.54,-321.63 674.59,-293.79 659.5,-275 645.87,-258.03 625.24,-246.62 605.44,-239.04"/>
<polygon fill="#63b8ff" stroke="#63b8ff" points="675.72,-341.74 679.3,-351.71 682.72,-341.68 675.72,-341.74"/>
</a>
</g>
</g>
<!-- Node35&#45;&gt;Node33 -->
<g id="edge44_Node000035_Node000033" class="edge">
<title>Node35&#45;&gt;Node33</title>
<g id="a_edge44_Node000035_Node000033"><a xlink:title=" ">
<path fill="none" stroke="#63b8ff" d="M704.16,-345.5C715.8,-336.21 729.5,-325.26 741,-316.07"/>
<polygon fill="#63b8ff" stroke="#63b8ff" points="701.73,-342.96 696.11,-351.94 706.1,-348.43 701.73,-342.96"/>
</a>
</g>
</g>
<!-- Node35&#45;&gt;Node36 -->
<g id="edge45_Node000035_Node000036" class="edge">
<title>Node35&#45;&gt;Node36</title>
<g id="a_edge45_Node000035_Node000036"><a xlink:title=" ">
<path fill="none" stroke="#63b8ff" d="M733.47,-348.87C771.3,-337.08 820.94,-321.61 856.44,-310.54"/>
<polygon fill="#63b8ff" stroke="#63b8ff" points="732.13,-345.62 723.63,-351.94 734.22,-352.3 732.13,-345.62"/>
</a>
</g>
</g>
<!-- Node38 -->
<g id="Node000038" class="node">
<title>Node38</title>
<g id="a_Node000038"><a xlink:href="../../d1/d68/service__component__base_8hpp.html" target="_top" xlink:title="Base class for all the gRPC service components.">
<polygon fill="white" stroke="#666666" points="650.5,-310.5 486.5,-310.5 486.5,-280.5 650.5,-280.5 650.5,-310.5"/>
<text text-anchor="start" x="494.5" y="-298.5" font-family="Helvetica,sans-Serif" font-size="10.00">userver/ugrpc/server</text>
<text text-anchor="middle" x="568.5" y="-287.5" font-family="Helvetica,sans-Serif" font-size="10.00">/service_component_base.hpp</text>
</a>
</g>
</g>
<!-- Node35&#45;&gt;Node38 -->
<g id="edge47_Node000035_Node000038" class="edge">
<title>Node35&#45;&gt;Node38</title>
<g id="a_edge47_Node000035_Node000038"><a xlink:title=" ">
<path fill="none" stroke="#63b8ff" d="M647.74,-346.57C629.63,-335.12 607.12,-320.9 590.73,-310.54"/>
<polygon fill="#63b8ff" stroke="#63b8ff" points="645.92,-349.55 656.24,-351.94 649.66,-343.64 645.92,-349.55"/>
</a>
</g>
</g>
<!-- Node37 -->
<g id="Node000037" class="node">
<title>Node37</title>
<g id="a_Node000037"><a xlink:href="../../db/d7e/server__component_8hpp.html" target="_top" xlink:title="Component that configures and manages the gRPC server.">
<polygon fill="white" stroke="#666666" points="965,-239 834,-239 834,-209 965,-209 965,-239"/>
<text text-anchor="start" x="842" y="-227" font-family="Helvetica,sans-Serif" font-size="10.00">userver/ugrpc/server</text>
<text text-anchor="middle" x="899.5" y="-216" font-family="Helvetica,sans-Serif" font-size="10.00">/server_component.hpp</text>
</a>
</g>
</g>
<!-- Node36&#45;&gt;Node37 -->
<g id="edge46_Node000036_Node000037" class="edge">
<title>Node36&#45;&gt;Node37</title>
<g id="a_edge46_Node000036_Node000037"><a xlink:title=" ">
<path fill="none" stroke="#63b8ff" d="M900.8,-270.25C900.5,-259.81 900.16,-247.99 899.9,-239.04"/>
<polygon fill="#63b8ff" stroke="#63b8ff" points="897.31,-270.54 901.1,-280.44 904.31,-270.34 897.31,-270.54"/>
</a>
</g>
</g>
<!-- Node38&#45;&gt;Node32 -->
<g id="edge48_Node000038_Node000032" class="edge">
<title>Node38&#45;&gt;Node32</title>
<g id="a_edge48_Node000038_Node000032"><a xlink:title=" ">
<path fill="none" stroke="#63b8ff" d="M561.62,-270.58C558.59,-260.06 555.14,-248.08 552.54,-239.04"/>
<polygon fill="#63b8ff" stroke="#63b8ff" points="558.32,-271.79 564.45,-280.44 565.05,-269.86 558.32,-271.79"/>
</a>
</g>
</g>
</g>
</svg>
