<?xml version="1.0" encoding="UTF-8" standalone="no"?>
<!DOCTYPE svg PUBLIC "-//W3C//DTD SVG 1.1//EN"
 "http://www.w3.org/Graphics/SVG/1.1/DTD/svg11.dtd">
<!-- Generated by graphviz version 2.43.0 (0)
 -->
<!-- Title: userver/ydb/dist_lock/worker.hpp Pages: 1 -->
<svg width="2297pt" height="544pt"
 viewBox="0.00 0.00 2296.50 544.00" xmlns="http://www.w3.org/2000/svg" xmlns:xlink="http://www.w3.org/1999/xlink">
<g id="graph0" class="graph" transform="scale(1 1) rotate(0) translate(4 540)">
<title>userver/ydb/dist_lock/worker.hpp</title>
<!-- Node1 -->
<g id="Node000001" class="node">
<title>Node1</title>
<g id="a_Node000001"><a xlink:title=" ">
<polygon fill="#999999" stroke="#666666" points="1798.5,-536 1677.5,-536 1677.5,-506 1798.5,-506 1798.5,-536"/>
<text text-anchor="start" x="1685.5" y="-524" font-family="Helvetica,sans-Serif" font-size="10.00">userver/ydb/dist_lock</text>
<text text-anchor="middle" x="1738" y="-513" font-family="Helvetica,sans-Serif" font-size="10.00">/worker.hpp</text>
</a>
</g>
</g>
<!-- Node2 -->
<g id="Node000002" class="node">
<title>Node2</title>
<g id="a_Node000002"><a xlink:title=" ">
<polygon fill="#e0e0e0" stroke="#999999" points="1011,-464.5 961,-464.5 961,-445.5 1011,-445.5 1011,-464.5"/>
<text text-anchor="middle" x="986" y="-452.5" font-family="Helvetica,sans-Serif" font-size="10.00">atomic</text>
</a>
</g>
</g>
<!-- Node1&#45;&gt;Node2 -->
<g id="edge1_Node000001_Node000002" class="edge">
<title>Node1&#45;&gt;Node2</title>
<g id="a_edge1_Node000001_Node000002"><a xlink:title=" ">
<path fill="none" stroke="#63b8ff" d="M1677.35,-518.27C1527.76,-513.61 1144.32,-499.12 1020,-470 1017.78,-469.48 1015.51,-468.83 1013.26,-468.1"/>
<polygon fill="#63b8ff" stroke="#63b8ff" points="1014.24,-464.73 1003.64,-464.52 1011.79,-471.29 1014.24,-464.73"/>
</a>
</g>
</g>
<!-- Node3 -->
<g id="Node000003" class="node">
<title>Node3</title>
<g id="a_Node000003"><a xlink:title=" ">
<polygon fill="#e0e0e0" stroke="#999999" points="1593.5,-200.5 1528.5,-200.5 1528.5,-181.5 1593.5,-181.5 1593.5,-200.5"/>
<text text-anchor="middle" x="1561" y="-188.5" font-family="Helvetica,sans-Serif" font-size="10.00">functional</text>
</a>
</g>
</g>
<!-- Node1&#45;&gt;Node3 -->
<g id="edge2_Node000001_Node000003" class="edge">
<title>Node1&#45;&gt;Node3</title>
<g id="a_edge2_Node000001_Node000003"><a xlink:title=" ">
<path fill="none" stroke="#63b8ff" d="M1687.72,-505.92C1668.43,-498.2 1647.77,-486.69 1634,-470 1600.5,-429.39 1572.63,-266.88 1563.87,-210.99"/>
<polygon fill="#63b8ff" stroke="#63b8ff" points="1567.28,-210.12 1562.29,-200.77 1560.36,-211.18 1567.28,-210.12"/>
</a>
</g>
</g>
<!-- Node4 -->
<g id="Node000004" class="node">
<title>Node4</title>
<g id="a_Node000004"><a xlink:title=" ">
<polygon fill="#e0e0e0" stroke="#999999" points="1892,-266.5 1834,-266.5 1834,-247.5 1892,-247.5 1892,-266.5"/>
<text text-anchor="middle" x="1863" y="-254.5" font-family="Helvetica,sans-Serif" font-size="10.00">memory</text>
</a>
</g>
</g>
<!-- Node1&#45;&gt;Node4 -->
<g id="edge3_Node000001_Node000004" class="edge">
<title>Node1&#45;&gt;Node4</title>
<g id="a_edge3_Node000001_Node000004"><a xlink:title=" ">
<path fill="none" stroke="#63b8ff" d="M1774.61,-505.85C1813.79,-488.48 1873.83,-454.92 1900,-404 1922.23,-360.75 1892.63,-303.28 1874.78,-275.09"/>
<polygon fill="#63b8ff" stroke="#63b8ff" points="1877.69,-273.14 1869.27,-266.71 1871.84,-276.99 1877.69,-273.14"/>
</a>
</g>
</g>
<!-- Node5 -->
<g id="Node000005" class="node">
<title>Node5</title>
<g id="a_Node000005"><a xlink:title=" ">
<polygon fill="#e0e0e0" stroke="#999999" points="1411,-134.5 1367,-134.5 1367,-115.5 1411,-115.5 1411,-134.5"/>
<text text-anchor="middle" x="1389" y="-122.5" font-family="Helvetica,sans-Serif" font-size="10.00">string</text>
</a>
</g>
</g>
<!-- Node1&#45;&gt;Node5 -->
<g id="edge4_Node000001_Node000005" class="edge">
<title>Node1&#45;&gt;Node5</title>
<g id="a_edge4_Node000001_Node000005"><a xlink:title=" ">
<path fill="none" stroke="#63b8ff" d="M1732.41,-505.72C1707.02,-440.91 1603.73,-177.44 1602,-176 1537.21,-122.22 1495.53,-167.66 1416,-140 1414.98,-139.64 1413.95,-139.26 1412.91,-138.84"/>
<polygon fill="#63b8ff" stroke="#63b8ff" points="1414.34,-135.65 1403.8,-134.64 1411.41,-142 1414.34,-135.65"/>
</a>
</g>
</g>
<!-- Node6 -->
<g id="Node000006" class="node">
<title>Node6</title>
<g id="a_Node000006"><a xlink:href="../../d2/dcd/task__with__result_8hpp.html" target="_top" xlink:title=" ">
<polygon fill="white" stroke="#666666" points="1150.5,-470 1029.5,-470 1029.5,-440 1150.5,-440 1150.5,-470"/>
<text text-anchor="start" x="1037.5" y="-458" font-family="Helvetica,sans-Serif" font-size="10.00">userver/engine/task</text>
<text text-anchor="middle" x="1090" y="-447" font-family="Helvetica,sans-Serif" font-size="10.00">/task_with_result.hpp</text>
</a>
</g>
</g>
<!-- Node1&#45;&gt;Node6 -->
<g id="edge5_Node000001_Node000006" class="edge">
<title>Node1&#45;&gt;Node6</title>
<g id="a_edge5_Node000001_Node000006"><a xlink:title=" ">
<path fill="none" stroke="#63b8ff" d="M1677.33,-514.01C1557.09,-502.13 1289.14,-475.67 1160.97,-463.01"/>
<polygon fill="#63b8ff" stroke="#63b8ff" points="1161.16,-459.51 1150.87,-462.01 1160.48,-466.48 1161.16,-459.51"/>
</a>
</g>
</g>
<!-- Node31 -->
<g id="Node000031" class="node">
<title>Node31</title>
<g id="a_Node000031"><a xlink:href="../../d1/dc9/not__null_8hpp.html" target="_top" xlink:title="Restricts a pointer or smart pointer to only hold non&#45;null values.">
<polygon fill="white" stroke="#666666" points="1816,-332.5 1676,-332.5 1676,-313.5 1816,-313.5 1816,-332.5"/>
<text text-anchor="middle" x="1746" y="-320.5" font-family="Helvetica,sans-Serif" font-size="10.00">userver/utils/not_null.hpp</text>
</a>
</g>
</g>
<!-- Node1&#45;&gt;Node31 -->
<g id="edge55_Node000001_Node000031" class="edge">
<title>Node1&#45;&gt;Node31</title>
<g id="a_edge55_Node000001_Node000031"><a xlink:title=" ">
<path fill="none" stroke="#63b8ff" d="M1738.58,-505.9C1739.99,-471.23 1743.64,-381.79 1745.24,-342.72"/>
<polygon fill="#63b8ff" stroke="#63b8ff" points="1748.73,-342.86 1745.64,-332.73 1741.74,-342.58 1748.73,-342.86"/>
</a>
</g>
</g>
<!-- Node32 -->
<g id="Node000032" class="node">
<title>Node32</title>
<g id="a_Node000032"><a xlink:href="../../d7/def/core_2include_2userver_2utils_2statistics_2fwd_8hpp.html" target="_top" xlink:title="Forward declarations for statistics entities.">
<polygon fill="white" stroke="#666666" points="1891.5,-404 1766.5,-404 1766.5,-374 1891.5,-374 1891.5,-404"/>
<text text-anchor="start" x="1774.5" y="-392" font-family="Helvetica,sans-Serif" font-size="10.00">userver/utils/statistics</text>
<text text-anchor="middle" x="1829" y="-381" font-family="Helvetica,sans-Serif" font-size="10.00">/fwd.hpp</text>
</a>
</g>
</g>
<!-- Node1&#45;&gt;Node32 -->
<g id="edge61_Node000001_Node000032" class="edge">
<title>Node1&#45;&gt;Node32</title>
<g id="a_edge61_Node000001_Node000032"><a xlink:title=" ">
<path fill="none" stroke="#63b8ff" d="M1747.91,-505.84C1763.64,-483.37 1794.45,-439.36 1813.23,-412.53"/>
<polygon fill="#63b8ff" stroke="#63b8ff" points="1816.23,-414.34 1819.1,-404.14 1810.5,-410.33 1816.23,-414.34"/>
</a>
</g>
</g>
<!-- Node33 -->
<g id="Node000033" class="node">
<title>Node33</title>
<g id="a_Node000033"><a xlink:href="../../d2/de3/coordination_8hpp_source.html" target="_top" xlink:title=" ">
<polygon fill="white" stroke="#666666" points="2288.5,-332.5 2129.5,-332.5 2129.5,-313.5 2288.5,-313.5 2288.5,-332.5"/>
<text text-anchor="middle" x="2209" y="-320.5" font-family="Helvetica,sans-Serif" font-size="10.00">userver/ydb/coordination.hpp</text>
</a>
</g>
</g>
<!-- Node1&#45;&gt;Node33 -->
<g id="edge63_Node000001_Node000033" class="edge">
<title>Node1&#45;&gt;Node33</title>
<g id="a_edge63_Node000001_Node000033"><a xlink:title=" ">
<path fill="none" stroke="#63b8ff" d="M1798.65,-516.03C1883.06,-509.68 2030.89,-495.3 2078,-470 2135.12,-439.33 2179.74,-373.52 2198.85,-341.81"/>
<polygon fill="#63b8ff" stroke="#63b8ff" points="2202.1,-343.19 2204.15,-332.8 2196.06,-339.65 2202.1,-343.19"/>
</a>
</g>
</g>
<!-- Node35 -->
<g id="Node000035" class="node">
<title>Node35</title>
<g id="a_Node000035"><a xlink:href="../../d3/d84/ydb_2include_2userver_2ydb_2dist__lock_2settings_8hpp.html" target="_top" xlink:title="A set of tweak&#45;able settings for ydb::DistLockWorker.">
<polygon fill="white" stroke="#666666" points="2069.5,-470 1948.5,-470 1948.5,-440 2069.5,-440 2069.5,-470"/>
<text text-anchor="start" x="1956.5" y="-458" font-family="Helvetica,sans-Serif" font-size="10.00">userver/ydb/dist_lock</text>
<text text-anchor="middle" x="2009" y="-447" font-family="Helvetica,sans-Serif" font-size="10.00">/settings.hpp</text>
</a>
</g>
</g>
<!-- Node1&#45;&gt;Node35 -->
<g id="edge67_Node000001_Node000035" class="edge">
<title>Node1&#45;&gt;Node35</title>
<g id="a_edge67_Node000001_Node000035"><a xlink:title=" ">
<path fill="none" stroke="#63b8ff" d="M1797.47,-505.95C1839.48,-496.03 1895.9,-482.71 1939.91,-472.32"/>
<polygon fill="#63b8ff" stroke="#63b8ff" points="1940.74,-475.72 1949.67,-470.01 1939.13,-468.9 1940.74,-475.72"/>
</a>
</g>
</g>
<!-- Node6&#45;&gt;Node4 -->
<g id="edge6_Node000006_Node000004" class="edge">
<title>Node6&#45;&gt;Node4</title>
<g id="a_edge6_Node000006_Node000004"><a xlink:title=" ">
<path fill="none" stroke="#63b8ff" d="M1150.68,-451.58C1306.94,-444.27 1718.36,-417.72 1825,-338 1844.88,-323.14 1854.8,-295.21 1859.41,-276.61"/>
<polygon fill="#63b8ff" stroke="#63b8ff" points="1862.87,-277.18 1861.6,-266.66 1856.03,-275.68 1862.87,-277.18"/>
</a>
</g>
</g>
<!-- Node7 -->
<g id="Node000007" class="node">
<title>Node7</title>
<g id="a_Node000007"><a xlink:title=" ">
<polygon fill="#e0e0e0" stroke="#999999" points="937.5,-200.5 872.5,-200.5 872.5,-181.5 937.5,-181.5 937.5,-200.5"/>
<text text-anchor="middle" x="905" y="-188.5" font-family="Helvetica,sans-Serif" font-size="10.00">stdexcept</text>
</a>
</g>
</g>
<!-- Node6&#45;&gt;Node7 -->
<g id="edge7_Node000006_Node000007" class="edge">
<title>Node6&#45;&gt;Node7</title>
<g id="a_edge7_Node000006_Node000007"><a xlink:title=" ">
<path fill="none" stroke="#63b8ff" d="M1034.52,-439.96C990.79,-428.38 936.04,-412.51 929,-404 882.05,-347.25 893.55,-250.76 901.03,-210.5"/>
<polygon fill="#63b8ff" stroke="#63b8ff" points="904.5,-211.01 903.03,-200.51 897.64,-209.64 904.5,-211.01"/>
</a>
</g>
</g>
<!-- Node8 -->
<g id="Node000008" class="node">
<title>Node8</title>
<g id="a_Node000008"><a xlink:title=" ">
<polygon fill="#e0e0e0" stroke="#999999" points="307.5,-200.5 262.5,-200.5 262.5,-181.5 307.5,-181.5 307.5,-200.5"/>
<text text-anchor="middle" x="285" y="-188.5" font-family="Helvetica,sans-Serif" font-size="10.00">utility</text>
</a>
</g>
</g>
<!-- Node6&#45;&gt;Node8 -->
<g id="edge8_Node000006_Node000008" class="edge">
<title>Node6&#45;&gt;Node8</title>
<g id="a_edge8_Node000006_Node000008"><a xlink:title=" ">
<path fill="none" stroke="#63b8ff" d="M1029.33,-441.66C1026.18,-441.08 1023.05,-440.53 1020,-440 909.8,-421.03 880.84,-424.94 771,-404 522.79,-356.69 374.44,-470.43 218,-272 199.24,-248.2 233.6,-221.35 259.67,-205.59"/>
<polygon fill="#63b8ff" stroke="#63b8ff" points="261.55,-208.55 268.45,-200.5 258.04,-202.49 261.55,-208.55"/>
</a>
</g>
</g>
<!-- Node9 -->
<g id="Node000009" class="node">
<title>Node9</title>
<g id="a_Node000009"><a xlink:href="../../d9/d27/core_2include_2userver_2engine_2exception_8hpp.html" target="_top" xlink:title="Coroutine engine exceptions.">
<polygon fill="white" stroke="#666666" points="1208.5,-266.5 1047.5,-266.5 1047.5,-247.5 1208.5,-247.5 1208.5,-266.5"/>
<text text-anchor="middle" x="1128" y="-254.5" font-family="Helvetica,sans-Serif" font-size="10.00">userver/engine/exception.hpp</text>
</a>
</g>
</g>
<!-- Node6&#45;&gt;Node9 -->
<g id="edge9_Node000006_Node000009" class="edge">
<title>Node6&#45;&gt;Node9</title>
<g id="a_edge9_Node000006_Node000009"><a xlink:title=" ">
<path fill="none" stroke="#63b8ff" d="M1100.54,-439.95C1107.11,-430.36 1115.05,-417.06 1119,-404 1132.31,-359.99 1131.29,-305.2 1129.56,-276.9"/>
<polygon fill="#63b8ff" stroke="#63b8ff" points="1133.04,-276.53 1128.84,-266.8 1126.06,-277.03 1133.04,-276.53"/>
</a>
</g>
</g>
<!-- Node15 -->
<g id="Node000015" class="node">
<title>Node15</title>
<g id="a_Node000015"><a xlink:href="../../d2/d54/assert_8hpp.html" target="_top" xlink:title="Assertion macros UASSERT, UASSERT_MSG, UINVARIANT.">
<polygon fill="white" stroke="#666666" points="1336.5,-74 1205.5,-74 1205.5,-55 1336.5,-55 1336.5,-74"/>
<text text-anchor="middle" x="1271" y="-62" font-family="Helvetica,sans-Serif" font-size="10.00">userver/utils/assert.hpp</text>
</a>
</g>
</g>
<!-- Node6&#45;&gt;Node15 -->
<g id="edge33_Node000006_Node000015" class="edge">
<title>Node6&#45;&gt;Node15</title>
<g id="a_edge33_Node000006_Node000015"><a xlink:title=" ">
<path fill="none" stroke="#63b8ff" d="M1037.33,-439.96C1006.18,-430.48 971.08,-417.3 962,-404 948.54,-384.29 926.22,-204.13 1026,-110 1049.98,-87.38 1132.34,-75.92 1195.01,-70.35"/>
<polygon fill="#63b8ff" stroke="#63b8ff" points="1195.61,-73.81 1205.28,-69.47 1195.02,-66.83 1195.61,-73.81"/>
</a>
</g>
</g>
<!-- Node17 -->
<g id="Node000017" class="node">
<title>Node17</title>
<g id="a_Node000017"><a xlink:href="../../d5/df2/task__context__holder_8hpp_source.html" target="_top" xlink:title=" ">
<polygon fill="white" stroke="#666666" points="1110.5,-404 971.5,-404 971.5,-374 1110.5,-374 1110.5,-404"/>
<text text-anchor="start" x="979.5" y="-392" font-family="Helvetica,sans-Serif" font-size="10.00">userver/engine/impl</text>
<text text-anchor="middle" x="1041" y="-381" font-family="Helvetica,sans-Serif" font-size="10.00">/task_context_holder.hpp</text>
</a>
</g>
</g>
<!-- Node6&#45;&gt;Node17 -->
<g id="edge19_Node000006_Node000017" class="edge">
<title>Node6&#45;&gt;Node17</title>
<g id="a_edge19_Node000006_Node000017"><a xlink:title=" ">
<path fill="none" stroke="#63b8ff" d="M1079.13,-439.8C1072.91,-431.68 1064.98,-421.31 1057.96,-412.15"/>
<polygon fill="#63b8ff" stroke="#63b8ff" points="1060.7,-409.98 1051.84,-404.16 1055.14,-414.23 1060.7,-409.98"/>
</a>
</g>
</g>
<!-- Node18 -->
<g id="Node000018" class="node">
<title>Node18</title>
<g id="a_Node000018"><a xlink:href="../../d8/da1/task_8hpp.html" target="_top" xlink:title="Asynchronous task that has a unique ownership of the payload.">
<polygon fill="white" stroke="#666666" points="1324.5,-404 1211.5,-404 1211.5,-374 1324.5,-374 1324.5,-404"/>
<text text-anchor="start" x="1219.5" y="-392" font-family="Helvetica,sans-Serif" font-size="10.00">userver/engine/task</text>
<text text-anchor="middle" x="1268" y="-381" font-family="Helvetica,sans-Serif" font-size="10.00">/task.hpp</text>
</a>
</g>
</g>
<!-- Node6&#45;&gt;Node18 -->
<g id="edge21_Node000006_Node000018" class="edge">
<title>Node6&#45;&gt;Node18</title>
<g id="a_edge21_Node000006_Node000018"><a xlink:title=" ">
<path fill="none" stroke="#63b8ff" d="M1129.06,-439.95C1155.61,-430.41 1190.92,-417.71 1219.3,-407.51"/>
<polygon fill="#63b8ff" stroke="#63b8ff" points="1220.8,-410.69 1229.03,-404.01 1218.43,-404.1 1220.8,-410.69"/>
</a>
</g>
</g>
<!-- Node20 -->
<g id="Node000020" class="node">
<title>Node20</title>
<g id="a_Node000020"><a xlink:href="../../d8/d03/task__processor__fwd_8hpp.html" target="_top" xlink:title=" ">
<polygon fill="white" stroke="#666666" points="1554.5,-272 1417.5,-272 1417.5,-242 1554.5,-242 1554.5,-272"/>
<text text-anchor="start" x="1425.5" y="-260" font-family="Helvetica,sans-Serif" font-size="10.00">userver/engine/task</text>
<text text-anchor="middle" x="1486" y="-249" font-family="Helvetica,sans-Serif" font-size="10.00">/task_processor_fwd.hpp</text>
</a>
</g>
</g>
<!-- Node6&#45;&gt;Node20 -->
<g id="edge32_Node000006_Node000020" class="edge">
<title>Node6&#45;&gt;Node20</title>
<g id="a_edge32_Node000006_Node000020"><a xlink:title=" ">
<path fill="none" stroke="#63b8ff" d="M1150.54,-450.85C1201.69,-446.07 1275.58,-434.07 1333,-404 1391.82,-373.19 1443.89,-313.06 1469.39,-280.4"/>
<polygon fill="#63b8ff" stroke="#63b8ff" points="1472.26,-282.41 1475.58,-272.34 1466.71,-278.14 1472.26,-282.41"/>
</a>
</g>
</g>
<!-- Node21 -->
<g id="Node000021" class="node">
<title>Node21</title>
<g id="a_Node000021"><a xlink:href="../../d4/db6/fast__scope__guard_8hpp.html" target="_top" xlink:title="a helper class to perform actions on scope exit">
<polygon fill="white" stroke="#666666" points="104,-272 0,-272 0,-242 104,-242 104,-272"/>
<text text-anchor="start" x="8" y="-260" font-family="Helvetica,sans-Serif" font-size="10.00">userver/utils/fast</text>
<text text-anchor="middle" x="52" y="-249" font-family="Helvetica,sans-Serif" font-size="10.00">_scope_guard.hpp</text>
</a>
</g>
</g>
<!-- Node6&#45;&gt;Node21 -->
<g id="edge34_Node000006_Node000021" class="edge">
<title>Node6&#45;&gt;Node21</title>
<g id="a_edge34_Node000006_Node000021"><a xlink:title=" ">
<path fill="none" stroke="#63b8ff" d="M1029.39,-441.28C1026.22,-440.8 1023.08,-440.37 1020,-440 924.6,-428.54 240.47,-449.79 156,-404 106.66,-377.25 75.22,-315.73 60.95,-281.71"/>
<polygon fill="#63b8ff" stroke="#63b8ff" points="64.06,-280.06 57.07,-272.1 57.57,-282.68 64.06,-280.06"/>
</a>
</g>
</g>
<!-- Node22 -->
<g id="Node000022" class="node">
<title>Node22</title>
<g id="a_Node000022"><a xlink:href="../../d9/d1c/wrapped__call_8hpp.html" target="_top" xlink:title="std::packaged_task replacement with noncopyable types support">
<polygon fill="white" stroke="#666666" points="607.5,-338 502.5,-338 502.5,-308 607.5,-308 607.5,-338"/>
<text text-anchor="start" x="510.5" y="-326" font-family="Helvetica,sans-Serif" font-size="10.00">userver/utils/impl</text>
<text text-anchor="middle" x="555" y="-315" font-family="Helvetica,sans-Serif" font-size="10.00">/wrapped_call.hpp</text>
</a>
</g>
</g>
<!-- Node6&#45;&gt;Node22 -->
<g id="edge37_Node000006_Node000022" class="edge">
<title>Node6&#45;&gt;Node22</title>
<g id="a_edge37_Node000006_Node000022"><a xlink:title=" ">
<path fill="none" stroke="#63b8ff" d="M1032.24,-439.96C930.94,-415.35 722.11,-364.61 617.54,-339.2"/>
<polygon fill="#63b8ff" stroke="#63b8ff" points="618.29,-335.78 607.75,-336.82 616.64,-342.58 618.29,-335.78"/>
</a>
</g>
</g>
<!-- Node9&#45;&gt;Node7 -->
<g id="edge10_Node000009_Node000007" class="edge">
<title>Node9&#45;&gt;Node7</title>
<g id="a_edge10_Node000009_Node000007"><a xlink:title=" ">
<path fill="none" stroke="#63b8ff" d="M1097.93,-247.37C1058.33,-236 988.61,-216 944.71,-203.4"/>
<polygon fill="#63b8ff" stroke="#63b8ff" points="945.53,-199.99 934.95,-200.6 943.6,-206.72 945.53,-199.99"/>
</a>
</g>
</g>
<!-- Node10 -->
<g id="Node000010" class="node">
<title>Node10</title>
<g id="a_Node000010"><a xlink:href="../../db/df2/cancel_8hpp.html" target="_top" xlink:title="Task cancellation helpers.">
<polygon fill="white" stroke="#666666" points="1284.5,-206 1171.5,-206 1171.5,-176 1284.5,-176 1284.5,-206"/>
<text text-anchor="start" x="1179.5" y="-194" font-family="Helvetica,sans-Serif" font-size="10.00">userver/engine/task</text>
<text text-anchor="middle" x="1228" y="-183" font-family="Helvetica,sans-Serif" font-size="10.00">/cancel.hpp</text>
</a>
</g>
</g>
<!-- Node9&#45;&gt;Node10 -->
<g id="edge11_Node000009_Node000010" class="edge">
<title>Node9&#45;&gt;Node10</title>
<g id="a_edge11_Node000009_Node000010"><a xlink:title=" ">
<path fill="none" stroke="#63b8ff" d="M1141.49,-247.37C1155.75,-238.24 1178.74,-223.53 1197.44,-211.56"/>
<polygon fill="#63b8ff" stroke="#63b8ff" points="1199.41,-214.45 1205.94,-206.12 1195.63,-208.56 1199.41,-214.45"/>
</a>
</g>
</g>
<!-- Node10&#45;&gt;Node5 -->
<g id="edge12_Node000010_Node000005" class="edge">
<title>Node10&#45;&gt;Node5</title>
<g id="a_edge12_Node000010_Node000005"><a xlink:title=" ">
<path fill="none" stroke="#63b8ff" d="M1265.42,-175.98C1291.26,-166.18 1326.36,-152.64 1357,-140 1358.17,-139.52 1359.36,-139.02 1360.55,-138.52"/>
<polygon fill="#63b8ff" stroke="#63b8ff" points="1361.95,-141.73 1369.77,-134.57 1359.2,-135.29 1361.95,-141.73"/>
</a>
</g>
</g>
<!-- Node11 -->
<g id="Node000011" class="node">
<title>Node11</title>
<g id="a_Node000011"><a xlink:title=" ">
<polygon fill="#e0e0e0" stroke="#999999" points="1175,-140 1035,-140 1035,-110 1175,-110 1175,-140"/>
<text text-anchor="start" x="1043" y="-128" font-family="Helvetica,sans-Serif" font-size="10.00">boost/smart_ptr/intrusive</text>
<text text-anchor="middle" x="1105" y="-117" font-family="Helvetica,sans-Serif" font-size="10.00">_ptr.hpp</text>
</a>
</g>
</g>
<!-- Node10&#45;&gt;Node11 -->
<g id="edge13_Node000010_Node000011" class="edge">
<title>Node10&#45;&gt;Node11</title>
<g id="a_edge13_Node000010_Node000011"><a xlink:title=" ">
<path fill="none" stroke="#63b8ff" d="M1201.01,-175.95C1183.38,-166.78 1160.17,-154.71 1140.98,-144.72"/>
<polygon fill="#63b8ff" stroke="#63b8ff" points="1142.42,-141.52 1131.93,-140.01 1139.19,-147.73 1142.42,-141.52"/>
</a>
</g>
</g>
<!-- Node12 -->
<g id="Node000012" class="node">
<title>Node12</title>
<g id="a_Node000012"><a xlink:href="../../d2/d22/deadline_8hpp.html" target="_top" xlink:title="Internal representation of a deadline time point.">
<polygon fill="white" stroke="#666666" points="1348.5,-134.5 1193.5,-134.5 1193.5,-115.5 1348.5,-115.5 1348.5,-134.5"/>
<text text-anchor="middle" x="1271" y="-122.5" font-family="Helvetica,sans-Serif" font-size="10.00">userver/engine/deadline.hpp</text>
</a>
</g>
</g>
<!-- Node10&#45;&gt;Node12 -->
<g id="edge14_Node000010_Node000012" class="edge">
<title>Node10&#45;&gt;Node12</title>
<g id="a_edge14_Node000010_Node000012"><a xlink:title=" ">
<path fill="none" stroke="#63b8ff" d="M1237.54,-175.8C1243.98,-166.21 1252.52,-153.5 1259.36,-143.32"/>
<polygon fill="#63b8ff" stroke="#63b8ff" points="1262.39,-145.1 1265.06,-134.84 1256.58,-141.19 1262.39,-145.1"/>
</a>
</g>
</g>
<!-- Node13 -->
<g id="Node000013" class="node">
<title>Node13</title>
<g id="a_Node000013"><a xlink:title=" ">
<polygon fill="#e0e0e0" stroke="#999999" points="1836,-74 1786,-74 1786,-55 1836,-55 1836,-74"/>
<text text-anchor="middle" x="1811" y="-62" font-family="Helvetica,sans-Serif" font-size="10.00">chrono</text>
</a>
</g>
</g>
<!-- Node12&#45;&gt;Node13 -->
<g id="edge15_Node000012_Node000013" class="edge">
<title>Node12&#45;&gt;Node13</title>
<g id="a_edge15_Node000012_Node000013"><a xlink:title=" ">
<path fill="none" stroke="#63b8ff" d="M1320.61,-115.48C1332.81,-113.53 1345.86,-111.57 1358,-110 1513.31,-89.89 1699.64,-74.25 1775.88,-68.21"/>
<polygon fill="#63b8ff" stroke="#63b8ff" points="1776.2,-71.69 1785.89,-67.42 1775.65,-64.72 1776.2,-71.69"/>
</a>
</g>
</g>
<!-- Node14 -->
<g id="Node000014" class="node">
<title>Node14</title>
<g id="a_Node000014"><a xlink:title=" ">
<polygon fill="#e0e0e0" stroke="#999999" points="447.5,-74 378.5,-74 378.5,-55 447.5,-55 447.5,-74"/>
<text text-anchor="middle" x="413" y="-62" font-family="Helvetica,sans-Serif" font-size="10.00">type_traits</text>
</a>
</g>
</g>
<!-- Node12&#45;&gt;Node14 -->
<g id="edge16_Node000012_Node000014" class="edge">
<title>Node12&#45;&gt;Node14</title>
<g id="a_edge16_Node000012_Node000014"><a xlink:title=" ">
<path fill="none" stroke="#63b8ff" d="M1223.71,-115.49C1210.86,-113.43 1196.93,-111.41 1184,-110 909.06,-80.02 576.62,-69.46 457.85,-66.49"/>
<polygon fill="#63b8ff" stroke="#63b8ff" points="457.77,-62.99 447.68,-66.24 457.6,-69.99 457.77,-62.99"/>
</a>
</g>
</g>
<!-- Node12&#45;&gt;Node15 -->
<g id="edge17_Node000012_Node000015" class="edge">
<title>Node12&#45;&gt;Node15</title>
<g id="a_edge17_Node000012_Node000015"><a xlink:title=" ">
<path fill="none" stroke="#63b8ff" d="M1271,-115.37C1271,-107.25 1271,-94.81 1271,-84.39"/>
<polygon fill="#63b8ff" stroke="#63b8ff" points="1274.5,-84.17 1271,-74.17 1267.5,-84.17 1274.5,-84.17"/>
</a>
</g>
</g>
<!-- Node16 -->
<g id="Node000016" class="node">
<title>Node16</title>
<g id="a_Node000016"><a xlink:title=" ">
<polygon fill="#e0e0e0" stroke="#999999" points="1751.5,-19 1678.5,-19 1678.5,0 1751.5,0 1751.5,-19"/>
<text text-anchor="middle" x="1715" y="-7" font-family="Helvetica,sans-Serif" font-size="10.00">string_view</text>
</a>
</g>
</g>
<!-- Node15&#45;&gt;Node16 -->
<g id="edge18_Node000015_Node000016" class="edge">
<title>Node15&#45;&gt;Node16</title>
<g id="a_edge18_Node000015_Node000016"><a xlink:title=" ">
<path fill="none" stroke="#63b8ff" d="M1336.51,-55.68C1427.13,-44.86 1588.5,-25.6 1668.04,-16.11"/>
<polygon fill="#63b8ff" stroke="#63b8ff" points="1668.73,-19.55 1678.24,-14.89 1667.9,-12.6 1668.73,-19.55"/>
</a>
</g>
</g>
<!-- Node17&#45;&gt;Node11 -->
<g id="edge20_Node000017_Node000011" class="edge">
<title>Node17&#45;&gt;Node11</title>
<g id="a_edge20_Node000017_Node000011"><a xlink:title=" ">
<path fill="none" stroke="#63b8ff" d="M1038.09,-373.59C1033.3,-347.02 1025.46,-288.77 1038,-242 1047.52,-206.5 1070.81,-170.63 1087.25,-148.37"/>
<polygon fill="#63b8ff" stroke="#63b8ff" points="1090.15,-150.34 1093.39,-140.26 1084.56,-146.12 1090.15,-150.34"/>
</a>
</g>
</g>
<!-- Node19 -->
<g id="Node000019" class="node">
<title>Node19</title>
<g id="a_Node000019"><a xlink:href="../../d9/d72/task__base_8hpp.html" target="_top" xlink:title="Base class for all the asynchronous tasks (engine::Task, engine::SharedTask, engine::SharedTaskWithRe...">
<polygon fill="white" stroke="#666666" points="1369.5,-338 1256.5,-338 1256.5,-308 1369.5,-308 1369.5,-338"/>
<text text-anchor="start" x="1264.5" y="-326" font-family="Helvetica,sans-Serif" font-size="10.00">userver/engine/task</text>
<text text-anchor="middle" x="1313" y="-315" font-family="Helvetica,sans-Serif" font-size="10.00">/task_base.hpp</text>
</a>
</g>
</g>
<!-- Node18&#45;&gt;Node19 -->
<g id="edge22_Node000018_Node000019" class="edge">
<title>Node18&#45;&gt;Node19</title>
<g id="a_edge22_Node000018_Node000019"><a xlink:title=" ">
<path fill="none" stroke="#63b8ff" d="M1277.99,-373.8C1283.64,-365.76 1290.83,-355.53 1297.23,-346.43"/>
<polygon fill="#63b8ff" stroke="#63b8ff" points="1300.15,-348.36 1303.04,-338.16 1294.43,-344.33 1300.15,-348.36"/>
</a>
</g>
</g>
<!-- Node19&#45;&gt;Node4 -->
<g id="edge24_Node000019_Node000004" class="edge">
<title>Node19&#45;&gt;Node4</title>
<g id="a_edge24_Node000019_Node000004"><a xlink:title=" ">
<path fill="none" stroke="#63b8ff" d="M1369.53,-315.42C1481.3,-302.42 1727.98,-273.71 1823.83,-262.56"/>
<polygon fill="#63b8ff" stroke="#63b8ff" points="1824.43,-266.01 1833.96,-261.38 1823.63,-259.06 1824.43,-266.01"/>
</a>
</g>
</g>
<!-- Node19&#45;&gt;Node5 -->
<g id="edge25_Node000019_Node000005" class="edge">
<title>Node19&#45;&gt;Node5</title>
<g id="a_edge25_Node000019_Node000005"><a xlink:title=" ">
<path fill="none" stroke="#63b8ff" d="M1318.47,-307.9C1331.97,-273.08 1366.89,-183.02 1381.93,-144.22"/>
<polygon fill="#63b8ff" stroke="#63b8ff" points="1385.26,-145.32 1385.62,-134.73 1378.74,-142.78 1385.26,-145.32"/>
</a>
</g>
</g>
<!-- Node19&#45;&gt;Node9 -->
<g id="edge28_Node000019_Node000009" class="edge">
<title>Node19&#45;&gt;Node9</title>
<g id="a_edge28_Node000019_Node000009"><a xlink:title=" ">
<path fill="none" stroke="#63b8ff" d="M1272.4,-307.95C1239.39,-296.53 1193.33,-280.6 1162.18,-269.82"/>
<polygon fill="#63b8ff" stroke="#63b8ff" points="1163.22,-266.48 1152.62,-266.52 1160.93,-273.09 1163.22,-266.48"/>
</a>
</g>
</g>
<!-- Node19&#45;&gt;Node10 -->
<g id="edge29_Node000019_Node000010" class="edge">
<title>Node19&#45;&gt;Node10</title>
<g id="a_edge29_Node000019_Node000010"><a xlink:title=" ">
<path fill="none" stroke="#63b8ff" d="M1303.74,-307.84C1289.05,-285.37 1260.28,-241.36 1242.73,-214.53"/>
<polygon fill="#63b8ff" stroke="#63b8ff" points="1245.65,-212.6 1237.25,-206.14 1239.79,-216.43 1245.65,-212.6"/>
</a>
</g>
</g>
<!-- Node19&#45;&gt;Node11 -->
<g id="edge26_Node000019_Node000011" class="edge">
<title>Node19&#45;&gt;Node11</title>
<g id="a_edge26_Node000019_Node000011"><a xlink:title=" ">
<path fill="none" stroke="#63b8ff" d="M1297.15,-307.83C1278.49,-291.36 1246.3,-263.68 1217,-242 1193.52,-224.62 1183.06,-226.25 1162,-206 1144.36,-189.05 1128.6,-165.98 1118.14,-148.97"/>
<polygon fill="#63b8ff" stroke="#63b8ff" points="1121.04,-147 1112.9,-140.22 1115.04,-150.59 1121.04,-147"/>
</a>
</g>
</g>
<!-- Node19&#45;&gt;Node12 -->
<g id="edge27_Node000019_Node000012" class="edge">
<title>Node19&#45;&gt;Node12</title>
<g id="a_edge27_Node000019_Node000012"><a xlink:title=" ">
<path fill="none" stroke="#63b8ff" d="M1312.36,-307.64C1310.88,-281.15 1306.28,-223.02 1293,-176 1289.86,-164.87 1284.72,-153.01 1280.2,-143.63"/>
<polygon fill="#63b8ff" stroke="#63b8ff" points="1283.27,-141.95 1275.66,-134.58 1277.01,-145.08 1283.27,-141.95"/>
</a>
</g>
</g>
<!-- Node19&#45;&gt;Node13 -->
<g id="edge23_Node000019_Node000013" class="edge">
<title>Node19&#45;&gt;Node13</title>
<g id="a_edge23_Node000019_Node000013"><a xlink:title=" ">
<path fill="none" stroke="#63b8ff" d="M1328.17,-307.88C1346.41,-291.22 1378.3,-263.12 1408,-242 1454.77,-208.74 1467.3,-200.92 1519,-176 1608.87,-132.69 1720.44,-94.54 1776.06,-76.52"/>
<polygon fill="#63b8ff" stroke="#63b8ff" points="1777.33,-79.79 1785.78,-73.39 1775.19,-73.12 1777.33,-79.79"/>
</a>
</g>
</g>
<!-- Node19&#45;&gt;Node20 -->
<g id="edge30_Node000019_Node000020" class="edge">
<title>Node19&#45;&gt;Node20</title>
<g id="a_edge30_Node000019_Node000020"><a xlink:title=" ">
<path fill="none" stroke="#63b8ff" d="M1350.97,-307.95C1376.77,-298.41 1411.09,-285.71 1438.67,-275.51"/>
<polygon fill="#63b8ff" stroke="#63b8ff" points="1439.96,-278.76 1448.12,-272.01 1437.53,-272.2 1439.96,-278.76"/>
</a>
</g>
</g>
<!-- Node20&#45;&gt;Node3 -->
<g id="edge31_Node000020_Node000003" class="edge">
<title>Node20&#45;&gt;Node3</title>
<g id="a_edge31_Node000020_Node000003"><a xlink:title=" ">
<path fill="none" stroke="#63b8ff" d="M1502.64,-241.8C1514.57,-231.62 1530.61,-217.93 1542.86,-207.48"/>
<polygon fill="#63b8ff" stroke="#63b8ff" points="1545.3,-210 1550.64,-200.84 1540.76,-204.67 1545.3,-210"/>
</a>
</g>
</g>
<!-- Node21&#45;&gt;Node8 -->
<g id="edge36_Node000021_Node000008" class="edge">
<title>Node21&#45;&gt;Node8</title>
<g id="a_edge36_Node000021_Node000008"><a xlink:title=" ">
<path fill="none" stroke="#63b8ff" d="M103.13,-241.95C148.63,-229.46 213.8,-211.56 252.52,-200.92"/>
<polygon fill="#63b8ff" stroke="#63b8ff" points="253.51,-204.28 262.23,-198.25 251.66,-197.53 253.51,-204.28"/>
</a>
</g>
</g>
<!-- Node21&#45;&gt;Node14 -->
<g id="edge35_Node000021_Node000014" class="edge">
<title>Node21&#45;&gt;Node14</title>
<g id="a_edge35_Node000021_Node000014"><a xlink:title=" ">
<path fill="none" stroke="#63b8ff" d="M53.94,-241.58C58.78,-211.7 74.31,-143.08 118,-110 156.52,-80.84 295.59,-70.55 368.18,-67.11"/>
<polygon fill="#63b8ff" stroke="#63b8ff" points="368.55,-70.6 378.39,-66.65 368.24,-63.6 368.55,-70.6"/>
</a>
</g>
</g>
<!-- Node22&#45;&gt;Node3 -->
<g id="edge39_Node000022_Node000003" class="edge">
<title>Node22&#45;&gt;Node3</title>
<g id="a_edge39_Node000022_Node000003"><a xlink:title=" ">
<path fill="none" stroke="#63b8ff" d="M607.61,-314.54C672.13,-305.24 784.79,-288.56 881,-272 951.01,-259.95 967.68,-252.06 1038,-242 1215.62,-216.6 1429.07,-200.71 1518.42,-194.72"/>
<polygon fill="#63b8ff" stroke="#63b8ff" points="1518.69,-198.21 1528.44,-194.05 1518.23,-191.22 1518.69,-198.21"/>
</a>
</g>
</g>
<!-- Node22&#45;&gt;Node8 -->
<g id="edge44_Node000022_Node000008" class="edge">
<title>Node22&#45;&gt;Node8</title>
<g id="a_edge44_Node000022_Node000008"><a xlink:title=" ">
<path fill="none" stroke="#63b8ff" d="M502.33,-321.94C418.82,-320.59 261.86,-312.58 227,-272 208.26,-250.19 238.92,-222.65 262.32,-206.23"/>
<polygon fill="#63b8ff" stroke="#63b8ff" points="264.47,-209 270.82,-200.52 260.57,-203.19 264.47,-209"/>
</a>
</g>
</g>
<!-- Node22&#45;&gt;Node14 -->
<g id="edge43_Node000022_Node000014" class="edge">
<title>Node22&#45;&gt;Node14</title>
<g id="a_edge43_Node000022_Node000014"><a xlink:title=" ">
<path fill="none" stroke="#63b8ff" d="M502.28,-322.18C416.85,-321.23 254.07,-313.82 218,-272 152.46,-196.02 314.33,-110.35 383.48,-78.41"/>
<polygon fill="#63b8ff" stroke="#63b8ff" points="385.32,-81.42 392.98,-74.09 382.42,-75.05 385.32,-81.42"/>
</a>
</g>
</g>
<!-- Node22&#45;&gt;Node15 -->
<g id="edge45_Node000022_Node000015" class="edge">
<title>Node22&#45;&gt;Node15</title>
<g id="a_edge45_Node000022_Node000015"><a xlink:title=" ">
<path fill="none" stroke="#63b8ff" d="M607.64,-318.51C677.38,-312.88 795.42,-299.51 828,-272 862.7,-242.7 835.84,-212.39 863,-176 892.45,-136.53 906.42,-128.65 952,-110 1030.72,-77.79 1128.52,-68.15 1194.93,-65.62"/>
<polygon fill="#63b8ff" stroke="#63b8ff" points="1195.43,-69.11 1205.31,-65.28 1195.2,-62.11 1195.43,-69.11"/>
</a>
</g>
</g>
<!-- Node23 -->
<g id="Node000023" class="node">
<title>Node23</title>
<g id="a_Node000023"><a xlink:title=" ">
<polygon fill="#e0e0e0" stroke="#999999" points="289.5,-266.5 236.5,-266.5 236.5,-247.5 289.5,-247.5 289.5,-266.5"/>
<text text-anchor="middle" x="263" y="-254.5" font-family="Helvetica,sans-Serif" font-size="10.00">cstddef</text>
</a>
</g>
</g>
<!-- Node22&#45;&gt;Node23 -->
<g id="edge38_Node000022_Node000023" class="edge">
<title>Node22&#45;&gt;Node23</title>
<g id="a_edge38_Node000022_Node000023"><a xlink:title=" ">
<path fill="none" stroke="#63b8ff" d="M502.13,-314.7C449.68,-306.76 367.33,-292.41 298,-272 296.07,-271.43 294.1,-270.8 292.12,-270.12"/>
<polygon fill="#63b8ff" stroke="#63b8ff" points="292.99,-266.71 282.39,-266.51 290.55,-273.27 292.99,-266.71"/>
</a>
</g>
</g>
<!-- Node24 -->
<g id="Node000024" class="node">
<title>Node24</title>
<g id="a_Node000024"><a xlink:title=" ">
<polygon fill="#e0e0e0" stroke="#999999" points="344.5,-266.5 307.5,-266.5 307.5,-247.5 344.5,-247.5 344.5,-266.5"/>
<text text-anchor="middle" x="326" y="-254.5" font-family="Helvetica,sans-Serif" font-size="10.00">new</text>
</a>
</g>
</g>
<!-- Node22&#45;&gt;Node24 -->
<g id="edge40_Node000022_Node000024" class="edge">
<title>Node22&#45;&gt;Node24</title>
<g id="a_edge40_Node000022_Node000024"><a xlink:title=" ">
<path fill="none" stroke="#63b8ff" d="M502.08,-312.46C460.71,-304.16 402.19,-290.54 353,-272 352.14,-271.67 351.26,-271.33 350.39,-270.96"/>
<polygon fill="#63b8ff" stroke="#63b8ff" points="351.67,-267.7 341.13,-266.64 348.71,-274.04 351.67,-267.7"/>
</a>
</g>
</g>
<!-- Node25 -->
<g id="Node000025" class="node">
<title>Node25</title>
<g id="a_Node000025"><a xlink:title=" ">
<polygon fill="#e0e0e0" stroke="#999999" points="816,-200.5 760,-200.5 760,-181.5 816,-181.5 816,-200.5"/>
<text text-anchor="middle" x="788" y="-188.5" font-family="Helvetica,sans-Serif" font-size="10.00">optional</text>
</a>
</g>
</g>
<!-- Node22&#45;&gt;Node25 -->
<g id="edge41_Node000022_Node000025" class="edge">
<title>Node22&#45;&gt;Node25</title>
<g id="a_edge41_Node000022_Node000025"><a xlink:title=" ">
<path fill="none" stroke="#63b8ff" d="M607.61,-319.32C674.65,-314.69 784.88,-302.52 810,-272 824.75,-254.08 812.21,-227.02 800.9,-209.42"/>
<polygon fill="#63b8ff" stroke="#63b8ff" points="803.47,-206.99 794.92,-200.74 797.71,-210.97 803.47,-206.99"/>
</a>
</g>
</g>
<!-- Node26 -->
<g id="Node000026" class="node">
<title>Node26</title>
<g id="a_Node000026"><a xlink:title=" ">
<polygon fill="#e0e0e0" stroke="#999999" points="522.5,-266.5 481.5,-266.5 481.5,-247.5 522.5,-247.5 522.5,-266.5"/>
<text text-anchor="middle" x="502" y="-254.5" font-family="Helvetica,sans-Serif" font-size="10.00">tuple</text>
</a>
</g>
</g>
<!-- Node22&#45;&gt;Node26 -->
<g id="edge42_Node000022_Node000026" class="edge">
<title>Node22&#45;&gt;Node26</title>
<g id="a_edge42_Node000022_Node000026"><a xlink:title=" ">
<path fill="none" stroke="#63b8ff" d="M543.24,-307.8C535.14,-298.01 524.34,-284.98 515.83,-274.7"/>
<polygon fill="#63b8ff" stroke="#63b8ff" points="518.4,-272.31 509.32,-266.84 513.01,-276.78 518.4,-272.31"/>
</a>
</g>
</g>
<!-- Node27 -->
<g id="Node000027" class="node">
<title>Node27</title>
<g id="a_Node000027"><a xlink:href="../../d8/d72/wrapped__call__base_8hpp_source.html" target="_top" xlink:title=" ">
<polygon fill="white" stroke="#666666" points="675,-272 541,-272 541,-242 675,-242 675,-272"/>
<text text-anchor="start" x="549" y="-260" font-family="Helvetica,sans-Serif" font-size="10.00">userver/utils/impl</text>
<text text-anchor="middle" x="608" y="-249" font-family="Helvetica,sans-Serif" font-size="10.00">/wrapped_call_base.hpp</text>
</a>
</g>
</g>
<!-- Node22&#45;&gt;Node27 -->
<g id="edge46_Node000022_Node000027" class="edge">
<title>Node22&#45;&gt;Node27</title>
<g id="a_edge46_Node000022_Node000027"><a xlink:title=" ">
<path fill="none" stroke="#63b8ff" d="M566.76,-307.8C573.56,-299.59 582.24,-289.1 589.89,-279.87"/>
<polygon fill="#63b8ff" stroke="#63b8ff" points="592.59,-282.1 596.27,-272.16 587.2,-277.63 592.59,-282.1"/>
</a>
</g>
</g>
<!-- Node28 -->
<g id="Node000028" class="node">
<title>Node28</title>
<g id="a_Node000028"><a xlink:href="../../d3/d89/lazy__prvalue_8hpp.html" target="_top" xlink:title="Can be used with various emplace functions to allow in&#45;place constructing a non&#45;movable value using a...">
<polygon fill="white" stroke="#666666" points="463.5,-272 362.5,-272 362.5,-242 463.5,-242 463.5,-272"/>
<text text-anchor="start" x="370.5" y="-260" font-family="Helvetica,sans-Serif" font-size="10.00">userver/utils/lazy</text>
<text text-anchor="middle" x="413" y="-249" font-family="Helvetica,sans-Serif" font-size="10.00">_prvalue.hpp</text>
</a>
</g>
</g>
<!-- Node22&#45;&gt;Node28 -->
<g id="edge47_Node000022_Node000028" class="edge">
<title>Node22&#45;&gt;Node28</title>
<g id="a_edge47_Node000022_Node000028"><a xlink:title=" ">
<path fill="none" stroke="#63b8ff" d="M523.84,-307.95C503.12,-298.62 475.71,-286.27 453.34,-276.18"/>
<polygon fill="#63b8ff" stroke="#63b8ff" points="454.64,-272.93 444.09,-272.01 451.77,-279.31 454.64,-272.93"/>
</a>
</g>
</g>
<!-- Node29 -->
<g id="Node000029" class="node">
<title>Node29</title>
<g id="a_Node000029"><a xlink:href="../../d8/df1/result__store_8hpp.html" target="_top" xlink:title=" ">
<polygon fill="white" stroke="#666666" points="801,-272 693,-272 693,-242 801,-242 801,-272"/>
<text text-anchor="start" x="701" y="-260" font-family="Helvetica,sans-Serif" font-size="10.00">userver/utils/result</text>
<text text-anchor="middle" x="747" y="-249" font-family="Helvetica,sans-Serif" font-size="10.00">_store.hpp</text>
</a>
</g>
</g>
<!-- Node22&#45;&gt;Node29 -->
<g id="edge50_Node000022_Node000029" class="edge">
<title>Node22&#45;&gt;Node29</title>
<g id="a_edge50_Node000022_Node000029"><a xlink:title=" ">
<path fill="none" stroke="#63b8ff" d="M597.14,-307.95C626.02,-298.33 664.53,-285.49 695.27,-275.24"/>
<polygon fill="#63b8ff" stroke="#63b8ff" points="696.58,-278.5 704.96,-272.01 694.37,-271.85 696.58,-278.5"/>
</a>
</g>
</g>
<!-- Node28&#45;&gt;Node8 -->
<g id="edge49_Node000028_Node000008" class="edge">
<title>Node28&#45;&gt;Node8</title>
<g id="a_edge49_Node000028_Node000008"><a xlink:title=" ">
<path fill="none" stroke="#63b8ff" d="M384.91,-241.95C362.96,-230.98 332.67,-215.83 311.21,-205.11"/>
<polygon fill="#63b8ff" stroke="#63b8ff" points="312.54,-201.86 302.03,-200.52 309.41,-208.12 312.54,-201.86"/>
</a>
</g>
</g>
<!-- Node28&#45;&gt;Node14 -->
<g id="edge48_Node000028_Node000014" class="edge">
<title>Node28&#45;&gt;Node14</title>
<g id="a_edge48_Node000028_Node000014"><a xlink:title=" ">
<path fill="none" stroke="#63b8ff" d="M413,-241.99C413,-208.35 413,-122.97 413,-84.64"/>
<polygon fill="#63b8ff" stroke="#63b8ff" points="416.5,-84.36 413,-74.36 409.5,-84.36 416.5,-84.36"/>
</a>
</g>
</g>
<!-- Node29&#45;&gt;Node7 -->
<g id="edge53_Node000029_Node000007" class="edge">
<title>Node29&#45;&gt;Node7</title>
<g id="a_edge53_Node000029_Node000007"><a xlink:title=" ">
<path fill="none" stroke="#63b8ff" d="M781.67,-241.95C809.38,-230.73 847.85,-215.15 874.42,-204.39"/>
<polygon fill="#63b8ff" stroke="#63b8ff" points="876.02,-207.52 883.97,-200.52 873.39,-201.03 876.02,-207.52"/>
</a>
</g>
</g>
<!-- Node29&#45;&gt;Node8 -->
<g id="edge54_Node000029_Node000008" class="edge">
<title>Node29&#45;&gt;Node8</title>
<g id="a_edge54_Node000029_Node000008"><a xlink:title=" ">
<path fill="none" stroke="#63b8ff" d="M692.77,-243.61C689.81,-243.04 686.87,-242.5 684,-242 548.84,-218.57 386.11,-201.65 317.75,-195.05"/>
<polygon fill="#63b8ff" stroke="#63b8ff" points="317.9,-191.55 307.61,-194.08 317.23,-198.52 317.9,-191.55"/>
</a>
</g>
</g>
<!-- Node29&#45;&gt;Node25 -->
<g id="edge52_Node000029_Node000025" class="edge">
<title>Node29&#45;&gt;Node25</title>
<g id="a_edge52_Node000029_Node000025"><a xlink:title=" ">
<path fill="none" stroke="#63b8ff" d="M756.1,-241.8C762.24,-232.21 770.38,-219.5 776.9,-209.32"/>
<polygon fill="#63b8ff" stroke="#63b8ff" points="779.89,-211.15 782.33,-200.84 773.99,-207.38 779.89,-211.15"/>
</a>
</g>
</g>
<!-- Node30 -->
<g id="Node000030" class="node">
<title>Node30</title>
<g id="a_Node000030"><a xlink:title=" ">
<polygon fill="#e0e0e0" stroke="#999999" points="741.5,-200.5 676.5,-200.5 676.5,-181.5 741.5,-181.5 741.5,-200.5"/>
<text text-anchor="middle" x="709" y="-188.5" font-family="Helvetica,sans-Serif" font-size="10.00">exception</text>
</a>
</g>
</g>
<!-- Node29&#45;&gt;Node30 -->
<g id="edge51_Node000029_Node000030" class="edge">
<title>Node29&#45;&gt;Node30</title>
<g id="a_edge51_Node000029_Node000030"><a xlink:title=" ">
<path fill="none" stroke="#63b8ff" d="M738.57,-241.8C732.93,-232.31 725.48,-219.76 719.47,-209.63"/>
<polygon fill="#63b8ff" stroke="#63b8ff" points="722.37,-207.66 714.25,-200.84 716.35,-211.23 722.37,-207.66"/>
</a>
</g>
</g>
<!-- Node31&#45;&gt;Node3 -->
<g id="edge56_Node000031_Node000003" class="edge">
<title>Node31&#45;&gt;Node3</title>
<g id="a_edge56_Node000031_Node000003"><a xlink:title=" ">
<path fill="none" stroke="#63b8ff" d="M1734.42,-313.48C1714.32,-298.72 1671.62,-267.56 1635,-242 1617.42,-229.73 1597.23,-216.12 1582.39,-206.21"/>
<polygon fill="#63b8ff" stroke="#63b8ff" points="1584.18,-203.19 1573.91,-200.55 1580.29,-209.01 1584.18,-203.19"/>
</a>
</g>
</g>
<!-- Node31&#45;&gt;Node4 -->
<g id="edge57_Node000031_Node000004" class="edge">
<title>Node31&#45;&gt;Node4</title>
<g id="a_edge57_Node000031_Node000004"><a xlink:title=" ">
<path fill="none" stroke="#63b8ff" d="M1761.78,-313.37C1781.41,-302.63 1815.14,-284.18 1838.23,-271.55"/>
<polygon fill="#63b8ff" stroke="#63b8ff" points="1840,-274.57 1847.1,-266.7 1836.64,-268.43 1840,-274.57"/>
</a>
</g>
</g>
<!-- Node31&#45;&gt;Node8 -->
<g id="edge59_Node000031_Node000008" class="edge">
<title>Node31&#45;&gt;Node8</title>
<g id="a_edge59_Node000031_Node000008"><a xlink:title=" ">
<path fill="none" stroke="#63b8ff" d="M1726.04,-313.36C1703.09,-303.42 1664.3,-286.59 1631,-272 1600.74,-258.75 1595.18,-249.44 1563,-242 1547.36,-238.38 516.09,-200.46 317.78,-193.2"/>
<polygon fill="#63b8ff" stroke="#63b8ff" points="317.82,-189.7 307.7,-192.83 317.56,-196.69 317.82,-189.7"/>
</a>
</g>
</g>
<!-- Node31&#45;&gt;Node14 -->
<g id="edge58_Node000031_Node000014" class="edge">
<title>Node31&#45;&gt;Node14</title>
<g id="a_edge58_Node000031_Node000014"><a xlink:title=" ">
<path fill="none" stroke="#63b8ff" d="M1744.25,-313.18C1738.74,-287.71 1719.23,-213.47 1673,-176 1582.73,-102.82 1534.91,-127.33 1420,-110 1230.38,-81.41 627.39,-69.16 457.78,-66.22"/>
<polygon fill="#63b8ff" stroke="#63b8ff" points="457.76,-62.72 447.7,-66.05 457.64,-69.72 457.76,-62.72"/>
</a>
</g>
</g>
<!-- Node31&#45;&gt;Node15 -->
<g id="edge60_Node000031_Node000015" class="edge">
<title>Node31&#45;&gt;Node15</title>
<g id="a_edge60_Node000031_Node000015"><a xlink:title=" ">
<path fill="none" stroke="#63b8ff" d="M1749.75,-313.29C1762.87,-281.34 1803.05,-169.31 1749,-110 1722.49,-80.91 1474.88,-70.52 1346.87,-67.07"/>
<polygon fill="#63b8ff" stroke="#63b8ff" points="1346.83,-63.57 1336.74,-66.81 1346.64,-70.57 1346.83,-63.57"/>
</a>
</g>
</g>
<!-- Node32&#45;&gt;Node4 -->
<g id="edge62_Node000032_Node000004" class="edge">
<title>Node32&#45;&gt;Node4</title>
<g id="a_edge62_Node000032_Node000004"><a xlink:title=" ">
<path fill="none" stroke="#63b8ff" d="M1839.54,-373.95C1846.11,-364.36 1854.05,-351.06 1858,-338 1864.1,-317.85 1864.74,-293.58 1864.24,-277.09"/>
<polygon fill="#63b8ff" stroke="#63b8ff" points="1867.71,-276.46 1863.73,-266.63 1860.72,-276.79 1867.71,-276.46"/>
</a>
</g>
</g>
<!-- Node33&#45;&gt;Node4 -->
<g id="edge64_Node000033_Node000004" class="edge">
<title>Node33&#45;&gt;Node4</title>
<g id="a_edge64_Node000033_Node000004"><a xlink:title=" ">
<path fill="none" stroke="#63b8ff" d="M2162.7,-313.44C2094.14,-300.75 1966.84,-277.21 1902.46,-265.3"/>
<polygon fill="#63b8ff" stroke="#63b8ff" points="1902.78,-261.8 1892.31,-263.42 1901.51,-268.68 1902.78,-261.8"/>
</a>
</g>
</g>
<!-- Node33&#45;&gt;Node16 -->
<g id="edge65_Node000033_Node000016" class="edge">
<title>Node33&#45;&gt;Node16</title>
<g id="a_edge65_Node000033_Node000016"><a xlink:title=" ">
<path fill="none" stroke="#63b8ff" d="M2209,-313.48C2209,-292.71 2209,-237.82 2209,-192 2209,-192 2209,-192 2209,-124 2209,-32.83 1885.35,-14.89 1761.99,-11.36"/>
<polygon fill="#63b8ff" stroke="#63b8ff" points="1761.82,-7.86 1751.73,-11.09 1761.63,-14.85 1761.82,-7.86"/>
</a>
</g>
</g>
<!-- Node34 -->
<g id="Node000034" class="node">
<title>Node34</title>
<g id="a_Node000034"><a xlink:title=" ">
<polygon fill="#e0e0e0" stroke="#999999" points="2180.5,-272 2027.5,-272 2027.5,-242 2180.5,-242 2180.5,-272"/>
<text text-anchor="start" x="2035.5" y="-260" font-family="Helvetica,sans-Serif" font-size="10.00">ydb&#45;cpp&#45;sdk/client</text>
<text text-anchor="middle" x="2104" y="-249" font-family="Helvetica,sans-Serif" font-size="10.00">/coordination/coordination.h</text>
</a>
</g>
</g>
<!-- Node33&#45;&gt;Node34 -->
<g id="edge66_Node000033_Node000034" class="edge">
<title>Node33&#45;&gt;Node34</title>
<g id="a_edge66_Node000033_Node000034"><a xlink:title=" ">
<path fill="none" stroke="#63b8ff" d="M2194.84,-313.37C2179.79,-304.2 2155.5,-289.39 2135.83,-277.4"/>
<polygon fill="#63b8ff" stroke="#63b8ff" points="2137.52,-274.33 2127.16,-272.12 2133.88,-280.31 2137.52,-274.33"/>
</a>
</g>
</g>
<!-- Node35&#45;&gt;Node13 -->
<g id="edge68_Node000035_Node000013" class="edge">
<title>Node35&#45;&gt;Node13</title>
<g id="a_edge68_Node000035_Node000013"><a xlink:title=" ">
<path fill="none" stroke="#63b8ff" d="M1998.93,-439.7C1992.48,-430.01 1984.34,-416.69 1979,-404 1964.73,-370.12 1958,-360.76 1958,-324 1958,-324 1958,-324 1958,-190 1958,-131.39 1889.11,-94.68 1845.65,-77.35"/>
<polygon fill="#63b8ff" stroke="#63b8ff" points="1846.86,-74.07 1836.27,-73.75 1844.35,-80.6 1846.86,-74.07"/>
</a>
</g>
</g>
<!-- Node36 -->
<g id="Node000036" class="node">
<title>Node36</title>
<g id="a_Node000036"><a xlink:href="../../dd/dd7/universal_2include_2userver_2yaml__config_2fwd_8hpp.html" target="_top" xlink:title="Forward declarations of YamlConfig type and formats::parse::To.">
<polygon fill="white" stroke="#666666" points="2104,-404 1988,-404 1988,-374 2104,-374 2104,-404"/>
<text text-anchor="start" x="1996" y="-392" font-family="Helvetica,sans-Serif" font-size="10.00">userver/yaml_config</text>
<text text-anchor="middle" x="2046" y="-381" font-family="Helvetica,sans-Serif" font-size="10.00">/fwd.hpp</text>
</a>
</g>
</g>
<!-- Node35&#45;&gt;Node36 -->
<g id="edge69_Node000035_Node000036" class="edge">
<title>Node35&#45;&gt;Node36</title>
<g id="a_edge69_Node000035_Node000036"><a xlink:title=" ">
<path fill="none" stroke="#63b8ff" d="M2017.21,-439.8C2021.76,-431.92 2027.53,-421.95 2032.71,-412.99"/>
<polygon fill="#63b8ff" stroke="#63b8ff" points="2035.84,-414.57 2037.81,-404.16 2029.78,-411.07 2035.84,-414.57"/>
</a>
</g>
</g>
<!-- Node37 -->
<g id="Node000037" class="node">
<title>Node37</title>
<g id="a_Node000037"><a xlink:href="../../d2/dc8/universal_2include_2userver_2formats_2parse_2to_8hpp.html" target="_top" xlink:title="Helper for parsers.">
<polygon fill="white" stroke="#666666" points="2111.5,-338 1986.5,-338 1986.5,-308 2111.5,-308 2111.5,-338"/>
<text text-anchor="start" x="1994.5" y="-326" font-family="Helvetica,sans-Serif" font-size="10.00">userver/formats/parse</text>
<text text-anchor="middle" x="2049" y="-315" font-family="Helvetica,sans-Serif" font-size="10.00">/to.hpp</text>
</a>
</g>
</g>
<!-- Node36&#45;&gt;Node37 -->
<g id="edge70_Node000036_Node000037" class="edge">
<title>Node36&#45;&gt;Node37</title>
<g id="a_edge70_Node000036_Node000037"><a xlink:title=" ">
<path fill="none" stroke="#63b8ff" d="M2046.67,-373.8C2047.02,-366.34 2047.45,-356.99 2047.86,-348.41"/>
<polygon fill="#63b8ff" stroke="#63b8ff" points="2051.36,-348.32 2048.34,-338.16 2044.37,-347.99 2051.36,-348.32"/>
</a>
</g>
</g>
</g>
</svg>
