<?xml version="1.0" encoding="UTF-8" standalone="no"?>
<!DOCTYPE svg PUBLIC "-//W3C//DTD SVG 1.1//EN"
 "http://www.w3.org/Graphics/SVG/1.1/DTD/svg11.dtd">
<!-- Generated by graphviz version 2.43.0 (0)
 -->
<!-- Title: userver/ydb Pages: 1 -->
<svg width="274pt" height="125pt"
 viewBox="0.00 0.00 274.00 125.00" xmlns="http://www.w3.org/2000/svg" xmlns:xlink="http://www.w3.org/1999/xlink">
<g id="graph0" class="graph" transform="scale(1 1) rotate(0) translate(4 121)">
<title>userver/ydb</title>
<g id="clust1" class="cluster">
<title>clusterdir_244908d03d23f3945b7e767cf771b574</title>
<g id="a_clust1"><a xlink:href="dir_244908d03d23f3945b7e767cf771b574.html" target="_top" xlink:title="userver">
<polygon fill="#feefdf" stroke="#404040" stroke-dasharray="5,2" points="8,-39 8,-109 258,-109 258,-39 8,-39"/>
<text text-anchor="middle" x="133" y="-97" font-family="Helvetica,sans-Serif" font-size="10.00">userver</text>
</a>
</g>
</g>
<g id="clust2" class="cluster">
<title>clusterdir_7afa881271b03bd2605eb43790600115</title>
<g id="a_clust2"><a xlink:href="dir_7afa881271b03bd2605eb43790600115.html" target="_top">
<polygon fill="#feefdf" stroke="#404040" stroke-width="2" points="16,-47 16,-82 250,-82 250,-47 16,-47"/>
</a>
</g>
</g>
<!-- dir_7afa881271b03bd2605eb43790600115 -->
<g id="node1" class="node">
<title>dir_7afa881271b03bd2605eb43790600115</title>
<text text-anchor="middle" x="42" y="-62" font-family="Helvetica,sans-Serif" font-size="10.00">ydb</text>
</g>
<!-- dir_26f8c63b8c67b2ed6c1b7078f08f1e18 -->
<g id="node5" class="node">
<title>dir_26f8c63b8c67b2ed6c1b7078f08f1e18</title>
<g id="a_node5"><a xlink:href="dir_26f8c63b8c67b2ed6c1b7078f08f1e18.html" target="_top" xlink:title="userver">
<polygon fill="#feefdf" stroke="red" points="94.5,-19 41.5,-19 41.5,0 94.5,0 94.5,-19"/>
<text text-anchor="middle" x="68" y="-7" font-family="Helvetica,sans-Serif" font-size="10.00">userver</text>
</a>
</g>
</g>
<!-- dir_7afa881271b03bd2605eb43790600115&#45;&gt;dir_26f8c63b8c67b2ed6c1b7078f08f1e18 -->
<g id="edge1" class="edge">
<title>dir_7afa881271b03bd2605eb43790600115&#45;&gt;dir_26f8c63b8c67b2ed6c1b7078f08f1e18</title>
<g id="a_edge1"><a xlink:href="dir_000166_000143.html" target="_top">
<path fill="none" stroke="#63b8ff" d="M46.29,-54.75C49.81,-47.57 54.91,-37.18 59.28,-28.27"/>
<polygon fill="#63b8ff" stroke="#63b8ff" points="62.52,-29.61 63.79,-19.09 56.24,-26.53 62.52,-29.61"/>
</a>
</g>
<g id="a_edge1&#45;headlabel"><a xlink:href="dir_000166_000143.html" target="_top" xlink:title="14">
<text text-anchor="middle" x="63.49" y="-31.59" font-family="Helvetica,sans-Serif" font-size="10.00" fill="#63b8ff">14</text>
</a>
</g>
</g>
<!-- dir_a7364e945deb3de9e65ddca50507f79f -->
<g id="node6" class="node">
<title>dir_a7364e945deb3de9e65ddca50507f79f</title>
<g id="a_node6"><a xlink:href="dir_a7364e945deb3de9e65ddca50507f79f.html" target="_top" xlink:title="userver">
<polygon fill="#feefdf" stroke="red" points="190.5,-19 137.5,-19 137.5,0 190.5,0 190.5,-19"/>
<text text-anchor="middle" x="164" y="-7" font-family="Helvetica,sans-Serif" font-size="10.00">userver</text>
</a>
</g>
</g>
<!-- dir_7afa881271b03bd2605eb43790600115&#45;&gt;dir_a7364e945deb3de9e65ddca50507f79f -->
<g id="edge2" class="edge">
<title>dir_7afa881271b03bd2605eb43790600115&#45;&gt;dir_a7364e945deb3de9e65ddca50507f79f</title>
<g id="a_edge2"><a xlink:href="dir_000166_000153.html" target="_top">
<path fill="none" stroke="#63b8ff" d="M49.75,-54.72C54.77,-49.49 61.73,-43.11 69,-39 87.09,-28.78 109.23,-21.86 127.59,-17.41"/>
<polygon fill="#63b8ff" stroke="#63b8ff" points="128.37,-20.82 137.34,-15.18 126.81,-13.99 128.37,-20.82"/>
</a>
</g>
<g id="a_edge2&#45;headlabel"><a xlink:href="dir_000166_000153.html" target="_top" xlink:title="15">
<text text-anchor="middle" x="125.5" y="-21.89" font-family="Helvetica,sans-Serif" font-size="10.00" fill="#63b8ff">15</text>
</a>
</g>
</g>
<!-- dir_888a8ed3f592d9103f7450d1c0ead686 -->
<g id="node2" class="node">
<title>dir_888a8ed3f592d9103f7450d1c0ead686</title>
<g id="a_node2"><a xlink:href="dir_888a8ed3f592d9103f7450d1c0ead686.html" target="_top" xlink:title="dist_lock">
<polygon fill="#fdaf60" stroke="#404040" points="194,-74 134,-74 134,-55 194,-55 194,-74"/>
<text text-anchor="middle" x="164" y="-62" font-family="Helvetica,sans-Serif" font-size="10.00">dist_lock</text>
</a>
</g>
</g>
<!-- dir_888a8ed3f592d9103f7450d1c0ead686&#45;&gt;dir_26f8c63b8c67b2ed6c1b7078f08f1e18 -->
<g id="edge3" class="edge">
<title>dir_888a8ed3f592d9103f7450d1c0ead686&#45;&gt;dir_26f8c63b8c67b2ed6c1b7078f08f1e18</title>
<g id="a_edge3"><a xlink:href="dir_000040_000143.html" target="_top">
<path fill="none" stroke="#63b8ff" d="M150.84,-54.78C143.37,-49.95 133.78,-43.94 125,-39 115.45,-33.63 104.77,-28.15 95.25,-23.45"/>
<polygon fill="#63b8ff" stroke="#63b8ff" points="96.73,-20.28 86.2,-19.04 93.66,-26.57 96.73,-20.28"/>
</a>
</g>
<g id="a_edge3&#45;headlabel"><a xlink:href="dir_000040_000143.html" target="_top" xlink:title="4">
<text text-anchor="middle" x="101.2" y="-16.8" font-family="Helvetica,sans-Serif" font-size="10.00" fill="#63b8ff">4</text>
</a>
</g>
</g>
<!-- dir_888a8ed3f592d9103f7450d1c0ead686&#45;&gt;dir_a7364e945deb3de9e65ddca50507f79f -->
<g id="edge4" class="edge">
<title>dir_888a8ed3f592d9103f7450d1c0ead686&#45;&gt;dir_a7364e945deb3de9e65ddca50507f79f</title>
<g id="a_edge4"><a xlink:href="dir_000040_000153.html" target="_top">
<path fill="none" stroke="#63b8ff" d="M164,-54.75C164,-47.8 164,-37.85 164,-29.13"/>
<polygon fill="#63b8ff" stroke="#63b8ff" points="167.5,-29.09 164,-19.09 160.5,-29.09 167.5,-29.09"/>
</a>
</g>
<g id="a_edge4&#45;headlabel"><a xlink:href="dir_000040_000153.html" target="_top" xlink:title="2">
<text text-anchor="middle" x="170.34" y="-30.18" font-family="Helvetica,sans-Serif" font-size="10.00" fill="#63b8ff">2</text>
</a>
</g>
</g>
<!-- dir_f476f831c1cf3832fbba82fd66b5d93a -->
<g id="node3" class="node">
<title>dir_f476f831c1cf3832fbba82fd66b5d93a</title>
<g id="a_node3"><a xlink:href="dir_f476f831c1cf3832fbba82fd66b5d93a.html" target="_top" xlink:title="impl">
<polygon fill="#fdaf60" stroke="#404040" points="116,-74 78,-74 78,-55 116,-55 116,-74"/>
<text text-anchor="middle" x="97" y="-62" font-family="Helvetica,sans-Serif" font-size="10.00">impl</text>
</a>
</g>
</g>
<!-- dir_575fad051b717a7791d4857e2ff1497e -->
<g id="node4" class="node">
<title>dir_575fad051b717a7791d4857e2ff1497e</title>
<g id="a_node4"><a xlink:href="dir_575fad051b717a7791d4857e2ff1497e.html" target="_top" xlink:title="io">
<polygon fill="#fdaf60" stroke="#404040" points="241.5,-74 212.5,-74 212.5,-55 241.5,-55 241.5,-74"/>
<text text-anchor="middle" x="227" y="-62" font-family="Helvetica,sans-Serif" font-size="10.00">io</text>
</a>
</g>
</g>
<!-- dir_575fad051b717a7791d4857e2ff1497e&#45;&gt;dir_a7364e945deb3de9e65ddca50507f79f -->
<g id="edge5" class="edge">
<title>dir_575fad051b717a7791d4857e2ff1497e&#45;&gt;dir_a7364e945deb3de9e65ddca50507f79f</title>
<g id="a_edge5"><a xlink:href="dir_000088_000153.html" target="_top">
<path fill="none" stroke="#63b8ff" d="M219.32,-54.99C214.76,-50.11 208.76,-43.99 203,-39 197.46,-34.21 191.16,-29.37 185.27,-25.07"/>
<polygon fill="#63b8ff" stroke="#63b8ff" points="187.23,-22.17 177.05,-19.23 183.18,-27.88 187.23,-22.17"/>
</a>
</g>
<g id="a_edge5&#45;headlabel"><a xlink:href="dir_000088_000153.html" target="_top" xlink:title="7">
<text text-anchor="middle" x="191.81" y="-19.44" font-family="Helvetica,sans-Serif" font-size="10.00" fill="#63b8ff">7</text>
</a>
</g>
</g>
</g>
</svg>
