<?xml version="1.0" encoding="UTF-8" standalone="no"?>
<!DOCTYPE svg PUBLIC "-//W3C//DTD SVG 1.1//EN"
 "http://www.w3.org/Graphics/SVG/1.1/DTD/svg11.dtd">
<!-- Generated by graphviz version 2.43.0 (0)
 -->
<!-- Title: userver/testsuite Pages: 1 -->
<svg width="538pt" height="133pt"
 viewBox="0.00 0.00 537.50 133.00" xmlns="http://www.w3.org/2000/svg" xmlns:xlink="http://www.w3.org/1999/xlink">
<g id="graph0" class="graph" transform="scale(1 1) rotate(0) translate(4 129)">
<title>userver/testsuite</title>
<g id="clust1" class="cluster">
<title>clusterdir_26f8c63b8c67b2ed6c1b7078f08f1e18</title>
<g id="a_clust1"><a xlink:href="dir_26f8c63b8c67b2ed6c1b7078f08f1e18.html" target="_top" xlink:title="userver">
<polygon fill="#feefdf" stroke="#404040" stroke-dasharray="5,2" points="8,-8 8,-117 467,-117 467,-8 8,-8"/>
<text text-anchor="middle" x="237.5" y="-105" font-family="Helvetica,sans-Serif" font-size="10.00">userver</text>
</a>
</g>
</g>
<!-- dir_150bbd271f1504029fbda942e72f1022 -->
<g id="node1" class="node">
<title>dir_150bbd271f1504029fbda942e72f1022</title>
<g id="a_node1"><a xlink:href="dir_150bbd271f1504029fbda942e72f1022.html" target="_top" xlink:title="utils">
<polygon fill="#fdaf60" stroke="red" points="54,-35 16,-35 16,-16 54,-16 54,-35"/>
<text text-anchor="middle" x="35" y="-23" font-family="Helvetica,sans-Serif" font-size="10.00">utils</text>
</a>
</g>
</g>
<!-- dir_2c6b70c628beb7fc0194b7f508f3ad90 -->
<g id="node2" class="node">
<title>dir_2c6b70c628beb7fc0194b7f508f3ad90</title>
<g id="a_node2"><a xlink:href="dir_2c6b70c628beb7fc0194b7f508f3ad90.html" target="_top" xlink:title="cache">
<polygon fill="#fdaf60" stroke="#404040" points="117.5,-35 72.5,-35 72.5,-16 117.5,-16 117.5,-35"/>
<text text-anchor="middle" x="95" y="-23" font-family="Helvetica,sans-Serif" font-size="10.00">cache</text>
</a>
</g>
</g>
<!-- dir_3285f5f33091c25af669261537588667 -->
<g id="node3" class="node">
<title>dir_3285f5f33091c25af669261537588667</title>
<g id="a_node3"><a xlink:href="dir_3285f5f33091c25af669261537588667.html" target="_top" xlink:title="rcu">
<polygon fill="#fdaf60" stroke="#404040" points="168,-35 136,-35 136,-16 168,-16 168,-35"/>
<text text-anchor="middle" x="152" y="-23" font-family="Helvetica,sans-Serif" font-size="10.00">rcu</text>
</a>
</g>
</g>
<!-- dir_40cd8f708d34863a7138441f9d67a184 -->
<g id="node4" class="node">
<title>dir_40cd8f708d34863a7138441f9d67a184</title>
<g id="a_node4"><a xlink:href="dir_40cd8f708d34863a7138441f9d67a184.html" target="_top" xlink:title="dump">
<polygon fill="#fdaf60" stroke="#404040" points="230,-35 186,-35 186,-16 230,-16 230,-35"/>
<text text-anchor="middle" x="208" y="-23" font-family="Helvetica,sans-Serif" font-size="10.00">dump</text>
</a>
</g>
</g>
<!-- dir_486b9402482621fd641691dc37d76b53 -->
<g id="node5" class="node">
<title>dir_486b9402482621fd641691dc37d76b53</title>
<g id="a_node5"><a xlink:href="dir_486b9402482621fd641691dc37d76b53.html" target="_top" xlink:title="engine">
<polygon fill="#fdaf60" stroke="red" points="298,-35 248,-35 248,-16 298,-16 298,-35"/>
<text text-anchor="middle" x="273" y="-23" font-family="Helvetica,sans-Serif" font-size="10.00">engine</text>
</a>
</g>
</g>
<!-- dir_994ef2a14b32cb8134d8b7b97f08d542 -->
<g id="node6" class="node">
<title>dir_994ef2a14b32cb8134d8b7b97f08d542</title>
<g id="a_node6"><a xlink:href="dir_994ef2a14b32cb8134d8b7b97f08d542.html" target="_top" xlink:title="components">
<polygon fill="#fdaf60" stroke="red" points="393.5,-35 316.5,-35 316.5,-16 393.5,-16 393.5,-35"/>
<text text-anchor="middle" x="355" y="-23" font-family="Helvetica,sans-Serif" font-size="10.00">components</text>
</a>
</g>
</g>
<!-- dir_ee914885184833579e051451a9f6b65c -->
<g id="node7" class="node">
<title>dir_ee914885184833579e051451a9f6b65c</title>
<g id="a_node7"><a xlink:href="dir_ee914885184833579e051451a9f6b65c.html" target="_top" xlink:title="server">
<polygon fill="#fdaf60" stroke="red" points="458.5,-35 411.5,-35 411.5,-16 458.5,-16 458.5,-35"/>
<text text-anchor="middle" x="435" y="-23" font-family="Helvetica,sans-Serif" font-size="10.00">server</text>
</a>
</g>
</g>
<!-- dir_40b88aef89447451c261dfd87412a7c6 -->
<g id="node8" class="node">
<title>dir_40b88aef89447451c261dfd87412a7c6</title>
<g id="a_node8"><a xlink:href="dir_40b88aef89447451c261dfd87412a7c6.html" target="_top" xlink:title="testsuite">
<polygon fill="#feefdf" stroke="#404040" stroke-width="2" points="269.5,-90 210.5,-90 210.5,-71 269.5,-71 269.5,-90"/>
<text text-anchor="middle" x="240" y="-78" font-family="Helvetica,sans-Serif" font-size="10.00">testsuite</text>
</a>
</g>
</g>
<!-- dir_40b88aef89447451c261dfd87412a7c6&#45;&gt;dir_150bbd271f1504029fbda942e72f1022 -->
<g id="edge1" class="edge">
<title>dir_40b88aef89447451c261dfd87412a7c6&#45;&gt;dir_150bbd271f1504029fbda942e72f1022</title>
<g id="a_edge1"><a xlink:href="dir_000133_000157.html" target="_top">
<path fill="none" stroke="#63b8ff" d="M210.33,-72.36C175.27,-63.84 115.23,-48.98 64,-35 63.9,-34.97 63.8,-34.94 63.7,-34.92"/>
<polygon fill="#63b8ff" stroke="#63b8ff" points="64.58,-31.53 54,-32.18 62.68,-38.27 64.58,-31.53"/>
</a>
</g>
<g id="a_edge1&#45;headlabel"><a xlink:href="dir_000133_000157.html" target="_top" xlink:title="1">
<text text-anchor="middle" x="68.81" y="-27.27" font-family="Helvetica,sans-Serif" font-size="10.00" fill="#63b8ff">1</text>
</a>
</g>
</g>
<!-- dir_40b88aef89447451c261dfd87412a7c6&#45;&gt;dir_2c6b70c628beb7fc0194b7f508f3ad90 -->
<g id="edge2" class="edge">
<title>dir_40b88aef89447451c261dfd87412a7c6&#45;&gt;dir_2c6b70c628beb7fc0194b7f508f3ad90</title>
<g id="a_edge2"><a xlink:href="dir_000133_000010.html" target="_top">
<path fill="none" stroke="#63b8ff" d="M216.7,-70.98C192.46,-62.12 154.32,-48.18 127.21,-38.27"/>
<polygon fill="#63b8ff" stroke="#63b8ff" points="128.35,-34.97 117.76,-34.82 125.95,-41.54 128.35,-34.97"/>
</a>
</g>
<g id="a_edge2&#45;headlabel"><a xlink:href="dir_000133_000010.html" target="_top" xlink:title="1">
<text text-anchor="middle" x="132.71" y="-31.03" font-family="Helvetica,sans-Serif" font-size="10.00" fill="#63b8ff">1</text>
</a>
</g>
</g>
<!-- dir_40b88aef89447451c261dfd87412a7c6&#45;&gt;dir_3285f5f33091c25af669261537588667 -->
<g id="edge3" class="edge">
<title>dir_40b88aef89447451c261dfd87412a7c6&#45;&gt;dir_3285f5f33091c25af669261537588667</title>
<g id="a_edge3"><a xlink:href="dir_000133_000112.html" target="_top">
<path fill="none" stroke="#63b8ff" d="M225.86,-70.98C212.21,-62.77 191.31,-50.18 175.22,-40.49"/>
<polygon fill="#63b8ff" stroke="#63b8ff" points="176.77,-37.33 166.4,-35.17 173.16,-43.33 176.77,-37.33"/>
</a>
</g>
<g id="a_edge3&#45;headlabel"><a xlink:href="dir_000133_000112.html" target="_top" xlink:title="1">
<text text-anchor="middle" x="181.31" y="-34.25" font-family="Helvetica,sans-Serif" font-size="10.00" fill="#63b8ff">1</text>
</a>
</g>
</g>
<!-- dir_40b88aef89447451c261dfd87412a7c6&#45;&gt;dir_40cd8f708d34863a7138441f9d67a184 -->
<g id="edge4" class="edge">
<title>dir_40b88aef89447451c261dfd87412a7c6&#45;&gt;dir_40cd8f708d34863a7138441f9d67a184</title>
<g id="a_edge4"><a xlink:href="dir_000133_000044.html" target="_top">
<path fill="none" stroke="#63b8ff" d="M234.72,-70.75C230.29,-63.42 223.84,-52.73 218.38,-43.7"/>
<polygon fill="#63b8ff" stroke="#63b8ff" points="221.35,-41.84 213.19,-35.09 215.36,-45.46 221.35,-41.84"/>
</a>
</g>
<g id="a_edge4&#45;headlabel"><a xlink:href="dir_000133_000044.html" target="_top" xlink:title="1">
<text text-anchor="middle" x="225.64" y="-40.95" font-family="Helvetica,sans-Serif" font-size="10.00" fill="#63b8ff">1</text>
</a>
</g>
</g>
<!-- dir_40b88aef89447451c261dfd87412a7c6&#45;&gt;dir_486b9402482621fd641691dc37d76b53 -->
<g id="edge5" class="edge">
<title>dir_40b88aef89447451c261dfd87412a7c6&#45;&gt;dir_486b9402482621fd641691dc37d76b53</title>
<g id="a_edge5"><a xlink:href="dir_000133_000049.html" target="_top">
<path fill="none" stroke="#63b8ff" d="M245.45,-70.75C250.01,-63.42 256.67,-52.73 262.29,-43.7"/>
<polygon fill="#63b8ff" stroke="#63b8ff" points="265.34,-45.43 267.65,-35.09 259.4,-41.73 265.34,-45.43"/>
</a>
</g>
<g id="a_edge5&#45;headlabel"><a xlink:href="dir_000133_000049.html" target="_top" xlink:title="4">
<text text-anchor="middle" x="265.85" y="-47.48" font-family="Helvetica,sans-Serif" font-size="10.00" fill="#63b8ff">4</text>
</a>
</g>
</g>
<!-- dir_40b88aef89447451c261dfd87412a7c6&#45;&gt;dir_994ef2a14b32cb8134d8b7b97f08d542 -->
<g id="edge6" class="edge">
<title>dir_40b88aef89447451c261dfd87412a7c6&#45;&gt;dir_994ef2a14b32cb8134d8b7b97f08d542</title>
<g id="a_edge6"><a xlink:href="dir_000133_000022.html" target="_top">
<path fill="none" stroke="#63b8ff" d="M258.48,-70.98C276.98,-62.46 305.68,-49.23 326.98,-39.41"/>
<polygon fill="#63b8ff" stroke="#63b8ff" points="328.57,-42.53 336.19,-35.17 325.64,-36.18 328.57,-42.53"/>
</a>
</g>
<g id="a_edge6&#45;headlabel"><a xlink:href="dir_000133_000022.html" target="_top" xlink:title="5">
<text text-anchor="middle" x="326.49" y="-44.12" font-family="Helvetica,sans-Serif" font-size="10.00" fill="#63b8ff">5</text>
</a>
</g>
</g>
<!-- dir_40b88aef89447451c261dfd87412a7c6&#45;&gt;dir_ee914885184833579e051451a9f6b65c -->
<g id="edge8" class="edge">
<title>dir_40b88aef89447451c261dfd87412a7c6&#45;&gt;dir_ee914885184833579e051451a9f6b65c</title>
<g id="a_edge8"><a xlink:href="dir_000133_000119.html" target="_top">
<path fill="none" stroke="#63b8ff" d="M269.62,-71.45C305.07,-61.82 364.28,-45.72 401.41,-35.63"/>
<polygon fill="#63b8ff" stroke="#63b8ff" points="402.52,-38.95 411.25,-32.95 400.69,-32.2 402.52,-38.95"/>
</a>
</g>
<g id="a_edge8&#45;headlabel"><a xlink:href="dir_000133_000119.html" target="_top" xlink:title="1">
<text text-anchor="middle" x="399.8" y="-40.14" font-family="Helvetica,sans-Serif" font-size="10.00" fill="#63b8ff">1</text>
</a>
</g>
</g>
<!-- dir_a7364e945deb3de9e65ddca50507f79f -->
<g id="node9" class="node">
<title>dir_a7364e945deb3de9e65ddca50507f79f</title>
<g id="a_node9"><a xlink:href="dir_a7364e945deb3de9e65ddca50507f79f.html" target="_top" xlink:title="userver">
<polygon fill="#feefdf" stroke="red" points="529.5,-35 476.5,-35 476.5,-16 529.5,-16 529.5,-35"/>
<text text-anchor="middle" x="503" y="-23" font-family="Helvetica,sans-Serif" font-size="10.00">userver</text>
</a>
</g>
</g>
<!-- dir_40b88aef89447451c261dfd87412a7c6&#45;&gt;dir_a7364e945deb3de9e65ddca50507f79f -->
<g id="edge7" class="edge">
<title>dir_40b88aef89447451c261dfd87412a7c6&#45;&gt;dir_a7364e945deb3de9e65ddca50507f79f</title>
<g id="a_edge7"><a xlink:href="dir_000133_000153.html" target="_top">
<path fill="none" stroke="#63b8ff" d="M269.67,-74.46C311.88,-67.15 391.88,-52.75 466.48,-35.97"/>
<polygon fill="#63b8ff" stroke="#63b8ff" points="467.52,-39.32 476.49,-33.69 465.97,-32.5 467.52,-39.32"/>
</a>
</g>
<g id="a_edge7&#45;headlabel"><a xlink:href="dir_000133_000153.html" target="_top" xlink:title="8">
<text text-anchor="middle" x="464.64" y="-40.39" font-family="Helvetica,sans-Serif" font-size="10.00" fill="#63b8ff">8</text>
</a>
</g>
</g>
</g>
</svg>
