<?xml version="1.0" encoding="UTF-8" standalone="no"?>
<!DOCTYPE svg PUBLIC "-//W3C//DTD SVG 1.1//EN"
 "http://www.w3.org/Graphics/SVG/1.1/DTD/svg11.dtd">
<!-- Generated by graphviz version 2.43.0 (0)
 -->
<!-- Title: userver/utils Pages: 1 -->
<svg width="414pt" height="196pt"
 viewBox="0.00 0.00 413.50 196.00" xmlns="http://www.w3.org/2000/svg" xmlns:xlink="http://www.w3.org/1999/xlink">
<g id="graph0" class="graph" transform="scale(1 1) rotate(0) translate(4 192)">
<title>userver/utils</title>
<g id="clust1" class="cluster">
<title>clusterdir_26f8c63b8c67b2ed6c1b7078f08f1e18</title>
<g id="a_clust1"><a xlink:href="dir_26f8c63b8c67b2ed6c1b7078f08f1e18.html" target="_top" xlink:title="userver">
<polygon fill="#feefdf" stroke="#404040" stroke-dasharray="5,2" points="8,-8 8,-180 342,-180 342,-8 8,-8"/>
<text text-anchor="middle" x="175" y="-168" font-family="Helvetica,sans-Serif" font-size="10.00">userver</text>
</a>
</g>
</g>
<g id="clust2" class="cluster">
<title>clusterdir_150bbd271f1504029fbda942e72f1022</title>
<g id="a_clust2"><a xlink:href="dir_150bbd271f1504029fbda942e72f1022.html" target="_top">
<polygon fill="#feefdf" stroke="#404040" stroke-width="2" points="224,-63 224,-153 334,-153 334,-63 224,-63"/>
</a>
</g>
</g>
<!-- dir_0c57938951830d22b3fad77440a122e7 -->
<g id="node1" class="node">
<title>dir_0c57938951830d22b3fad77440a122e7</title>
<g id="a_node1"><a xlink:href="dir_0c57938951830d22b3fad77440a122e7.html" target="_top" xlink:title="tracing">
<polygon fill="#fdaf60" stroke="#404040" points="164,-90 114,-90 114,-71 164,-71 164,-90"/>
<text text-anchor="middle" x="139" y="-78" font-family="Helvetica,sans-Serif" font-size="10.00">tracing</text>
</a>
</g>
</g>
<!-- dir_3285f5f33091c25af669261537588667 -->
<g id="node2" class="node">
<title>dir_3285f5f33091c25af669261537588667</title>
<g id="a_node2"><a xlink:href="dir_3285f5f33091c25af669261537588667.html" target="_top" xlink:title="rcu">
<polygon fill="#fdaf60" stroke="#404040" points="214,-90 182,-90 182,-71 214,-71 214,-90"/>
<text text-anchor="middle" x="198" y="-78" font-family="Helvetica,sans-Serif" font-size="10.00">rcu</text>
</a>
</g>
</g>
<!-- dir_40b88aef89447451c261dfd87412a7c6 -->
<g id="node3" class="node">
<title>dir_40b88aef89447451c261dfd87412a7c6</title>
<g id="a_node3"><a xlink:href="dir_40b88aef89447451c261dfd87412a7c6.html" target="_top" xlink:title="testsuite">
<polygon fill="#fdaf60" stroke="#404040" points="75.5,-90 16.5,-90 16.5,-71 75.5,-71 75.5,-90"/>
<text text-anchor="middle" x="46" y="-78" font-family="Helvetica,sans-Serif" font-size="10.00">testsuite</text>
</a>
</g>
</g>
<!-- dir_486b9402482621fd641691dc37d76b53 -->
<g id="node4" class="node">
<title>dir_486b9402482621fd641691dc37d76b53</title>
<g id="a_node4"><a xlink:href="dir_486b9402482621fd641691dc37d76b53.html" target="_top" xlink:title="engine">
<polygon fill="#fdaf60" stroke="red" points="334,-35 284,-35 284,-16 334,-16 334,-35"/>
<text text-anchor="middle" x="309" y="-23" font-family="Helvetica,sans-Serif" font-size="10.00">engine</text>
</a>
</g>
</g>
<!-- dir_994ef2a14b32cb8134d8b7b97f08d542 -->
<g id="node5" class="node">
<title>dir_994ef2a14b32cb8134d8b7b97f08d542</title>
<g id="a_node5"><a xlink:href="dir_994ef2a14b32cb8134d8b7b97f08d542.html" target="_top" xlink:title="components">
<polygon fill="#fdaf60" stroke="red" points="156.5,-35 79.5,-35 79.5,-16 156.5,-16 156.5,-35"/>
<text text-anchor="middle" x="118" y="-23" font-family="Helvetica,sans-Serif" font-size="10.00">components</text>
</a>
</g>
</g>
<!-- dir_e64dfdcbff0f609bc29171eebbcbbcc9 -->
<g id="node6" class="node">
<title>dir_e64dfdcbff0f609bc29171eebbcbbcc9</title>
<g id="a_node6"><a xlink:href="dir_e64dfdcbff0f609bc29171eebbcbbcc9.html" target="_top" xlink:title="concurrent">
<polygon fill="#fdaf60" stroke="red" points="266,-35 198,-35 198,-16 266,-16 266,-35"/>
<text text-anchor="middle" x="232" y="-23" font-family="Helvetica,sans-Serif" font-size="10.00">concurrent</text>
</a>
</g>
</g>
<!-- dir_150bbd271f1504029fbda942e72f1022 -->
<g id="node7" class="node">
<title>dir_150bbd271f1504029fbda942e72f1022</title>
<text text-anchor="middle" x="251" y="-133" font-family="Helvetica,sans-Serif" font-size="10.00">utils</text>
</g>
<!-- dir_150bbd271f1504029fbda942e72f1022&#45;&gt;dir_0c57938951830d22b3fad77440a122e7 -->
<g id="edge1" class="edge">
<title>dir_150bbd271f1504029fbda942e72f1022&#45;&gt;dir_0c57938951830d22b3fad77440a122e7</title>
<g id="a_edge1"><a xlink:href="dir_000157_000135.html" target="_top">
<path fill="none" stroke="#63b8ff" d="M233.01,-125.98C215.07,-117.5 187.28,-104.35 166.57,-94.54"/>
<polygon fill="#63b8ff" stroke="#63b8ff" points="167.86,-91.28 157.32,-90.17 164.86,-97.61 167.86,-91.28"/>
</a>
</g>
<g id="a_edge1&#45;headlabel"><a xlink:href="dir_000157_000135.html" target="_top" xlink:title="2">
<text text-anchor="middle" x="172.32" y="-87.76" font-family="Helvetica,sans-Serif" font-size="10.00" fill="#63b8ff">2</text>
</a>
</g>
</g>
<!-- dir_150bbd271f1504029fbda942e72f1022&#45;&gt;dir_3285f5f33091c25af669261537588667 -->
<g id="edge2" class="edge">
<title>dir_150bbd271f1504029fbda942e72f1022&#45;&gt;dir_3285f5f33091c25af669261537588667</title>
<g id="a_edge2"><a xlink:href="dir_000157_000112.html" target="_top">
<path fill="none" stroke="#63b8ff" d="M242.25,-125.75C234.53,-118.03 223.1,-106.6 213.78,-97.28"/>
<polygon fill="#63b8ff" stroke="#63b8ff" points="216.14,-94.69 206.59,-90.09 211.19,-99.64 216.14,-94.69"/>
</a>
</g>
<g id="a_edge2&#45;headlabel"><a xlink:href="dir_000157_000112.html" target="_top" xlink:title="1">
<text text-anchor="middle" x="220.68" y="-92.72" font-family="Helvetica,sans-Serif" font-size="10.00" fill="#63b8ff">1</text>
</a>
</g>
</g>
<!-- dir_150bbd271f1504029fbda942e72f1022&#45;&gt;dir_40b88aef89447451c261dfd87412a7c6 -->
<g id="edge3" class="edge">
<title>dir_150bbd271f1504029fbda942e72f1022&#45;&gt;dir_40b88aef89447451c261dfd87412a7c6</title>
<g id="a_edge3"><a xlink:href="dir_000157_000133.html" target="_top">
<path fill="none" stroke="#63b8ff" d="M231.71,-129.51C198.33,-120.88 129.16,-103 85.3,-91.66"/>
<polygon fill="#63b8ff" stroke="#63b8ff" points="86.1,-88.25 75.54,-89.14 84.35,-95.03 86.1,-88.25"/>
</a>
</g>
<g id="a_edge3&#45;headlabel"><a xlink:href="dir_000157_000133.html" target="_top" xlink:title="1">
<text text-anchor="middle" x="90.29" y="-83.9" font-family="Helvetica,sans-Serif" font-size="10.00" fill="#63b8ff">1</text>
</a>
</g>
</g>
<!-- dir_150bbd271f1504029fbda942e72f1022&#45;&gt;dir_486b9402482621fd641691dc37d76b53 -->
<g id="edge4" class="edge">
<title>dir_150bbd271f1504029fbda942e72f1022&#45;&gt;dir_486b9402482621fd641691dc37d76b53</title>
<g id="a_edge4"><a xlink:href="dir_000157_000049.html" target="_top">
<path fill="none" stroke="#63b8ff" d="M265.79,-125.96C277.73,-118.21 293.84,-105.62 302,-90 309.15,-76.32 310.6,-58.73 310.42,-45.54"/>
<polygon fill="#63b8ff" stroke="#63b8ff" points="313.91,-45.12 309.96,-35.29 306.92,-45.44 313.91,-45.12"/>
</a>
</g>
<g id="a_edge4&#45;headlabel"><a xlink:href="dir_000157_000049.html" target="_top" xlink:title="11">
<text text-anchor="middle" x="316.91" y="-46.08" font-family="Helvetica,sans-Serif" font-size="10.00" fill="#63b8ff">11</text>
</a>
</g>
</g>
<!-- dir_150bbd271f1504029fbda942e72f1022&#45;&gt;dir_994ef2a14b32cb8134d8b7b97f08d542 -->
<g id="edge5" class="edge">
<title>dir_150bbd271f1504029fbda942e72f1022&#45;&gt;dir_994ef2a14b32cb8134d8b7b97f08d542</title>
<g id="a_edge5"><a xlink:href="dir_000157_000022.html" target="_top">
<path fill="none" stroke="#63b8ff" d="M231.84,-135.22C199.49,-135.27 134.65,-130.03 105,-90 95.19,-76.76 100.86,-57.88 107.51,-44.16"/>
<polygon fill="#63b8ff" stroke="#63b8ff" points="110.66,-45.69 112.31,-35.22 104.49,-42.37 110.66,-45.69"/>
</a>
</g>
<g id="a_edge5&#45;headlabel"><a xlink:href="dir_000157_000022.html" target="_top" xlink:title="3">
<text text-anchor="middle" x="111.45" y="-47.7" font-family="Helvetica,sans-Serif" font-size="10.00" fill="#63b8ff">3</text>
</a>
</g>
</g>
<!-- dir_f773d5e1af49522d99f36104aefb07ab -->
<g id="node9" class="node">
<title>dir_f773d5e1af49522d99f36104aefb07ab</title>
<g id="a_node9"><a xlink:href="dir_f773d5e1af49522d99f36104aefb07ab.html" target="_top" xlink:title="statistics">
<polygon fill="#fdaf60" stroke="#404040" points="293.5,-90 232.5,-90 232.5,-71 293.5,-71 293.5,-90"/>
<text text-anchor="middle" x="263" y="-78" font-family="Helvetica,sans-Serif" font-size="10.00">statistics</text>
</a>
</g>
</g>
<!-- dir_150bbd271f1504029fbda942e72f1022&#45;&gt;dir_f773d5e1af49522d99f36104aefb07ab -->
<g id="edge7" class="edge">
<title>dir_150bbd271f1504029fbda942e72f1022&#45;&gt;dir_f773d5e1af49522d99f36104aefb07ab</title>
<g id="a_edge7"><a xlink:href="dir_000157_000121.html" target="_top">
<path fill="none" stroke="#63b8ff" d="M252.98,-125.75C254.57,-118.72 256.86,-108.62 258.85,-99.84"/>
<polygon fill="#63b8ff" stroke="#63b8ff" points="262.26,-100.62 261.06,-90.09 255.43,-99.07 262.26,-100.62"/>
</a>
</g>
<g id="a_edge7&#45;headlabel"><a xlink:href="dir_000157_000121.html" target="_top" xlink:title="1">
<text text-anchor="middle" x="264.24" y="-102.25" font-family="Helvetica,sans-Serif" font-size="10.00" fill="#63b8ff">1</text>
</a>
</g>
</g>
<!-- dir_a7364e945deb3de9e65ddca50507f79f -->
<g id="node10" class="node">
<title>dir_a7364e945deb3de9e65ddca50507f79f</title>
<g id="a_node10"><a xlink:href="dir_a7364e945deb3de9e65ddca50507f79f.html" target="_top" xlink:title="userver">
<polygon fill="#feefdf" stroke="red" points="405.5,-35 352.5,-35 352.5,-16 405.5,-16 405.5,-35"/>
<text text-anchor="middle" x="379" y="-23" font-family="Helvetica,sans-Serif" font-size="10.00">userver</text>
</a>
</g>
</g>
<!-- dir_150bbd271f1504029fbda942e72f1022&#45;&gt;dir_a7364e945deb3de9e65ddca50507f79f -->
<g id="edge6" class="edge">
<title>dir_150bbd271f1504029fbda942e72f1022&#45;&gt;dir_a7364e945deb3de9e65ddca50507f79f</title>
<g id="a_edge6"><a xlink:href="dir_000157_000153.html" target="_top">
<path fill="none" stroke="#63b8ff" d="M270.06,-127.27C294.33,-117.78 334.5,-101.03 346,-90 359,-77.52 367.86,-58.8 373.1,-44.92"/>
<polygon fill="#63b8ff" stroke="#63b8ff" points="376.42,-46.02 376.41,-35.43 369.81,-43.72 376.42,-46.02"/>
</a>
</g>
<g id="a_edge6&#45;headlabel"><a xlink:href="dir_000157_000153.html" target="_top" xlink:title="34">
<text text-anchor="middle" x="377.92" y="-47.85" font-family="Helvetica,sans-Serif" font-size="10.00" fill="#63b8ff">34</text>
</a>
</g>
</g>
<!-- dir_711ed6bd7af283662f9e60bcc03a54df -->
<g id="node8" class="node">
<title>dir_711ed6bd7af283662f9e60bcc03a54df</title>
<g id="a_node8"><a xlink:href="dir_711ed6bd7af283662f9e60bcc03a54df.html" target="_top" xlink:title="impl">
<polygon fill="#fdaf60" stroke="#404040" points="326,-145 288,-145 288,-126 326,-126 326,-145"/>
<text text-anchor="middle" x="307" y="-133" font-family="Helvetica,sans-Serif" font-size="10.00">impl</text>
</a>
</g>
</g>
<!-- dir_711ed6bd7af283662f9e60bcc03a54df&#45;&gt;dir_486b9402482621fd641691dc37d76b53 -->
<g id="edge8" class="edge">
<title>dir_711ed6bd7af283662f9e60bcc03a54df&#45;&gt;dir_486b9402482621fd641691dc37d76b53</title>
<g id="a_edge8"><a xlink:href="dir_000069_000049.html" target="_top">
<path fill="none" stroke="#63b8ff" d="M309.83,-125.75C312.55,-116.86 316.46,-102.64 318,-90 319.45,-78.09 319.45,-74.91 318,-63 317.28,-57.08 315.93,-50.73 314.49,-45.02"/>
<polygon fill="#63b8ff" stroke="#63b8ff" points="317.78,-43.8 311.74,-35.09 311.03,-45.66 317.78,-43.8"/>
</a>
</g>
<g id="a_edge8&#45;headlabel"><a xlink:href="dir_000069_000049.html" target="_top" xlink:title="1">
<text text-anchor="middle" x="321.47" y="-44.01" font-family="Helvetica,sans-Serif" font-size="10.00" fill="#63b8ff">1</text>
</a>
</g>
</g>
<!-- dir_711ed6bd7af283662f9e60bcc03a54df&#45;&gt;dir_a7364e945deb3de9e65ddca50507f79f -->
<g id="edge9" class="edge">
<title>dir_711ed6bd7af283662f9e60bcc03a54df&#45;&gt;dir_a7364e945deb3de9e65ddca50507f79f</title>
<g id="a_edge9"><a xlink:href="dir_000069_000153.html" target="_top">
<path fill="none" stroke="#63b8ff" d="M326.23,-127.86C342.59,-121.1 365.11,-108.9 376,-90 383.75,-76.55 383.89,-58.72 382.44,-45.37"/>
<polygon fill="#63b8ff" stroke="#63b8ff" points="385.9,-44.8 380.99,-35.42 378.97,-45.82 385.9,-44.8"/>
</a>
</g>
<g id="a_edge9&#45;headlabel"><a xlink:href="dir_000069_000153.html" target="_top" xlink:title="4">
<text text-anchor="middle" x="389.23" y="-45.45" font-family="Helvetica,sans-Serif" font-size="10.00" fill="#63b8ff">4</text>
</a>
</g>
</g>
<!-- dir_f773d5e1af49522d99f36104aefb07ab&#45;&gt;dir_486b9402482621fd641691dc37d76b53 -->
<g id="edge10" class="edge">
<title>dir_f773d5e1af49522d99f36104aefb07ab&#45;&gt;dir_486b9402482621fd641691dc37d76b53</title>
<g id="a_edge10"><a xlink:href="dir_000121_000049.html" target="_top">
<path fill="none" stroke="#63b8ff" d="M270.6,-70.75C277.16,-63.18 286.82,-52.05 294.81,-42.84"/>
<polygon fill="#63b8ff" stroke="#63b8ff" points="297.63,-44.94 301.55,-35.09 292.35,-40.35 297.63,-44.94"/>
</a>
</g>
<g id="a_edge10&#45;headlabel"><a xlink:href="dir_000121_000049.html" target="_top" xlink:title="2">
<text text-anchor="middle" x="297.42" y="-47.01" font-family="Helvetica,sans-Serif" font-size="10.00" fill="#63b8ff">2</text>
</a>
</g>
</g>
<!-- dir_f773d5e1af49522d99f36104aefb07ab&#45;&gt;dir_994ef2a14b32cb8134d8b7b97f08d542 -->
<g id="edge11" class="edge">
<title>dir_f773d5e1af49522d99f36104aefb07ab&#45;&gt;dir_994ef2a14b32cb8134d8b7b97f08d542</title>
<g id="a_edge11"><a xlink:href="dir_000121_000022.html" target="_top">
<path fill="none" stroke="#63b8ff" d="M245.74,-70.86C240.14,-68.19 233.86,-65.34 228,-63 204.61,-53.65 177.8,-44.71 156.5,-38.03"/>
<polygon fill="#63b8ff" stroke="#63b8ff" points="157.42,-34.65 146.83,-35.03 155.34,-41.33 157.42,-34.65"/>
</a>
</g>
<g id="a_edge11&#45;headlabel"><a xlink:href="dir_000121_000022.html" target="_top" xlink:title="2">
<text text-anchor="middle" x="161.69" y="-30.5" font-family="Helvetica,sans-Serif" font-size="10.00" fill="#63b8ff">2</text>
</a>
</g>
</g>
<!-- dir_f773d5e1af49522d99f36104aefb07ab&#45;&gt;dir_e64dfdcbff0f609bc29171eebbcbbcc9 -->
<g id="edge13" class="edge">
<title>dir_f773d5e1af49522d99f36104aefb07ab&#45;&gt;dir_e64dfdcbff0f609bc29171eebbcbbcc9</title>
<g id="a_edge13"><a xlink:href="dir_000121_000024.html" target="_top">
<path fill="none" stroke="#63b8ff" d="M257.88,-70.75C253.64,-63.49 247.47,-52.95 242.22,-43.98"/>
<polygon fill="#63b8ff" stroke="#63b8ff" points="245.09,-41.95 237.02,-35.09 239.05,-45.49 245.09,-41.95"/>
</a>
</g>
<g id="a_edge13&#45;headlabel"><a xlink:href="dir_000121_000024.html" target="_top" xlink:title="1">
<text text-anchor="middle" x="249.36" y="-41.12" font-family="Helvetica,sans-Serif" font-size="10.00" fill="#63b8ff">1</text>
</a>
</g>
</g>
<!-- dir_f773d5e1af49522d99f36104aefb07ab&#45;&gt;dir_a7364e945deb3de9e65ddca50507f79f -->
<g id="edge12" class="edge">
<title>dir_f773d5e1af49522d99f36104aefb07ab&#45;&gt;dir_a7364e945deb3de9e65ddca50507f79f</title>
<g id="a_edge12"><a xlink:href="dir_000121_000153.html" target="_top">
<path fill="none" stroke="#63b8ff" d="M281.64,-70.98C300.3,-62.46 329.25,-49.23 350.74,-39.41"/>
<polygon fill="#63b8ff" stroke="#63b8ff" points="352.38,-42.51 360.02,-35.17 349.47,-36.14 352.38,-42.51"/>
</a>
</g>
<g id="a_edge12&#45;headlabel"><a xlink:href="dir_000121_000153.html" target="_top" xlink:title="19">
<text text-anchor="middle" x="350.29" y="-44.09" font-family="Helvetica,sans-Serif" font-size="10.00" fill="#63b8ff">19</text>
</a>
</g>
</g>
</g>
</svg>
