<?xml version="1.0" encoding="UTF-8" standalone="no"?>
<!DOCTYPE svg PUBLIC "-//W3C//DTD SVG 1.1//EN"
 "http://www.w3.org/Graphics/SVG/1.1/DTD/svg11.dtd">
<!-- Generated by graphviz version 2.43.0 (0)
 -->
<!-- Title: userver/clients/http Pages: 1 -->
<svg width="594pt" height="125pt"
 viewBox="0.00 0.00 593.50 125.00" xmlns="http://www.w3.org/2000/svg" xmlns:xlink="http://www.w3.org/1999/xlink">
<g id="graph0" class="graph" transform="scale(1 1) rotate(0) translate(4 121)">
<title>userver/clients/http</title>
<g id="clust1" class="cluster">
<title>clusterdir_977bdc1b15aad864e706361ca31eff2e</title>
<g id="a_clust1"><a xlink:href="dir_977bdc1b15aad864e706361ca31eff2e.html" target="_top" xlink:title="clients">
<polygon fill="#feefdf" stroke="#7f7f7f" stroke-dasharray="5,2" points="168,-39 168,-109 306,-109 306,-39 168,-39"/>
<text text-anchor="middle" x="237" y="-97" font-family="Helvetica,sans-Serif" font-size="10.00">clients</text>
</a>
</g>
</g>
<g id="clust2" class="cluster">
<title>clusterdir_66253c40696f945a0fa4daca02b135e2</title>
<g id="a_clust2"><a xlink:href="dir_66253c40696f945a0fa4daca02b135e2.html" target="_top">
<polygon fill="#feefdf" stroke="#404040" stroke-width="2" points="176,-47 176,-82 298,-82 298,-47 176,-47"/>
</a>
</g>
</g>
<!-- dir_66253c40696f945a0fa4daca02b135e2 -->
<g id="node1" class="node">
<title>dir_66253c40696f945a0fa4daca02b135e2</title>
<text text-anchor="middle" x="272" y="-62" font-family="Helvetica,sans-Serif" font-size="10.00">http</text>
</g>
<!-- dir_150bbd271f1504029fbda942e72f1022 -->
<g id="node3" class="node">
<title>dir_150bbd271f1504029fbda942e72f1022</title>
<g id="a_node3"><a xlink:href="dir_150bbd271f1504029fbda942e72f1022.html" target="_top" xlink:title="utils">
<polygon fill="#feefdf" stroke="red" stroke-dasharray="5,2" points="38,-19 0,-19 0,0 38,0 38,-19"/>
<text text-anchor="middle" x="19" y="-7" font-family="Helvetica,sans-Serif" font-size="10.00">utils</text>
</a>
</g>
</g>
<!-- dir_66253c40696f945a0fa4daca02b135e2&#45;&gt;dir_150bbd271f1504029fbda942e72f1022 -->
<g id="edge1" class="edge">
<title>dir_66253c40696f945a0fa4daca02b135e2&#45;&gt;dir_150bbd271f1504029fbda942e72f1022</title>
<g id="a_edge1"><a xlink:href="dir_000058_000157.html" target="_top">
<path fill="none" stroke="#63b8ff" d="M264.95,-54.7C259.99,-49.2 252.86,-42.5 245,-39 167.04,-4.3 135.93,-34.11 48,-18.72"/>
<polygon fill="#63b8ff" stroke="#63b8ff" points="48.63,-15.28 38.15,-16.85 47.33,-22.15 48.63,-15.28"/>
</a>
</g>
<g id="a_edge1&#45;headlabel"><a xlink:href="dir_000058_000157.html" target="_top" xlink:title="2">
<text text-anchor="middle" x="52.69" y="-10.66" font-family="Helvetica,sans-Serif" font-size="10.00" fill="#63b8ff">2</text>
</a>
</g>
</g>
<!-- dir_3285f5f33091c25af669261537588667 -->
<g id="node4" class="node">
<title>dir_3285f5f33091c25af669261537588667</title>
<g id="a_node4"><a xlink:href="dir_3285f5f33091c25af669261537588667.html" target="_top" xlink:title="rcu">
<polygon fill="#feefdf" stroke="#7f7f7f" points="88,-19 56,-19 56,0 88,0 88,-19"/>
<text text-anchor="middle" x="72" y="-7" font-family="Helvetica,sans-Serif" font-size="10.00">rcu</text>
</a>
</g>
</g>
<!-- dir_66253c40696f945a0fa4daca02b135e2&#45;&gt;dir_3285f5f33091c25af669261537588667 -->
<g id="edge2" class="edge">
<title>dir_66253c40696f945a0fa4daca02b135e2&#45;&gt;dir_3285f5f33091c25af669261537588667</title>
<g id="a_edge2"><a xlink:href="dir_000058_000112.html" target="_top">
<path fill="none" stroke="#63b8ff" d="M264.91,-54.79C259.94,-49.32 252.8,-42.63 245,-39 187.64,-12.3 163.87,-32.14 98.03,-18.69"/>
<polygon fill="#63b8ff" stroke="#63b8ff" points="98.53,-15.21 88,-16.45 97,-22.04 98.53,-15.21"/>
</a>
</g>
<g id="a_edge2&#45;headlabel"><a xlink:href="dir_000058_000112.html" target="_top" xlink:title="1">
<text text-anchor="middle" x="102.65" y="-10.72" font-family="Helvetica,sans-Serif" font-size="10.00" fill="#63b8ff">1</text>
</a>
</g>
</g>
<!-- dir_486b9402482621fd641691dc37d76b53 -->
<g id="node5" class="node">
<title>dir_486b9402482621fd641691dc37d76b53</title>
<g id="a_node5"><a xlink:href="dir_486b9402482621fd641691dc37d76b53.html" target="_top" xlink:title="engine">
<polygon fill="#feefdf" stroke="red" stroke-dasharray="5,2" points="156,-19 106,-19 106,0 156,0 156,-19"/>
<text text-anchor="middle" x="131" y="-7" font-family="Helvetica,sans-Serif" font-size="10.00">engine</text>
</a>
</g>
</g>
<!-- dir_66253c40696f945a0fa4daca02b135e2&#45;&gt;dir_486b9402482621fd641691dc37d76b53 -->
<g id="edge3" class="edge">
<title>dir_66253c40696f945a0fa4daca02b135e2&#45;&gt;dir_486b9402482621fd641691dc37d76b53</title>
<g id="a_edge3"><a xlink:href="dir_000058_000049.html" target="_top">
<path fill="none" stroke="#63b8ff" d="M264.32,-54.6C259.32,-49.33 252.37,-42.94 245,-39 244.94,-38.97 199.44,-27.6 165.95,-19.23"/>
<polygon fill="#63b8ff" stroke="#63b8ff" points="166.55,-15.77 156,-16.75 164.85,-22.56 166.55,-15.77"/>
</a>
</g>
<g id="a_edge3&#45;headlabel"><a xlink:href="dir_000058_000049.html" target="_top" xlink:title="5">
<text text-anchor="middle" x="170.73" y="-11.39" font-family="Helvetica,sans-Serif" font-size="10.00" fill="#63b8ff">5</text>
</a>
</g>
</g>
<!-- dir_6fe6ce792de102936b3c02369b7e8bae -->
<g id="node6" class="node">
<title>dir_6fe6ce792de102936b3c02369b7e8bae</title>
<g id="a_node6"><a xlink:href="dir_6fe6ce792de102936b3c02369b7e8bae.html" target="_top" xlink:title="dynamic_config">
<polygon fill="#feefdf" stroke="red" stroke-dasharray="5,2" points="267.5,-19 174.5,-19 174.5,0 267.5,0 267.5,-19"/>
<text text-anchor="middle" x="221" y="-7" font-family="Helvetica,sans-Serif" font-size="10.00">dynamic_config</text>
</a>
</g>
</g>
<!-- dir_66253c40696f945a0fa4daca02b135e2&#45;&gt;dir_6fe6ce792de102936b3c02369b7e8bae -->
<g id="edge4" class="edge">
<title>dir_66253c40696f945a0fa4daca02b135e2&#45;&gt;dir_6fe6ce792de102936b3c02369b7e8bae</title>
<g id="a_edge4"><a xlink:href="dir_000058_000046.html" target="_top">
<path fill="none" stroke="#63b8ff" d="M263.58,-54.75C256.23,-47.11 245.37,-35.82 236.46,-26.56"/>
<polygon fill="#63b8ff" stroke="#63b8ff" points="238.72,-23.87 229.26,-19.09 233.68,-28.72 238.72,-23.87"/>
</a>
</g>
<g id="a_edge4&#45;headlabel"><a xlink:href="dir_000058_000046.html" target="_top" xlink:title="2">
<text text-anchor="middle" x="243.26" y="-21.99" font-family="Helvetica,sans-Serif" font-size="10.00" fill="#63b8ff">2</text>
</a>
</g>
</g>
<!-- dir_994ef2a14b32cb8134d8b7b97f08d542 -->
<g id="node7" class="node">
<title>dir_994ef2a14b32cb8134d8b7b97f08d542</title>
<g id="a_node7"><a xlink:href="dir_994ef2a14b32cb8134d8b7b97f08d542.html" target="_top" xlink:title="components">
<polygon fill="#feefdf" stroke="red" stroke-dasharray="5,2" points="362.5,-19 285.5,-19 285.5,0 362.5,0 362.5,-19"/>
<text text-anchor="middle" x="324" y="-7" font-family="Helvetica,sans-Serif" font-size="10.00">components</text>
</a>
</g>
</g>
<!-- dir_66253c40696f945a0fa4daca02b135e2&#45;&gt;dir_994ef2a14b32cb8134d8b7b97f08d542 -->
<g id="edge5" class="edge">
<title>dir_66253c40696f945a0fa4daca02b135e2&#45;&gt;dir_994ef2a14b32cb8134d8b7b97f08d542</title>
<g id="a_edge5"><a xlink:href="dir_000058_000022.html" target="_top">
<path fill="none" stroke="#63b8ff" d="M280.59,-54.75C288.16,-47.03 299.38,-35.6 308.51,-26.28"/>
<polygon fill="#63b8ff" stroke="#63b8ff" points="311.07,-28.68 315.57,-19.09 306.07,-23.78 311.07,-28.68"/>
</a>
</g>
<g id="a_edge5&#45;headlabel"><a xlink:href="dir_000058_000022.html" target="_top" xlink:title="2">
<text text-anchor="middle" x="310.58" y="-30.73" font-family="Helvetica,sans-Serif" font-size="10.00" fill="#63b8ff">2</text>
</a>
</g>
</g>
<!-- dir_a7364e945deb3de9e65ddca50507f79f -->
<g id="node8" class="node">
<title>dir_a7364e945deb3de9e65ddca50507f79f</title>
<g id="a_node8"><a xlink:href="dir_a7364e945deb3de9e65ddca50507f79f.html" target="_top" xlink:title="userver">
<polygon fill="#feefdf" stroke="red" points="433.5,-19 380.5,-19 380.5,0 433.5,0 433.5,-19"/>
<text text-anchor="middle" x="407" y="-7" font-family="Helvetica,sans-Serif" font-size="10.00">userver</text>
</a>
</g>
</g>
<!-- dir_66253c40696f945a0fa4daca02b135e2&#45;&gt;dir_a7364e945deb3de9e65ddca50507f79f -->
<g id="edge6" class="edge">
<title>dir_66253c40696f945a0fa4daca02b135e2&#45;&gt;dir_a7364e945deb3de9e65ddca50507f79f</title>
<g id="a_edge6"><a xlink:href="dir_000058_000153.html" target="_top">
<path fill="none" stroke="#63b8ff" d="M290.21,-56.35C312.03,-47.78 348.98,-33.28 375.47,-22.88"/>
<polygon fill="#63b8ff" stroke="#63b8ff" points="377.03,-26.02 385.06,-19.11 374.48,-19.51 377.03,-26.02"/>
</a>
</g>
<g id="a_edge6&#45;headlabel"><a xlink:href="dir_000058_000153.html" target="_top" xlink:title="10">
<text text-anchor="middle" x="374.73" y="-27.48" font-family="Helvetica,sans-Serif" font-size="10.00" fill="#63b8ff">10</text>
</a>
</g>
</g>
<!-- dir_e64dfdcbff0f609bc29171eebbcbbcc9 -->
<g id="node9" class="node">
<title>dir_e64dfdcbff0f609bc29171eebbcbbcc9</title>
<g id="a_node9"><a xlink:href="dir_e64dfdcbff0f609bc29171eebbcbbcc9.html" target="_top" xlink:title="concurrent">
<polygon fill="#feefdf" stroke="red" stroke-dasharray="5,2" points="520,-19 452,-19 452,0 520,0 520,-19"/>
<text text-anchor="middle" x="486" y="-7" font-family="Helvetica,sans-Serif" font-size="10.00">concurrent</text>
</a>
</g>
</g>
<!-- dir_66253c40696f945a0fa4daca02b135e2&#45;&gt;dir_e64dfdcbff0f609bc29171eebbcbbcc9 -->
<g id="edge7" class="edge">
<title>dir_66253c40696f945a0fa4daca02b135e2&#45;&gt;dir_e64dfdcbff0f609bc29171eebbcbbcc9</title>
<g id="a_edge7"><a xlink:href="dir_000058_000024.html" target="_top">
<path fill="none" stroke="#63b8ff" d="M290.25,-58.98C323.58,-50.73 395.19,-32.99 441.94,-21.41"/>
<polygon fill="#63b8ff" stroke="#63b8ff" points="442.94,-24.77 451.8,-18.97 441.25,-17.98 442.94,-24.77"/>
</a>
</g>
<g id="a_edge7&#45;headlabel"><a xlink:href="dir_000058_000024.html" target="_top" xlink:title="1">
<text text-anchor="middle" x="440.13" y="-25.89" font-family="Helvetica,sans-Serif" font-size="10.00" fill="#63b8ff">1</text>
</a>
</g>
</g>
<!-- dir_ee914885184833579e051451a9f6b65c -->
<g id="node10" class="node">
<title>dir_ee914885184833579e051451a9f6b65c</title>
<g id="a_node10"><a xlink:href="dir_ee914885184833579e051451a9f6b65c.html" target="_top" xlink:title="server">
<polygon fill="#feefdf" stroke="red" stroke-dasharray="5,2" points="585.5,-19 538.5,-19 538.5,0 585.5,0 585.5,-19"/>
<text text-anchor="middle" x="562" y="-7" font-family="Helvetica,sans-Serif" font-size="10.00">server</text>
</a>
</g>
</g>
<!-- dir_66253c40696f945a0fa4daca02b135e2&#45;&gt;dir_ee914885184833579e051451a9f6b65c -->
<g id="edge8" class="edge">
<title>dir_66253c40696f945a0fa4daca02b135e2&#45;&gt;dir_ee914885184833579e051451a9f6b65c</title>
<g id="a_edge8"><a xlink:href="dir_000058_000119.html" target="_top">
<path fill="none" stroke="#63b8ff" d="M290.17,-60.87C330.93,-54.86 432.94,-39.22 528.45,-18.96"/>
<polygon fill="#63b8ff" stroke="#63b8ff" points="529.22,-22.38 538.26,-16.86 527.75,-15.53 529.22,-22.38"/>
</a>
</g>
<g id="a_edge8&#45;headlabel"><a xlink:href="dir_000058_000119.html" target="_top" xlink:title="1">
<text text-anchor="middle" x="526.3" y="-23.41" font-family="Helvetica,sans-Serif" font-size="10.00" fill="#63b8ff">1</text>
</a>
</g>
</g>
<!-- dir_d64a4d1a17ec4019b97ddebbf1639f8d -->
<g id="node2" class="node">
<title>dir_d64a4d1a17ec4019b97ddebbf1639f8d</title>
<g id="a_node2"><a xlink:href="dir_d64a4d1a17ec4019b97ddebbf1639f8d.html" target="_top" xlink:title="plugins">
<polygon fill="#fdaf60" stroke="#404040" points="236,-74 184,-74 184,-55 236,-55 236,-74"/>
<text text-anchor="middle" x="210" y="-62" font-family="Helvetica,sans-Serif" font-size="10.00">plugins</text>
</a>
</g>
</g>
</g>
</svg>
