<?xml version="1.0" encoding="UTF-8" standalone="no"?>
<!DOCTYPE svg PUBLIC "-//W3C//DTD SVG 1.1//EN"
 "http://www.w3.org/Graphics/SVG/1.1/DTD/svg11.dtd">
<!-- Generated by graphviz version 2.43.0 (0)
 -->
<!-- Title: userver/server Pages: 1 -->
<svg width="1130pt" height="306pt"
 viewBox="0.00 0.00 1129.50 306.00" xmlns="http://www.w3.org/2000/svg" xmlns:xlink="http://www.w3.org/1999/xlink">
<g id="graph0" class="graph" transform="scale(1 1) rotate(0) translate(4 302)">
<title>userver/server</title>
<g id="clust1" class="cluster">
<title>clusterdir_26f8c63b8c67b2ed6c1b7078f08f1e18</title>
<g id="a_clust1"><a xlink:href="dir_26f8c63b8c67b2ed6c1b7078f08f1e18.html" target="_top" xlink:title="userver">
<polygon fill="#feefdf" stroke="#404040" stroke-dasharray="5,2" points="8,-8 8,-290 1060,-290 1060,-8 8,-8"/>
<text text-anchor="middle" x="534" y="-278" font-family="Helvetica,sans-Serif" font-size="10.00">userver</text>
</a>
</g>
</g>
<g id="clust2" class="cluster">
<title>clusterdir_ee914885184833579e051451a9f6b65c</title>
<g id="a_clust2"><a xlink:href="dir_ee914885184833579e051451a9f6b65c.html" target="_top">
<polygon fill="#feefdf" stroke="#404040" stroke-width="2" points="677,-63 677,-263 1052,-263 1052,-63 677,-63"/>
</a>
</g>
</g>
<!-- dir_0c57938951830d22b3fad77440a122e7 -->
<g id="node1" class="node">
<title>dir_0c57938951830d22b3fad77440a122e7</title>
<g id="a_node1"><a xlink:href="dir_0c57938951830d22b3fad77440a122e7.html" target="_top" xlink:title="tracing">
<polygon fill="#fdaf60" stroke="#404040" points="406,-145 356,-145 356,-126 406,-126 406,-145"/>
<text text-anchor="middle" x="381" y="-133" font-family="Helvetica,sans-Serif" font-size="10.00">tracing</text>
</a>
</g>
</g>
<!-- dir_150bbd271f1504029fbda942e72f1022 -->
<g id="node2" class="node">
<title>dir_150bbd271f1504029fbda942e72f1022</title>
<g id="a_node2"><a xlink:href="dir_150bbd271f1504029fbda942e72f1022.html" target="_top" xlink:title="utils">
<polygon fill="#fdaf60" stroke="red" points="172,-145 134,-145 134,-126 172,-126 172,-145"/>
<text text-anchor="middle" x="153" y="-133" font-family="Helvetica,sans-Serif" font-size="10.00">utils</text>
</a>
</g>
</g>
<!-- dir_2c6b70c628beb7fc0194b7f508f3ad90 -->
<g id="node3" class="node">
<title>dir_2c6b70c628beb7fc0194b7f508f3ad90</title>
<g id="a_node3"><a xlink:href="dir_2c6b70c628beb7fc0194b7f508f3ad90.html" target="_top" xlink:title="cache">
<polygon fill="#fdaf60" stroke="#404040" points="668.5,-145 623.5,-145 623.5,-126 668.5,-126 668.5,-145"/>
<text text-anchor="middle" x="646" y="-133" font-family="Helvetica,sans-Serif" font-size="10.00">cache</text>
</a>
</g>
</g>
<!-- dir_3285f5f33091c25af669261537588667 -->
<g id="node4" class="node">
<title>dir_3285f5f33091c25af669261537588667</title>
<g id="a_node4"><a xlink:href="dir_3285f5f33091c25af669261537588667.html" target="_top" xlink:title="rcu">
<polygon fill="#fdaf60" stroke="#404040" points="338,-145 306,-145 306,-126 338,-126 338,-145"/>
<text text-anchor="middle" x="322" y="-133" font-family="Helvetica,sans-Serif" font-size="10.00">rcu</text>
</a>
</g>
</g>
<!-- dir_486b9402482621fd641691dc37d76b53 -->
<g id="node5" class="node">
<title>dir_486b9402482621fd641691dc37d76b53</title>
<g id="a_node5"><a xlink:href="dir_486b9402482621fd641691dc37d76b53.html" target="_top" xlink:title="engine">
<polygon fill="#fdaf60" stroke="red" points="357,-35 307,-35 307,-16 357,-16 357,-35"/>
<text text-anchor="middle" x="332" y="-23" font-family="Helvetica,sans-Serif" font-size="10.00">engine</text>
</a>
</g>
</g>
<!-- dir_6fe6ce792de102936b3c02369b7e8bae -->
<g id="node6" class="node">
<title>dir_6fe6ce792de102936b3c02369b7e8bae</title>
<g id="a_node6"><a xlink:href="dir_6fe6ce792de102936b3c02369b7e8bae.html" target="_top" xlink:title="dynamic_config">
<polygon fill="#fdaf60" stroke="red" points="605.5,-145 512.5,-145 512.5,-126 605.5,-126 605.5,-145"/>
<text text-anchor="middle" x="559" y="-133" font-family="Helvetica,sans-Serif" font-size="10.00">dynamic_config</text>
</a>
</g>
</g>
<!-- dir_994ef2a14b32cb8134d8b7b97f08d542 -->
<g id="node7" class="node">
<title>dir_994ef2a14b32cb8134d8b7b97f08d542</title>
<g id="a_node7"><a xlink:href="dir_994ef2a14b32cb8134d8b7b97f08d542.html" target="_top" xlink:title="components">
<polygon fill="#fdaf60" stroke="red" points="287.5,-145 210.5,-145 210.5,-126 287.5,-126 287.5,-145"/>
<text text-anchor="middle" x="249" y="-133" font-family="Helvetica,sans-Serif" font-size="10.00">components</text>
</a>
</g>
</g>
<!-- dir_a002d428d11eb8614f350575a2d4c4e0 -->
<g id="node8" class="node">
<title>dir_a002d428d11eb8614f350575a2d4c4e0</title>
<g id="a_node8"><a xlink:href="dir_a002d428d11eb8614f350575a2d4c4e0.html" target="_top" xlink:title="fs">
<polygon fill="#fdaf60" stroke="#404040" points="453.5,-145 424.5,-145 424.5,-126 453.5,-126 453.5,-145"/>
<text text-anchor="middle" x="439" y="-133" font-family="Helvetica,sans-Serif" font-size="10.00">fs</text>
</a>
</g>
</g>
<!-- dir_b2e5dd734b4dca0bb7544c080eed55d0 -->
<g id="node9" class="node">
<title>dir_b2e5dd734b4dca0bb7544c080eed55d0</title>
<g id="a_node9"><a xlink:href="dir_b2e5dd734b4dca0bb7544c080eed55d0.html" target="_top" xlink:title="storages">
<polygon fill="#fdaf60" stroke="red" points="115.5,-145 56.5,-145 56.5,-126 115.5,-126 115.5,-145"/>
<text text-anchor="middle" x="86" y="-133" font-family="Helvetica,sans-Serif" font-size="10.00">storages</text>
</a>
</g>
</g>
<!-- dir_e64dfdcbff0f609bc29171eebbcbbcc9 -->
<g id="node10" class="node">
<title>dir_e64dfdcbff0f609bc29171eebbcbbcc9</title>
<g id="a_node10"><a xlink:href="dir_e64dfdcbff0f609bc29171eebbcbbcc9.html" target="_top" xlink:title="concurrent">
<polygon fill="#fdaf60" stroke="red" points="614,-90 546,-90 546,-71 614,-71 614,-90"/>
<text text-anchor="middle" x="580" y="-78" font-family="Helvetica,sans-Serif" font-size="10.00">concurrent</text>
</a>
</g>
</g>
<!-- dir_ee914885184833579e051451a9f6b65c -->
<g id="node11" class="node">
<title>dir_ee914885184833579e051451a9f6b65c</title>
<text text-anchor="middle" x="709" y="-243" font-family="Helvetica,sans-Serif" font-size="10.00">server</text>
</g>
<!-- dir_ee914885184833579e051451a9f6b65c&#45;&gt;dir_150bbd271f1504029fbda942e72f1022 -->
<g id="edge1" class="edge">
<title>dir_ee914885184833579e051451a9f6b65c&#45;&gt;dir_150bbd271f1504029fbda942e72f1022</title>
<g id="a_edge1"><a xlink:href="dir_000119_000157.html" target="_top">
<path fill="none" stroke="#63b8ff" d="M685.46,-243.79C589.4,-240.7 230.16,-227.39 188,-200 172.2,-189.74 162.91,-169.77 157.92,-154.95"/>
<polygon fill="#63b8ff" stroke="#63b8ff" points="161.25,-153.85 155.02,-145.29 154.54,-155.87 161.25,-153.85"/>
</a>
</g>
<g id="a_edge1&#45;headlabel"><a xlink:href="dir_000119_000157.html" target="_top" xlink:title="5">
<text text-anchor="middle" x="165" y="-153.98" font-family="Helvetica,sans-Serif" font-size="10.00" fill="#63b8ff">5</text>
</a>
</g>
</g>
<!-- dir_ee914885184833579e051451a9f6b65c&#45;&gt;dir_486b9402482621fd641691dc37d76b53 -->
<g id="edge2" class="edge">
<title>dir_ee914885184833579e051451a9f6b65c&#45;&gt;dir_486b9402482621fd641691dc37d76b53</title>
<g id="a_edge2"><a xlink:href="dir_000119_000049.html" target="_top">
<path fill="none" stroke="#63b8ff" d="M685.24,-244C590.3,-241.82 238.27,-231.7 132,-200 83.39,-185.5 57.82,-188.66 32,-145 13.45,-113.63 7.84,-90.28 32,-63 49.32,-43.45 221.22,-32.23 296.73,-28.21"/>
<polygon fill="#63b8ff" stroke="#63b8ff" points="296.92,-31.7 306.72,-27.69 296.55,-24.71 296.92,-31.7"/>
</a>
</g>
<g id="a_edge2&#45;headlabel"><a xlink:href="dir_000119_000049.html" target="_top" xlink:title="9">
<text text-anchor="middle" x="293.47" y="-32.23" font-family="Helvetica,sans-Serif" font-size="10.00" fill="#63b8ff">9</text>
</a>
</g>
</g>
<!-- dir_ee914885184833579e051451a9f6b65c&#45;&gt;dir_994ef2a14b32cb8134d8b7b97f08d542 -->
<g id="edge3" class="edge">
<title>dir_ee914885184833579e051451a9f6b65c&#45;&gt;dir_994ef2a14b32cb8134d8b7b97f08d542</title>
<g id="a_edge3"><a xlink:href="dir_000119_000022.html" target="_top">
<path fill="none" stroke="#63b8ff" d="M685.38,-244.28C589.07,-243.15 229.46,-236.49 196,-200 180.87,-183.5 203.83,-163.54 224.1,-150.46"/>
<polygon fill="#63b8ff" stroke="#63b8ff" points="226.09,-153.35 232.78,-145.14 222.43,-147.38 226.09,-153.35"/>
</a>
</g>
<g id="a_edge3&#45;headlabel"><a xlink:href="dir_000119_000022.html" target="_top" xlink:title="12">
<text text-anchor="middle" x="224.5" y="-155.14" font-family="Helvetica,sans-Serif" font-size="10.00" fill="#63b8ff">12</text>
</a>
</g>
</g>
<!-- dir_ee914885184833579e051451a9f6b65c&#45;&gt;dir_b2e5dd734b4dca0bb7544c080eed55d0 -->
<g id="edge5" class="edge">
<title>dir_ee914885184833579e051451a9f6b65c&#45;&gt;dir_b2e5dd734b4dca0bb7544c080eed55d0</title>
<g id="a_edge5"><a xlink:href="dir_000119_000125.html" target="_top">
<path fill="none" stroke="#63b8ff" d="M685.28,-244.35C593.73,-243.51 263.59,-237.84 167,-200 140.65,-189.68 115.9,-167.82 100.85,-152.65"/>
<polygon fill="#63b8ff" stroke="#63b8ff" points="103.37,-150.22 93.92,-145.43 98.32,-155.06 103.37,-150.22"/>
</a>
</g>
<g id="a_edge5&#45;headlabel"><a xlink:href="dir_000119_000125.html" target="_top" xlink:title="3">
<text text-anchor="middle" x="107.9" y="-148.34" font-family="Helvetica,sans-Serif" font-size="10.00" fill="#63b8ff">3</text>
</a>
</g>
</g>
<!-- dir_cbd02b5be4584b4d66ebef73a874b298 -->
<g id="node14" class="node">
<title>dir_cbd02b5be4584b4d66ebef73a874b298</title>
<g id="a_node14"><a xlink:href="dir_cbd02b5be4584b4d66ebef73a874b298.html" target="_top" xlink:title="handlers">
<polygon fill="#fdaf60" stroke="#404040" points="744.5,-200 685.5,-200 685.5,-181 744.5,-181 744.5,-200"/>
<text text-anchor="middle" x="715" y="-188" font-family="Helvetica,sans-Serif" font-size="10.00">handlers</text>
</a>
</g>
</g>
<!-- dir_ee914885184833579e051451a9f6b65c&#45;&gt;dir_cbd02b5be4584b4d66ebef73a874b298 -->
<g id="edge6" class="edge">
<title>dir_ee914885184833579e051451a9f6b65c&#45;&gt;dir_cbd02b5be4584b4d66ebef73a874b298</title>
<g id="a_edge6"><a xlink:href="dir_000119_000056.html" target="_top">
<path fill="none" stroke="#63b8ff" d="M709.99,-235.75C710.78,-228.8 711.9,-218.85 712.89,-210.13"/>
<polygon fill="#63b8ff" stroke="#63b8ff" points="716.38,-210.42 714.03,-200.09 709.42,-209.63 716.38,-210.42"/>
</a>
</g>
<g id="a_edge6&#45;headlabel"><a xlink:href="dir_000119_000056.html" target="_top" xlink:title="3">
<text text-anchor="middle" x="718.8" y="-211.81" font-family="Helvetica,sans-Serif" font-size="10.00" fill="#63b8ff">3</text>
</a>
</g>
</g>
<!-- dir_a7364e945deb3de9e65ddca50507f79f -->
<g id="node19" class="node">
<title>dir_a7364e945deb3de9e65ddca50507f79f</title>
<g id="a_node19"><a xlink:href="dir_a7364e945deb3de9e65ddca50507f79f.html" target="_top" xlink:title="userver">
<polygon fill="#feefdf" stroke="red" points="1121.5,-35 1068.5,-35 1068.5,-16 1121.5,-16 1121.5,-35"/>
<text text-anchor="middle" x="1095" y="-23" font-family="Helvetica,sans-Serif" font-size="10.00">userver</text>
</a>
</g>
</g>
<!-- dir_ee914885184833579e051451a9f6b65c&#45;&gt;dir_a7364e945deb3de9e65ddca50507f79f -->
<g id="edge4" class="edge">
<title>dir_ee914885184833579e051451a9f6b65c&#45;&gt;dir_a7364e945deb3de9e65ddca50507f79f</title>
<g id="a_edge4"><a xlink:href="dir_000119_000153.html" target="_top">
<path fill="none" stroke="#63b8ff" d="M732.74,-238.07C735.52,-237.35 738.32,-236.65 741,-236 813.96,-218.36 839.69,-235.17 906,-200 984.04,-158.61 983.65,-121.31 1050,-63 1058.3,-55.71 1067.76,-47.95 1075.86,-41.47"/>
<polygon fill="#63b8ff" stroke="#63b8ff" points="1078.04,-44.21 1083.7,-35.26 1073.69,-38.73 1078.04,-44.21"/>
</a>
</g>
<g id="a_edge4&#45;headlabel"><a xlink:href="dir_000119_000153.html" target="_top" xlink:title="41">
<text text-anchor="middle" x="1076.99" y="-46.17" font-family="Helvetica,sans-Serif" font-size="10.00" fill="#63b8ff">41</text>
</a>
</g>
</g>
<!-- dir_6dee7a840c66e9033c3284f1ad4fe4a1 -->
<g id="node12" class="node">
<title>dir_6dee7a840c66e9033c3284f1ad4fe4a1</title>
<g id="a_node12"><a xlink:href="dir_6dee7a840c66e9033c3284f1ad4fe4a1.html" target="_top" xlink:title="auth">
<polygon fill="#fdaf60" stroke="#404040" points="897,-200 859,-200 859,-181 897,-181 897,-200"/>
<text text-anchor="middle" x="878" y="-188" font-family="Helvetica,sans-Serif" font-size="10.00">auth</text>
</a>
</g>
</g>
<!-- dir_990ca0e4d1092627101070a1c89f24df -->
<g id="node17" class="node">
<title>dir_990ca0e4d1092627101070a1c89f24df</title>
<g id="a_node17"><a xlink:href="dir_990ca0e4d1092627101070a1c89f24df.html" target="_top" xlink:title="request">
<polygon fill="#fdaf60" stroke="#404040" points="787.5,-145 734.5,-145 734.5,-126 787.5,-126 787.5,-145"/>
<text text-anchor="middle" x="761" y="-133" font-family="Helvetica,sans-Serif" font-size="10.00">request</text>
</a>
</g>
</g>
<!-- dir_6dee7a840c66e9033c3284f1ad4fe4a1&#45;&gt;dir_990ca0e4d1092627101070a1c89f24df -->
<g id="edge7" class="edge">
<title>dir_6dee7a840c66e9033c3284f1ad4fe4a1&#45;&gt;dir_990ca0e4d1092627101070a1c89f24df</title>
<g id="a_edge7"><a xlink:href="dir_000001_000115.html" target="_top">
<path fill="none" stroke="#63b8ff" d="M859.2,-180.98C840.38,-172.46 811.18,-159.23 789.5,-149.41"/>
<polygon fill="#63b8ff" stroke="#63b8ff" points="790.69,-146.11 780.14,-145.17 787.8,-152.48 790.69,-146.11"/>
</a>
</g>
<g id="a_edge7&#45;headlabel"><a xlink:href="dir_000001_000115.html" target="_top" xlink:title="1">
<text text-anchor="middle" x="795.14" y="-142.51" font-family="Helvetica,sans-Serif" font-size="10.00" fill="#63b8ff">1</text>
</a>
</g>
</g>
<!-- dir_6dee7a840c66e9033c3284f1ad4fe4a1&#45;&gt;dir_a7364e945deb3de9e65ddca50507f79f -->
<g id="edge8" class="edge">
<title>dir_6dee7a840c66e9033c3284f1ad4fe4a1&#45;&gt;dir_a7364e945deb3de9e65ddca50507f79f</title>
<g id="a_edge8"><a xlink:href="dir_000001_000153.html" target="_top">
<path fill="none" stroke="#63b8ff" d="M879.5,-180.82C883.98,-157.72 899.47,-94.38 939,-63 981.07,-29.61 1005.84,-46.54 1058.51,-36.1"/>
<polygon fill="#63b8ff" stroke="#63b8ff" points="1059.31,-39.51 1068.3,-33.91 1057.78,-32.68 1059.31,-39.51"/>
</a>
</g>
<g id="a_edge8&#45;headlabel"><a xlink:href="dir_000001_000153.html" target="_top" xlink:title="5">
<text text-anchor="middle" x="1056.42" y="-40.56" font-family="Helvetica,sans-Serif" font-size="10.00" fill="#63b8ff">5</text>
</a>
</g>
</g>
<!-- dir_87e8b8d6be5db6018332e1f6029d9963 -->
<g id="node13" class="node">
<title>dir_87e8b8d6be5db6018332e1f6029d9963</title>
<g id="a_node13"><a xlink:href="dir_87e8b8d6be5db6018332e1f6029d9963.html" target="_top" xlink:title="congestion_control">
<polygon fill="#fdaf60" stroke="#404040" points="859.5,-255 750.5,-255 750.5,-236 859.5,-236 859.5,-255"/>
<text text-anchor="middle" x="805" y="-243" font-family="Helvetica,sans-Serif" font-size="10.00">congestion_control</text>
</a>
</g>
</g>
<!-- dir_87e8b8d6be5db6018332e1f6029d9963&#45;&gt;dir_3285f5f33091c25af669261537588667 -->
<g id="edge9" class="edge">
<title>dir_87e8b8d6be5db6018332e1f6029d9963&#45;&gt;dir_3285f5f33091c25af669261537588667</title>
<g id="a_edge9"><a xlink:href="dir_000026_000112.html" target="_top">
<path fill="none" stroke="#63b8ff" d="M750.19,-237.18C747.08,-236.77 744,-236.38 741,-236 608.21,-219.19 569.74,-239.97 442,-200 405.23,-188.49 366.48,-165.79 343.28,-150.88"/>
<polygon fill="#63b8ff" stroke="#63b8ff" points="344.91,-147.76 334.62,-145.21 341.07,-153.62 344.91,-147.76"/>
</a>
</g>
<g id="a_edge9&#45;headlabel"><a xlink:href="dir_000026_000112.html" target="_top" xlink:title="1">
<text text-anchor="middle" x="349.47" y="-144.85" font-family="Helvetica,sans-Serif" font-size="10.00" fill="#63b8ff">1</text>
</a>
</g>
</g>
<!-- dir_87e8b8d6be5db6018332e1f6029d9963&#45;&gt;dir_486b9402482621fd641691dc37d76b53 -->
<g id="edge10" class="edge">
<title>dir_87e8b8d6be5db6018332e1f6029d9963&#45;&gt;dir_486b9402482621fd641691dc37d76b53</title>
<g id="a_edge10"><a xlink:href="dir_000026_000049.html" target="_top">
<path fill="none" stroke="#63b8ff" d="M750.2,-237.12C747.09,-236.73 744.01,-236.36 741,-236 663.77,-226.87 97.5,-204.14 47,-145 -25.05,-60.63 205.88,-35.22 296.82,-28.59"/>
<polygon fill="#63b8ff" stroke="#63b8ff" points="297.21,-32.07 306.94,-27.88 296.72,-25.09 297.21,-32.07"/>
</a>
</g>
<g id="a_edge10&#45;headlabel"><a xlink:href="dir_000026_000049.html" target="_top" xlink:title="1">
<text text-anchor="middle" x="293.82" y="-32.65" font-family="Helvetica,sans-Serif" font-size="10.00" fill="#63b8ff">1</text>
</a>
</g>
</g>
<!-- dir_87e8b8d6be5db6018332e1f6029d9963&#45;&gt;dir_a7364e945deb3de9e65ddca50507f79f -->
<g id="edge11" class="edge">
<title>dir_87e8b8d6be5db6018332e1f6029d9963&#45;&gt;dir_a7364e945deb3de9e65ddca50507f79f</title>
<g id="a_edge11"><a xlink:href="dir_000026_000153.html" target="_top">
<path fill="none" stroke="#63b8ff" d="M848.14,-235.99C889.29,-227.29 947.76,-213.21 967,-200 998.01,-178.71 1059.22,-83.92 1084.1,-44.15"/>
<polygon fill="#63b8ff" stroke="#63b8ff" points="1087.29,-45.65 1089.6,-35.31 1081.35,-41.95 1087.29,-45.65"/>
</a>
</g>
<g id="a_edge11&#45;headlabel"><a xlink:href="dir_000026_000153.html" target="_top" xlink:title="1">
<text text-anchor="middle" x="1087.8" y="-47.7" font-family="Helvetica,sans-Serif" font-size="10.00" fill="#63b8ff">1</text>
</a>
</g>
</g>
<!-- dir_cbd02b5be4584b4d66ebef73a874b298&#45;&gt;dir_0c57938951830d22b3fad77440a122e7 -->
<g id="edge12" class="edge">
<title>dir_cbd02b5be4584b4d66ebef73a874b298&#45;&gt;dir_0c57938951830d22b3fad77440a122e7</title>
<g id="a_edge12"><a xlink:href="dir_000056_000135.html" target="_top">
<path fill="none" stroke="#63b8ff" d="M685.37,-181.89C683.9,-181.57 682.43,-181.28 681,-181 567.04,-159.11 533.96,-167.03 416.31,-145.05"/>
<polygon fill="#63b8ff" stroke="#63b8ff" points="416.66,-141.55 406.18,-143.12 415.35,-148.43 416.66,-141.55"/>
</a>
</g>
<g id="a_edge12&#45;headlabel"><a xlink:href="dir_000056_000135.html" target="_top" xlink:title="1">
<text text-anchor="middle" x="420.72" y="-136.94" font-family="Helvetica,sans-Serif" font-size="10.00" fill="#63b8ff">1</text>
</a>
</g>
</g>
<!-- dir_cbd02b5be4584b4d66ebef73a874b298&#45;&gt;dir_150bbd271f1504029fbda942e72f1022 -->
<g id="edge13" class="edge">
<title>dir_cbd02b5be4584b4d66ebef73a874b298&#45;&gt;dir_150bbd271f1504029fbda942e72f1022</title>
<g id="a_edge13"><a xlink:href="dir_000056_000157.html" target="_top">
<path fill="none" stroke="#63b8ff" d="M685.39,-181.78C683.91,-181.5 682.44,-181.23 681,-181 469.8,-146.93 413.26,-171.69 201,-145 194.87,-144.23 188.33,-143.21 182.11,-142.14"/>
<polygon fill="#63b8ff" stroke="#63b8ff" points="182.55,-138.66 172.09,-140.33 181.31,-145.55 182.55,-138.66"/>
</a>
</g>
<g id="a_edge13&#45;headlabel"><a xlink:href="dir_000056_000157.html" target="_top" xlink:title="3">
<text text-anchor="middle" x="186.59" y="-134" font-family="Helvetica,sans-Serif" font-size="10.00" fill="#63b8ff">3</text>
</a>
</g>
</g>
<!-- dir_cbd02b5be4584b4d66ebef73a874b298&#45;&gt;dir_2c6b70c628beb7fc0194b7f508f3ad90 -->
<g id="edge14" class="edge">
<title>dir_cbd02b5be4584b4d66ebef73a874b298&#45;&gt;dir_2c6b70c628beb7fc0194b7f508f3ad90</title>
<g id="a_edge14"><a xlink:href="dir_000056_000010.html" target="_top">
<path fill="none" stroke="#63b8ff" d="M703.91,-180.98C693.51,-173 677.74,-160.88 665.28,-151.31"/>
<polygon fill="#63b8ff" stroke="#63b8ff" points="667.35,-148.49 657.29,-145.17 663.09,-154.04 667.35,-148.49"/>
</a>
</g>
<g id="a_edge14&#45;headlabel"><a xlink:href="dir_000056_000010.html" target="_top" xlink:title="1">
<text text-anchor="middle" x="671.93" y="-145.92" font-family="Helvetica,sans-Serif" font-size="10.00" fill="#63b8ff">1</text>
</a>
</g>
</g>
<!-- dir_cbd02b5be4584b4d66ebef73a874b298&#45;&gt;dir_3285f5f33091c25af669261537588667 -->
<g id="edge15" class="edge">
<title>dir_cbd02b5be4584b4d66ebef73a874b298&#45;&gt;dir_3285f5f33091c25af669261537588667</title>
<g id="a_edge15"><a xlink:href="dir_000056_000112.html" target="_top">
<path fill="none" stroke="#63b8ff" d="M685.38,-181.84C683.9,-181.54 682.44,-181.26 681,-181 537.16,-155.39 494.6,-176.29 348.06,-144.76"/>
<polygon fill="#63b8ff" stroke="#63b8ff" points="348.78,-141.33 338.26,-142.6 347.28,-148.17 348.78,-141.33"/>
</a>
</g>
<g id="a_edge15&#45;headlabel"><a xlink:href="dir_000056_000112.html" target="_top" xlink:title="2">
<text text-anchor="middle" x="352.9" y="-136.83" font-family="Helvetica,sans-Serif" font-size="10.00" fill="#63b8ff">2</text>
</a>
</g>
</g>
<!-- dir_cbd02b5be4584b4d66ebef73a874b298&#45;&gt;dir_486b9402482621fd641691dc37d76b53 -->
<g id="edge16" class="edge">
<title>dir_cbd02b5be4584b4d66ebef73a874b298&#45;&gt;dir_486b9402482621fd641691dc37d76b53</title>
<g id="a_edge16"><a xlink:href="dir_000056_000049.html" target="_top">
<path fill="none" stroke="#63b8ff" d="M685.35,-181.99C683.88,-181.65 682.43,-181.32 681,-181 598.79,-162.78 572.23,-178.56 495,-145 463.94,-131.5 386.64,-70.65 350.8,-41.79"/>
<polygon fill="#63b8ff" stroke="#63b8ff" points="352.61,-38.75 342.63,-35.19 348.21,-44.19 352.61,-38.75"/>
</a>
</g>
<g id="a_edge16&#45;headlabel"><a xlink:href="dir_000056_000049.html" target="_top" xlink:title="2">
<text text-anchor="middle" x="357.19" y="-36.3" font-family="Helvetica,sans-Serif" font-size="10.00" fill="#63b8ff">2</text>
</a>
</g>
</g>
<!-- dir_cbd02b5be4584b4d66ebef73a874b298&#45;&gt;dir_6fe6ce792de102936b3c02369b7e8bae -->
<g id="edge17" class="edge">
<title>dir_cbd02b5be4584b4d66ebef73a874b298&#45;&gt;dir_6fe6ce792de102936b3c02369b7e8bae</title>
<g id="a_edge17"><a xlink:href="dir_000056_000046.html" target="_top">
<path fill="none" stroke="#63b8ff" d="M689.94,-180.98C663.97,-172.16 623.19,-158.31 594.04,-148.41"/>
<polygon fill="#63b8ff" stroke="#63b8ff" points="594.85,-144.99 584.26,-145.08 592.6,-151.61 594.85,-144.99"/>
</a>
</g>
<g id="a_edge17&#45;headlabel"><a xlink:href="dir_000056_000046.html" target="_top" xlink:title="5">
<text text-anchor="middle" x="599.17" y="-140.95" font-family="Helvetica,sans-Serif" font-size="10.00" fill="#63b8ff">5</text>
</a>
</g>
</g>
<!-- dir_cbd02b5be4584b4d66ebef73a874b298&#45;&gt;dir_994ef2a14b32cb8134d8b7b97f08d542 -->
<g id="edge20" class="edge">
<title>dir_cbd02b5be4584b4d66ebef73a874b298&#45;&gt;dir_994ef2a14b32cb8134d8b7b97f08d542</title>
<g id="a_edge20"><a xlink:href="dir_000056_000022.html" target="_top">
<path fill="none" stroke="#63b8ff" d="M685.39,-181.82C683.91,-181.52 682.44,-181.25 681,-181 515.25,-152.68 468.63,-167.38 297.82,-144.99"/>
<polygon fill="#63b8ff" stroke="#63b8ff" points="298.11,-141.49 287.73,-143.64 297.18,-148.43 298.11,-141.49"/>
</a>
</g>
<g id="a_edge20&#45;headlabel"><a xlink:href="dir_000056_000022.html" target="_top" xlink:title="7">
<text text-anchor="middle" x="302.04" y="-136.65" font-family="Helvetica,sans-Serif" font-size="10.00" fill="#63b8ff">7</text>
</a>
</g>
</g>
<!-- dir_cbd02b5be4584b4d66ebef73a874b298&#45;&gt;dir_a002d428d11eb8614f350575a2d4c4e0 -->
<g id="edge21" class="edge">
<title>dir_cbd02b5be4584b4d66ebef73a874b298&#45;&gt;dir_a002d428d11eb8614f350575a2d4c4e0</title>
<g id="a_edge21"><a xlink:href="dir_000056_000053.html" target="_top">
<path fill="none" stroke="#63b8ff" d="M685.36,-181.95C683.89,-181.62 682.43,-181.3 681,-181 587.02,-161.34 561.56,-166.54 468,-145 466.53,-144.66 465.02,-144.29 463.51,-143.9"/>
<polygon fill="#63b8ff" stroke="#63b8ff" points="464.24,-140.47 453.66,-141.16 462.36,-147.22 464.24,-140.47"/>
</a>
</g>
<g id="a_edge21&#45;headlabel"><a xlink:href="dir_000056_000053.html" target="_top" xlink:title="1">
<text text-anchor="middle" x="468.46" y="-136.2" font-family="Helvetica,sans-Serif" font-size="10.00" fill="#63b8ff">1</text>
</a>
</g>
</g>
<!-- dir_cbd02b5be4584b4d66ebef73a874b298&#45;&gt;dir_b2e5dd734b4dca0bb7544c080eed55d0 -->
<g id="edge23" class="edge">
<title>dir_cbd02b5be4584b4d66ebef73a874b298&#45;&gt;dir_b2e5dd734b4dca0bb7544c080eed55d0</title>
<g id="a_edge23"><a xlink:href="dir_000056_000125.html" target="_top">
<path fill="none" stroke="#63b8ff" d="M685.4,-181.76C683.91,-181.48 682.44,-181.23 681,-181 439.56,-143.32 371.99,-178.51 125.7,-144.85"/>
<polygon fill="#63b8ff" stroke="#63b8ff" points="126.11,-141.37 115.73,-143.46 125.15,-148.3 126.11,-141.37"/>
</a>
</g>
<g id="a_edge23&#45;headlabel"><a xlink:href="dir_000056_000125.html" target="_top" xlink:title="2">
<text text-anchor="middle" x="130.07" y="-136.55" font-family="Helvetica,sans-Serif" font-size="10.00" fill="#63b8ff">2</text>
</a>
</g>
</g>
<!-- dir_cbd02b5be4584b4d66ebef73a874b298&#45;&gt;dir_e64dfdcbff0f609bc29171eebbcbbcc9 -->
<g id="edge24" class="edge">
<title>dir_cbd02b5be4584b4d66ebef73a874b298&#45;&gt;dir_e64dfdcbff0f609bc29171eebbcbbcc9</title>
<g id="a_edge24"><a xlink:href="dir_000056_000024.html" target="_top">
<path fill="none" stroke="#63b8ff" d="M685.35,-182C683.88,-181.66 682.42,-181.32 681,-181 602.27,-163.21 554.1,-207.47 503,-145 486.12,-124.36 517.34,-105.6 544.95,-93.9"/>
<polygon fill="#63b8ff" stroke="#63b8ff" points="546.5,-97.05 554.47,-90.07 543.89,-90.56 546.5,-97.05"/>
</a>
</g>
<g id="a_edge24&#45;headlabel"><a xlink:href="dir_000056_000024.html" target="_top" xlink:title="1">
<text text-anchor="middle" x="544.23" y="-98.53" font-family="Helvetica,sans-Serif" font-size="10.00" fill="#63b8ff">1</text>
</a>
</g>
</g>
<!-- dir_7c8aad318a3904861a0ee81bd37c7629 -->
<g id="node15" class="node">
<title>dir_7c8aad318a3904861a0ee81bd37c7629</title>
<g id="a_node15"><a xlink:href="dir_7c8aad318a3904861a0ee81bd37c7629.html" target="_top" xlink:title="http">
<polygon fill="#fdaf60" stroke="#404040" points="744,-90 708,-90 708,-71 744,-71 744,-90"/>
<text text-anchor="middle" x="726" y="-78" font-family="Helvetica,sans-Serif" font-size="10.00">http</text>
</a>
</g>
</g>
<!-- dir_cbd02b5be4584b4d66ebef73a874b298&#45;&gt;dir_7c8aad318a3904861a0ee81bd37c7629 -->
<g id="edge18" class="edge">
<title>dir_cbd02b5be4584b4d66ebef73a874b298&#45;&gt;dir_7c8aad318a3904861a0ee81bd37c7629</title>
<g id="a_edge18"><a xlink:href="dir_000056_000059.html" target="_top">
<path fill="none" stroke="#63b8ff" d="M711.99,-180.66C710.5,-163.09 714.1,-123.45 718.89,-99.95"/>
<polygon fill="#63b8ff" stroke="#63b8ff" points="722.31,-100.7 721.24,-90.16 715.5,-99.07 722.31,-100.7"/>
</a>
</g>
<g id="a_edge18&#45;headlabel"><a xlink:href="dir_000056_000059.html" target="_top" xlink:title="12">
<text text-anchor="middle" x="724.23" y="-102.36" font-family="Helvetica,sans-Serif" font-size="10.00" fill="#63b8ff">12</text>
</a>
</g>
</g>
<!-- dir_cbd02b5be4584b4d66ebef73a874b298&#45;&gt;dir_990ca0e4d1092627101070a1c89f24df -->
<g id="edge19" class="edge">
<title>dir_cbd02b5be4584b4d66ebef73a874b298&#45;&gt;dir_990ca0e4d1092627101070a1c89f24df</title>
<g id="a_edge19"><a xlink:href="dir_000056_000115.html" target="_top">
<path fill="none" stroke="#63b8ff" d="M722.6,-180.75C729.16,-173.18 738.82,-162.05 746.81,-152.84"/>
<polygon fill="#63b8ff" stroke="#63b8ff" points="749.63,-154.94 753.55,-145.09 744.35,-150.35 749.63,-154.94"/>
</a>
</g>
<g id="a_edge19&#45;headlabel"><a xlink:href="dir_000056_000115.html" target="_top" xlink:title="4">
<text text-anchor="middle" x="749.42" y="-157.01" font-family="Helvetica,sans-Serif" font-size="10.00" fill="#63b8ff">4</text>
</a>
</g>
</g>
<!-- dir_cbd02b5be4584b4d66ebef73a874b298&#45;&gt;dir_a7364e945deb3de9e65ddca50507f79f -->
<g id="edge22" class="edge">
<title>dir_cbd02b5be4584b4d66ebef73a874b298&#45;&gt;dir_a7364e945deb3de9e65ddca50507f79f</title>
<g id="a_edge22"><a xlink:href="dir_000056_000153.html" target="_top">
<path fill="none" stroke="#63b8ff" d="M732.32,-180.91C749.17,-172.37 775.32,-158.6 797,-145 849.87,-111.83 853.57,-87.44 911,-63 971.5,-37.26 994.36,-49.07 1058.16,-36.16"/>
<polygon fill="#63b8ff" stroke="#63b8ff" points="1059.28,-39.5 1068.32,-33.97 1057.81,-32.66 1059.28,-39.5"/>
</a>
</g>
<g id="a_edge22&#45;headlabel"><a xlink:href="dir_000056_000153.html" target="_top" xlink:title="20">
<text text-anchor="middle" x="1056.37" y="-40.54" font-family="Helvetica,sans-Serif" font-size="10.00" fill="#63b8ff">20</text>
</a>
</g>
</g>
<!-- dir_7c8aad318a3904861a0ee81bd37c7629&#45;&gt;dir_486b9402482621fd641691dc37d76b53 -->
<g id="edge25" class="edge">
<title>dir_7c8aad318a3904861a0ee81bd37c7629&#45;&gt;dir_486b9402482621fd641691dc37d76b53</title>
<g id="a_edge25"><a xlink:href="dir_000059_000049.html" target="_top">
<path fill="none" stroke="#63b8ff" d="M716.84,-70.86C713.13,-67.86 708.63,-64.8 704,-63 643.07,-39.32 447.67,-30.31 367.17,-27.54"/>
<polygon fill="#63b8ff" stroke="#63b8ff" points="367.15,-24.04 357.04,-27.2 366.92,-31.03 367.15,-24.04"/>
</a>
</g>
<g id="a_edge25&#45;headlabel"><a xlink:href="dir_000059_000049.html" target="_top" xlink:title="1">
<text text-anchor="middle" x="370.84" y="-18.82" font-family="Helvetica,sans-Serif" font-size="10.00" fill="#63b8ff">1</text>
</a>
</g>
</g>
<!-- dir_7c8aad318a3904861a0ee81bd37c7629&#45;&gt;dir_cbd02b5be4584b4d66ebef73a874b298 -->
<g id="edge27" class="edge">
<title>dir_7c8aad318a3904861a0ee81bd37c7629&#45;&gt;dir_cbd02b5be4584b4d66ebef73a874b298</title>
<g id="a_edge27"><a xlink:href="dir_000059_000056.html" target="_top">
<path fill="none" stroke="#63b8ff" d="M729,-90.16C730.52,-107.58 726.94,-147.2 722.16,-170.8"/>
<polygon fill="#63b8ff" stroke="#63b8ff" points="718.72,-170.12 719.81,-180.66 725.53,-171.74 718.72,-170.12"/>
</a>
</g>
<g id="a_edge27&#45;headlabel"><a xlink:href="dir_000059_000056.html" target="_top" xlink:title="1">
<text text-anchor="middle" x="716.79" y="-163.47" font-family="Helvetica,sans-Serif" font-size="10.00" fill="#63b8ff">1</text>
</a>
</g>
</g>
<!-- dir_7c8aad318a3904861a0ee81bd37c7629&#45;&gt;dir_a7364e945deb3de9e65ddca50507f79f -->
<g id="edge26" class="edge">
<title>dir_7c8aad318a3904861a0ee81bd37c7629&#45;&gt;dir_a7364e945deb3de9e65ddca50507f79f</title>
<g id="a_edge26"><a xlink:href="dir_000059_000153.html" target="_top">
<path fill="none" stroke="#63b8ff" d="M744.4,-72.76C754.49,-69.32 767.29,-65.37 779,-63 900.45,-38.4 936.93,-57.09 1058.3,-35.92"/>
<polygon fill="#63b8ff" stroke="#63b8ff" points="1059.13,-39.33 1068.35,-34.12 1057.89,-32.44 1059.13,-39.33"/>
</a>
</g>
<g id="a_edge26&#45;headlabel"><a xlink:href="dir_000059_000153.html" target="_top" xlink:title="5">
<text text-anchor="middle" x="1056.09" y="-40.26" font-family="Helvetica,sans-Serif" font-size="10.00" fill="#63b8ff">5</text>
</a>
</g>
</g>
<!-- dir_3b37cbeefdaad7974093b4b99f4234e7 -->
<g id="node16" class="node">
<title>dir_3b37cbeefdaad7974093b4b99f4234e7</title>
<g id="a_node16"><a xlink:href="dir_3b37cbeefdaad7974093b4b99f4234e7.html" target="_top" xlink:title="middlewares">
<polygon fill="#fdaf60" stroke="#404040" points="1044,-255 964,-255 964,-236 1044,-236 1044,-255"/>
<text text-anchor="middle" x="1004" y="-243" font-family="Helvetica,sans-Serif" font-size="10.00">middlewares</text>
</a>
</g>
</g>
<!-- dir_3b37cbeefdaad7974093b4b99f4234e7&#45;&gt;dir_994ef2a14b32cb8134d8b7b97f08d542 -->
<g id="edge28" class="edge">
<title>dir_3b37cbeefdaad7974093b4b99f4234e7&#45;&gt;dir_994ef2a14b32cb8134d8b7b97f08d542</title>
<g id="a_edge28"><a xlink:href="dir_000095_000022.html" target="_top">
<path fill="none" stroke="#63b8ff" d="M963.91,-237.4C960.9,-236.91 957.9,-236.44 955,-236 831.38,-217.31 799.87,-216.98 676,-200 510.58,-177.33 466.7,-172.26 297.74,-145.08"/>
<polygon fill="#63b8ff" stroke="#63b8ff" points="298.18,-141.6 287.76,-143.47 297.07,-148.52 298.18,-141.6"/>
</a>
</g>
<g id="a_edge28&#45;headlabel"><a xlink:href="dir_000095_000022.html" target="_top" xlink:title="2">
<text text-anchor="middle" x="302.18" y="-136.87" font-family="Helvetica,sans-Serif" font-size="10.00" fill="#63b8ff">2</text>
</a>
</g>
</g>
<!-- dir_3b37cbeefdaad7974093b4b99f4234e7&#45;&gt;dir_a7364e945deb3de9e65ddca50507f79f -->
<g id="edge29" class="edge">
<title>dir_3b37cbeefdaad7974093b4b99f4234e7&#45;&gt;dir_a7364e945deb3de9e65ddca50507f79f</title>
<g id="a_edge29"><a xlink:href="dir_000095_000153.html" target="_top">
<path fill="none" stroke="#63b8ff" d="M1020.11,-235.95C1032.96,-228.27 1050.34,-215.78 1060,-200 1090.42,-150.3 1094.98,-79.02 1095.3,-45.41"/>
<polygon fill="#63b8ff" stroke="#63b8ff" points="1098.8,-45.18 1095.27,-35.19 1091.8,-45.2 1098.8,-45.18"/>
</a>
</g>
<g id="a_edge29&#45;headlabel"><a xlink:href="dir_000095_000153.html" target="_top" xlink:title="2">
<text text-anchor="middle" x="1101.64" y="-46.27" font-family="Helvetica,sans-Serif" font-size="10.00" fill="#63b8ff">2</text>
</a>
</g>
</g>
<!-- dir_990ca0e4d1092627101070a1c89f24df&#45;&gt;dir_486b9402482621fd641691dc37d76b53 -->
<g id="edge30" class="edge">
<title>dir_990ca0e4d1092627101070a1c89f24df&#45;&gt;dir_486b9402482621fd641691dc37d76b53</title>
<g id="a_edge30"><a xlink:href="dir_000115_000049.html" target="_top">
<path fill="none" stroke="#63b8ff" d="M748.35,-125.97C724.81,-110.57 672.21,-78.3 623,-63 533.7,-35.24 422.75,-28.52 367.18,-26.95"/>
<polygon fill="#63b8ff" stroke="#63b8ff" points="367.23,-23.45 357.15,-26.7 367.06,-30.44 367.23,-23.45"/>
</a>
</g>
<g id="a_edge30&#45;headlabel"><a xlink:href="dir_000115_000049.html" target="_top" xlink:title="2">
<text text-anchor="middle" x="370.89" y="-18.2" font-family="Helvetica,sans-Serif" font-size="10.00" fill="#63b8ff">2</text>
</a>
</g>
</g>
<!-- dir_990ca0e4d1092627101070a1c89f24df&#45;&gt;dir_e64dfdcbff0f609bc29171eebbcbbcc9 -->
<g id="edge33" class="edge">
<title>dir_990ca0e4d1092627101070a1c89f24df&#45;&gt;dir_e64dfdcbff0f609bc29171eebbcbbcc9</title>
<g id="a_edge33"><a xlink:href="dir_000115_000024.html" target="_top">
<path fill="none" stroke="#63b8ff" d="M734.29,-126.68C703.86,-117.77 653.85,-103.13 619.05,-92.93"/>
<polygon fill="#63b8ff" stroke="#63b8ff" points="619.8,-89.51 609.22,-90.06 617.83,-96.23 619.8,-89.51"/>
</a>
</g>
<g id="a_edge33&#45;headlabel"><a xlink:href="dir_000115_000024.html" target="_top" xlink:title="1">
<text text-anchor="middle" x="624.05" y="-85.29" font-family="Helvetica,sans-Serif" font-size="10.00" fill="#63b8ff">1</text>
</a>
</g>
</g>
<!-- dir_990ca0e4d1092627101070a1c89f24df&#45;&gt;dir_7c8aad318a3904861a0ee81bd37c7629 -->
<g id="edge31" class="edge">
<title>dir_990ca0e4d1092627101070a1c89f24df&#45;&gt;dir_7c8aad318a3904861a0ee81bd37c7629</title>
<g id="a_edge31"><a xlink:href="dir_000115_000059.html" target="_top">
<path fill="none" stroke="#63b8ff" d="M755.22,-125.75C750.38,-118.42 743.32,-107.73 737.36,-98.7"/>
<polygon fill="#63b8ff" stroke="#63b8ff" points="740.1,-96.5 731.67,-90.09 734.26,-100.36 740.1,-96.5"/>
</a>
</g>
<g id="a_edge31&#45;headlabel"><a xlink:href="dir_000115_000059.html" target="_top" xlink:title="1">
<text text-anchor="middle" x="744.45" y="-95.44" font-family="Helvetica,sans-Serif" font-size="10.00" fill="#63b8ff">1</text>
</a>
</g>
</g>
<!-- dir_990ca0e4d1092627101070a1c89f24df&#45;&gt;dir_a7364e945deb3de9e65ddca50507f79f -->
<g id="edge32" class="edge">
<title>dir_990ca0e4d1092627101070a1c89f24df&#45;&gt;dir_a7364e945deb3de9e65ddca50507f79f</title>
<g id="a_edge32"><a xlink:href="dir_000115_000153.html" target="_top">
<path fill="none" stroke="#63b8ff" d="M766.16,-125.85C775.98,-110.24 799,-77.66 828,-63 919.32,-16.84 957.9,-52.84 1058.42,-35.89"/>
<polygon fill="#63b8ff" stroke="#63b8ff" points="1059.13,-39.32 1068.34,-34.08 1057.88,-32.43 1059.13,-39.32"/>
</a>
</g>
<g id="a_edge32&#45;headlabel"><a xlink:href="dir_000115_000153.html" target="_top" xlink:title="5">
<text text-anchor="middle" x="1056.11" y="-40.26" font-family="Helvetica,sans-Serif" font-size="10.00" fill="#63b8ff">5</text>
</a>
</g>
</g>
<!-- dir_3ce3464159f2bbaab90110805323015e -->
<g id="node18" class="node">
<title>dir_3ce3464159f2bbaab90110805323015e</title>
<g id="a_node18"><a xlink:href="dir_3ce3464159f2bbaab90110805323015e.html" target="_top" xlink:title="websocket">
<polygon fill="#fdaf60" stroke="#404040" points="946,-255 878,-255 878,-236 946,-236 946,-255"/>
<text text-anchor="middle" x="912" y="-243" font-family="Helvetica,sans-Serif" font-size="10.00">websocket</text>
</a>
</g>
</g>
<!-- dir_3ce3464159f2bbaab90110805323015e&#45;&gt;dir_0c57938951830d22b3fad77440a122e7 -->
<g id="edge34" class="edge">
<title>dir_3ce3464159f2bbaab90110805323015e&#45;&gt;dir_0c57938951830d22b3fad77440a122e7</title>
<g id="a_edge34"><a xlink:href="dir_000161_000135.html" target="_top">
<path fill="none" stroke="#63b8ff" d="M877.74,-237.69C874.78,-237.12 871.84,-236.55 869,-236 783.31,-219.54 761.59,-217 676,-200 562.9,-177.54 532.19,-171.91 416.21,-145.22"/>
<polygon fill="#63b8ff" stroke="#63b8ff" points="416.76,-141.75 406.23,-142.92 415.18,-148.57 416.76,-141.75"/>
</a>
</g>
<g id="a_edge34&#45;headlabel"><a xlink:href="dir_000161_000135.html" target="_top" xlink:title="1">
<text text-anchor="middle" x="420.9" y="-137.29" font-family="Helvetica,sans-Serif" font-size="10.00" fill="#63b8ff">1</text>
</a>
</g>
</g>
<!-- dir_3ce3464159f2bbaab90110805323015e&#45;&gt;dir_486b9402482621fd641691dc37d76b53 -->
<g id="edge35" class="edge">
<title>dir_3ce3464159f2bbaab90110805323015e&#45;&gt;dir_486b9402482621fd641691dc37d76b53</title>
<g id="a_edge35"><a xlink:href="dir_000161_000049.html" target="_top">
<path fill="none" stroke="#63b8ff" d="M877.79,-237.4C874.82,-236.88 871.86,-236.41 869,-236 720.69,-214.8 295.52,-261.24 201,-145 165.27,-101.06 249.27,-58.84 298.85,-38.73"/>
<polygon fill="#63b8ff" stroke="#63b8ff" points="300.25,-41.94 308.26,-35.01 297.67,-35.43 300.25,-41.94"/>
</a>
</g>
<g id="a_edge35&#45;headlabel"><a xlink:href="dir_000161_000049.html" target="_top" xlink:title="1">
<text text-anchor="middle" x="297.95" y="-43.41" font-family="Helvetica,sans-Serif" font-size="10.00" fill="#63b8ff">1</text>
</a>
</g>
</g>
<!-- dir_3ce3464159f2bbaab90110805323015e&#45;&gt;dir_994ef2a14b32cb8134d8b7b97f08d542 -->
<g id="edge37" class="edge">
<title>dir_3ce3464159f2bbaab90110805323015e&#45;&gt;dir_994ef2a14b32cb8134d8b7b97f08d542</title>
<g id="a_edge37"><a xlink:href="dir_000161_000022.html" target="_top">
<path fill="none" stroke="#63b8ff" d="M877.77,-237.5C874.81,-236.97 871.86,-236.46 869,-236 739.89,-215.31 706.15,-220.44 577,-200 477.21,-184.21 361.37,-160.51 297.52,-146.97"/>
<polygon fill="#63b8ff" stroke="#63b8ff" points="298.24,-143.55 287.73,-144.89 296.78,-150.4 298.24,-143.55"/>
</a>
</g>
<g id="a_edge37&#45;headlabel"><a xlink:href="dir_000161_000022.html" target="_top" xlink:title="1">
<text text-anchor="middle" x="302.34" y="-139.02" font-family="Helvetica,sans-Serif" font-size="10.00" fill="#63b8ff">1</text>
</a>
</g>
</g>
<!-- dir_3ce3464159f2bbaab90110805323015e&#45;&gt;dir_cbd02b5be4584b4d66ebef73a874b298 -->
<g id="edge39" class="edge">
<title>dir_3ce3464159f2bbaab90110805323015e&#45;&gt;dir_cbd02b5be4584b4d66ebef73a874b298</title>
<g id="a_edge39"><a xlink:href="dir_000161_000056.html" target="_top">
<path fill="none" stroke="#63b8ff" d="M880.35,-235.98C846.15,-226.78 791.59,-212.11 754.58,-202.15"/>
<polygon fill="#63b8ff" stroke="#63b8ff" points="755.21,-198.69 744.64,-199.47 753.39,-205.45 755.21,-198.69"/>
</a>
</g>
<g id="a_edge39&#45;headlabel"><a xlink:href="dir_000161_000056.html" target="_top" xlink:title="1">
<text text-anchor="middle" x="759.41" y="-194.38" font-family="Helvetica,sans-Serif" font-size="10.00" fill="#63b8ff">1</text>
</a>
</g>
</g>
<!-- dir_3ce3464159f2bbaab90110805323015e&#45;&gt;dir_7c8aad318a3904861a0ee81bd37c7629 -->
<g id="edge36" class="edge">
<title>dir_3ce3464159f2bbaab90110805323015e&#45;&gt;dir_7c8aad318a3904861a0ee81bd37c7629</title>
<g id="a_edge36"><a xlink:href="dir_000161_000059.html" target="_top">
<path fill="none" stroke="#63b8ff" d="M897.44,-235.97C884.18,-227.78 864.51,-214.53 850,-200 821.41,-171.38 826.47,-153.71 797,-126 783.91,-113.69 766.93,-102.9 752.85,-95.03"/>
<polygon fill="#63b8ff" stroke="#63b8ff" points="754.12,-91.74 743.66,-90.07 750.79,-97.9 754.12,-91.74"/>
</a>
</g>
<g id="a_edge36&#45;headlabel"><a xlink:href="dir_000161_000059.html" target="_top" xlink:title="1">
<text text-anchor="middle" x="758.63" y="-88.45" font-family="Helvetica,sans-Serif" font-size="10.00" fill="#63b8ff">1</text>
</a>
</g>
</g>
<!-- dir_3ce3464159f2bbaab90110805323015e&#45;&gt;dir_a7364e945deb3de9e65ddca50507f79f -->
<g id="edge38" class="edge">
<title>dir_3ce3464159f2bbaab90110805323015e&#45;&gt;dir_a7364e945deb3de9e65ddca50507f79f</title>
<g id="a_edge38"><a xlink:href="dir_000161_000153.html" target="_top">
<path fill="none" stroke="#63b8ff" d="M946.11,-237.39C969.21,-231.02 999.04,-219.59 1019,-200 1064.11,-155.73 1084.32,-80.14 1091.6,-45.21"/>
<polygon fill="#63b8ff" stroke="#63b8ff" points="1095.03,-45.87 1093.52,-35.39 1088.16,-44.53 1095.03,-45.87"/>
</a>
</g>
<g id="a_edge38&#45;headlabel"><a xlink:href="dir_000161_000153.html" target="_top" xlink:title="2">
<text text-anchor="middle" x="1097.13" y="-47.45" font-family="Helvetica,sans-Serif" font-size="10.00" fill="#63b8ff">2</text>
</a>
</g>
</g>
</g>
</svg>
