<?xml version="1.0" encoding="UTF-8" standalone="no"?>
<!DOCTYPE svg PUBLIC "-//W3C//DTD SVG 1.1//EN"
 "http://www.w3.org/Graphics/SVG/1.1/DTD/svg11.dtd">
<!-- Generated by graphviz version 2.43.0 (0)
 -->
<!-- Title: userver/utils Pages: 1 -->
<svg width="442pt" height="149pt"
 viewBox="0.00 0.00 442.00 149.00" xmlns="http://www.w3.org/2000/svg" xmlns:xlink="http://www.w3.org/1999/xlink">
<g id="graph0" class="graph" transform="scale(1 1) rotate(0) translate(4 145)">
<title>userver/utils</title>
<g id="clust1" class="cluster">
<title>clusterdir_a7364e945deb3de9e65ddca50507f79f</title>
<g id="a_clust1"><a xlink:href="dir_a7364e945deb3de9e65ddca50507f79f.html" target="_top" xlink:title="userver">
<polygon fill="#feefdf" stroke="#404040" stroke-dasharray="5,2" points="8,-8 8,-133 426,-133 426,-8 8,-8"/>
<text text-anchor="middle" x="217" y="-121" font-family="Helvetica,sans-Serif" font-size="10.00">userver</text>
</a>
</g>
</g>
<g id="clust2" class="cluster">
<title>clusterdir_257c7dd21ee5674f3b200d28efeb46c0</title>
<g id="a_clust2"><a xlink:href="dir_257c7dd21ee5674f3b200d28efeb46c0.html" target="_top">
<polygon fill="#feefdf" stroke="#404040" stroke-width="2" points="16,-16 16,-106 206,-106 206,-16 16,-16"/>
</a>
</g>
</g>
<!-- dir_43758eace6093c93b1a9e9554aba0822 -->
<g id="node1" class="node">
<title>dir_43758eace6093c93b1a9e9554aba0822</title>
<g id="a_node1"><a xlink:href="dir_43758eace6093c93b1a9e9554aba0822.html" target="_top" xlink:title="compiler">
<polygon fill="#fdaf60" stroke="red" points="273.5,-43 214.5,-43 214.5,-24 273.5,-24 273.5,-43"/>
<text text-anchor="middle" x="244" y="-31" font-family="Helvetica,sans-Serif" font-size="10.00">compiler</text>
</a>
</g>
</g>
<!-- dir_c50c586003329c6e30f96d9149b241dd -->
<g id="node2" class="node">
<title>dir_c50c586003329c6e30f96d9149b241dd</title>
<g id="a_node2"><a xlink:href="dir_c50c586003329c6e30f96d9149b241dd.html" target="_top" xlink:title="logging">
<polygon fill="#fdaf60" stroke="red" points="417.5,-43 364.5,-43 364.5,-24 417.5,-24 417.5,-43"/>
<text text-anchor="middle" x="391" y="-31" font-family="Helvetica,sans-Serif" font-size="10.00">logging</text>
</a>
</g>
</g>
<!-- dir_e5d739089ab2f029c385362e3cd8d126 -->
<g id="node3" class="node">
<title>dir_e5d739089ab2f029c385362e3cd8d126</title>
<g id="a_node3"><a xlink:href="dir_e5d739089ab2f029c385362e3cd8d126.html" target="_top" xlink:title="formats">
<polygon fill="#fdaf60" stroke="red" points="346.5,-43 291.5,-43 291.5,-24 346.5,-24 346.5,-43"/>
<text text-anchor="middle" x="319" y="-31" font-family="Helvetica,sans-Serif" font-size="10.00">formats</text>
</a>
</g>
</g>
<!-- dir_257c7dd21ee5674f3b200d28efeb46c0 -->
<g id="node4" class="node">
<title>dir_257c7dd21ee5674f3b200d28efeb46c0</title>
<text text-anchor="middle" x="43" y="-86" font-family="Helvetica,sans-Serif" font-size="10.00">utils</text>
</g>
<!-- dir_257c7dd21ee5674f3b200d28efeb46c0&#45;&gt;dir_43758eace6093c93b1a9e9554aba0822 -->
<g id="edge1" class="edge">
<title>dir_257c7dd21ee5674f3b200d28efeb46c0&#45;&gt;dir_43758eace6093c93b1a9e9554aba0822</title>
<g id="a_edge1"><a xlink:href="dir_000160_000021.html" target="_top">
<path fill="none" stroke="#63b8ff" d="M62.25,-81.54C65.17,-80.67 68.16,-79.8 71,-79 95.88,-72.03 161.67,-55.28 204.57,-44.43"/>
<polygon fill="#63b8ff" stroke="#63b8ff" points="205.58,-47.79 214.42,-41.95 203.86,-41 205.58,-47.79"/>
</a>
</g>
<g id="a_edge1&#45;headlabel"><a xlink:href="dir_000160_000021.html" target="_top" xlink:title="4">
<text text-anchor="middle" x="202.79" y="-48.92" font-family="Helvetica,sans-Serif" font-size="10.00" fill="#63b8ff">4</text>
</a>
</g>
</g>
<!-- dir_257c7dd21ee5674f3b200d28efeb46c0&#45;&gt;dir_c50c586003329c6e30f96d9149b241dd -->
<g id="edge3" class="edge">
<title>dir_257c7dd21ee5674f3b200d28efeb46c0&#45;&gt;dir_c50c586003329c6e30f96d9149b241dd</title>
<g id="a_edge3"><a xlink:href="dir_000160_000094.html" target="_top">
<path fill="none" stroke="#63b8ff" d="M62.17,-81.21C65.11,-80.39 68.12,-79.61 71,-79 192.69,-53.04 228.62,-65.43 354.3,-43.12"/>
<polygon fill="#63b8ff" stroke="#63b8ff" points="355.1,-46.54 364.31,-41.31 353.85,-39.65 355.1,-46.54"/>
</a>
</g>
<g id="a_edge3&#45;headlabel"><a xlink:href="dir_000160_000094.html" target="_top" xlink:title="5">
<text text-anchor="middle" x="352.07" y="-47.47" font-family="Helvetica,sans-Serif" font-size="10.00" fill="#63b8ff">5</text>
</a>
</g>
</g>
<!-- dir_257c7dd21ee5674f3b200d28efeb46c0&#45;&gt;dir_e5d739089ab2f029c385362e3cd8d126 -->
<g id="edge4" class="edge">
<title>dir_257c7dd21ee5674f3b200d28efeb46c0&#45;&gt;dir_e5d739089ab2f029c385362e3cd8d126</title>
<g id="a_edge4"><a xlink:href="dir_000160_000052.html" target="_top">
<path fill="none" stroke="#63b8ff" d="M62.19,-81.32C65.13,-80.48 68.13,-79.68 71,-79 160.93,-57.8 187.58,-61.69 281.24,-43.25"/>
<polygon fill="#63b8ff" stroke="#63b8ff" points="282.01,-46.66 291.13,-41.27 280.64,-39.8 282.01,-46.66"/>
</a>
</g>
<g id="a_edge4&#45;headlabel"><a xlink:href="dir_000160_000052.html" target="_top" xlink:title="10">
<text text-anchor="middle" x="279.05" y="-47.65" font-family="Helvetica,sans-Serif" font-size="10.00" fill="#63b8ff">10</text>
</a>
</g>
</g>
<!-- dir_7167813006268c6e0b9e0aa375eb8b92 -->
<g id="node6" class="node">
<title>dir_7167813006268c6e0b9e0aa375eb8b92</title>
<g id="a_node6"><a xlink:href="dir_7167813006268c6e0b9e0aa375eb8b92.html" target="_top" xlink:title="encoding">
<polygon fill="#fdaf60" stroke="#404040" points="85.5,-43 24.5,-43 24.5,-24 85.5,-24 85.5,-43"/>
<text text-anchor="middle" x="55" y="-31" font-family="Helvetica,sans-Serif" font-size="10.00">encoding</text>
</a>
</g>
</g>
<!-- dir_257c7dd21ee5674f3b200d28efeb46c0&#45;&gt;dir_7167813006268c6e0b9e0aa375eb8b92 -->
<g id="edge2" class="edge">
<title>dir_257c7dd21ee5674f3b200d28efeb46c0&#45;&gt;dir_7167813006268c6e0b9e0aa375eb8b92</title>
<g id="a_edge2"><a xlink:href="dir_000160_000048.html" target="_top">
<path fill="none" stroke="#63b8ff" d="M44.98,-78.75C46.57,-71.72 48.86,-61.62 50.85,-52.84"/>
<polygon fill="#63b8ff" stroke="#63b8ff" points="54.26,-53.62 53.06,-43.09 47.43,-52.07 54.26,-53.62"/>
</a>
</g>
<g id="a_edge2&#45;headlabel"><a xlink:href="dir_000160_000048.html" target="_top" xlink:title="1">
<text text-anchor="middle" x="56.24" y="-55.25" font-family="Helvetica,sans-Serif" font-size="10.00" fill="#63b8ff">1</text>
</a>
</g>
</g>
<!-- dir_db84441f329c8233591c92bdeceb7d4e -->
<g id="node5" class="node">
<title>dir_db84441f329c8233591c92bdeceb7d4e</title>
<g id="a_node5"><a xlink:href="dir_db84441f329c8233591c92bdeceb7d4e.html" target="_top" xlink:title="datetime">
<polygon fill="#fdaf60" stroke="#404040" points="141.5,-98 80.5,-98 80.5,-79 141.5,-79 141.5,-98"/>
<text text-anchor="middle" x="111" y="-86" font-family="Helvetica,sans-Serif" font-size="10.00">datetime</text>
</a>
</g>
</g>
<!-- dir_db84441f329c8233591c92bdeceb7d4e&#45;&gt;dir_c50c586003329c6e30f96d9149b241dd -->
<g id="edge5" class="edge">
<title>dir_db84441f329c8233591c92bdeceb7d4e&#45;&gt;dir_c50c586003329c6e30f96d9149b241dd</title>
<g id="a_edge5"><a xlink:href="dir_000031_000094.html" target="_top">
<path fill="none" stroke="#63b8ff" d="M141.55,-80.89C144.74,-80.24 147.93,-79.59 151,-79 238.71,-61.99 263.76,-61.91 354.41,-43.23"/>
<polygon fill="#63b8ff" stroke="#63b8ff" points="355.21,-46.64 364.29,-41.17 353.78,-39.79 355.21,-46.64"/>
</a>
</g>
<g id="a_edge5&#45;headlabel"><a xlink:href="dir_000031_000094.html" target="_top" xlink:title="1">
<text text-anchor="middle" x="352.27" y="-47.65" font-family="Helvetica,sans-Serif" font-size="10.00" fill="#63b8ff">1</text>
</a>
</g>
</g>
<!-- dir_db84441f329c8233591c92bdeceb7d4e&#45;&gt;dir_e5d739089ab2f029c385362e3cd8d126 -->
<g id="edge6" class="edge">
<title>dir_db84441f329c8233591c92bdeceb7d4e&#45;&gt;dir_e5d739089ab2f029c385362e3cd8d126</title>
<g id="a_edge6"><a xlink:href="dir_000031_000052.html" target="_top">
<path fill="none" stroke="#63b8ff" d="M141.69,-79.68C178.8,-70.22 241.26,-54.31 281.27,-44.11"/>
<polygon fill="#63b8ff" stroke="#63b8ff" points="282.35,-47.45 291.18,-41.59 280.63,-40.67 282.35,-47.45"/>
</a>
</g>
<g id="a_edge6&#45;headlabel"><a xlink:href="dir_000031_000052.html" target="_top" xlink:title="1">
<text text-anchor="middle" x="279.57" y="-48.59" font-family="Helvetica,sans-Serif" font-size="10.00" fill="#63b8ff">1</text>
</a>
</g>
</g>
<!-- dir_48f48398c1806bb98124c954c835bed1 -->
<g id="node7" class="node">
<title>dir_48f48398c1806bb98124c954c835bed1</title>
<g id="a_node7"><a xlink:href="dir_48f48398c1806bb98124c954c835bed1.html" target="_top" xlink:title="impl">
<polygon fill="#fdaf60" stroke="#404040" points="198,-98 160,-98 160,-79 198,-79 198,-98"/>
<text text-anchor="middle" x="179" y="-86" font-family="Helvetica,sans-Serif" font-size="10.00">impl</text>
</a>
</g>
</g>
<!-- dir_48f48398c1806bb98124c954c835bed1&#45;&gt;dir_c50c586003329c6e30f96d9149b241dd -->
<g id="edge7" class="edge">
<title>dir_48f48398c1806bb98124c954c835bed1&#45;&gt;dir_c50c586003329c6e30f96d9149b241dd</title>
<g id="a_edge7"><a xlink:href="dir_000081_000094.html" target="_top">
<path fill="none" stroke="#63b8ff" d="M198.19,-82.7C233.53,-73.87 309.45,-54.89 354.76,-43.56"/>
<polygon fill="#63b8ff" stroke="#63b8ff" points="355.64,-46.95 364.49,-41.13 353.94,-40.16 355.64,-46.95"/>
</a>
</g>
<g id="a_edge7&#45;headlabel"><a xlink:href="dir_000081_000094.html" target="_top" xlink:title="1">
<text text-anchor="middle" x="352.84" y="-48.07" font-family="Helvetica,sans-Serif" font-size="10.00" fill="#63b8ff">1</text>
</a>
</g>
</g>
</g>
</svg>
