<?xml version="1.0" encoding="UTF-8" standalone="no"?>
<!DOCTYPE svg PUBLIC "-//W3C//DTD SVG 1.1//EN"
 "http://www.w3.org/Graphics/SVG/1.1/DTD/svg11.dtd">
<!-- Generated by graphviz version 2.43.0 (0)
 -->
<!-- Title: Graphical Class Hierarchy Pages: 1 -->
<svg width="342pt" height="76pt"
 viewBox="0.00 0.00 342.00 75.50" xmlns="http://www.w3.org/2000/svg" xmlns:xlink="http://www.w3.org/1999/xlink">
<g id="graph0" class="graph" transform="scale(1 1) rotate(0) translate(4 71.5)">
<title>Graphical Class Hierarchy</title>
<!-- Node0 -->
<g id="Node000000" class="node">
<title>Node0</title>
<g id="a_Node000000"><a xlink:href="d0/dbd/classutils_1_1datetime_1_1TimePointTzBase.html" target="_top" xlink:title=" ">
<polygon fill="white" stroke="#666666" points="143,-51 0,-51 0,-21 143,-21 143,-51"/>
<text text-anchor="start" x="8" y="-39" font-family="Helvetica,sans-Serif" font-size="10.00">utils::datetime::TimePoint</text>
<text text-anchor="middle" x="71.5" y="-28" font-family="Helvetica,sans-Serif" font-size="10.00">TzBase</text>
</a>
</g>
</g>
<!-- Node1 -->
<g id="Node000001" class="node">
<title>Node1</title>
<g id="a_Node000001"><a xlink:href="d3/dd7/classutils_1_1datetime_1_1TimePointTz.html" target="_top" xlink:title="Timepoint with timezone parsed in kRfc3339Format.">
<polygon fill="white" stroke="#666666" points="334,-67.5 179,-67.5 179,-48.5 334,-48.5 334,-67.5"/>
<text text-anchor="middle" x="256.5" y="-55.5" font-family="Helvetica,sans-Serif" font-size="10.00">utils::datetime::TimePointTz</text>
</a>
</g>
</g>
<!-- Node0&#45;&gt;Node1 -->
<g id="edge802_Node000000_Node000001" class="edge">
<title>Node0&#45;&gt;Node1</title>
<g id="a_edge802_Node000000_Node000001"><a xlink:title=" ">
<path fill="none" stroke="#63b8ff" d="M153.19,-45.7C161.72,-46.73 170.38,-47.77 178.86,-48.79"/>
<polygon fill="#63b8ff" stroke="#63b8ff" points="153.6,-42.22 143.25,-44.51 152.76,-49.17 153.6,-42.22"/>
</a>
</g>
</g>
<!-- Node2 -->
<g id="Node000002" class="node">
<title>Node2</title>
<g id="a_Node000002"><a xlink:href="d7/d35/classutils_1_1datetime_1_1TimePointTzIsoBasic.html" target="_top" xlink:title="Timepoint with timezone parsed in kDefaultFormat.">
<polygon fill="white" stroke="#666666" points="328,-30 185,-30 185,0 328,0 328,-30"/>
<text text-anchor="start" x="193" y="-18" font-family="Helvetica,sans-Serif" font-size="10.00">utils::datetime::TimePoint</text>
<text text-anchor="middle" x="256.5" y="-7" font-family="Helvetica,sans-Serif" font-size="10.00">TzIsoBasic</text>
</a>
</g>
</g>
<!-- Node0&#45;&gt;Node2 -->
<g id="edge803_Node000000_Node000002" class="edge">
<title>Node0&#45;&gt;Node2</title>
<g id="a_edge803_Node000000_Node000002"><a xlink:title=" ">
<path fill="none" stroke="#63b8ff" d="M153.29,-26.73C163.83,-25.52 174.57,-24.29 184.94,-23.1"/>
<polygon fill="#63b8ff" stroke="#63b8ff" points="152.79,-23.26 143.25,-27.88 153.59,-30.22 152.79,-23.26"/>
</a>
</g>
</g>
</g>
</svg>
