<?xml version="1.0" encoding="UTF-8" standalone="no"?>
<!DOCTYPE svg PUBLIC "-//W3C//DTD SVG 1.1//EN"
 "http://www.w3.org/Graphics/SVG/1.1/DTD/svg11.dtd">
<!-- Generated by graphviz version 2.43.0 (0)
 -->
<!-- Title: Graphical Class Hierarchy Pages: 1 -->
<svg width="286pt" height="134pt"
 viewBox="0.00 0.00 286.00 134.00" xmlns="http://www.w3.org/2000/svg" xmlns:xlink="http://www.w3.org/1999/xlink">
<g id="graph0" class="graph" transform="scale(1 1) rotate(0) translate(4 130)">
<title>Graphical Class Hierarchy</title>
<!-- Node0 -->
<g id="Node000000" class="node">
<title>Node0</title>
<g id="a_Node000000"><a xlink:title=" ">
<polygon fill="#e0e0e0" stroke="#999999" points="75,-72.5 0,-72.5 0,-53.5 75,-53.5 75,-72.5"/>
<text text-anchor="middle" x="37.5" y="-60.5" font-family="Helvetica,sans-Serif" font-size="10.00">enum.Enum</text>
</a>
</g>
</g>
<!-- Node1 -->
<g id="Node000001" class="node">
<title>Node1</title>
<g id="a_Node000001"><a xlink:href="d3/d7f/classpytest__userver_1_1plugins_1_1caches_1_1CacheControlAction.html" target="_top" xlink:title=" ">
<polygon fill="white" stroke="#666666" points="278,-126 111,-126 111,-96 278,-96 278,-126"/>
<text text-anchor="start" x="119" y="-114" font-family="Helvetica,sans-Serif" font-size="10.00">pytest_userver.plugins.caches.</text>
<text text-anchor="middle" x="194.5" y="-103" font-family="Helvetica,sans-Serif" font-size="10.00">CacheControlAction</text>
</a>
</g>
</g>
<!-- Node0&#45;&gt;Node1 -->
<g id="edge220_Node000000_Node000001" class="edge">
<title>Node0&#45;&gt;Node1</title>
<g id="a_edge220_Node000000_Node000001"><a xlink:title=" ">
<path fill="none" stroke="#63b8ff" d="M76.15,-75.75C87.34,-79.47 99.64,-83.47 111,-87 120.54,-89.97 130.74,-93.02 140.6,-95.92"/>
<polygon fill="#63b8ff" stroke="#63b8ff" points="77.25,-72.43 66.66,-72.59 75.03,-79.07 77.25,-72.43"/>
</a>
</g>
</g>
<!-- Node2 -->
<g id="Node000002" class="node">
<title>Node2</title>
<g id="a_Node000002"><a xlink:href="da/d8f/classpytest__userver_1_1plugins_1_1log__capture_1_1LogLevel.html" target="_top" xlink:title=" ">
<polygon fill="white" stroke="#666666" points="267,-78 122,-78 122,-48 267,-48 267,-78"/>
<text text-anchor="start" x="130" y="-66" font-family="Helvetica,sans-Serif" font-size="10.00">pytest_userver.plugins.log</text>
<text text-anchor="middle" x="194.5" y="-55" font-family="Helvetica,sans-Serif" font-size="10.00">_capture.LogLevel</text>
</a>
</g>
</g>
<!-- Node0&#45;&gt;Node2 -->
<g id="edge221_Node000000_Node000002" class="edge">
<title>Node0&#45;&gt;Node2</title>
<g id="a_edge221_Node000000_Node000002"><a xlink:title=" ">
<path fill="none" stroke="#63b8ff" d="M85.42,-63C96.88,-63 109.41,-63 121.74,-63"/>
<polygon fill="#63b8ff" stroke="#63b8ff" points="85.23,-59.5 75.23,-63 85.23,-66.5 85.23,-59.5"/>
</a>
</g>
</g>
<!-- Node3 -->
<g id="Node000003" class="node">
<title>Node3</title>
<g id="a_Node000003"><a xlink:href="d0/d0a/classpytest__userver_1_1utils_1_1colorize_1_1ColorArg.html" target="_top" xlink:title=" ">
<polygon fill="white" stroke="#666666" points="273,-30 116,-30 116,0 273,0 273,-30"/>
<text text-anchor="start" x="124" y="-18" font-family="Helvetica,sans-Serif" font-size="10.00">pytest_userver.utils.colorize.</text>
<text text-anchor="middle" x="194.5" y="-7" font-family="Helvetica,sans-Serif" font-size="10.00">ColorArg</text>
</a>
</g>
</g>
<!-- Node0&#45;&gt;Node3 -->
<g id="edge222_Node000000_Node000003" class="edge">
<title>Node0&#45;&gt;Node3</title>
<g id="a_edge222_Node000000_Node000003"><a xlink:title=" ">
<path fill="none" stroke="#63b8ff" d="M76.15,-50.25C87.34,-46.53 99.64,-42.53 111,-39 120.54,-36.03 130.74,-32.98 140.6,-30.08"/>
<polygon fill="#63b8ff" stroke="#63b8ff" points="75.03,-46.93 66.66,-53.41 77.25,-53.57 75.03,-46.93"/>
</a>
</g>
</g>
</g>
</svg>
