<?xml version="1.0" encoding="UTF-8" standalone="no"?>
<!DOCTYPE svg PUBLIC "-//W3C//DTD SVG 1.1//EN"
 "http://www.w3.org/Graphics/SVG/1.1/DTD/svg11.dtd">
<!-- Generated by graphviz version 2.43.0 (0)
 -->
<!-- Title: userver/storages/redis/exception.hpp Pages: 1 -->
<svg width="601pt" height="511pt"
 viewBox="0.00 0.00 601.00 511.00" xmlns="http://www.w3.org/2000/svg" xmlns:xlink="http://www.w3.org/1999/xlink">
<g id="graph0" class="graph" transform="scale(1 1) rotate(0) translate(4 507)">
<title>userver/storages/redis/exception.hpp</title>
<!-- Node1 -->
<g id="Node000001" class="node">
<title>Node1</title>
<g id="a_Node000001"><a xlink:title="redis&#45;specific exceptions">
<polygon fill="#999999" stroke="#666666" points="255,-503 130,-503 130,-473 255,-473 255,-503"/>
<text text-anchor="start" x="138" y="-491" font-family="Helvetica,sans-Serif" font-size="10.00">userver/storages/redis</text>
<text text-anchor="middle" x="192.5" y="-480" font-family="Helvetica,sans-Serif" font-size="10.00">/exception.hpp</text>
</a>
</g>
</g>
<!-- Node2 -->
<g id="Node000002" class="node">
<title>Node2</title>
<g id="a_Node000002"><a xlink:href="../../d6/ddc/command__options_8hpp_source.html" target="_top" xlink:title=" ">
<polygon fill="white" stroke="#666666" points="131,-233.5 0,-233.5 0,-203.5 131,-203.5 131,-233.5"/>
<text text-anchor="start" x="8" y="-221.5" font-family="Helvetica,sans-Serif" font-size="10.00">userver/storages/redis</text>
<text text-anchor="middle" x="65.5" y="-210.5" font-family="Helvetica,sans-Serif" font-size="10.00">/command_options.hpp</text>
</a>
</g>
</g>
<!-- Node1&#45;&gt;Node2 -->
<g id="edge1_Node000001_Node000002" class="edge">
<title>Node1&#45;&gt;Node2</title>
<g id="a_edge1_Node000001_Node000002"><a xlink:title=" ">
<path fill="none" stroke="#63b8ff" d="M181.53,-463.89C155.95,-410.02 92.97,-277.36 72.24,-233.69"/>
<polygon fill="#63b8ff" stroke="#63b8ff" points="178.4,-465.46 185.85,-472.99 184.72,-462.46 178.4,-465.46"/>
</a>
</g>
</g>
<!-- Node6 -->
<g id="Node000006" class="node">
<title>Node6</title>
<g id="a_Node000006"><a xlink:href="../../d6/d19/ttl__reply_8hpp_source.html" target="_top" xlink:title=" ">
<polygon fill="white" stroke="#666666" points="371.5,-437 239.5,-437 239.5,-407 371.5,-407 371.5,-437"/>
<text text-anchor="start" x="247.5" y="-425" font-family="Helvetica,sans-Serif" font-size="10.00">userver/storages/redis</text>
<text text-anchor="middle" x="305.5" y="-414" font-family="Helvetica,sans-Serif" font-size="10.00">/impl/reply/ttl_reply.hpp</text>
</a>
</g>
</g>
<!-- Node1&#45;&gt;Node6 -->
<g id="edge6_Node000001_Node000006" class="edge">
<title>Node1&#45;&gt;Node6</title>
<g id="a_edge6_Node000001_Node000006"><a xlink:title=" ">
<path fill="none" stroke="#63b8ff" d="M226.1,-467.97C243.64,-458.03 264.73,-446.09 280.76,-437.01"/>
<polygon fill="#63b8ff" stroke="#63b8ff" points="224.27,-464.98 217.3,-472.95 227.72,-471.07 224.27,-464.98"/>
</a>
</g>
</g>
<!-- Node11 -->
<g id="Node000011" class="node">
<title>Node11</title>
<g id="a_Node000011"><a xlink:href="../../d7/d98/redis_2include_2userver_2storages_2redis_2request_8hpp_source.html" target="_top" xlink:title=" ">
<polygon fill="white" stroke="#666666" points="274,-233.5 149,-233.5 149,-203.5 274,-203.5 274,-233.5"/>
<text text-anchor="start" x="157" y="-221.5" font-family="Helvetica,sans-Serif" font-size="10.00">userver/storages/redis</text>
<text text-anchor="middle" x="211.5" y="-210.5" font-family="Helvetica,sans-Serif" font-size="10.00">/request.hpp</text>
</a>
</g>
</g>
<!-- Node1&#45;&gt;Node11 -->
<g id="edge21_Node000001_Node000011" class="edge">
<title>Node1&#45;&gt;Node11</title>
<g id="a_edge21_Node000001_Node000011"><a xlink:title=" ">
<path fill="none" stroke="#63b8ff" d="M194.21,-462.88C198.08,-408.37 207.41,-277.08 210.49,-233.69"/>
<polygon fill="#63b8ff" stroke="#63b8ff" points="190.71,-462.77 193.49,-472.99 197.69,-463.27 190.71,-462.77"/>
</a>
</g>
</g>
<!-- Node3 -->
<g id="Node000003" class="node">
<title>Node3</title>
<g id="a_Node000003"><a xlink:href="../../dd/dc2/redis_2include_2userver_2storages_2redis_2client_8hpp.html" target="_top" xlink:title="Redis client.">
<polygon fill="white" stroke="#666666" points="292,-96 167,-96 167,-66 292,-66 292,-96"/>
<text text-anchor="start" x="175" y="-84" font-family="Helvetica,sans-Serif" font-size="10.00">userver/storages/redis</text>
<text text-anchor="middle" x="229.5" y="-73" font-family="Helvetica,sans-Serif" font-size="10.00">/client.hpp</text>
</a>
</g>
</g>
<!-- Node2&#45;&gt;Node3 -->
<g id="edge2_Node000002_Node000003" class="edge">
<title>Node2&#45;&gt;Node3</title>
<g id="a_edge2_Node000002_Node000003"><a xlink:title=" ">
<path fill="none" stroke="#63b8ff" d="M58.78,-193.69C55.04,-175.06 53.43,-149.47 66.5,-132 89.55,-101.19 131.23,-88.78 166.67,-84.02"/>
<polygon fill="#63b8ff" stroke="#63b8ff" points="55.38,-194.54 61.06,-203.48 62.2,-192.95 55.38,-194.54"/>
</a>
</g>
</g>
<!-- Node5 -->
<g id="Node000005" class="node">
<title>Node5</title>
<g id="a_Node000005"><a xlink:href="../../db/d36/redis_2include_2userver_2storages_2redis_2transaction_8hpp.html" target="_top" xlink:title=" ">
<polygon fill="white" stroke="#666666" points="201,-162 76,-162 76,-132 201,-132 201,-162"/>
<text text-anchor="start" x="84" y="-150" font-family="Helvetica,sans-Serif" font-size="10.00">userver/storages/redis</text>
<text text-anchor="middle" x="138.5" y="-139" font-family="Helvetica,sans-Serif" font-size="10.00">/transaction.hpp</text>
</a>
</g>
</g>
<!-- Node2&#45;&gt;Node5 -->
<g id="edge4_Node000002_Node000005" class="edge">
<title>Node2&#45;&gt;Node5</title>
<g id="a_edge4_Node000002_Node000005"><a xlink:title=" ">
<path fill="none" stroke="#63b8ff" d="M87.57,-196.49C99.28,-185.34 113.37,-171.93 123.75,-162.04"/>
<polygon fill="#63b8ff" stroke="#63b8ff" points="85.1,-194.01 80.27,-203.44 89.93,-199.08 85.1,-194.01"/>
</a>
</g>
</g>
<!-- Node4 -->
<g id="Node000004" class="node">
<title>Node4</title>
<g id="a_Node000004"><a xlink:href="../../df/d70/redis_2include_2userver_2storages_2redis_2hedged__request_8hpp.html" target="_top" xlink:title="Classes and functions for performing hedged requests.">
<polygon fill="white" stroke="#666666" points="292,-30 167,-30 167,0 292,0 292,-30"/>
<text text-anchor="start" x="175" y="-18" font-family="Helvetica,sans-Serif" font-size="10.00">userver/storages/redis</text>
<text text-anchor="middle" x="229.5" y="-7" font-family="Helvetica,sans-Serif" font-size="10.00">/hedged_request.hpp</text>
</a>
</g>
</g>
<!-- Node3&#45;&gt;Node4 -->
<g id="edge3_Node000003_Node000004" class="edge">
<title>Node3&#45;&gt;Node4</title>
<g id="a_edge3_Node000003_Node000004"><a xlink:title=" ">
<path fill="none" stroke="#63b8ff" d="M229.5,-55.54C229.5,-46.96 229.5,-37.61 229.5,-30.16"/>
<polygon fill="#63b8ff" stroke="#63b8ff" points="226,-55.8 229.5,-65.8 233,-55.8 226,-55.8"/>
</a>
</g>
</g>
<!-- Node5&#45;&gt;Node3 -->
<g id="edge5_Node000005_Node000003" class="edge">
<title>Node5&#45;&gt;Node3</title>
<g id="a_edge5_Node000005_Node000003"><a xlink:title=" ">
<path fill="none" stroke="#63b8ff" d="M166.9,-126.03C180.67,-116.34 196.88,-104.94 209.36,-96.16"/>
<polygon fill="#63b8ff" stroke="#63b8ff" points="164.86,-123.18 158.7,-131.8 168.89,-128.91 164.86,-123.18"/>
</a>
</g>
</g>
<!-- Node7 -->
<g id="Node000007" class="node">
<title>Node7</title>
<g id="a_Node000007"><a xlink:href="../../d9/dd6/reply__types_8hpp_source.html" target="_top" xlink:title=" ">
<polygon fill="white" stroke="#666666" points="378,-371 253,-371 253,-341 378,-341 378,-371"/>
<text text-anchor="start" x="261" y="-359" font-family="Helvetica,sans-Serif" font-size="10.00">userver/storages/redis</text>
<text text-anchor="middle" x="315.5" y="-348" font-family="Helvetica,sans-Serif" font-size="10.00">/reply_types.hpp</text>
</a>
</g>
</g>
<!-- Node6&#45;&gt;Node7 -->
<g id="edge7_Node000006_Node000007" class="edge">
<title>Node6&#45;&gt;Node7</title>
<g id="a_edge7_Node000006_Node000007"><a xlink:title=" ">
<path fill="none" stroke="#63b8ff" d="M309.28,-396.83C310.63,-388.17 312.11,-378.7 313.29,-371.16"/>
<polygon fill="#63b8ff" stroke="#63b8ff" points="305.81,-396.38 307.72,-406.8 312.72,-397.46 305.81,-396.38"/>
</a>
</g>
</g>
<!-- Node8 -->
<g id="Node000008" class="node">
<title>Node8</title>
<g id="a_Node000008"><a xlink:href="../../d1/daf/parse__reply_8hpp_source.html" target="_top" xlink:title=" ">
<polygon fill="white" stroke="#666666" points="593,-233.5 468,-233.5 468,-203.5 593,-203.5 593,-233.5"/>
<text text-anchor="start" x="476" y="-221.5" font-family="Helvetica,sans-Serif" font-size="10.00">userver/storages/redis</text>
<text text-anchor="middle" x="530.5" y="-210.5" font-family="Helvetica,sans-Serif" font-size="10.00">/parse_reply.hpp</text>
</a>
</g>
</g>
<!-- Node7&#45;&gt;Node8 -->
<g id="edge8_Node000007_Node000008" class="edge">
<title>Node7&#45;&gt;Node8</title>
<g id="a_edge8_Node000007_Node000008"><a xlink:title=" ">
<path fill="none" stroke="#63b8ff" d="M349.53,-335.83C365.44,-326.71 384.58,-315.51 401.5,-305 440.3,-280.89 484.45,-251.1 509.74,-233.8"/>
<polygon fill="#63b8ff" stroke="#63b8ff" points="347.52,-332.95 340.57,-340.94 350.99,-339.03 347.52,-332.95"/>
</a>
</g>
</g>
<!-- Node7&#45;&gt;Node11 -->
<g id="edge13_Node000007_Node000011" class="edge">
<title>Node7&#45;&gt;Node11</title>
<g id="a_edge13_Node000007_Node000011"><a xlink:title=" ">
<path fill="none" stroke="#63b8ff" d="M283.31,-335.02C271.88,-326.78 259.61,-316.46 250.5,-305 232.94,-282.9 221.3,-251.63 215.6,-233.67"/>
<polygon fill="#63b8ff" stroke="#63b8ff" points="281.6,-338.1 291.82,-340.91 285.59,-332.34 281.6,-338.1"/>
</a>
</g>
</g>
<!-- Node12 -->
<g id="Node000012" class="node">
<title>Node12</title>
<g id="a_Node000012"><a xlink:href="../../db/d81/request__data__base_8hpp_source.html" target="_top" xlink:title=" ">
<polygon fill="white" stroke="#666666" points="392,-305 259,-305 259,-275 392,-275 392,-305"/>
<text text-anchor="start" x="267" y="-293" font-family="Helvetica,sans-Serif" font-size="10.00">userver/storages/redis</text>
<text text-anchor="middle" x="325.5" y="-282" font-family="Helvetica,sans-Serif" font-size="10.00">/request_data_base.hpp</text>
</a>
</g>
</g>
<!-- Node7&#45;&gt;Node12 -->
<g id="edge18_Node000007_Node000012" class="edge">
<title>Node7&#45;&gt;Node12</title>
<g id="a_edge18_Node000007_Node000012"><a xlink:title=" ">
<path fill="none" stroke="#63b8ff" d="M319.28,-330.83C320.63,-322.17 322.11,-312.7 323.29,-305.16"/>
<polygon fill="#63b8ff" stroke="#63b8ff" points="315.81,-330.38 317.72,-340.8 322.72,-331.46 315.81,-330.38"/>
</a>
</g>
</g>
<!-- Node9 -->
<g id="Node000009" class="node">
<title>Node9</title>
<g id="a_Node000009"><a xlink:href="../../da/df5/request__eval_8hpp_source.html" target="_top" xlink:title=" ">
<polygon fill="white" stroke="#666666" points="383,-162 258,-162 258,-132 383,-132 383,-162"/>
<text text-anchor="start" x="266" y="-150" font-family="Helvetica,sans-Serif" font-size="10.00">userver/storages/redis</text>
<text text-anchor="middle" x="320.5" y="-139" font-family="Helvetica,sans-Serif" font-size="10.00">/request_eval.hpp</text>
</a>
</g>
</g>
<!-- Node8&#45;&gt;Node9 -->
<g id="edge9_Node000008_Node000009" class="edge">
<title>Node8&#45;&gt;Node9</title>
<g id="a_edge9_Node000008_Node000009"><a xlink:title=" ">
<path fill="none" stroke="#63b8ff" d="M478.28,-200.22C442.71,-188.45 396.22,-173.06 362.93,-162.04"/>
<polygon fill="#63b8ff" stroke="#63b8ff" points="477.41,-203.62 488,-203.44 479.61,-196.97 477.41,-203.62"/>
</a>
</g>
</g>
<!-- Node10 -->
<g id="Node000010" class="node">
<title>Node10</title>
<g id="a_Node000010"><a xlink:href="../../de/d60/request__evalsha_8hpp_source.html" target="_top" xlink:title=" ">
<polygon fill="white" stroke="#666666" points="526,-162 401,-162 401,-132 526,-132 526,-162"/>
<text text-anchor="start" x="409" y="-150" font-family="Helvetica,sans-Serif" font-size="10.00">userver/storages/redis</text>
<text text-anchor="middle" x="463.5" y="-139" font-family="Helvetica,sans-Serif" font-size="10.00">/request_evalsha.hpp</text>
</a>
</g>
</g>
<!-- Node8&#45;&gt;Node10 -->
<g id="edge11_Node000008_Node000010" class="edge">
<title>Node8&#45;&gt;Node10</title>
<g id="a_edge11_Node000008_Node000010"><a xlink:title=" ">
<path fill="none" stroke="#63b8ff" d="M509.94,-196.17C499.25,-185.08 486.48,-171.84 477.04,-162.04"/>
<polygon fill="#63b8ff" stroke="#63b8ff" points="507.48,-198.67 516.94,-203.44 512.52,-193.81 507.48,-198.67"/>
</a>
</g>
</g>
<!-- Node9&#45;&gt;Node3 -->
<g id="edge10_Node000009_Node000003" class="edge">
<title>Node9&#45;&gt;Node3</title>
<g id="a_edge10_Node000009_Node000003"><a xlink:title=" ">
<path fill="none" stroke="#63b8ff" d="M292.1,-126.03C278.33,-116.34 262.12,-104.94 249.64,-96.16"/>
<polygon fill="#63b8ff" stroke="#63b8ff" points="290.11,-128.91 300.3,-131.8 294.14,-123.18 290.11,-128.91"/>
</a>
</g>
</g>
<!-- Node10&#45;&gt;Node3 -->
<g id="edge12_Node000010_Node000003" class="edge">
<title>Node10&#45;&gt;Node3</title>
<g id="a_edge12_Node000010_Node000003"><a xlink:title=" ">
<path fill="none" stroke="#63b8ff" d="M402.27,-129.25C364.47,-118.91 316.52,-105.8 280.73,-96.01"/>
<polygon fill="#63b8ff" stroke="#63b8ff" points="401.58,-132.69 412.15,-131.95 403.43,-125.94 401.58,-132.69"/>
</a>
</g>
</g>
<!-- Node11&#45;&gt;Node3 -->
<g id="edge14_Node000011_Node000003" class="edge">
<title>Node11&#45;&gt;Node3</title>
<g id="a_edge14_Node000011_Node000003"><a xlink:title=" ">
<path fill="none" stroke="#63b8ff" d="M214.76,-192.98C218.52,-164.64 224.59,-118.96 227.63,-96.05"/>
<polygon fill="#63b8ff" stroke="#63b8ff" points="211.24,-192.88 213.39,-203.26 218.18,-193.8 211.24,-192.88"/>
</a>
</g>
</g>
<!-- Node11&#45;&gt;Node5 -->
<g id="edge17_Node000011_Node000005" class="edge">
<title>Node11&#45;&gt;Node5</title>
<g id="a_edge17_Node000011_Node000005"><a xlink:title=" ">
<path fill="none" stroke="#63b8ff" d="M189.43,-196.49C177.72,-185.34 163.63,-171.93 153.25,-162.04"/>
<polygon fill="#63b8ff" stroke="#63b8ff" points="187.07,-199.08 196.73,-203.44 191.9,-194.01 187.07,-199.08"/>
</a>
</g>
</g>
<!-- Node11&#45;&gt;Node9 -->
<g id="edge15_Node000011_Node000009" class="edge">
<title>Node11&#45;&gt;Node9</title>
<g id="a_edge15_Node000011_Node000009"><a xlink:title=" ">
<path fill="none" stroke="#63b8ff" d="M242.47,-197.75C260.33,-186.36 282.38,-172.31 298.48,-162.04"/>
<polygon fill="#63b8ff" stroke="#63b8ff" points="240.11,-195.11 233.56,-203.44 243.87,-201.01 240.11,-195.11"/>
</a>
</g>
</g>
<!-- Node11&#45;&gt;Node10 -->
<g id="edge16_Node000011_Node000010" class="edge">
<title>Node11&#45;&gt;Node10</title>
<g id="a_edge16_Node000011_Node000010"><a xlink:title=" ">
<path fill="none" stroke="#63b8ff" d="M272.26,-200.74C315.17,-188.91 372.04,-173.22 412.58,-162.04"/>
<polygon fill="#63b8ff" stroke="#63b8ff" points="271.21,-197.4 262.5,-203.44 273.07,-204.15 271.21,-197.4"/>
</a>
</g>
</g>
<!-- Node12&#45;&gt;Node11 -->
<g id="edge20_Node000012_Node000011" class="edge">
<title>Node12&#45;&gt;Node11</title>
<g id="a_edge20_Node000012_Node000011"><a xlink:title=" ">
<path fill="none" stroke="#63b8ff" d="M293.88,-269.72C275.06,-258.25 251.6,-243.95 234.54,-233.54"/>
<polygon fill="#63b8ff" stroke="#63b8ff" points="292.07,-272.72 302.43,-274.94 295.71,-266.74 292.07,-272.72"/>
</a>
</g>
</g>
<!-- Node13 -->
<g id="Node000013" class="node">
<title>Node13</title>
<g id="a_Node000013"><a xlink:href="../../d1/d35/transaction__subrequest__data_8hpp_source.html" target="_top" xlink:title=" ">
<polygon fill="white" stroke="#666666" points="450.5,-239 292.5,-239 292.5,-198 450.5,-198 450.5,-239"/>
<text text-anchor="start" x="300.5" y="-227" font-family="Helvetica,sans-Serif" font-size="10.00">userver/storages/redis</text>
<text text-anchor="start" x="300.5" y="-216" font-family="Helvetica,sans-Serif" font-size="10.00">/impl/transaction_subrequest</text>
<text text-anchor="middle" x="371.5" y="-205" font-family="Helvetica,sans-Serif" font-size="10.00">_data.hpp</text>
</a>
</g>
</g>
<!-- Node12&#45;&gt;Node13 -->
<g id="edge19_Node000012_Node000013" class="edge">
<title>Node12&#45;&gt;Node13</title>
<g id="a_edge19_Node000012_Node000013"><a xlink:title=" ">
<path fill="none" stroke="#63b8ff" d="M340.33,-266.59C346.2,-257.73 352.88,-247.63 358.54,-239.07"/>
<polygon fill="#63b8ff" stroke="#63b8ff" points="337.41,-264.66 334.81,-274.94 343.25,-268.53 337.41,-264.66"/>
</a>
</g>
</g>
</g>
</svg>
