<?xml version="1.0" encoding="UTF-8" standalone="no"?>
<!DOCTYPE svg PUBLIC "-//W3C//DTD SVG 1.1//EN"
 "http://www.w3.org/Graphics/SVG/1.1/DTD/svg11.dtd">
<!-- Generated by graphviz version 2.43.0 (0)
 -->
<!-- Title: userver/cache/statistics_mock.hpp Pages: 1 -->
<svg width="926pt" height="302pt"
 viewBox="0.00 0.00 925.50 302.00" xmlns="http://www.w3.org/2000/svg" xmlns:xlink="http://www.w3.org/1999/xlink">
<g id="graph0" class="graph" transform="scale(1 1) rotate(0) translate(4 298)">
<title>userver/cache/statistics_mock.hpp</title>
<!-- Node1 -->
<g id="Node000001" class="node">
<title>Node1</title>
<g id="a_Node000001"><a xlink:title="Allows to test helper functions of CacheUpdateTrait::Update that use UpdateStatisticsScope.">
<polygon fill="#999999" stroke="#666666" points="440,-294 308,-294 308,-264 440,-264 440,-294"/>
<text text-anchor="start" x="316" y="-282" font-family="Helvetica,sans-Serif" font-size="10.00">userver/cache/statistics</text>
<text text-anchor="middle" x="374" y="-271" font-family="Helvetica,sans-Serif" font-size="10.00">_mock.hpp</text>
</a>
</g>
</g>
<!-- Node2 -->
<g id="Node000002" class="node">
<title>Node2</title>
<g id="a_Node000002"><a xlink:href="../../d1/d8c/cache__statistics_8hpp.html" target="_top" xlink:title="Statistics collection for components::CachingComponentBase.">
<polygon fill="white" stroke="#666666" points="389,-228 273,-228 273,-198 389,-198 389,-228"/>
<text text-anchor="start" x="281" y="-216" font-family="Helvetica,sans-Serif" font-size="10.00">userver/cache/cache</text>
<text text-anchor="middle" x="331" y="-205" font-family="Helvetica,sans-Serif" font-size="10.00">_statistics.hpp</text>
</a>
</g>
</g>
<!-- Node1&#45;&gt;Node2 -->
<g id="edge1_Node000001_Node000002" class="edge">
<title>Node1&#45;&gt;Node2</title>
<g id="a_edge1_Node000001_Node000002"><a xlink:title=" ">
<path fill="none" stroke="#63b8ff" d="M364.46,-263.8C359.11,-255.84 352.32,-245.74 346.26,-236.71"/>
<polygon fill="#63b8ff" stroke="#63b8ff" points="349,-234.51 340.52,-228.16 343.19,-238.42 349,-234.51"/>
</a>
</g>
</g>
<!-- Node6 -->
<g id="Node000006" class="node">
<title>Node6</title>
<g id="a_Node000006"><a xlink:href="../../d9/dc2/update__type_8hpp.html" target="_top" xlink:title="Enums representing periodic update types for CachingComponentBase">
<polygon fill="white" stroke="#666666" points="646,-162 524,-162 524,-132 646,-132 646,-162"/>
<text text-anchor="start" x="532" y="-150" font-family="Helvetica,sans-Serif" font-size="10.00">userver/cache/update</text>
<text text-anchor="middle" x="585" y="-139" font-family="Helvetica,sans-Serif" font-size="10.00">_type.hpp</text>
</a>
</g>
</g>
<!-- Node1&#45;&gt;Node6 -->
<g id="edge20_Node000001_Node000006" class="edge">
<title>Node1&#45;&gt;Node6</title>
<g id="a_edge20_Node000001_Node000006"><a xlink:title=" ">
<path fill="none" stroke="#63b8ff" d="M396.98,-263.84C434.87,-240.49 510.53,-193.88 553.42,-167.46"/>
<polygon fill="#63b8ff" stroke="#63b8ff" points="555.37,-170.37 562.05,-162.14 551.7,-164.41 555.37,-170.37"/>
</a>
</g>
</g>
<!-- Node3 -->
<g id="Node000003" class="node">
<title>Node3</title>
<g id="a_Node000003"><a xlink:title=" ">
<polygon fill="#e0e0e0" stroke="#999999" points="244,-90.5 194,-90.5 194,-71.5 244,-71.5 244,-90.5"/>
<text text-anchor="middle" x="219" y="-78.5" font-family="Helvetica,sans-Serif" font-size="10.00">atomic</text>
</a>
</g>
</g>
<!-- Node2&#45;&gt;Node3 -->
<g id="edge2_Node000002_Node000003" class="edge">
<title>Node2&#45;&gt;Node3</title>
<g id="a_edge2_Node000002_Node000003"><a xlink:title=" ">
<path fill="none" stroke="#63b8ff" d="M320.27,-197.81C307.85,-181.57 286.58,-154.33 267,-132 256.71,-120.27 244.53,-107.59 235.01,-97.94"/>
<polygon fill="#63b8ff" stroke="#63b8ff" points="237.28,-95.25 227.74,-90.63 232.31,-100.18 237.28,-95.25"/>
</a>
</g>
</g>
<!-- Node4 -->
<g id="Node000004" class="node">
<title>Node4</title>
<g id="a_Node000004"><a xlink:title=" ">
<polygon fill="#e0e0e0" stroke="#999999" points="50,-156.5 0,-156.5 0,-137.5 50,-137.5 50,-156.5"/>
<text text-anchor="middle" x="25" y="-144.5" font-family="Helvetica,sans-Serif" font-size="10.00">chrono</text>
</a>
</g>
</g>
<!-- Node2&#45;&gt;Node4 -->
<g id="edge3_Node000002_Node000004" class="edge">
<title>Node2&#45;&gt;Node4</title>
<g id="a_edge3_Node000002_Node000004"><a xlink:title=" ">
<path fill="none" stroke="#63b8ff" d="M272.87,-204.9C217.23,-197.27 131.31,-183.28 59,-162 57.12,-161.45 55.2,-160.82 53.27,-160.16"/>
<polygon fill="#63b8ff" stroke="#63b8ff" points="54.4,-156.84 43.81,-156.56 51.92,-163.38 54.4,-156.84"/>
</a>
</g>
</g>
<!-- Node5 -->
<g id="Node000005" class="node">
<title>Node5</title>
<g id="a_Node000005"><a xlink:title=" ">
<polygon fill="#e0e0e0" stroke="#999999" points="121.5,-156.5 68.5,-156.5 68.5,-137.5 121.5,-137.5 121.5,-156.5"/>
<text text-anchor="middle" x="95" y="-144.5" font-family="Helvetica,sans-Serif" font-size="10.00">cstddef</text>
</a>
</g>
</g>
<!-- Node2&#45;&gt;Node5 -->
<g id="edge4_Node000002_Node000005" class="edge">
<title>Node2&#45;&gt;Node5</title>
<g id="a_edge4_Node000002_Node000005"><a xlink:title=" ">
<path fill="none" stroke="#63b8ff" d="M272.7,-199.47C232.51,-190.33 178.07,-176.97 131,-162 129.13,-161.41 127.22,-160.76 125.3,-160.09"/>
<polygon fill="#63b8ff" stroke="#63b8ff" points="126.37,-156.76 115.78,-156.59 123.96,-163.33 126.37,-156.76"/>
</a>
</g>
</g>
<!-- Node2&#45;&gt;Node6 -->
<g id="edge5_Node000002_Node000006" class="edge">
<title>Node2&#45;&gt;Node6</title>
<g id="a_edge5_Node000002_Node000006"><a xlink:title=" ">
<path fill="none" stroke="#63b8ff" d="M386.74,-197.95C425.87,-188.1 478.33,-174.88 519.46,-164.51"/>
<polygon fill="#63b8ff" stroke="#63b8ff" points="520.55,-167.85 529.39,-162.01 518.84,-161.06 520.55,-167.85"/>
</a>
</g>
</g>
<!-- Node12 -->
<g id="Node000012" class="node">
<title>Node12</title>
<g id="a_Node000012"><a xlink:href="../../d7/d2e/core_2include_2userver_2utils_2internal__tag__fwd_8hpp.html" target="_top" xlink:title=" ">
<polygon fill="white" stroke="#666666" points="258,-162 140,-162 140,-132 258,-132 258,-162"/>
<text text-anchor="start" x="148" y="-150" font-family="Helvetica,sans-Serif" font-size="10.00">userver/utils/internal</text>
<text text-anchor="middle" x="199" y="-139" font-family="Helvetica,sans-Serif" font-size="10.00">_tag_fwd.hpp</text>
</a>
</g>
</g>
<!-- Node2&#45;&gt;Node12 -->
<g id="edge12_Node000002_Node000012" class="edge">
<title>Node2&#45;&gt;Node12</title>
<g id="a_edge12_Node000002_Node000012"><a xlink:title=" ">
<path fill="none" stroke="#63b8ff" d="M302.03,-197.95C282.95,-188.7 257.75,-176.49 237.06,-166.45"/>
<polygon fill="#63b8ff" stroke="#63b8ff" points="238.43,-163.23 227.9,-162.01 235.37,-169.52 238.43,-163.23"/>
</a>
</g>
</g>
<!-- Node13 -->
<g id="Node000013" class="node">
<title>Node13</title>
<g id="a_Node000013"><a xlink:href="../../d7/def/core_2include_2userver_2utils_2statistics_2fwd_8hpp.html" target="_top" xlink:title="Forward declarations for statistics entities.">
<polygon fill="white" stroke="#666666" points="530.5,-96 405.5,-96 405.5,-66 530.5,-66 530.5,-96"/>
<text text-anchor="start" x="413.5" y="-84" font-family="Helvetica,sans-Serif" font-size="10.00">userver/utils/statistics</text>
<text text-anchor="middle" x="468" y="-73" font-family="Helvetica,sans-Serif" font-size="10.00">/fwd.hpp</text>
</a>
</g>
</g>
<!-- Node2&#45;&gt;Node13 -->
<g id="edge13_Node000002_Node000013" class="edge">
<title>Node2&#45;&gt;Node13</title>
<g id="a_edge13_Node000002_Node000013"><a xlink:title=" ">
<path fill="none" stroke="#63b8ff" d="M389.09,-198.86C410.35,-191.34 432.88,-179.73 448,-162 461.1,-146.63 465.84,-123.9 467.45,-106.59"/>
<polygon fill="#63b8ff" stroke="#63b8ff" points="470.97,-106.34 468.11,-96.13 463.99,-105.89 470.97,-106.34"/>
</a>
</g>
</g>
<!-- Node15 -->
<g id="Node000015" class="node">
<title>Node15</title>
<g id="a_Node000015"><a xlink:href="../../df/dd3/rate__counter_8hpp.html" target="_top" xlink:title="Atomic counter of type Rate with relaxed memory ordering.">
<polygon fill="white" stroke="#666666" points="439.5,-162 314.5,-162 314.5,-132 439.5,-132 439.5,-162"/>
<text text-anchor="start" x="322.5" y="-150" font-family="Helvetica,sans-Serif" font-size="10.00">userver/utils/statistics</text>
<text text-anchor="middle" x="377" y="-139" font-family="Helvetica,sans-Serif" font-size="10.00">/rate_counter.hpp</text>
</a>
</g>
</g>
<!-- Node2&#45;&gt;Node15 -->
<g id="edge15_Node000002_Node000015" class="edge">
<title>Node2&#45;&gt;Node15</title>
<g id="a_edge15_Node000002_Node000015"><a xlink:title=" ">
<path fill="none" stroke="#63b8ff" d="M341.21,-197.8C346.99,-189.76 354.34,-179.53 360.88,-170.43"/>
<polygon fill="#63b8ff" stroke="#63b8ff" points="363.83,-172.33 366.82,-162.16 358.14,-168.24 363.83,-172.33"/>
</a>
</g>
</g>
<!-- Node7 -->
<g id="Node000007" class="node">
<title>Node7</title>
<g id="a_Node000007"><a xlink:title=" ">
<polygon fill="#e0e0e0" stroke="#999999" points="621.5,-90.5 548.5,-90.5 548.5,-71.5 621.5,-71.5 621.5,-90.5"/>
<text text-anchor="middle" x="585" y="-78.5" font-family="Helvetica,sans-Serif" font-size="10.00">string_view</text>
</a>
</g>
</g>
<!-- Node6&#45;&gt;Node7 -->
<g id="edge6_Node000006_Node000007" class="edge">
<title>Node6&#45;&gt;Node7</title>
<g id="a_edge6_Node000006_Node000007"><a xlink:title=" ">
<path fill="none" stroke="#63b8ff" d="M585,-131.8C585,-122.7 585,-110.79 585,-100.9"/>
<polygon fill="#63b8ff" stroke="#63b8ff" points="588.5,-100.84 585,-90.84 581.5,-100.84 588.5,-100.84"/>
</a>
</g>
</g>
<!-- Node8 -->
<g id="Node000008" class="node">
<title>Node8</title>
<g id="a_Node000008"><a xlink:href="../../dc/d7d/json__fwd_8hpp.html" target="_top" xlink:title="Forward declarations of formats::json types, formats::parse::To and formats::serialize::To.">
<polygon fill="white" stroke="#666666" points="892,-96 774,-96 774,-66 892,-66 892,-96"/>
<text text-anchor="start" x="782" y="-84" font-family="Helvetica,sans-Serif" font-size="10.00">userver/formats/json</text>
<text text-anchor="middle" x="833" y="-73" font-family="Helvetica,sans-Serif" font-size="10.00">_fwd.hpp</text>
</a>
</g>
</g>
<!-- Node6&#45;&gt;Node8 -->
<g id="edge7_Node000006_Node000008" class="edge">
<title>Node6&#45;&gt;Node8</title>
<g id="a_edge7_Node000006_Node000008"><a xlink:title=" ">
<path fill="none" stroke="#63b8ff" d="M639.42,-131.95C677.62,-122.1 728.85,-108.88 769.01,-98.51"/>
<polygon fill="#63b8ff" stroke="#63b8ff" points="769.89,-101.9 778.7,-96.01 768.14,-95.12 769.89,-101.9"/>
</a>
</g>
</g>
<!-- Node11 -->
<g id="Node000011" class="node">
<title>Node11</title>
<g id="a_Node000011"><a xlink:href="../../dd/dd7/universal_2include_2userver_2yaml__config_2fwd_8hpp.html" target="_top" xlink:title="Forward declarations of YamlConfig type and formats::parse::To.">
<polygon fill="white" stroke="#666666" points="756,-96 640,-96 640,-66 756,-66 756,-96"/>
<text text-anchor="start" x="648" y="-84" font-family="Helvetica,sans-Serif" font-size="10.00">userver/yaml_config</text>
<text text-anchor="middle" x="698" y="-73" font-family="Helvetica,sans-Serif" font-size="10.00">/fwd.hpp</text>
</a>
</g>
</g>
<!-- Node6&#45;&gt;Node11 -->
<g id="edge10_Node000006_Node000011" class="edge">
<title>Node6&#45;&gt;Node11</title>
<g id="a_edge10_Node000006_Node000011"><a xlink:title=" ">
<path fill="none" stroke="#63b8ff" d="M609.8,-131.95C625.84,-122.87 646.93,-110.93 664.46,-101"/>
<polygon fill="#63b8ff" stroke="#63b8ff" points="666.28,-103.99 673.26,-96.01 662.83,-97.9 666.28,-103.99"/>
</a>
</g>
</g>
<!-- Node9 -->
<g id="Node000009" class="node">
<title>Node9</title>
<g id="a_Node000009"><a xlink:href="../../d2/dc8/universal_2include_2userver_2formats_2parse_2to_8hpp.html" target="_top" xlink:title="Helper for parsers.">
<polygon fill="white" stroke="#666666" points="760.5,-30 635.5,-30 635.5,0 760.5,0 760.5,-30"/>
<text text-anchor="start" x="643.5" y="-18" font-family="Helvetica,sans-Serif" font-size="10.00">userver/formats/parse</text>
<text text-anchor="middle" x="698" y="-7" font-family="Helvetica,sans-Serif" font-size="10.00">/to.hpp</text>
</a>
</g>
</g>
<!-- Node8&#45;&gt;Node9 -->
<g id="edge8_Node000008_Node000009" class="edge">
<title>Node8&#45;&gt;Node9</title>
<g id="a_edge8_Node000008_Node000009"><a xlink:title=" ">
<path fill="none" stroke="#63b8ff" d="M803.37,-65.95C783.77,-56.66 757.86,-44.38 736.63,-34.32"/>
<polygon fill="#63b8ff" stroke="#63b8ff" points="738.09,-31.13 727.56,-30.01 735.09,-37.46 738.09,-31.13"/>
</a>
</g>
</g>
<!-- Node10 -->
<g id="Node000010" class="node">
<title>Node10</title>
<g id="a_Node000010"><a xlink:href="../../d6/d8e/universal_2include_2userver_2formats_2serialize_2to_8hpp.html" target="_top" xlink:title="Helper for serializers.">
<polygon fill="white" stroke="#666666" points="917.5,-30 778.5,-30 778.5,0 917.5,0 917.5,-30"/>
<text text-anchor="start" x="786.5" y="-18" font-family="Helvetica,sans-Serif" font-size="10.00">userver/formats/serialize</text>
<text text-anchor="middle" x="848" y="-7" font-family="Helvetica,sans-Serif" font-size="10.00">/to.hpp</text>
</a>
</g>
</g>
<!-- Node8&#45;&gt;Node10 -->
<g id="edge9_Node000008_Node000010" class="edge">
<title>Node8&#45;&gt;Node10</title>
<g id="a_edge9_Node000008_Node000010"><a xlink:title=" ">
<path fill="none" stroke="#63b8ff" d="M836.33,-65.8C838.1,-58.26 840.32,-48.78 842.34,-40.13"/>
<polygon fill="#63b8ff" stroke="#63b8ff" points="845.81,-40.7 844.68,-30.16 838.99,-39.1 845.81,-40.7"/>
</a>
</g>
</g>
<!-- Node11&#45;&gt;Node9 -->
<g id="edge11_Node000011_Node000009" class="edge">
<title>Node11&#45;&gt;Node9</title>
<g id="a_edge11_Node000011_Node000009"><a xlink:title=" ">
<path fill="none" stroke="#63b8ff" d="M698,-65.8C698,-58.34 698,-48.99 698,-40.41"/>
<polygon fill="#63b8ff" stroke="#63b8ff" points="701.5,-40.16 698,-30.16 694.5,-40.16 701.5,-40.16"/>
</a>
</g>
</g>
<!-- Node14 -->
<g id="Node000014" class="node">
<title>Node14</title>
<g id="a_Node000014"><a xlink:title=" ">
<polygon fill="#e0e0e0" stroke="#999999" points="497,-24.5 439,-24.5 439,-5.5 497,-5.5 497,-24.5"/>
<text text-anchor="middle" x="468" y="-12.5" font-family="Helvetica,sans-Serif" font-size="10.00">memory</text>
</a>
</g>
</g>
<!-- Node13&#45;&gt;Node14 -->
<g id="edge14_Node000013_Node000014" class="edge">
<title>Node13&#45;&gt;Node14</title>
<g id="a_edge14_Node000013_Node000014"><a xlink:title=" ">
<path fill="none" stroke="#63b8ff" d="M468,-65.8C468,-56.7 468,-44.79 468,-34.9"/>
<polygon fill="#63b8ff" stroke="#63b8ff" points="471.5,-34.84 468,-24.84 464.5,-34.84 471.5,-34.84"/>
</a>
</g>
</g>
<!-- Node15&#45;&gt;Node3 -->
<g id="edge16_Node000015_Node000003" class="edge">
<title>Node15&#45;&gt;Node3</title>
<g id="a_edge16_Node000015_Node000003"><a xlink:title=" ">
<path fill="none" stroke="#63b8ff" d="M341.96,-131.95C317.11,-121.97 282.99,-108.22 253,-96 251.8,-95.51 250.58,-95.01 249.35,-94.51"/>
<polygon fill="#63b8ff" stroke="#63b8ff" points="250.43,-91.17 239.85,-90.61 247.77,-97.65 250.43,-91.17"/>
</a>
</g>
</g>
<!-- Node15&#45;&gt;Node13 -->
<g id="edge17_Node000015_Node000013" class="edge">
<title>Node15&#45;&gt;Node13</title>
<g id="a_edge17_Node000015_Node000013"><a xlink:title=" ">
<path fill="none" stroke="#63b8ff" d="M397.2,-131.8C409.68,-123.01 425.9,-111.61 439.66,-101.93"/>
<polygon fill="#63b8ff" stroke="#63b8ff" points="441.69,-104.78 447.86,-96.16 437.67,-99.05 441.69,-104.78"/>
</a>
</g>
</g>
<!-- Node16 -->
<g id="Node000016" class="node">
<title>Node16</title>
<g id="a_Node000016"><a xlink:href="../../d6/dab/rate_8hpp.html" target="_top" xlink:title=" ">
<polygon fill="white" stroke="#666666" points="387.5,-96 262.5,-96 262.5,-66 387.5,-66 387.5,-96"/>
<text text-anchor="start" x="270.5" y="-84" font-family="Helvetica,sans-Serif" font-size="10.00">userver/utils/statistics</text>
<text text-anchor="middle" x="325" y="-73" font-family="Helvetica,sans-Serif" font-size="10.00">/rate.hpp</text>
</a>
</g>
</g>
<!-- Node15&#45;&gt;Node16 -->
<g id="edge18_Node000015_Node000016" class="edge">
<title>Node15&#45;&gt;Node16</title>
<g id="a_edge18_Node000015_Node000016"><a xlink:title=" ">
<path fill="none" stroke="#63b8ff" d="M365.46,-131.8C358.86,-123.68 350.44,-113.31 343,-104.15"/>
<polygon fill="#63b8ff" stroke="#63b8ff" points="345.53,-101.72 336.51,-96.16 340.1,-106.13 345.53,-101.72"/>
</a>
</g>
</g>
<!-- Node17 -->
<g id="Node000017" class="node">
<title>Node17</title>
<g id="a_Node000017"><a xlink:title=" ">
<polygon fill="#e0e0e0" stroke="#999999" points="350,-24.5 300,-24.5 300,-5.5 350,-5.5 350,-24.5"/>
<text text-anchor="middle" x="325" y="-12.5" font-family="Helvetica,sans-Serif" font-size="10.00">cstdint</text>
</a>
</g>
</g>
<!-- Node16&#45;&gt;Node17 -->
<g id="edge19_Node000016_Node000017" class="edge">
<title>Node16&#45;&gt;Node17</title>
<g id="a_edge19_Node000016_Node000017"><a xlink:title=" ">
<path fill="none" stroke="#63b8ff" d="M325,-65.8C325,-56.7 325,-44.79 325,-34.9"/>
<polygon fill="#63b8ff" stroke="#63b8ff" points="328.5,-34.84 325,-24.84 321.5,-34.84 328.5,-34.84"/>
</a>
</g>
</g>
</g>
</svg>
