<?xml version="1.0" encoding="UTF-8" standalone="no"?>
<!DOCTYPE svg PUBLIC "-//W3C//DTD SVG 1.1//EN"
 "http://www.w3.org/Graphics/SVG/1.1/DTD/svg11.dtd">
<!-- Generated by graphviz version 2.43.0 (0)
 -->
<!-- Title: userver/utest/default_logger_fixture.hpp Pages: 1 -->
<svg width="2090pt" height="412pt"
 viewBox="0.00 0.00 2089.64 412.00" xmlns="http://www.w3.org/2000/svg" xmlns:xlink="http://www.w3.org/1999/xlink">
<g id="graph0" class="graph" transform="scale(1 1) rotate(0) translate(4 408)">
<title>userver/utest/default_logger_fixture.hpp</title>
<!-- Node1 -->
<g id="Node000001" class="node">
<title>Node1</title>
<g id="a_Node000001"><a xlink:title="Fixture that allows to set the default logger and manages its lifetime.">
<polygon fill="#999999" stroke="#666666" points="1750.64,-404 1631.64,-404 1631.64,-374 1750.64,-374 1750.64,-404"/>
<text text-anchor="start" x="1639.64" y="-392" font-family="Helvetica,sans-Serif" font-size="10.00">userver/utest/default</text>
<text text-anchor="middle" x="1691.14" y="-381" font-family="Helvetica,sans-Serif" font-size="10.00">_logger_fixture.hpp</text>
</a>
</g>
</g>
<!-- Node2 -->
<g id="Node000002" class="node">
<title>Node2</title>
<g id="a_Node000002"><a xlink:title=" ">
<polygon fill="#e0e0e0" stroke="#999999" points="1683.64,-145.5 1636.64,-145.5 1636.64,-126.5 1683.64,-126.5 1683.64,-145.5"/>
<text text-anchor="middle" x="1660.14" y="-133.5" font-family="Helvetica,sans-Serif" font-size="10.00">vector</text>
</a>
</g>
</g>
<!-- Node1&#45;&gt;Node2 -->
<g id="edge1_Node000001_Node000002" class="edge">
<title>Node1&#45;&gt;Node2</title>
<g id="a_edge1_Node000001_Node000002"><a xlink:title=" ">
<path fill="none" stroke="#63b8ff" d="M1690.49,-373.78C1688.82,-340.77 1683.71,-256.5 1672.14,-187 1670.39,-176.49 1667.67,-164.92 1665.26,-155.56"/>
<polygon fill="#63b8ff" stroke="#63b8ff" points="1668.61,-154.53 1662.65,-145.77 1661.84,-156.34 1668.61,-154.53"/>
</a>
</g>
</g>
<!-- Node3 -->
<g id="Node000003" class="node">
<title>Node3</title>
<g id="a_Node000003"><a xlink:href="../../dd/de6/universal_2include_2userver_2logging_2log_8hpp.html" target="_top" xlink:title="Logging helpers.">
<polygon fill="white" stroke="#666666" points="1239.64,-338 1108.64,-338 1108.64,-319 1239.64,-319 1239.64,-338"/>
<text text-anchor="middle" x="1174.14" y="-326" font-family="Helvetica,sans-Serif" font-size="10.00">userver/logging/log.hpp</text>
</a>
</g>
</g>
<!-- Node1&#45;&gt;Node3 -->
<g id="edge2_Node000001_Node000003" class="edge">
<title>Node1&#45;&gt;Node3</title>
<g id="a_edge2_Node000001_Node000003"><a xlink:title=" ">
<path fill="none" stroke="#63b8ff" d="M1631.58,-381.26C1537.28,-370.59 1353.68,-349.82 1250.06,-338.09"/>
<polygon fill="#63b8ff" stroke="#63b8ff" points="1250.31,-334.6 1239.98,-336.95 1249.52,-341.55 1250.31,-334.6"/>
</a>
</g>
</g>
<!-- Node35 -->
<g id="Node000035" class="node">
<title>Node35</title>
<g id="a_Node000035"><a xlink:href="../../d2/d54/assert_8hpp.html" target="_top" xlink:title="Assertion macros UASSERT, UASSERT_MSG, UINVARIANT.">
<polygon fill="white" stroke="#666666" points="2081.64,-277.5 1950.64,-277.5 1950.64,-258.5 2081.64,-258.5 2081.64,-277.5"/>
<text text-anchor="middle" x="2016.14" y="-265.5" font-family="Helvetica,sans-Serif" font-size="10.00">userver/utils/assert.hpp</text>
</a>
</g>
</g>
<!-- Node1&#45;&gt;Node35 -->
<g id="edge59_Node000001_Node000035" class="edge">
<title>Node1&#45;&gt;Node35</title>
<g id="a_edge59_Node000001_Node000035"><a xlink:title=" ">
<path fill="none" stroke="#63b8ff" d="M1729.38,-374C1793.75,-350.43 1922.66,-303.23 1983.25,-281.04"/>
<polygon fill="#63b8ff" stroke="#63b8ff" points="1984.52,-284.31 1992.71,-277.58 1982.11,-277.73 1984.52,-284.31"/>
</a>
</g>
</g>
<!-- Node4 -->
<g id="Node000004" class="node">
<title>Node4</title>
<g id="a_Node000004"><a xlink:title=" ">
<polygon fill="#e0e0e0" stroke="#999999" points="169.14,-211.5 119.14,-211.5 119.14,-192.5 169.14,-192.5 169.14,-211.5"/>
<text text-anchor="middle" x="144.14" y="-199.5" font-family="Helvetica,sans-Serif" font-size="10.00">chrono</text>
</a>
</g>
</g>
<!-- Node3&#45;&gt;Node4 -->
<g id="edge3_Node000003_Node000004" class="edge">
<title>Node3&#45;&gt;Node4</title>
<g id="a_edge3_Node000003_Node000004"><a xlink:title=" ">
<path fill="none" stroke="#63b8ff" d="M1108.35,-321.25C1022.13,-312.97 866.23,-297.7 733.14,-283 488.43,-255.97 422.74,-273.62 183.14,-217 180.48,-216.37 177.74,-215.62 175.02,-214.79"/>
<polygon fill="#63b8ff" stroke="#63b8ff" points="175.93,-211.41 165.34,-211.59 173.73,-218.05 175.93,-211.41"/>
</a>
</g>
</g>
<!-- Node5 -->
<g id="Node000005" class="node">
<title>Node5</title>
<g id="a_Node000005"><a xlink:href="../../d2/d84/select_8hpp.html" target="_top" xlink:title="Utilities for selection of platform specific values.">
<polygon fill="white" stroke="#666666" points="167.14,-145.5 15.14,-145.5 15.14,-126.5 167.14,-126.5 167.14,-145.5"/>
<text text-anchor="middle" x="91.14" y="-133.5" font-family="Helvetica,sans-Serif" font-size="10.00">userver/compiler/select.hpp</text>
</a>
</g>
</g>
<!-- Node3&#45;&gt;Node5 -->
<g id="edge4_Node000003_Node000005" class="edge">
<title>Node3&#45;&gt;Node5</title>
<g id="a_edge4_Node000003_Node000005"><a xlink:title=" ">
<path fill="none" stroke="#63b8ff" d="M1108.64,-327.96C971.9,-328.02 646.44,-323.44 377.14,-283 256.26,-264.85 196.18,-303.83 110.14,-217 94.24,-200.95 90.74,-174.18 90.38,-156.07"/>
<polygon fill="#63b8ff" stroke="#63b8ff" points="93.88,-155.89 90.49,-145.85 86.88,-155.81 93.88,-155.89"/>
</a>
</g>
</g>
<!-- Node7 -->
<g id="Node000007" class="node">
<title>Node7</title>
<g id="a_Node000007"><a xlink:href="../../db/dfb/universal_2include_2userver_2logging_2fwd_8hpp.html" target="_top" xlink:title="Forward declarations for logging types.">
<polygon fill="white" stroke="#666666" points="805.14,-145.5 671.14,-145.5 671.14,-126.5 805.14,-126.5 805.14,-145.5"/>
<text text-anchor="middle" x="738.14" y="-133.5" font-family="Helvetica,sans-Serif" font-size="10.00">userver/logging/fwd.hpp</text>
</a>
</g>
</g>
<!-- Node3&#45;&gt;Node7 -->
<g id="edge6_Node000003_Node000007" class="edge">
<title>Node3&#45;&gt;Node7</title>
<g id="a_edge6_Node000003_Node000007"><a xlink:title=" ">
<path fill="none" stroke="#63b8ff" d="M1108.3,-325.54C1022.48,-319.68 872.06,-297.64 776.14,-217 757.34,-201.19 747.21,-173.96 742.24,-155.72"/>
<polygon fill="#63b8ff" stroke="#63b8ff" points="745.63,-154.81 739.84,-145.94 738.83,-156.48 745.63,-154.81"/>
</a>
</g>
</g>
<!-- Node9 -->
<g id="Node000009" class="node">
<title>Node9</title>
<g id="a_Node000009"><a xlink:href="../../d5/d37/level_8hpp.html" target="_top" xlink:title="Log levels.">
<polygon fill="white" stroke="#666666" points="1663.14,-211.5 1523.14,-211.5 1523.14,-192.5 1663.14,-192.5 1663.14,-211.5"/>
<text text-anchor="middle" x="1593.14" y="-199.5" font-family="Helvetica,sans-Serif" font-size="10.00">userver/logging/level.hpp</text>
</a>
</g>
</g>
<!-- Node3&#45;&gt;Node9 -->
<g id="edge8_Node000003_Node000009" class="edge">
<title>Node3&#45;&gt;Node9</title>
<g id="a_edge8_Node000003_Node000009"><a xlink:title=" ">
<path fill="none" stroke="#63b8ff" d="M1202.94,-318.94C1276.51,-297.08 1471.4,-239.17 1554.61,-214.45"/>
<polygon fill="#63b8ff" stroke="#63b8ff" points="1555.83,-217.74 1564.42,-211.53 1553.84,-211.03 1555.83,-217.74"/>
</a>
</g>
</g>
<!-- Node13 -->
<g id="Node000013" class="node">
<title>Node13</title>
<g id="a_Node000013"><a xlink:href="../../d4/dc3/log__filepath_8hpp.html" target="_top" xlink:title="Short source path calculator.">
<polygon fill="white" stroke="#666666" points="1994.14,-151 1884.14,-151 1884.14,-121 1994.14,-121 1994.14,-151"/>
<text text-anchor="start" x="1892.14" y="-139" font-family="Helvetica,sans-Serif" font-size="10.00">userver/logging/log</text>
<text text-anchor="middle" x="1939.14" y="-128" font-family="Helvetica,sans-Serif" font-size="10.00">_filepath.hpp</text>
</a>
</g>
</g>
<!-- Node3&#45;&gt;Node13 -->
<g id="edge12_Node000003_Node000013" class="edge">
<title>Node3&#45;&gt;Node13</title>
<g id="a_edge12_Node000003_Node000013"><a xlink:title=" ">
<path fill="none" stroke="#63b8ff" d="M1239.76,-323.96C1394.69,-314.55 1778.23,-284.87 1885.14,-217 1906.13,-203.68 1920.92,-178.93 1929.66,-160.48"/>
<polygon fill="#63b8ff" stroke="#63b8ff" points="1932.9,-161.8 1933.78,-151.24 1926.51,-158.94 1932.9,-161.8"/>
</a>
</g>
</g>
<!-- Node15 -->
<g id="Node000015" class="node">
<title>Node15</title>
<g id="a_Node000015"><a xlink:href="../../db/d94/log__helper_8hpp.html" target="_top" xlink:title=" ">
<polygon fill="white" stroke="#666666" points="1229.14,-283 1119.14,-283 1119.14,-253 1229.14,-253 1229.14,-283"/>
<text text-anchor="start" x="1127.14" y="-271" font-family="Helvetica,sans-Serif" font-size="10.00">userver/logging/log</text>
<text text-anchor="middle" x="1174.14" y="-260" font-family="Helvetica,sans-Serif" font-size="10.00">_helper.hpp</text>
</a>
</g>
</g>
<!-- Node3&#45;&gt;Node15 -->
<g id="edge14_Node000003_Node000015" class="edge">
<title>Node3&#45;&gt;Node15</title>
<g id="a_edge14_Node000003_Node000015"><a xlink:title=" ">
<path fill="none" stroke="#63b8ff" d="M1174.14,-318.87C1174.14,-312.11 1174.14,-302.35 1174.14,-293.26"/>
<polygon fill="#63b8ff" stroke="#63b8ff" points="1177.64,-293.11 1174.14,-283.11 1170.64,-293.11 1177.64,-293.11"/>
</a>
</g>
</g>
<!-- Node6 -->
<g id="Node000006" class="node">
<title>Node6</title>
<g id="a_Node000006"><a xlink:title=" ">
<polygon fill="#e0e0e0" stroke="#999999" points="227.64,-79.5 174.64,-79.5 174.64,-60.5 227.64,-60.5 227.64,-79.5"/>
<text text-anchor="middle" x="201.14" y="-67.5" font-family="Helvetica,sans-Serif" font-size="10.00">cstddef</text>
</a>
</g>
</g>
<!-- Node5&#45;&gt;Node6 -->
<g id="edge5_Node000005_Node000006" class="edge">
<title>Node5&#45;&gt;Node6</title>
<g id="a_edge5_Node000005_Node000006"><a xlink:title=" ">
<path fill="none" stroke="#63b8ff" d="M105.98,-126.37C124.27,-115.73 155.58,-97.51 177.27,-84.89"/>
<polygon fill="#63b8ff" stroke="#63b8ff" points="179.31,-87.75 186.19,-79.7 175.79,-81.7 179.31,-87.75"/>
</a>
</g>
</g>
<!-- Node8 -->
<g id="Node000008" class="node">
<title>Node8</title>
<g id="a_Node000008"><a xlink:title=" ">
<polygon fill="#e0e0e0" stroke="#999999" points="815.14,-79.5 757.14,-79.5 757.14,-60.5 815.14,-60.5 815.14,-79.5"/>
<text text-anchor="middle" x="786.14" y="-67.5" font-family="Helvetica,sans-Serif" font-size="10.00">memory</text>
</a>
</g>
</g>
<!-- Node7&#45;&gt;Node8 -->
<g id="edge7_Node000007_Node000008" class="edge">
<title>Node7&#45;&gt;Node8</title>
<g id="a_edge7_Node000007_Node000008"><a xlink:title=" ">
<path fill="none" stroke="#63b8ff" d="M744.62,-126.37C751.95,-116.59 764.07,-100.42 773.34,-88.08"/>
<polygon fill="#63b8ff" stroke="#63b8ff" points="776.26,-90.01 779.46,-79.91 770.66,-85.81 776.26,-90.01"/>
</a>
</g>
</g>
<!-- Node10 -->
<g id="Node000010" class="node">
<title>Node10</title>
<g id="a_Node000010"><a xlink:title=" ">
<polygon fill="#e0e0e0" stroke="#999999" points="1790.14,-145.5 1740.14,-145.5 1740.14,-126.5 1790.14,-126.5 1790.14,-145.5"/>
<text text-anchor="middle" x="1765.14" y="-133.5" font-family="Helvetica,sans-Serif" font-size="10.00">cstdint</text>
</a>
</g>
</g>
<!-- Node9&#45;&gt;Node10 -->
<g id="edge9_Node000009_Node000010" class="edge">
<title>Node9&#45;&gt;Node10</title>
<g id="a_edge9_Node000009_Node000010"><a xlink:title=" ">
<path fill="none" stroke="#63b8ff" d="M1616.34,-192.37C1646.3,-181.22 1698.62,-161.75 1732.56,-149.12"/>
<polygon fill="#63b8ff" stroke="#63b8ff" points="1733.89,-152.36 1742.04,-145.6 1731.45,-145.8 1733.89,-152.36"/>
</a>
</g>
</g>
<!-- Node11 -->
<g id="Node000011" class="node">
<title>Node11</title>
<g id="a_Node000011"><a xlink:title=" ">
<polygon fill="#e0e0e0" stroke="#999999" points="1618.14,-145.5 1562.14,-145.5 1562.14,-126.5 1618.14,-126.5 1618.14,-145.5"/>
<text text-anchor="middle" x="1590.14" y="-133.5" font-family="Helvetica,sans-Serif" font-size="10.00">optional</text>
</a>
</g>
</g>
<!-- Node9&#45;&gt;Node11 -->
<g id="edge10_Node000009_Node000011" class="edge">
<title>Node9&#45;&gt;Node11</title>
<g id="a_edge10_Node000009_Node000011"><a xlink:title=" ">
<path fill="none" stroke="#63b8ff" d="M1592.74,-192.37C1592.3,-183.07 1591.59,-167.98 1591.03,-155.9"/>
<polygon fill="#63b8ff" stroke="#63b8ff" points="1594.52,-155.73 1590.56,-145.91 1587.53,-156.06 1594.52,-155.73"/>
</a>
</g>
</g>
<!-- Node12 -->
<g id="Node000012" class="node">
<title>Node12</title>
<g id="a_Node000012"><a xlink:title=" ">
<polygon fill="#e0e0e0" stroke="#999999" points="905.14,-145.5 861.14,-145.5 861.14,-126.5 905.14,-126.5 905.14,-145.5"/>
<text text-anchor="middle" x="883.14" y="-133.5" font-family="Helvetica,sans-Serif" font-size="10.00">string</text>
</a>
</g>
</g>
<!-- Node9&#45;&gt;Node12 -->
<g id="edge11_Node000009_Node000012" class="edge">
<title>Node9&#45;&gt;Node12</title>
<g id="a_edge11_Node000009_Node000012"><a xlink:title=" ">
<path fill="none" stroke="#63b8ff" d="M1522.89,-194.38C1496.07,-191.94 1465.2,-189.22 1437.14,-187 1204.88,-168.59 1140.1,-207.84 914.14,-151 912.41,-150.56 910.65,-150.04 908.9,-149.44"/>
<polygon fill="#63b8ff" stroke="#63b8ff" points="909.74,-146.01 899.16,-145.54 907.14,-152.51 909.74,-146.01"/>
</a>
</g>
</g>
<!-- Node14 -->
<g id="Node000014" class="node">
<title>Node14</title>
<g id="a_Node000014"><a xlink:title=" ">
<polygon fill="#e0e0e0" stroke="#999999" points="1947.64,-79.5 1874.64,-79.5 1874.64,-60.5 1947.64,-60.5 1947.64,-79.5"/>
<text text-anchor="middle" x="1911.14" y="-67.5" font-family="Helvetica,sans-Serif" font-size="10.00">string_view</text>
</a>
</g>
</g>
<!-- Node13&#45;&gt;Node14 -->
<g id="edge13_Node000013_Node000014" class="edge">
<title>Node13&#45;&gt;Node14</title>
<g id="a_edge13_Node000013_Node000014"><a xlink:title=" ">
<path fill="none" stroke="#63b8ff" d="M1932.93,-120.8C1928.86,-111.5 1923.51,-99.27 1919.13,-89.26"/>
<polygon fill="#63b8ff" stroke="#63b8ff" points="1922.23,-87.6 1915.01,-79.84 1915.81,-90.41 1922.23,-87.6"/>
</a>
</g>
</g>
<!-- Node15&#45;&gt;Node4 -->
<g id="edge15_Node000015_Node000004" class="edge">
<title>Node15&#45;&gt;Node4</title>
<g id="a_edge15_Node000015_Node000004"><a xlink:title=" ">
<path fill="none" stroke="#63b8ff" d="M1119.06,-266.35C938.29,-263.87 364.41,-253.28 183.14,-217 180.14,-216.4 177.05,-215.61 173.99,-214.71"/>
<polygon fill="#63b8ff" stroke="#63b8ff" points="175.06,-211.38 164.47,-211.57 172.87,-218.02 175.06,-211.38"/>
</a>
</g>
</g>
<!-- Node15&#45;&gt;Node7 -->
<g id="edge32_Node000015_Node000007" class="edge">
<title>Node15&#45;&gt;Node7</title>
<g id="a_edge32_Node000015_Node000007"><a xlink:title=" ">
<path fill="none" stroke="#63b8ff" d="M1118.93,-263.46C1032.72,-257.24 870.67,-242.5 819.14,-217 789.46,-202.31 763.93,-172.57 749.83,-153.78"/>
<polygon fill="#63b8ff" stroke="#63b8ff" points="752.57,-151.59 743.86,-145.55 746.9,-155.7 752.57,-151.59"/>
</a>
</g>
</g>
<!-- Node15&#45;&gt;Node8 -->
<g id="edge19_Node000015_Node000008" class="edge">
<title>Node15&#45;&gt;Node8</title>
<g id="a_edge19_Node000015_Node000008"><a xlink:title=" ">
<path fill="none" stroke="#63b8ff" d="M1119.04,-266.31C1063.76,-263.45 977.77,-252.9 913.14,-217 857.23,-185.94 814.23,-120.32 795.87,-88.73"/>
<polygon fill="#63b8ff" stroke="#63b8ff" points="798.76,-86.73 790.79,-79.76 792.67,-90.18 798.76,-86.73"/>
</a>
</g>
</g>
<!-- Node15&#45;&gt;Node9 -->
<g id="edge33_Node000015_Node000009" class="edge">
<title>Node15&#45;&gt;Node9</title>
<g id="a_edge33_Node000015_Node000009"><a xlink:title=" ">
<path fill="none" stroke="#63b8ff" d="M1229.32,-259.06C1295.75,-249.43 1410.69,-232.55 1509.14,-217 1516.84,-215.78 1524.94,-214.47 1532.93,-213.16"/>
<polygon fill="#63b8ff" stroke="#63b8ff" points="1533.68,-216.59 1542.97,-211.5 1532.54,-209.68 1533.68,-216.59"/>
</a>
</g>
</g>
<!-- Node15&#45;&gt;Node11 -->
<g id="edge20_Node000015_Node000011" class="edge">
<title>Node15&#45;&gt;Node11</title>
<g id="a_edge20_Node000015_Node000011"><a xlink:title=" ">
<path fill="none" stroke="#63b8ff" d="M1229.22,-264.95C1290.38,-261.04 1391.04,-249.74 1471.14,-217 1492.71,-208.18 1494.85,-200.07 1514.14,-187 1532.22,-174.75 1552.95,-161.14 1568.19,-151.22"/>
<polygon fill="#63b8ff" stroke="#63b8ff" points="1570.41,-153.95 1576.89,-145.56 1566.6,-148.08 1570.41,-153.95"/>
</a>
</g>
</g>
<!-- Node15&#45;&gt;Node14 -->
<g id="edge21_Node000015_Node000014" class="edge">
<title>Node15&#45;&gt;Node14</title>
<g id="a_edge21_Node000015_Node000014"><a xlink:title=" ">
<path fill="none" stroke="#63b8ff" d="M1229.32,-267.5C1343.16,-267.57 1599.53,-262.51 1672.14,-217 1714.58,-190.4 1691.13,-151.12 1731.14,-121 1770.15,-91.63 1825.53,-79.51 1864.53,-74.51"/>
<polygon fill="#63b8ff" stroke="#63b8ff" points="1865.05,-77.98 1874.57,-73.34 1864.23,-71.02 1865.05,-77.98"/>
</a>
</g>
</g>
<!-- Node16 -->
<g id="Node000016" class="node">
<title>Node16</title>
<g id="a_Node000016"><a xlink:title=" ">
<polygon fill="#e0e0e0" stroke="#999999" points="1145.64,-211.5 1080.64,-211.5 1080.64,-192.5 1145.64,-192.5 1145.64,-211.5"/>
<text text-anchor="middle" x="1113.14" y="-199.5" font-family="Helvetica,sans-Serif" font-size="10.00">exception</text>
</a>
</g>
</g>
<!-- Node15&#45;&gt;Node16 -->
<g id="edge16_Node000015_Node000016" class="edge">
<title>Node15&#45;&gt;Node16</title>
<g id="a_edge16_Node000015_Node000016"><a xlink:title=" ">
<path fill="none" stroke="#63b8ff" d="M1160.6,-252.8C1151.09,-242.82 1138.36,-229.46 1128.47,-219.09"/>
<polygon fill="#63b8ff" stroke="#63b8ff" points="1131,-216.67 1121.57,-211.84 1125.94,-221.5 1131,-216.67"/>
</a>
</g>
</g>
<!-- Node17 -->
<g id="Node000017" class="node">
<title>Node17</title>
<g id="a_Node000017"><a xlink:title=" ">
<polygon fill="#e0e0e0" stroke="#999999" points="1434.14,-145.5 1386.14,-145.5 1386.14,-126.5 1434.14,-126.5 1434.14,-145.5"/>
<text text-anchor="middle" x="1410.14" y="-133.5" font-family="Helvetica,sans-Serif" font-size="10.00">iosfwd</text>
</a>
</g>
</g>
<!-- Node15&#45;&gt;Node17 -->
<g id="edge17_Node000015_Node000017" class="edge">
<title>Node15&#45;&gt;Node17</title>
<g id="a_edge17_Node000015_Node000017"><a xlink:title=" ">
<path fill="none" stroke="#63b8ff" d="M1173.23,-252.93C1172.89,-234.98 1175.23,-204.21 1193.14,-187 1253.23,-129.27 1297.47,-175.4 1377.14,-151 1378.82,-150.49 1380.53,-149.92 1382.24,-149.31"/>
<polygon fill="#63b8ff" stroke="#63b8ff" points="1383.85,-152.44 1391.89,-145.54 1381.3,-145.92 1383.85,-152.44"/>
</a>
</g>
</g>
<!-- Node18 -->
<g id="Node000018" class="node">
<title>Node18</title>
<g id="a_Node000018"><a xlink:title=" ">
<polygon fill="#e0e0e0" stroke="#999999" points="1543.64,-145.5 1490.64,-145.5 1490.64,-126.5 1543.64,-126.5 1543.64,-145.5"/>
<text text-anchor="middle" x="1517.14" y="-133.5" font-family="Helvetica,sans-Serif" font-size="10.00">iterator</text>
</a>
</g>
</g>
<!-- Node15&#45;&gt;Node18 -->
<g id="edge18_Node000015_Node000018" class="edge">
<title>Node15&#45;&gt;Node18</title>
<g id="a_edge18_Node000015_Node000018"><a xlink:title=" ">
<path fill="none" stroke="#63b8ff" d="M1229.37,-265.87C1284.84,-262.65 1371.31,-251.83 1437.14,-217 1466.09,-201.69 1491.26,-172.39 1505.3,-153.82"/>
<polygon fill="#63b8ff" stroke="#63b8ff" points="1508.18,-155.8 1511.26,-145.67 1502.53,-151.67 1508.18,-155.8"/>
</a>
</g>
</g>
<!-- Node19 -->
<g id="Node000019" class="node">
<title>Node19</title>
<g id="a_Node000019"><a xlink:title=" ">
<polygon fill="#e0e0e0" stroke="#999999" points="1428.64,-211.5 1347.64,-211.5 1347.64,-192.5 1428.64,-192.5 1428.64,-211.5"/>
<text text-anchor="middle" x="1388.14" y="-199.5" font-family="Helvetica,sans-Serif" font-size="10.00">system_error</text>
</a>
</g>
</g>
<!-- Node15&#45;&gt;Node19 -->
<g id="edge22_Node000015_Node000019" class="edge">
<title>Node15&#45;&gt;Node19</title>
<g id="a_edge22_Node000015_Node000019"><a xlink:title=" ">
<path fill="none" stroke="#63b8ff" d="M1221.11,-252.95C1259.79,-241.38 1313.96,-225.18 1350,-214.41"/>
<polygon fill="#63b8ff" stroke="#63b8ff" points="1351.08,-217.74 1359.66,-211.52 1349.08,-211.03 1351.08,-217.74"/>
</a>
</g>
</g>
<!-- Node20 -->
<g id="Node000020" class="node">
<title>Node20</title>
<g id="a_Node000020"><a xlink:title=" ">
<polygon fill="#e0e0e0" stroke="#999999" points="1306.64,-19 1237.64,-19 1237.64,0 1306.64,0 1306.64,-19"/>
<text text-anchor="middle" x="1272.14" y="-7" font-family="Helvetica,sans-Serif" font-size="10.00">type_traits</text>
</a>
</g>
</g>
<!-- Node15&#45;&gt;Node20 -->
<g id="edge23_Node000015_Node000020" class="edge">
<title>Node15&#45;&gt;Node20</title>
<g id="a_edge23_Node000015_Node000020"><a xlink:title=" ">
<path fill="none" stroke="#63b8ff" d="M1118.99,-264.3C1001.14,-258.26 716.08,-242.15 478.14,-217 451.81,-214.22 23.52,-170.98 6.14,-151 -2.61,-140.94 -1.26,-132.09 6.14,-121 48.63,-57.37 90.42,-71.46 165.14,-55 372.68,-9.28 1046.73,-9.33 1227.3,-10.2"/>
<polygon fill="#63b8ff" stroke="#63b8ff" points="1227.48,-13.7 1237.49,-10.26 1227.51,-6.7 1227.48,-13.7"/>
</a>
</g>
</g>
<!-- Node21 -->
<g id="Node000021" class="node">
<title>Node21</title>
<g id="a_Node000021"><a xlink:href="../../da/d00/universal_2include_2userver_2formats_2common_2meta_8hpp.html" target="_top" xlink:title="Metaprogramming helpers for converters detection.">
<polygon fill="white" stroke="#666666" points="1062.14,-217 922.14,-217 922.14,-187 1062.14,-187 1062.14,-217"/>
<text text-anchor="start" x="930.14" y="-205" font-family="Helvetica,sans-Serif" font-size="10.00">userver/formats/common</text>
<text text-anchor="middle" x="992.14" y="-194" font-family="Helvetica,sans-Serif" font-size="10.00">/meta.hpp</text>
</a>
</g>
</g>
<!-- Node15&#45;&gt;Node21 -->
<g id="edge24_Node000015_Node000021" class="edge">
<title>Node15&#45;&gt;Node21</title>
<g id="a_edge24_Node000015_Node000021"><a xlink:title=" ">
<path fill="none" stroke="#63b8ff" d="M1134.2,-252.95C1106.94,-243.37 1070.63,-230.6 1041.55,-220.37"/>
<polygon fill="#63b8ff" stroke="#63b8ff" points="1042.58,-217.03 1031.99,-217.01 1040.26,-223.63 1042.58,-217.03"/>
</a>
</g>
</g>
<!-- Node26 -->
<g id="Node000026" class="node">
<title>Node26</title>
<g id="a_Node000026"><a xlink:href="../../d6/def/log__extra_8hpp.html" target="_top" xlink:title="Extra tskv fields storage.">
<polygon fill="white" stroke="#666666" points="597.14,-217 487.14,-217 487.14,-187 597.14,-187 597.14,-217"/>
<text text-anchor="start" x="495.14" y="-205" font-family="Helvetica,sans-Serif" font-size="10.00">userver/logging/log</text>
<text text-anchor="middle" x="542.14" y="-194" font-family="Helvetica,sans-Serif" font-size="10.00">_extra.hpp</text>
</a>
</g>
</g>
<!-- Node15&#45;&gt;Node26 -->
<g id="edge34_Node000015_Node000026" class="edge">
<title>Node15&#45;&gt;Node26</title>
<g id="a_edge34_Node000015_Node000026"><a xlink:title=" ">
<path fill="none" stroke="#63b8ff" d="M1118.89,-261.4C1002.46,-249.61 732.38,-222.26 607.56,-209.62"/>
<polygon fill="#63b8ff" stroke="#63b8ff" points="607.69,-206.12 597.38,-208.59 606.98,-213.08 607.69,-206.12"/>
</a>
</g>
</g>
<!-- Node33 -->
<g id="Node000033" class="node">
<title>Node33</title>
<g id="a_Node000033"><a xlink:href="../../df/dd4/source__location_8hpp_source.html" target="_top" xlink:title=" ">
<polygon fill="white" stroke="#666666" points="1876.64,-217 1759.64,-217 1759.64,-187 1876.64,-187 1876.64,-217"/>
<text text-anchor="start" x="1767.64" y="-205" font-family="Helvetica,sans-Serif" font-size="10.00">userver/utils/impl</text>
<text text-anchor="middle" x="1818.14" y="-194" font-family="Helvetica,sans-Serif" font-size="10.00">/source_location.hpp</text>
</a>
</g>
</g>
<!-- Node15&#45;&gt;Node33 -->
<g id="edge47_Node000015_Node000033" class="edge">
<title>Node15&#45;&gt;Node33</title>
<g id="a_edge47_Node000015_Node000033"><a xlink:title=" ">
<path fill="none" stroke="#63b8ff" d="M1229.27,-263.94C1331.11,-257.88 1555.49,-242.7 1743.14,-217 1745.19,-216.72 1747.27,-216.42 1749.37,-216.11"/>
<polygon fill="#63b8ff" stroke="#63b8ff" points="1749.94,-219.56 1759.27,-214.55 1748.85,-212.65 1749.94,-219.56"/>
</a>
</g>
</g>
<!-- Node34 -->
<g id="Node000034" class="node">
<title>Node34</title>
<g id="a_Node000034"><a xlink:href="../../d0/d03/universal_2include_2userver_2utils_2meta_8hpp.html" target="_top" xlink:title="Metaprogramming, template variables and concepts.">
<polygon fill="white" stroke="#666666" points="1329.64,-211.5 1202.64,-211.5 1202.64,-192.5 1329.64,-192.5 1329.64,-211.5"/>
<text text-anchor="middle" x="1266.14" y="-199.5" font-family="Helvetica,sans-Serif" font-size="10.00">userver/utils/meta.hpp</text>
</a>
</g>
</g>
<!-- Node15&#45;&gt;Node34 -->
<g id="edge52_Node000015_Node000034" class="edge">
<title>Node15&#45;&gt;Node34</title>
<g id="a_edge52_Node000015_Node000034"><a xlink:title=" ">
<path fill="none" stroke="#63b8ff" d="M1194.56,-252.8C1209.69,-242.27 1230.25,-227.97 1245.45,-217.4"/>
<polygon fill="#63b8ff" stroke="#63b8ff" points="1247.49,-220.24 1253.7,-211.66 1243.49,-214.5 1247.49,-220.24"/>
</a>
</g>
</g>
<!-- Node21&#45;&gt;Node20 -->
<g id="edge25_Node000021_Node000020" class="edge">
<title>Node21&#45;&gt;Node20</title>
<g id="a_edge25_Node000021_Node000020"><a xlink:title=" ">
<path fill="none" stroke="#63b8ff" d="M1062.2,-188.56C1122.76,-177.27 1202.38,-160.91 1214.14,-151 1251.71,-119.33 1265.31,-59.39 1269.94,-29.07"/>
<polygon fill="#63b8ff" stroke="#63b8ff" points="1273.42,-29.4 1271.3,-19.02 1266.49,-28.46 1273.42,-29.4"/>
</a>
</g>
</g>
<!-- Node22 -->
<g id="Node000022" class="node">
<title>Node22</title>
<g id="a_Node000022"><a xlink:href="../../d2/dc8/universal_2include_2userver_2formats_2parse_2to_8hpp.html" target="_top" xlink:title="Helper for parsers.">
<polygon fill="white" stroke="#666666" points="1048.64,-151 923.64,-151 923.64,-121 1048.64,-121 1048.64,-151"/>
<text text-anchor="start" x="931.64" y="-139" font-family="Helvetica,sans-Serif" font-size="10.00">userver/formats/parse</text>
<text text-anchor="middle" x="986.14" y="-128" font-family="Helvetica,sans-Serif" font-size="10.00">/to.hpp</text>
</a>
</g>
</g>
<!-- Node21&#45;&gt;Node22 -->
<g id="edge26_Node000021_Node000022" class="edge">
<title>Node21&#45;&gt;Node22</title>
<g id="a_edge26_Node000021_Node000022"><a xlink:title=" ">
<path fill="none" stroke="#63b8ff" d="M990.81,-186.8C990.1,-179.26 989.22,-169.78 988.4,-161.13"/>
<polygon fill="#63b8ff" stroke="#63b8ff" points="991.89,-160.79 987.47,-151.16 984.92,-161.45 991.89,-160.79"/>
</a>
</g>
</g>
<!-- Node23 -->
<g id="Node000023" class="node">
<title>Node23</title>
<g id="a_Node000023"><a xlink:href="../../d6/d8e/universal_2include_2userver_2formats_2serialize_2to_8hpp.html" target="_top" xlink:title="Helper for serializers.">
<polygon fill="white" stroke="#666666" points="1205.64,-151 1066.64,-151 1066.64,-121 1205.64,-121 1205.64,-151"/>
<text text-anchor="start" x="1074.64" y="-139" font-family="Helvetica,sans-Serif" font-size="10.00">userver/formats/serialize</text>
<text text-anchor="middle" x="1136.14" y="-128" font-family="Helvetica,sans-Serif" font-size="10.00">/to.hpp</text>
</a>
</g>
</g>
<!-- Node21&#45;&gt;Node23 -->
<g id="edge27_Node000021_Node000023" class="edge">
<title>Node21&#45;&gt;Node23</title>
<g id="a_edge27_Node000021_Node000023"><a xlink:title=" ">
<path fill="none" stroke="#63b8ff" d="M1023.74,-186.95C1044.75,-177.62 1072.54,-165.27 1095.24,-155.18"/>
<polygon fill="#63b8ff" stroke="#63b8ff" points="1096.9,-158.27 1104.61,-151.01 1094.05,-151.88 1096.9,-158.27"/>
</a>
</g>
</g>
<!-- Node24 -->
<g id="Node000024" class="node">
<title>Node24</title>
<g id="a_Node000024"><a xlink:href="../../d3/da0/meta__light_8hpp.html" target="_top" xlink:title="Lightweight concepts.">
<polygon fill="white" stroke="#666666" points="1368.14,-151 1262.14,-151 1262.14,-121 1368.14,-121 1368.14,-151"/>
<text text-anchor="start" x="1270.14" y="-139" font-family="Helvetica,sans-Serif" font-size="10.00">userver/utils/meta</text>
<text text-anchor="middle" x="1315.14" y="-128" font-family="Helvetica,sans-Serif" font-size="10.00">_light.hpp</text>
</a>
</g>
</g>
<!-- Node21&#45;&gt;Node24 -->
<g id="edge28_Node000021_Node000024" class="edge">
<title>Node21&#45;&gt;Node24</title>
<g id="a_edge28_Node000021_Node000024"><a xlink:title=" ">
<path fill="none" stroke="#63b8ff" d="M1062.27,-187.56C1113.75,-177.63 1185.34,-163.69 1248.14,-151 1249.42,-150.74 1250.71,-150.48 1252.01,-150.22"/>
<polygon fill="#63b8ff" stroke="#63b8ff" points="1253.03,-153.58 1262.13,-148.15 1251.63,-146.72 1253.03,-153.58"/>
</a>
</g>
</g>
<!-- Node24&#45;&gt;Node20 -->
<g id="edge29_Node000024_Node000020" class="edge">
<title>Node24&#45;&gt;Node20</title>
<g id="a_edge29_Node000024_Node000020"><a xlink:title=" ">
<path fill="none" stroke="#63b8ff" d="M1307.44,-120.88C1302.3,-111.04 1295.68,-97.49 1291.14,-85 1284.46,-66.61 1279.2,-44.84 1275.92,-29.6"/>
<polygon fill="#63b8ff" stroke="#63b8ff" points="1279.26,-28.47 1273.81,-19.39 1272.41,-29.89 1279.26,-28.47"/>
</a>
</g>
</g>
<!-- Node25 -->
<g id="Node000025" class="node">
<title>Node25</title>
<g id="a_Node000025"><a xlink:href="../../d9/dce/void__t_8hpp.html" target="_top" xlink:title="std::void_t implementation with workarounds for compiler bugs">
<polygon fill="white" stroke="#666666" points="1401.64,-85 1300.64,-85 1300.64,-55 1401.64,-55 1401.64,-85"/>
<text text-anchor="start" x="1308.64" y="-73" font-family="Helvetica,sans-Serif" font-size="10.00">userver/utils/void</text>
<text text-anchor="middle" x="1351.14" y="-62" font-family="Helvetica,sans-Serif" font-size="10.00">_t.hpp</text>
</a>
</g>
</g>
<!-- Node24&#45;&gt;Node25 -->
<g id="edge30_Node000024_Node000025" class="edge">
<title>Node24&#45;&gt;Node25</title>
<g id="a_edge30_Node000024_Node000025"><a xlink:title=" ">
<path fill="none" stroke="#63b8ff" d="M1323.13,-120.8C1327.56,-112.92 1333.17,-102.95 1338.21,-93.99"/>
<polygon fill="#63b8ff" stroke="#63b8ff" points="1341.32,-95.6 1343.17,-85.16 1335.22,-92.16 1341.32,-95.6"/>
</a>
</g>
</g>
<!-- Node25&#45;&gt;Node20 -->
<g id="edge31_Node000025_Node000020" class="edge">
<title>Node25&#45;&gt;Node20</title>
<g id="a_edge31_Node000025_Node000020"><a xlink:title=" ">
<path fill="none" stroke="#63b8ff" d="M1332.02,-54.84C1319.97,-45.91 1304.43,-34.41 1292.2,-25.35"/>
<polygon fill="#63b8ff" stroke="#63b8ff" points="1294.1,-22.4 1283.98,-19.27 1289.93,-28.03 1294.1,-22.4"/>
</a>
</g>
</g>
<!-- Node26&#45;&gt;Node5 -->
<g id="edge40_Node000026_Node000005" class="edge">
<title>Node26&#45;&gt;Node5</title>
<g id="a_edge40_Node000026_Node000005"><a xlink:title=" ">
<path fill="none" stroke="#63b8ff" d="M486.89,-193.93C415.17,-184.65 286.17,-167.57 176.14,-151 168.15,-149.8 159.75,-148.48 151.46,-147.14"/>
<polygon fill="#63b8ff" stroke="#63b8ff" points="151.88,-143.67 141.45,-145.52 150.76,-150.58 151.88,-143.67"/>
</a>
</g>
</g>
<!-- Node26&#45;&gt;Node7 -->
<g id="edge41_Node000026_Node000007" class="edge">
<title>Node26&#45;&gt;Node7</title>
<g id="a_edge41_Node000026_Node000007"><a xlink:title=" ">
<path fill="none" stroke="#63b8ff" d="M585.16,-186.95C620.29,-175.48 669.35,-159.46 702.36,-148.68"/>
<polygon fill="#63b8ff" stroke="#63b8ff" points="703.64,-151.95 712.06,-145.52 701.47,-145.29 703.64,-151.95"/>
</a>
</g>
</g>
<!-- Node26&#45;&gt;Node12 -->
<g id="edge36_Node000026_Node000012" class="edge">
<title>Node26&#45;&gt;Node12</title>
<g id="a_edge36_Node000026_Node000012"><a xlink:title=" ">
<path fill="none" stroke="#63b8ff" d="M597.16,-191.19C652.14,-181.32 739.07,-165.51 814.14,-151 826.18,-148.67 839.38,-146.02 850.97,-143.65"/>
<polygon fill="#63b8ff" stroke="#63b8ff" points="852.01,-147.02 861.1,-141.58 850.6,-140.16 852.01,-147.02"/>
</a>
</g>
</g>
<!-- Node27 -->
<g id="Node000027" class="node">
<title>Node27</title>
<g id="a_Node000027"><a xlink:title=" ">
<polygon fill="#e0e0e0" stroke="#999999" points="583.64,-145.5 500.64,-145.5 500.64,-126.5 583.64,-126.5 583.64,-145.5"/>
<text text-anchor="middle" x="542.14" y="-133.5" font-family="Helvetica,sans-Serif" font-size="10.00">initializer_list</text>
</a>
</g>
</g>
<!-- Node26&#45;&gt;Node27 -->
<g id="edge35_Node000026_Node000027" class="edge">
<title>Node26&#45;&gt;Node27</title>
<g id="a_edge35_Node000026_Node000027"><a xlink:title=" ">
<path fill="none" stroke="#63b8ff" d="M542.14,-186.8C542.14,-177.7 542.14,-165.79 542.14,-155.9"/>
<polygon fill="#63b8ff" stroke="#63b8ff" points="545.64,-155.84 542.14,-145.84 538.64,-155.84 545.64,-155.84"/>
</a>
</g>
</g>
<!-- Node28 -->
<g id="Node000028" class="node">
<title>Node28</title>
<g id="a_Node000028"><a xlink:title=" ">
<polygon fill="#e0e0e0" stroke="#999999" points="494.64,-79.5 449.64,-79.5 449.64,-60.5 494.64,-60.5 494.64,-79.5"/>
<text text-anchor="middle" x="472.14" y="-67.5" font-family="Helvetica,sans-Serif" font-size="10.00">utility</text>
</a>
</g>
</g>
<!-- Node26&#45;&gt;Node28 -->
<g id="edge37_Node000026_Node000028" class="edge">
<title>Node26&#45;&gt;Node28</title>
<g id="a_edge37_Node000026_Node000028"><a xlink:title=" ">
<path fill="none" stroke="#63b8ff" d="M523.25,-186.99C512.3,-177.9 499.13,-165.14 491.14,-151 480.3,-131.81 475.63,-106.68 473.62,-89.74"/>
<polygon fill="#63b8ff" stroke="#63b8ff" points="477.08,-89.11 472.62,-79.5 470.11,-89.8 477.08,-89.11"/>
</a>
</g>
</g>
<!-- Node29 -->
<g id="Node000029" class="node">
<title>Node29</title>
<g id="a_Node000029"><a xlink:title=" ">
<polygon fill="#e0e0e0" stroke="#999999" points="652.64,-145.5 601.64,-145.5 601.64,-126.5 652.64,-126.5 652.64,-145.5"/>
<text text-anchor="middle" x="627.14" y="-133.5" font-family="Helvetica,sans-Serif" font-size="10.00">variant</text>
</a>
</g>
</g>
<!-- Node26&#45;&gt;Node29 -->
<g id="edge38_Node000026_Node000029" class="edge">
<title>Node26&#45;&gt;Node29</title>
<g id="a_edge38_Node000026_Node000029"><a xlink:title=" ">
<path fill="none" stroke="#63b8ff" d="M561.01,-186.8C574.78,-176.43 593.4,-162.4 607.38,-151.88"/>
<polygon fill="#63b8ff" stroke="#63b8ff" points="609.51,-154.66 615.4,-145.84 605.3,-149.06 609.51,-154.66"/>
</a>
</g>
</g>
<!-- Node30 -->
<g id="Node000030" class="node">
<title>Node30</title>
<g id="a_Node000030"><a xlink:title=" ">
<polygon fill="#e0e0e0" stroke="#999999" points="326.64,-151 185.64,-151 185.64,-121 326.64,-121 326.64,-151"/>
<text text-anchor="start" x="193.64" y="-139" font-family="Helvetica,sans-Serif" font-size="10.00">boost/container/container</text>
<text text-anchor="middle" x="256.14" y="-128" font-family="Helvetica,sans-Serif" font-size="10.00">_fwd.hpp</text>
</a>
</g>
</g>
<!-- Node26&#45;&gt;Node30 -->
<g id="edge39_Node000026_Node000030" class="edge">
<title>Node26&#45;&gt;Node30</title>
<g id="a_edge39_Node000026_Node000030"><a xlink:title=" ">
<path fill="none" stroke="#63b8ff" d="M487,-188.66C441.97,-178.58 377.97,-164.26 328.78,-153.25"/>
<polygon fill="#63b8ff" stroke="#63b8ff" points="329.35,-149.8 318.83,-151.03 327.82,-156.63 329.35,-149.8"/>
</a>
</g>
</g>
<!-- Node31 -->
<g id="Node000031" class="node">
<title>Node31</title>
<g id="a_Node000031"><a xlink:href="../../d5/d02/fast__pimpl_8hpp.html" target="_top" xlink:title="Implements pimpl idiom without dynamic memory allocation.">
<polygon fill="white" stroke="#666666" points="443.64,-151 344.64,-151 344.64,-121 443.64,-121 443.64,-151"/>
<text text-anchor="start" x="352.64" y="-139" font-family="Helvetica,sans-Serif" font-size="10.00">userver/utils/fast</text>
<text text-anchor="middle" x="394.14" y="-128" font-family="Helvetica,sans-Serif" font-size="10.00">_pimpl.hpp</text>
</a>
</g>
</g>
<!-- Node26&#45;&gt;Node31 -->
<g id="edge42_Node000026_Node000031" class="edge">
<title>Node26&#45;&gt;Node31</title>
<g id="a_edge42_Node000026_Node000031"><a xlink:title=" ">
<path fill="none" stroke="#63b8ff" d="M509.66,-186.95C487.97,-177.58 459.25,-165.16 435.87,-155.05"/>
<polygon fill="#63b8ff" stroke="#63b8ff" points="437.11,-151.77 426.55,-151.01 434.33,-158.19 437.11,-151.77"/>
</a>
</g>
</g>
<!-- Node31&#45;&gt;Node6 -->
<g id="edge43_Node000031_Node000006" class="edge">
<title>Node31&#45;&gt;Node6</title>
<g id="a_edge43_Node000031_Node000006"><a xlink:title=" ">
<path fill="none" stroke="#63b8ff" d="M351.79,-120.95C317.19,-109.48 268.88,-93.46 236.37,-82.68"/>
<polygon fill="#63b8ff" stroke="#63b8ff" points="237.42,-79.34 226.83,-79.52 235.22,-85.99 237.42,-79.34"/>
</a>
</g>
</g>
<!-- Node31&#45;&gt;Node20 -->
<g id="edge45_Node000031_Node000020" class="edge">
<title>Node31&#45;&gt;Node20</title>
<g id="a_edge45_Node000031_Node000020"><a xlink:title=" ">
<path fill="none" stroke="#63b8ff" d="M397.77,-120.77C403.39,-102.04 416.12,-69.77 440.14,-55 507.33,-13.7 1063.85,-10.47 1227.22,-10.42"/>
<polygon fill="#63b8ff" stroke="#63b8ff" points="1227.41,-13.92 1237.41,-10.42 1227.41,-6.92 1227.41,-13.92"/>
</a>
</g>
</g>
<!-- Node31&#45;&gt;Node28 -->
<g id="edge46_Node000031_Node000028" class="edge">
<title>Node31&#45;&gt;Node28</title>
<g id="a_edge46_Node000031_Node000028"><a xlink:title=" ">
<path fill="none" stroke="#63b8ff" d="M411.45,-120.8C423.85,-110.62 440.54,-96.93 453.28,-86.48"/>
<polygon fill="#63b8ff" stroke="#63b8ff" points="455.85,-88.89 461.36,-79.84 451.41,-83.48 455.85,-88.89"/>
</a>
</g>
</g>
<!-- Node32 -->
<g id="Node000032" class="node">
<title>Node32</title>
<g id="a_Node000032"><a xlink:title=" ">
<polygon fill="#e0e0e0" stroke="#999999" points="392.64,-79.5 355.64,-79.5 355.64,-60.5 392.64,-60.5 392.64,-79.5"/>
<text text-anchor="middle" x="374.14" y="-67.5" font-family="Helvetica,sans-Serif" font-size="10.00">new</text>
</a>
</g>
</g>
<!-- Node31&#45;&gt;Node32 -->
<g id="edge44_Node000031_Node000032" class="edge">
<title>Node31&#45;&gt;Node32</title>
<g id="a_edge44_Node000031_Node000032"><a xlink:title=" ">
<path fill="none" stroke="#63b8ff" d="M389.7,-120.8C386.83,-111.6 383.06,-99.53 379.95,-89.58"/>
<polygon fill="#63b8ff" stroke="#63b8ff" points="383.23,-88.35 376.91,-79.84 376.55,-90.43 383.23,-88.35"/>
</a>
</g>
</g>
<!-- Node33&#45;&gt;Node10 -->
<g id="edge48_Node000033_Node000010" class="edge">
<title>Node33&#45;&gt;Node10</title>
<g id="a_edge48_Node000033_Node000010"><a xlink:title=" ">
<path fill="none" stroke="#63b8ff" d="M1806.38,-186.8C1798.28,-177.01 1787.48,-163.98 1778.97,-153.7"/>
<polygon fill="#63b8ff" stroke="#63b8ff" points="1781.54,-151.31 1772.47,-145.84 1776.15,-155.78 1781.54,-151.31"/>
</a>
</g>
</g>
<!-- Node33&#45;&gt;Node13 -->
<g id="edge51_Node000033_Node000013" class="edge">
<title>Node33&#45;&gt;Node13</title>
<g id="a_edge51_Node000033_Node000013"><a xlink:title=" ">
<path fill="none" stroke="#63b8ff" d="M1844.7,-186.95C1862.03,-177.78 1884.87,-165.71 1903.74,-155.72"/>
<polygon fill="#63b8ff" stroke="#63b8ff" points="1905.45,-158.78 1912.65,-151.01 1902.17,-152.59 1905.45,-158.78"/>
</a>
</g>
</g>
<!-- Node33&#45;&gt;Node14 -->
<g id="edge49_Node000033_Node000014" class="edge">
<title>Node33&#45;&gt;Node14</title>
<g id="a_edge49_Node000033_Node000014"><a xlink:title=" ">
<path fill="none" stroke="#63b8ff" d="M1828.21,-186.82C1839.58,-170.82 1858.66,-144.01 1875.14,-121 1882.98,-110.06 1891.81,-97.8 1898.76,-88.16"/>
<polygon fill="#63b8ff" stroke="#63b8ff" points="1901.74,-90 1904.76,-79.84 1896.07,-85.9 1901.74,-90"/>
</a>
</g>
</g>
<!-- Node33&#45;&gt;Node20 -->
<g id="edge50_Node000033_Node000020" class="edge">
<title>Node33&#45;&gt;Node20</title>
<g id="a_edge50_Node000033_Node000020"><a xlink:title=" ">
<path fill="none" stroke="#63b8ff" d="M1819.02,-186.97C1819.32,-169.06 1816.94,-138.33 1799.14,-121 1730.22,-53.88 1431.46,-23.26 1317,-13.84"/>
<polygon fill="#63b8ff" stroke="#63b8ff" points="1317.08,-10.33 1306.83,-13.01 1316.51,-17.31 1317.08,-10.33"/>
</a>
</g>
</g>
<!-- Node34&#45;&gt;Node2 -->
<g id="edge57_Node000034_Node000002" class="edge">
<title>Node34&#45;&gt;Node2</title>
<g id="a_edge57_Node000034_Node000002"><a xlink:title=" ">
<path fill="none" stroke="#63b8ff" d="M1307.56,-192.45C1317.55,-190.52 1328.21,-188.58 1338.14,-187 1465.97,-166.64 1502.14,-184.6 1627.14,-151 1629.04,-150.49 1630.96,-149.9 1632.89,-149.24"/>
<polygon fill="#63b8ff" stroke="#63b8ff" points="1634.22,-152.48 1642.31,-145.63 1631.72,-145.94 1634.22,-152.48"/>
</a>
</g>
</g>
<!-- Node34&#45;&gt;Node11 -->
<g id="edge55_Node000034_Node000011" class="edge">
<title>Node34&#45;&gt;Node11</title>
<g id="a_edge55_Node000034_Node000011"><a xlink:title=" ">
<path fill="none" stroke="#63b8ff" d="M1309.13,-192.46C1318.67,-190.61 1328.74,-188.7 1338.14,-187 1433.04,-169.79 1458.93,-175.78 1552.14,-151 1554.58,-150.35 1557.08,-149.61 1559.58,-148.81"/>
<polygon fill="#63b8ff" stroke="#63b8ff" points="1560.74,-152.12 1569.06,-145.56 1558.47,-145.5 1560.74,-152.12"/>
</a>
</g>
</g>
<!-- Node34&#45;&gt;Node17 -->
<g id="edge53_Node000034_Node000017" class="edge">
<title>Node34&#45;&gt;Node17</title>
<g id="a_edge53_Node000034_Node000017"><a xlink:title=" ">
<path fill="none" stroke="#63b8ff" d="M1285.56,-192.37C1310.15,-181.44 1352.72,-162.52 1381.15,-149.88"/>
<polygon fill="#63b8ff" stroke="#63b8ff" points="1382.85,-152.96 1390.57,-145.7 1380.01,-146.56 1382.85,-152.96"/>
</a>
</g>
</g>
<!-- Node34&#45;&gt;Node18 -->
<g id="edge54_Node000034_Node000018" class="edge">
<title>Node34&#45;&gt;Node18</title>
<g id="a_edge54_Node000034_Node000018"><a xlink:title=" ">
<path fill="none" stroke="#63b8ff" d="M1307.09,-192.46C1349.64,-183.31 1418,-167.81 1476.14,-151 1478.61,-150.29 1481.14,-149.52 1483.69,-148.71"/>
<polygon fill="#63b8ff" stroke="#63b8ff" points="1485,-151.97 1493.42,-145.53 1482.82,-145.31 1485,-151.97"/>
</a>
</g>
</g>
<!-- Node34&#45;&gt;Node20 -->
<g id="edge56_Node000034_Node000020" class="edge">
<title>Node34&#45;&gt;Node20</title>
<g id="a_edge56_Node000034_Node000020"><a xlink:title=" ">
<path fill="none" stroke="#63b8ff" d="M1305.56,-192.5C1355.1,-181.41 1434.71,-162.14 1443.14,-151 1465.9,-120.93 1416.15,-60.16 1410.14,-55 1383.92,-32.48 1346.12,-21.32 1316.72,-15.81"/>
<polygon fill="#63b8ff" stroke="#63b8ff" points="1317.15,-12.33 1306.7,-14.08 1315.96,-19.23 1317.15,-12.33"/>
</a>
</g>
</g>
<!-- Node34&#45;&gt;Node24 -->
<g id="edge58_Node000034_Node000024" class="edge">
<title>Node34&#45;&gt;Node24</title>
<g id="a_edge58_Node000034_Node000024"><a xlink:title=" ">
<path fill="none" stroke="#63b8ff" d="M1272.75,-192.37C1279.16,-183.99 1289.17,-170.93 1297.85,-159.59"/>
<polygon fill="#63b8ff" stroke="#63b8ff" points="1300.85,-161.43 1304.15,-151.36 1295.29,-157.17 1300.85,-161.43"/>
</a>
</g>
</g>
<!-- Node35&#45;&gt;Node14 -->
<g id="edge60_Node000035_Node000014" class="edge">
<title>Node35&#45;&gt;Node14</title>
<g id="a_edge60_Node000035_Node000014"><a xlink:title=" ">
<path fill="none" stroke="#63b8ff" d="M2018.01,-258.19C2022.62,-233.98 2032.19,-165.25 2003.14,-121 1991.33,-103.01 1970.78,-90.97 1952.09,-83.22"/>
<polygon fill="#63b8ff" stroke="#63b8ff" points="1953.13,-79.87 1942.54,-79.55 1950.62,-86.4 1953.13,-79.87"/>
</a>
</g>
</g>
</g>
</svg>
