<?xml version="1.0" encoding="UTF-8" standalone="no"?>
<!DOCTYPE svg PUBLIC "-//W3C//DTD SVG 1.1//EN"
 "http://www.w3.org/Graphics/SVG/1.1/DTD/svg11.dtd">
<!-- Generated by graphviz version 2.43.0 (0)
 -->
<!-- Title: userver/formats/yaml/serialize.hpp Pages: 1 -->
<svg width="1990pt" height="423pt"
 viewBox="0.00 0.00 1989.50 423.00" xmlns="http://www.w3.org/2000/svg" xmlns:xlink="http://www.w3.org/1999/xlink">
<g id="graph0" class="graph" transform="scale(1 1) rotate(0) translate(4 419)">
<title>userver/formats/yaml/serialize.hpp</title>
<!-- Node1 -->
<g id="Node000001" class="node">
<title>Node1</title>
<g id="a_Node000001"><a xlink:title="Parsers and serializers to/from string and stream.">
<polygon fill="#999999" stroke="#666666" points="841.5,-415 719.5,-415 719.5,-385 841.5,-385 841.5,-415"/>
<text text-anchor="start" x="727.5" y="-403" font-family="Helvetica,sans-Serif" font-size="10.00">userver/formats/yaml</text>
<text text-anchor="middle" x="780.5" y="-392" font-family="Helvetica,sans-Serif" font-size="10.00">/serialize.hpp</text>
</a>
</g>
</g>
<!-- Node2 -->
<g id="Node000002" class="node">
<title>Node2</title>
<g id="a_Node000002"><a xlink:title=" ">
<polygon fill="#e0e0e0" stroke="#999999" points="511.5,-145.5 463.5,-145.5 463.5,-126.5 511.5,-126.5 511.5,-145.5"/>
<text text-anchor="middle" x="487.5" y="-133.5" font-family="Helvetica,sans-Serif" font-size="10.00">iosfwd</text>
</a>
</g>
</g>
<!-- Node1&#45;&gt;Node2 -->
<g id="edge1_Node000001_Node000002" class="edge">
<title>Node1&#45;&gt;Node2</title>
<g id="a_edge1_Node000001_Node000002"><a xlink:title=" ">
<path fill="none" stroke="#63b8ff" d="M719.23,-397.53C610.02,-391.21 383.76,-360.49 283.5,-217 213.62,-117 288.52,-203.14 454.5,-151 456.13,-150.49 457.8,-149.92 459.46,-149.32"/>
<polygon fill="#63b8ff" stroke="#63b8ff" points="460.85,-152.54 468.89,-145.64 458.3,-146.02 460.85,-152.54"/>
</a>
</g>
</g>
<!-- Node3 -->
<g id="Node000003" class="node">
<title>Node3</title>
<g id="a_Node000003"><a xlink:href="../../d6/d64/universal_2include_2userver_2formats_2yaml_2value_8hpp.html" target="_top" xlink:title="Non&#45;mutable YAML value representation.">
<polygon fill="white" stroke="#666666" points="1423.5,-349 1301.5,-349 1301.5,-319 1423.5,-319 1423.5,-349"/>
<text text-anchor="start" x="1309.5" y="-337" font-family="Helvetica,sans-Serif" font-size="10.00">userver/formats/yaml</text>
<text text-anchor="middle" x="1362.5" y="-326" font-family="Helvetica,sans-Serif" font-size="10.00">/value.hpp</text>
</a>
</g>
</g>
<!-- Node1&#45;&gt;Node3 -->
<g id="edge2_Node000001_Node000003" class="edge">
<title>Node1&#45;&gt;Node3</title>
<g id="a_edge2_Node000001_Node000003"><a xlink:title=" ">
<path fill="none" stroke="#63b8ff" d="M841.68,-392.27C950.19,-380.34 1175.72,-355.54 1291.12,-342.85"/>
<polygon fill="#63b8ff" stroke="#63b8ff" points="1291.7,-346.31 1301.26,-341.73 1290.94,-339.35 1291.7,-346.31"/>
</a>
</g>
</g>
<!-- Node4 -->
<g id="Node000004" class="node">
<title>Node4</title>
<g id="a_Node000004"><a xlink:title=" ">
<polygon fill="#e0e0e0" stroke="#999999" points="1274,-19 1205,-19 1205,0 1274,0 1274,-19"/>
<text text-anchor="middle" x="1239.5" y="-7" font-family="Helvetica,sans-Serif" font-size="10.00">type_traits</text>
</a>
</g>
</g>
<!-- Node3&#45;&gt;Node4 -->
<g id="edge3_Node000003_Node000004" class="edge">
<title>Node3&#45;&gt;Node4</title>
<g id="a_edge3_Node000003_Node000004"><a xlink:title=" ">
<path fill="none" stroke="#63b8ff" d="M1423.55,-333.01C1579.71,-331.4 1981.5,-316.24 1981.5,-203 1981.5,-203 1981.5,-203 1981.5,-135 1981.5,-66.02 1914.25,-75.86 1848.5,-55 1743.32,-21.63 1406.47,-13.1 1284.3,-11.08"/>
<polygon fill="#63b8ff" stroke="#63b8ff" points="1284.23,-7.58 1274.17,-10.92 1284.12,-14.58 1284.23,-7.58"/>
</a>
</g>
</g>
<!-- Node5 -->
<g id="Node000005" class="node">
<title>Node5</title>
<g id="a_Node000005"><a xlink:href="../../dd/d14/items_8hpp.html" target="_top" xlink:title="Wrapper for handy python&#45;like iteration over a map.">
<polygon fill="white" stroke="#666666" points="1642.5,-217 1502.5,-217 1502.5,-187 1642.5,-187 1642.5,-217"/>
<text text-anchor="start" x="1510.5" y="-205" font-family="Helvetica,sans-Serif" font-size="10.00">userver/formats/common</text>
<text text-anchor="middle" x="1572.5" y="-194" font-family="Helvetica,sans-Serif" font-size="10.00">/items.hpp</text>
</a>
</g>
</g>
<!-- Node3&#45;&gt;Node5 -->
<g id="edge4_Node000003_Node000005" class="edge">
<title>Node3&#45;&gt;Node5</title>
<g id="a_edge4_Node000003_Node000005"><a xlink:title=" ">
<path fill="none" stroke="#63b8ff" d="M1387.52,-318.86C1404.78,-309.01 1428.18,-295.45 1448.5,-283 1480.99,-263.09 1517.58,-239.31 1542.55,-222.88"/>
<polygon fill="#63b8ff" stroke="#63b8ff" points="1544.77,-225.61 1551.19,-217.18 1540.91,-219.76 1544.77,-225.61"/>
</a>
</g>
</g>
<!-- Node9 -->
<g id="Node000009" class="node">
<title>Node9</title>
<g id="a_Node000009"><a xlink:href="../../da/d00/universal_2include_2userver_2formats_2common_2meta_8hpp.html" target="_top" xlink:title="Metaprogramming helpers for converters detection.">
<polygon fill="white" stroke="#666666" points="198.5,-217 58.5,-217 58.5,-187 198.5,-187 198.5,-217"/>
<text text-anchor="start" x="66.5" y="-205" font-family="Helvetica,sans-Serif" font-size="10.00">userver/formats/common</text>
<text text-anchor="middle" x="128.5" y="-194" font-family="Helvetica,sans-Serif" font-size="10.00">/meta.hpp</text>
</a>
</g>
</g>
<!-- Node3&#45;&gt;Node9 -->
<g id="edge9_Node000003_Node000009" class="edge">
<title>Node3&#45;&gt;Node9</title>
<g id="a_edge9_Node000003_Node000009"><a xlink:title=" ">
<path fill="none" stroke="#63b8ff" d="M1301.15,-330.92C1173.05,-326.13 867.89,-312.4 613.5,-283 470.21,-266.44 304.72,-236.87 208.8,-218.7"/>
<polygon fill="#63b8ff" stroke="#63b8ff" points="209.36,-215.24 198.88,-216.81 208.05,-222.12 209.36,-215.24"/>
</a>
</g>
</g>
<!-- Node14 -->
<g id="Node000014" class="node">
<title>Node14</title>
<g id="a_Node000014"><a xlink:href="../../d1/deb/universal_2include_2userver_2formats_2parse_2common_8hpp.html" target="_top" xlink:title="Parsers and converters for std::chrono::seconds, std::chrono::system_clock::time_point and integral t...">
<polygon fill="white" stroke="#666666" points="747,-283 622,-283 622,-253 747,-253 747,-283"/>
<text text-anchor="start" x="630" y="-271" font-family="Helvetica,sans-Serif" font-size="10.00">userver/formats/parse</text>
<text text-anchor="middle" x="684.5" y="-260" font-family="Helvetica,sans-Serif" font-size="10.00">/common.hpp</text>
</a>
</g>
</g>
<!-- Node3&#45;&gt;Node14 -->
<g id="edge17_Node000003_Node000014" class="edge">
<title>Node3&#45;&gt;Node14</title>
<g id="a_edge17_Node000003_Node000014"><a xlink:title=" ">
<path fill="none" stroke="#63b8ff" d="M1301.44,-327.24C1176.45,-315.44 891.92,-288.58 757.46,-275.89"/>
<polygon fill="#63b8ff" stroke="#63b8ff" points="757.55,-272.38 747.27,-274.92 756.89,-279.35 757.55,-272.38"/>
</a>
</g>
</g>
<!-- Node27 -->
<g id="Node000027" class="node">
<title>Node27</title>
<g id="a_Node000027"><a xlink:href="../../d6/db5/universal_2include_2userver_2formats_2yaml_2exception_8hpp.html" target="_top" xlink:title="Exception classes for YAML module.">
<polygon fill="white" stroke="#666666" points="1283.5,-283 1161.5,-283 1161.5,-253 1283.5,-253 1283.5,-283"/>
<text text-anchor="start" x="1169.5" y="-271" font-family="Helvetica,sans-Serif" font-size="10.00">userver/formats/yaml</text>
<text text-anchor="middle" x="1222.5" y="-260" font-family="Helvetica,sans-Serif" font-size="10.00">/exception.hpp</text>
</a>
</g>
</g>
<!-- Node3&#45;&gt;Node27 -->
<g id="edge44_Node000003_Node000027" class="edge">
<title>Node3&#45;&gt;Node27</title>
<g id="a_edge44_Node000003_Node000027"><a xlink:title=" ">
<path fill="none" stroke="#63b8ff" d="M1331.78,-318.95C1311.35,-309.62 1284.33,-297.27 1262.27,-287.18"/>
<polygon fill="#63b8ff" stroke="#63b8ff" points="1263.7,-283.99 1253.15,-283.01 1260.79,-290.35 1263.7,-283.99"/>
</a>
</g>
</g>
<!-- Node28 -->
<g id="Node000028" class="node">
<title>Node28</title>
<g id="a_Node000028"><a xlink:href="../../d5/dda/universal_2include_2userver_2formats_2yaml_2types_8hpp.html" target="_top" xlink:title="Forward declarations of the internal YAML types.">
<polygon fill="white" stroke="#666666" points="1484.5,-217 1362.5,-217 1362.5,-187 1484.5,-187 1484.5,-217"/>
<text text-anchor="start" x="1370.5" y="-205" font-family="Helvetica,sans-Serif" font-size="10.00">userver/formats/yaml</text>
<text text-anchor="middle" x="1423.5" y="-194" font-family="Helvetica,sans-Serif" font-size="10.00">/types.hpp</text>
</a>
</g>
</g>
<!-- Node3&#45;&gt;Node28 -->
<g id="edge65_Node000003_Node000028" class="edge">
<title>Node3&#45;&gt;Node28</title>
<g id="a_edge65_Node000003_Node000028"><a xlink:title=" ">
<path fill="none" stroke="#63b8ff" d="M1394.2,-318.94C1408.67,-310.72 1424.37,-298.8 1432.5,-283 1441.45,-265.61 1437.92,-243.32 1432.89,-226.69"/>
<polygon fill="#63b8ff" stroke="#63b8ff" points="1436.18,-225.51 1429.66,-217.16 1429.55,-227.76 1436.18,-225.51"/>
</a>
</g>
</g>
<!-- Node32 -->
<g id="Node000032" class="node">
<title>Node32</title>
<g id="a_Node000032"><a xlink:href="../../d7/dbc/universal_2include_2userver_2formats_2yaml_2iterator_8hpp.html" target="_top" xlink:title="Iterator for formats::yaml::Value">
<polygon fill="white" stroke="#666666" points="1423.5,-283 1301.5,-283 1301.5,-253 1423.5,-253 1423.5,-283"/>
<text text-anchor="start" x="1309.5" y="-271" font-family="Helvetica,sans-Serif" font-size="10.00">userver/formats/yaml</text>
<text text-anchor="middle" x="1362.5" y="-260" font-family="Helvetica,sans-Serif" font-size="10.00">/iterator.hpp</text>
</a>
</g>
</g>
<!-- Node3&#45;&gt;Node32 -->
<g id="edge55_Node000003_Node000032" class="edge">
<title>Node3&#45;&gt;Node32</title>
<g id="a_edge55_Node000003_Node000032"><a xlink:title=" ">
<path fill="none" stroke="#63b8ff" d="M1362.5,-318.8C1362.5,-311.34 1362.5,-301.99 1362.5,-293.41"/>
<polygon fill="#63b8ff" stroke="#63b8ff" points="1366,-293.16 1362.5,-283.16 1359,-293.16 1366,-293.16"/>
</a>
</g>
</g>
<!-- Node33 -->
<g id="Node000033" class="node">
<title>Node33</title>
<g id="a_Node000033"><a xlink:href="../../d5/d02/fast__pimpl_8hpp.html" target="_top" xlink:title="Implements pimpl idiom without dynamic memory allocation.">
<polygon fill="white" stroke="#666666" points="1851,-217 1752,-217 1752,-187 1851,-187 1851,-217"/>
<text text-anchor="start" x="1760" y="-205" font-family="Helvetica,sans-Serif" font-size="10.00">userver/utils/fast</text>
<text text-anchor="middle" x="1801.5" y="-194" font-family="Helvetica,sans-Serif" font-size="10.00">_pimpl.hpp</text>
</a>
</g>
</g>
<!-- Node3&#45;&gt;Node33 -->
<g id="edge66_Node000003_Node000033" class="edge">
<title>Node3&#45;&gt;Node33</title>
<g id="a_edge66_Node000003_Node000033"><a xlink:title=" ">
<path fill="none" stroke="#63b8ff" d="M1409.9,-318.96C1491.13,-294.91 1656.63,-245.9 1744.2,-219.97"/>
<polygon fill="#63b8ff" stroke="#63b8ff" points="1745.37,-223.27 1753.97,-217.08 1743.39,-216.56 1745.37,-223.27"/>
</a>
</g>
</g>
<!-- Node5&#45;&gt;Node4 -->
<g id="edge8_Node000005_Node000004" class="edge">
<title>Node5&#45;&gt;Node4</title>
<g id="a_edge8_Node000005_Node000004"><a xlink:title=" ">
<path fill="none" stroke="#63b8ff" d="M1642.66,-188.46C1663.48,-181.12 1684.03,-169.47 1696.5,-151 1717.77,-119.49 1665.85,-56.63 1663.5,-55 1603.02,-13.1 1380.79,-9.44 1284.49,-9.9"/>
<polygon fill="#63b8ff" stroke="#63b8ff" points="1284.18,-6.4 1274.21,-9.96 1284.23,-13.4 1284.18,-6.4"/>
</a>
</g>
</g>
<!-- Node6 -->
<g id="Node000006" class="node">
<title>Node6</title>
<g id="a_Node000006"><a xlink:title=" ">
<polygon fill="#e0e0e0" stroke="#999999" points="1797,-145.5 1744,-145.5 1744,-126.5 1797,-126.5 1797,-145.5"/>
<text text-anchor="middle" x="1770.5" y="-133.5" font-family="Helvetica,sans-Serif" font-size="10.00">cstddef</text>
</a>
</g>
</g>
<!-- Node5&#45;&gt;Node6 -->
<g id="edge5_Node000005_Node000006" class="edge">
<title>Node5&#45;&gt;Node6</title>
<g id="a_edge5_Node000005_Node000006"><a xlink:title=" ">
<path fill="none" stroke="#63b8ff" d="M1617.58,-186.91C1649.01,-177.03 1691.88,-163.41 1729.5,-151 1731.73,-150.26 1734.03,-149.5 1736.34,-148.72"/>
<polygon fill="#63b8ff" stroke="#63b8ff" points="1737.46,-152.04 1745.81,-145.52 1735.22,-145.41 1737.46,-152.04"/>
</a>
</g>
</g>
<!-- Node7 -->
<g id="Node000007" class="node">
<title>Node7</title>
<g id="a_Node000007"><a xlink:title=" ">
<polygon fill="#e0e0e0" stroke="#999999" points="1219,-145.5 1166,-145.5 1166,-126.5 1219,-126.5 1219,-145.5"/>
<text text-anchor="middle" x="1192.5" y="-133.5" font-family="Helvetica,sans-Serif" font-size="10.00">iterator</text>
</a>
</g>
</g>
<!-- Node5&#45;&gt;Node7 -->
<g id="edge6_Node000005_Node000007" class="edge">
<title>Node5&#45;&gt;Node7</title>
<g id="a_edge6_Node000005_Node000007"><a xlink:title=" ">
<path fill="none" stroke="#63b8ff" d="M1502.3,-188.52C1499.32,-188 1496.38,-187.49 1493.5,-187 1398.15,-170.63 1285.65,-152.17 1229,-142.93"/>
<polygon fill="#63b8ff" stroke="#63b8ff" points="1229.52,-139.47 1219.09,-141.32 1228.4,-146.38 1229.52,-139.47"/>
</a>
</g>
</g>
<!-- Node8 -->
<g id="Node000008" class="node">
<title>Node8</title>
<g id="a_Node000008"><a xlink:title=" ">
<polygon fill="#e0e0e0" stroke="#999999" points="1269.5,-79.5 1225.5,-79.5 1225.5,-60.5 1269.5,-60.5 1269.5,-79.5"/>
<text text-anchor="middle" x="1247.5" y="-67.5" font-family="Helvetica,sans-Serif" font-size="10.00">string</text>
</a>
</g>
</g>
<!-- Node5&#45;&gt;Node8 -->
<g id="edge7_Node000005_Node000008" class="edge">
<title>Node5&#45;&gt;Node8</title>
<g id="a_edge7_Node000005_Node000008"><a xlink:title=" ">
<path fill="none" stroke="#63b8ff" d="M1563.98,-186.89C1552.14,-168.6 1528.93,-137.15 1500.5,-121 1429.23,-80.52 1330.51,-72.37 1280.05,-71.01"/>
<polygon fill="#63b8ff" stroke="#63b8ff" points="1279.82,-67.5 1269.75,-70.81 1279.68,-74.5 1279.82,-67.5"/>
</a>
</g>
</g>
<!-- Node9&#45;&gt;Node4 -->
<g id="edge10_Node000009_Node000004" class="edge">
<title>Node9&#45;&gt;Node4</title>
<g id="a_edge10_Node000009_Node000004"><a xlink:title=" ">
<path fill="none" stroke="#63b8ff" d="M134.68,-186.95C143.46,-168.73 161.32,-137.35 186.5,-121 305.37,-43.8 358.04,-73.97 498.5,-55 760.76,-19.59 1079.04,-12.35 1194.74,-10.88"/>
<polygon fill="#63b8ff" stroke="#63b8ff" points="1195.02,-14.37 1204.98,-10.76 1194.94,-7.38 1195.02,-14.37"/>
</a>
</g>
</g>
<!-- Node10 -->
<g id="Node000010" class="node">
<title>Node10</title>
<g id="a_Node000010"><a xlink:href="../../d2/dc8/universal_2include_2userver_2formats_2parse_2to_8hpp.html" target="_top" xlink:title="Helper for parsers.">
<polygon fill="white" stroke="#666666" points="321,-151 196,-151 196,-121 321,-121 321,-151"/>
<text text-anchor="start" x="204" y="-139" font-family="Helvetica,sans-Serif" font-size="10.00">userver/formats/parse</text>
<text text-anchor="middle" x="258.5" y="-128" font-family="Helvetica,sans-Serif" font-size="10.00">/to.hpp</text>
</a>
</g>
</g>
<!-- Node9&#45;&gt;Node10 -->
<g id="edge11_Node000009_Node000010" class="edge">
<title>Node9&#45;&gt;Node10</title>
<g id="a_edge11_Node000009_Node000010"><a xlink:title=" ">
<path fill="none" stroke="#63b8ff" d="M157.03,-186.95C175.83,-177.7 200.64,-165.49 221.02,-155.45"/>
<polygon fill="#63b8ff" stroke="#63b8ff" points="222.61,-158.57 230.04,-151.01 219.52,-152.29 222.61,-158.57"/>
</a>
</g>
</g>
<!-- Node11 -->
<g id="Node000011" class="node">
<title>Node11</title>
<g id="a_Node000011"><a xlink:href="../../d6/d8e/universal_2include_2userver_2formats_2serialize_2to_8hpp.html" target="_top" xlink:title="Helper for serializers.">
<polygon fill="white" stroke="#666666" points="139,-151 0,-151 0,-121 139,-121 139,-151"/>
<text text-anchor="start" x="8" y="-139" font-family="Helvetica,sans-Serif" font-size="10.00">userver/formats/serialize</text>
<text text-anchor="middle" x="69.5" y="-128" font-family="Helvetica,sans-Serif" font-size="10.00">/to.hpp</text>
</a>
</g>
</g>
<!-- Node9&#45;&gt;Node11 -->
<g id="edge12_Node000009_Node000011" class="edge">
<title>Node9&#45;&gt;Node11</title>
<g id="a_edge12_Node000009_Node000011"><a xlink:title=" ">
<path fill="none" stroke="#63b8ff" d="M115.41,-186.8C107.77,-178.51 97.98,-167.89 89.4,-158.59"/>
<polygon fill="#63b8ff" stroke="#63b8ff" points="91.91,-156.14 82.56,-151.16 86.76,-160.89 91.91,-156.14"/>
</a>
</g>
</g>
<!-- Node12 -->
<g id="Node000012" class="node">
<title>Node12</title>
<g id="a_Node000012"><a xlink:href="../../d3/da0/meta__light_8hpp.html" target="_top" xlink:title="Lightweight concepts.">
<polygon fill="white" stroke="#666666" points="445.5,-151 339.5,-151 339.5,-121 445.5,-121 445.5,-151"/>
<text text-anchor="start" x="347.5" y="-139" font-family="Helvetica,sans-Serif" font-size="10.00">userver/utils/meta</text>
<text text-anchor="middle" x="392.5" y="-128" font-family="Helvetica,sans-Serif" font-size="10.00">_light.hpp</text>
</a>
</g>
</g>
<!-- Node9&#45;&gt;Node12 -->
<g id="edge13_Node000009_Node000012" class="edge">
<title>Node9&#45;&gt;Node12</title>
<g id="a_edge13_Node000009_Node000012"><a xlink:title=" ">
<path fill="none" stroke="#63b8ff" d="M186.44,-186.95C228.68,-176.71 285.89,-162.85 329.31,-152.32"/>
<polygon fill="#63b8ff" stroke="#63b8ff" points="330.3,-155.68 339.19,-149.92 328.65,-148.88 330.3,-155.68"/>
</a>
</g>
</g>
<!-- Node12&#45;&gt;Node4 -->
<g id="edge14_Node000012_Node000004" class="edge">
<title>Node12&#45;&gt;Node4</title>
<g id="a_edge14_Node000012_Node000004"><a xlink:title=" ">
<path fill="none" stroke="#63b8ff" d="M419.62,-120.9C457.12,-102.15 527.44,-69.69 591.5,-55 706.69,-28.59 1067.67,-15.59 1194.72,-11.75"/>
<polygon fill="#63b8ff" stroke="#63b8ff" points="1194.98,-15.25 1204.87,-11.45 1194.77,-8.25 1194.98,-15.25"/>
</a>
</g>
</g>
<!-- Node13 -->
<g id="Node000013" class="node">
<title>Node13</title>
<g id="a_Node000013"><a xlink:href="../../d9/dce/void__t_8hpp.html" target="_top" xlink:title="std::void_t implementation with workarounds for compiler bugs">
<polygon fill="white" stroke="#666666" points="1207,-85 1106,-85 1106,-55 1207,-55 1207,-85"/>
<text text-anchor="start" x="1114" y="-73" font-family="Helvetica,sans-Serif" font-size="10.00">userver/utils/void</text>
<text text-anchor="middle" x="1156.5" y="-62" font-family="Helvetica,sans-Serif" font-size="10.00">_t.hpp</text>
</a>
</g>
</g>
<!-- Node12&#45;&gt;Node13 -->
<g id="edge15_Node000012_Node000013" class="edge">
<title>Node12&#45;&gt;Node13</title>
<g id="a_edge15_Node000012_Node000013"><a xlink:title=" ">
<path fill="none" stroke="#63b8ff" d="M445.5,-122.48C448.54,-121.93 451.55,-121.44 454.5,-121 689.99,-86.23 973.62,-75.42 1095.73,-72.24"/>
<polygon fill="#63b8ff" stroke="#63b8ff" points="1096.09,-75.74 1105.99,-71.99 1095.91,-68.74 1096.09,-75.74"/>
</a>
</g>
</g>
<!-- Node13&#45;&gt;Node4 -->
<g id="edge16_Node000013_Node000004" class="edge">
<title>Node13&#45;&gt;Node4</title>
<g id="a_edge16_Node000013_Node000004"><a xlink:title=" ">
<path fill="none" stroke="#63b8ff" d="M1176.59,-54.84C1189.38,-45.83 1205.9,-34.18 1218.8,-25.09"/>
<polygon fill="#63b8ff" stroke="#63b8ff" points="1220.91,-27.89 1227.06,-19.27 1216.87,-22.17 1220.91,-27.89"/>
</a>
</g>
</g>
<!-- Node14&#45;&gt;Node9 -->
<g id="edge22_Node000014_Node000009" class="edge">
<title>Node14&#45;&gt;Node9</title>
<g id="a_edge22_Node000014_Node000009"><a xlink:title=" ">
<path fill="none" stroke="#63b8ff" d="M621.8,-259.78C520.45,-248.12 320.74,-225.13 209.01,-212.27"/>
<polygon fill="#63b8ff" stroke="#63b8ff" points="209.15,-208.76 198.81,-211.09 208.35,-215.71 209.15,-208.76"/>
</a>
</g>
</g>
<!-- Node14&#45;&gt;Node10 -->
<g id="edge23_Node000014_Node000010" class="edge">
<title>Node14&#45;&gt;Node10</title>
<g id="a_edge23_Node000014_Node000010"><a xlink:title=" ">
<path fill="none" stroke="#63b8ff" d="M621.7,-262.89C515.38,-255.38 308.94,-238.25 283.5,-217 267.24,-203.42 261.39,-179.4 259.37,-161.22"/>
<polygon fill="#63b8ff" stroke="#63b8ff" points="262.84,-160.75 258.56,-151.06 255.86,-161.3 262.84,-160.75"/>
</a>
</g>
</g>
<!-- Node15 -->
<g id="Node000015" class="node">
<title>Node15</title>
<g id="a_Node000015"><a xlink:title=" ">
<polygon fill="#e0e0e0" stroke="#999999" points="986.5,-145.5 936.5,-145.5 936.5,-126.5 986.5,-126.5 986.5,-145.5"/>
<text text-anchor="middle" x="961.5" y="-133.5" font-family="Helvetica,sans-Serif" font-size="10.00">chrono</text>
</a>
</g>
</g>
<!-- Node14&#45;&gt;Node15 -->
<g id="edge18_Node000014_Node000015" class="edge">
<title>Node14&#45;&gt;Node15</title>
<g id="a_edge18_Node000014_Node000015"><a xlink:title=" ">
<path fill="none" stroke="#63b8ff" d="M747.38,-264.79C794.42,-260.45 858.47,-248.58 905.5,-217 928.43,-201.6 944.86,-173.4 953.77,-154.93"/>
<polygon fill="#63b8ff" stroke="#63b8ff" points="957.07,-156.13 958.04,-145.58 950.7,-153.22 957.07,-156.13"/>
</a>
</g>
</g>
<!-- Node16 -->
<g id="Node000016" class="node">
<title>Node16</title>
<g id="a_Node000016"><a xlink:title=" ">
<polygon fill="#e0e0e0" stroke="#999999" points="757.5,-145.5 707.5,-145.5 707.5,-126.5 757.5,-126.5 757.5,-145.5"/>
<text text-anchor="middle" x="732.5" y="-133.5" font-family="Helvetica,sans-Serif" font-size="10.00">cstdint</text>
</a>
</g>
</g>
<!-- Node14&#45;&gt;Node16 -->
<g id="edge19_Node000014_Node000016" class="edge">
<title>Node14&#45;&gt;Node16</title>
<g id="a_edge19_Node000014_Node000016"><a xlink:title=" ">
<path fill="none" stroke="#63b8ff" d="M688.01,-252.9C692.21,-236.75 699.75,-209.58 708.5,-187 712.74,-176.05 718.38,-164.19 723.13,-154.77"/>
<polygon fill="#63b8ff" stroke="#63b8ff" points="726.36,-156.16 727.83,-145.67 720.13,-152.95 726.36,-156.16"/>
</a>
</g>
</g>
<!-- Node17 -->
<g id="Node000017" class="node">
<title>Node17</title>
<g id="a_Node000017"><a xlink:title=" ">
<polygon fill="#e0e0e0" stroke="#999999" points="336.5,-211.5 292.5,-211.5 292.5,-192.5 336.5,-192.5 336.5,-211.5"/>
<text text-anchor="middle" x="314.5" y="-199.5" font-family="Helvetica,sans-Serif" font-size="10.00">limits</text>
</a>
</g>
</g>
<!-- Node14&#45;&gt;Node17 -->
<g id="edge20_Node000014_Node000017" class="edge">
<title>Node14&#45;&gt;Node17</title>
<g id="a_edge20_Node000014_Node000017"><a xlink:title=" ">
<path fill="none" stroke="#63b8ff" d="M621.84,-262.99C552.95,-257.37 439.55,-244.59 345.5,-217 343.86,-216.52 342.2,-215.97 340.54,-215.37"/>
<polygon fill="#63b8ff" stroke="#63b8ff" points="341.81,-212.11 331.23,-211.58 339.17,-218.59 341.81,-212.11"/>
</a>
</g>
</g>
<!-- Node18 -->
<g id="Node000018" class="node">
<title>Node18</title>
<g id="a_Node000018"><a xlink:title=" ">
<polygon fill="#e0e0e0" stroke="#999999" points="434,-211.5 355,-211.5 355,-192.5 434,-192.5 434,-211.5"/>
<text text-anchor="middle" x="394.5" y="-199.5" font-family="Helvetica,sans-Serif" font-size="10.00">fmt/format.h</text>
</a>
</g>
</g>
<!-- Node14&#45;&gt;Node18 -->
<g id="edge21_Node000014_Node000018" class="edge">
<title>Node14&#45;&gt;Node18</title>
<g id="a_edge21_Node000014_Node000018"><a xlink:title=" ">
<path fill="none" stroke="#63b8ff" d="M621.72,-254.5C574.07,-244.82 507,-230.77 448.5,-217 444.58,-216.08 440.51,-215.09 436.44,-214.07"/>
<polygon fill="#63b8ff" stroke="#63b8ff" points="436.98,-210.59 426.42,-211.53 435.25,-217.38 436.98,-210.59"/>
</a>
</g>
</g>
<!-- Node19 -->
<g id="Node000019" class="node">
<title>Node19</title>
<g id="a_Node000019"><a xlink:href="../../d7/d4a/datetime_8hpp.html" target="_top" xlink:title="Date and Time related converters.">
<polygon fill="white" stroke="#666666" points="896.5,-211.5 750.5,-211.5 750.5,-192.5 896.5,-192.5 896.5,-211.5"/>
<text text-anchor="middle" x="823.5" y="-199.5" font-family="Helvetica,sans-Serif" font-size="10.00">userver/utils/datetime.hpp</text>
</a>
</g>
</g>
<!-- Node14&#45;&gt;Node19 -->
<g id="edge24_Node000014_Node000019" class="edge">
<title>Node14&#45;&gt;Node19</title>
<g id="a_edge24_Node000014_Node000019"><a xlink:title=" ">
<path fill="none" stroke="#63b8ff" d="M715,-252.95C739.06,-241.88 772.33,-226.56 795.66,-215.82"/>
<polygon fill="#63b8ff" stroke="#63b8ff" points="797.38,-218.88 805,-211.52 794.45,-212.52 797.38,-218.88"/>
</a>
</g>
</g>
<!-- Node23 -->
<g id="Node000023" class="node">
<title>Node23</title>
<g id="a_Node000023"><a xlink:href="../../dd/d10/from__string__saturating_8hpp.html" target="_top" xlink:title="Saturating converters from strings to time points.">
<polygon fill="white" stroke="#666666" points="1104.5,-217 952.5,-217 952.5,-187 1104.5,-187 1104.5,-217"/>
<text text-anchor="start" x="960.5" y="-205" font-family="Helvetica,sans-Serif" font-size="10.00">userver/utils/datetime</text>
<text text-anchor="middle" x="1028.5" y="-194" font-family="Helvetica,sans-Serif" font-size="10.00">/from_string_saturating.hpp</text>
</a>
</g>
</g>
<!-- Node14&#45;&gt;Node23 -->
<g id="edge31_Node000014_Node000023" class="edge">
<title>Node14&#45;&gt;Node23</title>
<g id="a_edge31_Node000014_Node000023"><a xlink:title=" ">
<path fill="none" stroke="#63b8ff" d="M747.19,-255.34C802.08,-245.12 882.33,-230.19 943.08,-218.89"/>
<polygon fill="#63b8ff" stroke="#63b8ff" points="943.85,-222.31 953.04,-217.04 942.57,-215.43 943.85,-222.31"/>
</a>
</g>
</g>
<!-- Node24 -->
<g id="Node000024" class="node">
<title>Node24</title>
<g id="a_Node000024"><a xlink:href="../../d0/d03/universal_2include_2userver_2utils_2meta_8hpp.html" target="_top" xlink:title="Metaprogramming, template variables and concepts.">
<polygon fill="white" stroke="#666666" points="618,-211.5 491,-211.5 491,-192.5 618,-192.5 618,-211.5"/>
<text text-anchor="middle" x="554.5" y="-199.5" font-family="Helvetica,sans-Serif" font-size="10.00">userver/utils/meta.hpp</text>
</a>
</g>
</g>
<!-- Node14&#45;&gt;Node24 -->
<g id="edge34_Node000014_Node000024" class="edge">
<title>Node14&#45;&gt;Node24</title>
<g id="a_edge34_Node000014_Node000024"><a xlink:title=" ">
<path fill="none" stroke="#63b8ff" d="M655.97,-252.95C633.57,-241.93 602.64,-226.7 580.83,-215.96"/>
<polygon fill="#63b8ff" stroke="#63b8ff" points="582.32,-212.79 571.8,-211.52 579.23,-219.07 582.32,-212.79"/>
</a>
</g>
</g>
<!-- Node26 -->
<g id="Node000026" class="node">
<title>Node26</title>
<g id="a_Node000026"><a xlink:href="../../dc/dff/string__to__duration_8hpp.html" target="_top" xlink:title="Converts strings like &quot;10s&quot;, &quot;5d&quot;, &quot;1h&quot; to durations.">
<polygon fill="white" stroke="#666666" points="1230.5,-217 1122.5,-217 1122.5,-187 1230.5,-187 1230.5,-217"/>
<text text-anchor="start" x="1130.5" y="-205" font-family="Helvetica,sans-Serif" font-size="10.00">userver/utils/string</text>
<text text-anchor="middle" x="1176.5" y="-194" font-family="Helvetica,sans-Serif" font-size="10.00">_to_duration.hpp</text>
</a>
</g>
</g>
<!-- Node14&#45;&gt;Node26 -->
<g id="edge41_Node000014_Node000026" class="edge">
<title>Node14&#45;&gt;Node26</title>
<g id="a_edge41_Node000014_Node000026"><a xlink:title=" ">
<path fill="none" stroke="#63b8ff" d="M747.31,-261.72C829.1,-254.38 976.68,-239.6 1112.13,-217.12"/>
<polygon fill="#63b8ff" stroke="#63b8ff" points="1112.99,-220.53 1122.27,-215.42 1111.83,-213.62 1112.99,-220.53"/>
</a>
</g>
</g>
<!-- Node19&#45;&gt;Node8 -->
<g id="edge29_Node000019_Node000008" class="edge">
<title>Node19&#45;&gt;Node8</title>
<g id="a_edge29_Node000019_Node000008"><a xlink:title=" ">
<path fill="none" stroke="#63b8ff" d="M833.23,-192.43C854.81,-173.62 906.43,-129.66 927.5,-121 1047.23,-71.81 1091.89,-120.03 1216.5,-85 1218.18,-84.53 1219.89,-83.98 1221.59,-83.37"/>
<polygon fill="#63b8ff" stroke="#63b8ff" points="1223.17,-86.51 1231.11,-79.5 1220.53,-80.03 1223.17,-86.51"/>
</a>
</g>
</g>
<!-- Node19&#45;&gt;Node15 -->
<g id="edge25_Node000019_Node000015" class="edge">
<title>Node19&#45;&gt;Node15</title>
<g id="a_edge25_Node000019_Node000015"><a xlink:title=" ">
<path fill="none" stroke="#63b8ff" d="M842.11,-192.37C865.57,-181.49 906.11,-162.69 933.36,-150.05"/>
<polygon fill="#63b8ff" stroke="#63b8ff" points="935.14,-153.08 942.74,-145.7 932.2,-146.73 935.14,-153.08"/>
</a>
</g>
</g>
<!-- Node19&#45;&gt;Node16 -->
<g id="edge26_Node000019_Node000016" class="edge">
<title>Node19&#45;&gt;Node16</title>
<g id="a_edge26_Node000019_Node000016"><a xlink:title=" ">
<path fill="none" stroke="#63b8ff" d="M811.23,-192.37C796.44,-181.97 771.35,-164.32 753.47,-151.75"/>
<polygon fill="#63b8ff" stroke="#63b8ff" points="755.06,-148.59 744.87,-145.7 751.04,-154.31 755.06,-148.59"/>
</a>
</g>
</g>
<!-- Node20 -->
<g id="Node000020" class="node">
<title>Node20</title>
<g id="a_Node000020"><a xlink:title=" ">
<polygon fill="#e0e0e0" stroke="#999999" points="689.5,-145.5 633.5,-145.5 633.5,-126.5 689.5,-126.5 689.5,-145.5"/>
<text text-anchor="middle" x="661.5" y="-133.5" font-family="Helvetica,sans-Serif" font-size="10.00">optional</text>
</a>
</g>
</g>
<!-- Node19&#45;&gt;Node20 -->
<g id="edge27_Node000019_Node000020" class="edge">
<title>Node19&#45;&gt;Node20</title>
<g id="a_edge27_Node000019_Node000020"><a xlink:title=" ">
<path fill="none" stroke="#63b8ff" d="M801.65,-192.37C773.55,-181.27 724.57,-161.92 692.6,-149.28"/>
<polygon fill="#63b8ff" stroke="#63b8ff" points="693.85,-146.02 683.26,-145.6 691.27,-152.53 693.85,-146.02"/>
</a>
</g>
</g>
<!-- Node21 -->
<g id="Node000021" class="node">
<title>Node21</title>
<g id="a_Node000021"><a xlink:title=" ">
<polygon fill="#e0e0e0" stroke="#999999" points="1148,-145.5 1083,-145.5 1083,-126.5 1148,-126.5 1148,-145.5"/>
<text text-anchor="middle" x="1115.5" y="-133.5" font-family="Helvetica,sans-Serif" font-size="10.00">stdexcept</text>
</a>
</g>
</g>
<!-- Node19&#45;&gt;Node21 -->
<g id="edge28_Node000019_Node000021" class="edge">
<title>Node19&#45;&gt;Node21</title>
<g id="a_edge28_Node000019_Node000021"><a xlink:title=" ">
<path fill="none" stroke="#63b8ff" d="M862.58,-192.44C917.29,-180.44 1016.36,-158.73 1072.91,-146.34"/>
<polygon fill="#63b8ff" stroke="#63b8ff" points="1073.93,-149.69 1082.95,-144.13 1072.43,-142.86 1073.93,-149.69"/>
</a>
</g>
</g>
<!-- Node22 -->
<g id="Node000022" class="node">
<title>Node22</title>
<g id="a_Node000022"><a xlink:title=" ">
<polygon fill="#e0e0e0" stroke="#999999" points="871.5,-145.5 775.5,-145.5 775.5,-126.5 871.5,-126.5 871.5,-145.5"/>
<text text-anchor="middle" x="823.5" y="-133.5" font-family="Helvetica,sans-Serif" font-size="10.00">cctz/civil_time.h</text>
</a>
</g>
</g>
<!-- Node19&#45;&gt;Node22 -->
<g id="edge30_Node000019_Node000022" class="edge">
<title>Node19&#45;&gt;Node22</title>
<g id="a_edge30_Node000019_Node000022"><a xlink:title=" ">
<path fill="none" stroke="#63b8ff" d="M823.5,-192.37C823.5,-183.16 823.5,-168.29 823.5,-156.27"/>
<polygon fill="#63b8ff" stroke="#63b8ff" points="827,-155.91 823.5,-145.91 820,-155.91 827,-155.91"/>
</a>
</g>
</g>
<!-- Node23&#45;&gt;Node8 -->
<g id="edge33_Node000023_Node000008" class="edge">
<title>Node23&#45;&gt;Node8</title>
<g id="a_edge33_Node000023_Node000008"><a xlink:title=" ">
<path fill="none" stroke="#63b8ff" d="M1030.92,-186.83C1034.78,-168.77 1044.07,-137.87 1064.5,-121 1118.03,-76.8 1150.79,-107.39 1216.5,-85 1217.9,-84.52 1219.32,-84.01 1220.74,-83.46"/>
<polygon fill="#63b8ff" stroke="#63b8ff" points="1222.15,-86.67 1230.03,-79.59 1219.45,-80.21 1222.15,-86.67"/>
</a>
</g>
</g>
<!-- Node23&#45;&gt;Node15 -->
<g id="edge32_Node000023_Node000015" class="edge">
<title>Node23&#45;&gt;Node15</title>
<g id="a_edge32_Node000023_Node000015"><a xlink:title=" ">
<path fill="none" stroke="#63b8ff" d="M1013.63,-186.8C1003.08,-176.72 988.92,-163.19 978.02,-152.78"/>
<polygon fill="#63b8ff" stroke="#63b8ff" points="980.41,-150.22 970.76,-145.84 975.57,-155.28 980.41,-150.22"/>
</a>
</g>
</g>
<!-- Node24&#45;&gt;Node2 -->
<g id="edge35_Node000024_Node000002" class="edge">
<title>Node24&#45;&gt;Node2</title>
<g id="a_edge35_Node000024_Node000002"><a xlink:title=" ">
<path fill="none" stroke="#63b8ff" d="M545.46,-192.37C534.93,-182.31 517.31,-165.48 504.26,-153.01"/>
<polygon fill="#63b8ff" stroke="#63b8ff" points="506.47,-150.28 496.82,-145.91 501.64,-155.34 506.47,-150.28"/>
</a>
</g>
</g>
<!-- Node24&#45;&gt;Node4 -->
<g id="edge38_Node000024_Node000004" class="edge">
<title>Node24&#45;&gt;Node4</title>
<g id="a_edge38_Node000024_Node000004"><a xlink:title=" ">
<path fill="none" stroke="#63b8ff" d="M559.35,-192.3C569.21,-175.48 593.34,-138.63 624.5,-121 723.11,-65.21 1070.23,-26.9 1194.68,-14.68"/>
<polygon fill="#63b8ff" stroke="#63b8ff" points="1195.02,-18.17 1204.64,-13.71 1194.35,-11.2 1195.02,-18.17"/>
</a>
</g>
</g>
<!-- Node24&#45;&gt;Node7 -->
<g id="edge36_Node000024_Node000007" class="edge">
<title>Node24&#45;&gt;Node7</title>
<g id="a_edge36_Node000024_Node000007"><a xlink:title=" ">
<path fill="none" stroke="#63b8ff" d="M618.28,-196.22C768.04,-184.94 1131.57,-157.12 1157.5,-151 1159.81,-150.45 1162.17,-149.78 1164.52,-149.03"/>
<polygon fill="#63b8ff" stroke="#63b8ff" points="1165.74,-152.31 1173.94,-145.61 1163.35,-145.73 1165.74,-152.31"/>
</a>
</g>
</g>
<!-- Node24&#45;&gt;Node12 -->
<g id="edge40_Node000024_Node000012" class="edge">
<title>Node24&#45;&gt;Node12</title>
<g id="a_edge40_Node000024_Node000012"><a xlink:title=" ">
<path fill="none" stroke="#63b8ff" d="M532.65,-192.37C508.39,-182.78 468.56,-167.05 437.54,-154.8"/>
<polygon fill="#63b8ff" stroke="#63b8ff" points="438.82,-151.53 428.23,-151.12 436.24,-158.05 438.82,-151.53"/>
</a>
</g>
</g>
<!-- Node24&#45;&gt;Node20 -->
<g id="edge37_Node000024_Node000020" class="edge">
<title>Node24&#45;&gt;Node20</title>
<g id="a_edge37_Node000024_Node000020"><a xlink:title=" ">
<path fill="none" stroke="#63b8ff" d="M568.93,-192.37C586.72,-181.73 617.18,-163.51 638.28,-150.89"/>
<polygon fill="#63b8ff" stroke="#63b8ff" points="640.17,-153.84 646.96,-145.7 636.58,-147.83 640.17,-153.84"/>
</a>
</g>
</g>
<!-- Node25 -->
<g id="Node000025" class="node">
<title>Node25</title>
<g id="a_Node000025"><a xlink:title=" ">
<polygon fill="#e0e0e0" stroke="#999999" points="577,-145.5 530,-145.5 530,-126.5 577,-126.5 577,-145.5"/>
<text text-anchor="middle" x="553.5" y="-133.5" font-family="Helvetica,sans-Serif" font-size="10.00">vector</text>
</a>
</g>
</g>
<!-- Node24&#45;&gt;Node25 -->
<g id="edge39_Node000024_Node000025" class="edge">
<title>Node24&#45;&gt;Node25</title>
<g id="a_edge39_Node000024_Node000025"><a xlink:title=" ">
<path fill="none" stroke="#63b8ff" d="M554.37,-192.37C554.22,-183.16 553.99,-168.29 553.8,-156.27"/>
<polygon fill="#63b8ff" stroke="#63b8ff" points="557.3,-155.85 553.64,-145.91 550.3,-155.96 557.3,-155.85"/>
</a>
</g>
</g>
<!-- Node26&#45;&gt;Node8 -->
<g id="edge43_Node000026_Node000008" class="edge">
<title>Node26&#45;&gt;Node8</title>
<g id="a_edge43_Node000026_Node000008"><a xlink:title=" ">
<path fill="none" stroke="#63b8ff" d="M1132.8,-186.87C1096.08,-172.66 1052.8,-148.89 1074.5,-121 1114.48,-69.62 1155.04,-106.48 1216.5,-85 1217.89,-84.51 1219.31,-83.99 1220.73,-83.44"/>
<polygon fill="#63b8ff" stroke="#63b8ff" points="1222.15,-86.64 1230.01,-79.54 1219.44,-80.18 1222.15,-86.64"/>
</a>
</g>
</g>
<!-- Node26&#45;&gt;Node15 -->
<g id="edge42_Node000026_Node000015" class="edge">
<title>Node26&#45;&gt;Node15</title>
<g id="a_edge42_Node000026_Node000015"><a xlink:title=" ">
<path fill="none" stroke="#63b8ff" d="M1129.32,-186.95C1089.21,-175.01 1032.53,-158.14 996.4,-147.39"/>
<polygon fill="#63b8ff" stroke="#63b8ff" points="997.37,-144.02 986.78,-144.53 995.37,-150.73 997.37,-144.02"/>
</a>
</g>
</g>
<!-- Node27&#45;&gt;Node2 -->
<g id="edge45_Node000027_Node000002" class="edge">
<title>Node27&#45;&gt;Node2</title>
<g id="a_edge45_Node000027_Node000002"><a xlink:title=" ">
<path fill="none" stroke="#63b8ff" d="M1161.25,-265.12C987.86,-259.51 504.6,-241.71 481.5,-217 466.23,-200.67 472.47,-173.37 479.24,-155.28"/>
<polygon fill="#63b8ff" stroke="#63b8ff" points="482.56,-156.42 483.14,-145.84 476.09,-153.75 482.56,-156.42"/>
</a>
</g>
</g>
<!-- Node27&#45;&gt;Node8 -->
<g id="edge47_Node000027_Node000008" class="edge">
<title>Node27&#45;&gt;Node8</title>
<g id="a_edge47_Node000027_Node000008"><a xlink:title=" ">
<path fill="none" stroke="#63b8ff" d="M1235.49,-252.92C1243.24,-243.51 1252.36,-230.44 1256.5,-217 1270.09,-172.86 1259.83,-117.75 1252.75,-89.54"/>
<polygon fill="#63b8ff" stroke="#63b8ff" points="1256.11,-88.57 1250.16,-79.81 1249.35,-90.37 1256.11,-88.57"/>
</a>
</g>
</g>
<!-- Node27&#45;&gt;Node21 -->
<g id="edge46_Node000027_Node000021" class="edge">
<title>Node27&#45;&gt;Node21</title>
<g id="a_edge46_Node000027_Node000021"><a xlink:title=" ">
<path fill="none" stroke="#63b8ff" d="M1231.54,-252.75C1241.08,-235.72 1253,-207.01 1239.5,-187 1234.21,-179.16 1185.43,-161.05 1150.66,-148.92"/>
<polygon fill="#63b8ff" stroke="#63b8ff" points="1151.42,-145.48 1140.83,-145.51 1149.13,-152.09 1151.42,-145.48"/>
</a>
</g>
</g>
<!-- Node27&#45;&gt;Node28 -->
<g id="edge48_Node000027_Node000028" class="edge">
<title>Node27&#45;&gt;Node28</title>
<g id="a_edge48_Node000027_Node000028"><a xlink:title=" ">
<path fill="none" stroke="#63b8ff" d="M1266.61,-252.95C1296.98,-243.28 1337.51,-230.38 1369.77,-220.11"/>
<polygon fill="#63b8ff" stroke="#63b8ff" points="1371.03,-223.38 1379.49,-217.01 1368.9,-216.71 1371.03,-223.38"/>
</a>
</g>
</g>
<!-- Node28&#45;&gt;Node4 -->
<g id="edge49_Node000028_Node000004" class="edge">
<title>Node28&#45;&gt;Node4</title>
<g id="a_edge49_Node000028_Node000004"><a xlink:title=" ">
<path fill="none" stroke="#63b8ff" d="M1394.03,-186.81C1377.65,-178 1357.6,-165.58 1342.5,-151 1305.61,-115.38 1309.69,-95.7 1278.5,-55 1271,-45.21 1261.96,-34.83 1254.48,-26.55"/>
<polygon fill="#63b8ff" stroke="#63b8ff" points="1256.96,-24.08 1247.62,-19.08 1251.8,-28.81 1256.96,-24.08"/>
</a>
</g>
</g>
<!-- Node28&#45;&gt;Node13 -->
<g id="edge50_Node000028_Node000013" class="edge">
<title>Node28&#45;&gt;Node13</title>
<g id="a_edge50_Node000028_Node000013"><a xlink:title=" ">
<path fill="none" stroke="#63b8ff" d="M1389.8,-186.94C1366.96,-177.23 1336.19,-163.81 1309.5,-151 1268.36,-131.25 1222.04,-106.7 1191.25,-90.04"/>
<polygon fill="#63b8ff" stroke="#63b8ff" points="1192.67,-86.83 1182.21,-85.14 1189.33,-92.98 1192.67,-86.83"/>
</a>
</g>
</g>
<!-- Node29 -->
<g id="Node000029" class="node">
<title>Node29</title>
<g id="a_Node000029"><a xlink:href="../../d1/d4c/path_8hpp.html" target="_top" xlink:title=" ">
<polygon fill="white" stroke="#666666" points="1687.5,-151 1547.5,-151 1547.5,-121 1687.5,-121 1687.5,-151"/>
<text text-anchor="start" x="1555.5" y="-139" font-family="Helvetica,sans-Serif" font-size="10.00">userver/formats/common</text>
<text text-anchor="middle" x="1617.5" y="-128" font-family="Helvetica,sans-Serif" font-size="10.00">/path.hpp</text>
</a>
</g>
</g>
<!-- Node28&#45;&gt;Node29 -->
<g id="edge51_Node000028_Node000029" class="edge">
<title>Node28&#45;&gt;Node29</title>
<g id="a_edge51_Node000028_Node000029"><a xlink:title=" ">
<path fill="none" stroke="#63b8ff" d="M1466.07,-186.95C1495.26,-177.33 1534.17,-164.49 1565.24,-154.24"/>
<polygon fill="#63b8ff" stroke="#63b8ff" points="1566.63,-157.47 1575.03,-151.01 1564.43,-150.82 1566.63,-157.47"/>
</a>
</g>
</g>
<!-- Node31 -->
<g id="Node000031" class="node">
<title>Node31</title>
<g id="a_Node000031"><a xlink:href="../../da/d72/type_8hpp.html" target="_top" xlink:title="Common enum of types.">
<polygon fill="white" stroke="#666666" points="1491.5,-151 1351.5,-151 1351.5,-121 1491.5,-121 1491.5,-151"/>
<text text-anchor="start" x="1359.5" y="-139" font-family="Helvetica,sans-Serif" font-size="10.00">userver/formats/common</text>
<text text-anchor="middle" x="1421.5" y="-128" font-family="Helvetica,sans-Serif" font-size="10.00">/type.hpp</text>
</a>
</g>
</g>
<!-- Node28&#45;&gt;Node31 -->
<g id="edge54_Node000028_Node000031" class="edge">
<title>Node28&#45;&gt;Node31</title>
<g id="a_edge54_Node000028_Node000031"><a xlink:title=" ">
<path fill="none" stroke="#63b8ff" d="M1423.06,-186.8C1422.82,-179.34 1422.53,-169.99 1422.26,-161.41"/>
<polygon fill="#63b8ff" stroke="#63b8ff" points="1425.75,-161.05 1421.94,-151.16 1418.76,-161.27 1425.75,-161.05"/>
</a>
</g>
</g>
<!-- Node29&#45;&gt;Node8 -->
<g id="edge52_Node000029_Node000008" class="edge">
<title>Node29&#45;&gt;Node8</title>
<g id="a_edge52_Node000029_Node000008"><a xlink:title=" ">
<path fill="none" stroke="#63b8ff" d="M1547.47,-122.89C1467.23,-109.01 1339.18,-86.86 1279.75,-76.58"/>
<polygon fill="#63b8ff" stroke="#63b8ff" points="1280.26,-73.11 1269.81,-74.86 1279.07,-80.01 1280.26,-73.11"/>
</a>
</g>
</g>
<!-- Node30 -->
<g id="Node000030" class="node">
<title>Node30</title>
<g id="a_Node000030"><a xlink:title=" ">
<polygon fill="#e0e0e0" stroke="#999999" points="1654,-79.5 1581,-79.5 1581,-60.5 1654,-60.5 1654,-79.5"/>
<text text-anchor="middle" x="1617.5" y="-67.5" font-family="Helvetica,sans-Serif" font-size="10.00">string_view</text>
</a>
</g>
</g>
<!-- Node29&#45;&gt;Node30 -->
<g id="edge53_Node000029_Node000030" class="edge">
<title>Node29&#45;&gt;Node30</title>
<g id="a_edge53_Node000029_Node000030"><a xlink:title=" ">
<path fill="none" stroke="#63b8ff" d="M1617.5,-120.8C1617.5,-111.7 1617.5,-99.79 1617.5,-89.9"/>
<polygon fill="#63b8ff" stroke="#63b8ff" points="1621,-89.84 1617.5,-79.84 1614,-89.84 1621,-89.84"/>
</a>
</g>
</g>
<!-- Node32&#45;&gt;Node7 -->
<g id="edge57_Node000032_Node000007" class="edge">
<title>Node32&#45;&gt;Node7</title>
<g id="a_edge57_Node000032_Node000007"><a xlink:title=" ">
<path fill="none" stroke="#63b8ff" d="M1343.98,-252.84C1311.6,-228.07 1244.97,-177.12 1211.94,-151.87"/>
<polygon fill="#63b8ff" stroke="#63b8ff" points="1214.01,-149.04 1203.94,-145.75 1209.76,-154.6 1214.01,-149.04"/>
</a>
</g>
</g>
<!-- Node32&#45;&gt;Node16 -->
<g id="edge56_Node000032_Node000016" class="edge">
<title>Node32&#45;&gt;Node16</title>
<g id="a_edge56_Node000032_Node000016"><a xlink:title=" ">
<path fill="none" stroke="#63b8ff" d="M1301.5,-254.31C1298.46,-253.83 1295.45,-253.39 1292.5,-253 1231.68,-244.97 785.89,-259.36 741.5,-217 725.26,-201.5 725.86,-173.95 728.56,-155.57"/>
<polygon fill="#63b8ff" stroke="#63b8ff" points="732.04,-155.97 730.38,-145.51 725.15,-154.73 732.04,-155.97"/>
</a>
</g>
</g>
<!-- Node32&#45;&gt;Node20 -->
<g id="edge58_Node000032_Node000020" class="edge">
<title>Node32&#45;&gt;Node20</title>
<g id="a_edge58_Node000032_Node000020"><a xlink:title=" ">
<path fill="none" stroke="#63b8ff" d="M1301.5,-254.3C1298.46,-253.82 1295.45,-253.39 1292.5,-253 1166.88,-236.54 835.45,-276.33 723.5,-217 697.84,-203.4 679.47,-174.01 669.67,-154.89"/>
<polygon fill="#63b8ff" stroke="#63b8ff" points="672.74,-153.2 665.23,-145.73 666.44,-156.25 672.74,-153.2"/>
</a>
</g>
</g>
<!-- Node32&#45;&gt;Node28 -->
<g id="edge59_Node000032_Node000028" class="edge">
<title>Node32&#45;&gt;Node28</title>
<g id="a_edge59_Node000032_Node000028"><a xlink:title=" ">
<path fill="none" stroke="#63b8ff" d="M1376.04,-252.8C1383.94,-244.51 1394.06,-233.89 1402.92,-224.59"/>
<polygon fill="#63b8ff" stroke="#63b8ff" points="1405.63,-226.82 1410,-217.16 1400.57,-221.99 1405.63,-226.82"/>
</a>
</g>
</g>
<!-- Node32&#45;&gt;Node33 -->
<g id="edge60_Node000032_Node000033" class="edge">
<title>Node32&#45;&gt;Node33</title>
<g id="a_edge60_Node000032_Node000033"><a xlink:title=" ">
<path fill="none" stroke="#63b8ff" d="M1423.54,-258.1C1507.67,-245.84 1658.31,-223.88 1741.75,-211.71"/>
<polygon fill="#63b8ff" stroke="#63b8ff" points="1742.44,-215.15 1751.83,-210.24 1741.43,-208.22 1742.44,-215.15"/>
</a>
</g>
</g>
<!-- Node33&#45;&gt;Node4 -->
<g id="edge63_Node000033_Node000004" class="edge">
<title>Node33&#45;&gt;Node4</title>
<g id="a_edge63_Node000033_Node000004"><a xlink:title=" ">
<path fill="none" stroke="#63b8ff" d="M1851.23,-189.26C1895.28,-176.45 1949.08,-153.36 1924.5,-121 1846.92,-18.86 1424.41,-10.19 1284.51,-10.16"/>
<polygon fill="#63b8ff" stroke="#63b8ff" points="1284.16,-6.66 1274.17,-10.17 1284.17,-13.66 1284.16,-6.66"/>
</a>
</g>
</g>
<!-- Node33&#45;&gt;Node6 -->
<g id="edge61_Node000033_Node000006" class="edge">
<title>Node33&#45;&gt;Node6</title>
<g id="a_edge61_Node000033_Node000006"><a xlink:title=" ">
<path fill="none" stroke="#63b8ff" d="M1794.62,-186.8C1790.07,-177.41 1784.07,-165.02 1779.19,-154.95"/>
<polygon fill="#63b8ff" stroke="#63b8ff" points="1782.29,-153.32 1774.78,-145.84 1775.99,-156.37 1782.29,-153.32"/>
</a>
</g>
</g>
<!-- Node34 -->
<g id="Node000034" class="node">
<title>Node34</title>
<g id="a_Node000034"><a xlink:title=" ">
<polygon fill="#e0e0e0" stroke="#999999" points="1852,-145.5 1815,-145.5 1815,-126.5 1852,-126.5 1852,-145.5"/>
<text text-anchor="middle" x="1833.5" y="-133.5" font-family="Helvetica,sans-Serif" font-size="10.00">new</text>
</a>
</g>
</g>
<!-- Node33&#45;&gt;Node34 -->
<g id="edge62_Node000033_Node000034" class="edge">
<title>Node33&#45;&gt;Node34</title>
<g id="a_edge62_Node000033_Node000034"><a xlink:title=" ">
<path fill="none" stroke="#63b8ff" d="M1808.6,-186.8C1813.3,-177.41 1819.49,-165.02 1824.53,-154.95"/>
<polygon fill="#63b8ff" stroke="#63b8ff" points="1827.74,-156.35 1829.08,-145.84 1821.48,-153.22 1827.74,-156.35"/>
</a>
</g>
</g>
<!-- Node35 -->
<g id="Node000035" class="node">
<title>Node35</title>
<g id="a_Node000035"><a xlink:title=" ">
<polygon fill="#e0e0e0" stroke="#999999" points="1915,-145.5 1870,-145.5 1870,-126.5 1915,-126.5 1915,-145.5"/>
<text text-anchor="middle" x="1892.5" y="-133.5" font-family="Helvetica,sans-Serif" font-size="10.00">utility</text>
</a>
</g>
</g>
<!-- Node33&#45;&gt;Node35 -->
<g id="edge64_Node000033_Node000035" class="edge">
<title>Node33&#45;&gt;Node35</title>
<g id="a_edge64_Node000033_Node000035"><a xlink:title=" ">
<path fill="none" stroke="#63b8ff" d="M1821.7,-186.8C1836.53,-176.37 1856.61,-162.24 1871.61,-151.69"/>
<polygon fill="#63b8ff" stroke="#63b8ff" points="1874.02,-154.27 1880.19,-145.66 1870,-148.55 1874.02,-154.27"/>
</a>
</g>
</g>
</g>
</svg>
