<?xml version="1.0" encoding="UTF-8" standalone="no"?>
<!DOCTYPE svg PUBLIC "-//W3C//DTD SVG 1.1//EN"
 "http://www.w3.org/Graphics/SVG/1.1/DTD/svg11.dtd">
<!-- Generated by graphviz version 2.43.0 (0)
 -->
<!-- Title: ydb::PreparedArgsBuilder::PreparedArgsWithKey Pages: 1 -->
<svg width="251pt" height="171pt"
 viewBox="0.00 0.00 251.00 171.00" xmlns="http://www.w3.org/2000/svg" xmlns:xlink="http://www.w3.org/1999/xlink">
<g id="graph0" class="graph" transform="scale(1 1) rotate(0) translate(4 167)">
<title>ydb::PreparedArgsBuilder::PreparedArgsWithKey</title>
<!-- Node1 -->
<g id="Node000001" class="node">
<title>Node1</title>
<g id="a_Node000001"><a xlink:title=" ">
<polygon fill="#999999" stroke="#666666" points="170,-30 30,-30 30,0 170,0 170,-30"/>
<text text-anchor="start" x="38" y="-18" font-family="Helvetica,sans-Serif" font-size="10.00">ydb::PreparedArgsBuilder</text>
<text text-anchor="middle" x="100" y="-7" font-family="Helvetica,sans-Serif" font-size="10.00">::PreparedArgsWithKey</text>
</a>
</g>
</g>
<!-- Node2 -->
<g id="Node000002" class="node">
<title>Node2</title>
<g id="a_Node000002"><a xlink:href="../../dd/d98/classydb_1_1PreparedArgsBuilder.html" target="_top" xlink:title=" ">
<polygon fill="white" stroke="#bfbfbf" points="140,-96 0,-96 0,-77 140,-77 140,-96"/>
<text text-anchor="middle" x="70" y="-84" font-family="Helvetica,sans-Serif" font-size="10.00">ydb::PreparedArgsBuilder</text>
</a>
</g>
</g>
<!-- Node2&#45;&gt;Node1 -->
<g id="edge1_Node000001_Node000002" class="edge">
<title>Node2&#45;&gt;Node1</title>
<g id="a_edge1_Node000001_Node000002"><a xlink:title=" ">
<path fill="none" stroke="#9a32cd" stroke-dasharray="5,2" d="M77.65,-67.78C82.69,-56.1 89.2,-41.01 93.9,-30.14"/>
<polygon fill="#9a32cd" stroke="#9a32cd" points="74.43,-66.41 73.68,-76.98 80.86,-69.18 74.43,-66.41"/>
</a>
</g>
<text text-anchor="middle" x="104.5" y="-51" font-family="Helvetica,sans-Serif" font-size="10.00" fill="grey"> builder</text>
</g>
<!-- Node3 -->
<g id="Node000003" class="node">
<title>Node3</title>
<g id="a_Node000003"><a xlink:title=" ">
<polygon fill="white" stroke="#666666" points="223.5,-96 158.5,-96 158.5,-77 223.5,-77 223.5,-96"/>
<text text-anchor="middle" x="191" y="-84" font-family="Helvetica,sans-Serif" font-size="10.00">std::string</text>
</a>
</g>
</g>
<!-- Node3&#45;&gt;Node1 -->
<g id="edge2_Node000001_Node000003" class="edge">
<title>Node3&#45;&gt;Node1</title>
<g id="a_edge2_Node000001_Node000003"><a xlink:title=" ">
<path fill="none" stroke="#9a32cd" stroke-dasharray="5,2" d="M171.86,-70.88C156.15,-58.88 134.04,-42 118.51,-30.14"/>
<polygon fill="#9a32cd" stroke="#9a32cd" points="169.77,-73.69 179.84,-76.98 174.02,-68.13 169.77,-73.69"/>
</a>
</g>
<text text-anchor="middle" x="163.5" y="-51" font-family="Helvetica,sans-Serif" font-size="10.00" fill="grey"> key</text>
</g>
<!-- Node4 -->
<g id="Node000004" class="node">
<title>Node4</title>
<g id="a_Node000004"><a xlink:title=" ">
<polygon fill="white" stroke="#666666" points="243,-163 139,-163 139,-133 243,-133 243,-163"/>
<text text-anchor="start" x="147" y="-151" font-family="Helvetica,sans-Serif" font-size="10.00">std::basic_string&lt;</text>
<text text-anchor="middle" x="191" y="-140" font-family="Helvetica,sans-Serif" font-size="10.00"> Char &gt;</text>
</a>
</g>
</g>
<!-- Node4&#45;&gt;Node3 -->
<g id="edge3_Node000003_Node000004" class="edge">
<title>Node4&#45;&gt;Node3</title>
<g id="a_edge3_Node000003_Node000004"><a xlink:title=" ">
<path fill="none" stroke="#63b8ff" d="M191,-122.79C191,-113.36 191,-103.15 191,-96.16"/>
<polygon fill="#63b8ff" stroke="#63b8ff" points="187.5,-122.9 191,-132.9 194.5,-122.9 187.5,-122.9"/>
</a>
</g>
</g>
</g>
</svg>
