<?xml version="1.0" encoding="UTF-8" standalone="no"?>
<!DOCTYPE svg PUBLIC "-//W3C//DTD SVG 1.1//EN"
 "http://www.w3.org/Graphics/SVG/1.1/DTD/svg11.dtd">
<!-- Generated by graphviz version 2.43.0 (0)
 -->
<!-- Title: pytest_userver.plugins.dynamic_config._Changelog Pages: 1 -->
<svg width="393pt" height="181pt"
 viewBox="0.00 0.00 392.50 181.00" xmlns="http://www.w3.org/2000/svg" xmlns:xlink="http://www.w3.org/1999/xlink">
<g id="graph0" class="graph" transform="scale(1 1) rotate(0) translate(4 177)">
<title>pytest_userver.plugins.dynamic_config._Changelog</title>
<!-- Node1 -->
<g id="Node000001" class="node">
<title>Node1</title>
<g id="a_Node000001"><a xlink:title=" ">
<polygon fill="#999999" stroke="#666666" points="188.5,-30 16.5,-30 16.5,0 188.5,0 188.5,-30"/>
<text text-anchor="start" x="24.5" y="-18" font-family="Helvetica,sans-Serif" font-size="10.00">pytest_userver.plugins.dynamic</text>
<text text-anchor="middle" x="102.5" y="-7" font-family="Helvetica,sans-Serif" font-size="10.00">_config._Changelog</text>
</a>
</g>
</g>
<!-- Node2 -->
<g id="Node000002" class="node">
<title>Node2</title>
<g id="a_Node000002"><a xlink:title=" ">
<polygon fill="white" stroke="#bfbfbf" points="61,-101.5 0,-101.5 0,-82.5 61,-82.5 61,-101.5"/>
<text text-anchor="middle" x="30.5" y="-89.5" font-family="Helvetica,sans-Serif" font-size="10.00">datetime</text>
</a>
</g>
</g>
<!-- Node2&#45;&gt;Node1 -->
<g id="edge1_Node000001_Node000002" class="edge">
<title>Node2&#45;&gt;Node1</title>
<g id="a_edge1_Node000001_Node000002"><a xlink:title=" ">
<path fill="none" stroke="#9a32cd" stroke-dasharray="5,2" d="M26.72,-72.27C26.1,-64.2 26.85,-55.02 31.5,-48 36.58,-40.34 43.97,-34.49 52.09,-30.03"/>
<polygon fill="#9a32cd" stroke="#9a32cd" points="23.27,-72.89 28.17,-82.29 30.2,-71.89 23.27,-72.89"/>
</a>
</g>
<text text-anchor="middle" x="60" y="-51" font-family="Helvetica,sans-Serif" font-size="10.00" fill="grey"> timestamp</text>
</g>
<!-- Node3 -->
<g id="Node000003" class="node">
<title>Node3</title>
<g id="a_Node000003"><a xlink:title=" ">
<polygon fill="white" stroke="#bfbfbf" points="142,-173 95,-173 95,-154 142,-154 142,-173"/>
<text text-anchor="middle" x="118.5" y="-161" font-family="Helvetica,sans-Serif" font-size="10.00">typing</text>
</a>
</g>
</g>
<!-- Node3&#45;&gt;Node1 -->
<g id="edge2_Node000001_Node000003" class="edge">
<title>Node3&#45;&gt;Node1</title>
<g id="a_edge2_Node000001_Node000003"><a xlink:title=" ">
<path fill="none" stroke="#9a32cd" stroke-dasharray="5,2" d="M116.03,-143.93C114.63,-133.15 112.89,-119.32 111.5,-107 108.45,-79.86 105.43,-48.11 103.79,-30.2"/>
<polygon fill="#9a32cd" stroke="#9a32cd" points="112.56,-144.4 117.34,-153.86 119.5,-143.49 112.56,-144.4"/>
</a>
</g>
<text text-anchor="middle" x="157.5" y="-89.5" font-family="Helvetica,sans-Serif" font-size="10.00" fill="grey"> commited_entries</text>
</g>
<!-- Node4 -->
<g id="Node000004" class="node">
<title>Node4</title>
<g id="a_Node000004"><a xlink:href="../../d3/d3c/classpytest__userver_1_1plugins_1_1dynamic__config_1_1__ChangelogEntry.html" target="_top" xlink:title=" ">
<polygon fill="white" stroke="#bfbfbf" points="384.5,-107 212.5,-107 212.5,-77 384.5,-77 384.5,-107"/>
<text text-anchor="start" x="220.5" y="-95" font-family="Helvetica,sans-Serif" font-size="10.00">pytest_userver.plugins.dynamic</text>
<text text-anchor="middle" x="298.5" y="-84" font-family="Helvetica,sans-Serif" font-size="10.00">_config._ChangelogEntry</text>
</a>
</g>
</g>
<!-- Node3&#45;&gt;Node4 -->
<g id="edge4_Node000004_Node000003" class="edge">
<title>Node3&#45;&gt;Node4</title>
<g id="a_edge4_Node000004_Node000003"><a xlink:title=" ">
<path fill="none" stroke="#9a32cd" stroke-dasharray="5,2" d="M150.12,-150.29C181.44,-138.2 229.37,-119.69 262.22,-107.01"/>
<polygon fill="#9a32cd" stroke="#9a32cd" points="148.64,-147.11 140.57,-153.98 151.16,-153.64 148.64,-147.11"/>
</a>
</g>
<text text-anchor="middle" x="240.5" y="-128" font-family="Helvetica,sans-Serif" font-size="10.00" fill="grey"> dirty_keys</text>
</g>
<!-- Node4&#45;&gt;Node1 -->
<g id="edge3_Node000001_Node000004" class="edge">
<title>Node4&#45;&gt;Node1</title>
<g id="a_edge3_Node000001_Node000004"><a xlink:title=" ">
<path fill="none" stroke="#9a32cd" stroke-dasharray="5,2" d="M252.24,-73.3C217.71,-60.09 171.18,-42.28 139.2,-30.04"/>
<polygon fill="#9a32cd" stroke="#9a32cd" points="251.04,-76.59 261.63,-76.89 253.55,-70.05 251.04,-76.59"/>
</a>
</g>
<text text-anchor="middle" x="245" y="-51" font-family="Helvetica,sans-Serif" font-size="10.00" fill="grey"> staged_entry</text>
</g>
</g>
</svg>
