<?xml version="1.0" encoding="UTF-8" standalone="no"?>
<!DOCTYPE svg PUBLIC "-//W3C//DTD SVG 1.1//EN"
 "http://www.w3.org/Graphics/SVG/1.1/DTD/svg11.dtd">
<!-- Generated by graphviz version 2.43.0 (0)
 -->
<!-- Title: userver/utils/datetime/timepoint_tz.hpp Pages: 1 -->
<svg width="1986pt" height="357pt"
 viewBox="0.00 0.00 1985.57 357.00" xmlns="http://www.w3.org/2000/svg" xmlns:xlink="http://www.w3.org/1999/xlink">
<g id="graph0" class="graph" transform="scale(1 1) rotate(0) translate(4 353)">
<title>userver/utils/datetime/timepoint_tz.hpp</title>
<!-- Node1 -->
<g id="Node000001" class="node">
<title>Node1</title>
<g id="a_Node000001"><a xlink:title="Timepoint with timezone.">
<polygon fill="#999999" stroke="#666666" points="506.5,-349 381.5,-349 381.5,-319 506.5,-319 506.5,-349"/>
<text text-anchor="start" x="389.5" y="-337" font-family="Helvetica,sans-Serif" font-size="10.00">userver/utils/datetime</text>
<text text-anchor="middle" x="444" y="-326" font-family="Helvetica,sans-Serif" font-size="10.00">/timepoint_tz.hpp</text>
</a>
</g>
</g>
<!-- Node2 -->
<g id="Node000002" class="node">
<title>Node2</title>
<g id="a_Node000002"><a xlink:title=" ">
<polygon fill="#e0e0e0" stroke="#999999" points="137,-211.5 87,-211.5 87,-192.5 137,-192.5 137,-211.5"/>
<text text-anchor="middle" x="112" y="-199.5" font-family="Helvetica,sans-Serif" font-size="10.00">chrono</text>
</a>
</g>
</g>
<!-- Node1&#45;&gt;Node2 -->
<g id="edge1_Node000001_Node000002" class="edge">
<title>Node1&#45;&gt;Node2</title>
<g id="a_edge1_Node000001_Node000002"><a xlink:title=" ">
<path fill="none" stroke="#63b8ff" d="M408.15,-318.96C342.88,-293.4 205.63,-239.66 143.61,-215.38"/>
<polygon fill="#63b8ff" stroke="#63b8ff" points="144.57,-211.99 133.98,-211.61 142.02,-218.51 144.57,-211.99"/>
</a>
</g>
</g>
<!-- Node3 -->
<g id="Node000003" class="node">
<title>Node3</title>
<g id="a_Node000003"><a xlink:href="../../db/d94/log__helper_8hpp.html" target="_top" xlink:title=" ">
<polygon fill="white" stroke="#666666" points="765,-283 655,-283 655,-253 765,-253 765,-283"/>
<text text-anchor="start" x="663" y="-271" font-family="Helvetica,sans-Serif" font-size="10.00">userver/logging/log</text>
<text text-anchor="middle" x="710" y="-260" font-family="Helvetica,sans-Serif" font-size="10.00">_helper.hpp</text>
</a>
</g>
</g>
<!-- Node1&#45;&gt;Node3 -->
<g id="edge2_Node000001_Node000003" class="edge">
<title>Node1&#45;&gt;Node3</title>
<g id="a_edge2_Node000001_Node000003"><a xlink:title=" ">
<path fill="none" stroke="#63b8ff" d="M502.37,-318.95C544.51,-308.82 601.43,-295.12 645.01,-284.64"/>
<polygon fill="#63b8ff" stroke="#63b8ff" points="646.04,-287.99 654.94,-282.25 644.4,-281.18 646.04,-287.99"/>
</a>
</g>
</g>
<!-- Node3&#45;&gt;Node2 -->
<g id="edge3_Node000003_Node000002" class="edge">
<title>Node3&#45;&gt;Node2</title>
<g id="a_edge3_Node000003_Node000002"><a xlink:title=" ">
<path fill="none" stroke="#63b8ff" d="M654.66,-263.85C533.1,-256.65 246.03,-237.94 151,-217 148.17,-216.38 145.26,-215.6 142.37,-214.74"/>
<polygon fill="#63b8ff" stroke="#63b8ff" points="143.35,-211.38 132.76,-211.56 141.16,-218.02 143.35,-211.38"/>
</a>
</g>
</g>
<!-- Node4 -->
<g id="Node000004" class="node">
<title>Node4</title>
<g id="a_Node000004"><a xlink:title=" ">
<polygon fill="#e0e0e0" stroke="#999999" points="898.5,-211.5 833.5,-211.5 833.5,-192.5 898.5,-192.5 898.5,-211.5"/>
<text text-anchor="middle" x="866" y="-199.5" font-family="Helvetica,sans-Serif" font-size="10.00">exception</text>
</a>
</g>
</g>
<!-- Node3&#45;&gt;Node4 -->
<g id="edge4_Node000003_Node000004" class="edge">
<title>Node3&#45;&gt;Node4</title>
<g id="a_edge4_Node000003_Node000004"><a xlink:title=" ">
<path fill="none" stroke="#63b8ff" d="M744.23,-252.95C771.59,-241.73 809.57,-226.15 835.81,-215.39"/>
<polygon fill="#63b8ff" stroke="#63b8ff" points="837.32,-218.55 845.24,-211.52 834.66,-212.07 837.32,-218.55"/>
</a>
</g>
</g>
<!-- Node5 -->
<g id="Node000005" class="node">
<title>Node5</title>
<g id="a_Node000005"><a xlink:title=" ">
<polygon fill="#e0e0e0" stroke="#999999" points="48,-145.5 0,-145.5 0,-126.5 48,-126.5 48,-145.5"/>
<text text-anchor="middle" x="24" y="-133.5" font-family="Helvetica,sans-Serif" font-size="10.00">iosfwd</text>
</a>
</g>
</g>
<!-- Node3&#45;&gt;Node5 -->
<g id="edge5_Node000003_Node000005" class="edge">
<title>Node3&#45;&gt;Node5</title>
<g id="a_edge5_Node000003_Node000005"><a xlink:title=" ">
<path fill="none" stroke="#63b8ff" d="M654.84,-266.19C536.71,-263.76 263.17,-254.17 179,-217 160.87,-208.99 162.78,-197.55 146,-187 109.87,-164.3 96.42,-167.33 57,-151 55.84,-150.52 54.65,-150.02 53.45,-149.52"/>
<polygon fill="#63b8ff" stroke="#63b8ff" points="54.8,-146.29 44.22,-145.64 52.08,-152.75 54.8,-146.29"/>
</a>
</g>
</g>
<!-- Node6 -->
<g id="Node000006" class="node">
<title>Node6</title>
<g id="a_Node000006"><a xlink:title=" ">
<polygon fill="#e0e0e0" stroke="#999999" points="119.5,-145.5 66.5,-145.5 66.5,-126.5 119.5,-126.5 119.5,-145.5"/>
<text text-anchor="middle" x="93" y="-133.5" font-family="Helvetica,sans-Serif" font-size="10.00">iterator</text>
</a>
</g>
</g>
<!-- Node3&#45;&gt;Node6 -->
<g id="edge6_Node000003_Node000006" class="edge">
<title>Node3&#45;&gt;Node6</title>
<g id="a_edge6_Node000003_Node000006"><a xlink:title=" ">
<path fill="none" stroke="#63b8ff" d="M654.62,-264.82C544.11,-259.9 300.14,-246.02 222,-217 200.16,-208.89 198.64,-199.53 179,-187 158.73,-174.07 135.07,-160.41 117.71,-150.65"/>
<polygon fill="#63b8ff" stroke="#63b8ff" points="119.2,-147.48 108.77,-145.65 115.79,-153.59 119.2,-147.48"/>
</a>
</g>
</g>
<!-- Node7 -->
<g id="Node000007" class="node">
<title>Node7</title>
<g id="a_Node000007"><a xlink:title=" ">
<polygon fill="#e0e0e0" stroke="#999999" points="1237,-79.5 1179,-79.5 1179,-60.5 1237,-60.5 1237,-79.5"/>
<text text-anchor="middle" x="1208" y="-67.5" font-family="Helvetica,sans-Serif" font-size="10.00">memory</text>
</a>
</g>
</g>
<!-- Node3&#45;&gt;Node7 -->
<g id="edge7_Node000003_Node000007" class="edge">
<title>Node3&#45;&gt;Node7</title>
<g id="a_edge7_Node000003_Node000007"><a xlink:title=" ">
<path fill="none" stroke="#63b8ff" d="M765.07,-264.23C854.29,-258.97 1025.84,-245.42 1079,-217 1135.79,-186.64 1179.46,-120.68 1198.12,-88.87"/>
<polygon fill="#63b8ff" stroke="#63b8ff" points="1201.36,-90.25 1203.28,-79.83 1195.28,-86.78 1201.36,-90.25"/>
</a>
</g>
</g>
<!-- Node8 -->
<g id="Node000008" class="node">
<title>Node8</title>
<g id="a_Node000008"><a xlink:title=" ">
<polygon fill="#e0e0e0" stroke="#999999" points="422,-145.5 366,-145.5 366,-126.5 422,-126.5 422,-145.5"/>
<text text-anchor="middle" x="394" y="-133.5" font-family="Helvetica,sans-Serif" font-size="10.00">optional</text>
</a>
</g>
</g>
<!-- Node3&#45;&gt;Node8 -->
<g id="edge8_Node000003_Node000008" class="edge">
<title>Node3&#45;&gt;Node8</title>
<g id="a_edge8_Node000003_Node000008"><a xlink:title=" ">
<path fill="none" stroke="#63b8ff" d="M654.85,-265.2C577.66,-261.5 443.01,-250.31 409,-217 392.95,-201.28 391.05,-174.23 391.92,-155.98"/>
<polygon fill="#63b8ff" stroke="#63b8ff" points="395.41,-156.19 392.71,-145.94 388.43,-155.63 395.41,-156.19"/>
</a>
</g>
</g>
<!-- Node9 -->
<g id="Node000009" class="node">
<title>Node9</title>
<g id="a_Node000009"><a xlink:title=" ">
<polygon fill="#e0e0e0" stroke="#999999" points="1059.5,-79.5 986.5,-79.5 986.5,-60.5 1059.5,-60.5 1059.5,-79.5"/>
<text text-anchor="middle" x="1023" y="-67.5" font-family="Helvetica,sans-Serif" font-size="10.00">string_view</text>
</a>
</g>
</g>
<!-- Node3&#45;&gt;Node9 -->
<g id="edge9_Node000003_Node000009" class="edge">
<title>Node3&#45;&gt;Node9</title>
<g id="a_edge9_Node000003_Node000009"><a xlink:title=" ">
<path fill="none" stroke="#63b8ff" d="M765.26,-263.15C847.1,-256.7 995.92,-241.93 1043,-217 1087.68,-193.35 1128.63,-165.15 1104,-121 1094.38,-103.75 1076.08,-91.71 1059.31,-83.77"/>
<polygon fill="#63b8ff" stroke="#63b8ff" points="1060.25,-80.36 1049.68,-79.56 1057.44,-86.78 1060.25,-80.36"/>
</a>
</g>
</g>
<!-- Node10 -->
<g id="Node000010" class="node">
<title>Node10</title>
<g id="a_Node000010"><a xlink:title=" ">
<polygon fill="#e0e0e0" stroke="#999999" points="815.5,-211.5 734.5,-211.5 734.5,-192.5 815.5,-192.5 815.5,-211.5"/>
<text text-anchor="middle" x="775" y="-199.5" font-family="Helvetica,sans-Serif" font-size="10.00">system_error</text>
</a>
</g>
</g>
<!-- Node3&#45;&gt;Node10 -->
<g id="edge10_Node000003_Node000010" class="edge">
<title>Node3&#45;&gt;Node10</title>
<g id="a_edge10_Node000003_Node000010"><a xlink:title=" ">
<path fill="none" stroke="#63b8ff" d="M724.43,-252.8C734.56,-242.82 748.13,-229.46 758.66,-219.09"/>
<polygon fill="#63b8ff" stroke="#63b8ff" points="761.35,-221.35 766.02,-211.84 756.44,-216.37 761.35,-221.35"/>
</a>
</g>
</g>
<!-- Node11 -->
<g id="Node000011" class="node">
<title>Node11</title>
<g id="a_Node000011"><a xlink:title=" ">
<polygon fill="#e0e0e0" stroke="#999999" points="484.5,-19 415.5,-19 415.5,0 484.5,0 484.5,-19"/>
<text text-anchor="middle" x="450" y="-7" font-family="Helvetica,sans-Serif" font-size="10.00">type_traits</text>
</a>
</g>
</g>
<!-- Node3&#45;&gt;Node11 -->
<g id="edge11_Node000003_Node000011" class="edge">
<title>Node3&#45;&gt;Node11</title>
<g id="a_edge11_Node000003_Node000011"><a xlink:title=" ">
<path fill="none" stroke="#63b8ff" d="M765.09,-266C903.18,-263.04 1275.12,-252.16 1583,-217 1757.78,-197.04 2033.7,-283.78 1967,-121 1951.39,-82.9 1939.73,-71.48 1902,-55 1836.03,-26.18 732.42,-13.37 494.83,-10.94"/>
<polygon fill="#63b8ff" stroke="#63b8ff" points="494.85,-7.44 484.82,-10.84 494.78,-14.44 494.85,-7.44"/>
</a>
</g>
</g>
<!-- Node12 -->
<g id="Node000012" class="node">
<title>Node12</title>
<g id="a_Node000012"><a xlink:href="../../da/d00/universal_2include_2userver_2formats_2common_2meta_8hpp.html" target="_top" xlink:title="Metaprogramming helpers for converters detection.">
<polygon fill="white" stroke="#666666" points="558,-217 418,-217 418,-187 558,-187 558,-217"/>
<text text-anchor="start" x="426" y="-205" font-family="Helvetica,sans-Serif" font-size="10.00">userver/formats/common</text>
<text text-anchor="middle" x="488" y="-194" font-family="Helvetica,sans-Serif" font-size="10.00">/meta.hpp</text>
</a>
</g>
</g>
<!-- Node3&#45;&gt;Node12 -->
<g id="edge12_Node000003_Node000012" class="edge">
<title>Node3&#45;&gt;Node12</title>
<g id="a_edge12_Node000003_Node000012"><a xlink:title=" ">
<path fill="none" stroke="#63b8ff" d="M661.28,-252.95C627.45,-243.2 582.2,-230.16 546.43,-219.84"/>
<polygon fill="#63b8ff" stroke="#63b8ff" points="547.18,-216.42 536.61,-217.01 545.24,-223.15 547.18,-216.42"/>
</a>
</g>
</g>
<!-- Node17 -->
<g id="Node000017" class="node">
<title>Node17</title>
<g id="a_Node000017"><a xlink:href="../../db/dfb/universal_2include_2userver_2logging_2fwd_8hpp.html" target="_top" xlink:title="Forward declarations for logging types.">
<polygon fill="white" stroke="#666666" points="1323,-145.5 1189,-145.5 1189,-126.5 1323,-126.5 1323,-145.5"/>
<text text-anchor="middle" x="1256" y="-133.5" font-family="Helvetica,sans-Serif" font-size="10.00">userver/logging/fwd.hpp</text>
</a>
</g>
</g>
<!-- Node3&#45;&gt;Node17 -->
<g id="edge20_Node000003_Node000017" class="edge">
<title>Node3&#45;&gt;Node17</title>
<g id="a_edge20_Node000003_Node000017"><a xlink:title=" ">
<path fill="none" stroke="#63b8ff" d="M765.26,-265.59C872.31,-262.13 1103.67,-250.86 1175,-217 1204.92,-202.8 1230.38,-172.91 1244.39,-153.96"/>
<polygon fill="#63b8ff" stroke="#63b8ff" points="1247.36,-155.82 1250.33,-145.65 1241.67,-151.75 1247.36,-155.82"/>
</a>
</g>
</g>
<!-- Node18 -->
<g id="Node000018" class="node">
<title>Node18</title>
<g id="a_Node000018"><a xlink:href="../../d5/d37/level_8hpp.html" target="_top" xlink:title="Log levels.">
<polygon fill="white" stroke="#666666" points="716,-211.5 576,-211.5 576,-192.5 716,-192.5 716,-211.5"/>
<text text-anchor="middle" x="646" y="-199.5" font-family="Helvetica,sans-Serif" font-size="10.00">userver/logging/level.hpp</text>
</a>
</g>
</g>
<!-- Node3&#45;&gt;Node18 -->
<g id="edge22_Node000003_Node000018" class="edge">
<title>Node3&#45;&gt;Node18</title>
<g id="a_edge22_Node000003_Node000018"><a xlink:title=" ">
<path fill="none" stroke="#63b8ff" d="M695.8,-252.8C685.82,-242.82 672.46,-229.46 662.09,-219.09"/>
<polygon fill="#63b8ff" stroke="#63b8ff" points="664.39,-216.44 654.84,-211.84 659.44,-221.39 664.39,-216.44"/>
</a>
</g>
</g>
<!-- Node21 -->
<g id="Node000021" class="node">
<title>Node21</title>
<g id="a_Node000021"><a xlink:href="../../d6/def/log__extra_8hpp.html" target="_top" xlink:title="Extra tskv fields storage.">
<polygon fill="white" stroke="#666666" points="1574,-217 1464,-217 1464,-187 1574,-187 1574,-217"/>
<text text-anchor="start" x="1472" y="-205" font-family="Helvetica,sans-Serif" font-size="10.00">userver/logging/log</text>
<text text-anchor="middle" x="1519" y="-194" font-family="Helvetica,sans-Serif" font-size="10.00">_extra.hpp</text>
</a>
</g>
</g>
<!-- Node3&#45;&gt;Node21 -->
<g id="edge26_Node000003_Node000021" class="edge">
<title>Node3&#45;&gt;Node21</title>
<g id="a_edge26_Node000003_Node000021"><a xlink:title=" ">
<path fill="none" stroke="#63b8ff" d="M765.29,-262.63C909.75,-251.2 1298.04,-220.48 1453.41,-208.19"/>
<polygon fill="#63b8ff" stroke="#63b8ff" points="1454.05,-211.65 1463.75,-207.37 1453.5,-204.67 1454.05,-211.65"/>
</a>
</g>
</g>
<!-- Node30 -->
<g id="Node000030" class="node">
<title>Node30</title>
<g id="a_Node000030"><a xlink:href="../../df/dd4/source__location_8hpp_source.html" target="_top" xlink:title=" ">
<polygon fill="white" stroke="#666666" points="1033.5,-217 916.5,-217 916.5,-187 1033.5,-187 1033.5,-217"/>
<text text-anchor="start" x="924.5" y="-205" font-family="Helvetica,sans-Serif" font-size="10.00">userver/utils/impl</text>
<text text-anchor="middle" x="975" y="-194" font-family="Helvetica,sans-Serif" font-size="10.00">/source_location.hpp</text>
</a>
</g>
</g>
<!-- Node3&#45;&gt;Node30 -->
<g id="edge40_Node000003_Node000030" class="edge">
<title>Node3&#45;&gt;Node30</title>
<g id="a_edge40_Node000003_Node000030"><a xlink:title=" ">
<path fill="none" stroke="#63b8ff" d="M765.23,-253.66C806.41,-243.72 862.89,-230.08 906.87,-219.45"/>
<polygon fill="#63b8ff" stroke="#63b8ff" points="907.73,-222.85 916.63,-217.1 906.08,-216.04 907.73,-222.85"/>
</a>
</g>
</g>
<!-- Node32 -->
<g id="Node000032" class="node">
<title>Node32</title>
<g id="a_Node000032"><a xlink:href="../../d0/d03/universal_2include_2userver_2utils_2meta_8hpp.html" target="_top" xlink:title="Metaprogramming, template variables and concepts.">
<polygon fill="white" stroke="#666666" points="358.5,-211.5 231.5,-211.5 231.5,-192.5 358.5,-192.5 358.5,-211.5"/>
<text text-anchor="middle" x="295" y="-199.5" font-family="Helvetica,sans-Serif" font-size="10.00">userver/utils/meta.hpp</text>
</a>
</g>
</g>
<!-- Node3&#45;&gt;Node32 -->
<g id="edge46_Node000003_Node000032" class="edge">
<title>Node3&#45;&gt;Node32</title>
<g id="a_edge46_Node000003_Node000032"><a xlink:title=" ">
<path fill="none" stroke="#63b8ff" d="M654.98,-259.15C588.73,-249.61 474.11,-232.82 376,-217 368.65,-215.82 360.94,-214.53 353.31,-213.24"/>
<polygon fill="#63b8ff" stroke="#63b8ff" points="353.82,-209.78 343.37,-211.54 352.64,-216.68 353.82,-209.78"/>
</a>
</g>
</g>
<!-- Node12&#45;&gt;Node11 -->
<g id="edge13_Node000012_Node000011" class="edge">
<title>Node12&#45;&gt;Node11</title>
<g id="a_edge13_Node000012_Node000011"><a xlink:title=" ">
<path fill="none" stroke="#63b8ff" d="M481.62,-186.84C477.43,-176.98 472.16,-163.42 469,-151 458.13,-108.21 453.16,-56.4 451.17,-29.23"/>
<polygon fill="#63b8ff" stroke="#63b8ff" points="454.65,-28.92 450.48,-19.18 447.67,-29.4 454.65,-28.92"/>
</a>
</g>
</g>
<!-- Node13 -->
<g id="Node000013" class="node">
<title>Node13</title>
<g id="a_Node000013"><a xlink:href="../../d2/dc8/universal_2include_2userver_2formats_2parse_2to_8hpp.html" target="_top" xlink:title="Helper for parsers.">
<polygon fill="white" stroke="#666666" points="603.5,-151 478.5,-151 478.5,-121 603.5,-121 603.5,-151"/>
<text text-anchor="start" x="486.5" y="-139" font-family="Helvetica,sans-Serif" font-size="10.00">userver/formats/parse</text>
<text text-anchor="middle" x="541" y="-128" font-family="Helvetica,sans-Serif" font-size="10.00">/to.hpp</text>
</a>
</g>
</g>
<!-- Node12&#45;&gt;Node13 -->
<g id="edge14_Node000012_Node000013" class="edge">
<title>Node12&#45;&gt;Node13</title>
<g id="a_edge14_Node000012_Node000013"><a xlink:title=" ">
<path fill="none" stroke="#63b8ff" d="M499.76,-186.8C506.56,-178.59 515.24,-168.1 522.89,-158.87"/>
<polygon fill="#63b8ff" stroke="#63b8ff" points="525.59,-161.1 529.27,-151.16 520.2,-156.63 525.59,-161.1"/>
</a>
</g>
</g>
<!-- Node14 -->
<g id="Node000014" class="node">
<title>Node14</title>
<g id="a_Node000014"><a xlink:href="../../d6/d8e/universal_2include_2userver_2formats_2serialize_2to_8hpp.html" target="_top" xlink:title="Helper for serializers.">
<polygon fill="white" stroke="#666666" points="760.5,-151 621.5,-151 621.5,-121 760.5,-121 760.5,-151"/>
<text text-anchor="start" x="629.5" y="-139" font-family="Helvetica,sans-Serif" font-size="10.00">userver/formats/serialize</text>
<text text-anchor="middle" x="691" y="-128" font-family="Helvetica,sans-Serif" font-size="10.00">/to.hpp</text>
</a>
</g>
</g>
<!-- Node12&#45;&gt;Node14 -->
<g id="edge15_Node000012_Node000014" class="edge">
<title>Node12&#45;&gt;Node14</title>
<g id="a_edge15_Node000012_Node000014"><a xlink:title=" ">
<path fill="none" stroke="#63b8ff" d="M532.55,-186.95C563.22,-177.28 604.16,-164.38 636.73,-154.11"/>
<polygon fill="#63b8ff" stroke="#63b8ff" points="638.07,-157.36 646.55,-151.01 635.97,-150.68 638.07,-157.36"/>
</a>
</g>
</g>
<!-- Node15 -->
<g id="Node000015" class="node">
<title>Node15</title>
<g id="a_Node000015"><a xlink:href="../../d3/da0/meta__light_8hpp.html" target="_top" xlink:title="Lightweight concepts.">
<polygon fill="white" stroke="#666666" points="348,-151 242,-151 242,-121 348,-121 348,-151"/>
<text text-anchor="start" x="250" y="-139" font-family="Helvetica,sans-Serif" font-size="10.00">userver/utils/meta</text>
<text text-anchor="middle" x="295" y="-128" font-family="Helvetica,sans-Serif" font-size="10.00">_light.hpp</text>
</a>
</g>
</g>
<!-- Node12&#45;&gt;Node15 -->
<g id="edge16_Node000012_Node000015" class="edge">
<title>Node12&#45;&gt;Node15</title>
<g id="a_edge16_Node000012_Node000015"><a xlink:title=" ">
<path fill="none" stroke="#63b8ff" d="M445.65,-186.95C416.61,-177.33 377.9,-164.49 346.99,-154.24"/>
<polygon fill="#63b8ff" stroke="#63b8ff" points="347.85,-150.84 337.26,-151.01 345.65,-157.48 347.85,-150.84"/>
</a>
</g>
</g>
<!-- Node15&#45;&gt;Node11 -->
<g id="edge17_Node000015_Node000011" class="edge">
<title>Node15&#45;&gt;Node11</title>
<g id="a_edge17_Node000015_Node000011"><a xlink:title=" ">
<path fill="none" stroke="#63b8ff" d="M314.93,-120.94C328.64,-111.12 347.16,-97.57 363,-85 387.89,-65.23 415.62,-41.11 432.93,-25.77"/>
<polygon fill="#63b8ff" stroke="#63b8ff" points="435.39,-28.27 440.54,-19.01 430.74,-23.04 435.39,-28.27"/>
</a>
</g>
</g>
<!-- Node16 -->
<g id="Node000016" class="node">
<title>Node16</title>
<g id="a_Node000016"><a xlink:href="../../d9/dce/void__t_8hpp.html" target="_top" xlink:title="std::void_t implementation with workarounds for compiler bugs">
<polygon fill="white" stroke="#666666" points="354.5,-85 253.5,-85 253.5,-55 354.5,-55 354.5,-85"/>
<text text-anchor="start" x="261.5" y="-73" font-family="Helvetica,sans-Serif" font-size="10.00">userver/utils/void</text>
<text text-anchor="middle" x="304" y="-62" font-family="Helvetica,sans-Serif" font-size="10.00">_t.hpp</text>
</a>
</g>
</g>
<!-- Node15&#45;&gt;Node16 -->
<g id="edge18_Node000015_Node000016" class="edge">
<title>Node15&#45;&gt;Node16</title>
<g id="a_edge18_Node000015_Node000016"><a xlink:title=" ">
<path fill="none" stroke="#63b8ff" d="M297,-120.8C298.06,-113.26 299.39,-103.78 300.61,-95.13"/>
<polygon fill="#63b8ff" stroke="#63b8ff" points="304.08,-95.55 302.01,-85.16 297.15,-94.58 304.08,-95.55"/>
</a>
</g>
</g>
<!-- Node16&#45;&gt;Node11 -->
<g id="edge19_Node000016_Node000011" class="edge">
<title>Node16&#45;&gt;Node11</title>
<g id="a_edge19_Node000016_Node000011"><a xlink:title=" ">
<path fill="none" stroke="#63b8ff" d="M338.97,-54.99C363.33,-45.23 395.53,-32.33 418.97,-22.93"/>
<polygon fill="#63b8ff" stroke="#63b8ff" points="420.46,-26.11 428.44,-19.14 417.85,-19.61 420.46,-26.11"/>
</a>
</g>
</g>
<!-- Node17&#45;&gt;Node7 -->
<g id="edge21_Node000017_Node000007" class="edge">
<title>Node17&#45;&gt;Node7</title>
<g id="a_edge21_Node000017_Node000007"><a xlink:title=" ">
<path fill="none" stroke="#63b8ff" d="M1249.53,-126.37C1242.2,-116.59 1230.07,-100.42 1220.81,-88.08"/>
<polygon fill="#63b8ff" stroke="#63b8ff" points="1223.48,-85.81 1214.68,-79.91 1217.88,-90.01 1223.48,-85.81"/>
</a>
</g>
</g>
<!-- Node18&#45;&gt;Node8 -->
<g id="edge24_Node000018_Node000008" class="edge">
<title>Node18&#45;&gt;Node8</title>
<g id="a_edge24_Node000018_Node000008"><a xlink:title=" ">
<path fill="none" stroke="#63b8ff" d="M612.28,-192.44C565.45,-180.54 480.98,-159.09 431.98,-146.65"/>
<polygon fill="#63b8ff" stroke="#63b8ff" points="432.65,-143.2 422.09,-144.13 430.92,-149.99 432.65,-143.2"/>
</a>
</g>
</g>
<!-- Node19 -->
<g id="Node000019" class="node">
<title>Node19</title>
<g id="a_Node000019"><a xlink:title=" ">
<polygon fill="#e0e0e0" stroke="#999999" points="829,-145.5 779,-145.5 779,-126.5 829,-126.5 829,-145.5"/>
<text text-anchor="middle" x="804" y="-133.5" font-family="Helvetica,sans-Serif" font-size="10.00">cstdint</text>
</a>
</g>
</g>
<!-- Node18&#45;&gt;Node19 -->
<g id="edge23_Node000018_Node000019" class="edge">
<title>Node18&#45;&gt;Node19</title>
<g id="a_edge23_Node000018_Node000019"><a xlink:title=" ">
<path fill="none" stroke="#63b8ff" d="M667.52,-192.38C692.27,-182.45 734.1,-165.63 770,-151 771.2,-150.51 772.42,-150.01 773.65,-149.51"/>
<polygon fill="#63b8ff" stroke="#63b8ff" points="775.23,-152.65 783.15,-145.61 772.57,-146.17 775.23,-152.65"/>
</a>
</g>
</g>
<!-- Node20 -->
<g id="Node000020" class="node">
<title>Node20</title>
<g id="a_Node000020"><a xlink:title=" ">
<polygon fill="#e0e0e0" stroke="#999999" points="1095,-145.5 1051,-145.5 1051,-126.5 1095,-126.5 1095,-145.5"/>
<text text-anchor="middle" x="1073" y="-133.5" font-family="Helvetica,sans-Serif" font-size="10.00">string</text>
</a>
</g>
</g>
<!-- Node18&#45;&gt;Node20 -->
<g id="edge25_Node000018_Node000020" class="edge">
<title>Node18&#45;&gt;Node20</title>
<g id="a_edge25_Node000018_Node000020"><a xlink:title=" ">
<path fill="none" stroke="#63b8ff" d="M692.9,-192.43C703.75,-190.55 715.27,-188.63 726,-187 849.17,-168.26 881.09,-171.4 1004,-151 1016,-149.01 1029.1,-146.45 1040.63,-144.06"/>
<polygon fill="#63b8ff" stroke="#63b8ff" points="1041.64,-147.43 1050.7,-141.95 1040.19,-140.58 1041.64,-147.43"/>
</a>
</g>
</g>
<!-- Node21&#45;&gt;Node17 -->
<g id="edge34_Node000021_Node000017" class="edge">
<title>Node21&#45;&gt;Node17</title>
<g id="a_edge34_Node000021_Node000017"><a xlink:title=" ">
<path fill="none" stroke="#63b8ff" d="M1463.87,-187.58C1415.41,-175.79 1345.8,-158.85 1300.73,-147.89"/>
<polygon fill="#63b8ff" stroke="#63b8ff" points="1301.49,-144.47 1290.95,-145.5 1299.84,-151.27 1301.49,-144.47"/>
</a>
</g>
</g>
<!-- Node21&#45;&gt;Node20 -->
<g id="edge28_Node000021_Node000020" class="edge">
<title>Node21&#45;&gt;Node20</title>
<g id="a_edge28_Node000021_Node000020"><a xlink:title=" ">
<path fill="none" stroke="#63b8ff" d="M1463.86,-193.09C1369.9,-179.6 1181.56,-152.58 1105.73,-141.7"/>
<polygon fill="#63b8ff" stroke="#63b8ff" points="1105.78,-138.17 1095.39,-140.21 1104.79,-145.1 1105.78,-138.17"/>
</a>
</g>
</g>
<!-- Node22 -->
<g id="Node000022" class="node">
<title>Node22</title>
<g id="a_Node000022"><a xlink:title=" ">
<polygon fill="#e0e0e0" stroke="#999999" points="1424.5,-145.5 1341.5,-145.5 1341.5,-126.5 1424.5,-126.5 1424.5,-145.5"/>
<text text-anchor="middle" x="1383" y="-133.5" font-family="Helvetica,sans-Serif" font-size="10.00">initializer_list</text>
</a>
</g>
</g>
<!-- Node21&#45;&gt;Node22 -->
<g id="edge27_Node000021_Node000022" class="edge">
<title>Node21&#45;&gt;Node22</title>
<g id="a_edge27_Node000021_Node000022"><a xlink:title=" ">
<path fill="none" stroke="#63b8ff" d="M1489.15,-186.95C1465.62,-175.88 1433.07,-160.56 1410.23,-149.82"/>
<polygon fill="#63b8ff" stroke="#63b8ff" points="1411.64,-146.61 1401.1,-145.52 1408.66,-152.94 1411.64,-146.61"/>
</a>
</g>
</g>
<!-- Node23 -->
<g id="Node000023" class="node">
<title>Node23</title>
<g id="a_Node000023"><a xlink:title=" ">
<polygon fill="#e0e0e0" stroke="#999999" points="1892.5,-79.5 1847.5,-79.5 1847.5,-60.5 1892.5,-60.5 1892.5,-79.5"/>
<text text-anchor="middle" x="1870" y="-67.5" font-family="Helvetica,sans-Serif" font-size="10.00">utility</text>
</a>
</g>
</g>
<!-- Node21&#45;&gt;Node23 -->
<g id="edge29_Node000021_Node000023" class="edge">
<title>Node21&#45;&gt;Node23</title>
<g id="a_edge29_Node000021_Node000023"><a xlink:title=" ">
<path fill="none" stroke="#63b8ff" d="M1574.04,-198.63C1684.62,-193.3 1925.39,-178.63 1950,-151 1972.02,-126.28 1930.36,-99.43 1899.33,-83.97"/>
<polygon fill="#63b8ff" stroke="#63b8ff" points="1900.65,-80.72 1890.12,-79.55 1897.63,-87.03 1900.65,-80.72"/>
</a>
</g>
</g>
<!-- Node24 -->
<g id="Node000024" class="node">
<title>Node24</title>
<g id="a_Node000024"><a xlink:title=" ">
<polygon fill="#e0e0e0" stroke="#999999" points="1664.5,-145.5 1613.5,-145.5 1613.5,-126.5 1664.5,-126.5 1664.5,-145.5"/>
<text text-anchor="middle" x="1639" y="-133.5" font-family="Helvetica,sans-Serif" font-size="10.00">variant</text>
</a>
</g>
</g>
<!-- Node21&#45;&gt;Node24 -->
<g id="edge30_Node000021_Node000024" class="edge">
<title>Node21&#45;&gt;Node24</title>
<g id="a_edge30_Node000021_Node000024"><a xlink:title=" ">
<path fill="none" stroke="#63b8ff" d="M1545.33,-186.95C1565.82,-176.03 1594.06,-160.97 1614.16,-150.25"/>
<polygon fill="#63b8ff" stroke="#63b8ff" points="1615.85,-153.31 1623.03,-145.52 1612.56,-147.14 1615.85,-153.31"/>
</a>
</g>
</g>
<!-- Node25 -->
<g id="Node000025" class="node">
<title>Node25</title>
<g id="a_Node000025"><a xlink:title=" ">
<polygon fill="#e0e0e0" stroke="#999999" points="1940.5,-151 1799.5,-151 1799.5,-121 1940.5,-121 1940.5,-151"/>
<text text-anchor="start" x="1807.5" y="-139" font-family="Helvetica,sans-Serif" font-size="10.00">boost/container/container</text>
<text text-anchor="middle" x="1870" y="-128" font-family="Helvetica,sans-Serif" font-size="10.00">_fwd.hpp</text>
</a>
</g>
</g>
<!-- Node21&#45;&gt;Node25 -->
<g id="edge31_Node000021_Node000025" class="edge">
<title>Node21&#45;&gt;Node25</title>
<g id="a_edge31_Node000021_Node000025"><a xlink:title=" ">
<path fill="none" stroke="#63b8ff" d="M1574.23,-190.93C1632.07,-180.38 1723.51,-163.71 1789.4,-151.7"/>
<polygon fill="#63b8ff" stroke="#63b8ff" points="1790.13,-155.12 1799.34,-149.88 1788.88,-148.23 1790.13,-155.12"/>
</a>
</g>
</g>
<!-- Node26 -->
<g id="Node000026" class="node">
<title>Node26</title>
<g id="a_Node000026"><a xlink:href="../../d2/d84/select_8hpp.html" target="_top" xlink:title="Utilities for selection of platform specific values.">
<polygon fill="white" stroke="#666666" points="1595,-145.5 1443,-145.5 1443,-126.5 1595,-126.5 1595,-145.5"/>
<text text-anchor="middle" x="1519" y="-133.5" font-family="Helvetica,sans-Serif" font-size="10.00">userver/compiler/select.hpp</text>
</a>
</g>
</g>
<!-- Node21&#45;&gt;Node26 -->
<g id="edge32_Node000021_Node000026" class="edge">
<title>Node21&#45;&gt;Node26</title>
<g id="a_edge32_Node000021_Node000026"><a xlink:title=" ">
<path fill="none" stroke="#63b8ff" d="M1519,-186.8C1519,-177.7 1519,-165.79 1519,-155.9"/>
<polygon fill="#63b8ff" stroke="#63b8ff" points="1522.5,-155.84 1519,-145.84 1515.5,-155.84 1522.5,-155.84"/>
</a>
</g>
</g>
<!-- Node28 -->
<g id="Node000028" class="node">
<title>Node28</title>
<g id="a_Node000028"><a xlink:href="../../d5/d02/fast__pimpl_8hpp.html" target="_top" xlink:title="Implements pimpl idiom without dynamic memory allocation.">
<polygon fill="white" stroke="#666666" points="1781.5,-151 1682.5,-151 1682.5,-121 1781.5,-121 1781.5,-151"/>
<text text-anchor="start" x="1690.5" y="-139" font-family="Helvetica,sans-Serif" font-size="10.00">userver/utils/fast</text>
<text text-anchor="middle" x="1732" y="-128" font-family="Helvetica,sans-Serif" font-size="10.00">_pimpl.hpp</text>
</a>
</g>
</g>
<!-- Node21&#45;&gt;Node28 -->
<g id="edge35_Node000021_Node000028" class="edge">
<title>Node21&#45;&gt;Node28</title>
<g id="a_edge35_Node000021_Node000028"><a xlink:title=" ">
<path fill="none" stroke="#63b8ff" d="M1565.74,-186.95C1598.07,-177.24 1641.25,-164.27 1675.5,-153.98"/>
<polygon fill="#63b8ff" stroke="#63b8ff" points="1676.8,-157.24 1685.37,-151.01 1674.78,-150.54 1676.8,-157.24"/>
</a>
</g>
</g>
<!-- Node27 -->
<g id="Node000027" class="node">
<title>Node27</title>
<g id="a_Node000027"><a xlink:title=" ">
<polygon fill="#e0e0e0" stroke="#999999" points="1596.5,-79.5 1543.5,-79.5 1543.5,-60.5 1596.5,-60.5 1596.5,-79.5"/>
<text text-anchor="middle" x="1570" y="-67.5" font-family="Helvetica,sans-Serif" font-size="10.00">cstddef</text>
</a>
</g>
</g>
<!-- Node26&#45;&gt;Node27 -->
<g id="edge33_Node000026_Node000027" class="edge">
<title>Node26&#45;&gt;Node27</title>
<g id="a_edge33_Node000026_Node000027"><a xlink:title=" ">
<path fill="none" stroke="#63b8ff" d="M1525.88,-126.37C1533.67,-116.59 1546.55,-100.42 1556.39,-88.08"/>
<polygon fill="#63b8ff" stroke="#63b8ff" points="1559.41,-89.91 1562.9,-79.91 1553.93,-85.54 1559.41,-89.91"/>
</a>
</g>
</g>
<!-- Node28&#45;&gt;Node11 -->
<g id="edge38_Node000028_Node000011" class="edge">
<title>Node28&#45;&gt;Node11</title>
<g id="a_edge38_Node000028_Node000011"><a xlink:title=" ">
<path fill="none" stroke="#63b8ff" d="M1733.3,-120.8C1734.11,-102.4 1732.32,-70.83 1713,-55 1664.97,-15.64 713.93,-11.09 494.78,-10.57"/>
<polygon fill="#63b8ff" stroke="#63b8ff" points="494.61,-7.07 484.6,-10.55 494.6,-14.07 494.61,-7.07"/>
</a>
</g>
</g>
<!-- Node28&#45;&gt;Node23 -->
<g id="edge39_Node000028_Node000023" class="edge">
<title>Node28&#45;&gt;Node23</title>
<g id="a_edge39_Node000028_Node000023"><a xlink:title=" ">
<path fill="none" stroke="#63b8ff" d="M1762.28,-120.95C1786.17,-109.88 1819.2,-94.56 1842.36,-83.82"/>
<polygon fill="#63b8ff" stroke="#63b8ff" points="1844.04,-86.9 1851.63,-79.52 1841.09,-80.55 1844.04,-86.9"/>
</a>
</g>
</g>
<!-- Node28&#45;&gt;Node27 -->
<g id="edge36_Node000028_Node000027" class="edge">
<title>Node28&#45;&gt;Node27</title>
<g id="a_edge36_Node000028_Node000027"><a xlink:title=" ">
<path fill="none" stroke="#63b8ff" d="M1696.45,-120.95C1667.91,-109.68 1628.25,-94.01 1601,-83.25"/>
<polygon fill="#63b8ff" stroke="#63b8ff" points="1602.15,-79.94 1591.56,-79.52 1599.57,-86.45 1602.15,-79.94"/>
</a>
</g>
</g>
<!-- Node29 -->
<g id="Node000029" class="node">
<title>Node29</title>
<g id="a_Node000029"><a xlink:title=" ">
<polygon fill="#e0e0e0" stroke="#999999" points="1703.5,-79.5 1666.5,-79.5 1666.5,-60.5 1703.5,-60.5 1703.5,-79.5"/>
<text text-anchor="middle" x="1685" y="-67.5" font-family="Helvetica,sans-Serif" font-size="10.00">new</text>
</a>
</g>
</g>
<!-- Node28&#45;&gt;Node29 -->
<g id="edge37_Node000028_Node000029" class="edge">
<title>Node28&#45;&gt;Node29</title>
<g id="a_edge37_Node000028_Node000029"><a xlink:title=" ">
<path fill="none" stroke="#63b8ff" d="M1721.57,-120.8C1714.46,-111.11 1705,-98.24 1697.49,-88.01"/>
<polygon fill="#63b8ff" stroke="#63b8ff" points="1700.24,-85.83 1691.5,-79.84 1694.59,-89.98 1700.24,-85.83"/>
</a>
</g>
</g>
<!-- Node30&#45;&gt;Node9 -->
<g id="edge42_Node000030_Node000009" class="edge">
<title>Node30&#45;&gt;Node9</title>
<g id="a_edge42_Node000030_Node000009"><a xlink:title=" ">
<path fill="none" stroke="#63b8ff" d="M984.81,-186.7C991.08,-177 998.95,-163.68 1004,-151 1012.08,-130.75 1017.28,-106.18 1020.16,-89.66"/>
<polygon fill="#63b8ff" stroke="#63b8ff" points="1023.64,-90.09 1021.79,-79.66 1016.73,-88.96 1023.64,-90.09"/>
</a>
</g>
</g>
<!-- Node30&#45;&gt;Node11 -->
<g id="edge43_Node000030_Node000011" class="edge">
<title>Node30&#45;&gt;Node11</title>
<g id="a_edge43_Node000030_Node000011"><a xlink:title=" ">
<path fill="none" stroke="#63b8ff" d="M942.9,-186.8C923.08,-177.54 897.43,-164.67 876,-151 857.86,-139.42 857.16,-130.8 838,-121 721.72,-61.52 568.97,-30.06 494.58,-17.36"/>
<polygon fill="#63b8ff" stroke="#63b8ff" points="495.05,-13.89 484.61,-15.69 493.9,-20.8 495.05,-13.89"/>
</a>
</g>
</g>
<!-- Node30&#45;&gt;Node19 -->
<g id="edge41_Node000030_Node000019" class="edge">
<title>Node30&#45;&gt;Node19</title>
<g id="a_edge41_Node000030_Node000019"><a xlink:title=" ">
<path fill="none" stroke="#63b8ff" d="M937.47,-186.95C907.22,-175.63 865.12,-159.88 836.34,-149.1"/>
<polygon fill="#63b8ff" stroke="#63b8ff" points="837.35,-145.74 826.76,-145.52 834.9,-152.3 837.35,-145.74"/>
</a>
</g>
</g>
<!-- Node31 -->
<g id="Node000031" class="node">
<title>Node31</title>
<g id="a_Node000031"><a xlink:href="../../d4/dc3/log__filepath_8hpp.html" target="_top" xlink:title="Short source path calculator.">
<polygon fill="white" stroke="#666666" points="995,-151 885,-151 885,-121 995,-121 995,-151"/>
<text text-anchor="start" x="893" y="-139" font-family="Helvetica,sans-Serif" font-size="10.00">userver/logging/log</text>
<text text-anchor="middle" x="940" y="-128" font-family="Helvetica,sans-Serif" font-size="10.00">_filepath.hpp</text>
</a>
</g>
</g>
<!-- Node30&#45;&gt;Node31 -->
<g id="edge44_Node000030_Node000031" class="edge">
<title>Node30&#45;&gt;Node31</title>
<g id="a_edge44_Node000030_Node000031"><a xlink:title=" ">
<path fill="none" stroke="#63b8ff" d="M967.23,-186.8C962.93,-178.92 957.47,-168.95 952.57,-159.99"/>
<polygon fill="#63b8ff" stroke="#63b8ff" points="955.61,-158.26 947.75,-151.16 949.47,-161.62 955.61,-158.26"/>
</a>
</g>
</g>
<!-- Node31&#45;&gt;Node9 -->
<g id="edge45_Node000031_Node000009" class="edge">
<title>Node31&#45;&gt;Node9</title>
<g id="a_edge45_Node000031_Node000009"><a xlink:title=" ">
<path fill="none" stroke="#63b8ff" d="M958.42,-120.8C971.74,-110.53 989.71,-96.67 1003.31,-86.18"/>
<polygon fill="#63b8ff" stroke="#63b8ff" points="1005.75,-88.72 1011.53,-79.84 1001.47,-83.18 1005.75,-88.72"/>
</a>
</g>
</g>
<!-- Node32&#45;&gt;Node5 -->
<g id="edge47_Node000032_Node000005" class="edge">
<title>Node32&#45;&gt;Node5</title>
<g id="a_edge47_Node000032_Node000005"><a xlink:title=" ">
<path fill="none" stroke="#63b8ff" d="M239.39,-192.46C190.65,-184.24 118.23,-170.22 57,-151 55.37,-150.49 53.7,-149.92 52.04,-149.33"/>
<polygon fill="#63b8ff" stroke="#63b8ff" points="53.2,-146.02 42.61,-145.64 50.65,-152.54 53.2,-146.02"/>
</a>
</g>
</g>
<!-- Node32&#45;&gt;Node6 -->
<g id="edge48_Node000032_Node000006" class="edge">
<title>Node32&#45;&gt;Node6</title>
<g id="a_edge48_Node000032_Node000006"><a xlink:title=" ">
<path fill="none" stroke="#63b8ff" d="M266.71,-192.48C234.5,-182.71 180.33,-166.1 134,-151 131.85,-150.3 129.64,-149.57 127.41,-148.83"/>
<polygon fill="#63b8ff" stroke="#63b8ff" points="128.27,-145.43 117.68,-145.55 126.04,-152.06 128.27,-145.43"/>
</a>
</g>
</g>
<!-- Node32&#45;&gt;Node8 -->
<g id="edge49_Node000032_Node000008" class="edge">
<title>Node32&#45;&gt;Node8</title>
<g id="a_edge49_Node000032_Node000008"><a xlink:title=" ">
<path fill="none" stroke="#63b8ff" d="M308.35,-192.37C324.66,-181.82 352.49,-163.84 371.99,-151.23"/>
<polygon fill="#63b8ff" stroke="#63b8ff" points="374.05,-154.07 380.54,-145.7 370.25,-148.19 374.05,-154.07"/>
</a>
</g>
</g>
<!-- Node32&#45;&gt;Node11 -->
<g id="edge50_Node000032_Node000011" class="edge">
<title>Node32&#45;&gt;Node11</title>
<g id="a_edge50_Node000032_Node000011"><a xlink:title=" ">
<path fill="none" stroke="#63b8ff" d="M234.03,-192.46C208.93,-185.61 182.2,-173.26 167,-151 159.48,-139.99 161.43,-133.11 167,-121 207.56,-32.8 336.08,-14.31 405.12,-10.88"/>
<polygon fill="#63b8ff" stroke="#63b8ff" points="405.41,-14.37 415.26,-10.46 405.12,-7.38 405.41,-14.37"/>
</a>
</g>
</g>
<!-- Node32&#45;&gt;Node15 -->
<g id="edge52_Node000032_Node000015" class="edge">
<title>Node32&#45;&gt;Node15</title>
<g id="a_edge52_Node000032_Node000015"><a xlink:title=" ">
<path fill="none" stroke="#63b8ff" d="M295,-192.37C295,-184.49 295,-172.45 295,-161.6"/>
<polygon fill="#63b8ff" stroke="#63b8ff" points="298.5,-161.36 295,-151.36 291.5,-161.36 298.5,-161.36"/>
</a>
</g>
</g>
<!-- Node33 -->
<g id="Node000033" class="node">
<title>Node33</title>
<g id="a_Node000033"><a xlink:title=" ">
<polygon fill="#e0e0e0" stroke="#999999" points="223.5,-145.5 176.5,-145.5 176.5,-126.5 223.5,-126.5 223.5,-145.5"/>
<text text-anchor="middle" x="200" y="-133.5" font-family="Helvetica,sans-Serif" font-size="10.00">vector</text>
</a>
</g>
</g>
<!-- Node32&#45;&gt;Node33 -->
<g id="edge51_Node000032_Node000033" class="edge">
<title>Node32&#45;&gt;Node33</title>
<g id="a_edge51_Node000032_Node000033"><a xlink:title=" ">
<path fill="none" stroke="#63b8ff" d="M282.19,-192.37C266.61,-181.87 240.07,-164 221.38,-151.4"/>
<polygon fill="#63b8ff" stroke="#63b8ff" points="223.16,-148.38 212.91,-145.7 219.25,-154.19 223.16,-148.38"/>
</a>
</g>
</g>
</g>
</svg>
