<?xml version="1.0" encoding="UTF-8" standalone="no"?>
<!DOCTYPE svg PUBLIC "-//W3C//DTD SVG 1.1//EN"
 "http://www.w3.org/Graphics/SVG/1.1/DTD/svg11.dtd">
<!-- Generated by graphviz version 2.43.0 (0)
 -->
<!-- Title: storages::postgres::ClusterStatistics Pages: 1 -->
<svg width="1561pt" height="158pt"
 viewBox="0.00 0.00 1561.00 158.00" xmlns="http://www.w3.org/2000/svg" xmlns:xlink="http://www.w3.org/1999/xlink">
<g id="graph0" class="graph" transform="scale(1 1) rotate(0) translate(4 154)">
<title>storages::postgres::ClusterStatistics</title>
<!-- Node1 -->
<g id="Node000001" class="node">
<title>Node1</title>
<g id="a_Node000001"><a xlink:title="Cluster statistics storage.">
<polygon fill="#999999" stroke="#666666" points="1553,-55 1446,-55 1446,-25 1553,-25 1553,-55"/>
<text text-anchor="start" x="1454" y="-43" font-family="Helvetica,sans-Serif" font-size="10.00">storages::postgres</text>
<text text-anchor="middle" x="1499.5" y="-32" font-family="Helvetica,sans-Serif" font-size="10.00">::ClusterStatistics</text>
</a>
</g>
</g>
<!-- Node2 -->
<g id="Node000002" class="node">
<title>Node2</title>
<g id="a_Node000002"><a xlink:href="../../d2/df3/structstorages_1_1postgres_1_1InstanceStatsDescriptor.html" target="_top" xlink:title="Instance statistics with description.">
<polygon fill="white" stroke="#666666" points="1082,-56 943,-56 943,-26 1082,-26 1082,-56"/>
<text text-anchor="start" x="951" y="-44" font-family="Helvetica,sans-Serif" font-size="10.00">storages::postgres</text>
<text text-anchor="middle" x="1012.5" y="-33" font-family="Helvetica,sans-Serif" font-size="10.00">::InstanceStatsDescriptor</text>
</a>
</g>
</g>
<!-- Node2&#45;&gt;Node1 -->
<g id="edge1_Node000001_Node000002" class="edge">
<title>Node2&#45;&gt;Node1</title>
<g id="a_edge1_Node000001_Node000002"><a xlink:title=" ">
<path fill="none" stroke="#9a32cd" stroke-dasharray="5,2" d="M1092.67,-46.66C1095.14,-46.78 1097.59,-46.9 1100,-47 1225.68,-52.47 1257.21,-50.89 1383,-52 1403,-52.18 1408.07,-53.68 1428,-52 1433.81,-51.51 1439.87,-50.79 1445.88,-49.95"/>
<polygon fill="#9a32cd" stroke="#9a32cd" points="1092.59,-43.15 1082.42,-46.1 1092.21,-50.14 1092.59,-43.15"/>
</a>
</g>
<text text-anchor="middle" x="1266" y="-66" font-family="Helvetica,sans-Serif" font-size="10.00" fill="grey"> master</text>
<text text-anchor="middle" x="1266" y="-55" font-family="Helvetica,sans-Serif" font-size="10.00" fill="grey">sync_slave</text>
</g>
<!-- Node11 -->
<g id="Node000011" class="node">
<title>Node11</title>
<g id="a_Node000011"><a xlink:title=" ">
<polygon fill="white" stroke="#666666" points="1365,-30 1167,-30 1167,0 1365,0 1365,-30"/>
<text text-anchor="start" x="1175" y="-18" font-family="Helvetica,sans-Serif" font-size="10.00">std::vector&lt; storages</text>
<text text-anchor="middle" x="1266" y="-7" font-family="Helvetica,sans-Serif" font-size="10.00">::postgres::InstanceStatsDescriptor &gt;</text>
</a>
</g>
</g>
<!-- Node2&#45;&gt;Node11 -->
<g id="edge12_Node000011_Node000002" class="edge">
<title>Node2&#45;&gt;Node11</title>
<g id="a_edge12_Node000011_Node000002"><a xlink:title=" ">
<path fill="none" stroke="#9a32cd" stroke-dasharray="5,2" d="M1092.48,-32.83C1116,-30.4 1142.07,-27.71 1166.66,-25.17"/>
<polygon fill="#9a32cd" stroke="#9a32cd" points="1091.81,-29.39 1082.22,-33.9 1092.53,-36.35 1091.81,-29.39"/>
</a>
</g>
<text text-anchor="middle" x="1124.5" y="-35" font-family="Helvetica,sans-Serif" font-size="10.00" fill="grey"> elements</text>
</g>
<!-- Node3 -->
<g id="Node000003" class="node">
<title>Node3</title>
<g id="a_Node000003"><a xlink:title=" ">
<polygon fill="white" stroke="#666666" points="285,-43.5 220,-43.5 220,-24.5 285,-24.5 285,-43.5"/>
<text text-anchor="middle" x="252.5" y="-31.5" font-family="Helvetica,sans-Serif" font-size="10.00">std::string</text>
</a>
</g>
</g>
<!-- Node3&#45;&gt;Node2 -->
<g id="edge2_Node000002_Node000003" class="edge">
<title>Node3&#45;&gt;Node2</title>
<g id="a_edge2_Node000002_Node000003"><a xlink:title=" ">
<path fill="none" stroke="#9a32cd" stroke-dasharray="5,2" d="M295.36,-34.39C419.94,-35.54 789.13,-38.95 942.99,-40.37"/>
<polygon fill="#9a32cd" stroke="#9a32cd" points="295.14,-30.88 285.11,-34.29 295.07,-37.88 295.14,-30.88"/>
</a>
</g>
<text text-anchor="middle" x="647" y="-42" font-family="Helvetica,sans-Serif" font-size="10.00" fill="grey"> host_port</text>
</g>
<!-- Node7 -->
<g id="Node000007" class="node">
<title>Node7</title>
<g id="a_Node000007"><a xlink:title=" ">
<polygon fill="white" stroke="#666666" points="576,-94.5 398,-94.5 398,-53.5 576,-53.5 576,-94.5"/>
<text text-anchor="start" x="406" y="-82.5" font-family="Helvetica,sans-Serif" font-size="10.00">std::unordered_map</text>
<text text-anchor="start" x="406" y="-71.5" font-family="Helvetica,sans-Serif" font-size="10.00">&lt; std::string, storages</text>
<text text-anchor="middle" x="487" y="-60.5" font-family="Helvetica,sans-Serif" font-size="10.00">::postgres::StatementStatistics &gt;</text>
</a>
</g>
</g>
<!-- Node3&#45;&gt;Node7 -->
<g id="edge7_Node000007_Node000003" class="edge">
<title>Node3&#45;&gt;Node7</title>
<g id="a_edge7_Node000007_Node000003"><a xlink:title=" ">
<path fill="none" stroke="#9a32cd" stroke-dasharray="5,2" d="M295.37,-41.2C323.92,-46.12 362.8,-52.8 398,-58.86"/>
<polygon fill="#9a32cd" stroke="#9a32cd" points="295.79,-37.72 285.34,-39.48 294.6,-44.62 295.79,-37.72"/>
</a>
</g>
<text text-anchor="middle" x="354.5" y="-59" font-family="Helvetica,sans-Serif" font-size="10.00" fill="grey"> keys</text>
</g>
<!-- Node4 -->
<g id="Node000004" class="node">
<title>Node4</title>
<g id="a_Node000004"><a xlink:title=" ">
<polygon fill="white" stroke="#666666" points="108,-49 4,-49 4,-19 108,-19 108,-49"/>
<text text-anchor="start" x="12" y="-37" font-family="Helvetica,sans-Serif" font-size="10.00">std::basic_string&lt;</text>
<text text-anchor="middle" x="56" y="-26" font-family="Helvetica,sans-Serif" font-size="10.00"> Char &gt;</text>
</a>
</g>
</g>
<!-- Node4&#45;&gt;Node3 -->
<g id="edge3_Node000003_Node000004" class="edge">
<title>Node4&#45;&gt;Node3</title>
<g id="a_edge3_Node000003_Node000004"><a xlink:title=" ">
<path fill="none" stroke="#63b8ff" d="M118.33,-34C152.06,-34 192.5,-34 219.9,-34"/>
<polygon fill="#63b8ff" stroke="#63b8ff" points="118.1,-30.5 108.1,-34 118.1,-37.5 118.1,-30.5"/>
</a>
</g>
</g>
<!-- Node5 -->
<g id="Node000005" class="node">
<title>Node5</title>
<g id="a_Node000005"><a xlink:href="../../d6/d2a/structstorages_1_1postgres_1_1InstanceStatisticsNonatomic.html" target="_top" xlink:title=" ">
<polygon fill="white" stroke="#bfbfbf" points="879,-89 717,-89 717,-59 879,-59 879,-89"/>
<text text-anchor="start" x="725" y="-77" font-family="Helvetica,sans-Serif" font-size="10.00">storages::postgres</text>
<text text-anchor="middle" x="798" y="-66" font-family="Helvetica,sans-Serif" font-size="10.00">::InstanceStatisticsNonatomic</text>
</a>
</g>
</g>
<!-- Node5&#45;&gt;Node2 -->
<g id="edge4_Node000002_Node000005" class="edge">
<title>Node5&#45;&gt;Node2</title>
<g id="a_edge4_Node000002_Node000005"><a xlink:title=" ">
<path fill="none" stroke="#9a32cd" stroke-dasharray="5,2" d="M888.94,-60.03C906.92,-57.24 925.54,-54.35 942.67,-51.69"/>
<polygon fill="#9a32cd" stroke="#9a32cd" points="888.38,-56.58 879.03,-61.57 889.45,-63.5 888.38,-56.58"/>
</a>
</g>
<text text-anchor="middle" x="911" y="-62" font-family="Helvetica,sans-Serif" font-size="10.00" fill="grey"> stats</text>
</g>
<!-- Node6 -->
<g id="Node000006" class="node">
<title>Node6</title>
<g id="a_Node000006"><a xlink:href="../../df/d1c/structstorages_1_1postgres_1_1InstanceStatisticsTemplate.html" target="_top" xlink:title="Template instance statistics storage.">
<polygon fill="white" stroke="#666666" points="577,-131.5 397,-131.5 397,-112.5 577,-112.5 577,-131.5"/>
<text text-anchor="middle" x="487" y="-119.5" font-family="Helvetica,sans-Serif" font-size="10.00">InstanceStatisticsNonatomicBase</text>
</a>
</g>
</g>
<!-- Node6&#45;&gt;Node5 -->
<g id="edge5_Node000005_Node000006" class="edge">
<title>Node6&#45;&gt;Node5</title>
<g id="a_edge5_Node000005_Node000006"><a xlink:title=" ">
<path fill="none" stroke="#63b8ff" d="M559.53,-110.89C606.58,-103.58 668.24,-94 716.93,-86.44"/>
<polygon fill="#63b8ff" stroke="#63b8ff" points="558.76,-107.47 549.42,-112.46 559.84,-114.38 558.76,-107.47"/>
</a>
</g>
</g>
<!-- Node7&#45;&gt;Node5 -->
<g id="edge6_Node000005_Node000007" class="edge">
<title>Node7&#45;&gt;Node5</title>
<g id="a_edge6_Node000005_Node000007"><a xlink:title=" ">
<path fill="none" stroke="#9a32cd" stroke-dasharray="5,2" d="M586.14,-74C628.32,-74 676.99,-74 716.94,-74"/>
<polygon fill="#9a32cd" stroke="#9a32cd" points="586.13,-70.5 576.13,-74 586.13,-77.5 586.13,-70.5"/>
</a>
</g>
<text text-anchor="middle" x="647" y="-77" font-family="Helvetica,sans-Serif" font-size="10.00" fill="grey"> per_statement_stats</text>
</g>
<!-- Node8 -->
<g id="Node000008" class="node">
<title>Node8</title>
<g id="a_Node000008"><a xlink:href="../../d3/d6e/structstorages_1_1postgres_1_1StatementStatistics.html" target="_top" xlink:title=" ">
<polygon fill="white" stroke="#bfbfbf" points="312,-107 193,-107 193,-77 312,-77 312,-107"/>
<text text-anchor="start" x="201" y="-95" font-family="Helvetica,sans-Serif" font-size="10.00">storages::postgres</text>
<text text-anchor="middle" x="252.5" y="-84" font-family="Helvetica,sans-Serif" font-size="10.00">::StatementStatistics</text>
</a>
</g>
</g>
<!-- Node8&#45;&gt;Node7 -->
<g id="edge8_Node000007_Node000008" class="edge">
<title>Node8&#45;&gt;Node7</title>
<g id="a_edge8_Node000007_Node000008"><a xlink:title=" ">
<path fill="none" stroke="#9a32cd" stroke-dasharray="5,2" d="M322.45,-86.66C346.11,-84.83 372.92,-82.75 397.88,-80.82"/>
<polygon fill="#9a32cd" stroke="#9a32cd" points="321.87,-83.2 312.17,-87.46 322.41,-90.18 321.87,-83.2"/>
</a>
</g>
<text text-anchor="middle" x="354.5" y="-88" font-family="Helvetica,sans-Serif" font-size="10.00" fill="grey"> elements</text>
</g>
<!-- Node9 -->
<g id="Node000009" class="node">
<title>Node9</title>
<g id="a_Node000009"><a xlink:href="../../df/d18/classutils_1_1statistics_1_1Percentile.html" target="_top" xlink:title=" ">
<polygon fill="white" stroke="#666666" points="112,-150 0,-150 0,-120 112,-120 112,-150"/>
<text text-anchor="start" x="8" y="-138" font-family="Helvetica,sans-Serif" font-size="10.00">utils::statistics::</text>
<text text-anchor="middle" x="56" y="-127" font-family="Helvetica,sans-Serif" font-size="10.00">Percentile&lt; 2048 &gt;</text>
</a>
</g>
</g>
<!-- Node9&#45;&gt;Node8 -->
<g id="edge9_Node000008_Node000009" class="edge">
<title>Node9&#45;&gt;Node8</title>
<g id="a_edge9_Node000008_Node000009"><a xlink:title=" ">
<path fill="none" stroke="#9a32cd" stroke-dasharray="5,2" d="M122.11,-123.87C139.37,-120.64 157.94,-116.93 175,-113 182.78,-111.21 190.97,-109.15 198.97,-107.04"/>
<polygon fill="#9a32cd" stroke="#9a32cd" points="121.33,-120.45 112.13,-125.71 122.6,-127.34 121.33,-120.45"/>
</a>
</g>
<text text-anchor="middle" x="152.5" y="-124" font-family="Helvetica,sans-Serif" font-size="10.00" fill="grey"> timings</text>
</g>
<!-- Node10 -->
<g id="Node000010" class="node">
<title>Node10</title>
<g id="a_Node000010"><a xlink:href="../../da/d24/classutils_1_1statistics_1_1RateCounter.html" target="_top" xlink:title="Atomic counter of type Rate with relaxed memory ordering.">
<polygon fill="white" stroke="#666666" points="103,-102 9,-102 9,-72 103,-72 103,-102"/>
<text text-anchor="start" x="17" y="-90" font-family="Helvetica,sans-Serif" font-size="10.00">utils::statistics::</text>
<text text-anchor="middle" x="56" y="-79" font-family="Helvetica,sans-Serif" font-size="10.00">RateCounter</text>
</a>
</g>
</g>
<!-- Node10&#45;&gt;Node8 -->
<g id="edge10_Node000008_Node000010" class="edge">
<title>Node10&#45;&gt;Node8</title>
<g id="a_edge10_Node000008_Node000010"><a xlink:title=" ">
<path fill="none" stroke="#9a32cd" stroke-dasharray="5,2" d="M113.14,-88.44C138.13,-89.09 167.54,-89.84 192.82,-90.49"/>
<polygon fill="#9a32cd" stroke="#9a32cd" points="113.18,-84.94 103.09,-88.18 113,-91.94 113.18,-84.94"/>
</a>
</g>
<text text-anchor="middle" x="152.5" y="-103" font-family="Helvetica,sans-Serif" font-size="10.00" fill="grey"> errors</text>
<text text-anchor="middle" x="152.5" y="-92" font-family="Helvetica,sans-Serif" font-size="10.00" fill="grey">executed</text>
</g>
<!-- Node11&#45;&gt;Node1 -->
<g id="edge11_Node000001_Node000011" class="edge">
<title>Node11&#45;&gt;Node1</title>
<g id="a_edge11_Node000001_Node000011"><a xlink:title=" ">
<path fill="none" stroke="#9a32cd" stroke-dasharray="5,2" d="M1375.67,-24.41C1393.18,-26.13 1411.1,-28.02 1428,-30 1433.77,-30.68 1439.8,-31.44 1445.79,-32.24"/>
<polygon fill="#9a32cd" stroke="#9a32cd" points="1375.71,-20.9 1365.42,-23.41 1375.03,-27.86 1375.71,-20.9"/>
</a>
</g>
<text text-anchor="middle" x="1405.5" y="-44" font-family="Helvetica,sans-Serif" font-size="10.00" fill="grey"> slaves</text>
<text text-anchor="middle" x="1405.5" y="-33" font-family="Helvetica,sans-Serif" font-size="10.00" fill="grey">unknown</text>
</g>
</g>
</svg>
